<?xml version="1.0" encoding="utf-8"?>
<!-- Generator: Adobe Illustrator 18.1.1, SVG Export Plug-In . SVG Version: 6.00 Build 0)  -->
<svg version="1.1" xmlns="http://www.w3.org/2000/svg" xmlns:xlink="http://www.w3.org/1999/xlink" x="0px" y="0px"
	 viewBox="0 0 2204 2396" enable-background="new 0 0 2204 2396" xml:space="preserve">
<g id="Layer_1">
	<rect x="676.6" y="765.3" fill="#F9DCC4" width="893.9" height="1478.7"/>
	<path fill="#4B3246" d="M2013.8,1726.9c-3.4-0.1-6.7-4.1-10.1-6.3"/>
	<path fill="#4B3246" d="M1753.7,1424c-3.6,0.8-7.3,2.8-10.6,2.3c-7.2-1-14.3-3.3-21.4-5c8.2,0.2,16.4,0.5,24.7,0.7
		c2.2,0.1,4.4,0.1,6.6,0.1C1753.3,1422.7,1753.5,1423.4,1753.7,1424z"/>
	<path fill="#4B3246" d="M1570.5,424.3"/>
	<path fill="#4B3246" d="M1548.6,404.3"/>
	<path fill="#4B3246" d="M1307.1,294.2c0.7-0.4,1.5-0.9,2-1.2"/>
	<path fill="#4B3246" d="M1510.4,380.9c6.5,3.6,12.3,6.9,18.1,10.1"/>
	<path fill="#4B3246" d="M2157.4,2201.2"/>
	<path fill="#4B3246" d="M2139.4,539"/>
	<path fill="#4B3246" d="M1717.9,1864.5c-4.7-2.1-11.3-5-17.9-7.9c2.8-2.3,5.9-6.7,8.4-6.4c7.9,0.8,15.6,3.5,23.4,5.4
		C1728.5,1857.8,1725.2,1859.9,1717.9,1864.5z"/>
	<path fill="#4B3246" d="M1745.5,1837.8c-7.4,2.1-14.6,4.7-22.1,5.9c-3.1,0.5-6.6-2.3-10-3.5c2.1-2.4,3.9-6,6.5-6.9
		c4.1-1.4,9.1-1.9,13.4-1.1C1737.5,1832.9,1741.4,1835.9,1745.5,1837.8C1745.5,1837.8,1745.5,1837.8,1745.5,1837.8z"/>
	<path fill="#4B3246" d="M1634.4,1781.6c-0.7-6.1-1.4-12.1-2.2-18.2c7.1,1.1,14.3,2.2,21.4,3.6c0.4,0.1,0.9,2.8,0.3,3.6
		c-0.9,1.4-2.4,2.7-4,3.5c-5.2,2.7-10.6,5.2-15.8,7.7C1634.1,1781.8,1634.4,1781.6,1634.4,1781.6z"/>
	<path fill="#4B3246" d="M1654.8,638.1c6.9,1.4,13.1,2.6,19.4,3.8c-5.6,2.4-11.1,6.4-16.9,6.6c-5.4,0.2-10.9-3.5-16.4-5.4
		C1645.5,641.5,1650,639.8,1654.8,638.1z"/>
	<path fill="#4B3246" d="M1638.5,1613.8c6,3.3,11,6,15.9,8.7c-1.6,1.6-3.4,4.6-4.7,4.4c-7.9-1.2-15.8-3.2-23.7-4.9
		C1629.8,1619.7,1633.4,1617.2,1638.5,1613.8z"/>
	<path fill="#4B3246" d="M1746.3,1599.8c-3.9,1.8-7.6,4.2-11.6,5.1c-3.4,0.8-7.2-0.2-10.9-0.4c0.9-3.5,1.8-7.1,2.7-10.6
		c6.5,2.1,13,4.1,19.6,6.2C1746,1600,1746.3,1599.8,1746.3,1599.8z"/>
	<path fill="#4B3246" d="M1667.2,1911.6c-7.1-3.3-12.9-6-18.7-8.7c1.9-0.9,3.9-2.8,5.5-2.5c7.5,1.4,14.9,3.5,22.3,5.3
		C1673.6,1907.6,1670.8,1909.3,1667.2,1911.6z"/>
	<path fill="#4B3246" d="M1633.3,1647.2c-4.2,0.5-8.5,1.1-12.7,1.6c-3.9,0.4-7.8,0.8-11.6,1.2c0.4-1.9,0.3-5.2,1.3-5.5
		c4.3-1.6,8.9-2.9,13.4-3.3c3.3-0.3,6.9,0.4,10.1,1.4c3.8,1.2,7.4,3.1,11.1,4.8c-3.8,0.3-7.7,0.7-11.5,1
		C1633.3,1647.9,1633.3,1647.5,1633.3,1647.2z"/>
	<path fill="#4B3246" d="M1727.4,1613.9c1.9,4.9,4.2,8.2,4,11.3c-0.1,1.7-4.6,4.6-7,4.4c-5.3-0.4-10.4-2.4-15.6-3.7
		C1714.4,1622.3,1720,1618.6,1727.4,1613.9z"/>
	<path fill="#4B3246" d="M1735.3,1328.4c-3.5,2.2-7.6,6.8-10.4,6.1c-3.9-1-6.7-6-10-9.2c3.7,0.5,7.5,1,11.2,1.6c3,0.5,6,1.2,9,1.7
		C1735.2,1328.6,1735.3,1328.4,1735.3,1328.4z"/>
	<path fill="#4B3246" d="M1686.5,648.5c-3.1-2.7-5.8-4.9-8.1-7.5c-0.2-0.3,2.7-4.5,3.5-4.3c6.5,1.6,12.9,3.9,19.3,5.9
		C1697,644.4,1692.8,646,1686.5,648.5z"/>
	<path fill="#4B3246" d="M1651,1054c-8-1-14-1.7-19.9-2.4c4.7-2.4,9.3-5.8,14.3-6.9c2.9-0.6,6.6,2.4,10,3.8
		C1653.7,1050.5,1652,1052.6,1651,1054z"/>
	<path fill="#4B3246" d="M1737.5,1781.2c1.8,2.6,3.8,5.5,3.7,5.6c-4.2,3.3-8.3,7-13,9.3c-1.5,0.7-4.8-2.1-7.2-3.2
		C1726.1,1789.2,1731.3,1785.6,1737.5,1781.2z"/>
	<path fill="#4B3246" d="M1631.9,1728.7c2.7,2.4,6.3,4.6,6,5.6c-1.3,4-3.7,7.7-5.7,11.5c-3.4-3-6.8-6-10.1-9
		C1625,1734.3,1628,1731.8,1631.9,1728.7z"/>
	<path fill="#4B3246" d="M1690.4,1874.1c6,2,10.1,3.4,14.3,4.7c-2.1,1.3-4.2,3.5-6.3,3.6c-6.9,0.1-13.8-0.5-20.7-0.9
		C1682.1,1879,1686.5,1876.4,1690.4,1874.1z"/>
	<path fill="#4B3246" d="M1685,2074.6c-1.7-1-5.2-3.1-8.7-5.2c3.6-1.8,7.5-5.5,10.8-5.1c4.9,0.6,9.4,4.1,14,6.4
		C1696.3,2071.8,1691.4,2073,1685,2074.6z"/>
	<path fill="#4B3246" d="M1715.3,1816.8c-3.1-1.7-5.6-2.9-5.5-3c1.5-3.8,3.3-7.6,5.1-11.3c2.9,2.3,5.9,4.6,8.8,6.9
		C1720.8,1811.8,1718,1814.3,1715.3,1816.8z"/>
	<path fill="#4B3246" d="M1750.5,1511.1c-9.6,2.1-14.7,4.4-19.6,3.9c-3.3-0.3-6.2-4.6-9.3-7.2c0.9-0.8,2-2.5,2.8-2.3
		C1731.6,1506.8,1738.7,1508.5,1750.5,1511.1z"/>
	<path fill="#4B3246" d="M1679.4,1788.9c5.1,0.5,11,1,16.9,1.6c-3.7,1.6-7.3,4.3-11,4.4c-4.5,0.1-9-2.1-13.5-3.3
		C1673.9,1790.9,1676.1,1790.1,1679.4,1788.9z"/>
	<path fill="#4B3246" d="M1634.1,1781.8c1.8,2.9,3.7,5.8,5.5,8.7c-2.9,0.5-6.3,2.2-8.6,1.2c-3.6-1.6-6.4-4.9-9.5-7.5
		c2.9,0.6,5.9,1.7,8.7,1.4c1.5-0.1,2.7-2.6,4.1-4.1C1634.4,1781.6,1634.1,1781.8,1634.1,1781.8z"/>
	<path fill="#4B3246" d="M1700.1,1004c-4.1,4.6-7.6,8.4-11.1,12.2c-1.5-2-4.6-5.3-4.2-5.8c2.3-3,5.2-6.1,8.6-7.8
		C1695.1,1001.8,1698.2,1003.6,1700.1,1004z"/>
	<path fill="#4B3246" d="M1736.4,1762c-3.5,3-5.2,5-7.3,6.1c-0.8,0.4-3.8-1.3-3.7-1.7c0.6-4.9,1.6-9.8,2.5-14.7
		C1730.3,1754.7,1732.8,1757.6,1736.4,1762z"/>
	<path fill="#4B3246" d="M1719.1,704.2c-3.6,2.3-6.9,4.9-7.3,4.5c-2.3-2.1-5.7-5.6-5.2-7.5c0.8-2.8,4.8-4.7,7.4-7
		C1715.3,696.7,1716.6,699.3,1719.1,704.2z"/>
	<path fill="#4B3246" d="M1720.4,1495.5c-3.3-2.7-5.5-4.6-7.7-6.4c3.3-2.4,6.5-4.8,9.8-7.2c1.6,2.5,4.3,5,4.6,7.6
		C1727.2,1491,1723.4,1492.9,1720.4,1495.5z"/>
	<path fill="#4B3246" d="M1671.7,2079.9c-3-2.5-6.5-5.6-10.1-8.6c1.2-1.2,3.2-3.5,3.5-3.3c4.8,3.1,9.4,6.5,14,9.8
		C1677.4,2078.3,1675.7,2078.8,1671.7,2079.9z"/>
	<path fill="#4B3246" d="M1681.8,1044.8c2.8,1.7,4.5,2.8,6.3,3.8c-2.9,1.8-5.6,4.2-8.8,5.1c-1.2,0.4-3.4-2.2-5.2-3.5
		C1676.5,1048.6,1678.8,1047,1681.8,1044.8z"/>
	<path fill="#4B3246" d="M1617.5,1622.3c-2.8,1.8-4.5,3.8-5.6,3.5c-3.3-0.8-6.4-2.5-9.6-3.9c2.7-2,5.1-4.7,8.2-5.7
		C1611.7,1615.9,1614.2,1619.3,1617.5,1622.3z"/>
	<path fill="#4B3246" d="M1736.8,1713c-6.3,7.6-7.8,9.4-9.3,11.2c-2-4.5-4-9-5.7-13.6c-0.2-0.5,2-2.7,2.6-2.5
		C1728.3,1709.4,1732.1,1711.1,1736.8,1713z"/>
	<path fill="#4B3246" d="M1688.9,1551.2c4.3,1.4,7.9,2.5,11.5,3.6c-2.3,1.1-4.7,3.3-7,3.2c-3.6-0.2-7-2-10.5-3.2
		C1684.9,1553.7,1686.8,1552.5,1688.9,1551.2z"/>
	<path fill="#CAB9AA" d="M492.3,347.9c0,0-0.1,0-0.1,0c0,0.1-0.1,0.2-0.1,0.2L492.3,347.9z"/>
	<path fill="#4B3246" d="M707.7,241.2c0.1-0.1,0.1-0.2,0.2-0.2c0,0-0.1,0-0.1,0C707.8,241.1,707.7,241.2,707.7,241.2z"/>
	<path fill="#4B3246" d="M479,387.5"/>
	<path fill="#4B3246" d="M500.9,375.8c-2.9-9.3-5.7-18.6-8.6-27.9"/>
	<path fill="#4B3246" d="M541.1,332.3"/>
	<path fill="#4B3246" d="M551.9,353.9"/>
	<path fill="#4B3246" d="M538.6,2040.5c2.4,0,5.5-0.9,7.9,0.1c3.8,1.5,7.2,4.2,10.7,6.4c-3.7,1.9-7.4,4-11.3,5.5
		C545.5,2052.7,543.6,2048.8,538.6,2040.5z"/>
	<path fill="#4B3246" d="M1226.2,533.3c6.2,3.3,11.8,6.2,17.5,9.2c-1.2,0.9-2.8,2.8-3.5,2.5c-6-2.2-11.8-4.9-17.7-7.4
		C1223.6,536.4,1224.7,535.1,1226.2,533.3z"/>
	<path fill="#4B3246" d="M983.3,525c-3.8-1.7-7.3-3.3-10.9-4.9c3.9-0.8,7.7-2.2,11.6-2.2c3.1,0.1,6.2,1.9,9.3,3
		C990.1,522.2,987,523.5,983.3,525z"/>
	<path fill="#4B3246" d="M1781.9,2038.6"/>
	<path fill="#4B3246" d="M1814.8,2048.5"/>
	<path fill="#4B3246" d="M1784.1,2017.6c-2.6,0.1-5.3-3.1-7.9-4.9"/>
	<g id="HAobQW.tif">
		
			<image overflow="visible" width="177" height="56" id="Layer_0_1_" xlink:href="27CD75CA41F4803C.png"  transform="matrix(2.8342 0 0 1.6071 276.4184 -152)">
		</image>
	</g>
	<g id="_x33_wBwi4.tif">
		
			<image overflow="visible" width="410" height="280" id="Layer_0_2_" xlink:href="27CD75CA41F4803D.png"  transform="matrix(3.4089 0 0 3.4089 -1417.7142 556.3313)">
		</image>
	</g>
	<path fill="#EEE5D5" d="M796.8,825.9h641.8c26.4,0,48,21.6,48,48V2244H748.8V873.9C748.8,847.5,770.4,825.9,796.8,825.9z"/>
	<path fill="#C56C76" d="M1482.8,876.9H745v-3c0-26.4,21.6-48,48-48h641.8c26.4,0,48,21.6,48,48V876.9z"/>
	<path fill="none" d="M478.4,1027.5c1.8-13.7,5.5-27.2,10.7-40c6.3-0.4,9.4-6,10-12.4"/>
	<g id="XMLID_3_">
		<g>
			<path fill="#C56C76" d="M1731.6,545.1c0,0-299-302.6-623.3-302.6S496.6,556.3,496.6,556.3l-316.2-15.1l0.1-64.8l298.8,3.6
				c0,0,236.7-291.5,630.8-294.1c376.6-2.5,656.9,301.4,656.9,301.4h285.8v50.8L1731.6,545.1z"/>
		</g>
		<g>
		</g>
	</g>
	<line fill="none" stroke="#788E92" stroke-width="20" stroke-miterlimit="10" x1="676.6" y1="756.1" x2="1557.1" y2="756.1"/>
	<path fill="#D49B8D" d="M1759.8,636.8c2.7-6.3,2.9-12.5-1.3-17c-90.6-95.5-381.8-353.7-657.5-353.7
		c-266.4,0-525.2,247.3-621.3,350.1h-12.2v13.8c-4,6.6-3.6,14.4,0,20.5v1673.1h209.1V660.3h893.6v1450.3h200.3V636.8H1759.8z"/>
	<g id="_x38_eDboN.tif">
		
			<image overflow="visible" width="143" height="59" id="Layer_0_3_" xlink:href="27CD75CA41F4803B.png"  transform="matrix(4.938 0 0 4.938 -718.8981 61.9352)">
		</image>
	</g>
	<polygon fill="#C56C76" stroke="#C56C76" stroke-miterlimit="10" points="676.6,765.3 614.9,660.3 1622,660.3 1570.5,765.3 	"/>
	<path fill="#F9DCC4" d="M614.9,661.6H1622c0,0-254.4-237.3-508.4-237.3S614.9,661.6,614.9,661.6z"/>
	<polygon fill="#FDF0D9" points="1123.6,638.1 1102,643.4 1071.9,459.7 1155.9,459.7 	"/>
	<polygon fill="#FDF0D9" points="1176.5,636.6 1154.7,633.5 1183.4,469.4 1262.2,498.7 	"/>
	<polygon fill="#FDF0D9" points="1055,633.8 1035.2,643.5 966.3,490.4 1047.9,470.2 	"/>
</g>
<g id="Layer_2">
	<polyline fill="#F9DCC4" points="1750.7,2340.2 2185.7,2356.8 2142.7,2172.3 2066.6,2130.1 2064.6,1858.9 2014.1,1788.7 
		1998.6,837 2033.5,801.4 2001,767.5 1993.5,614.6 1736.1,614.6 	"/>
	<rect x="1810.3" y="659.9" fill="#FDF0D9" width="135.6" height="92.6"/>
	<rect x="1758.6" y="767.5" fill="#FDF0D9" width="238.9" height="66.5"/>
	<rect x="1822.1" y="1117.3" fill="#FDF0D9" width="112" height="378.6"/>
	<circle fill="#FDF0D9" cx="1878.1" cy="941.2" r="48"/>
	<polygon fill="#FDF0D9" points="2019.1,1788.7 2069.6,1858.9 1753.7,1844.6 1754.7,1775.5 	"/>
	<line fill="#D49B8D" stroke="#D49B8D" stroke-width="40" stroke-miterlimit="10" x1="1117.7" y1="876.6" x2="1117.7" y2="2244"/>
	<path fill="#C56C76" d="M180.4,540.2h295.8c0,0,304.4-305.7,632.1-305.7S1748,537.2,1748,537.2h304.8l-59.3,77.5h-257.4
		c0,0-349.4-303.7-625.7-303.7S486.6,616.2,486.6,616.2L232,615L180.4,540.2z"/>
	<path fill="#F9DCC4" d="M1392.5,182.6c-3.4-2.8-7.1-5-11-6.8c-1.2-1.3-2.4-2.6-3.7-3.8c2.4-1.8,3.3-5.3,0.1-7.7
		c-0.6-0.4-1.2-0.8-1.8-1.2c-2.1-1.6-3.5-3.6-4.5-6.4c-2.1-5.8-10.6-2.4-9.4,3.3c-1.9,0.2-3.8,0.7-5.6,1.4c-4,1.5-3.8,7.7,0.1,9.2
		c0.2,0.1,0.4,0.2,0.6,0.3c-6,0.2-12,1.3-17.8,3.5c-2.1,0.8-3.3,3.5-2.9,5.7c-0.2,0-0.4,0-0.5-0.1c0-1.8-1-3.5-3.1-4.1
		c-7.2-2.1-14.5-4-21.8-5.9c1.4-2.5,0.8-6.2-2.3-7.4c-20.8-7.9-42.1-14.3-63.8-19c-0.7-0.5-1.4-0.9-2.2-1c-2.2-0.4-4.5-0.6-6.7-0.8
		c-15.1-3-30.3-5.1-45.6-6.5c-6.4-0.6-7.6,9.4-1.2,9.9c1.1,0.1,2.3,0.2,3.4,0.3c-3.7,1-7.4,2.3-11.1,3.7c-2.1,0.1-4.1,0.1-6.2,0.3
		c-6.4,0.5-4.9,10.3,1.5,9.9c0.3,0,0.6,0,0.9,0c0.2,0.1,0.5,0.2,0.8,0.3c0.8,0.2,1.6,0.5,2.5,0.7c-3,2.7-2.7,8.6,2.3,8.6h28
		c1.1,0,2.1-0.3,2.9-0.8c6.4,1.2,12.9,2.2,19.4,3c27.1,14.6,56.3,24.9,86.7,30.3c7.9,2.6,16.7,3.7,23.3-1.4
		c8.7-0.4,17.3-1.6,25.8-3.5c1.4-0.3,2.6-1.3,3.3-2.6c5.8-0.4,11.6-1.2,17.4-2.4C1394.4,190.6,1395.9,185.4,1392.5,182.6z
		 M1353.5,181.1c2.3-0.3,4.6-0.4,6.9-0.3C1358.1,180.9,1355.8,181,1353.5,181.1z M1337.4,190.2c-4.2,0.1-8.5-0.1-12.7-0.4
		c0.2-0.4,0.4-0.8,0.5-1.2C1329.3,189,1333.3,189.6,1337.4,190.2z M1264.1,173.5c4,1.8,8,3.5,12.1,5.1c-0.2,0.2-0.4,0.3-0.6,0.5
		c-4.9-1.8-9.7-3.7-14.4-5.7C1262.1,173.4,1263.1,173.5,1264.1,173.5z M1242.4,153.3c11.8,2.5,23.5,5.6,35,9.1
		c-7.8-1.6-15.6-3-23.4-4.3c-3.4-0.6-5.3,1.9-5.4,4.6c-1.9-0.2-3.7-0.3-5.6-0.5c-2.9-1.4-5.9-2.7-8.9-3.9
		C1236.9,156.6,1239.6,154.9,1242.4,153.3z M1212.2,151.8c4.8-0.5,9.6-0.8,14.5-0.7c-0.3,0.2-0.7,0.4-1,0.6c-1.1,0.7-1.8,1.6-2,2.5
		c-0.5-0.1-1-0.1-1.5,0C1218.9,153.3,1215.6,152.5,1212.2,151.8z"/>
	<path fill="#F9DCC4" d="M526.4,348.8c-3.8-0.5-7.6-0.9-11.5-1.2c1.2-4.3-3.4-9.4-7.6-5.7l-5.5,4.8c-32.3-1.5-64.8,2.1-96.1,10.7
		c-4.3,1.2-5.7,7.9-1.8,9.6c-10.9-0.4-21.8-1.5-32.7-3.4c-6.3-1.1-7.5,8.8-1.2,9.9c27.9,4.9,56.6,4.9,84.5,0.2c0.1,2.5,1.6,5,4.3,5
		c12.2,0.1,23.6-3.2,33.8-9.8c-1.5,3.3-3,6.6-4.5,9.9c-1.7,4,2.7,8.2,6.6,6.5c9.6-4.2,15.3-14.6,13.3-24.9l18.4-1.6
		C532.3,358.2,531.9,349.5,526.4,348.8z"/>
	<path fill="#F9DCC4" d="M1422.9,135.6c-4-1.8-8-3.5-12-5.3c-0.2-1.1-0.7-2.2-1.7-3.1c-9.2-8.2-19.9-14.3-31.6-17.9
		c-3.1-1-5.6,0.9-6.5,3.3l-20.6-9.1c-5.9-2.6-9.6,6.7-3.8,9.3l72.4,32.2C1425.1,147.5,1428.8,138.2,1422.9,135.6z"/>
	<path fill="#F9DCC4" d="M1391.4,196.8c-5-0.6-6.8,5.4-4.3,8.4c-4.5,0.8-6.4,7.7-1.2,9.5c4.4,1.5,8.7,2.9,13.1,4.4
		c3,1,6.5-0.7,6.9-4C1406.9,206.2,1400.3,197.8,1391.4,196.8z"/>
	<path fill="#F9DCC4" d="M1540.5,282c1.6,0,3.1,0,4.7-0.1c1.3,1.7,2.4,3.6,3.3,5.6C1545.8,285.6,1543.2,283.8,1540.5,282z
		 M1581.7,264.5c-1.6,0.6-3.3,1.2-5,1.7c-1.6-1.9-3-4-3.2-6C1576.6,260.9,1579.4,262.4,1581.7,264.5z M1593.5,298.6L1593.5,298.6
		c-1-0.8-2.1-1-3.2-0.9c-7.3-2.2-14.7-4.4-22-6.5c-0.9-0.3-1.7-0.3-2.5-0.2l-1.9-2.3c-1.4-1.7-3.2-2.1-5-1.7
		c-0.7-2.1-1.6-4.1-2.6-6.1c5.7-0.7,11.4-1.8,17-3.3c4,4.1,8.3,7.7,11.2,10.5c3.7,3.7,7.4,7.4,11.2,11.1
		C1595,299,1594.2,298.8,1593.5,298.6z M1591.8,273.1c-2.6,0-4.5,1.4-5.2,3.3c-0.7-0.7-1.5-1.5-2.2-2.2c2.4-0.9,4.7-1.8,7.1-2.8
		c0.9-0.4,1.6-1.1,2.2-1.9c1.3,1.4,2.5,2.7,3.7,4.1C1595.5,273.3,1593.7,273.1,1591.8,273.1z M1838.6,395.4
		c-0.4-0.4-0.8-0.7-1.2-1.1c0.8,0,1.6,0.1,2.5,0.1C1839.4,394.7,1839,395,1838.6,395.4z M1981.7,457.6c-0.2,0.1,0.5,1,0.5,2.1
		c-0.2,0-0.5,0-0.9,0C1981,459,1980.9,458.1,1981.7,457.6z M1917.2,439.6c-0.4,1.6-0.5,3.4-0.4,5.4c0.1,0.9,0.2,1.8,0.4,2.7
		c-6.6-2.1-13.1-4.6-19.4-7.6C1904.3,440.3,1910.8,440.1,1917.2,439.6z M1873.6,378.5c-6.6-1.2-13.1-2.6-19.6-4.3
		c12.8,0.2,25.5,1.4,38.1,3.6C1885.9,378.4,1879.8,378.6,1873.6,378.5z"/>
	<path fill="#F9DCC4" d="M180.6,476.4l298.8,3.6c0,0,292.5-294.1,630.8-294.1S1767,487.3,1767,487.3h285.8l36.3-116.9h-258.8
		c0,0-360.3-337.4-735.3-337.4S416.7,341.3,416.7,341.3H140.8L180.6,476.4z"/>
	<rect x="447.1" y="2080.4" fill="#F9DCC4" width="1337" height="243.8"/>
	<polyline fill="#F9DCC4" points="482,2332.7 46.9,2349.2 90,2164.7 166.1,2122.5 168.1,1851.4 218.5,1781.1 234.1,829.4 
		199.2,793.8 231.6,760 232.7,613.5 486.6,616.2 	"/>
	<rect x="286.8" y="652.4" fill="#FDF0D9" width="135.6" height="92.6"/>
	<rect x="235.2" y="760" fill="#FDF0D9" width="238.9" height="66.5"/>
	<rect x="298.6" y="1109.7" fill="#FDF0D9" width="112" height="378.6"/>
	<circle fill="#FDF0D9" cx="354.6" cy="933.6" r="48"/>
	<polygon fill="#FDF0D9" points="213.5,1781.1 163.1,1851.4 479,1837 478,1767.9 	"/>
	<polygon fill="#FDF0D9" points="87,2164.7 482,2141 482,2088.9 163.2,2107 	"/>
	<polygon fill="#FDF0D9" points="2145.7,2172.3 1750.7,2148.6 1750.7,2096.5 2069.5,2114.6 	"/>
</g>
<g id="Layer_3">
</g>
</svg>
