<?xml version="1.0" encoding="utf-8"?>
<!-- Generator: Adobe Illustrator 18.1.1, SVG Export Plug-In . SVG Version: 6.00 Build 0)  -->
<svg version="1.1" xmlns="http://www.w3.org/2000/svg" xmlns:xlink="http://www.w3.org/1999/xlink" x="0px" y="0px"
	 viewBox="0 0 3004 2833.3" enable-background="new 0 0 3004 2833.3" xml:space="preserve">
<pattern  x="-3198.4" y="1962.2" width="139" height="150.8" patternUnits="userSpaceOnUse" id="New_Pattern" viewBox="69.5 -188.5 139 150.8" overflow="visible">
	<g>
		<polygon fill="none" points="69.5,-188.5 208.5,-188.5 208.5,-37.7 69.5,-37.7 		"/>
		<polygon fill="#C56C76" stroke="#D49B8D" stroke-width="7" stroke-miterlimit="10" points="274.5,-3.5 142.5,-3.5 142.5,-71.9 
			274.5,-71.9 		"/>
		<polygon fill="#C56C76" stroke="#D49B8D" stroke-width="7" stroke-miterlimit="10" points="135.5,-3.5 3.5,-3.5 3.5,-71.9 
			135.5,-71.9 		"/>
		<polygon fill="#C56C76" stroke="#D49B8D" stroke-width="7" stroke-miterlimit="10" points="205,-78.9 73,-78.9 73,-147.3 
			205,-147.3 		"/>
		<polygon fill="#C56C76" stroke="#D49B8D" stroke-width="7" stroke-miterlimit="10" points="274.5,-154.3 142.5,-154.3 
			142.5,-222.7 274.5,-222.7 		"/>
		<polygon fill="#C56C76" stroke="#D49B8D" stroke-width="7" stroke-miterlimit="10" points="135.5,-154.3 3.5,-154.3 3.5,-222.7 
			135.5,-222.7 		"/>
	</g>
</pattern>
<pattern  x="-3198.4" y="1962.2" width="147" height="166" patternUnits="userSpaceOnUse" id="New_Pattern_2" viewBox="73.5 -207.5 147 166" overflow="visible">
	<g>
		<polygon fill="none" points="73.5,-207.5 220.5,-207.5 220.5,-41.5 73.5,-41.5 		"/>
		<polygon fill="#8BAFB2" stroke="#7A98A0" stroke-width="7" stroke-miterlimit="10" points="290.5,-3.5 150.5,-3.5 150.5,-79.5 
			290.5,-79.5 		"/>
		<polygon fill="#8BAFB2" stroke="#7A98A0" stroke-width="7" stroke-miterlimit="10" points="143.5,-3.5 3.5,-3.5 3.5,-79.5 
			143.5,-79.5 		"/>
		<polygon fill="#8BAFB2" stroke="#7A98A0" stroke-width="7" stroke-miterlimit="10" points="217,-86.5 77,-86.5 77,-162.5 
			217,-162.5 		"/>
		<polygon fill="#8BAFB2" stroke="#7A98A0" stroke-width="7" stroke-miterlimit="10" points="290.5,-169.5 150.5,-169.5 
			150.5,-245.5 290.5,-245.5 		"/>
		<polygon fill="#8BAFB2" stroke="#7A98A0" stroke-width="7" stroke-miterlimit="10" points="143.5,-169.5 3.5,-169.5 3.5,-245.5 
			143.5,-245.5 		"/>
	</g>
</pattern>
<pattern  x="-3198.4" y="1962.2" width="147" height="166" patternUnits="userSpaceOnUse" id="New_Pattern_5" viewBox="73.5 -207.5 147 166" overflow="visible">
	<g>
		<polygon fill="none" points="73.5,-207.5 220.5,-207.5 220.5,-41.5 73.5,-41.5 		"/>
		<polygon fill="#413644" stroke="#5B4C59" stroke-width="7" stroke-miterlimit="10" points="290.5,-3.5 150.5,-3.5 150.5,-79.5 
			290.5,-79.5 		"/>
		<polygon fill="#413644" stroke="#5B4C59" stroke-width="7" stroke-miterlimit="10" points="143.5,-3.5 3.5,-3.5 3.5,-79.5 
			143.5,-79.5 		"/>
		<polygon fill="#413644" stroke="#5B4C59" stroke-width="7" stroke-miterlimit="10" points="217,-86.5 77,-86.5 77,-162.5 
			217,-162.5 		"/>
		<polygon fill="#413644" stroke="#5B4C59" stroke-width="7" stroke-miterlimit="10" points="290.5,-169.5 150.5,-169.5 
			150.5,-245.5 290.5,-245.5 		"/>
		<polygon fill="#413644" stroke="#5B4C59" stroke-width="7" stroke-miterlimit="10" points="143.5,-169.5 3.5,-169.5 3.5,-245.5 
			143.5,-245.5 		"/>
	</g>
</pattern>
<g id="Layer_1">
	<g id="HAobQW.tif">
		
			<image overflow="visible" width="177" height="56" id="Layer_0_1_" xlink:href="A17FFCFBE76FBDE9.png"  transform="matrix(2.8342 0 0 1.6071 -3625.939 306.1667)">
		</image>
	</g>
	<g id="_x33_wBwi4.tif">
		
			<image overflow="visible" width="410" height="280" id="Layer_0_2_" xlink:href="A17FFCFBE76FBDEB.png"  transform="matrix(2.6822 0 0 2.6822 -6557.9937 770.6393)">
		</image>
	</g>
	<rect x="-1023.3" y="396.4" fill="#DE6757" width="893.9" height="1548.4"/>
	<path fill="#4B3246" d="M-577.4,276.3c0.7-0.4,1.5-0.9,2-1.2"/>
	<path fill="#4B3246" d="M479.1,2183.4"/>
	<path fill="#4B3246" d="M119.3-93.7"/>
	<path fill="#CAB9AA" d="M-576.2,330.1c0,0-0.1,0-0.1,0c0,0.1-0.1,0.2-0.1,0.2L-576.2,330.1z"/>
	<path fill="#4B3246" d="M-576.5,223.4c0.1-0.1,0.1-0.2,0.2-0.2c0,0-0.1,0-0.1,0C-576.4,223.3-576.4,223.3-576.5,223.4z"/>
	<path fill="#4B3246" d="M-576.4,369.7"/>
	<path fill="#4B3246" d="M-572.1,358c-2.9-9.3-5.7-18.6-8.6-27.9"/>
	<path fill="#4B3246" d="M-576.4,314.5"/>
	<path fill="#4B3246" d="M-576.4,336.1"/>
	<path fill="none" d="M-586.7,658.6c1.8-13.7,5.5-27.2,10.7-40c6.3-0.4,9.4-6,10-12.4"/>
	<linearGradient id="SVGID_1_" gradientUnits="userSpaceOnUse" x1="-898.6084" y1="1853.7313" x2="-264.6842" y2="537.3132">
		<stop  offset="0" style="stop-color:#D8AB6C"/>
		<stop  offset="1" style="stop-color:#FFD67E"/>
	</linearGradient>
	<path fill="url(#SVGID_1_)" d="M-897.3,456.9h641.8c26.4,0,48,21.6,48,48v1370.1h-737.8V504.9
		C-945.3,478.5-923.7,456.9-897.3,456.9z"/>
	<path fill="#913433" d="M-207.4,507.9h-737.8v-3c0-26.4,21.6-48,48-48h641.8c26.4,0,48,21.6,48,48V507.9z"/>
	<rect x="-7018.3" y="-17.8" fill="#FFFEF1" width="3004" height="2872"/>
	<g>
		<path fill="#4B3246" d="M368.9-419"/>
		<path fill="#4B3246" d="M24.6-310c6.2,3.3,11.8,6.2,17.5,9.2c-1.2,0.9-2.8,2.8-3.5,2.5c-6-2.2-11.8-4.9-17.7-7.4
			C22-307,23.1-308.2,24.6-310z"/>
		<path fill="#4B3246" d="M-218.3-318.4c-3.8-1.7-7.3-3.3-10.9-4.9c3.9-0.8,7.7-2.2,11.6-2.2c3.1,0.1,6.2,1.9,9.3,3
			C-211.5-321.1-214.6-319.9-218.3-318.4z"/>
		<path fill="#F9DCC4" d="M-586.7-181.7H420.4c0,0-254.4-237.3-508.4-237.3S-586.7-181.7-586.7-181.7z"/>
		<polygon fill="#FDF0D9" points="-78,-205.2 -99.6,-200 -129.7,-383.6 -45.7,-383.6 		"/>
		<polygon fill="#FDF0D9" points="-25.1,-206.7 -46.9,-209.8 -18.2,-373.9 60.6,-344.7 		"/>
		<polygon fill="#FDF0D9" points="-146.6,-209.6 -166.4,-199.8 -235.3,-352.9 -153.7,-373.1 		"/>
	</g>
	<rect x="-7018.3" y="-17.8" fill="url(#New_Pattern_2)" width="3004" height="2872"/>
	<rect x="-7018.3" y="2336.5" fill="url(#New_Pattern)" width="3004" height="268.6"/>
	<g id="_x33_wBwi4.tif_1_">
		
			<image overflow="visible" width="410" height="280" id="Layer_0_4_" xlink:href="A17FFCFBE76FBDEE.png"  transform="matrix(2.6822 0 0 2.6822 460.2607 770.6393)">
		</image>
	</g>
	<rect x="0" y="-17.8" fill="#FFFEF1" width="3004" height="2872"/>
	<pattern  id="SVGID_2_" xlink:href="#New_Pattern_5" patternTransform="matrix(1 0 0 1 109.2542 0)">
	</pattern>
	<rect x="0" y="-17.8" fill="url(#SVGID_2_)" width="3004" height="2872"/>
	<rect x="-1153.4" y="195.9" fill="#913433" width="1133.4" height="118.5"/>
	<g id="tTWrGk.tif">
		
			<image overflow="visible" width="204" height="41" id="Layer_0_3_" xlink:href="A17FFCFBE76FBDEF.png"  transform="matrix(4.935 0 0 4.935 -1589.4685 -220.1674)">
		</image>
	</g>
	<g>
		<path fill="#CAB9AA" d="M-267.4,567.9v1242.1h-617.8V567.9H-267.4 M-209.5,507.9h-733.7c-1.1,0-2.1,0.9-2.1,2.1v1358
			c0,1.1,0.9,2.1,2.1,2.1h733.7c1.1,0,2.1-0.9,2.1-2.1V510C-207.4,508.9-208.4,507.9-209.5,507.9L-209.5,507.9z"/>
	</g>
	
		<rect x="-911.3" y="1467.5" fill="none" stroke="#CAB9AA" stroke-width="60" stroke-linecap="square" stroke-miterlimit="10" width="676" height="376"/>
	
		<line fill="none" stroke="#CAB9AA" stroke-width="60" stroke-linecap="square" stroke-miterlimit="10" x1="-586.7" y1="557.9" x2="-586.7" y2="1844"/>
	<rect x="-1152.1" y="1939.8" fill="#D49B8D" width="1133.4" height="96.2"/>
	<polygon fill="#913433" points="-1152.1,2036.1 -1079.5,2099.1 -101.8,2103.6 -18.7,2036.1 	"/>
	<g id="xG4dGs.tif">
		
			<image overflow="visible" width="173" height="44" id="Layer_0_6_" xlink:href="A17FFCFBE76FBDEA.png"  transform="matrix(3.2813 0 0 4.93 -2621.1274 -328.6274)">
		</image>
	</g>
</g>
<g id="Layer_5">
	<path fill="#FFFFFF" stroke="#000000" stroke-miterlimit="10" d="M2353.6,5406.2"/>
	<path fill="#68536F" stroke="#68536F" stroke-width="12" stroke-linecap="square" stroke-miterlimit="10" d="M1279.5,4466.4H1219
		V4140c0-14,11.4-25.4,25.4-25.4h35.1c14,0,25.4,11.4,25.4,25.4v301C1304.8,4455,1293.5,4466.4,1279.5,4466.4z"/>
	
		<polygon fill="#788E92" stroke="#788E92" stroke-width="12" stroke-linecap="round" stroke-linejoin="round" stroke-miterlimit="10" points="
		971.1,3414.6 1517.7,3414.6 1343.3,3299.6 1153.9,3299.6 	"/>
	<polygon fill="#C0B2A8" stroke="#EEE5D5" stroke-width="20" stroke-miterlimit="10" points="1119.9,3896.5 971.1,3414.6 
		1517.7,3414.6 1404,3896.5 1404,4126.5 1119.9,4126.5 	"/>
	<line fill="#C0B2A8" stroke="#EEE5D5" stroke-width="20" stroke-miterlimit="10" x1="1119.9" y1="3896.5" x2="1404" y2="3896.5"/>
	
		<line fill="#C0B2A8" stroke="#EEE5D5" stroke-width="20" stroke-miterlimit="10" x1="1186.3" y1="3896.5" x2="1186.3" y2="4126.5"/>
	
		<line fill="#C0B2A8" stroke="#EEE5D5" stroke-width="20" stroke-miterlimit="10" x1="1321.6" y1="3896.5" x2="1321.6" y2="4126.5"/>
	
		<line fill="#C0B2A8" stroke="#EEE5D5" stroke-width="20" stroke-miterlimit="10" x1="1321.6" y1="3896.5" x2="1368.9" y2="3414.6"/>
	
		<line fill="#C0B2A8" stroke="#EEE5D5" stroke-width="20" stroke-miterlimit="10" x1="1186.3" y1="3896.5" x2="1122.2" y2="3414.6"/>
	
		<path fill="#788E92" stroke="#788E92" stroke-width="12" stroke-linecap="round" stroke-linejoin="round" stroke-miterlimit="10" d="
		M1321.1,3272.5c0-42-31.1-76.1-79.5-76.1c-43.9,0-79.5,34.1-79.5,76.1c0,42,35.6,76.1,79.5,76.1
		C1285.5,3348.6,1321.1,3314.5,1321.1,3272.5z"/>
	<rect x="1210.9" y="4138.8" fill="#68536F" width="102.1" height="57"/>
	
		<polygon fill="#68536F" stroke="#68536F" stroke-width="12" stroke-linecap="round" stroke-linejoin="round" stroke-miterlimit="10" points="
		1122.7,7422.4 1415.2,7422.4 1415.2,6536.3 1347.6,6461.8 1347.6,4195.8 1171.7,4195.8 1171.7,6468.6 1122.2,6541.5 	"/>
	<path fill="#68536F" stroke="#FFFFFF" stroke-linecap="round" stroke-miterlimit="10" d="M1117.1,6541.5l0.5,880.8h301v-886.1
		l-126.6,34.1c-15.8,4.3-32.5,4.5-48.5,0.8L1117.1,6541.5z"/>
	<ellipse fill="#788E92" cx="1230.9" cy="3258.7" rx="68.3" ry="66.2"/>
	
		<path fill="#788E92" stroke="#788E92" stroke-width="12" stroke-linecap="round" stroke-linejoin="round" stroke-miterlimit="10" d="
		M1171.7,6468.6l-54.6,72.9c164.5,60.5,301.5-5.3,301.5-5.3l-66-67.6H1171.7z"/>
	<path fill="#68536F" stroke="#68536F" stroke-width="12" stroke-linecap="square" stroke-miterlimit="10" d="M4065.5,1670.9H4005
		v-326.4c0-14,11.4-25.4,25.4-25.4h35.1c14,0,25.4,11.4,25.4,25.4v301C4090.8,1659.5,4079.5,1670.9,4065.5,1670.9z"/>
	<polygon stroke="#000000" stroke-width="12" stroke-linecap="round" stroke-linejoin="round" stroke-miterlimit="10" points="
		3754.3,610.6 4301,610.6 4112.5,495.6 3954.1,495.6 	"/>
	
		<polygon fill="#C0B2A8" stroke="#000000" stroke-width="20" stroke-linecap="round" stroke-linejoin="round" stroke-miterlimit="10" points="
		3905.9,1101 3761.1,619.1 4297.7,619.1 4190,1101 4190,1331 3905.9,1331 	"/>
	<line fill="#C0B2A8" stroke="#000000" stroke-width="20" stroke-miterlimit="10" x1="3905.9" y1="1101" x2="4190" y2="1101"/>
	<line fill="#C0B2A8" stroke="#000000" stroke-width="20" stroke-miterlimit="10" x1="3972.3" y1="1101" x2="3972.3" y2="1331"/>
	<line fill="#C0B2A8" stroke="#000000" stroke-width="20" stroke-miterlimit="10" x1="4107.6" y1="1101" x2="4107.6" y2="1331"/>
	<line fill="#C0B2A8" stroke="#000000" stroke-width="20" stroke-miterlimit="10" x1="4107.6" y1="1101" x2="4154.9" y2="619.1"/>
	<line fill="#C0B2A8" stroke="#000000" stroke-width="20" stroke-miterlimit="10" x1="3972.3" y1="1101" x2="3908.2" y2="619.1"/>
	<path stroke="#000000" stroke-width="12" stroke-linecap="round" stroke-linejoin="round" stroke-miterlimit="10" d="M4107.1,477
		c0-42-31.1-76.1-79.5-76.1c-43.9,0-79.5,34.1-79.5,76.1c0,42,35.6,76.1,79.5,76.1S4107.1,519,4107.1,477z"/>
	<rect x="3996.9" y="1343.3" width="102.1" height="57"/>
	<path stroke="#000000" stroke-width="12" stroke-linecap="round" stroke-linejoin="round" stroke-miterlimit="10" d="
		M3928.7,4421.3h252.6c11,0,20-8.4,20-18.7v-803.7c0-4.7-1.9-9.1-5.2-12.6l-57.2-59c-3.3-3.4-5.2-7.9-5.2-12.6V1419.1
		c0-10.3-9-18.7-20-18.7h-135.9c-11,0-20,8.4-20,18.7v2103.5c0,3.8-1.2,7.4-3.5,10.5l-42.6,58.7c-2.3,3.1-3.5,6.8-3.5,10.5
		l0.5,800.2C3908.7,4412.9,3917.6,4421.3,3928.7,4421.3z"/>
	<path stroke="#000000" stroke-linecap="round" stroke-miterlimit="10" d="M3911.6,3835.1l-8.6,811.8c0,54.5,303.5,49.2,303.5-3.7
		l-7-809.7c0-73.1-51.2-126.2-110.4-107.2l0,0c-22.7,7.3-46.6,7.8-69.5,1.4l-2.6-0.7C3958.5,3710.6,3911.6,3763.5,3911.6,3835.1z"/>
	<ellipse cx="4016.9" cy="463.2" rx="68.3" ry="66.2"/>
</g>
<g id="Layer_6_copy">
	<g id="XMLID_2_">
		<g>
			<path fill="#788E92" d="M-578.1,3233.3c-50.4,4.8-33.5,8.8-128.7-6.5c-4.8-6.6-32.1-24.1-37-30.6c-7.2-9.6-14.3-19.3-21.5-28.9
				c-1.4-1.9-2.4-4.2-5.8-10.2c-0.2,0.6-0.3,1.2-0.4,1.8c-15.5-18.1-15.3-43.9-10.8-67c9.1-51.6,5.7-39.4,16.1-61.3
				c1.2-2.6,24.8-44.1,26.1-46.6c-0.3-0.1-0.5-0.1-0.8-0.2c5.2-5.9,9.1-13,11.1-20.1c0.5-0.8,0.9-1.6,1.3-2.5
				c1.3-0.6,1.5-2.8,3.3-2.8c-0.4-1.2-0.3-2.7-0.4-4.1c10-26.8,9.2-53.7,5-81.3c-1.3-8.2,0.2-16.8,0.5-25.2
				c1-25.5,0.6-51.1,3.7-76.4c1.5-12.5,9.9-24,14.8-36.1c2.5-6,5.3-12.2,6.1-18.6c2.3-18.4,3.2-36.9,5.7-55.3
				c1.9-13.5,1.2-25.5-5.7-38.2c-6.4-11.7-8.9-25.7-11.7-39c-0.6-2.7,4.9-7.9,8.7-9.9c2.5-1.3,7.1,0.5,10.4,1.8
				c20.2,8.1,39.8,19.3,60.8,23.6c13.2,2.7,28.9-3.7,42.8-8c20.6-6.3,40.5-14.7,61-21.3c3.1-1,6.7,0,10.4,0.9
				c-0.6,2.1-1.4,4.1-1.5,6.1c-0.8,0.8-1.3,1.7-1.6,2.6c-4.3,15-9.3,30-11.2,45.4c-2.8,23.3-4.9,46.9-3.9,70.3
				c0.5,11.5,8.6,61.7,11.8,70.8c15.4,43.6,13.5,89,14.5,134.1c0.2,10-2.1,20.1-2.7,30.2c-0.1,2.4,1.3,6.6,3.1,7.2
				c11.5,4.1,33.1,47,35.6,53.2c7.9,19.7,18.3,39,22.5,59.6c2.7,13.1,9.3,46.1,4.9,78.1c-4.7,34.1-19.9,79.8-20.7,81.3
				c-3,5-8,8-11,8C-509.1,3225.3-543.1,3229.3-578.1,3233.3z M-535.5,2608c0.8-5.6,1.2-11.2,1.8-16.8c-5.6,4.1-12,7.5-16.5,12.5
				c-2.9,3.2-3.1,8.9-5.2,15.5c3.3,3.9,6.8,8.1,10.4,12.3c2.2-3.7,5-7.2,6.6-11.2C-536.9,2616.4-536.2,2612.1-535.5,2608z
				 M-612.2,2687.1c7.3-7,14.5-11.9,13.8-13.4c-3.1-7-8.3-13-12.8-19.4c-4.9,4.9-12.5,9.1-13.7,14.8
				C-625.7,2673.1-618.2,2679-612.2,2687.1z M-671.9,2622.1c2-3.6,4-7.2,7.2-12.8c-7-5.9-13.8-11.9-20.9-17.6c-1-0.8-3.1,0-4.7,0
				c1.9,5.9,3.7,11.9,5.8,17.7c0.8,2.2,2,4.6,3.7,6.1C-678.1,2618.1-674.9,2620-671.9,2622.1z"/>
			<path fill="#788E92" d="M-598.3,2673.6c0.7,1.5-6.5,6.5-13.8,13.4c-6-8.1-13.5-14-12.7-18.1c1.2-5.6,8.8-9.9,13.7-14.8
				C-606.7,2660.6-601.4,2666.6-598.3,2673.6z"/>
		</g>
		<g>
			<path fill="none" stroke="#7A98A0" stroke-miterlimit="10" d="M-743.8,3196.3c4.8,6.5,32.2,24.1,37,30.6
				c95.2,15.3,78.3,11.2,128.7,6.5c35-4,69-8,105-15c3,0,8-3,11-8c0.8-1.6,16-47.2,20.7-81.3c4.4-32.1-2.2-65-4.9-78.1
				c-4.2-20.5-14.6-39.8-22.5-59.6c-2.5-6.2-24.1-49.2-35.6-53.2c-1.7-0.6-3.2-4.8-3.1-7.2c0.6-10.1,2.9-20.2,2.7-30.2
				c-1-45.1,0.9-90.5-14.5-134.1c-3.2-9.1-11.3-59.3-11.8-70.8c-1-23.3,1.1-47,3.9-70.3c1.9-15.4,6.8-30.4,11.2-45.4
				c0.3-0.9,0.9-1.8,1.6-2.6c0.1-2,0.9-4.1,1.5-6.1c-3.7-0.9-7.3-1.8-10.4-0.9c-20.5,6.6-40.4,15-61,21.3c-14,4.3-29.6,10.7-42.8,8
				c-21-4.3-40.5-15.5-60.8-23.6c-3.3-1.3-8-3.2-10.4-1.8c-3.8,2-9.2,7.2-8.7,9.9c2.8,13.3,5.3,27.3,11.7,39
				c6.9,12.7,7.5,24.7,5.7,38.2c-2.5,18.3-3.4,36.9-5.7,55.3c-0.8,6.3-3.6,12.5-6.1,18.6c-4.9,12.1-13.3,23.7-14.8,36.1
				c-3.1,25.2-2.7,50.9-3.7,76.4c-0.3,8.4-1.8,17.1-0.5,25.2c4.2,27.6,5.1,54.5-5,81.3c0.1,1.4,0,2.9,0.4,4.1c-1.7,0-2,2.2-3.3,2.8
				c-0.4,0.9-0.9,1.8-1.3,2.5c-2,7.2-5.9,14.2-11.1,20.1c0.3,0.1,0.5,0.2,0.8,0.2c-1.3,2.5-24.8,44-26.1,46.6
				c-10.4,21.9-7,9.7-16.1,61.3c-4.6,23.1-4.8,48.9,10.8,67c0.1-0.6,0.3-1.1,0.4-1.8c3.3,6,4.3,8.3,5.8,10.2
				C-758.1,3177-751,3186.6-743.8,3196.3z"/>
			<path fill="none" stroke="#7A98A0" stroke-miterlimit="10" d="M-550.3,2603.6c4.6-5,10.9-8.4,16.5-12.5
				c-0.6,5.6-0.9,11.3-1.8,16.8c-0.6,4.2-1.4,8.4-3,12.3c-1.6,4-4.3,7.5-6.6,11.2c-3.6-4.2-7.1-8.4-10.4-12.3
				C-553.4,2612.5-553.2,2606.8-550.3,2603.6z"/>
			<path fill="none" stroke="#7A98A0" stroke-miterlimit="10" d="M-624.8,2669c1.2-5.6,8.8-9.9,13.7-14.8
				c4.5,6.4,9.7,12.4,12.8,19.4c0.7,1.5-6.5,6.5-13.8,13.4C-618.2,2679-625.7,2673.1-624.8,2669z"/>
			<path fill="none" stroke="#7A98A0" stroke-miterlimit="10" d="M-690.3,2591.7c1.6,0,3.7-0.8,4.7,0c7.1,5.7,13.9,11.6,20.9,17.6
				c-3.1,5.6-5.1,9.2-7.2,12.8c-3-2.1-6.3-4.1-9-6.6c-1.7-1.6-2.9-3.9-3.7-6.1C-686.6,2603.6-688.4,2597.6-690.3,2591.7z"/>
		</g>
	</g>
	<g id="XMLID_1_">
		<g>
			<path fill="#788E92" d="M-692.4,3198.7c-14.9-15.2-27.3-32.9-41.4-49c-8-9-5.7-17.6-1.9-26.8c9-21.2,16.4-42.6,13-66.4
				c-0.2-1.8,3.1-4.9,5.5-6.1c6.7-3.6,13.9-6.4,20.6-9.9c2.2-1.1,4.3-2.3,6.4-3.6c6.6-4.2,9-9.9,8-19.7c-2.2-20.1,0.7-40.7-0.2-61.1
				c-0.7-17.3-5.1-34.5-5.6-51.8c-0.9-32.2-0.4-64.3,0.2-96.5c0.1-4.1,5.8-7.9,6.5-12.2c1.1-6.6,0.1-13.6-0.2-20.4
				c-0.1-1.9,6.8-33.6,6.4-48.5c-0.1-3.1,2-6.3,3.1-9.5c2.2,1.7,4.4,3.3,6.5,5c9.7,7.6,19.2,15.6,29.3,22.6
				c3.7,2.5,9.1,2.8,13.8,3.3c1.8,0.2,3.8-2,5.7-3.1c-1.2-1.8-2.1-4-3.7-5.5c-6.9-6.3-15-11.6-20.8-18.8
				c-7.3-9.1-19.9-21.2,5.1-24.6c2-0.3,4-2.8,5.5-4.6c2.8-3.5,5.3-7.3,7.9-11c4.5,8.4,9.5,16.5,13.1,25.3c0.4,1-6.8,4.9-10.1,7.9
				c-2.6,2.3-4.7,5.1-7,7.7c3.6,1,7.2,2.9,10.7,2.8c3.9-0.1,7.7-2.7,11.6-3.2c5-0.6,10.1-0.2,15.2-0.2c-3.1-3-6.7-5.7-9.1-9.2
				c-1.4-2-1.8-5.8-0.9-8.1c1.3-3.2,4.5-5.5,6.4-8.4c3.8-5.6,7.2-11.3,10.8-17c5.6,6.1,11.7,11.6,16.5,18.3
				c4.3,6.1,12.8,26.2,1.1,19.2c-2.1-1.3-7.2-0.1-9.3,1.7c-8,6.9-15.4,14.4-22.8,22c-1.7,1.7-2.4,4.4-3.6,6.6c2.2,0.1,5,1.1,6.6,0.1
				c6.2-3.6,11.8-8.2,18.1-11.5c3.3-1.7,7.6-1.6,11.4-2.2c-1.7,2.7-3.5,5.3-5.2,8c-0.8,1.3-1.7,2.7-2.5,4.1c2,0.9,4.7,3,6,2.3
				c5.3-2.5,10.1-6,15.2-8.9c3.4-1.9,7-3.4,10.5-5c0.7,3.5,1.1,7.1,2,10.5c6.2,22.4,9.7,46.2,19.8,66.8c8.6,17.7,13.9,37.9,7.1,51.8
				c-8.4,17.1-2.9,30.6-3,45.9c-0.1,8.6-4.2,17.3-6.4,25.9c-3.2,12.4-6.2,24.9-9.5,37.4c-2.4,9.2-5.5,18.3-7.6,27.6
				c-3.9,17.4-7.7,34.9-10.9,52.5c-5.9,32.5-11.7,65-16.7,97.6c-1.4,9.3-0.2,19-0.1,28.5c0.1,5.3,0.6,10.6,0.3,15.9
				c-0.1,1.9-2,3.6-3.1,5.4c-1.8-1.4-5-2.7-5.2-4.4c-0.2-1.2-0.4-2.4-0.5-3.6c-1.1-7.7-2.1-15.4-2.2-23.2
				c-0.2-23.8,0.2-47.7,0.2-71.5c0-2.5-1.1-4.9-1.8-7.4c-1.3,2.5-3.2,4.9-3.8,7.6c-1.5,7.7-2.4,15.5-3.8,23.2
				c-0.3,1.6-1.7,2.9-2.6,4.4c-0.3-1.6-0.9-3.3-0.9-4.9c-0.1-7.2,0.1-14.4,0-21.6c0-1.6-0.6-3.1-0.9-4.7c-0.9,1.4-2.4,2.8-2.6,4.3
				c-1.4,9.6-2.2,19.2-4,28.7c-0.6,3.1-3.4,5.8-5.2,8.7c-1.7-2.9-4.3-5.6-5-8.8c-5.4-23.5-6.6-48.6-16.3-70.1
				c-16.2-36.1-6.9-71.9-6.4-108c0-3.1-1.5-6.2-2.3-9.3c-1.8,2.8-5,5.6-5.2,8.5c-1.2,15.6-1.7,31.2-2.4,46.8c1.1,0,2.2,0,3.3,0
				c0,37.4-0.1,74.7,0.1,112.1c0,3.4,0.5,8.3,2.7,10.1c22.9,18.1,12.3,47.3,23,69.6c1,2,1.4,5.2,0.8,8.3c-0.9,5.1-4.4,9.9-12.7,8.9
				c-10.2-1.3-5.4-9.3-15.5-19c-4-3.8,3.2-45.7,1.2-45.8c-0.2,0-6.6-3.2-7.3-5.7c-4.7-15.6-8.6-31.4-12.7-47.1
				c-1.7-6.4-2.4-13.2-5.2-19.2c-2.9-6.3-7.7-11.9-11.6-17.7c1.9,6.1,4.5,12.1,5.6,18.3c1,5.4,1.9,10.8,2.8,16.2
				c2.3,13.5,4.4,27.1,6.7,40.6c2.2,12.9,4.2,25.8,7,38.5c3.1,13.4-6.6,38.4-19.1,41.9C-676.5,3204.9-687.8,3203.3-692.4,3198.7z"/>
		</g>
		<g>
			<path fill="none" stroke="#7A98A0" stroke-miterlimit="10" d="M-571.1,3189.3c-0.9,0.4-1.7,0.8-2.6,1.1c0.2,1.2,0.4,2.4,0.5,3.6
				c0.2,1.7,3.4,2.9,5.2,4.4c1.1-1.8,3-3.6,3.1-5.4c0.3-5.3-0.2-10.6-0.3-15.9c-0.1-9.5-1.4-19.2,0.1-28.5
				c5-32.6,10.8-65.1,16.7-97.6c3.2-17.6,7-35.1,10.9-52.5c2.1-9.3,5.2-18.4,7.6-27.6c3.3-12.4,6.3-24.9,9.5-37.4
				c2.2-8.6,6.4-17.2,6.4-25.9c0.1-15.3-5.4-28.8,3-45.9c6.9-13.9,1.6-34.1-7.1-51.8c-10-20.6-13.5-44.3-19.8-66.8
				c-1-3.4-1.4-7-2-10.5c-3.5,1.6-7.2,3.1-10.5,5c-5.1,2.9-9.9,6.4-15.2,8.9c-1.3,0.6-4-1.5-6-2.3c0.8-1.4,1.6-2.7,2.5-4.1
				c1.7-2.7,3.5-5.3,5.2-8c-3.8,0.7-8.1,0.5-11.4,2.2c-6.3,3.3-11.9,7.9-18.1,11.5c-1.6,0.9-4.4,0-6.6-0.1c1.2-2.2,1.9-4.9,3.6-6.6
				c7.4-7.6,14.8-15.1,22.8-22c2.1-1.8,7.2-3,9.3-1.7c11.7,7,3.3-13.2-1.1-19.2c-4.8-6.6-10.9-12.2-16.5-18.3
				c-3.6,5.7-7.1,11.4-10.8,17c-2,2.9-5.1,5.3-6.4,8.4c-0.9,2.2-0.5,6,0.9,8.1c2.4,3.5,6,6.2,9.1,9.2c-5.1,0-10.2-0.4-15.2,0.2
				c-3.9,0.5-7.7,3-11.6,3.2c-3.5,0.1-7.2-1.8-10.7-2.8c2.3-2.6,4.4-5.4,7-7.7c3.3-2.9,10.5-6.8,10.1-7.9
				c-3.6-8.7-8.6-16.9-13.1-25.3c-2.6,3.7-5.1,7.5-7.9,11c-1.5,1.8-3.4,4.3-5.5,4.6c-25,3.4-12.4,15.5-5.1,24.6
				c5.8,7.2,13.9,12.4,20.8,18.8c1.6,1.4,2.5,3.6,3.7,5.5c-1.9,1.1-3.9,3.3-5.7,3.1c-4.7-0.5-10.1-0.8-13.8-3.3
				c-10.2-6.9-19.6-15-29.3-22.6c-2.2-1.7-4.3-3.3-6.5-5c-1.1,3.1-3.2,6.3-3.1,9.5c0.4,14.9-6.5,46.6-6.4,48.5
				c0.3,6.8,1.3,13.8,0.2,20.4c-0.7,4.3-6.4,8.1-6.5,12.2c-0.6,32.2-1.1,64.3-0.2,96.5c0.5,17.3,4.9,34.5,5.6,51.8
				c0.9,20.3-2,41,0.2,61.1c1,9.8-1.4,15.5-8,19.7c-2.1,1.3-4.2,2.5-6.4,3.6c-6.8,3.5-13.9,6.4-20.6,9.9c-2.4,1.3-5.8,4.4-5.5,6.1
				c3.4,23.7-4,45.2-13,66.4c-3.9,9.2-6.1,17.8,1.9,26.8c14.1,16.1,26.5,33.8,41.4,49c4.6,4.7,15.9,6.3,22.8,4.4
				c12.6-3.5,22.2-28.6,19.1-41.9c-2.9-12.7-4.9-25.6-7-38.5c-2.3-13.5-4.4-27.1-6.7-40.6c-0.9-5.4-1.8-10.8-2.8-16.2
				c-1.1-6.2-3.7-12.2-5.6-18.3c4,5.9,8.7,11.4,11.6,17.7c2.7,5.9,3.5,12.8,5.2,19.2c4.1,15.8,8,31.6,12.7,47.1
				c0.8,2.5,7.2,5.7,7.3,5.7c2.1,0.2-5.2,42-1.2,45.8c10.1,9.7,5.2,17.8,15.5,19c8.3,1,11.8-3.8,12.7-8.9"/>
			<path fill="none" stroke="#7A98A0" stroke-miterlimit="10" d="M-612.1,3193.3c1.1-0.1,2.2-0.1,3.3-0.2c0.5-3.1,0.1-6.4-0.8-8.3
				c-10.7-22.3-0.1-51.5-23-69.6c-2.2-1.7-2.7-6.6-2.7-10.1c-0.2-37.4-0.1-74.7-0.1-112.1c-1.1,0-2.2,0-3.3,0
				c0.7-15.6,1.2-31.2,2.4-46.8c0.2-2.9,3.4-5.7,5.2-8.5c0.8,3.1,2.4,6.2,2.3,9.3c-0.5,36.1-9.8,71.9,6.4,108
				c9.6,21.5,10.9,46.7,16.3,70.1c0.7,3.1,3.3,5.9,5,8.8c1.8-2.9,4.6-5.6,5.2-8.7c1.8-9.5,2.5-19.1,4-28.7c0.2-1.5,1.7-2.9,2.6-4.3
				c0.3,1.6,0.9,3.1,0.9,4.7c0.1,7.2-0.1,14.4,0,21.6c0,1.6,0.6,3.3,0.9,4.9c0.9-1.4,2.3-2.8,2.6-4.4c1.4-7.7,2.3-15.5,3.8-23.2
				c0.5-2.7,2.5-5.1,3.8-7.6c0.6,2.5,1.8,4.9,1.8,7.4c0,23.8-0.4,47.7-0.2,71.5c0.1,7.8,1,15.5,2.2,23.2"/>
		</g>
	</g>
	<path fill="#788E92" stroke="#7A98A0" stroke-miterlimit="10" d="M-719.1,2958.3c-0.4-1.2-0.3-2.7-0.4-4.1
		c-0.3,0.8-0.6,1.5-0.9,2.3c-0.7,1.7-1.3,3.2-2,4.6C-721.1,2960.5-720.8,2958.3-719.1,2958.3z"/>
	<path fill="#788E92" d="M-683.1,3057.3c-4.4-4.4-11-9.9-13.4-16.9c-6.8,3.5-13.9,6.4-20.6,10c-2.4,1.3-5.8,4.4-5.5,6.1
		c3.4,23.7-4,45.2-13,66.4c-3.9,9.2-6.1,17.8,1.8,26.8c14.1,16.1,26.5,33.8,41.4,49c4.6,4.7,15.9,6.3,22.8,4.4
		c12.6-3.5,22.2-28.5,19.1-41.9c-2.9-12.7-4.9-25.6-7.1-38.5c-2.3-13.5-4.4-27.1-6.7-40.6c-1-1-1.2-3-1.9-3.6
		C-673.1,3072.3-677.1,3063.3-683.1,3057.3z"/>
	<path fill="#CAB9AA" d="M-635.3,3136.6c-0.1-0.2-0.2-0.3-0.2-0.3S-635.4,3136.4-635.3,3136.6c0,0-2.2-5.3-2.8-8.2
		c0.1,0.5,0.4,3.4,0.8,7.6C-636.2,3136.4-635.3,3136.6-635.3,3136.6z"/>
	<path fill="#CAB9AA" d="M-539.7,2732.7c-3.5,1.7-7.2,3.1-10.5,5c-5.1,2.9-9.9,6.4-15.2,8.9c-1.3,0.6-4-1.5-6-2.3
		c0.8-1.4,1.6-2.7,2.5-4.1c1.7-2.7,3.4-5.3,5.2-8"/>
	<path fill="#CAB9AA" d="M-563.9,2732.2c-3.8,0.7-8.1,0.5-11.4,2.2c-6.3,3.3-11.9,7.9-18.1,11.5c-1.6,0.9-4.4,0-6.6-0.1
		c1.2-2.2,1.9-4.9,3.6-6.6c7.4-7.5,12.1-8.8,20.1-15.7c2.1-1.8,10-9.3,12.1-8c11.7,7,3.3-13.2-1.1-19.2
		c-4.7-6.6-10.9-12.2-16.5-18.3c-3.6,5.7-7.1,11.4-10.8,16.9c-2,2.9-5.2,5.3-6.4,8.4c-0.9,2.3-0.5,6,0.9,8.1c2.4,3.5,6,6.2,9.1,9.3
		c-5.1,0-10.2-0.4-15.2,0.2c-3.9,0.5-7.7,3-11.6,3.2c-3.5,0.1-7.2-1.8-10.7-2.8c2.3-2.6,4.4-5.4,7-7.7c3.4-2.9,10.5-6.8,10.1-7.9
		c-3.6-8.7-8.6-16.9-13.1-25.3c-2.6,3.7-5.1,7.5-7.9,11c-1.5,1.9-3.4,4.3-5.4,4.6c-25,3.4-12.4,15.5-5.1,24.6
		c5.8,7.2,13.9,12.5,20.8,18.8c1.6,1.4,2.5,3.6,3.7,5.5c-1.9,1.1-3.9,3.3-5.7,3.1c-4.7-0.5-10.1-0.8-13.8-3.3
		c-10.2-6.9-19.6-15-29.3-22.6c-2.2-1.7-4.4-3.3-6.5-5c-1.1,3.2-3.2,6.3-3.1,9.5c0.3,14.9-6.5,46.6-6.4,48.5
		c0.3,6.8-6.2,28.5-6.3,32.6c-0.6,32.2-1.1,64.4-0.2,96.5c0.5,17.3,4.9,34.5,5.6,51.8c0.9,20.3-2,40.9,0.2,61.1
		c1,9.8,5.2,11.3-1.4,15.5c4,5.9,19.5,26.2,22.4,32.6c2.7,5.9,3.5,12.8,5.2,19.2c4.1,15.7,8.1,31.6,12.7,47.1
		c0.5,1.7,3.7,3.5,5.9,4.4c-0.5-4.2-0.7-7-0.8-7.6v1v-1c0.6,3,2.8,8.2,2.8,8.2c-0.1,0.1-0.9-0.2-2-0.7c2,18.7,7.4,65.1,15.7,66.2
		l53.6-3.7c1.1-1.8,3-3.6,3.1-5.4c0.3-5.3-0.2-10.6-0.3-15.9c-0.1-9.5-1.4-19.2,0.1-28.5c5-32.6,10.8-65.1,16.7-97.6
		c3.2-17.6,7-35.1,10.9-52.5c2.1-9.3,5.2-18.4,7.6-27.6c3.3-12.4,6.3-24.9,9.5-37.4c2.2-8.6,3.9-12.7,4-21.4
		c0.1-15.3-0.5-29.7,1.3-48.7c2.3-24.4,0.9-31.2-2.9-53.6c-3.9-22.6-13.5-44.3-19.8-66.7c-1-3.4-1.4-7-2-10.5"/>
	<path fill="#788E92" d="M-696.5,3040.4c2.4,7,9,12.5,13.4,16.9c6,6,10,15,17,21c0.7,0.7,0.9,2.7,1.9,3.6
		c-0.9-5.4-1.9-10.8-2.9-16.2"/>
	<path fill="#D49B8D" stroke="#7A98A0" stroke-miterlimit="10" d="M-605.2,2687.1c-6-8.1-13.6-14-12.7-18.1
		c1.2-5.7,8.8-9.9,13.7-14.8c4.5,6.4,9.7,12.4,12.8,19.4C-590.6,2675.1-597.8,2680.1-605.2,2687.1z"/>
	<path fill="#EEE5D5" stroke="#7A98A0" stroke-miterlimit="10" d="M-555.5,2619.1c2.1-6.7,2.3-12.3,5.2-15.5
		c4.6-5,10.9-8.4,16.5-12.5c-0.6,5.6-0.9,11.3-1.8,16.8c-0.6,4.2-1.4,8.4-3,12.3c-1.6,4-4.3,7.5-6.6,11.2
		C-548.7,2627.3-552.2,2623-555.5,2619.1z"/>
	<path fill="#EEE5D5" stroke="#7A98A0" stroke-miterlimit="10" d="M-664.5,2609.3c-3.1,5.6-5.1,9.2-7.2,12.8c-3-2.2-6.3-4.1-9-6.6
		c-1.7-1.6-2.8-3.9-3.7-6.1c-2.1-5.8-3.9-11.8-5.9-17.7c1.6,0,3.7-0.8,4.7,0C-678.3,2597.4-671.5,2603.4-664.5,2609.3z"/>
	<g id="XMLID_5_">
		<g>
			<path fill="#788E92" d="M4458.5,21.6c0.8,2.2,2,4.6,3.7,6.1c2.7,2.5,5.9,4.4,9,6.5c2-3.6,4-7.2,7.1-12.8
				c-7-5.9-13.8-11.9-20.9-17.5c-1-0.8-3.1,0-4.7,0C4454.6,9.8,4456.4,15.7,4458.5,21.6z M4432,370.4c-0.4-1.2-0.3-2.7-0.4-4.1
				c10-26.8,9.2-53.7,5-81.3c-1.3-8.2,0.2-16.8,0.5-25.2c1-25.5,0.6-51.2,3.7-76.4c1.5-12.5,9.9-24,14.8-36.1
				c2.5-6,5.3-12.2,6.1-18.6c2.3-18.4,3.2-36.9,5.7-55.3c1.9-13.5,1.2-25.5-5.7-38.2c-6.4-11.7-8.9-25.7-11.7-39
				c-0.6-2.7,4.9-7.9,8.7-9.9c2.5-1.3,7.1,0.5,10.4,1.8c20.2,8.1,39.8,19.3,60.8,23.6c13.2,2.7,28.9-3.7,42.9-8
				c20.6-6.3,40.5-14.7,61-21.3c3.1-1,6.7,0,10.4,0.8c-0.6,2.1-1.4,4.1-1.5,6.2c-0.8,0.8-1.3,1.7-1.6,2.6c-4.3,15-9.3,30-11.2,45.4
				c-2.8,23.3-4.9,46.9-3.9,70.3c0.5,11.5,8.6,61.7,11.8,70.8c15.4,43.6,13.5,89,14.5,134.1c0.2,10-2.1,20.1-2.7,30.2
				c-0.1,2.4,36.1,54.2,38.6,60.5c7.9,19.7,18.3,39,22.5,59.6c2.7,13.1,9.3,46.1,4.9,78.1c-4.7,34.1-19.9,79.8-20.7,81.3
				c-3,5-8,8-11,8c-36,7-70,11-105,15c-50.4,4.8-33.5,8.8-128.7-6.5c-4.8-6.5-32.1-24.1-37-30.6c-7.2-9.6-14.3-19.3-21.5-28.9
				c-1.4-1.9-2.4-4.2-5.8-10.2c-0.1,0.6-0.3,1.2-0.4,1.8c-15.5-18.1-15.3-43.9-10.8-67c9.1-51.5,5.7-39.4,16.1-61.3
				c1.2-2.6,24.8-44.1,26.1-46.6c-0.3-0.1-0.5-0.1-0.8-0.2c1.5-1.8,3-3.6,4.3-5.6c3.1-4.6,5.4-9.5,6.8-14.6c0.5-0.8,0.9-1.6,1.3-2.5
				C4430,372.6,4430.3,370.4,4432,370.4z M4607.4,20.1c0.8-5.6,1.2-11.2,1.8-16.9c-5.6,4.1-12,7.5-16.5,12.5
				c-2.9,3.2-3.1,8.9-5.2,15.5c3.3,3.9,6.9,8.1,10.4,12.3c2.2-3.7,4.9-7.2,6.6-11.2C4606,28.5,4606.8,24.3,4607.4,20.1z
				 M4530.8,99.2c7.3-7,14.5-11.9,13.8-13.4c-3.1-7-8.3-13-12.8-19.4c-4.9,4.9-12.5,9.1-13.7,14.8
				C4517.2,85.2,4524.8,91.1,4530.8,99.2z"/>
			<path fill="#788E92" d="M4544.6,85.7c0.7,1.5-6.5,6.5-13.8,13.4c-6-8-13.5-14-12.7-18.1c1.2-5.7,8.8-9.9,13.7-14.8
				C4536.3,72.7,4541.6,78.7,4544.6,85.7z"/>
		</g>
		<g>
			<path fill="none" stroke="#7A98A0" stroke-miterlimit="10" d="M4413.3,608.4c4.8,6.5,32.1,24,37,30.6
				c95.2,15.3,78.3,11.2,128.7,6.5c35-4,69-8,105-15c3,0,8-3,11-8c0.8-1.6,16-47.2,20.7-81.3c4.4-32.1-2.2-65-4.9-78.1
				c-4.2-20.5-14.6-39.8-22.5-59.6c-2.5-6.2-38.8-58-38.6-60.5c0.6-10.1,2.9-20.2,2.7-30.2c-1-45.1,0.9-90.5-14.5-134.1
				c-3.2-9.1-11.3-59.3-11.8-70.8c-1.1-23.3,1.1-47,3.9-70.3c1.9-15.4,6.8-30.4,11.2-45.4c0.3-1,0.9-1.8,1.6-2.6
				c0.1-2.1,0.9-4.1,1.5-6.2c-3.7-0.9-7.3-1.8-10.4-0.8c-20.5,6.6-40.4,15-61,21.3c-14,4.3-29.6,10.7-42.9,8
				c-21-4.3-40.5-15.5-60.8-23.6c-3.3-1.3-7.9-3.1-10.4-1.8c-3.8,2-9.2,7.2-8.7,9.9c2.8,13.3,5.3,27.3,11.7,39
				c6.9,12.7,7.5,24.7,5.7,38.2c-2.5,18.3-3.3,36.9-5.7,55.3c-0.8,6.3-3.6,12.5-6.1,18.6c-4.9,12.1-13.3,23.7-14.8,36.1
				c-3.2,25.2-2.7,50.9-3.7,76.4c-0.3,8.4-1.8,17.1-0.5,25.2c4.2,27.6,5.1,54.5-5,81.3c0.1,1.4,0,2.9,0.4,4.1c-1.7,0-2,2.2-3.3,2.8
				c-0.4,0.9-0.9,1.8-1.3,2.5c-1.4,5-3.7,10-6.8,14.6c-1.3,2-2.7,3.8-4.3,5.6c0.3,0.1,0.5,0.2,0.8,0.2c-1.3,2.5-24.8,44-26.1,46.6
				c-10.4,21.9-7,9.7-16.1,61.3c-4.6,23.1-4.8,48.9,10.8,67c0.1-0.6,0.3-1.1,0.4-1.8c3.4,6,4.3,8.3,5.8,10.2
				C4399,589.1,4406.2,598.7,4413.3,608.4z"/>
			<path fill="none" stroke="#7A98A0" stroke-miterlimit="10" d="M4592.7,15.7c4.6-5,10.9-8.4,16.5-12.5c-0.6,5.6-0.9,11.3-1.8,16.9
				c-0.6,4.2-1.4,8.4-3,12.3c-1.6,4-4.3,7.5-6.6,11.2c-3.6-4.2-7.1-8.5-10.4-12.3C4589.5,24.6,4589.8,19,4592.7,15.7z"/>
			<path fill="none" stroke="#7A98A0" stroke-miterlimit="10" d="M4518.1,81.1c1.2-5.7,8.8-9.9,13.7-14.8
				c4.5,6.4,9.7,12.4,12.8,19.4c0.7,1.5-6.5,6.5-13.8,13.4C4524.8,91.1,4517.2,85.2,4518.1,81.1z"/>
			<path fill="none" stroke="#7A98A0" stroke-miterlimit="10" d="M4452.6,3.9c1.6,0,3.7-0.8,4.7,0c7.1,5.7,14,11.6,20.9,17.5
				c-3.1,5.6-5.1,9.2-7.1,12.8c-3-2.2-6.3-4-9-6.5c-1.7-1.6-2.9-3.9-3.7-6.1C4456.4,15.7,4454.6,9.8,4452.6,3.9z"/>
		</g>
	</g>
	<path fill="#788E92" stroke="#7A98A0" stroke-miterlimit="10" d="M4423.9,370.4c-0.4-1.2-0.3-2.7-0.4-4.1c-0.3,0.8-0.6,1.5-0.9,2.3
		c-0.7,1.7-1.3,3.2-2,4.6C4421.9,372.6,4422.2,370.4,4423.9,370.4z"/>
	<path fill="#CAB9AA" d="M4507.7,548.7c-0.1-0.2-0.2-0.3-0.2-0.3S4507.6,548.5,4507.7,548.7c0,0-2.2-5.3-2.8-8.2
		c0.1,0.5,0.4,3.4,0.8,7.6C4506.8,548.5,4507.6,548.8,4507.7,548.7z"/>
	<path fill="#CAB9AA" d="M4603.2,144.8c-3.5,1.7-7.2,3.1-10.5,5c-5.1,2.9-9.9,6.4-15.2,8.9c-1.3,0.6-4-1.5-6-2.3
		c0.8-1.4,1.6-2.7,2.5-4.1c1.7-2.7,3.4-5.3,5.2-8"/>
	<path fill="#CAB9AA" d="M4626.6,324.3c0.1-15.3-0.5-29.7,1.3-48.7c2.3-24.4,0.9-31.2-2.9-53.6c-3.9-22.6-13.5-44.3-19.8-66.7
		c-1-3.4-1.4-7-2-10.5l-24.1-0.5c-3.8,0.7-8.1,0.5-11.4,2.2c-6.3,3.3-11.9,7.9-18.1,11.5c-1.6,0.9-4.4,0-6.6-0.1
		c1.2-2.2,1.9-4.9,3.6-6.6c7.4-7.5,12.1-8.8,20.1-15.7c2.1-1.8,10-9.3,12.1-8c11.7,7,3.3-13.2-1.1-19.2
		c-4.7-6.6-10.9-12.2-16.5-18.3c-3.6,5.7-7.1,11.4-10.8,16.9c-2,2.9-5.2,5.3-6.4,8.4c-0.9,2.3-0.5,6,0.9,8.1c2.4,3.5,6,6.2,9.1,9.3
		c-5.1,0-10.2-0.4-15.2,0.2c-3.9,0.5-7.7,3-11.6,3.2c-3.5,0.1-7.2-1.8-10.7-2.8c2.3-2.6,4.4-5.4,7-7.7c3.4-2.9,10.5-6.8,10.1-7.9
		c-3.6-8.7-8.6-16.9-13.1-25.3c-2.6,3.7-5.1,7.5-7.9,11c-1.5,1.9-3.4,4.3-5.4,4.6c-25,3.4-12.4,15.5-5.1,24.6
		c5.8,7.2,13.9,12.5,20.8,18.8c1.6,1.4,2.5,3.6,3.7,5.5c-1.9,1.1-3.9,3.3-5.7,3.1c-4.7-0.5-10.1-0.8-13.8-3.3
		c-10.2-6.9-19.6-15-29.3-22.6c-2.2-1.7-4.4-3.3-6.5-5c-1.1,3.2-3.2,6.3-3.1,9.5c0.3,14.9-6.5,46.6-6.4,48.5
		c0.3,6.8-6.2,28.5-6.3,32.6c-0.6,32.2-1.1,64.4-0.2,96.5c0.5,17.3,4.9,34.5,5.6,51.8c0.9,20.3-2,40.9,0.2,61.1
		c1,9.8,5.2,11.3-1.4,15.5c4,5.9,19.5,26.2,22.5,32.6c2.7,5.9,3.5,12.8,5.2,19.2c4.1,15.7,8.1,31.6,12.7,47.1
		c0.5,1.7,3.8,3.5,5.9,4.4c-0.5-4.2-0.7-7-0.8-7.6v1v-1c0.6,3,2.8,8.2,2.8,8.2c-0.1,0.1-0.9-0.2-2-0.7c2,18.7,7.4,65.1,15.7,66.2
		l53.6-3.7c1.1-1.8,3-3.6,3.1-5.4c0.3-5.3-0.2-10.6-0.3-15.9c-0.1-9.5-1.4-19.2,0.1-28.5c5-32.6,10.8-65.1,16.7-97.6
		c3.2-17.6,7-35.1,10.9-52.5c2.1-9.3,5.2-18.4,7.6-27.6c1.9-7.1,3.7-14.1,5.4-21.2c-0.6,0.4-1.3,0.9-1.9,1.3
		c0.6-0.5,1.2-0.9,1.9-1.3c1.4-5.4,2.7-10.8,4.1-16.2C4624.9,337,4626.5,332.9,4626.6,324.3z"/>
	<path fill="#788E92" d="M4446.5,452.5c2.4,7,9,12.5,13.4,16.9c6,6,10,15,17,21c0.7,0.7,0.9,2.7,1.9,3.6c-0.9-5.4-1.9-10.8-2.9-16.2
		"/>
	<path fill="#D49B8D" stroke="#7A98A0" stroke-miterlimit="10" d="M4537.8,99.2c-6-8.1-13.6-14-12.7-18.1c1.2-5.7,8.8-9.9,13.7-14.8
		c4.5,6.4,9.7,12.4,12.8,19.4C4552.3,87.3,4545.1,92.2,4537.8,99.2z"/>
	<path fill="#EEE5D5" stroke="#7A98A0" stroke-miterlimit="10" d="M4587.5,31.3c2.1-6.7,2.3-12.3,5.2-15.5c4.6-5,10.9-8.4,16.5-12.5
		c-0.6,5.6-0.9,11.3-1.8,16.8c-0.6,4.2-1.4,8.4-3,12.3c-1.6,4-4.3,7.5-6.6,11.2C4594.3,39.4,4590.7,35.2,4587.5,31.3z"/>
	<path fill="#EEE5D5" stroke="#7A98A0" stroke-miterlimit="10" d="M4478.5,21.4c-3.1,5.6-5.1,9.2-7.2,12.8c-3-2.2-6.3-4.1-9-6.6
		c-1.7-1.6-2.8-3.9-3.7-6.1c-2.1-5.8-3.9-11.8-5.9-17.7c1.6,0,3.7-0.8,4.7,0C4464.6,9.5,4471.5,15.5,4478.5,21.4z"/>
	<g id="tbLA5J.tif">
		
			<image overflow="visible" width="149" height="226" id="Layer_0_7_" xlink:href="A17FFCFBE76FBDE5.png"  transform="matrix(1 0 0 1 -1567.3573 2497.1667)">
		</image>
	</g>
	<path fill="#788E92" d="M5120,603c26.2-34.1,19.6-72.8,21.9-95.5c1.8-18.7-4-70.7-5.9-79c-0.1-0.6-7.4-23.9-7.7-24.5
		c-3.6-7.7-31.8-60.5-46-70.4c-4.7-3.3-10.5-4-14,0.5l-3.3,4.2c-2.4,3-2.7,7.1-0.7,10.4c6.9,11.8,23.3,39.9,30.5,52.2
		c9.2,15.8,14,71.1,16.3,104.7c1.5,21.9-12.5,72-13.2,72.6c-1.7,1.6-9.5,47,4.8,35.8C5105.7,617,5118.8,604.6,5120,603z"/>
</g>
<g id="Layer_9">
</g>
<g id="Layer_7">
</g>
<g id="Layer_2">
	<g>
		<rect x="-3211.9" y="1344.8" fill="#F9DCC4" width="837.7" height="1385.7"/>
		<path fill="#4B3246" d="M-1958.8,2245.9c-3.2-0.1-6.3-3.9-9.4-5.9"/>
		<path fill="#4B3246" d="M-2202.5,1962.1c-3.3,0.8-6.8,2.6-10,2.1c-6.8-1-13.4-3.1-20-4.7c7.7,0.2,15.4,0.4,23.1,0.6
			c2.1,0.1,4.1,0.1,6.2,0.1C-2203,1960.8-2202.7,1961.5-2202.5,1962.1z"/>
		<path fill="#4B3246" d="M-2374.2,1025.2"/>
		<path fill="#4B3246" d="M-2394.8,1006.4"/>
		<path fill="#4B3246" d="M-2621.1,903.2c0.7-0.4,1.4-0.8,1.9-1.1"/>
		<path fill="#4B3246" d="M-2430.6,984.6c6.1,3.4,11.5,6.4,16.9,9.5"/>
		<path fill="#4B3246" d="M-1824.2,2690.4"/>
		<path fill="#4B3246" d="M-1841.1,1132.7"/>
		<path fill="#4B3246" d="M-2236.1,2374.9c-4.4-1.9-10.6-4.7-16.8-7.4c2.6-2.1,5.5-6.3,7.9-6c7.4,0.8,14.6,3.2,21.9,5.1
			C-2226.2,2368.6-2229.3,2370.5-2236.1,2374.9z"/>
		<path fill="#4B3246" d="M-2210.3,2349.9c-6.9,1.9-13.7,4.4-20.7,5.5c-2.9,0.4-6.2-2.1-9.3-3.3c2-2.2,3.6-5.6,6.1-6.4
			c3.9-1.3,8.5-1.8,12.5-1.1C-2217.7,2345.3-2214.1,2348-2210.3,2349.9C-2210.3,2349.9-2210.3,2349.9-2210.3,2349.9z"/>
		<path fill="#4B3246" d="M-2314.3,2297.1c-0.7-5.7-1.4-11.4-2-17.1c6.7,1.1,13.4,2.1,20,3.4c0.3,0.1,0.8,2.6,0.3,3.4
			c-0.8,1.3-2.3,2.5-3.7,3.3c-4.9,2.5-9.9,4.9-14.8,7.3C-2314.6,2297.4-2314.3,2297.1-2314.3,2297.1z"/>
		<path fill="#4B3246" d="M-2295.3,1225.6c6.4,1.3,12.3,2.4,18.1,3.6c-5.3,2.2-10.4,6-15.8,6.2c-5,0.2-10.2-3.2-15.4-5.1
			C-2304,1228.7-2299.7,1227.2-2295.3,1225.6z"/>
		<path fill="#4B3246" d="M-2310.5,2140c5.7,3.1,10.3,5.6,14.9,8.2c-1.5,1.5-3.2,4.3-4.4,4.1c-7.4-1.1-14.8-3-22.2-4.5
			C-2318.7,2145.4-2315.3,2143.2-2310.5,2140z"/>
		<path fill="#4B3246" d="M-2209.5,2126.8c-3.6,1.7-7.1,3.9-10.9,4.8c-3.2,0.7-6.8-0.2-10.2-0.4c0.8-3.3,1.7-6.7,2.5-10
			c6.1,1.9,12.2,3.9,18.3,5.8C-2209.8,2127-2209.5,2126.8-2209.5,2126.8z"/>
		<path fill="#4B3246" d="M-2283.6,2419.1c-6.6-3.1-12.1-5.6-17.5-8.1c1.7-0.8,3.7-2.6,5.2-2.3c7,1.3,13.9,3.3,20.9,5
			C-2277.6,2415.2-2280.2,2416.9-2283.6,2419.1z"/>
		<path fill="#4B3246" d="M-2315.4,2171.2c-4,0.5-7.9,1-11.9,1.5c-3.6,0.4-7.3,0.7-10.9,1.1c0.4-1.8,0.3-4.8,1.2-5.2
			c4-1.5,8.3-2.7,12.6-3.1c3.1-0.3,6.5,0.4,9.5,1.3c3.6,1.1,7,2.9,10.4,4.5c-3.6,0.3-7.2,0.6-10.8,0.9
			C-2315.4,2171.9-2315.4,2171.5-2315.4,2171.2z"/>
		<path fill="#4B3246" d="M-2227.2,2140c1.8,4.6,4,7.7,3.7,10.6c-0.1,1.6-4.4,4.3-6.6,4.1c-4.9-0.4-9.8-2.2-14.7-3.5
			C-2239.4,2147.9-2234.1,2144.5-2227.2,2140z"/>
		<path fill="#4B3246" d="M-2219.8,1872.5c-3.3,2.1-7.2,6.4-9.7,5.7c-3.6-1-6.3-5.6-9.3-8.7c3.5,0.5,7,1,10.5,1.5
			c2.8,0.5,5.6,1.1,8.5,1.6C-2219.9,1872.7-2219.8,1872.5-2219.8,1872.5z"/>
		<path fill="#4B3246" d="M-2265.5,1235.3c-2.9-2.6-5.5-4.6-7.5-7c-0.2-0.3,2.5-4.2,3.2-4c6.1,1.5,12.1,3.6,18.1,5.6
			C-2255.7,1231.4-2259.6,1233-2265.5,1235.3z"/>
		<path fill="#4B3246" d="M-2298.8,1615.3c-7.5-0.9-13.1-1.6-18.7-2.3c4.4-2.3,8.7-5.5,13.4-6.5c2.7-0.6,6.2,2.2,9.3,3.5
			C-2296.3,1612-2297.8,1614-2298.8,1615.3z"/>
		<path fill="#4B3246" d="M-2217.7,2296.8c1.7,2.5,3.6,5.1,3.5,5.2c-3.9,3.1-7.7,6.5-12.2,8.7c-1.4,0.7-4.5-1.9-6.8-3
			C-2228.4,2304.3-2223.6,2300.9-2217.7,2296.8z"/>
		<path fill="#4B3246" d="M-2316.7,2247.6c2.5,2.3,5.9,4.3,5.6,5.3c-1.2,3.8-3.5,7.2-5.4,10.7c-3.2-2.8-6.3-5.6-9.5-8.4
			C-2323.2,2252.8-2320.4,2250.5-2316.7,2247.6z"/>
		<path fill="#4B3246" d="M-2261.8,2383.9c5.6,1.9,9.5,3.2,13.4,4.4c-2,1.2-3.9,3.3-5.9,3.4c-6.5,0.1-12.9-0.5-19.4-0.8
			C-2269.7,2388.4-2265.6,2386-2261.8,2383.9z"/>
		<path fill="#4B3246" d="M-2266.9,2571.7c-1.6-1-4.9-2.9-8.2-4.9c3.4-1.7,7-5.2,10.1-4.8c4.6,0.5,8.8,3.8,13.2,6
			C-2256.4,2569.2-2260.9,2570.3-2266.9,2571.7z"/>
		<path fill="#4B3246" d="M-2238.6,2330.1c-2.9-1.6-5.3-2.7-5.2-2.8c1.4-3.6,3.1-7.1,4.8-10.6c2.8,2.1,5.5,4.3,8.3,6.4
			C-2233.4,2325.5-2236,2327.9-2238.6,2330.1z"/>
		<path fill="#4B3246" d="M-2205.6,2043.7c-9,2-13.8,4.1-18.4,3.7c-3.1-0.3-5.8-4.4-8.7-6.7c0.9-0.8,1.9-2.3,2.6-2.2
			C-2223.3,2039.7-2216.6,2041.2-2205.6,2043.7z"/>
		<path fill="#4B3246" d="M-2272.1,2304.1c4.8,0.5,10.3,1,15.9,1.5c-3.4,1.5-6.9,4-10.3,4.1c-4.2,0.1-8.5-2-12.7-3.1
			C-2277.3,2305.9-2275.3,2305.2-2272.1,2304.1z"/>
		<path fill="#4B3246" d="M-2314.6,2297.4c1.7,2.7,3.4,5.5,5.1,8.2c-2.7,0.5-5.9,2-8,1.1c-3.3-1.5-6-4.6-8.9-7.1
			c2.7,0.5,5.5,1.6,8.2,1.3c1.4-0.1,2.6-2.5,3.9-3.8C-2314.3,2297.1-2314.6,2297.4-2314.6,2297.4z"/>
		<path fill="#4B3246" d="M-2252.8,1568.5c-3.9,4.3-7.1,7.9-10.4,11.5c-1.4-1.9-4.3-4.9-4-5.4c2.2-2.9,4.9-5.7,8-7.3
			C-2257.5,1566.4-2254.5,1568.1-2252.8,1568.5z"/>
		<path fill="#4B3246" d="M-2218.8,2278.8c-3.3,2.8-4.9,4.7-6.8,5.7c-0.7,0.4-3.5-1.2-3.5-1.6c0.6-4.6,1.5-9.2,2.3-13.7
			C-2224.5,2271.9-2222.2,2274.7-2218.8,2278.8z"/>
		<path fill="#4B3246" d="M-2235,1287.5c-3.4,2.1-6.5,4.6-6.9,4.2c-2.1-2-5.4-5.3-4.8-7.1c0.8-2.6,4.5-4.4,6.9-6.5
			C-2238.6,1280.5-2237.3,1282.9-2235,1287.5z"/>
		<path fill="#4B3246" d="M-2233.8,2029.1c-3.1-2.6-5.1-4.3-7.2-6c3.1-2.3,6.1-4.5,9.2-6.8c1.5,2.4,4,4.7,4.3,7.2
			C-2227.4,2024.8-2230.9,2026.6-2233.8,2029.1z"/>
		<path fill="#4B3246" d="M-2279.4,2576.7c-2.8-2.4-6.1-5.2-9.5-8.1c1.1-1.1,3-3.3,3.3-3.1c4.5,2.9,8.8,6.1,13.1,9.2
			C-2274.1,2575.2-2275.7,2575.7-2279.4,2576.7z"/>
		<path fill="#4B3246" d="M-2269.9,1606.7c2.6,1.6,4.3,2.6,5.9,3.6c-2.7,1.7-5.3,3.9-8.2,4.8c-1.2,0.4-3.2-2.1-4.9-3.2
			C-2274.9,1610.3-2272.7,1608.7-2269.9,1606.7z"/>
		<path fill="#4B3246" d="M-2330.2,2147.9c-2.6,1.7-4.2,3.6-5.3,3.3c-3.1-0.7-6-2.4-9-3.6c2.5-1.9,4.8-4.4,7.6-5.3
			C-2335.6,2141.9-2333.3,2145.1-2330.2,2147.9z"/>
		<path fill="#4B3246" d="M-2218.4,2232.9c-5.9,7.1-7.3,8.8-8.7,10.5c-1.8-4.2-3.8-8.4-5.3-12.7c-0.2-0.5,1.9-2.5,2.4-2.4
			C-2226.4,2229.5-2222.8,2231.1-2218.4,2232.9z"/>
		<path fill="#4B3246" d="M-2263.3,2081.3c4,1.3,7.4,2.3,10.8,3.4c-2.2,1.1-4.4,3.1-6.5,3c-3.3-0.2-6.6-1.9-9.8-3
			C-2267.1,2083.6-2265.3,2082.5-2263.3,2081.3z"/>
		<path fill="#CAB9AA" d="M-3384.6,953.6c0,0-0.1,0-0.1,0c0,0.1,0,0.1-0.1,0.2L-3384.6,953.6z"/>
		<path fill="#4B3246" d="M-3182.8,853.7c0.1-0.1,0.1-0.1,0.2-0.2c0,0-0.1,0-0.1,0C-3182.8,853.5-3182.8,853.6-3182.8,853.7z"/>
		<path fill="#4B3246" d="M-3397.1,990.7"/>
		<path fill="#4B3246" d="M-3376.6,979.8c-2.7-8.7-5.4-17.4-8-26.1"/>
		<path fill="#4B3246" d="M-3338.9,939"/>
		<path fill="#4B3246" d="M-3328.8,959.2"/>
		<path fill="#4B3246" d="M-3341.3,2539.8c2.2,0,5.1-0.8,7.4,0.1c3.6,1.4,6.7,4,10,6c-3.5,1.8-6.9,3.8-10.6,5.1
			C-3334.8,2551.2-3336.6,2547.6-3341.3,2539.8z"/>
		<path fill="#4B3246" d="M-2696.9,1127.4c5.8,3.1,11.1,5.8,16.4,8.6c-1.1,0.8-2.6,2.6-3.3,2.3c-5.6-2.1-11.1-4.6-16.6-6.9
			C-2699.3,1130.2-2698.3,1129.1-2696.9,1127.4z"/>
		<path fill="#4B3246" d="M-2924.6,1119.6c-3.5-1.6-6.9-3.1-10.2-4.6c3.6-0.7,7.2-2.1,10.8-2c2.9,0.1,5.8,1.8,8.7,2.8
			C-2918.1,1116.9-2921.1,1118.1-2924.6,1119.6z"/>
		<path fill="#4B3246" d="M-2176.2,2538.1"/>
		<path fill="#4B3246" d="M-2145.3,2547.4"/>
		<path fill="#4B3246" d="M-2174.1,2518.3c-2.4,0.1-4.9-2.9-7.4-4.6"/>
		<path fill="#EEE5D5" d="M-3096.3,1401.5h595.4c26.4,0,48,21.6,48,48v1281h-691.4v-1281
			C-3144.3,1423.1-3122.7,1401.5-3096.3,1401.5z"/>
		<path fill="#C56C76" d="M-2456.4,1449.3h-691.4v0c0-26.3,21.5-47.8,47.8-47.8h595.8C-2478,1401.5-2456.4,1423-2456.4,1449.3
			L-2456.4,1449.3z"/>
		<path fill="none" d="M-3397.7,1590.5c1.7-12.9,5.1-25.5,10-37.5c5.9-0.3,8.8-5.7,9.3-11.6"/>
		
			<line fill="none" stroke="#788E92" stroke-width="20" stroke-miterlimit="10" x1="-3211.9" y1="1336.2" x2="-2386.8" y2="1336.2"/>
		<pattern  id="SVGID_3_" xlink:href="#New_Pattern" patternTransform="matrix(0.9371 0 0 0.9371 -173.2848 -447.5658)">
		</pattern>
		<path fill="url(#SVGID_3_)" d="M-2196.8,1224.3c2.6-5.9,2.7-11.7-1.2-15.9c-84.9-89.5-357.8-331.4-616.2-331.4
			c-249.6,0-492.2,231.7-582.2,328.1h-11.5v13c-3.8,6.2-3.3,13.5,0,19.2v1568h196V1246.4h837.5v1359.1h187.7V1224.3H-2196.8z"/>
		<rect x="-3410.6" y="918.9" fill="#D49B8D" width="1212.7" height="420.8"/>
		<polygon fill="#C56C76" stroke="#C56C76" stroke-miterlimit="10" points="-3211.9,1344.8 -3269.8,1246.4 -2325.9,1246.4 
			-2374.2,1344.8 		"/>
		<g id="XMLID_3_">
			<g>
				<path fill="#C56C76" d="M-2223.2,1138.4c0,0-280.2-283.6-584.1-283.6s-573.2,294.1-573.2,294.1l-296.3-14.1l0.1-60.8l280,3.4
					c0,0,221.8-273.1,591.1-275.6c352.9-2.3,615.6,282.4,615.6,282.4h267.9v47.6L-2223.2,1138.4z"/>
			</g>
			<g>
			</g>
		</g>
		<path fill="#F9DCC4" d="M-3269.8,1247.6h943.8c0,0-238.4-222.4-476.4-222.4S-3269.8,1247.6-3269.8,1247.6z"/>
		<polygon fill="#FDF0D9" points="-2793.1,1225.6 -2813.3,1230.5 -2841.5,1058.4 -2762.8,1058.4 		"/>
		<polygon fill="#FDF0D9" points="-2743.5,1224.2 -2763.9,1221.2 -2737,1067.5 -2663.2,1094.9 		"/>
		<polygon fill="#FDF0D9" points="-2857.3,1221.5 -2875.9,1230.6 -2940.5,1087.2 -2864,1068.3 		"/>
		<polyline fill="#F9DCC4" points="-2205.4,2820.7 -1797.7,2836.2 -1838.1,2663.3 -1909.3,2623.8 -1911.2,2369.7 -1958.5,2303.8 
			-1973.1,1412 -1940.3,1378.6 -1970.8,1346.9 -1977.8,1203.6 -2219.1,1203.6 		"/>
		<rect x="-2149.5" y="1246" fill="#FDF0D9" width="127.1" height="86.8"/>
		<rect x="-2197.9" y="1346.9" fill="#FDF0D9" width="223.9" height="62.3"/>
		<rect x="-2138.5" y="1674.6" fill="#FDF0D9" width="105" height="354.8"/>
		<circle fill="#FDF0D9" cx="-2086" cy="1509.6" r="45"/>
		<polygon fill="#FDF0D9" points="-1953.8,2303.8 -1906.6,2369.7 -2202.6,2356.2 -2201.6,2291.5 		"/>
		
			<line fill="#D49B8D" stroke="#D49B8D" stroke-width="40" stroke-miterlimit="10" x1="-2798.5" y1="1449.1" x2="-2798.5" y2="2730.5"/>
		<path fill="#C56C76" d="M-3676.9,1133.9h277.2c0,0,285.3-286.5,592.3-286.5s599.5,283.6,599.5,283.6h285.7l-55.6,72.6h-241.2
			c0,0-327.4-284.6-586.4-284.6s-584.5,286.1-584.5,286.1l-238.6-1.2L-3676.9,1133.9z"/>
		<path fill="#F9DCC4" d="M-2541.1,798.7c-3.2-2.6-6.6-4.7-10.3-6.4c-1.1-1.2-2.3-2.4-3.5-3.6c2.2-1.6,3.1-5,0.1-7.2
			c-0.6-0.4-1.1-0.8-1.7-1.1c-2-1.5-3.3-3.3-4.2-6c-1.9-5.5-9.9-2.2-8.8,3.1c-1.8,0.2-3.5,0.6-5.3,1.3c-3.8,1.4-3.6,7.2,0.1,8.6
			c0.2,0.1,0.4,0.2,0.6,0.2c-5.6,0.2-11.3,1.3-16.7,3.3c-2,0.8-3.1,3.2-2.7,5.3c-0.2,0-0.3,0-0.5-0.1c0-1.7-0.9-3.3-2.9-3.8
			c-6.8-1.9-13.6-3.8-20.4-5.5c1.3-2.3,0.7-5.8-2.1-6.9c-19.5-7.4-39.5-13.4-59.8-17.8c-0.6-0.5-1.3-0.8-2.1-0.9
			c-2.1-0.3-4.2-0.6-6.3-0.8c-14.1-2.8-28.4-4.8-42.8-6.1c-6-0.5-7.1,8.8-1.1,9.3c1.1,0.1,2.1,0.2,3.2,0.3c-3.5,1-7,2.1-10.4,3.4
			c-1.9,0.1-3.9,0.1-5.8,0.3c-6,0.4-4.6,9.7,1.4,9.3c0.3,0,0.5,0,0.8,0c0.2,0.1,0.5,0.2,0.8,0.3c0.8,0.2,1.5,0.4,2.3,0.7
			c-2.8,2.5-2.5,8.1,2.2,8.1h26.2c1.1,0,2-0.3,2.7-0.8c6,1.1,12.1,2,18.2,2.8c25.4,13.7,52.8,23.3,81.3,28.4
			c7.4,2.5,15.7,3.5,21.8-1.4c8.1-0.4,16.2-1.5,24.2-3.2c1.3-0.3,2.4-1.2,3.1-2.4c5.5-0.3,10.9-1.1,16.3-2.3
			C-2539.2,806.2-2537.8,801.4-2541.1,798.7z M-2577.6,797.3c2.2-0.3,4.3-0.4,6.5-0.3C-2573.3,797.1-2575.4,797.2-2577.6,797.3z
			 M-2592.7,805.8c-4,0-7.9-0.1-11.9-0.4c0.2-0.3,0.4-0.7,0.5-1.1C-2600.3,804.7-2596.5,805.2-2592.7,805.8z M-2661.4,790.2
			c3.7,1.7,7.5,3.3,11.3,4.8c-0.2,0.1-0.4,0.3-0.5,0.5c-4.6-1.7-9.1-3.4-13.5-5.3C-2663.3,790.1-2662.3,790.1-2661.4,790.2z
			 M-2681.7,771.2c11,2.4,22,5.2,32.8,8.6c-7.3-1.5-14.6-2.8-22-4c-3.1-0.5-4.9,1.8-5,4.3c-1.7-0.1-3.5-0.3-5.2-0.5
			c-2.7-1.3-5.5-2.5-8.4-3.6C-2686.9,774.4-2684.3,772.8-2681.7,771.2z M-2710,769.9c4.5-0.5,9-0.7,13.6-0.6
			c-0.3,0.2-0.6,0.4-0.9,0.6c-1.1,0.6-1.7,1.5-1.9,2.4c-0.5-0.1-0.9-0.1-1.4,0C-2703.7,771.3-2706.8,770.5-2710,769.9z"/>
		<path fill="#F9DCC4" d="M-3352.7,954.5c-3.6-0.5-7.2-0.8-10.7-1.1c1.1-4.1-3.2-8.8-7.1-5.3l-5.1,4.5c-30.3-1.4-60.8,1.9-90.1,10
			c-4,1.1-5.3,7.4-1.7,9c-10.2-0.4-20.4-1.4-30.6-3.2c-5.9-1-7,8.3-1.1,9.3c26.2,4.6,53,4.6,79.2,0.2c0.1,2.3,1.5,4.6,4.1,4.7
			c11.5,0.1,22.1-3,31.7-9.2c-1.4,3.1-2.8,6.1-4.2,9.3c-1.6,3.8,2.5,7.7,6.2,6.1c9-3.9,14.3-13.7,12.5-23.3l17.2-1.5
			C-3347.1,963.3-3347.5,955.1-3352.7,954.5z"/>
		<path fill="#F9DCC4" d="M-2512.5,754.7c-3.7-1.7-7.5-3.3-11.2-5c-0.1-1-0.6-2-1.6-2.9c-8.6-7.7-18.7-13.4-29.6-16.8
			c-2.9-0.9-5.2,0.9-6.1,3.1l-19.3-8.6c-5.5-2.5-9,6.2-3.5,8.7l67.8,30.1C-2510.5,765.8-2507,757.1-2512.5,754.7z"/>
		<path fill="#F9DCC4" d="M-2542.1,812c-4.7-0.5-6.4,5.1-4,7.9c-4.2,0.7-6,7.3-1.2,8.9c4.1,1.4,8.2,2.7,12.3,4.1
			c2.9,1,6-0.6,6.4-3.8C-2527.6,820.8-2533.8,812.9-2542.1,812z"/>
		<path fill="#F9DCC4" d="M-2402.4,891.8c1.5,0,2.9,0,4.4-0.1c1.2,1.6,2.3,3.4,3.1,5.2C-2397.4,895.2-2399.9,893.5-2402.4,891.8z
			 M-2363.8,875.5c-1.5,0.6-3.1,1.1-4.7,1.6c-1.5-1.8-2.8-3.8-3-5.6C-2368.5,872.1-2365.9,873.4-2363.8,875.5z M-2352.7,907.4
			L-2352.7,907.4c-1-0.7-2-1-3-0.9c-6.9-2-13.8-4.1-20.6-6.1c-0.8-0.2-1.6-0.3-2.3-0.1l-1.8-2.1c-1.3-1.5-3-2-4.7-1.5
			c-0.6-2-1.5-3.9-2.4-5.7c5.4-0.7,10.7-1.7,15.9-3.1c3.7,3.8,7.8,7.2,10.5,9.9c3.5,3.5,7,6.9,10.5,10.4
			C-2351.3,907.8-2352,907.6-2352.7,907.4z M-2354.3,883.5c-2.4,0-4.2,1.3-4.8,3.1c-0.7-0.7-1.4-1.4-2.1-2.1
			c2.2-0.8,4.4-1.7,6.6-2.6c0.8-0.4,1.5-1,2-1.8c1.2,1.3,2.3,2.5,3.5,3.9C-2350.8,883.7-2352.5,883.5-2354.3,883.5z M-2123,998.1
			c-0.4-0.3-0.7-0.7-1.1-1c0.8,0,1.5,0.1,2.3,0.1C-2122.2,997.5-2122.6,997.8-2123,998.1z M-1988.9,1056.4c-0.2,0.1,0.4,0.9,0.5,2
			c-0.2,0-0.5,0-0.9,0C-1989.6,1057.7-1989.7,1056.9-1988.9,1056.4z M-2049.3,1039.6c-0.3,1.5-0.5,3.2-0.4,5.1
			c0.1,0.8,0.2,1.7,0.3,2.5c-6.1-2-12.2-4.3-18.2-7.1C-2061.4,1040.2-2055.4,1040-2049.3,1039.6z M-2090.2,982.3
			c-6.2-1.1-12.3-2.5-18.3-4c12,0.2,23.9,1.3,35.7,3.4C-2078.6,982.2-2084.4,982.4-2090.2,982.3z"/>
		<path fill="#F9DCC4" d="M-3676.8,1074l280,3.4c0,0,274.1-275.6,591.1-275.6s615.6,282.4,615.6,282.4h267.9l34-109.6h-242.6
			c0,0-337.7-316.1-689.1-316.1s-635.7,288.9-635.7,288.9h-258.6L-3676.8,1074z"/>
		<rect x="-3427" y="2577.2" fill="#F9DCC4" width="1252.9" height="228.4"/>
		<polyline fill="#F9DCC4" points="-3394.3,2813.6 -3802,2829.1 -3761.7,2656.2 -3690.4,2616.7 -3688.5,2362.6 -3641.2,2296.7 
			-3626.6,1404.9 -3659.4,1371.5 -3629,1339.8 -3628,1202.5 -3390,1205.1 		"/>
		<rect x="-3577.2" y="1238.9" fill="#FDF0D9" width="127.1" height="86.8"/>
		<rect x="-3625.6" y="1339.8" fill="#FDF0D9" width="223.9" height="62.3"/>
		<rect x="-3566.2" y="1667.5" fill="#FDF0D9" width="105" height="354.8"/>
		<circle fill="#FDF0D9" cx="-3513.7" cy="1502.5" r="45"/>
		<polygon fill="#FDF0D9" points="-3645.9,2296.7 -3693.2,2362.6 -3397.1,2349.1 -3398.1,2284.4 		"/>
		<polygon fill="#FDF0D9" points="-3764.5,2656.2 -3394.3,2634 -3394.3,2585.2 -3693.1,2602.1 		"/>
		<polygon fill="#FDF0D9" points="-1835.2,2663.3 -2205.4,2641.1 -2205.4,2592.3 -1906.6,2609.2 		"/>
	</g>
</g>
<g id="Layer_3">
	<rect x="-2578" y="86.5" fill="#413644" stroke="#5B4C59" stroke-width="7" stroke-miterlimit="10" width="140" height="76"/>
</g>
</svg>
