<?xml version="1.0" encoding="utf-8"?>
<!-- Generator: Adobe Illustrator 18.1.1, SVG Export Plug-In . SVG Version: 6.00 Build 0)  -->
<svg version="1.1" xmlns="http://www.w3.org/2000/svg" xmlns:xlink="http://www.w3.org/1999/xlink" x="0px" y="0px"
	 viewBox="0 0 817.5 539.3" enable-background="new 0 0 817.5 539.3" xml:space="preserve">
<pattern  x="-5107.6" y="-1307.3" width="139" height="150.8" patternUnits="userSpaceOnUse" id="New_Pattern" viewBox="69.5 -188.5 139 150.8" overflow="visible">
	<g>
		<polygon fill="none" points="69.5,-188.5 208.5,-188.5 208.5,-37.7 69.5,-37.7 		"/>
		<polygon fill="#C56C76" stroke="#D49B8D" stroke-width="7" stroke-miterlimit="10" points="274.5,-3.5 142.5,-3.5 142.5,-71.9 
			274.5,-71.9 		"/>
		<polygon fill="#C56C76" stroke="#D49B8D" stroke-width="7" stroke-miterlimit="10" points="135.5,-3.5 3.5,-3.5 3.5,-71.9 
			135.5,-71.9 		"/>
		<polygon fill="#C56C76" stroke="#D49B8D" stroke-width="7" stroke-miterlimit="10" points="205,-78.9 73,-78.9 73,-147.3 
			205,-147.3 		"/>
		<polygon fill="#C56C76" stroke="#D49B8D" stroke-width="7" stroke-miterlimit="10" points="274.5,-154.3 142.5,-154.3 
			142.5,-222.7 274.5,-222.7 		"/>
		<polygon fill="#C56C76" stroke="#D49B8D" stroke-width="7" stroke-miterlimit="10" points="135.5,-154.3 3.5,-154.3 3.5,-222.7 
			135.5,-222.7 		"/>
	</g>
</pattern>
<pattern  x="-5107.6" y="-1307.3" width="147" height="166" patternUnits="userSpaceOnUse" id="New_Pattern_2" viewBox="73.5 -207.5 147 166" overflow="visible">
	<g>
		<polygon fill="none" points="73.5,-207.5 220.5,-207.5 220.5,-41.5 73.5,-41.5 		"/>
		<polygon fill="#8BAFB2" stroke="#7A98A0" stroke-width="7" stroke-miterlimit="10" points="290.5,-3.5 150.5,-3.5 150.5,-79.5 
			290.5,-79.5 		"/>
		<polygon fill="#8BAFB2" stroke="#7A98A0" stroke-width="7" stroke-miterlimit="10" points="143.5,-3.5 3.5,-3.5 3.5,-79.5 
			143.5,-79.5 		"/>
		<polygon fill="#8BAFB2" stroke="#7A98A0" stroke-width="7" stroke-miterlimit="10" points="217,-86.5 77,-86.5 77,-162.5 
			217,-162.5 		"/>
		<polygon fill="#8BAFB2" stroke="#7A98A0" stroke-width="7" stroke-miterlimit="10" points="290.5,-169.5 150.5,-169.5 
			150.5,-245.5 290.5,-245.5 		"/>
		<polygon fill="#8BAFB2" stroke="#7A98A0" stroke-width="7" stroke-miterlimit="10" points="143.5,-169.5 3.5,-169.5 3.5,-245.5 
			143.5,-245.5 		"/>
	</g>
</pattern>
<pattern  x="-5107.6" y="-1307.3" width="147" height="166" patternUnits="userSpaceOnUse" id="New_Pattern_5" viewBox="73.5 -207.5 147 166" overflow="visible">
	<g>
		<polygon fill="none" points="73.5,-207.5 220.5,-207.5 220.5,-41.5 73.5,-41.5 		"/>
		<polygon fill="#413644" stroke="#5B4C59" stroke-width="7" stroke-miterlimit="10" points="290.5,-3.5 150.5,-3.5 150.5,-79.5 
			290.5,-79.5 		"/>
		<polygon fill="#413644" stroke="#5B4C59" stroke-width="7" stroke-miterlimit="10" points="143.5,-3.5 3.5,-3.5 3.5,-79.5 
			143.5,-79.5 		"/>
		<polygon fill="#413644" stroke="#5B4C59" stroke-width="7" stroke-miterlimit="10" points="217,-86.5 77,-86.5 77,-162.5 
			217,-162.5 		"/>
		<polygon fill="#413644" stroke="#5B4C59" stroke-width="7" stroke-miterlimit="10" points="290.5,-169.5 150.5,-169.5 
			150.5,-245.5 290.5,-245.5 		"/>
		<polygon fill="#413644" stroke="#5B4C59" stroke-width="7" stroke-miterlimit="10" points="143.5,-169.5 3.5,-169.5 3.5,-245.5 
			143.5,-245.5 		"/>
	</g>
</pattern>
<g id="Layer_1">
	<g id="HAobQW.tif">
		
			<image overflow="visible" width="177" height="56" id="Layer_0_1_" xlink:href="535B800BDE2BE19A.png"  transform="matrix(2.8342 0 0 1.6071 -5535.1958 -2963.3333)">
		</image>
	</g>
	<g id="_x33_wBwi4.tif">
		
			<image overflow="visible" width="410" height="280" id="Layer_0_2_" xlink:href="535B800BDE2BE19E.png"  transform="matrix(2.6822 0 0 2.6822 -8467.25 -2498.8606)">
		</image>
	</g>
	<rect x="-2932.6" y="-2873.1" fill="#DE6757" width="893.9" height="1548.4"/>
	<path fill="#4B3246" d="M-2486.6-2993.2c0.7-0.4,1.5-0.9,2-1.2"/>
	<path fill="#4B3246" d="M-1430.2-1086.1"/>
	<path fill="#4B3246" d="M-1789.9-3363.2"/>
	<path fill="#CAB9AA" d="M-2485.5-2939.4c0,0-0.1,0-0.1,0c0,0.1-0.1,0.2-0.1,0.2L-2485.5-2939.4z"/>
	<path fill="#4B3246" d="M-2485.7-3046.1c0.1-0.1,0.1-0.2,0.2-0.2c0,0-0.1,0-0.1,0C-2485.6-3046.2-2485.7-3046.2-2485.7-3046.1z"/>
	<path fill="#4B3246" d="M-2485.6-2899.8"/>
	<path fill="#4B3246" d="M-2481.3-2911.5c-2.9-9.3-5.7-18.6-8.6-27.9"/>
	<path fill="#4B3246" d="M-2485.6-2955"/>
	<path fill="#4B3246" d="M-2485.6-2933.4"/>
	<path fill="none" d="M-2496-2610.9c1.8-13.7,5.5-27.2,10.7-40c6.3-0.4,9.4-6,10-12.4"/>
	<linearGradient id="SVGID_1_" gradientUnits="userSpaceOnUse" x1="-2807.865" y1="-1415.7687" x2="-2173.9409" y2="-2732.1868">
		<stop  offset="0" style="stop-color:#D8AB6C"/>
		<stop  offset="1" style="stop-color:#FFD67E"/>
	</linearGradient>
	<path fill="url(#SVGID_1_)" d="M-2806.5-2812.6h641.8c26.4,0,48,21.6,48,48v1370.1h-737.8v-1370.1
		C-2854.5-2791-2832.9-2812.6-2806.5-2812.6z"/>
	<path fill="#913433" d="M-2116.7-2761.6h-737.8v-3c0-26.4,21.6-48,48-48h641.8c26.4,0,48,21.6,48,48V-2761.6z"/>
	<rect x="-8927.5" y="-3287.3" fill="#FFFEF1" width="3004" height="2872"/>
	<g>
		<path fill="#4B3246" d="M-1540.3-3688.5"/>
		<path fill="#4B3246" d="M-1884.6-3579.5c6.2,3.3,11.8,6.2,17.5,9.2c-1.2,0.9-2.8,2.8-3.5,2.5c-6-2.2-11.8-4.9-17.7-7.4
			C-1887.3-3576.5-1886.1-3577.7-1884.6-3579.5z"/>
		<path fill="#4B3246" d="M-2127.6-3587.9c-3.8-1.7-7.3-3.3-10.9-4.9c3.9-0.8,7.7-2.2,11.6-2.2c3.1,0.1,6.2,1.9,9.3,3
			C-2120.7-3590.6-2123.9-3589.4-2127.6-3587.9z"/>
		<path fill="#F9DCC4" d="M-2496-3451.2h1007.1c0,0-254.4-237.3-508.4-237.3S-2496-3451.2-2496-3451.2z"/>
		<polygon fill="#FDF0D9" points="-1987.3,-3474.7 -2008.9,-3469.5 -2039,-3653.1 -1955,-3653.1 		"/>
		<polygon fill="#FDF0D9" points="-1934.3,-3476.2 -1956.2,-3479.3 -1927.4,-3643.4 -1848.7,-3614.2 		"/>
		<polygon fill="#FDF0D9" points="-2055.8,-3479.1 -2075.6,-3469.3 -2144.5,-3622.4 -2063,-3642.6 		"/>
	</g>
	<rect x="-8927.5" y="-3287.3" fill="url(#New_Pattern_2)" width="3004" height="2872"/>
	<rect x="-8927.5" y="-933" fill="url(#New_Pattern)" width="3004" height="268.6"/>
	<g id="_x33_wBwi4.tif_1_">
		
			<image overflow="visible" width="410" height="280" id="Layer_0_4_" xlink:href="535B800BDE2BE199.png"  transform="matrix(2.6822 0 0 2.6822 -1448.996 -2498.8606)">
		</image>
	</g>
	<rect x="-1909.3" y="-3287.3" fill="#FFFEF1" width="3004" height="2872"/>
	<pattern  id="SVGID_2_" xlink:href="#New_Pattern_5" patternTransform="matrix(1 0 0 1 109.2542 0)">
	</pattern>
	<rect x="-1909.3" y="-3287.3" fill="url(#SVGID_2_)" width="3004" height="2872"/>
	<rect x="-3062.6" y="-3073.6" fill="#913433" width="1133.4" height="118.5"/>
	<g id="tTWrGk.tif">
		
			<image overflow="visible" width="204" height="41" id="Layer_0_3_" xlink:href="535B800BDE2BE19B.png"  transform="matrix(4.935 0 0 4.935 -3498.7251 -3489.6675)">
		</image>
	</g>
	<g>
		<path fill="#CAB9AA" d="M-2176.7-2701.6v1242.1h-617.8v-1242.1H-2176.7 M-2118.8-2761.6h-733.7c-1.1,0-2.1,0.9-2.1,2.1v1358
			c0,1.1,0.9,2.1,2.1,2.1h733.7c1.1,0,2.1-0.9,2.1-2.1v-1358C-2116.7-2760.6-2117.6-2761.6-2118.8-2761.6L-2118.8-2761.6z"/>
	</g>
	
		<rect x="-2820.5" y="-1802" fill="none" stroke="#CAB9AA" stroke-width="60" stroke-linecap="square" stroke-miterlimit="10" width="676" height="376"/>
	
		<line fill="none" stroke="#CAB9AA" stroke-width="60" stroke-linecap="square" stroke-miterlimit="10" x1="-2496" y1="-2711.6" x2="-2496" y2="-1425.5"/>
	<rect x="-3061.3" y="-1329.7" fill="#D49B8D" width="1133.4" height="96.2"/>
	<polygon fill="#913433" points="-3061.3,-1233.4 -2988.8,-1170.4 -2011,-1165.9 -1927.9,-1233.4 	"/>
	<g id="xG4dGs.tif">
		
			<image overflow="visible" width="173" height="44" id="Layer_0_6_" xlink:href="535B800BDE2BE198.png"  transform="matrix(3.2813 0 0 4.93 -4530.3843 -3598.1274)">
		</image>
	</g>
</g>
<g id="Layer_5">
	<path fill="#FFFFFF" stroke="#000000" stroke-miterlimit="10" d="M444.4,2136.7"/>
	<path fill="#68536F" stroke="#68536F" stroke-width="12" stroke-linecap="square" stroke-miterlimit="10" d="M-629.8,1196.9h-60.4
		V870.5c0-14,11.4-25.4,25.4-25.4h35.1c14,0,25.4,11.4,25.4,25.4v301C-604.4,1185.5-615.8,1196.9-629.8,1196.9z"/>
	
		<polygon fill="#788E92" stroke="#788E92" stroke-width="12" stroke-linecap="round" stroke-linejoin="round" stroke-miterlimit="10" points="
		-938.2,145.1 -391.5,145.1 -566,30.1 -755.4,30.1 	"/>
	<polygon fill="#C0B2A8" stroke="#EEE5D5" stroke-width="20" stroke-miterlimit="10" points="-789.4,627 -938.2,145.1 -391.5,145.1 
		-505.3,627 -505.3,857 -789.4,857 	"/>
	<line fill="#C0B2A8" stroke="#EEE5D5" stroke-width="20" stroke-miterlimit="10" x1="-789.4" y1="627" x2="-505.3" y2="627"/>
	<line fill="#C0B2A8" stroke="#EEE5D5" stroke-width="20" stroke-miterlimit="10" x1="-723" y1="627" x2="-723" y2="857"/>
	<line fill="#C0B2A8" stroke="#EEE5D5" stroke-width="20" stroke-miterlimit="10" x1="-587.7" y1="627" x2="-587.7" y2="857"/>
	<line fill="#C0B2A8" stroke="#EEE5D5" stroke-width="20" stroke-miterlimit="10" x1="-587.7" y1="627" x2="-540.3" y2="145.1"/>
	<line fill="#C0B2A8" stroke="#EEE5D5" stroke-width="20" stroke-miterlimit="10" x1="-723" y1="627" x2="-787.1" y2="145.1"/>
	
		<path fill="#788E92" stroke="#788E92" stroke-width="12" stroke-linecap="round" stroke-linejoin="round" stroke-miterlimit="10" d="
		M-588.1,3c0-42-31.1-76.1-79.5-76.1c-43.9,0-79.5,34.1-79.5,76.1s35.6,76.1,79.5,76.1S-588.1,45-588.1,3z"/>
	<rect x="-698.4" y="869.3" fill="#68536F" width="102.1" height="57"/>
	
		<polygon fill="#68536F" stroke="#68536F" stroke-width="12" stroke-linecap="round" stroke-linejoin="round" stroke-miterlimit="10" points="
		-786.6,4152.9 -494,4152.9 -494,3266.8 -561.7,3192.3 -561.7,926.3 -737.5,926.3 -737.5,3199.1 -787.1,3272 	"/>
	<path fill="#68536F" stroke="#FFFFFF" stroke-linecap="round" stroke-miterlimit="10" d="M-792.2,3272l0.5,880.8h301v-886.1
		l-126.6,34.1c-15.8,4.3-32.5,4.5-48.5,0.8L-792.2,3272z"/>
	<ellipse fill="#788E92" cx="-678.4" cy="-10.8" rx="68.3" ry="66.2"/>
	
		<path fill="#788E92" stroke="#788E92" stroke-width="12" stroke-linecap="round" stroke-linejoin="round" stroke-miterlimit="10" d="
		M-737.5,3199.1l-54.6,72.9c164.5,60.5,301.5-5.3,301.5-5.3l-66-67.6H-737.5z"/>
	<path fill="#717985" stroke="#717985" stroke-width="12" stroke-linecap="square" stroke-miterlimit="10" d="M2156.2-1598.6h-60.4
		V-1925c0-14,13.4-15.4,27.4-15.4l33.1-2c14,0,25.4,3.4,25.4,17.4v301C2181.6-1610,2170.2-1598.6,2156.2-1598.6z"/>
	
		<polygon fill="#717985" stroke="#717985" stroke-width="12" stroke-linecap="round" stroke-linejoin="round" stroke-miterlimit="10" points="
		1845.1,-2658.9 2391.7,-2658.9 2203.3,-2773.9 2044.8,-2773.9 	"/>
	
		<polygon fill="none" stroke="#717985" stroke-width="20" stroke-linecap="round" stroke-linejoin="round" stroke-miterlimit="10" points="
		1996.6,-2168.5 1851.8,-2650.4 2388.5,-2650.4 2280.7,-2168.5 2280.7,-1938.5 1996.6,-1938.5 	"/>
	
		<line fill="#717985" stroke="#717985" stroke-width="20" stroke-miterlimit="10" x1="1996.6" y1="-2168.5" x2="2280.7" y2="-2168.5"/>
	<line fill="#717985" stroke="#717985" stroke-width="20" stroke-miterlimit="10" x1="2063" y1="-2168.5" x2="2063" y2="-1938.5"/>
	
		<line fill="#717985" stroke="#717985" stroke-width="20" stroke-miterlimit="10" x1="2198.3" y1="-2168.5" x2="2198.3" y2="-1938.5"/>
	
		<line fill="#717985" stroke="#717985" stroke-width="20" stroke-miterlimit="10" x1="2198.3" y1="-2168.5" x2="2245.7" y2="-2650.4"/>
	
		<line fill="#717985" stroke="#717985" stroke-width="20" stroke-miterlimit="10" x1="2063" y1="-2168.5" x2="1998.9" y2="-2650.4"/>
	
		<path fill="#717985" stroke="#717985" stroke-width="12" stroke-linecap="round" stroke-linejoin="round" stroke-miterlimit="10" d="
		M2197.9-2792.5c0-42-31.1-76.1-79.5-76.1c-43.9,0-79.5,34.1-79.5,76.1c0,42,35.6,76.1,79.5,76.1
		C2162.3-2716.4,2197.9-2750.5,2197.9-2792.5z"/>
	<rect x="2087.6" y="-1926.2" fill="#717985" width="102.1" height="57"/>
	
		<path fill="#717985" stroke="#717985" stroke-width="12" stroke-linecap="round" stroke-linejoin="round" stroke-miterlimit="10" d="
		M2019.4,1151.8H2272c11,0,20-8.4,20-18.7V329.4c0-4.7-1.9-9.1-5.2-12.6l-57.2-59c-3.3-3.4-5.2-7.9-5.2-12.6v-2095.6
		c0-10.3-9-18.7-20-18.7h-135.9c-11,0-20,8.4-20,18.7V253c0,3.8-1.2,7.4-3.5,10.5l-42.6,58.7c-2.3,3.1-3.5,6.8-3.5,10.5l0.5,800.2
		C1999.4,1143.4,2008.4,1151.8,2019.4,1151.8z"/>
	<path fill="#717985" stroke="#717985" stroke-linecap="round" stroke-miterlimit="10" d="M2002.4,565.6l-8.6,811.8
		c0,54.5,303.5,49.2,303.5-3.7l-7-809.7c0-73.1-51.2-126.2-110.4-107.2l0,0c-22.7,7.3-46.6,7.8-69.5,1.4l-2.6-0.7
		C2049.3,441.1,2002.3,494,2002.4,565.6z"/>
	<ellipse fill="#717985" cx="2107.6" cy="-2806.3" rx="68.3" ry="66.2"/>
</g>
<g id="Layer_10">
	<g id="XzQTJs.tif_1_">
		<g>
			<path fill="#788E92" stroke="#788E92" stroke-width="10" stroke-miterlimit="10" d="M143.5,16.1c26.7,8.1,53.4,15.9,80,24.3
				c18.1,5.7,36,12,54.6,18.2c5.4-9.2,15.5-9.6,25-10.3c21.9-1.6,43.8-1.2,65.5,3.2c4.4,0.9,7.7,1.6,6.9,7.5
				c-0.9,5.8-4.4,5.1-8.3,4.6c-12.8-1.9-26.9-1-38.1-6.2c-13.4-6.3-25.3-3.5-38-1.5c-2.9,0.4-5.4,3.2-8.1,4.8
				c0.3,0.9,0.5,1.8,0.8,2.7c3.6,0.4,7.2,1,10.8,1.3c21.4,1.7,42.8,3.2,64.1,4.9c3.4,0.3,7.4,0,6.7,5.8c-0.8,6-4.5,4.8-8.4,4.2
				c-10.3-1.6-21.5-0.9-30.7-4.9c-11.6-5.1-23.1-4.3-34.8-4.8c-0.7,0-1.4,0.3-2.4,0.5c6,6.6,11.5,13.4,17.8,19.3
				c4.9,4.6,5.2,8.8,2.3,14.6c-4.6,9.3-8.4,19.1-12.2,28.7c-1.6,4-5.7,8.1-1.2,12.9c0.2,0.2-2,3.2-3.4,4.5c-2.2,2-4.6,3.8-6.9,5.6
				c0.4,0.6,0.9,1.2,1.3,1.7c1.2,0.1,2.5,0.4,3.7,0.3c6.7-0.8,8.5,2.1,8.9,8.7c2.1,40.5,12.3,78.6,39.3,109.9
				c24.2,28,53.6,49.5,88.6,62.6c1.1,0.4,2.4,0.5,4.3,0.9c0-2.7,0.1-4.9,0-7.2c-0.1-1.5-0.3-2.9-0.5-5.2c-3,0-5.8-0.2-8.5,0
				c-4.5,0.3-6.4-1.3-6.4-6.1c0.1-4.5,2.2-5.7,6.1-5.6c10.2,0.1,20.3,0.1,30.5,0c3.9,0,6.1,1.3,6.2,5.7c0.1,4.8-2.2,6.3-6.5,6.1
				c-3.3-0.2-6.5,0-11,0c0,4.5-0.6,8.6,0.2,12.4c0.5,2.3,2.9,5.1,5.1,5.9c2.1,0.7,5.5-0.2,7.5-1.6c1.8-1.3,2.7-4.1,3.7-6.4
				c15.7-37.7,31.2-75.6,47.2-113.2c10-23.5,20.7-46.7,31-70c1-2.3,1.8-4.6,2.6-6.8c-15.3-10.2-34.9-11.1-48-24.3
				c0.1-0.9,0.2-1.8,0.4-2.6c4.8-0.8,9.6-2.4,14.4-2.4c27.7-0.3,55.4-0.3,83.1-0.2c2,0,4.1,1.9,6.1,2.9c-1.7,1.9-3,4.6-5.1,5.6
				c-11.3,5.1-23.1,9.1-34.1,14.8c-4.4,2.3-7.5,7.7-10.5,12.1c-9.7,14.7-8.4,28.3,2.2,42.9c11.4,15.7,20.4,33,30.8,50.2
				c21.5-10.7,44.2-15.5,68.2-16.2c0-4.4,0-8.3,0-13c-16,0-31.7,0-47.5,0c-7.4,0-15.8-9.6-15.5-20.2c3,4.3,5.4,7,7,10.1
				c2.3,4.4,5.4,5.7,10.4,5.7c42.5-0.2,84.9-0.1,127.4-0.1c2.7,0,5.3,0.7,8.3,2.2c-16.7,2.1-15.9,18.3-25.1,27.4
				c7.7,3.8,14.4,6.6,20.7,10.3c17.3,10.2,31.1,24.2,44,39.5c18.3,21.8,27.5,46.9,31.3,74.5c0.2,1.5,0.8,2.9,1.3,4.3
				c0,5.1,0,10.2,0,15.3c-3-0.4-5.9-0.8-9.1-1.2c-1.2-29-8.4-55.5-25.4-79.3c-16.4-22.9-36-41.2-62-52.3c-1.8-0.8-4-0.5-6-0.8
				c-0.2,0.8-0.4,1.5-0.6,2.3c2.1,1.1,4.2,2.3,6.4,3.3c34.2,14.8,57.6,41.2,71.8,74.2c16.6,38.5,15.7,77.7-5,115.7
				c-14.6,26.9-34.1,48-61.5,62.3c-49.3,25.7-112,22.4-160.7-15.3c-17.6-13.6-30.5-31.2-39.5-51.5c-1.7-4-3.6-6.2-8.4-5.4
				c-21,3.7-42.1,7.1-63,10.8c-1.5,0.3-3.8,2.1-4,3.4c-0.5,4.9-0.2,9.9-0.2,15.4c4.6,0,7.9,0.1,11.1,0c4.5-0.2,6.5,1.7,6.4,6.3
				c0,4.4-2.2,5.6-6.2,5.6c-9.9-0.1-19.8-0.1-29.7,0.1c-4,0.1-6.8-0.4-6.8-5.6c-0.1-5.5,2.7-6.3,7.2-6.2c2.7,0.1,5.4-0.3,8.2-0.4
				c0-6.5,0-12.3,0-18c-37.7-9.9-53.4-43.5-32.8-77.1c-47.7-45.8-95.5-91.8-144.1-138.4c-2.6,6.1-4.4,11.4-7,16.3
				c-2.5,4.9-1.9,7.7,2.9,11.2c20.2,14.3,36.2,32.7,48.1,54.1c15.4,27.6,20.9,57.8,16.8,89.1c-1.9,14.8-6.3,29.2-9.8,45
				c-8.3-7.7-8.1-7.6-5.8-15.7c2.4-8.4,4.2-17,6.3-25.5c-0.9-0.6-1.8-1.2-2.7-1.7c-1.4,1.5-3.5,2.7-4.2,4.4
				c-3.7,10.3-6.5,21.1-10.7,31.2c-11.9,28.1-30.6,50.1-57.2,66.1c-48.2,28.9-111,29.6-162.5-6.4c-31.3-21.9-48.7-53.5-57.5-90.2
				c-0.8-3.4-1.4-6.9-2.1-10.4c0-9.2,0-18.3,0-27.5c4-12.9,7.1-26.1,12-38.6c12.2-30.5,32.6-53.9,61.6-69.9
				c25-13.8,51.4-19.8,79.7-18.6c23.2,1,44.9,7.2,64.9,18.7c4.5-4.5,1.5-6.2-2-8.1c-19.2-10.2-39.6-15.9-61.2-16.5
				c-6.9-0.2-9.5-3.1-9.7-10c28.1-0.1,54.3,6.3,78.9,20c1.8-2.6,3.3-4.8,4.6-6.7c-8.4-8.8-19.3-14.9-21.7-27.6c-5.6,0-10.9,0-16,0
				c-1-8.5-1.9-16.5-2.8-24.6c10.1-1.5,24,2,31.5,7.8c6.2,4.8,6.1,8.1-0.6,11.9c-1.1,0.6-2.2,1.3-3.4,1.7c-5.2,1.7-5.4,6-3,9
				c4.9,6.2,10.9,11.5,17.2,18c2.1-4.8,3.4-7.5,4.5-10.3c9.6-23.5,19.4-46.9,28.7-70.5c2.2-5.6,2.8-11.9,4.4-17.8
				c0.4-1.5,1.9-2.6,3.1-3.8c1.1-1.2,3-1.9,3.6-3.3c4.7-9.4,8.7-19.3,14-28.4c4.2-7.3,2.4-12.1-3.3-17c-4.5-3.9-8.8-8.1-13.7-12.6
				c-13.4,36.1-26.7,71.9-40.2,108c-37.5-8.2-74-16.1-110.4-24.1c0.5-9.9,1.8-18.7,1.3-27.5c-1.1-21.2-3.2-42.4-4.7-63.6
				c-1-14.7-1.3-29.5-2.5-44.1c-0.4-5.1,1-8.1,5.5-9.9C134.3,16.1,138.9,16.1,143.5,16.1z M223.7,278.5
				c-33.2-23.3-98-32.6-153.8,9.8c-43.8,33.3-59.6,98.7-36.8,151.9c23.4,54.7,85.3,88.7,149.6,75.6c55.7-11.4,97.3-54.7,103.5-109.5
				c-2.1-0.4-4.3-0.9-6.5-1.1c-33.6-3.8-67.2-7.5-100.7-11.4c-4.6-0.5-7.6-0.8-10.3,4.3c-4.1,7.8-14.6,9.7-22,5.2
				c-7.2-4.5-9.8-13.9-5.9-21.4c4.1-7.9,13.3-10.9,21.6-7.1c1.7,0.8,3.4,1.8,4.5,2.4C200.7,352,207.7,312.7,223.7,278.5z
				 M526.7,436.1c19.5,55,92.8,97.3,166.1,72.9c70.4-23.4,105.7-104.2,82.2-160.8c-33.4,10.4-66.9,20.8-100.4,31.2
				c6,19-10.4,34.2-24.8,36.5C608.9,422.3,568.2,429.3,526.7,436.1z M699.4,266.2c-15,24.9-30,49.2-44.1,74
				c-3.5,6.2-4.3,13.9-5.8,18.9c8,5.6,14.2,9,19.2,13.8c3.1,3,5.3,3.6,9.2,2.4c20.8-6.6,41.7-12.9,62.5-19.4
				c11.3-3.5,22.5-7.3,34.4-11.1C761.1,306.9,736.2,281.3,699.4,266.2z M232.5,284.8c-4.8,11.9-10,23.8-14.5,35.9
				c-8.7,23.6-21.3,44.1-42.8,58.4c-2.1,1.4-3.3,5.1-3.5,7.9c-0.1,1,4,3.1,6.3,3.3c33.8,4,67.5,7.8,101.3,11.7
				c2.4,0.3,4.9,0.3,7.2,0.4C295.1,362,264,294.5,232.5,284.8z M531.8,187.1c-24,56.2-47.6,111.4-71.5,167.3
				c10,0.5,18.1,1.3,26.2,1.2c2.1,0,5.5-2.4,6.1-4.3c4.6-17.2,11.1-33.3,21.5-48.1c12.2-17.2,25.7-32.7,43.1-44.6
				c4.1-2.8,8.5-5,12.4-7.3C557,229.6,544.7,208.8,531.8,187.1z M635.2,361.8c-18.1-30.3-35.2-59.1-52.3-87.9
				c-36.8,18.3-60.3,57.8-62.2,83.1C558.4,358.7,596,360.2,635.2,361.8z M405.2,366.2c7.4-3.6,14-6.7,20.5-9.9
				c2.1-1,3.9-2.4,5.9-3.7c-1.7-1.5-3.2-3.5-5.2-4.5c-12.1-5.9-24.6-10.8-36.3-17.5c-25.4-14.5-45.3-35.2-63.7-57.9
				c-23-28.3-29.7-62-36.6-96.1c-0.5-2.5-1.7-6.1-3.6-6.9c-4.1-1.7-6,1.5-7.5,5.2c-6,15.1-12,30.2-18.5,45.1
				c-1.9,4.3-0.9,6.8,2.3,9.8c11.2,10.3,22.3,20.6,33.2,31.2c30.6,29.6,61.1,59.4,91.8,89C393.5,355.9,399.8,361.3,405.2,366.2z
				 M645.1,360.9c0.4-0.1,0.9-0.2,1.3-0.3c0-34.4,0-68.8,0-104.1c-19.6,0.5-37.9,3.8-55.8,13.2C609.1,300.6,627.1,330.8,645.1,360.9
				z M518.3,414.7c36.1-6.7,70.2-13,104.3-19.7c2.2-0.4,4-3.6,5.9-5.4c-2.5-1.6-4.8-4.4-7.4-4.6c-32.7-2.2-65.4-4.1-98.1-6
				c-2.2-0.1-4.4,0.2-7.9,0.4C516.3,391.3,517.3,402.6,518.3,414.7z M651.3,255.3c0,28.1,0,54,0,81.7c15.2-25,29.3-48.5,44.7-73.8
				C680.2,260.4,666.4,257.9,651.3,255.3z M431.8,421.3c0-6-0.5-11.3,0.2-16.5c0.3-2.2,3.1-4.1,4.8-6.1c1.5,2,4,3.8,4.2,5.9
				c0.6,5.1,0.2,10.4,0.2,15.8c11.7-2.5,18-10.7,17-21.2c-0.9-9.1-11-18-21-18.5c-10.7-0.5-19.7,6.7-21.7,17.3
				C413.6,408.1,419.8,417.6,431.8,421.3z M651.3,229c19.4,3.8,37.9,7.3,57.5,11.1c3.6-6.2,7.8-13.7,12.4-21.7
				c-24.3,0-46.9,0-69.9,0C651.3,222.6,651.3,226.1,651.3,229z M241.9,267.6c-4.5,4.4-1.1,6.3,1.9,8.5c24.8,18.4,40.5,43.6,51.2,72
				c6.1,16.1,6.7,33.2,5.8,50.3c-0.2,3.8-0.4,7.4,5.3,5.5C313.6,351.3,285.6,297.8,241.9,267.6z M505.2,416.5
				c-1-12.9-1.9-25.4-2.9-38.3c-2.6-0.2-5.1-0.4-7.5-0.5c-11.1-0.3-13.5,2.2-12.9,13.2c0.2,3,0.3,6.1,0.5,9.1
				C483.7,419.1,485.9,420.7,505.2,416.5z M500.7,357.6c3.4-1.8,5.2-2.2,5.6-3.1c2.3-5.2,4.3-10.6,6.4-15.9
				c10.9-28.4,27.5-52.4,54-68.6c3.6-2.2,6.9-4.7,10.4-7.1c-0.2-0.7-0.4-1.4-0.6-2c-1.6,0.1-3.4-0.2-4.6,0.5c-5.5,3.1-11,6.3-16,10
				c-22.5,16.6-36.3,39.8-48.3,64.3C504.5,341.8,503.3,348.8,500.7,357.6z M647.7,242.5c-1.4-1.3-1.8-1.9-2.1-1.9
				c-20.9-0.2-40.7,4.3-59.6,13.2c-1,0.4-1.3,2.1-2,3.3c1.5,0.1,3.3,0.9,4.5,0.4c17.3-7.9,35.6-11.5,54.5-12.6
				C644.4,244.7,645.8,243.5,647.7,242.5z M704.4,251.2c-16.8-7.8-42.2-12.3-53.1-9.2c15.6,4.1,31.4,7.7,47.2,11
				C699.6,253.3,701.1,252.3,704.4,251.2z M448.9,327.6c3.2-2.4,5.3-3.9,7.3-5.5c-2.4-1.4-4.7-3.6-7.2-3.8c-1.9-0.2-4.1,2.1-6.2,3.2
				C444.6,323.4,446.3,325.1,448.9,327.6z M448.8,468.7c-2.6,2.4-4.3,4.1-6.1,5.8c2,1.2,4.1,3.6,6,3.4c2.6-0.3,5-2.4,7.4-3.8
				C454,472.6,451.9,471.1,448.8,468.7z M424.8,480.6c2.6-3,4-4.7,5.4-6.3c-1.9-1.2-3.9-3.4-5.8-3.4c-2,0-4,2.1-6,3.3
				C420.1,475.9,421.8,477.6,424.8,480.6z M424.7,328c2.6-2.9,4.2-4.5,5.7-6.2c-2-1.2-3.9-3.5-5.9-3.4c-2,0-3.9,2.3-5.9,3.6
				C420.2,323.6,421.9,325.2,424.7,328z M651,393.3c1.9-2.8,4.2-4.8,3.8-6c-0.5-1.9-2.9-3.2-4.5-4.8c-1.4,1.7-3.7,3.4-4,5.3
				C646.2,389,648.8,390.7,651,393.3z"/>
		</g>
	</g>
</g>
<g id="Layer_6_copy">
	<g id="XMLID_2_">
		<g>
			<path fill="#788E92" d="M-2487.4-36.2c-50.4,4.8-33.5,8.8-128.7-6.5c-4.8-6.5-32.1-24.1-37-30.6c-7.2-9.6-14.3-19.3-21.5-28.9
				c-1.4-1.9-2.4-4.2-5.8-10.2c-0.2,0.6-0.3,1.2-0.4,1.8c-15.5-18.1-15.3-43.9-10.8-67c9.1-51.5,5.7-39.4,16.1-61.3
				c1.2-2.6,24.8-44.1,26.1-46.6c-0.3-0.1-0.5-0.1-0.8-0.2c5.2-5.9,9.1-13,11.1-20.2c0.5-0.8,0.9-1.6,1.3-2.5
				c1.3-0.6,1.5-2.8,3.3-2.8c-0.4-1.2-0.3-2.7-0.4-4.1c10-26.8,9.2-53.7,5-81.3c-1.3-8.2,0.2-16.8,0.5-25.2
				c1-25.5,0.6-51.1,3.7-76.4c1.5-12.5,9.9-24,14.8-36.1c2.5-6,5.3-12.2,6.1-18.6c2.3-18.4,3.2-36.9,5.7-55.3
				c1.9-13.5,1.2-25.5-5.7-38.2c-6.4-11.7-8.9-25.7-11.7-39c-0.6-2.7,4.9-7.9,8.7-9.9c2.5-1.3,7.1,0.5,10.4,1.8
				c20.2,8.1,39.8,19.3,60.8,23.6c13.2,2.7,28.9-3.7,42.9-8c20.6-6.3,40.5-14.7,61-21.3c3.1-1,6.7,0,10.4,0.8
				c-0.6,2-1.4,4.1-1.5,6.2c-0.8,0.8-1.3,1.7-1.6,2.6c-4.3,15-9.3,30-11.2,45.4c-2.8,23.3-4.9,46.9-3.9,70.3
				c0.5,11.5,8.6,61.7,11.8,70.8c15.4,43.6,13.6,89,14.5,134.1c0.2,10-2.1,20.1-2.7,30.2c-0.1,2.4,1.3,6.6,3.1,7.2
				c11.5,4.1,33.1,47,35.6,53.2c7.9,19.7,18.3,39,22.5,59.6c2.7,13.1,9.3,46.1,4.9,78.1c-4.7,34.1-19.9,79.8-20.7,81.3
				c-3,5-8,8-11,8C-2418.4-44.2-2452.4-40.2-2487.4-36.2z M-2444.8-661.5c0.8-5.6,1.2-11.2,1.8-16.9c-5.6,4.1-12,7.5-16.5,12.5
				c-2.9,3.2-3.1,8.9-5.2,15.5c3.3,3.9,6.8,8.1,10.4,12.3c2.2-3.7,4.9-7.2,6.6-11.2C-2446.2-653.1-2445.4-657.4-2444.8-661.5z
				 M-2521.4-582.4c7.3-7,14.5-11.9,13.8-13.5c-3.1-7-8.3-13-12.8-19.4c-4.9,4.9-12.5,9.1-13.7,14.8
				C-2535-596.4-2527.4-590.5-2521.4-582.4z M-2581.1-647.4c2-3.6,4-7.2,7.1-12.8c-7-5.9-13.8-11.9-20.9-17.5c-1-0.8-3.1,0-4.7,0
				c1.9,5.9,3.7,11.9,5.8,17.7c0.8,2.2,2,4.6,3.7,6.1C-2587.4-651.4-2584.1-649.5-2581.1-647.4z"/>
			<path fill="#788E92" d="M-2507.6-595.9c0.7,1.5-6.5,6.5-13.8,13.5c-6-8-13.6-14-12.7-18.1c1.2-5.7,8.8-9.9,13.7-14.8
				C-2515.9-608.9-2510.7-602.9-2507.6-595.9z"/>
		</g>
		<g>
			<path fill="none" stroke="#7A98A0" stroke-miterlimit="10" d="M-2653.1-73.2c4.8,6.5,32.1,24,37,30.6
				c95.2,15.3,78.3,11.2,128.7,6.5c35-4,69-8,105-15c3,0,8-3,11-8c0.8-1.6,16-47.2,20.7-81.3c4.4-32.1-2.2-65-4.9-78.1
				c-4.2-20.5-14.6-39.8-22.5-59.6c-2.5-6.2-24.1-49.2-35.6-53.2c-1.7-0.6-3.2-4.8-3.1-7.2c0.6-10.1,2.9-20.2,2.7-30.2
				c-1-45.1,0.9-90.5-14.5-134.1c-3.2-9.1-11.3-59.3-11.8-70.8c-1.1-23.3,1.1-47,3.9-70.3c1.9-15.4,6.8-30.4,11.2-45.4
				c0.3-1,0.9-1.8,1.6-2.6c0.1-2,0.9-4.1,1.5-6.2c-3.7-0.9-7.3-1.8-10.4-0.8c-20.5,6.6-40.4,15-61,21.3c-14,4.3-29.6,10.7-42.9,8
				c-21-4.3-40.5-15.5-60.8-23.6c-3.3-1.3-7.9-3.1-10.4-1.8c-3.8,2-9.2,7.2-8.7,9.9c2.8,13.3,5.3,27.3,11.7,39
				c6.9,12.7,7.5,24.7,5.7,38.2c-2.5,18.3-3.3,36.9-5.7,55.3c-0.8,6.3-3.6,12.5-6.1,18.6c-4.9,12.1-13.3,23.7-14.8,36.1
				c-3.2,25.2-2.7,50.9-3.7,76.4c-0.3,8.4-1.8,17.1-0.5,25.2c4.2,27.6,5.1,54.5-5,81.3c0.1,1.4,0,2.9,0.4,4.1c-1.7,0-2,2.2-3.3,2.8
				c-0.4,0.9-0.9,1.8-1.3,2.5c-2,7.2-5.9,14.2-11.1,20.2c0.3,0.1,0.5,0.2,0.8,0.2c-1.3,2.5-24.8,44-26.1,46.6
				c-10.4,21.9-7,9.7-16.1,61.3c-4.6,23.1-4.8,48.9,10.8,67c0.1-0.6,0.3-1.1,0.4-1.8c3.3,6,4.3,8.3,5.8,10.2
				C-2667.4-92.5-2660.2-82.9-2653.1-73.2z"/>
			<path fill="none" stroke="#7A98A0" stroke-miterlimit="10" d="M-2459.6-665.9c4.6-5,10.9-8.4,16.5-12.5
				c-0.6,5.6-0.9,11.3-1.8,16.9c-0.6,4.2-1.4,8.4-3,12.3c-1.6,4-4.3,7.5-6.6,11.2c-3.6-4.2-7.1-8.5-10.4-12.3
				C-2462.7-657-2462.5-662.7-2459.6-665.9z"/>
			<path fill="none" stroke="#7A98A0" stroke-miterlimit="10" d="M-2534.1-600.5c1.2-5.7,8.8-9.9,13.7-14.8
				c4.5,6.4,9.7,12.4,12.8,19.4c0.7,1.5-6.5,6.5-13.8,13.5C-2527.4-590.5-2535-596.4-2534.1-600.5z"/>
			<path fill="none" stroke="#7A98A0" stroke-miterlimit="10" d="M-2599.6-677.8c1.6,0,3.7-0.8,4.7,0c7.1,5.7,13.9,11.6,20.9,17.5
				c-3.1,5.6-5.1,9.2-7.1,12.8c-3-2.2-6.3-4.1-9-6.6c-1.7-1.6-2.9-3.9-3.7-6.1C-2595.9-665.9-2597.7-671.9-2599.6-677.8z"/>
		</g>
	</g>
	<g id="XMLID_1_">
		<g>
			<path fill="#788E92" d="M-2601.6-70.8c-14.9-15.2-27.3-32.9-41.4-49c-7.9-9-5.7-17.6-1.8-26.8c9-21.2,16.4-42.6,13-66.3
				c-0.2-1.8,3.1-4.9,5.5-6.2c6.7-3.6,13.9-6.4,20.6-9.9c2.2-1.1,4.3-2.3,6.4-3.6c6.6-4.2,9-9.9,8-19.7c-2.2-20.1,0.7-40.7-0.2-61.1
				c-0.7-17.3-5.1-34.5-5.6-51.8c-0.9-32.1-0.4-64.3,0.2-96.5c0.1-4.1,5.8-7.9,6.5-12.2c1.1-6.6,0.1-13.6-0.2-20.4
				c-0.1-1.9,6.8-33.6,6.4-48.5c-0.1-3.1,2-6.3,3.1-9.5c2.2,1.7,4.4,3.3,6.5,5c9.7,7.6,19.2,15.6,29.3,22.6
				c3.7,2.5,9.1,2.8,13.8,3.3c1.8,0.2,3.8-2,5.7-3.1c-1.2-1.8-2.1-4-3.7-5.5c-6.9-6.3-15-11.6-20.8-18.8
				c-7.3-9.1-19.9-21.2,5.1-24.6c2-0.3,4-2.8,5.4-4.6c2.8-3.5,5.3-7.3,7.9-11c4.5,8.4,9.5,16.5,13.1,25.3c0.4,1-6.8,4.9-10.1,7.9
				c-2.6,2.3-4.7,5.1-7,7.7c3.6,1,7.2,2.9,10.7,2.8c3.9-0.1,7.7-2.7,11.6-3.2c5-0.6,10.1-0.2,15.2-0.2c-3.1-3-6.7-5.7-9.1-9.2
				c-1.4-2-1.9-5.8-0.9-8c1.3-3.2,4.4-5.5,6.4-8.5c3.8-5.5,7.2-11.3,10.8-16.9c5.6,6,11.7,11.6,16.5,18.3
				c4.3,6.1,12.8,26.2,1.1,19.2c-2.1-1.3-7.2-0.1-9.3,1.7c-8,6.9-15.4,14.5-22.8,22c-1.7,1.7-2.4,4.4-3.6,6.6
				c2.2,0.1,4.9,1.1,6.6,0.1c6.2-3.6,11.8-8.2,18.1-11.5c3.3-1.7,7.6-1.6,11.4-2.2c-1.7,2.7-3.5,5.3-5.2,8c-0.8,1.3-1.7,2.7-2.5,4.1
				c2,0.9,4.7,3,6,2.3c5.3-2.5,10.1-6,15.2-8.9c3.4-1.9,7-3.3,10.6-5c0.7,3.5,1.1,7.1,2,10.5c6.2,22.4,9.7,46.2,19.8,66.8
				c8.6,17.7,13.9,37.9,7.1,51.8c-8.4,17.1-2.9,30.6-3,45.9c-0.1,8.7-4.2,17.3-6.4,25.9c-3.2,12.4-6.2,24.9-9.5,37.4
				c-2.4,9.2-5.5,18.3-7.6,27.6c-3.9,17.4-7.7,34.9-10.9,52.5c-5.9,32.5-11.7,65-16.7,97.6c-1.4,9.3-0.2,19-0.1,28.5
				c0.1,5.3,0.6,10.6,0.3,15.9c-0.1,1.9-2,3.6-3.1,5.4c-1.8-1.4-5-2.7-5.2-4.4c-0.2-1.2-0.4-2.4-0.5-3.6c-1.1-7.7-2.1-15.4-2.2-23.2
				c-0.2-23.8,0.2-47.7,0.2-71.5c0-2.5-1.1-4.9-1.8-7.4c-1.3,2.5-3.2,4.9-3.8,7.6c-1.5,7.7-2.4,15.5-3.8,23.2
				c-0.3,1.6-1.7,2.9-2.6,4.4c-0.3-1.6-0.9-3.3-0.9-4.9c-0.1-7.2,0.1-14.4,0-21.6c0-1.6-0.6-3.1-0.9-4.7c-0.9,1.4-2.4,2.8-2.6,4.3
				c-1.4,9.6-2.2,19.2-4,28.7c-0.6,3.1-3.4,5.8-5.2,8.7c-1.7-2.9-4.3-5.6-5-8.8c-5.4-23.4-6.6-48.6-16.3-70.1
				c-16.2-36.1-6.9-71.9-6.4-108c0-3.1-1.5-6.2-2.3-9.3c-1.8,2.8-4.9,5.5-5.2,8.5c-1.2,15.6-1.7,31.2-2.4,46.8c1.1,0,2.2,0,3.3,0
				c0,37.4-0.1,74.7,0.1,112.1c0,3.4,0.5,8.3,2.7,10.1c22.9,18.1,12.3,47.3,23,69.6c0.9,2,1.4,5.2,0.8,8.3
				c-0.9,5.1-4.4,9.9-12.7,8.9c-10.2-1.3-5.4-9.3-15.5-19c-4-3.8,3.2-45.7,1.2-45.8c-0.2,0-6.6-3.2-7.3-5.7
				c-4.7-15.6-8.6-31.4-12.7-47.1c-1.7-6.4-2.4-13.2-5.2-19.2c-2.9-6.3-7.7-11.9-11.6-17.7c1.9,6.1,4.5,12.1,5.6,18.3
				c1,5.4,1.9,10.8,2.8,16.2c2.3,13.5,4.4,27.1,6.7,40.6c2.2,12.9,4.2,25.8,7.1,38.5c3.1,13.4-6.6,38.4-19.1,41.9
				C-2585.7-64.6-2597-66.2-2601.6-70.8z"/>
		</g>
		<g>
			<path fill="none" stroke="#7A98A0" stroke-miterlimit="10" d="M-2480.3-80.2c-0.9,0.4-1.7,0.8-2.6,1.1c0.2,1.2,0.4,2.4,0.5,3.6
				c0.2,1.7,3.4,2.9,5.2,4.4c1.1-1.8,2.9-3.6,3.1-5.4c0.3-5.3-0.2-10.6-0.3-15.9c-0.1-9.5-1.4-19.2,0.1-28.5
				c5-32.6,10.8-65.1,16.7-97.6c3.2-17.6,7-35.1,10.9-52.5c2.1-9.3,5.2-18.4,7.6-27.6c3.3-12.4,6.3-24.9,9.5-37.4
				c2.2-8.6,6.4-17.2,6.4-25.9c0.1-15.3-5.4-28.8,3-45.9c6.9-13.9,1.6-34.1-7.1-51.8c-10.1-20.6-13.5-44.3-19.8-66.8
				c-1-3.4-1.4-7-2-10.5c-3.5,1.7-7.2,3.1-10.6,5c-5.1,2.9-9.9,6.4-15.2,8.9c-1.3,0.6-4-1.5-6-2.3c0.8-1.4,1.6-2.7,2.5-4.1
				c1.7-2.7,3.5-5.3,5.2-8c-3.9,0.7-8.2,0.5-11.4,2.2c-6.3,3.3-11.9,7.9-18.1,11.5c-1.6,0.9-4.4,0-6.6-0.1c1.2-2.2,1.9-4.9,3.6-6.6
				c7.4-7.5,14.8-15.1,22.8-22c2.1-1.8,7.2-3,9.3-1.7c11.7,7,3.3-13.2-1.1-19.2c-4.8-6.6-10.9-12.2-16.5-18.3
				c-3.6,5.7-7.1,11.4-10.8,16.9c-2,3-5.1,5.3-6.4,8.5c-0.9,2.2-0.5,6,0.9,8c2.4,3.5,6,6.2,9.1,9.2c-5.1,0-10.2-0.4-15.2,0.2
				c-3.9,0.5-7.7,3-11.6,3.2c-3.5,0.1-7.2-1.8-10.7-2.8c2.3-2.6,4.4-5.4,7-7.7c3.3-2.9,10.5-6.8,10.1-7.9
				c-3.6-8.7-8.6-16.9-13.1-25.3c-2.6,3.7-5.1,7.5-7.9,11c-1.5,1.8-3.4,4.3-5.4,4.6c-25.1,3.4-12.4,15.5-5.1,24.6
				c5.8,7.2,13.9,12.5,20.8,18.8c1.6,1.4,2.5,3.6,3.7,5.5c-1.9,1.1-3.9,3.3-5.7,3.1c-4.7-0.5-10.1-0.8-13.8-3.3
				c-10.2-7-19.6-15-29.3-22.6c-2.2-1.7-4.4-3.3-6.5-5c-1.1,3.2-3.2,6.3-3.1,9.5c0.4,14.9-6.5,46.6-6.4,48.5
				c0.3,6.8,1.3,13.8,0.2,20.4c-0.7,4.3-6.4,8.1-6.5,12.2c-0.6,32.2-1.1,64.4-0.2,96.5c0.5,17.3,4.9,34.5,5.6,51.8
				c0.9,20.3-2,40.9,0.2,61.1c1.1,9.8-1.4,15.5-8,19.7c-2.1,1.3-4.2,2.5-6.4,3.6c-6.8,3.5-13.9,6.4-20.6,9.9
				c-2.4,1.3-5.8,4.4-5.5,6.2c3.4,23.7-4,45.1-13,66.3c-3.9,9.2-6.1,17.8,1.8,26.8c14.1,16.1,26.5,33.8,41.4,49
				c4.6,4.7,15.9,6.3,22.8,4.4c12.6-3.5,22.2-28.6,19.1-41.9c-2.9-12.7-4.9-25.6-7.1-38.5c-2.3-13.5-4.4-27.1-6.7-40.6
				c-0.9-5.4-1.8-10.8-2.8-16.2c-1.1-6.2-3.7-12.2-5.6-18.3c3.9,5.9,8.7,11.4,11.6,17.7c2.7,5.9,3.5,12.8,5.2,19.2
				c4.1,15.8,8.1,31.6,12.7,47.1c0.8,2.5,7.2,5.7,7.3,5.7c2.1,0.2-5.2,42-1.2,45.8c10.1,9.7,5.2,17.8,15.5,19
				c8.3,1,11.9-3.8,12.7-8.9"/>
			<path fill="none" stroke="#7A98A0" stroke-miterlimit="10" d="M-2521.3-76.2c1.1-0.1,2.2-0.1,3.3-0.2c0.6-3.1,0.1-6.4-0.8-8.3
				c-10.7-22.3-0.1-51.5-23-69.6c-2.2-1.7-2.7-6.6-2.7-10.1c-0.2-37.4-0.1-74.7-0.1-112.1c-1.1,0-2.2,0-3.3,0
				c0.7-15.6,1.2-31.2,2.4-46.8c0.2-3,3.4-5.7,5.2-8.5c0.8,3.1,2.4,6.2,2.3,9.3c-0.5,36.1-9.8,71.9,6.4,108
				c9.6,21.5,10.9,46.7,16.3,70.1c0.7,3.2,3.3,5.9,5,8.8c1.8-2.9,4.6-5.6,5.2-8.7c1.8-9.5,2.6-19.1,4-28.7c0.2-1.5,1.7-2.9,2.6-4.3
				c0.3,1.6,0.9,3.1,0.9,4.7c0.1,7.2-0.1,14.4,0,21.6c0,1.6,0.6,3.3,0.9,4.9c0.9-1.4,2.3-2.8,2.6-4.4c1.4-7.7,2.3-15.5,3.8-23.2
				c0.5-2.7,2.5-5.1,3.8-7.6c0.6,2.5,1.8,4.9,1.8,7.4c0,23.8-0.4,47.7-0.2,71.5c0.1,7.8,1,15.5,2.2,23.2"/>
		</g>
	</g>
	<path fill="#788E92" stroke="#7A98A0" stroke-miterlimit="10" d="M-2628.3-311.2c-0.4-1.2-0.3-2.7-0.4-4.1
		c-0.3,0.8-0.6,1.5-0.9,2.3c-0.7,1.7-1.3,3.2-2,4.6C-2630.3-309-2630.1-311.2-2628.3-311.2z"/>
	<path fill="#788E92" d="M-2592.3-212.2c-4.4-4.4-11-9.9-13.4-16.9c-6.8,3.5-13.9,6.4-20.6,10c-2.4,1.3-5.8,4.4-5.5,6.1
		c3.4,23.7-4,45.2-13,66.4c-3.9,9.2-6.1,17.8,1.8,26.8c14.1,16.1,26.5,33.8,41.4,49c4.6,4.7,15.9,6.3,22.8,4.4
		c12.6-3.5,22.2-28.5,19.1-41.9c-2.9-12.7-4.9-25.6-7.1-38.5c-2.3-13.5-4.4-27.1-6.7-40.6c-1-1-1.2-3-1.9-3.6
		C-2582.3-197.2-2586.3-206.2-2592.3-212.2z"/>
	<path fill="#CAB9AA" d="M-2544.5-132.9c-0.1-0.2-0.2-0.3-0.2-0.3S-2544.7-133.1-2544.5-132.9c0,0-2.2-5.3-2.8-8.2
		c0.1,0.5,0.4,3.4,0.8,7.6C-2545.4-133.1-2544.6-132.9-2544.5-132.9z"/>
	<path fill="#CAB9AA" d="M-2449-536.8c-3.5,1.7-7.2,3.1-10.5,5c-5.1,2.9-9.9,6.4-15.2,8.9c-1.3,0.6-4-1.5-6-2.3
		c0.8-1.4,1.6-2.7,2.5-4.1c1.7-2.7,3.4-5.3,5.2-8"/>
	<path fill="#CAB9AA" d="M-2473.1-537.3c-3.8,0.7-8.1,0.5-11.4,2.2c-6.3,3.3-11.9,7.9-18.1,11.5c-1.6,0.9-4.4,0-6.6-0.1
		c1.2-2.2,1.9-4.9,3.6-6.6c7.4-7.5,12.1-8.8,20.1-15.7c2.1-1.8,10-9.3,12.1-8c11.7,7,3.3-13.2-1.1-19.2
		c-4.7-6.6-10.9-12.2-16.5-18.3c-3.6,5.7-7.1,11.4-10.8,16.9c-2,2.9-5.2,5.3-6.4,8.4c-0.9,2.3-0.5,6,0.9,8.1c2.4,3.5,6,6.2,9.1,9.3
		c-5.1,0-10.2-0.4-15.2,0.2c-3.9,0.5-7.7,3-11.6,3.2c-3.5,0.1-7.2-1.8-10.7-2.8c2.3-2.6,4.4-5.4,7-7.7c3.4-2.9,10.5-6.8,10.1-7.9
		c-3.6-8.7-8.6-16.9-13.1-25.3c-2.6,3.7-5.1,7.5-7.9,11c-1.5,1.9-3.4,4.3-5.4,4.6c-25,3.4-12.4,15.5-5.1,24.6
		c5.8,7.2,13.9,12.5,20.8,18.8c1.6,1.4,2.5,3.6,3.7,5.5c-1.9,1.1-3.9,3.3-5.7,3.1c-4.7-0.5-10.1-0.8-13.8-3.3
		c-10.2-6.9-19.6-15-29.3-22.6c-2.2-1.7-4.4-3.3-6.5-5c-1.1,3.2-3.2,6.3-3.1,9.5c0.3,14.9-6.5,46.6-6.4,48.5
		c0.3,6.8-6.2,28.5-6.3,32.6c-0.6,32.2-1.1,64.4-0.2,96.5c0.5,17.3,4.9,34.5,5.6,51.8c0.9,20.3-2,40.9,0.2,61.1
		c1,9.8,5.2,11.3-1.4,15.5c4,5.9,19.5,26.2,22.4,32.6c2.7,5.9,3.5,12.8,5.2,19.2c4.1,15.7,8.1,31.6,12.7,47.1
		c0.5,1.7,3.7,3.5,5.9,4.4c-0.5-4.2-0.7-7-0.8-7.6v1v-1c0.6,3,2.8,8.2,2.8,8.2c-0.1,0.1-0.9-0.2-2-0.7c2,18.7,7.4,65.1,15.7,66.2
		l53.6-3.7c1.1-1.8,3-3.6,3.1-5.4c0.3-5.3-0.2-10.6-0.3-15.9c-0.1-9.5-1.4-19.2,0.1-28.5c5-32.6,10.8-65.1,16.7-97.6
		c3.2-17.6,7-35.1,10.9-52.5c2.1-9.3,5.2-18.4,7.6-27.6c3.3-12.4,6.3-24.9,9.5-37.4c2.2-8.6,3.9-12.7,4-21.4
		c0.1-15.3-0.5-29.7,1.3-48.7c2.3-24.4,0.9-31.2-2.9-53.6c-3.9-22.6-13.5-44.3-19.8-66.7c-1-3.4-1.4-7-2-10.5"/>
	<path fill="#788E92" d="M-2605.7-229.1c2.4,7,9,12.5,13.4,16.9c6,6,10,15,17,21c0.7,0.7,0.9,2.7,1.9,3.6
		c-0.9-5.4-1.9-10.8-2.9-16.2"/>
	<path fill="#D49B8D" stroke="#7A98A0" stroke-miterlimit="10" d="M-2514.4-582.4c-6-8.1-13.6-14-12.7-18.1
		c1.2-5.7,8.8-9.9,13.7-14.8c4.5,6.4,9.7,12.4,12.8,19.4C-2499.9-594.4-2507.1-589.4-2514.4-582.4z"/>
	<path fill="#EEE5D5" stroke="#7A98A0" stroke-miterlimit="10" d="M-2464.8-650.4c2.1-6.7,2.3-12.3,5.2-15.5
		c4.6-5,10.9-8.4,16.5-12.5c-0.6,5.6-0.9,11.3-1.8,16.8c-0.6,4.2-1.4,8.4-3,12.3c-1.6,4-4.3,7.5-6.6,11.2
		C-2457.9-642.2-2461.5-646.5-2464.8-650.4z"/>
	<path fill="#EEE5D5" stroke="#7A98A0" stroke-miterlimit="10" d="M-2573.8-660.2c-3.1,5.6-5.1,9.2-7.2,12.8c-3-2.2-6.3-4.1-9-6.6
		c-1.7-1.6-2.8-3.9-3.7-6.1c-2.1-5.8-3.9-11.8-5.9-17.7c1.6,0,3.7-0.8,4.7,0C-2587.6-672.1-2580.7-666.1-2573.8-660.2z"/>
	<g id="XMLID_5_">
		<g>
			<path fill="#717985" d="M2549.2-3247.9c0.8,2.2,2,4.6,3.7,6.1c2.7,2.5,5.9,4.4,9,6.5c2-3.6,4-7.2,7.1-12.8
				c-7-5.9-13.8-11.9-20.9-17.6c-1-0.8-3.1,0-4.7,0C2545.3-3259.7,2547.1-3253.8,2549.2-3247.9z M2522.7-2899.1
				c-0.4-1.2-0.3-2.7-0.4-4.1c10.1-26.8,9.2-53.7,5-81.3c-1.3-8.2,0.2-16.8,0.5-25.2c1-25.5,0.6-51.2,3.7-76.4
				c1.6-12.5,9.9-24,14.8-36.1c2.5-6,5.3-12.2,6.1-18.6c2.3-18.4,3.2-36.9,5.7-55.3c1.9-13.5,1.2-25.5-5.7-38.2
				c-6.3-11.7-8.9-25.7-11.7-39c-0.6-2.7,4.9-7.9,8.7-9.9c2.5-1.3,7.1,0.5,10.4,1.8c20.2,8.1,39.8,19.3,60.8,23.6
				c13.2,2.7,28.9-3.7,42.8-8c20.6-6.3,40.5-14.7,61-21.3c3.1-1,6.7,0,10.4,0.9c-0.6,2-1.4,4.1-1.5,6.1c-0.8,0.8-1.3,1.7-1.6,2.6
				c-4.3,15-9.3,30-11.2,45.4c-2.8,23.3-4.9,46.9-3.9,70.3c0.5,11.5,8.6,61.7,11.8,70.8c15.4,43.6,13.6,89,14.5,134.1
				c0.2,10-2.1,20.1-2.7,30.2c-0.1,2.4,36.1,54.2,38.6,60.5c7.9,19.7,18.3,39,22.5,59.6c2.7,13.1,9.3,46.1,4.9,78.1
				c-4.7,34.1-19.9,79.8-20.7,81.3c-3,5-8,8-11,8c-36,7-70,11-105,15c-50.4,4.8-33.5,8.8-128.7-6.5c-4.8-6.5-32.1-24.1-37-30.6
				c-7.2-9.6-14.3-19.3-21.5-28.9c-1.4-1.9-2.4-4.2-5.8-10.2c-0.2,0.6-0.3,1.2-0.4,1.8c-15.5-18.1-15.3-43.9-10.8-67
				c9.1-51.6,5.7-39.4,16.1-61.3c1.2-2.6,24.8-44.1,26.1-46.6c-0.3-0.1-0.5-0.1-0.8-0.2c1.6-1.8,3-3.6,4.3-5.6
				c3.1-4.6,5.4-9.5,6.8-14.6c0.5-0.8,0.9-1.6,1.3-2.5C2520.8-2896.9,2521-2899.1,2522.7-2899.1z M2698.2-3249.4
				c0.8-5.6,1.2-11.2,1.8-16.9c-5.6,4.1-12,7.5-16.5,12.5c-2.9,3.2-3.1,8.9-5.2,15.5c3.3,3.9,6.8,8.1,10.4,12.3
				c2.2-3.7,4.9-7.2,6.6-11.2C2696.8-3241,2697.5-3245.2,2698.2-3249.4z M2621.5-3170.3c7.3-7,14.5-11.9,13.8-13.5
				c-3.1-7-8.3-13-12.8-19.4c-4.9,4.9-12.5,9.1-13.7,14.8C2608-3184.3,2615.5-3178.4,2621.5-3170.3z"/>
			<path fill="#717985" d="M2635.4-3183.8c0.7,1.5-6.5,6.5-13.8,13.5c-6-8.1-13.6-14-12.7-18.1c1.2-5.7,8.8-9.9,13.7-14.8
				C2627-3196.8,2632.3-3190.8,2635.4-3183.8z"/>
		</g>
		<g>
			<path fill="none" stroke="#7A98A0" stroke-miterlimit="10" d="M2504.1-2661.1c4.8,6.5,32.1,24.1,37,30.6
				c95.2,15.3,78.3,11.2,128.7,6.5c35-4,69-8,105-15c3,0,8-3,11-8c0.8-1.6,16-47.2,20.7-81.3c4.4-32.1-2.2-65-4.9-78.1
				c-4.2-20.5-14.6-39.8-22.5-59.6c-2.5-6.2-38.8-58-38.6-60.5c0.6-10.1,2.9-20.2,2.7-30.2c-1-45.1,0.9-90.5-14.5-134.1
				c-3.2-9.1-11.3-59.3-11.8-70.8c-1-23.3,1.1-47,3.9-70.3c1.9-15.4,6.8-30.4,11.2-45.4c0.3-0.9,0.9-1.8,1.6-2.6
				c0.1-2.1,0.9-4.1,1.5-6.1c-3.7-0.9-7.3-1.8-10.4-0.9c-20.5,6.6-40.4,15-61,21.3c-14,4.3-29.6,10.7-42.8,8
				c-21-4.3-40.5-15.5-60.8-23.6c-3.3-1.3-8-3.1-10.4-1.8c-3.8,2-9.2,7.2-8.7,9.9c2.8,13.3,5.3,27.3,11.7,39
				c6.9,12.7,7.5,24.7,5.7,38.2c-2.5,18.3-3.4,36.9-5.7,55.3c-0.8,6.4-3.6,12.5-6.1,18.6c-4.9,12.1-13.3,23.7-14.8,36.1
				c-3.1,25.2-2.7,50.9-3.7,76.4c-0.3,8.4-1.8,17.1-0.5,25.2c4.2,27.6,5.1,54.5-5,81.3c0.1,1.4,0,2.9,0.4,4.1c-1.7,0-2,2.2-3.3,2.8
				c-0.4,0.9-0.9,1.8-1.3,2.5c-1.4,5-3.7,10-6.8,14.6c-1.3,1.9-2.7,3.8-4.3,5.6c0.3,0.1,0.5,0.2,0.8,0.2c-1.3,2.5-24.8,44-26.1,46.6
				c-10.4,21.9-7,9.7-16.1,61.3c-4.6,23.1-4.8,48.9,10.8,67c0.1-0.6,0.3-1.1,0.4-1.8c3.3,6,4.3,8.3,5.8,10.2
				C2489.7-2680.4,2496.9-2670.8,2504.1-2661.1z"/>
			<path fill="none" stroke="#7A98A0" stroke-miterlimit="10" d="M2683.4-3253.8c4.6-5,10.9-8.4,16.5-12.5
				c-0.6,5.6-0.9,11.3-1.8,16.9c-0.6,4.2-1.4,8.4-3,12.3c-1.6,4-4.3,7.5-6.6,11.2c-3.6-4.2-7.1-8.4-10.4-12.3
				C2680.3-3244.9,2680.5-3250.5,2683.4-3253.8z"/>
			<path fill="none" stroke="#7A98A0" stroke-miterlimit="10" d="M2608.9-3188.4c1.2-5.7,8.8-9.9,13.7-14.8
				c4.5,6.4,9.7,12.4,12.8,19.4c0.7,1.5-6.5,6.5-13.8,13.5C2615.5-3178.4,2608-3184.3,2608.9-3188.4z"/>
			<path fill="none" stroke="#7A98A0" stroke-miterlimit="10" d="M2543.4-3265.6c1.6,0,3.7-0.8,4.7,0c7.1,5.7,13.9,11.6,20.9,17.6
				c-3.1,5.6-5.1,9.2-7.1,12.8c-3-2.1-6.3-4-9-6.5c-1.7-1.6-2.9-3.9-3.7-6.1C2547.1-3253.8,2545.3-3259.7,2543.4-3265.6z"/>
		</g>
	</g>
	<path fill="#788E92" stroke="#7A98A0" stroke-miterlimit="10" d="M2514.6-2899.1c-0.4-1.2-0.3-2.7-0.4-4.1
		c-0.3,0.8-0.6,1.5-0.9,2.3c-0.7,1.7-1.3,3.2-2,4.6C2512.6-2896.9,2512.9-2899.1,2514.6-2899.1z"/>
	<path fill="#CAB9AA" d="M2598.4-2720.8c-0.1-0.2-0.2-0.3-0.2-0.3S2598.3-2721,2598.4-2720.8c0,0-2.2-5.3-2.8-8.2
		c0.1,0.5,0.4,3.4,0.8,7.6C2597.5-2721,2598.4-2720.7,2598.4-2720.8z"/>
	<path fill="#CAB9AA" d="M2694-3124.7c-3.5,1.7-7.2,3.1-10.5,5c-5.1,2.9-9.9,6.4-15.2,8.9c-1.3,0.6-4-1.5-6-2.3
		c0.8-1.4,1.6-2.7,2.5-4.1c1.7-2.7,3.4-5.3,5.2-8"/>
	<path fill="#CAB9AA" d="M2717.3-2945.2c0.1-15.3-0.5-29.7,1.3-48.7c2.3-24.4,0.9-31.2-2.9-53.6c-3.9-22.6-13.5-44.3-19.8-66.7
		c-1-3.4-1.4-7-2-10.5l-24.1-0.5c-3.8,0.7-8.1,0.5-11.4,2.2c-6.3,3.3-11.9,7.9-18.1,11.5c-1.6,0.9-4.4,0-6.6-0.1
		c1.2-2.2,1.9-4.9,3.6-6.6c7.4-7.5,12.1-8.8,20.1-15.7c2.1-1.8,10-9.3,12.1-8c11.7,7,3.3-13.2-1.1-19.2
		c-4.7-6.6-10.9-12.2-16.5-18.3c-3.6,5.7-7.1,11.4-10.8,16.9c-2,2.9-5.2,5.3-6.4,8.4c-0.9,2.3-0.5,6,0.9,8.1c2.4,3.5,6,6.2,9.1,9.3
		c-5.1,0-10.2-0.4-15.2,0.2c-3.9,0.5-7.7,3-11.6,3.2c-3.5,0.1-7.2-1.8-10.7-2.8c2.3-2.6,4.4-5.4,7-7.7c3.4-2.9,10.5-6.8,10.1-7.9
		c-3.6-8.7-8.6-16.9-13.1-25.3c-2.6,3.7-5.1,7.5-7.9,11c-1.5,1.9-3.4,4.3-5.4,4.6c-25,3.4-12.4,15.5-5.1,24.6
		c5.8,7.2,13.9,12.5,20.8,18.8c1.6,1.4,2.5,3.6,3.7,5.5c-1.9,1.1-3.9,3.3-5.7,3.1c-4.7-0.5-10.1-0.8-13.8-3.3
		c-10.2-6.9-19.6-15-29.3-22.6c-2.2-1.7-4.4-3.3-6.5-5c-1.1,3.2-3.2,6.3-3.1,9.5c0.3,14.9-6.5,46.6-6.4,48.5
		c0.3,6.8-6.2,28.5-6.3,32.6c-0.6,32.2-1.1,64.4-0.2,96.5c0.5,17.3,4.9,34.5,5.6,51.8c0.9,20.3-2,40.9,0.2,61.1
		c1,9.8,5.2,11.3-1.4,15.5c4,5.9,19.5,26.2,22.5,32.6c2.7,5.9,3.5,12.8,5.2,19.2c4.1,15.7,8.1,31.6,12.7,47.1
		c0.5,1.7,3.8,3.5,5.9,4.4c-0.5-4.2-0.7-7-0.8-7.6v1v-1c0.6,3,2.8,8.2,2.8,8.2c-0.1,0.1-0.9-0.2-2-0.7c2,18.7,7.4,65.1,15.7,66.2
		l53.6-3.7c1.1-1.8,3-3.6,3.1-5.4c0.3-5.3-0.2-10.6-0.3-15.9c-0.1-9.5-1.4-19.2,0.1-28.5c5-32.6,10.8-65.1,16.7-97.6
		c3.2-17.6,7-35.1,10.9-52.5c2.1-9.3,5.2-18.4,7.6-27.6c1.9-7.1,3.7-14.1,5.4-21.2c-0.6,0.4-1.3,0.9-1.9,1.3
		c0.6-0.5,1.2-0.9,1.9-1.3c1.4-5.4,2.7-10.8,4.1-16.2C2715.6-2932.5,2717.3-2936.6,2717.3-2945.2z"/>
	<path fill="#788E92" d="M2537.2-2817c2.4,7,9,12.5,13.4,16.9c6,6,10,15,17,21c0.7,0.7,0.9,2.7,1.9,3.6c-0.9-5.4-1.9-10.8-2.9-16.2"
		/>
	<path fill="#D49B8D" stroke="#7A98A0" stroke-miterlimit="10" d="M2628.5-3170.3c-6-8.1-13.6-14-12.7-18.1
		c1.2-5.7,8.8-9.9,13.7-14.8c4.5,6.4,9.7,12.4,12.8,19.4C2643.1-3182.2,2635.9-3177.3,2628.5-3170.3z"/>
	<path fill="#EEE5D5" stroke="#7A98A0" stroke-miterlimit="10" d="M2678.2-3238.2c2.1-6.7,2.3-12.3,5.2-15.5
		c4.6-5,10.9-8.4,16.5-12.5c-0.6,5.6-0.9,11.3-1.8,16.8c-0.6,4.2-1.4,8.4-3,12.3c-1.6,4-4.3,7.5-6.6,11.2
		C2685-3230.1,2681.5-3234.3,2678.2-3238.2z"/>
	<path fill="#EEE5D5" stroke="#7A98A0" stroke-miterlimit="10" d="M2569.2-3248.1c-3.1,5.6-5.1,9.2-7.2,12.8c-3-2.2-6.3-4.1-9-6.6
		c-1.7-1.6-2.8-3.9-3.7-6.1c-2.1-5.8-3.9-11.8-5.9-17.7c1.6,0,3.7-0.8,4.7,0C2555.4-3260,2562.2-3254,2569.2-3248.1z"/>
	<g id="tbLA5J.tif">
		
			<image overflow="visible" width="149" height="226" id="Layer_0_7_" xlink:href="535B800BDE2BE1A6.png"  transform="matrix(1 0 0 1 -3476.614 -772.3333)">
		</image>
	</g>
	<path fill="#788E92" d="M3210.8-2666.5c26.2-34.1,19.6-72.8,21.9-95.5c1.8-18.7-4-70.7-5.9-79c-0.1-0.6-7.4-23.9-7.7-24.5
		c-3.6-7.7-31.8-60.5-46-70.4c-4.7-3.3-10.5-4-14,0.5l-3.3,4.2c-2.4,3-2.7,7.1-0.7,10.4c6.9,11.8,23.3,39.9,30.5,52.2
		c9.2,15.8,14,71.1,16.3,104.7c1.5,21.9-12.5,72-13.2,72.6c-1.7,1.6-9.5,47,4.8,35.8C3196.5-2652.5,3209.6-2664.9,3210.8-2666.5z"/>
</g>
<g id="Layer_9">
</g>
<g id="Layer_7">
</g>
<g id="Layer_2">
	<g>
		<rect x="-5121.2" y="-1924.7" fill="#F9DCC4" width="837.7" height="1385.7"/>
		<path fill="#4B3246" d="M-3868-1023.6c-3.2-0.1-6.3-3.9-9.4-5.9"/>
		<path fill="#4B3246" d="M-4111.8-1307.4c-3.3,0.8-6.8,2.6-10,2.1c-6.8-1-13.4-3.1-20-4.7c7.7,0.2,15.4,0.4,23.1,0.6
			c2.1,0.1,4.1,0.1,6.2,0.1C-4112.2-1308.7-4112-1308-4111.8-1307.4z"/>
		<path fill="#4B3246" d="M-4283.5-2244.3"/>
		<path fill="#4B3246" d="M-4304-2263.1"/>
		<path fill="#4B3246" d="M-4530.4-2366.3c0.7-0.4,1.4-0.8,1.9-1.1"/>
		<path fill="#4B3246" d="M-4339.8-2284.9c6.1,3.4,11.5,6.4,16.9,9.5"/>
		<path fill="#4B3246" d="M-3733.5-579.1"/>
		<path fill="#4B3246" d="M-3750.3-2136.8"/>
		<path fill="#4B3246" d="M-4145.4-894.6c-4.4-1.9-10.6-4.7-16.8-7.4c2.6-2.1,5.5-6.3,7.9-6c7.4,0.8,14.6,3.2,21.9,5.1
			C-4135.4-900.9-4138.6-899-4145.4-894.6z"/>
		<path fill="#4B3246" d="M-4119.5-919.6c-6.9,1.9-13.7,4.4-20.7,5.5c-2.9,0.4-6.2-2.1-9.3-3.3c2-2.2,3.6-5.6,6.1-6.4
			c3.9-1.3,8.5-1.8,12.5-1.1C-4127-924.2-4123.3-921.5-4119.5-919.6C-4119.5-919.6-4119.5-919.6-4119.5-919.6z"/>
		<path fill="#4B3246" d="M-4223.6-972.4c-0.7-5.7-1.4-11.4-2-17.1c6.7,1.1,13.4,2.1,20,3.4c0.3,0.1,0.8,2.6,0.3,3.4
			c-0.8,1.3-2.3,2.5-3.7,3.3c-4.9,2.5-9.9,4.9-14.8,7.3C-4223.8-972.1-4223.6-972.4-4223.6-972.4z"/>
		<path fill="#4B3246" d="M-4204.5-2043.9c6.4,1.3,12.3,2.4,18.1,3.6c-5.3,2.2-10.4,6-15.8,6.2c-5,0.2-10.2-3.2-15.4-5.1
			C-4213.3-2040.8-4209-2042.3-4204.5-2043.9z"/>
		<path fill="#4B3246" d="M-4219.7-1129.5c5.7,3.1,10.3,5.6,14.9,8.2c-1.5,1.5-3.2,4.3-4.4,4.1c-7.4-1.1-14.8-3-22.2-4.5
			C-4228-1124.1-4224.5-1126.3-4219.7-1129.5z"/>
		<path fill="#4B3246" d="M-4118.8-1142.7c-3.6,1.7-7.1,3.9-10.9,4.8c-3.2,0.7-6.8-0.2-10.2-0.4c0.8-3.3,1.7-6.7,2.5-10
			c6.1,1.9,12.2,3.9,18.3,5.8C-4119-1142.5-4118.8-1142.7-4118.8-1142.7z"/>
		<path fill="#4B3246" d="M-4192.8-850.4c-6.6-3.1-12.1-5.6-17.5-8.1c1.7-0.8,3.7-2.6,5.2-2.3c7,1.3,13.9,3.3,20.9,5
			C-4186.9-854.3-4189.5-852.6-4192.8-850.4z"/>
		<path fill="#4B3246" d="M-4224.7-1098.3c-4,0.5-7.9,1-11.9,1.5c-3.6,0.4-7.3,0.7-10.9,1.1c0.4-1.8,0.3-4.8,1.2-5.2
			c4-1.5,8.3-2.7,12.6-3.1c3.1-0.3,6.5,0.4,9.5,1.3c3.6,1.1,7,2.9,10.4,4.5c-3.6,0.3-7.2,0.6-10.8,0.9
			C-4224.6-1097.6-4224.6-1098-4224.7-1098.3z"/>
		<path fill="#4B3246" d="M-4136.5-1129.5c1.8,4.6,4,7.7,3.7,10.6c-0.1,1.6-4.4,4.3-6.6,4.1c-4.9-0.4-9.8-2.2-14.7-3.5
			C-4148.7-1121.6-4143.4-1125-4136.5-1129.5z"/>
		<path fill="#4B3246" d="M-4129.1-1397c-3.3,2.1-7.2,6.4-9.7,5.7c-3.6-1-6.3-5.6-9.3-8.7c3.5,0.5,7,1,10.5,1.5
			c2.8,0.5,5.6,1.1,8.5,1.6C-4129.2-1396.8-4129.1-1397-4129.1-1397z"/>
		<path fill="#4B3246" d="M-4174.8-2034.2c-2.9-2.6-5.5-4.6-7.5-7c-0.2-0.3,2.5-4.2,3.2-4c6.1,1.5,12.1,3.6,18.1,5.6
			C-4164.9-2038.1-4168.9-2036.5-4174.8-2034.2z"/>
		<path fill="#4B3246" d="M-4208.1-1654.2c-7.5-0.9-13.1-1.6-18.7-2.3c4.4-2.3,8.7-5.5,13.4-6.5c2.7-0.6,6.2,2.2,9.3,3.5
			C-4205.5-1657.5-4207.1-1655.5-4208.1-1654.2z"/>
		<path fill="#4B3246" d="M-4127-972.7c1.7,2.5,3.6,5.1,3.5,5.2c-3.9,3.1-7.7,6.5-12.2,8.7c-1.4,0.7-4.5-1.9-6.8-3
			C-4137.6-965.2-4132.8-968.6-4127-972.7z"/>
		<path fill="#4B3246" d="M-4226-1021.9c2.5,2.3,5.9,4.3,5.6,5.3c-1.2,3.8-3.5,7.2-5.4,10.7c-3.2-2.8-6.3-5.6-9.5-8.4
			C-4232.4-1016.7-4229.6-1019-4226-1021.9z"/>
		<path fill="#4B3246" d="M-4171.1-885.6c5.6,1.9,9.5,3.2,13.4,4.4c-2,1.2-3.9,3.3-5.9,3.4c-6.5,0.1-12.9-0.5-19.4-0.8
			C-4178.9-881.1-4174.8-883.5-4171.1-885.6z"/>
		<path fill="#4B3246" d="M-4176.2-697.8c-1.6-1-4.9-2.9-8.2-4.9c3.4-1.7,7-5.2,10.1-4.8c4.6,0.5,8.8,3.8,13.2,6
			C-4165.6-700.3-4170.2-699.2-4176.2-697.8z"/>
		<path fill="#4B3246" d="M-4147.8-939.4c-2.9-1.6-5.3-2.7-5.2-2.8c1.4-3.6,3.1-7.1,4.8-10.6c2.8,2.1,5.5,4.3,8.3,6.4
			C-4142.6-944-4145.3-941.6-4147.8-939.4z"/>
		<path fill="#4B3246" d="M-4114.8-1225.8c-9,2-13.8,4.1-18.4,3.7c-3.1-0.3-5.8-4.4-8.7-6.7c0.9-0.8,1.9-2.3,2.6-2.2
			C-4132.6-1229.8-4125.9-1228.3-4114.8-1225.8z"/>
		<path fill="#4B3246" d="M-4181.4-965.4c4.8,0.5,10.3,1,15.9,1.5c-3.4,1.5-6.9,4-10.3,4.1c-4.2,0.1-8.5-2-12.7-3.1
			C-4186.6-963.6-4184.6-964.3-4181.4-965.4z"/>
		<path fill="#4B3246" d="M-4223.8-972.1c1.7,2.7,3.4,5.5,5.1,8.2c-2.7,0.5-5.9,2-8,1.1c-3.3-1.5-6-4.6-8.9-7.1
			c2.7,0.5,5.5,1.6,8.2,1.3c1.4-0.1,2.6-2.5,3.9-3.8C-4223.6-972.4-4223.8-972.1-4223.8-972.1z"/>
		<path fill="#4B3246" d="M-4162-1701c-3.9,4.3-7.1,7.9-10.4,11.5c-1.4-1.9-4.3-4.9-4-5.4c2.2-2.9,4.9-5.7,8-7.3
			C-4166.7-1703.1-4163.8-1701.4-4162-1701z"/>
		<path fill="#4B3246" d="M-4128-990.7c-3.3,2.8-4.9,4.7-6.9,5.7c-0.7,0.4-3.5-1.2-3.5-1.6c0.6-4.6,1.5-9.2,2.3-13.7
			C-4133.7-997.6-4131.4-994.8-4128-990.7z"/>
		<path fill="#4B3246" d="M-4144.2-1982c-3.4,2.1-6.5,4.6-6.9,4.2c-2.1-2-5.4-5.3-4.8-7.1c0.8-2.6,4.5-4.4,6.9-6.5
			C-4147.8-1989-4146.6-1986.6-4144.2-1982z"/>
		<path fill="#4B3246" d="M-4143-1240.4c-3.1-2.6-5.1-4.3-7.2-6c3.1-2.3,6.1-4.5,9.2-6.8c1.5,2.4,4,4.7,4.3,7.2
			C-4136.6-1244.7-4140.2-1242.9-4143-1240.4z"/>
		<path fill="#4B3246" d="M-4188.7-692.8c-2.8-2.4-6.1-5.2-9.5-8.1c1.1-1.1,3-3.3,3.3-3.1c4.5,2.9,8.8,6.1,13.1,9.2
			C-4183.3-694.3-4184.9-693.8-4188.7-692.8z"/>
		<path fill="#4B3246" d="M-4179.1-1662.8c2.6,1.6,4.3,2.6,5.9,3.6c-2.7,1.7-5.3,3.9-8.2,4.8c-1.2,0.4-3.2-2.1-4.9-3.2
			C-4184.2-1659.2-4182-1660.8-4179.1-1662.8z"/>
		<path fill="#4B3246" d="M-4239.5-1121.6c-2.6,1.7-4.2,3.6-5.3,3.3c-3.1-0.7-6-2.4-9-3.6c2.5-1.9,4.8-4.4,7.6-5.3
			C-4244.9-1127.6-4242.6-1124.4-4239.5-1121.6z"/>
		<path fill="#4B3246" d="M-4127.7-1036.6c-5.9,7.1-7.3,8.8-8.7,10.5c-1.8-4.2-3.8-8.4-5.3-12.7c-0.2-0.5,1.9-2.5,2.4-2.4
			C-4135.6-1040-4132.1-1038.4-4127.7-1036.6z"/>
		<path fill="#4B3246" d="M-4172.5-1188.2c4,1.3,7.4,2.3,10.8,3.4c-2.2,1.1-4.4,3.1-6.5,3c-3.3-0.2-6.6-1.9-9.8-3
			C-4176.3-1185.9-4174.5-1187-4172.5-1188.2z"/>
		<path fill="#CAB9AA" d="M-5293.9-2315.9c0,0-0.1,0-0.1,0c0,0.1,0,0.1-0.1,0.2L-5293.9-2315.9z"/>
		<path fill="#4B3246" d="M-5092.1-2415.8c0.1-0.1,0.1-0.1,0.2-0.2c0,0-0.1,0-0.1,0C-5092-2416-5092-2415.9-5092.1-2415.8z"/>
		<path fill="#4B3246" d="M-5306.4-2278.8"/>
		<path fill="#4B3246" d="M-5285.8-2289.7c-2.7-8.7-5.4-17.4-8-26.1"/>
		<path fill="#4B3246" d="M-5248.2-2330.5"/>
		<path fill="#4B3246" d="M-5238.1-2310.3"/>
		<path fill="#4B3246" d="M-5250.6-729.7c2.2,0,5.1-0.8,7.4,0.1c3.6,1.4,6.7,4,10,6c-3.5,1.8-6.9,3.8-10.6,5.1
			C-5244.1-718.3-5245.9-721.9-5250.6-729.7z"/>
		<path fill="#4B3246" d="M-4606.1-2142.1c5.8,3.1,11.1,5.8,16.4,8.6c-1.1,0.8-2.6,2.6-3.3,2.3c-5.6-2.1-11.1-4.6-16.6-6.9
			C-4608.6-2139.3-4607.6-2140.4-4606.1-2142.1z"/>
		<path fill="#4B3246" d="M-4833.8-2149.9c-3.5-1.6-6.9-3.1-10.2-4.6c3.6-0.7,7.2-2.1,10.8-2c2.9,0.1,5.8,1.8,8.7,2.8
			C-4827.4-2152.6-4830.3-2151.4-4833.8-2149.9z"/>
		<path fill="#4B3246" d="M-4085.4-731.4"/>
		<path fill="#4B3246" d="M-4054.6-722.1"/>
		<path fill="#4B3246" d="M-4083.4-751.2c-2.4,0.1-4.9-2.9-7.4-4.6"/>
		<path fill="#EEE5D5" d="M-5005.5-1868h595.4c26.4,0,48,21.6,48,48v1281h-691.4v-1281C-5053.5-1846.4-5031.9-1868-5005.5-1868z"/>
		<path fill="#C56C76" d="M-4365.7-1820.2h-691.4v0c0-26.3,21.5-47.8,47.8-47.8h595.8C-4387.2-1868-4365.7-1846.5-4365.7-1820.2
			L-4365.7-1820.2z"/>
		<path fill="none" d="M-5307-1679c1.7-12.9,5.1-25.5,10-37.5c5.9-0.3,8.8-5.7,9.3-11.6"/>
		
			<line fill="none" stroke="#788E92" stroke-width="20" stroke-miterlimit="10" x1="-5121.2" y1="-1933.3" x2="-4296.1" y2="-1933.3"/>
		<pattern  id="SVGID_3_" xlink:href="#New_Pattern" patternTransform="matrix(0.9371 0 0 0.9371 -53.2689 -386.2458)">
		</pattern>
		<path fill="url(#SVGID_3_)" d="M-4106.1-2045.2c2.6-5.9,2.7-11.7-1.2-15.9c-84.9-89.5-357.8-331.4-616.2-331.4
			c-249.6,0-492.2,231.7-582.2,328.1h-11.5v13c-3.8,6.2-3.3,13.5,0,19.2v1568h196v-1558.8h837.5V-664h187.7v-1381.2H-4106.1z"/>
		<rect x="-5319.8" y="-2350.6" fill="#D49B8D" width="1212.7" height="420.8"/>
		<polygon fill="#C56C76" stroke="#C56C76" stroke-miterlimit="10" points="-5121.2,-1924.7 -5179,-2023.1 -4235.2,-2023.1 
			-4283.5,-1924.7 		"/>
		<g id="XMLID_3_">
			<g>
				<path fill="#C56C76" d="M-4132.5-2131.1c0,0-280.2-283.6-584.1-283.6s-573.2,294.1-573.2,294.1l-296.3-14.1l0.1-60.8l280,3.4
					c0,0,221.8-273.1,591.1-275.6c352.9-2.3,615.6,282.4,615.6,282.4h267.9v47.6L-4132.5-2131.1z"/>
			</g>
			<g>
			</g>
		</g>
		<path fill="#F9DCC4" d="M-5179-2021.9h943.8c0,0-238.4-222.4-476.4-222.4S-5179-2021.9-5179-2021.9z"/>
		<polygon fill="#FDF0D9" points="-4702.3,-2043.9 -4722.5,-2039 -4750.8,-2211.1 -4672.1,-2211.1 		"/>
		<polygon fill="#FDF0D9" points="-4652.7,-2045.3 -4673.2,-2048.3 -4646.3,-2202 -4572.5,-2174.6 		"/>
		<polygon fill="#FDF0D9" points="-4766.6,-2048 -4785.1,-2038.9 -4849.7,-2182.3 -4773.3,-2201.2 		"/>
		<polyline fill="#F9DCC4" points="-4114.7,-448.8 -3706.9,-433.3 -3747.3,-606.2 -3818.6,-645.7 -3820.5,-899.8 -3867.8,-965.7 
			-3882.3,-1857.5 -3849.6,-1890.9 -3880,-1922.6 -3887.1,-2065.9 -4128.3,-2065.9 		"/>
		<rect x="-4058.8" y="-2023.5" fill="#FDF0D9" width="127.1" height="86.8"/>
		<rect x="-4107.2" y="-1922.6" fill="#FDF0D9" width="223.9" height="62.3"/>
		<rect x="-4047.7" y="-1594.9" fill="#FDF0D9" width="105" height="354.8"/>
		<circle fill="#FDF0D9" cx="-3995.3" cy="-1759.9" r="45"/>
		<polygon fill="#FDF0D9" points="-3863.1,-965.7 -3815.8,-899.8 -4111.8,-913.3 -4110.9,-978 		"/>
		
			<line fill="#D49B8D" stroke="#D49B8D" stroke-width="40" stroke-miterlimit="10" x1="-4707.8" y1="-1820.4" x2="-4707.8" y2="-539"/>
		<path fill="#C56C76" d="M-5586.2-2135.6h277.2c0,0,285.3-286.5,592.3-286.5s599.5,283.6,599.5,283.6h285.7l-55.6,72.6h-241.2
			c0,0-327.4-284.6-586.4-284.6s-584.5,286.1-584.5,286.1l-238.6-1.2L-5586.2-2135.6z"/>
		<path fill="#F9DCC4" d="M-4450.3-2470.8c-3.2-2.6-6.6-4.7-10.3-6.4c-1.1-1.2-2.3-2.4-3.5-3.6c2.2-1.6,3.1-5,0.1-7.2
			c-0.6-0.4-1.1-0.8-1.7-1.1c-2-1.5-3.3-3.3-4.2-6c-1.9-5.5-9.9-2.2-8.8,3.1c-1.8,0.2-3.5,0.6-5.3,1.3c-3.8,1.4-3.6,7.2,0.1,8.6
			c0.2,0.1,0.4,0.2,0.6,0.2c-5.6,0.2-11.3,1.3-16.7,3.3c-2,0.8-3.1,3.2-2.7,5.3c-0.2,0-0.3,0-0.5-0.1c0-1.7-0.9-3.3-2.9-3.8
			c-6.8-1.9-13.6-3.8-20.4-5.5c1.3-2.3,0.7-5.8-2.1-6.9c-19.5-7.4-39.5-13.4-59.8-17.8c-0.6-0.5-1.3-0.8-2.1-0.9
			c-2.1-0.3-4.2-0.6-6.3-0.8c-14.1-2.8-28.4-4.8-42.8-6.1c-6-0.5-7.1,8.8-1.1,9.3c1.1,0.1,2.1,0.2,3.2,0.3c-3.5,1-7,2.1-10.4,3.4
			c-1.9,0.1-3.9,0.1-5.8,0.3c-6,0.4-4.6,9.7,1.4,9.3c0.3,0,0.5,0,0.8,0c0.2,0.1,0.5,0.2,0.8,0.3c0.8,0.2,1.5,0.4,2.3,0.7
			c-2.8,2.5-2.5,8.1,2.2,8.1h26.2c1.1,0,2-0.3,2.7-0.8c6,1.1,12.1,2,18.2,2.8c25.4,13.7,52.8,23.3,81.3,28.4
			c7.4,2.5,15.7,3.5,21.8-1.4c8.1-0.4,16.2-1.5,24.2-3.2c1.3-0.3,2.4-1.2,3.1-2.4c5.5-0.3,10.9-1.1,16.3-2.3
			C-4448.5-2463.3-4447.1-2468.1-4450.3-2470.8z M-4486.9-2472.2c2.2-0.3,4.3-0.4,6.5-0.3
			C-4482.5-2472.4-4484.7-2472.3-4486.9-2472.2z M-4502-2463.7c-4,0-7.9-0.1-11.9-0.4c0.2-0.3,0.4-0.7,0.5-1.1
			C-4509.6-2464.8-4505.8-2464.3-4502-2463.7z M-4570.7-2479.3c3.7,1.7,7.5,3.3,11.3,4.8c-0.2,0.1-0.4,0.3-0.5,0.5
			c-4.6-1.7-9.1-3.4-13.5-5.3C-4572.5-2479.4-4571.6-2479.4-4570.7-2479.3z M-4591-2498.3c11,2.4,22,5.2,32.8,8.6
			c-7.3-1.5-14.6-2.8-22-4c-3.1-0.5-4.9,1.8-5,4.3c-1.7-0.1-3.5-0.3-5.2-0.5c-2.7-1.3-5.5-2.5-8.4-3.6
			C-4596.1-2495.1-4593.6-2496.7-4591-2498.3z M-4619.2-2499.6c4.5-0.5,9-0.7,13.6-0.6c-0.3,0.2-0.6,0.4-0.9,0.6
			c-1.1,0.6-1.7,1.5-1.9,2.4c-0.5-0.1-0.9-0.1-1.4,0C-4613-2498.2-4616.1-2499-4619.2-2499.6z"/>
		<path fill="#F9DCC4" d="M-5261.9-2315c-3.6-0.5-7.2-0.8-10.7-1.1c1.1-4.1-3.2-8.8-7.1-5.3l-5.1,4.5c-30.3-1.4-60.8,1.9-90.1,10
			c-4,1.1-5.3,7.4-1.7,9c-10.2-0.4-20.4-1.4-30.6-3.2c-5.9-1-7,8.3-1.1,9.3c26.2,4.6,53,4.6,79.2,0.2c0.1,2.3,1.5,4.6,4.1,4.7
			c11.5,0.1,22.1-3,31.7-9.2c-1.4,3.1-2.8,6.1-4.2,9.3c-1.6,3.8,2.5,7.7,6.2,6.1c9-3.9,14.3-13.7,12.5-23.3l17.2-1.5
			C-5256.4-2306.2-5256.8-2314.4-5261.9-2315z"/>
		<path fill="#F9DCC4" d="M-4421.8-2514.8c-3.7-1.7-7.5-3.3-11.2-5c-0.1-1-0.6-2-1.6-2.9c-8.6-7.7-18.7-13.4-29.6-16.8
			c-2.9-0.9-5.2,0.9-6.1,3.1l-19.3-8.6c-5.5-2.5-9,6.2-3.5,8.7l67.8,30.1C-4419.8-2503.7-4416.3-2512.4-4421.8-2514.8z"/>
		<path fill="#F9DCC4" d="M-4451.4-2457.5c-4.7-0.5-6.4,5.1-4,7.9c-4.2,0.7-6,7.3-1.2,8.9c4.1,1.4,8.2,2.7,12.3,4.1
			c2.9,1,6-0.6,6.4-3.8C-4436.8-2448.7-4443-2456.6-4451.4-2457.5z"/>
		<path fill="#F9DCC4" d="M-4311.6-2377.7c1.5,0,2.9,0,4.4-0.1c1.2,1.6,2.3,3.4,3.1,5.2C-4306.6-2374.3-4309.1-2376-4311.6-2377.7z
			 M-4273-2394c-1.5,0.6-3.1,1.1-4.7,1.6c-1.5-1.8-2.8-3.8-3-5.6C-4277.8-2397.4-4275.2-2396.1-4273-2394z M-4261.9-2362.1
			L-4261.9-2362.1c-1-0.7-2-1-3-0.9c-6.9-2-13.8-4.1-20.6-6.1c-0.8-0.2-1.6-0.3-2.3-0.1l-1.8-2.1c-1.3-1.5-3-2-4.7-1.5
			c-0.6-2-1.5-3.9-2.4-5.7c5.4-0.7,10.7-1.7,15.9-3.1c3.7,3.8,7.8,7.2,10.5,9.9c3.5,3.5,7,6.9,10.5,10.4
			C-4260.6-2361.7-4261.2-2361.9-4261.9-2362.1z M-4263.5-2386c-2.4,0-4.2,1.3-4.8,3.1c-0.7-0.7-1.4-1.4-2.1-2.1
			c2.2-0.8,4.4-1.7,6.6-2.6c0.8-0.4,1.5-1,2-1.8c1.2,1.3,2.3,2.5,3.5,3.9C-4260-2385.8-4261.8-2386-4263.5-2386z M-4032.2-2271.4
			c-0.4-0.3-0.7-0.7-1.1-1c0.8,0,1.5,0.1,2.3,0.1C-4031.5-2272-4031.9-2271.7-4032.2-2271.4z M-3898.2-2213.1
			c-0.2,0.1,0.4,0.9,0.5,2c-0.2,0-0.5,0-0.9,0C-3898.8-2211.8-3898.9-2212.6-3898.2-2213.1z M-3958.6-2229.9
			c-0.3,1.5-0.5,3.2-0.4,5.1c0.1,0.8,0.2,1.7,0.3,2.5c-6.1-2-12.2-4.3-18.2-7.1C-3970.7-2229.3-3964.6-2229.5-3958.6-2229.9z
			 M-3999.5-2287.2c-6.2-1.1-12.3-2.5-18.3-4c12,0.2,23.9,1.3,35.7,3.4C-3987.9-2287.3-3993.7-2287.1-3999.5-2287.2z"/>
		<path fill="#F9DCC4" d="M-5586.1-2195.5l280,3.4c0,0,274.1-275.6,591.1-275.6s615.6,282.4,615.6,282.4h267.9l34-109.6H-4040
			c0,0-337.7-316.1-689.1-316.1c-351.4,0-635.7,288.9-635.7,288.9h-258.6L-5586.1-2195.5z"/>
		<rect x="-5336.3" y="-692.3" fill="#F9DCC4" width="1252.9" height="228.4"/>
		<polyline fill="#F9DCC4" points="-5303.6,-455.9 -5711.3,-440.4 -5670.9,-613.3 -5599.6,-652.8 -5597.7,-906.9 -5550.5,-972.8 
			-5535.9,-1864.6 -5568.6,-1898 -5538.2,-1929.7 -5537.2,-2067 -5299.2,-2064.4 		"/>
		<rect x="-5486.5" y="-2030.6" fill="#FDF0D9" width="127.1" height="86.8"/>
		<rect x="-5534.9" y="-1929.7" fill="#FDF0D9" width="223.9" height="62.3"/>
		<rect x="-5475.4" y="-1602" fill="#FDF0D9" width="105" height="354.8"/>
		<circle fill="#FDF0D9" cx="-5423" cy="-1767" r="45"/>
		<polygon fill="#FDF0D9" points="-5555.2,-972.8 -5602.4,-906.9 -5306.4,-920.4 -5307.3,-985.1 		"/>
		<polygon fill="#FDF0D9" points="-5673.7,-613.3 -5303.6,-635.5 -5303.6,-684.3 -5602.3,-667.4 		"/>
		<polygon fill="#FDF0D9" points="-3744.5,-606.2 -4114.7,-628.4 -4114.7,-677.2 -3815.9,-660.3 		"/>
	</g>
</g>
<g id="Layer_3">
	<rect x="-4487.2" y="-3183" fill="#413644" stroke="#5B4C59" stroke-width="7" stroke-miterlimit="10" width="140" height="76"/>
</g>
</svg>
