<?xml version="1.0" encoding="utf-8"?>
<!-- Generator: Adobe Illustrator 18.1.1, SVG Export Plug-In . SVG Version: 6.00 Build 0)  -->
<svg version="1.1" xmlns="http://www.w3.org/2000/svg" xmlns:xlink="http://www.w3.org/1999/xlink" x="0px" y="0px"
	 viewBox="0 0 640.8 4468.9" enable-background="new 0 0 640.8 4468.9" xml:space="preserve">
<pattern  x="-6895.6" y="1707.2" width="139" height="150.8" patternUnits="userSpaceOnUse" id="New_Pattern" viewBox="69.5 -188.5 139 150.8" overflow="visible">
	<g>
		<polygon fill="none" points="69.5,-188.5 208.5,-188.5 208.5,-37.7 69.5,-37.7 		"/>
		<polygon fill="#C56C76" stroke="#D49B8D" stroke-width="7" stroke-miterlimit="10" points="274.5,-3.5 142.5,-3.5 142.5,-71.9 
			274.5,-71.9 		"/>
		<polygon fill="#C56C76" stroke="#D49B8D" stroke-width="7" stroke-miterlimit="10" points="135.5,-3.5 3.5,-3.5 3.5,-71.9 
			135.5,-71.9 		"/>
		<polygon fill="#C56C76" stroke="#D49B8D" stroke-width="7" stroke-miterlimit="10" points="205,-78.9 73,-78.9 73,-147.3 
			205,-147.3 		"/>
		<polygon fill="#C56C76" stroke="#D49B8D" stroke-width="7" stroke-miterlimit="10" points="274.5,-154.3 142.5,-154.3 
			142.5,-222.7 274.5,-222.7 		"/>
		<polygon fill="#C56C76" stroke="#D49B8D" stroke-width="7" stroke-miterlimit="10" points="135.5,-154.3 3.5,-154.3 3.5,-222.7 
			135.5,-222.7 		"/>
	</g>
</pattern>
<pattern  x="-6895.6" y="1707.2" width="147" height="166" patternUnits="userSpaceOnUse" id="New_Pattern_2" viewBox="73.5 -207.5 147 166" overflow="visible">
	<g>
		<polygon fill="none" points="73.5,-207.5 220.5,-207.5 220.5,-41.5 73.5,-41.5 		"/>
		<polygon fill="#8BAFB2" stroke="#7A98A0" stroke-width="7" stroke-miterlimit="10" points="290.5,-3.5 150.5,-3.5 150.5,-79.5 
			290.5,-79.5 		"/>
		<polygon fill="#8BAFB2" stroke="#7A98A0" stroke-width="7" stroke-miterlimit="10" points="143.5,-3.5 3.5,-3.5 3.5,-79.5 
			143.5,-79.5 		"/>
		<polygon fill="#8BAFB2" stroke="#7A98A0" stroke-width="7" stroke-miterlimit="10" points="217,-86.5 77,-86.5 77,-162.5 
			217,-162.5 		"/>
		<polygon fill="#8BAFB2" stroke="#7A98A0" stroke-width="7" stroke-miterlimit="10" points="290.5,-169.5 150.5,-169.5 
			150.5,-245.5 290.5,-245.5 		"/>
		<polygon fill="#8BAFB2" stroke="#7A98A0" stroke-width="7" stroke-miterlimit="10" points="143.5,-169.5 3.5,-169.5 3.5,-245.5 
			143.5,-245.5 		"/>
	</g>
</pattern>
<pattern  x="-6895.6" y="1707.2" width="147" height="166" patternUnits="userSpaceOnUse" id="New_Pattern_5" viewBox="73.5 -207.5 147 166" overflow="visible">
	<g>
		<polygon fill="none" points="73.5,-207.5 220.5,-207.5 220.5,-41.5 73.5,-41.5 		"/>
		<polygon fill="#413644" stroke="#5B4C59" stroke-width="7" stroke-miterlimit="10" points="290.5,-3.5 150.5,-3.5 150.5,-79.5 
			290.5,-79.5 		"/>
		<polygon fill="#413644" stroke="#5B4C59" stroke-width="7" stroke-miterlimit="10" points="143.5,-3.5 3.5,-3.5 3.5,-79.5 
			143.5,-79.5 		"/>
		<polygon fill="#413644" stroke="#5B4C59" stroke-width="7" stroke-miterlimit="10" points="217,-86.5 77,-86.5 77,-162.5 
			217,-162.5 		"/>
		<polygon fill="#413644" stroke="#5B4C59" stroke-width="7" stroke-miterlimit="10" points="290.5,-169.5 150.5,-169.5 
			150.5,-245.5 290.5,-245.5 		"/>
		<polygon fill="#413644" stroke="#5B4C59" stroke-width="7" stroke-miterlimit="10" points="143.5,-169.5 3.5,-169.5 3.5,-245.5 
			143.5,-245.5 		"/>
	</g>
</pattern>
<g id="Layer_1">
	<g id="HAobQW.tif">
		
			<image overflow="visible" width="177" height="56" id="Layer_0_1_" xlink:href="57AE35C98E9362CC.png"  transform="matrix(2.8342 0 0 1.6071 -7323.1914 51.2058)">
		</image>
	</g>
	<g id="_x33_wBwi4.tif">
		
			<image overflow="visible" width="410" height="280" id="Layer_0_2_" xlink:href="57AE35C98E9362CD.png"  transform="matrix(2.6822 0 0 2.6822 -10255.2461 515.6784)">
		</image>
	</g>
	<rect x="-4720.6" y="141.4" fill="#DE6757" width="893.9" height="1548.4"/>
	<path fill="#4B3246" d="M-4274.6,21.4c0.7-0.4,1.5-0.9,2-1.2"/>
	<path fill="#4B3246" d="M-3218.2,1928.4"/>
	<path fill="#4B3246" d="M-3577.9-348.7"/>
	<path fill="#CAB9AA" d="M-4273.5,75.1c0,0-0.1,0-0.1,0c0,0.1-0.1,0.2-0.1,0.2L-4273.5,75.1z"/>
	<path fill="#4B3246" d="M-4273.7-31.6c0.1-0.1,0.1-0.2,0.2-0.2c0,0-0.1,0-0.1,0C-4273.6-31.7-4273.7-31.6-4273.7-31.6z"/>
	<path fill="#4B3246" d="M-4273.6,114.7"/>
	<path fill="#4B3246" d="M-4269.3,103c-2.9-9.3-5.7-18.6-8.6-27.9"/>
	<path fill="#4B3246" d="M-4273.6,59.5"/>
	<path fill="#4B3246" d="M-4273.6,81.1"/>
	<path fill="none" d="M-4283.9,403.6c1.8-13.7,5.5-27.2,10.7-40c6.3-0.4,9.4-6,10-12.4"/>
	<linearGradient id="SVGID_1_" gradientUnits="userSpaceOnUse" x1="-4595.8608" y1="1598.7704" x2="-3961.9368" y2="282.3523">
		<stop  offset="0" style="stop-color:#D8AB6C"/>
		<stop  offset="1" style="stop-color:#FFD67E"/>
	</linearGradient>
	<path fill="url(#SVGID_1_)" d="M-4594.5,202h641.8c26.4,0,48,21.6,48,48v1370.1h-737.8V250C-4642.5,223.6-4620.9,202-4594.5,202z"
		/>
	<path fill="#913433" d="M-3904.7,253h-737.8v-3c0-26.4,21.6-48,48-48h641.8c26.4,0,48,21.6,48,48V253z"/>
	<rect x="-10715.5" y="-272.8" fill="#FFFEF1" width="3004" height="2872"/>
	<g>
		<path fill="#4B3246" d="M-3328.3-673.9"/>
		<path fill="#4B3246" d="M-3672.6-564.9c6.2,3.3,11.8,6.2,17.5,9.2c-1.2,0.9-2.8,2.8-3.5,2.5c-6-2.2-11.8-4.9-17.7-7.4
			C-3675.3-561.9-3674.1-563.2-3672.6-564.9z"/>
		<path fill="#4B3246" d="M-3915.6-573.3c-3.8-1.7-7.3-3.3-10.9-4.9c3.9-0.8,7.7-2.2,11.6-2.2c3.1,0.1,6.2,1.9,9.3,3
			C-3908.7-576.1-3911.9-574.8-3915.6-573.3z"/>
		<path fill="#F9DCC4" d="M-4283.9-436.7h1007.1c0,0-254.4-237.3-508.4-237.3S-4283.9-436.7-4283.9-436.7z"/>
		<polygon fill="#FDF0D9" points="-3775.3,-460.2 -3796.8,-454.9 -3827,-638.6 -3743,-638.6 		"/>
		<polygon fill="#FDF0D9" points="-3722.3,-461.7 -3744.2,-464.8 -3715.4,-628.9 -3636.7,-599.6 		"/>
		<polygon fill="#FDF0D9" points="-3843.8,-464.5 -3863.6,-454.8 -3932.5,-607.9 -3851,-628.1 		"/>
	</g>
	<rect x="-10715.5" y="-272.8" fill="url(#New_Pattern_2)" width="3004" height="2872"/>
	<rect x="-10715.5" y="2081.6" fill="url(#New_Pattern)" width="3004" height="268.6"/>
	<g id="_x33_wBwi4.tif_1_">
		
			<image overflow="visible" width="410" height="280" id="Layer_0_4_" xlink:href="57AE35C98E9362CE.png"  transform="matrix(2.6822 0 0 2.6822 -3236.9919 515.6784)">
		</image>
	</g>
	<rect x="-3697.3" y="-272.8" fill="#FFFEF1" width="3004" height="2872"/>
	<pattern  id="SVGID_2_" xlink:href="#New_Pattern_5" patternTransform="matrix(1 0 0 1 109.2542 0)">
	</pattern>
	<rect x="-3697.3" y="-272.8" fill="url(#SVGID_2_)" width="3004" height="2872"/>
	<rect x="-4850.6" y="-59" fill="#913433" width="1133.4" height="118.5"/>
	<g id="tTWrGk.tif">
		
			<image overflow="visible" width="204" height="41" id="Layer_0_3_" xlink:href="57AE35C98E9362CB.png"  transform="matrix(4.935 0 0 4.935 -5286.7212 -475.1283)">
		</image>
	</g>
	<g>
		<path fill="#CAB9AA" d="M-3964.7,313v1242.1h-617.8V313H-3964.7 M-3906.8,253h-733.7c-1.1,0-2.1,0.9-2.1,2.1v1358
			c0,1.1,0.9,2.1,2.1,2.1h733.7c1.1,0,2.1-0.9,2.1-2.1V255C-3904.7,253.9-3905.6,253-3906.8,253L-3906.8,253z"/>
	</g>
	
		<rect x="-4608.5" y="1212.5" fill="none" stroke="#CAB9AA" stroke-width="60" stroke-linecap="square" stroke-miterlimit="10" width="676" height="376"/>
	
		<line fill="none" stroke="#CAB9AA" stroke-width="60" stroke-linecap="square" stroke-miterlimit="10" x1="-4283.9" y1="302.9" x2="-4283.9" y2="1589"/>
	<rect x="-4849.3" y="1684.9" fill="#D49B8D" width="1133.4" height="96.2"/>
	<polygon fill="#913433" points="-4849.3,1781.1 -4776.8,1844.2 -3799,1848.6 -3715.9,1781.1 	"/>
	<g id="xG4dGs.tif">
		
			<image overflow="visible" width="173" height="44" id="Layer_0_6_" xlink:href="57AE35C98E9362E5.png"  transform="matrix(3.2813 0 0 4.93 -6318.3799 -583.5883)">
		</image>
	</g>
</g>
<g id="Layer_5">
	<path fill="#FFFFFF" stroke="#000000" stroke-miterlimit="10" d="M-1343.6,5151.2"/>
	<path fill="#68536F" stroke="#68536F" stroke-width="12" stroke-linecap="square" stroke-miterlimit="10" d="M-2417.8,4211.4h-60.4
		v-326.4c0-14,11.4-25.4,25.4-25.4h35.1c14,0,25.4,11.4,25.4,25.4v301C-2392.4,4200.1-2403.8,4211.4-2417.8,4211.4z"/>
	
		<polygon fill="#788E92" stroke="#788E92" stroke-width="12" stroke-linecap="round" stroke-linejoin="round" stroke-miterlimit="10" points="
		-2726.2,3159.6 -2179.5,3159.6 -2354,3044.6 -2543.4,3044.6 	"/>
	<polygon fill="#C0B2A8" stroke="#EEE5D5" stroke-width="20" stroke-miterlimit="10" points="-2577.4,3641.5 -2726.2,3159.6 
		-2179.5,3159.6 -2293.3,3641.5 -2293.3,3871.5 -2577.4,3871.5 	"/>
	
		<line fill="#C0B2A8" stroke="#EEE5D5" stroke-width="20" stroke-miterlimit="10" x1="-2577.4" y1="3641.5" x2="-2293.3" y2="3641.5"/>
	<line fill="#C0B2A8" stroke="#EEE5D5" stroke-width="20" stroke-miterlimit="10" x1="-2511" y1="3641.5" x2="-2511" y2="3871.5"/>
	
		<line fill="#C0B2A8" stroke="#EEE5D5" stroke-width="20" stroke-miterlimit="10" x1="-2375.7" y1="3641.5" x2="-2375.7" y2="3871.5"/>
	
		<line fill="#C0B2A8" stroke="#EEE5D5" stroke-width="20" stroke-miterlimit="10" x1="-2375.7" y1="3641.5" x2="-2328.3" y2="3159.6"/>
	
		<line fill="#C0B2A8" stroke="#EEE5D5" stroke-width="20" stroke-miterlimit="10" x1="-2511" y1="3641.5" x2="-2575.1" y2="3159.6"/>
	
		<path fill="#788E92" stroke="#788E92" stroke-width="12" stroke-linecap="round" stroke-linejoin="round" stroke-miterlimit="10" d="
		M-2376.1,3017.5c0-42-31.1-76.1-79.5-76.1c-43.9,0-79.5,34.1-79.5,76.1c0,42,35.6,76.1,79.5,76.1S-2376.1,3059.6-2376.1,3017.5z"/>
	<rect x="-2486.4" y="3883.9" fill="#68536F" width="102.1" height="57"/>
	
		<polygon fill="#68536F" stroke="#68536F" stroke-width="12" stroke-linecap="round" stroke-linejoin="round" stroke-miterlimit="10" points="
		-2574.6,7167.4 -2282,7167.4 -2282,6281.3 -2349.7,6206.9 -2349.7,3940.9 -2525.5,3940.9 -2525.5,6213.7 -2575.1,6286.6 	"/>
	<path fill="#68536F" stroke="#FFFFFF" stroke-linecap="round" stroke-miterlimit="10" d="M-2580.2,6286.6l0.5,880.8h301v-886.1
		l-126.6,34.1c-15.8,4.3-32.5,4.5-48.5,0.8L-2580.2,6286.6z"/>
	<ellipse fill="#788E92" cx="-2466.4" cy="3003.8" rx="68.3" ry="66.2"/>
	
		<path fill="#788E92" stroke="#788E92" stroke-width="12" stroke-linecap="round" stroke-linejoin="round" stroke-miterlimit="10" d="
		M-2525.5,6213.7l-54.6,72.9c164.5,60.5,301.5-5.3,301.5-5.3l-66-67.6H-2525.5z"/>
	<path fill="#717985" stroke="#717985" stroke-width="12" stroke-linecap="square" stroke-miterlimit="10" d="M368.2,1415.9h-60.4
		v-326.4c0-14,13.4-15.4,27.4-15.4l33.1-2c14,0,25.4,3.4,25.4,17.4v301C393.6,1404.6,382.2,1415.9,368.2,1415.9z"/>
	
		<polygon fill="#717985" stroke="#717985" stroke-width="12" stroke-linecap="round" stroke-linejoin="round" stroke-miterlimit="10" points="
		57.1,355.6 603.7,355.6 415.3,240.7 256.8,240.7 	"/>
	
		<polygon fill="none" stroke="#717985" stroke-width="20" stroke-linecap="round" stroke-linejoin="round" stroke-miterlimit="10" points="
		208.6,846.1 63.8,364.1 600.5,364.1 492.7,846.1 492.7,1076 208.6,1076 	"/>
	<line fill="#717985" stroke="#717985" stroke-width="20" stroke-miterlimit="10" x1="208.6" y1="846.1" x2="492.7" y2="846.1"/>
	<line fill="#717985" stroke="#717985" stroke-width="20" stroke-miterlimit="10" x1="275" y1="846.1" x2="275" y2="1076"/>
	<line fill="#717985" stroke="#717985" stroke-width="20" stroke-miterlimit="10" x1="410.3" y1="846.1" x2="410.3" y2="1076"/>
	<line fill="#717985" stroke="#717985" stroke-width="20" stroke-miterlimit="10" x1="410.3" y1="846.1" x2="457.7" y2="364.1"/>
	<line fill="#717985" stroke="#717985" stroke-width="20" stroke-miterlimit="10" x1="275" y1="846.1" x2="210.9" y2="364.1"/>
	
		<path fill="#717985" stroke="#717985" stroke-width="12" stroke-linecap="round" stroke-linejoin="round" stroke-miterlimit="10" d="
		M409.9,222.1c0-42-31.1-76.1-79.5-76.1c-43.9,0-79.5,34.1-79.5,76.1s35.6,76.1,79.5,76.1S409.9,264.1,409.9,222.1z"/>
	<rect x="299.6" y="1088.4" fill="#717985" width="102.1" height="57"/>
	
		<path fill="#717985" stroke="#717985" stroke-width="12" stroke-linecap="round" stroke-linejoin="round" stroke-miterlimit="10" d="
		M231.4,4166.3H484c11,0,20-8.4,20-18.7v-803.7c0-4.7-1.9-9.1-5.2-12.6l-57.2-59c-3.3-3.4-5.2-7.9-5.2-12.6V1164.1
		c0-10.3-9-18.7-20-18.7H280.5c-11,0-20,8.4-20,18.7v2103.5c0,3.8-1.2,7.4-3.5,10.5l-42.6,58.7c-2.3,3.1-3.5,6.8-3.5,10.5l0.5,800.2
		C211.4,4157.9,220.4,4166.3,231.4,4166.3z"/>
	<path fill="#717985" stroke="#717985" stroke-linecap="round" stroke-miterlimit="10" d="M214.4,3580.1l-8.6,811.8
		c0,54.5,303.5,49.2,303.5-3.7l-7-809.7c0-73.1-51.2-126.2-110.4-107.2h0c-22.7,7.3-46.6,7.8-69.5,1.4l-2.6-0.7
		C261.3,3455.6,214.3,3508.5,214.4,3580.1z"/>
	<ellipse fill="#717985" cx="319.6" cy="208.3" rx="68.3" ry="66.2"/>
</g>
<g id="Layer_6_copy">
	<g id="XMLID_2_">
		<g>
			<path fill="#788E92" d="M-4275.4,2978.4c-50.4,4.8-33.5,8.8-128.7-6.5c-4.8-6.6-32.1-24.1-37-30.6c-7.2-9.6-14.3-19.3-21.5-28.9
				c-1.4-1.9-2.4-4.2-5.8-10.2c-0.1,0.6-0.3,1.2-0.4,1.8c-15.5-18.1-15.3-43.9-10.8-67c9.1-51.6,5.7-39.4,16.1-61.3
				c1.2-2.6,24.8-44.1,26.1-46.6c-0.3-0.1-0.5-0.1-0.8-0.2c5.2-5.9,9.1-13,11.1-20.1c0.5-0.8,0.9-1.6,1.3-2.5
				c1.3-0.6,1.5-2.8,3.3-2.8c-0.4-1.2-0.3-2.7-0.4-4.1c10.1-26.8,9.2-53.7,5-81.3c-1.3-8.2,0.2-16.8,0.5-25.2
				c1-25.5,0.6-51.2,3.7-76.4c1.5-12.5,9.9-24,14.8-36.1c2.5-6,5.3-12.2,6.1-18.6c2.3-18.4,3.2-36.9,5.7-55.3
				c1.9-13.5,1.2-25.5-5.7-38.2c-6.4-11.7-8.9-25.7-11.7-39c-0.6-2.7,4.9-7.9,8.7-9.9c2.5-1.3,7.1,0.5,10.4,1.8
				c20.2,8.1,39.8,19.3,60.8,23.6c13.2,2.7,28.9-3.7,42.9-8c20.6-6.3,40.5-14.7,61-21.3c3.1-1,6.7,0,10.4,0.8
				c-0.6,2.1-1.4,4.1-1.5,6.2c-0.8,0.8-1.3,1.7-1.6,2.6c-4.3,15-9.3,30-11.2,45.4c-2.8,23.3-4.9,46.9-3.9,70.3
				c0.5,11.5,8.6,61.7,11.8,70.8c15.4,43.6,13.5,89,14.5,134.1c0.2,10-2.1,20.1-2.7,30.2c-0.1,2.4,1.4,6.6,3.1,7.2
				c11.5,4.1,33.1,47,35.6,53.2c7.9,19.7,18.3,39,22.5,59.6c2.7,13.1,9.3,46.1,4.9,78.1c-4.7,34.1-19.9,79.8-20.7,81.3
				c-3,5-8,8-11,8C-4206.4,2970.4-4240.4,2974.4-4275.4,2978.4z M-4232.8,2353c0.8-5.6,1.2-11.2,1.8-16.9c-5.6,4.1-12,7.5-16.5,12.5
				c-2.9,3.2-3.1,8.9-5.2,15.5c3.3,3.9,6.9,8.1,10.4,12.3c2.2-3.7,5-7.2,6.6-11.2C-4234.2,2361.4-4233.4,2357.2-4232.8,2353z
				 M-4309.4,2432.1c7.3-7,14.5-11.9,13.8-13.4c-3.1-7-8.3-13-12.8-19.4c-4.9,4.9-12.5,9.1-13.7,14.8
				C-4323,2418.1-4315.4,2424.1-4309.4,2432.1z M-4369.1,2367.1c2-3.6,4-7.2,7.2-12.8c-7-5.9-13.8-11.9-20.9-17.5
				c-1-0.8-3.1,0-4.7,0c1.9,5.9,3.7,11.9,5.9,17.7c0.8,2.2,2,4.6,3.6,6.1C-4375.4,2363.1-4372.1,2365-4369.1,2367.1z"/>
			<path fill="#788E92" d="M-4295.6,2418.7c0.7,1.5-6.5,6.5-13.8,13.4c-6-8.1-13.5-14-12.7-18.1c1.2-5.7,8.8-9.9,13.7-14.8
				C-4303.9,2405.6-4298.7,2411.7-4295.6,2418.7z"/>
		</g>
		<g>
			<path fill="none" stroke="#7A98A0" stroke-miterlimit="10" d="M-4441,2941.3c4.8,6.5,32.1,24.1,37,30.6
				c95.2,15.3,78.3,11.2,128.7,6.5c35-4,69-8,105-15c3,0,8-3,11-8c0.8-1.6,16-47.2,20.7-81.3c4.4-32.1-2.2-65-4.9-78.1
				c-4.2-20.5-14.6-39.8-22.5-59.6c-2.5-6.2-24.1-49.2-35.6-53.2c-1.7-0.6-3.2-4.8-3.1-7.2c0.6-10.1,2.9-20.2,2.7-30.2
				c-1-45.1,0.9-90.5-14.5-134.1c-3.2-9.1-11.3-59.3-11.8-70.8c-1-23.3,1.1-47,3.9-70.3c1.9-15.4,6.9-30.4,11.2-45.4
				c0.3-0.9,0.9-1.8,1.6-2.6c0.1-2.1,0.9-4.1,1.5-6.2c-3.7-0.9-7.3-1.8-10.4-0.8c-20.5,6.6-40.4,15-61,21.3
				c-14,4.3-29.6,10.7-42.9,8c-21-4.3-40.5-15.5-60.8-23.6c-3.3-1.3-8-3.2-10.4-1.8c-3.8,2-9.2,7.2-8.7,9.9
				c2.8,13.3,5.3,27.3,11.7,39c6.9,12.7,7.5,24.7,5.7,38.2c-2.5,18.3-3.4,36.9-5.7,55.3c-0.8,6.3-3.6,12.5-6.1,18.6
				c-4.9,12.1-13.3,23.7-14.8,36.1c-3.1,25.2-2.7,50.9-3.7,76.4c-0.3,8.4-1.8,17.1-0.5,25.2c4.2,27.6,5.1,54.5-5,81.3
				c0.1,1.4,0,2.9,0.4,4.1c-1.7,0-2,2.2-3.3,2.8c-0.4,0.9-0.9,1.8-1.3,2.5c-2,7.2-5.9,14.2-11.1,20.1c0.3,0.1,0.5,0.2,0.8,0.2
				c-1.3,2.5-24.8,44-26.1,46.6c-10.4,21.9-7,9.7-16.1,61.3c-4.6,23.1-4.8,48.9,10.8,67c0.1-0.6,0.3-1.1,0.4-1.8
				c3.4,6,4.3,8.3,5.8,10.2C-4455.4,2922-4448.2,2931.7-4441,2941.3z"/>
			<path fill="none" stroke="#7A98A0" stroke-miterlimit="10" d="M-4247.5,2348.7c4.6-5,10.9-8.4,16.5-12.5
				c-0.6,5.6-0.9,11.3-1.8,16.9c-0.6,4.2-1.4,8.4-3,12.3c-1.6,4-4.3,7.5-6.6,11.2c-3.6-4.2-7.1-8.4-10.4-12.3
				C-4250.7,2357.5-4250.5,2351.9-4247.5,2348.7z"/>
			<path fill="none" stroke="#7A98A0" stroke-miterlimit="10" d="M-4322.1,2414c1.2-5.7,8.8-9.9,13.7-14.8
				c4.5,6.4,9.7,12.4,12.8,19.4c0.7,1.5-6.5,6.5-13.8,13.4C-4315.4,2424.1-4323,2418.1-4322.1,2414z"/>
			<path fill="none" stroke="#7A98A0" stroke-miterlimit="10" d="M-4387.6,2336.8c1.6,0,3.7-0.8,4.7,0c7.1,5.7,14,11.6,20.9,17.5
				c-3.1,5.6-5.1,9.2-7.2,12.8c-3-2.1-6.3-4.1-9-6.6c-1.7-1.6-2.8-3.9-3.6-6.1C-4383.9,2348.6-4385.6,2342.7-4387.6,2336.8z"/>
		</g>
	</g>
	<g id="XMLID_1_">
		<g>
			<path fill="#788E92" d="M-4389.6,2943.7c-14.9-15.2-27.3-32.9-41.4-49c-8-9-5.7-17.6-1.9-26.8c9-21.2,16.4-42.6,13-66.4
				c-0.2-1.8,3.2-4.9,5.5-6.1c6.7-3.6,13.9-6.4,20.6-9.9c2.2-1.1,4.3-2.3,6.4-3.6c6.6-4.2,9-9.9,8-19.7c-2.1-20.1,0.7-40.7-0.1-61.1
				c-0.7-17.3-5.1-34.5-5.6-51.8c-0.9-32.2-0.4-64.3,0.2-96.5c0.1-4.1,5.8-7.9,6.5-12.2c1.1-6.6,0.1-13.6-0.2-20.4
				c-0.1-1.9,6.8-33.6,6.4-48.5c-0.1-3.1,2-6.3,3.1-9.5c2.2,1.7,4.4,3.3,6.5,5c9.7,7.6,19.2,15.6,29.3,22.6
				c3.7,2.5,9.1,2.8,13.8,3.3c1.8,0.2,3.8-2,5.7-3.1c-1.2-1.8-2.1-4-3.7-5.5c-6.9-6.3-15-11.6-20.8-18.8
				c-7.3-9.1-19.9-21.2,5.1-24.6c2-0.3,4-2.8,5.5-4.6c2.8-3.5,5.3-7.3,7.9-11c4.6,8.4,9.5,16.6,13.1,25.3c0.4,1-6.8,4.9-10.1,7.9
				c-2.6,2.3-4.7,5.1-7,7.7c3.6,1,7.2,2.9,10.7,2.8c3.9-0.1,7.7-2.7,11.6-3.2c5-0.6,10.1-0.2,15.2-0.2c-3.1-3-6.7-5.7-9.1-9.2
				c-1.4-2-1.9-5.8-0.9-8.1c1.3-3.2,4.5-5.5,6.4-8.4c3.8-5.6,7.2-11.3,10.8-16.9c5.6,6,11.7,11.6,16.5,18.3
				c4.3,6.1,12.8,26.2,1,19.2c-2.1-1.3-7.2-0.1-9.3,1.7c-8,6.9-15.4,14.4-22.8,22c-1.7,1.7-2.4,4.4-3.6,6.6c2.2,0.1,5,1.1,6.6,0.1
				c6.2-3.6,11.8-8.2,18.1-11.5c3.3-1.7,7.6-1.6,11.5-2.2c-1.7,2.7-3.5,5.3-5.2,8c-0.9,1.3-1.7,2.7-2.5,4.1c2,0.9,4.7,3,6,2.3
				c5.3-2.5,10.1-6,15.2-8.9c3.4-1.9,7-3.4,10.6-5c0.7,3.5,1.1,7.1,2,10.5c6.2,22.4,9.7,46.2,19.8,66.8c8.6,17.7,13.9,37.9,7.1,51.8
				c-8.4,17.1-2.9,30.6-3,45.9c-0.1,8.6-4.2,17.3-6.4,25.9c-3.2,12.4-6.2,24.9-9.5,37.4c-2.4,9.2-5.5,18.3-7.6,27.6
				c-3.9,17.4-7.7,34.9-10.9,52.5c-5.9,32.5-11.7,65-16.7,97.6c-1.4,9.3-0.2,19-0.1,28.5c0.1,5.3,0.6,10.6,0.3,15.9
				c-0.1,1.9-2,3.6-3,5.4c-1.8-1.4-5-2.7-5.2-4.4c-0.2-1.2-0.4-2.4-0.5-3.6c-1.1-7.7-2.1-15.4-2.2-23.2c-0.2-23.8,0.2-47.7,0.2-71.5
				c0-2.5-1.1-4.9-1.8-7.4c-1.3,2.5-3.2,4.9-3.8,7.6c-1.5,7.7-2.4,15.5-3.8,23.2c-0.3,1.6-1.7,2.9-2.6,4.4c-0.3-1.6-0.9-3.3-0.9-4.9
				c-0.1-7.2,0.1-14.4,0-21.6c0-1.6-0.6-3.1-0.9-4.7c-0.9,1.4-2.4,2.8-2.6,4.3c-1.4,9.6-2.2,19.2-4,28.7c-0.6,3.1-3.4,5.8-5.2,8.7
				c-1.7-2.9-4.3-5.7-5-8.8c-5.3-23.4-6.6-48.6-16.3-70.1c-16.2-36.1-6.9-71.9-6.4-108c0-3.1-1.5-6.2-2.3-9.3
				c-1.8,2.8-5,5.6-5.2,8.5c-1.2,15.6-1.7,31.2-2.4,46.8c1.1,0,2.2,0,3.3,0c0,37.4-0.1,74.7,0.1,112.1c0,3.4,0.5,8.3,2.7,10.1
				c22.9,18.1,12.4,47.3,23,69.6c0.9,2,1.4,5.2,0.8,8.3c-0.9,5.1-4.4,9.9-12.7,8.9c-10.2-1.3-5.4-9.3-15.5-19
				c-4-3.8,3.2-45.7,1.2-45.8c-0.2,0-6.6-3.2-7.3-5.7c-4.7-15.6-8.6-31.4-12.7-47.2c-1.7-6.4-2.4-13.2-5.2-19.2
				c-2.9-6.3-7.7-11.9-11.6-17.7c1.9,6.1,4.5,12.1,5.6,18.3c1,5.4,1.9,10.8,2.9,16.2c2.3,13.5,4.4,27.1,6.7,40.6
				c2.2,12.9,4.1,25.8,7.1,38.5c3.1,13.4-6.6,38.4-19.1,41.9C-4373.7,2950-4385,2948.4-4389.6,2943.7z"/>
		</g>
		<g>
			<path fill="none" stroke="#7A98A0" stroke-miterlimit="10" d="M-4268.3,2934.4c-0.9,0.4-1.7,0.8-2.6,1.1c0.2,1.2,0.4,2.4,0.5,3.6
				c0.2,1.7,3.4,2.9,5.2,4.4c1.1-1.8,3-3.6,3-5.4c0.3-5.3-0.2-10.6-0.3-15.9c-0.1-9.5-1.4-19.2,0.1-28.5c5-32.6,10.8-65.1,16.7-97.6
				c3.2-17.6,7-35,10.9-52.5c2.1-9.3,5.2-18.4,7.6-27.6c3.3-12.4,6.3-24.9,9.5-37.4c2.2-8.6,6.4-17.2,6.4-25.9
				c0.1-15.3-5.4-28.8,3-45.9c6.9-13.9,1.6-34.1-7.1-51.8c-10-20.6-13.5-44.3-19.8-66.8c-1-3.4-1.4-7-2-10.5
				c-3.5,1.6-7.2,3.1-10.6,5c-5.1,2.9-9.9,6.4-15.2,8.9c-1.3,0.6-4-1.5-6-2.3c0.8-1.4,1.6-2.7,2.5-4.1c1.7-2.7,3.5-5.3,5.2-8
				c-3.9,0.7-8.1,0.5-11.5,2.2c-6.3,3.3-11.9,7.9-18.1,11.5c-1.6,0.9-4.4,0-6.6-0.1c1.2-2.2,1.9-4.9,3.6-6.6
				c7.4-7.6,14.8-15.1,22.8-22c2.1-1.8,7.2-3,9.3-1.7c11.7,7,3.3-13.2-1-19.2c-4.8-6.6-10.9-12.2-16.5-18.3
				c-3.6,5.7-7.1,11.4-10.8,16.9c-2,2.9-5.1,5.3-6.4,8.4c-0.9,2.2-0.5,6,0.9,8.1c2.4,3.5,6,6.2,9.1,9.2c-5.1,0-10.2-0.4-15.2,0.2
				c-3.9,0.5-7.7,3-11.6,3.2c-3.5,0.1-7.2-1.8-10.7-2.8c2.3-2.6,4.4-5.4,7-7.7c3.4-2.9,10.6-6.8,10.1-7.9
				c-3.6-8.7-8.6-16.9-13.1-25.3c-2.6,3.7-5.1,7.5-7.9,11c-1.5,1.8-3.4,4.3-5.5,4.6c-25,3.4-12.4,15.5-5.1,24.6
				c5.8,7.2,13.9,12.4,20.8,18.8c1.6,1.4,2.5,3.6,3.7,5.5c-1.9,1.1-3.9,3.3-5.7,3.1c-4.7-0.5-10.1-0.8-13.8-3.3
				c-10.2-6.9-19.6-15-29.3-22.6c-2.2-1.7-4.4-3.3-6.5-5c-1.1,3.2-3.2,6.3-3.1,9.5c0.4,14.9-6.5,46.6-6.4,48.5
				c0.3,6.8,1.3,13.8,0.2,20.4c-0.7,4.3-6.4,8.1-6.5,12.2c-0.6,32.2-1.1,64.3-0.2,96.5c0.5,17.3,4.9,34.5,5.6,51.8
				c0.9,20.3-2,40.9,0.1,61.1c1,9.8-1.4,15.5-8,19.7c-2.1,1.3-4.2,2.5-6.4,3.6c-6.8,3.5-13.9,6.4-20.6,9.9c-2.4,1.3-5.8,4.4-5.5,6.1
				c3.4,23.7-4,45.2-13,66.4c-3.9,9.2-6.1,17.8,1.9,26.8c14.1,16.1,26.5,33.8,41.4,49c4.6,4.7,15.9,6.3,22.8,4.4
				c12.6-3.5,22.2-28.5,19.1-41.9c-2.9-12.7-4.9-25.6-7.1-38.5c-2.3-13.5-4.4-27.1-6.7-40.6c-0.9-5.4-1.9-10.8-2.9-16.2
				c-1.1-6.2-3.7-12.2-5.6-18.3c4,5.9,8.7,11.4,11.6,17.7c2.7,5.9,3.5,12.8,5.2,19.2c4.1,15.8,8.1,31.6,12.7,47.2
				c0.8,2.5,7.2,5.7,7.3,5.7c2.1,0.2-5.2,42-1.2,45.8c10.1,9.7,5.2,17.8,15.5,19c8.3,1,11.8-3.8,12.7-8.9"/>
			<path fill="none" stroke="#7A98A0" stroke-miterlimit="10" d="M-4309.3,2938.4c1.1-0.1,2.2-0.1,3.3-0.2c0.6-3.1,0.1-6.4-0.8-8.3
				c-10.7-22.3-0.1-51.5-23-69.6c-2.2-1.7-2.7-6.6-2.7-10.1c-0.2-37.4-0.1-74.7-0.1-112.1c-1.1,0-2.2,0-3.3,0
				c0.7-15.6,1.2-31.2,2.4-46.8c0.2-2.9,3.4-5.7,5.2-8.5c0.8,3.1,2.4,6.2,2.3,9.3c-0.5,36.1-9.8,71.9,6.4,108
				c9.6,21.5,10.9,46.7,16.3,70.1c0.7,3.1,3.3,5.9,5,8.8c1.8-2.9,4.6-5.6,5.2-8.7c1.8-9.5,2.6-19.1,4-28.7c0.2-1.5,1.7-2.9,2.6-4.3
				c0.3,1.6,0.9,3.1,0.9,4.7c0.1,7.2-0.1,14.4,0,21.6c0,1.6,0.6,3.3,0.9,4.9c0.9-1.5,2.4-2.8,2.6-4.4c1.4-7.7,2.3-15.5,3.8-23.2
				c0.5-2.7,2.5-5.1,3.8-7.6c0.6,2.5,1.8,4.9,1.8,7.4c0,23.8-0.4,47.7-0.2,71.5c0.1,7.8,1,15.5,2.2,23.2"/>
		</g>
	</g>
	<path fill="#788E92" stroke="#7A98A0" stroke-miterlimit="10" d="M-4416.3,2703.4c-0.4-1.2-0.3-2.7-0.4-4.1
		c-0.3,0.8-0.6,1.5-0.9,2.3c-0.7,1.7-1.3,3.2-2,4.6C-4418.3,2705.6-4418.1,2703.4-4416.3,2703.4z"/>
	<path fill="#788E92" d="M-4380.3,2802.4c-4.4-4.4-11-9.9-13.4-16.9c-6.8,3.5-13.9,6.4-20.6,10c-2.4,1.3-5.8,4.4-5.5,6.1
		c3.4,23.7-4,45.2-13,66.4c-3.9,9.2-6.1,17.8,1.8,26.8c14.1,16.1,26.5,33.8,41.4,49c4.6,4.7,15.9,6.3,22.8,4.4
		c12.6-3.5,22.2-28.5,19.1-41.9c-2.9-12.7-4.9-25.6-7.1-38.5c-2.3-13.5-4.4-27.1-6.7-40.6c-1-1-1.2-3-1.9-3.6
		C-4370.3,2817.4-4374.3,2808.4-4380.3,2802.4z"/>
	<path fill="#CAB9AA" d="M-4332.5,2881.6c-0.1-0.2-0.2-0.3-0.2-0.3S-4332.7,2881.4-4332.5,2881.6c0,0-2.2-5.3-2.8-8.2
		c0.1,0.5,0.4,3.4,0.8,7.6C-4333.4,2881.4-4332.6,2881.7-4332.5,2881.6z"/>
	<path fill="#CAB9AA" d="M-4237,2477.7c-3.5,1.7-7.2,3.1-10.5,5c-5.1,2.9-9.9,6.4-15.2,8.9c-1.3,0.6-4-1.5-6-2.3
		c0.8-1.4,1.6-2.7,2.5-4.1c1.7-2.7,3.4-5.3,5.2-8"/>
	<path fill="#CAB9AA" d="M-4261.1,2477.2c-3.8,0.7-8.1,0.5-11.4,2.2c-6.3,3.3-11.9,7.9-18.1,11.5c-1.6,0.9-4.4,0-6.6-0.1
		c1.2-2.2,1.9-4.9,3.6-6.6c7.4-7.5,12.1-8.8,20.1-15.7c2.1-1.8,10-9.3,12.1-8c11.7,7,3.3-13.2-1.1-19.2
		c-4.7-6.6-10.9-12.2-16.5-18.3c-3.6,5.7-7.1,11.4-10.8,16.9c-2,2.9-5.2,5.3-6.4,8.4c-0.9,2.3-0.5,6,0.9,8.1c2.4,3.5,6,6.2,9.1,9.3
		c-5.1,0-10.2-0.4-15.2,0.2c-3.9,0.5-7.7,3-11.6,3.2c-3.5,0.1-7.2-1.8-10.7-2.8c2.3-2.6,4.4-5.4,7-7.7c3.4-2.9,10.5-6.8,10.1-7.9
		c-3.6-8.7-8.6-16.9-13.1-25.3c-2.6,3.7-5.1,7.5-7.9,11c-1.5,1.9-3.4,4.3-5.4,4.6c-25,3.4-12.4,15.5-5.1,24.6
		c5.8,7.2,13.9,12.5,20.8,18.8c1.6,1.4,2.5,3.6,3.7,5.5c-1.9,1.1-3.9,3.3-5.7,3.1c-4.7-0.5-10.1-0.8-13.8-3.3
		c-10.2-6.9-19.6-15-29.3-22.6c-2.2-1.7-4.4-3.3-6.5-5c-1.1,3.2-3.2,6.3-3.1,9.5c0.3,14.9-6.5,46.6-6.4,48.5
		c0.3,6.8-6.2,28.5-6.3,32.6c-0.6,32.2-1.1,64.4-0.2,96.5c0.5,17.3,4.9,34.5,5.6,51.8c0.9,20.3-2,40.9,0.2,61.1
		c1,9.8,5.2,11.3-1.4,15.5c4,5.9,19.5,26.2,22.4,32.6c2.7,5.9,3.5,12.8,5.2,19.2c4.1,15.7,8.1,31.6,12.7,47.1
		c0.5,1.7,3.8,3.5,5.9,4.4c-0.5-4.2-0.7-7-0.8-7.6v1v-1c0.6,3,2.8,8.2,2.8,8.2c-0.1,0.1-0.9-0.2-2-0.7c2,18.7,7.4,65.1,15.7,66.2
		l53.6-3.7c1.1-1.8,3-3.6,3.1-5.4c0.3-5.3-0.2-10.6-0.3-15.9c-0.1-9.5-1.4-19.2,0.1-28.5c5-32.6,10.8-65.1,16.7-97.6
		c3.2-17.6,7-35.1,10.9-52.5c2.1-9.3,5.2-18.4,7.6-27.6c3.3-12.4,6.3-24.9,9.5-37.4c2.2-8.6,3.9-12.7,4-21.4
		c0.1-15.3-0.5-29.7,1.3-48.7c2.3-24.4,0.9-31.2-2.9-53.6c-3.9-22.6-13.5-44.3-19.8-66.7c-1-3.4-1.4-7-2-10.5"/>
	<path fill="#788E92" d="M-4393.7,2785.4c2.4,7,9,12.5,13.4,16.9c6,6,10,15,17,21c0.7,0.7,0.9,2.7,1.9,3.6
		c-0.9-5.4-1.9-10.8-2.9-16.2"/>
	<path fill="#D49B8D" stroke="#7A98A0" stroke-miterlimit="10" d="M-4302.4,2432.1c-6-8.1-13.6-14-12.7-18.1
		c1.2-5.7,8.8-9.9,13.7-14.8c4.5,6.4,9.7,12.4,12.8,19.4C-4287.9,2420.2-4295.1,2425.1-4302.4,2432.1z"/>
	<path fill="#EEE5D5" stroke="#7A98A0" stroke-miterlimit="10" d="M-4252.8,2364.2c2.1-6.7,2.3-12.3,5.2-15.5
		c4.6-5,10.9-8.4,16.5-12.5c-0.6,5.6-0.9,11.3-1.8,16.8c-0.6,4.2-1.4,8.4-3,12.3c-1.6,4-4.3,7.5-6.6,11.2
		C-4245.9,2372.3-4249.5,2368.1-4252.8,2364.2z"/>
	<path fill="#EEE5D5" stroke="#7A98A0" stroke-miterlimit="10" d="M-4361.8,2354.3c-3.1,5.6-5.1,9.2-7.2,12.8c-3-2.2-6.3-4.1-9-6.6
		c-1.7-1.6-2.8-3.9-3.7-6.1c-2.1-5.8-3.9-11.8-5.9-17.7c1.6,0,3.7-0.8,4.7,0C-4375.6,2342.4-4368.7,2348.4-4361.8,2354.3z"/>
	<g id="XMLID_5_">
		<g>
			<path fill="#717985" d="M761.2-233.4c0.8,2.2,2,4.6,3.6,6.1c2.7,2.5,5.9,4.4,9,6.6c2-3.6,4-7.2,7.2-12.8
				c-7-5.9-13.8-11.9-20.9-17.5c-1-0.8-3.1,0-4.7,0C757.3-245.2,759.1-239.2,761.2-233.4z M734.7,115.5c-0.4-1.2-0.3-2.7-0.4-4.1
				c10-26.8,9.2-53.7,5-81.3c-1.3-8.2,0.2-16.8,0.5-25.2c1-25.5,0.6-51.2,3.7-76.4c1.6-12.5,9.9-24,14.8-36.1
				c2.5-6,5.3-12.2,6.1-18.6c2.3-18.4,3.2-36.9,5.7-55.3c1.9-13.5,1.2-25.5-5.7-38.2c-6.4-11.7-8.9-25.7-11.7-39
				c-0.6-2.7,4.9-7.9,8.7-9.9c2.5-1.3,7.1,0.5,10.4,1.8c20.2,8.1,39.8,19.3,60.8,23.6c13.2,2.7,28.9-3.7,42.8-8
				c20.6-6.3,40.5-14.7,61-21.3c3.1-1,6.7,0,10.4,0.9c-0.6,2-1.4,4.1-1.5,6.1c-0.8,0.8-1.3,1.7-1.6,2.6c-4.3,15-9.3,30-11.2,45.4
				c-2.8,23.3-4.9,46.9-3.9,70.3c0.5,11.5,8.6,61.7,11.8,70.8c15.4,43.6,13.5,89,14.5,134.1c0.2,10-2.1,20.1-2.7,30.2
				c-0.1,2.4,36.1,54.2,38.6,60.5c7.9,19.7,18.3,39,22.5,59.6c2.7,13.1,9.3,46.1,4.9,78.1c-4.7,34.1-19.9,79.8-20.7,81.3
				c-3,5-8,8-11,8c-36,7-70,11-105,15c-50.4,4.8-33.5,8.8-128.7-6.5c-4.8-6.5-32.1-24.1-37-30.6c-7.2-9.6-14.3-19.3-21.5-28.9
				c-1.4-1.9-2.4-4.2-5.8-10.2c-0.1,0.6-0.3,1.2-0.4,1.8c-15.5-18.1-15.3-43.9-10.8-67c9.1-51.6,5.7-39.4,16.1-61.3
				c1.2-2.6,24.8-44.1,26.1-46.6c-0.3-0.1-0.5-0.1-0.8-0.2c1.6-1.8,3-3.6,4.3-5.6c3.1-4.6,5.4-9.5,6.8-14.6c0.5-0.8,0.9-1.6,1.3-2.5
				C732.8,117.7,733,115.5,734.7,115.5z M910.2-234.9c0.8-5.6,1.2-11.2,1.8-16.8c-5.6,4.1-12,7.5-16.5,12.5
				c-2.9,3.2-3.1,8.9-5.2,15.5c3.3,3.9,6.8,8.1,10.4,12.3c2.2-3.7,5-7.2,6.6-11.2C908.8-226.4,909.5-230.7,910.2-234.9z
				 M833.5-155.8c7.3-7,14.5-11.9,13.8-13.4c-3.1-7-8.3-13-12.8-19.4c-4.9,4.9-12.5,9.1-13.7,14.8
				C820-169.8,827.5-163.8,833.5-155.8z"/>
			<path fill="#717985" d="M847.4-169.2c0.7,1.5-6.5,6.5-13.8,13.4c-6-8.1-13.5-14-12.7-18.1c1.2-5.7,8.8-9.9,13.7-14.8
				C839-182.3,844.3-176.2,847.4-169.2z"/>
		</g>
		<g>
			<path fill="none" stroke="#7A98A0" stroke-miterlimit="10" d="M716.1,353.4c4.8,6.5,32.2,24.1,37,30.6
				c95.2,15.3,78.3,11.2,128.7,6.5c35-4,69-8,105-15c3,0,8-3,11-8c0.8-1.6,16-47.2,20.7-81.3c4.4-32.1-2.2-65-4.9-78.1
				c-4.2-20.5-14.6-39.8-22.5-59.6c-2.5-6.2-38.8-58-38.6-60.5c0.6-10.1,2.9-20.2,2.7-30.2c-1-45.1,0.9-90.5-14.5-134.1
				c-3.2-9.1-11.3-59.3-11.8-70.8c-1-23.3,1.1-47,3.9-70.3c1.9-15.4,6.8-30.4,11.2-45.4c0.3-1,0.9-1.8,1.6-2.6
				c0.1-2,0.9-4.1,1.5-6.1c-3.7-0.9-7.3-1.8-10.4-0.9c-20.5,6.6-40.4,15-61,21.3c-14,4.3-29.6,10.7-42.8,8
				c-21-4.3-40.5-15.5-60.8-23.6c-3.3-1.3-8-3.2-10.4-1.8c-3.8,2-9.2,7.2-8.7,9.9c2.8,13.3,5.3,27.3,11.7,39
				c6.9,12.7,7.5,24.7,5.7,38.2c-2.5,18.3-3.4,36.9-5.7,55.3c-0.8,6.3-3.6,12.5-6.1,18.6c-4.9,12.1-13.3,23.7-14.8,36.1
				c-3.1,25.2-2.7,50.9-3.7,76.4c-0.3,8.4-1.8,17.1-0.5,25.2c4.2,27.6,5.1,54.5-5,81.3c0.1,1.4,0,2.9,0.4,4.1c-1.7,0-2,2.2-3.3,2.8
				c-0.4,0.9-0.9,1.8-1.3,2.5c-1.4,5-3.7,10-6.8,14.6c-1.3,1.9-2.7,3.8-4.3,5.6c0.3,0.1,0.5,0.2,0.8,0.2c-1.3,2.5-24.8,44-26.1,46.6
				c-10.4,21.9-7,9.7-16.1,61.3c-4.6,23.1-4.8,48.9,10.8,67c0.1-0.5,0.3-1.1,0.4-1.8c3.4,6,4.3,8.3,5.8,10.2
				C701.7,334.2,708.9,343.8,716.1,353.4z"/>
			<path fill="none" stroke="#7A98A0" stroke-miterlimit="10" d="M895.4-239.2c4.6-5,10.9-8.4,16.5-12.5c-0.6,5.6-0.9,11.3-1.8,16.8
				c-0.6,4.2-1.4,8.4-3,12.3c-1.6,4-4.3,7.5-6.6,11.2c-3.6-4.2-7.1-8.4-10.4-12.3C892.3-230.4,892.5-236,895.4-239.2z"/>
			<path fill="none" stroke="#7A98A0" stroke-miterlimit="10" d="M820.9-173.9c1.2-5.7,8.8-9.9,13.7-14.8
				c4.5,6.4,9.7,12.4,12.8,19.4c0.7,1.5-6.5,6.5-13.8,13.4C827.5-163.8,820-169.8,820.9-173.9z"/>
			<path fill="none" stroke="#7A98A0" stroke-miterlimit="10" d="M755.4-251.1c1.6,0,3.7-0.8,4.7,0c7.1,5.7,14,11.6,20.9,17.5
				c-3.1,5.6-5.1,9.2-7.2,12.8c-3-2.1-6.3-4.1-9-6.6c-1.7-1.6-2.8-3.9-3.6-6.1C759.1-239.2,757.3-245.2,755.4-251.1z"/>
		</g>
	</g>
	<path fill="#788E92" stroke="#7A98A0" stroke-miterlimit="10" d="M726.6,115.5c-0.4-1.2-0.3-2.7-0.4-4.1c-0.3,0.8-0.6,1.5-0.9,2.3
		c-0.7,1.7-1.3,3.2-2,4.6C724.7,117.7,724.9,115.5,726.6,115.5z"/>
	<path fill="#CAB9AA" d="M810.4,293.7c-0.1-0.2-0.2-0.3-0.2-0.3S810.3,293.5,810.4,293.7c0,0-2.2-5.3-2.8-8.2
		c0.1,0.5,0.4,3.4,0.8,7.6C809.5,293.5,810.4,293.8,810.4,293.7z"/>
	<path fill="#CAB9AA" d="M906-110.1c-3.5,1.7-7.2,3.1-10.5,5c-5.1,2.9-9.9,6.4-15.2,8.9c-1.3,0.6-4-1.5-6-2.3
		c0.8-1.4,1.6-2.7,2.5-4.1c1.7-2.7,3.4-5.3,5.2-8"/>
	<path fill="#CAB9AA" d="M929.3,69.3c0.1-15.3-0.5-29.7,1.3-48.7c2.3-24.4,0.9-31.2-2.9-53.6c-3.9-22.6-13.5-44.3-19.8-66.7
		c-1-3.4-1.4-7-2-10.5l-24.1-0.5c-3.8,0.7-8.1,0.5-11.4,2.2c-6.3,3.3-11.9,7.9-18.1,11.5c-1.6,0.9-4.4,0-6.6-0.1
		c1.2-2.2,1.9-4.9,3.6-6.6c7.4-7.5,12.1-8.8,20.1-15.7c2.1-1.8,10-9.3,12.1-8c11.7,7,3.3-13.2-1.1-19.2
		c-4.7-6.6-10.9-12.2-16.5-18.3c-3.6,5.7-7.1,11.4-10.8,16.9c-2,2.9-5.2,5.3-6.4,8.4c-0.9,2.3-0.5,6,0.9,8.1c2.4,3.5,6,6.2,9.1,9.3
		c-5.1,0-10.2-0.4-15.2,0.2c-3.9,0.5-7.7,3-11.6,3.2c-3.5,0.1-7.2-1.8-10.7-2.8c2.3-2.6,4.4-5.4,7-7.7c3.4-2.9,10.5-6.8,10.1-7.9
		c-3.6-8.7-8.6-16.9-13.1-25.3c-2.6,3.7-5.1,7.5-7.9,11c-1.5,1.9-3.4,4.3-5.4,4.6c-25,3.4-12.4,15.5-5.1,24.6
		c5.8,7.2,13.9,12.5,20.8,18.8c1.6,1.4,2.5,3.6,3.7,5.5c-1.9,1.1-3.9,3.3-5.7,3.1c-4.7-0.5-10.1-0.8-13.8-3.3
		c-10.2-6.9-19.6-15-29.3-22.6c-2.2-1.7-4.4-3.3-6.5-5c-1.1,3.2-3.2,6.3-3.1,9.5c0.3,14.9-6.5,46.6-6.4,48.5
		c0.3,6.8-6.2,28.5-6.3,32.6c-0.6,32.2-1.1,64.4-0.2,96.5c0.5,17.3,4.9,34.5,5.6,51.8c0.9,20.3-2,40.9,0.2,61.1
		c1,9.8,5.2,11.3-1.4,15.5c4,5.9,19.5,26.2,22.5,32.6c2.7,5.9,3.5,12.8,5.2,19.2c4.1,15.7,8.1,31.6,12.7,47.1
		c0.5,1.7,3.8,3.5,5.9,4.4c-0.5-4.2-0.7-7-0.8-7.6v1v-1c0.6,3,2.8,8.2,2.8,8.2c-0.1,0.1-0.9-0.2-2-0.7c2,18.7,7.4,65.1,15.7,66.2
		l53.6-3.7c1.1-1.8,3-3.6,3.1-5.4c0.3-5.3-0.2-10.6-0.3-15.9c-0.1-9.5-1.4-19.2,0.1-28.5c5-32.6,10.8-65.1,16.7-97.6
		c3.2-17.6,7-35.1,10.9-52.5c2.1-9.3,5.2-18.4,7.6-27.6c1.9-7.1,3.7-14.1,5.4-21.2c-0.6,0.4-1.3,0.9-1.9,1.3
		c0.6-0.5,1.2-0.9,1.9-1.3c1.4-5.4,2.7-10.8,4.1-16.2C927.6,82.1,929.3,78,929.3,69.3z"/>
	<path fill="#788E92" d="M749.2,197.5c2.4,7,9,12.5,13.4,16.9c6,6,10,15,17,21c0.7,0.7,0.9,2.7,1.9,3.6c-0.9-5.4-1.9-10.8-2.9-16.2"
		/>
	<path fill="#D49B8D" stroke="#7A98A0" stroke-miterlimit="10" d="M840.5-155.8c-6-8.1-13.6-14-12.7-18.1c1.2-5.7,8.8-9.9,13.7-14.8
		c4.5,6.4,9.7,12.4,12.8,19.4C855.1-167.7,847.9-162.7,840.5-155.8z"/>
	<path fill="#EEE5D5" stroke="#7A98A0" stroke-miterlimit="10" d="M890.2-223.7c2.1-6.7,2.3-12.3,5.2-15.5c4.6-5,10.9-8.4,16.5-12.5
		c-0.6,5.6-0.9,11.3-1.8,16.8c-0.6,4.2-1.4,8.4-3,12.3c-1.6,4-4.3,7.5-6.6,11.2C897.1-215.6,893.5-219.8,890.2-223.7z"/>
	<path fill="#EEE5D5" stroke="#7A98A0" stroke-miterlimit="10" d="M781.2-233.6c-3.1,5.6-5.1,9.2-7.2,12.8c-3-2.2-6.3-4.1-9-6.6
		c-1.7-1.6-2.8-3.9-3.7-6.1c-2.1-5.8-3.9-11.8-5.9-17.7c1.6,0,3.7-0.8,4.7,0C767.4-245.4,774.2-239.5,781.2-233.6z"/>
	<g id="tbLA5J.tif">
		
			<image overflow="visible" width="149" height="226" id="Layer_0_7_" xlink:href="57AE35C98E9362E7.png"  transform="matrix(1 0 0 1 -5264.6099 2242.2058)">
		</image>
	</g>
	<path fill="#788E92" d="M1422.8,348c26.2-34.1,19.6-72.8,21.9-95.5c1.8-18.7-4-70.7-5.9-79c-0.1-0.6-7.4-23.9-7.7-24.5
		c-3.6-7.7-31.8-60.5-46-70.4c-4.7-3.3-10.5-4-14,0.5l-3.3,4.2c-2.4,3-2.7,7.1-0.7,10.4c6.9,11.8,23.3,39.9,30.5,52.2
		c9.2,15.8,14,71.1,16.3,104.7c1.5,21.9-12.5,72-13.2,72.6c-1.7,1.6-9.5,47,4.8,35.8C1408.5,362,1421.6,349.6,1422.8,348z"/>
</g>
<g id="Layer_9">
</g>
<g id="Layer_7">
</g>
<g id="Layer_2">
	<g>
		<rect x="-6909.2" y="1089.8" fill="#F9DCC4" width="837.7" height="1385.7"/>
		<path fill="#4B3246" d="M-5656,1990.9c-3.2-0.1-6.3-3.9-9.4-5.9"/>
		<path fill="#4B3246" d="M-5899.8,1707.1c-3.3,0.8-6.8,2.6-10,2.1c-6.8-1-13.4-3.1-20-4.7c7.7,0.2,15.4,0.4,23.1,0.6
			c2.1,0.1,4.1,0.1,6.2,0.1C-5900.2,1705.9-5900,1706.5-5899.8,1707.1z"/>
		<path fill="#4B3246" d="M-6071.5,770.3"/>
		<path fill="#4B3246" d="M-6092,751.5"/>
		<path fill="#4B3246" d="M-6318.4,648.3c0.7-0.4,1.4-0.8,1.9-1.1"/>
		<path fill="#4B3246" d="M-6127.8,729.6c6.1,3.4,11.5,6.4,16.9,9.5"/>
		<path fill="#4B3246" d="M-5521.5,2435.5"/>
		<path fill="#4B3246" d="M-5538.3,877.7"/>
		<path fill="#4B3246" d="M-5933.4,2119.9c-4.4-1.9-10.6-4.7-16.8-7.4c2.6-2.1,5.5-6.3,7.9-6c7.4,0.8,14.6,3.2,21.9,5.1
			C-5923.4,2113.6-5926.6,2115.6-5933.4,2119.9z"/>
		<path fill="#4B3246" d="M-5907.5,2094.9c-6.9,1.9-13.7,4.4-20.7,5.5c-2.9,0.4-6.2-2.1-9.3-3.3c2-2.2,3.6-5.6,6.1-6.4
			c3.9-1.3,8.5-1.8,12.5-1.1C-5915,2090.3-5911.3,2093.1-5907.5,2094.9C-5907.5,2094.9-5907.5,2094.9-5907.5,2094.9z"/>
		<path fill="#4B3246" d="M-6011.6,2042.2c-0.7-5.7-1.4-11.4-2-17.1c6.7,1.1,13.4,2.1,20,3.4c0.3,0.1,0.8,2.6,0.3,3.4
			c-0.8,1.3-2.3,2.5-3.7,3.3c-4.9,2.5-9.9,4.9-14.8,7.3C-6011.8,2042.4-6011.6,2042.2-6011.6,2042.2z"/>
		<path fill="#4B3246" d="M-5992.5,970.6c6.4,1.3,12.3,2.4,18.1,3.6c-5.3,2.2-10.4,6-15.8,6.2c-5,0.2-10.2-3.2-15.4-5.1
			C-6001.2,973.8-5997,972.2-5992.5,970.6z"/>
		<path fill="#4B3246" d="M-6007.7,1885c5.7,3.1,10.3,5.6,14.9,8.2c-1.5,1.5-3.2,4.3-4.4,4.1c-7.4-1.1-14.8-3-22.2-4.5
			C-6016,1890.5-6012.5,1888.2-6007.7,1885z"/>
		<path fill="#4B3246" d="M-5906.8,1871.8c-3.6,1.7-7.1,3.9-10.9,4.8c-3.2,0.7-6.8-0.2-10.2-0.4c0.8-3.3,1.7-6.7,2.5-10
			c6.1,1.9,12.2,3.9,18.3,5.8C-5907,1872.1-5906.8,1871.8-5906.8,1871.8z"/>
		<path fill="#4B3246" d="M-5980.8,2164.1c-6.6-3.1-12.1-5.6-17.5-8.1c1.7-0.8,3.7-2.6,5.2-2.3c7,1.3,13.9,3.3,20.9,5
			C-5974.9,2160.3-5977.5,2161.9-5980.8,2164.1z"/>
		<path fill="#4B3246" d="M-6012.7,1916.2c-4,0.5-7.9,1-11.9,1.5c-3.6,0.4-7.3,0.7-10.9,1.1c0.4-1.8,0.3-4.8,1.2-5.2
			c4-1.5,8.3-2.7,12.6-3.1c3.1-0.3,6.5,0.4,9.5,1.3c3.6,1.1,7,2.9,10.4,4.5c-3.6,0.3-7.2,0.6-10.8,0.9
			C-6012.6,1916.9-6012.6,1916.6-6012.7,1916.2z"/>
		<path fill="#4B3246" d="M-5924.5,1885.1c1.8,4.6,4,7.7,3.7,10.6c-0.1,1.6-4.4,4.3-6.6,4.1c-4.9-0.4-9.8-2.2-14.7-3.5
			C-5936.7,1892.9-5931.4,1889.5-5924.5,1885.1z"/>
		<path fill="#4B3246" d="M-5917.1,1617.5c-3.3,2.1-7.2,6.4-9.7,5.7c-3.6-1-6.3-5.6-9.3-8.7c3.5,0.5,7,1,10.5,1.5
			c2.8,0.5,5.6,1.1,8.5,1.6C-5917.1,1617.7-5917.1,1617.5-5917.1,1617.5z"/>
		<path fill="#4B3246" d="M-5962.8,980.4c-2.9-2.6-5.5-4.6-7.5-7c-0.2-0.3,2.5-4.2,3.2-4c6.1,1.5,12.1,3.6,18.1,5.6
			C-5952.9,976.5-5956.9,978-5962.8,980.4z"/>
		<path fill="#4B3246" d="M-5996.1,1360.3c-7.5-0.9-13.1-1.6-18.7-2.3c4.4-2.3,8.7-5.5,13.4-6.5c2.7-0.6,6.2,2.2,9.3,3.5
			C-5993.5,1357.1-5995.1,1359-5996.1,1360.3z"/>
		<path fill="#4B3246" d="M-5915,2041.9c1.7,2.5,3.6,5.1,3.5,5.2c-3.9,3.1-7.7,6.5-12.2,8.7c-1.4,0.7-4.5-1.9-6.8-3
			C-5925.6,2049.3-5920.8,2046-5915,2041.9z"/>
		<path fill="#4B3246" d="M-6014,1992.6c2.5,2.3,5.9,4.3,5.6,5.3c-1.2,3.8-3.5,7.2-5.4,10.7c-3.2-2.8-6.3-5.6-9.5-8.4
			C-6020.4,1997.9-6017.6,1995.6-6014,1992.6z"/>
		<path fill="#4B3246" d="M-5959.1,2128.9c5.6,1.9,9.5,3.2,13.4,4.4c-2,1.2-3.9,3.3-5.9,3.4c-6.5,0.1-12.9-0.5-19.4-0.8
			C-5966.9,2133.5-5962.8,2131.1-5959.1,2128.9z"/>
		<path fill="#4B3246" d="M-5964.2,2316.8c-1.6-1-4.9-2.9-8.2-4.9c3.4-1.7,7-5.2,10.1-4.8c4.6,0.5,8.8,3.8,13.2,6
			C-5953.6,2314.2-5958.2,2315.3-5964.2,2316.8z"/>
		<path fill="#4B3246" d="M-5935.8,2075.2c-2.9-1.6-5.3-2.7-5.2-2.8c1.4-3.6,3.1-7.1,4.8-10.6c2.8,2.1,5.5,4.3,8.3,6.4
			C-5930.6,2070.5-5933.3,2072.9-5935.8,2075.2z"/>
		<path fill="#4B3246" d="M-5902.8,1788.7c-9,2-13.8,4.2-18.4,3.7c-3.1-0.3-5.8-4.4-8.7-6.7c0.9-0.8,1.9-2.3,2.6-2.2
			C-5920.6,1784.7-5913.9,1786.3-5902.8,1788.7z"/>
		<path fill="#4B3246" d="M-5969.4,2049.1c4.8,0.5,10.3,1,15.9,1.5c-3.4,1.5-6.9,4-10.3,4.1c-4.2,0.1-8.5-2-12.7-3.1
			C-5974.6,2050.9-5972.6,2050.2-5969.4,2049.1z"/>
		<path fill="#4B3246" d="M-6011.8,2042.4c1.7,2.7,3.4,5.5,5.1,8.2c-2.7,0.5-5.9,2-8,1.1c-3.3-1.5-6-4.6-8.9-7.1
			c2.7,0.5,5.5,1.6,8.2,1.3c1.4-0.1,2.6-2.5,3.9-3.8C-6011.6,2042.2-6011.8,2042.4-6011.8,2042.4z"/>
		<path fill="#4B3246" d="M-5950,1313.5c-3.9,4.3-7.1,7.9-10.4,11.5c-1.4-1.9-4.3-4.9-4-5.4c2.2-2.9,4.9-5.7,8-7.3
			C-5954.7,1311.4-5951.8,1313.1-5950,1313.5z"/>
		<path fill="#4B3246" d="M-5916,2023.9c-3.3,2.8-4.9,4.7-6.8,5.7c-0.7,0.4-3.5-1.2-3.5-1.6c0.6-4.6,1.5-9.2,2.3-13.7
			C-5921.7,2017-5919.4,2019.8-5916,2023.9z"/>
		<path fill="#4B3246" d="M-5932.2,1032.5c-3.4,2.1-6.5,4.6-6.9,4.2c-2.1-2-5.4-5.3-4.8-7.1c0.8-2.6,4.5-4.4,6.9-6.5
			C-5935.8,1025.6-5934.6,1027.9-5932.2,1032.5z"/>
		<path fill="#4B3246" d="M-5931,1774.1c-3.1-2.6-5.1-4.3-7.2-6c3.1-2.3,6.1-4.5,9.2-6.8c1.5,2.4,4,4.7,4.3,7.2
			C-5924.6,1769.9-5928.2,1771.7-5931,1774.1z"/>
		<path fill="#4B3246" d="M-5976.6,2321.8c-2.8-2.4-6.1-5.2-9.5-8.1c1.1-1.1,3-3.3,3.3-3.1c4.5,2.9,8.8,6.1,13.1,9.2
			C-5971.3,2320.3-5972.9,2320.7-5976.6,2321.8z"/>
		<path fill="#4B3246" d="M-5967.1,1351.7c2.6,1.6,4.3,2.6,5.9,3.6c-2.7,1.7-5.3,3.9-8.2,4.8c-1.2,0.4-3.2-2.1-4.9-3.2
			C-5972.2,1355.3-5970,1353.8-5967.1,1351.7z"/>
		<path fill="#4B3246" d="M-6027.5,1892.9c-2.6,1.7-4.2,3.6-5.3,3.3c-3.1-0.7-6-2.4-9-3.6c2.5-1.9,4.8-4.4,7.6-5.3
			C-6032.9,1886.9-6030.6,1890.2-6027.5,1892.9z"/>
		<path fill="#4B3246" d="M-5915.7,1978c-5.9,7.1-7.3,8.8-8.7,10.5c-1.8-4.2-3.8-8.4-5.3-12.7c-0.2-0.5,1.9-2.5,2.4-2.4
			C-5923.6,1974.6-5920,1976.2-5915.7,1978z"/>
		<path fill="#4B3246" d="M-5960.5,1826.3c4,1.3,7.4,2.3,10.8,3.4c-2.2,1.1-4.4,3.1-6.5,3c-3.3-0.2-6.6-1.9-9.8-3
			C-5964.3,1828.6-5962.5,1827.5-5960.5,1826.3z"/>
		<path fill="#CAB9AA" d="M-7081.9,698.7c0,0-0.1,0-0.1,0c0,0.1,0,0.1-0.1,0.2L-7081.9,698.7z"/>
		<path fill="#4B3246" d="M-6880.1,598.7c0.1-0.1,0.1-0.1,0.2-0.2c0,0-0.1,0-0.1,0C-6880,598.6-6880,598.6-6880.1,598.7z"/>
		<path fill="#4B3246" d="M-7094.4,735.8"/>
		<path fill="#4B3246" d="M-7073.8,724.8c-2.7-8.7-5.4-17.4-8-26.1"/>
		<path fill="#4B3246" d="M-7036.2,684"/>
		<path fill="#4B3246" d="M-7026.1,704.3"/>
		<path fill="#4B3246" d="M-7038.6,2284.8c2.2,0,5.1-0.8,7.4,0.1c3.6,1.4,6.7,4,10,6c-3.5,1.8-6.9,3.8-10.6,5.1
			C-7032.1,2296.2-7033.9,2292.6-7038.6,2284.8z"/>
		<path fill="#4B3246" d="M-6394.1,872.4c5.8,3.1,11.1,5.8,16.4,8.6c-1.1,0.8-2.6,2.6-3.3,2.3c-5.6-2.1-11.1-4.6-16.6-6.9
			C-6396.6,875.3-6395.6,874.1-6394.1,872.4z"/>
		<path fill="#4B3246" d="M-6621.8,864.6c-3.5-1.6-6.9-3.1-10.2-4.6c3.6-0.7,7.2-2.1,10.8-2c2.9,0.1,5.8,1.8,8.7,2.8
			C-6615.4,862-6618.3,863.2-6621.8,864.6z"/>
		<path fill="#4B3246" d="M-5873.4,2283.1"/>
		<path fill="#4B3246" d="M-5842.6,2292.4"/>
		<path fill="#4B3246" d="M-5871.4,2263.4c-2.4,0.1-4.9-2.9-7.4-4.6"/>
		<path fill="#EEE5D5" d="M-6793.5,1146.6h595.4c26.4,0,48,21.6,48,48v1281h-691.4v-1281
			C-6841.5,1168.2-6819.9,1146.6-6793.5,1146.6z"/>
		<path fill="#C56C76" d="M-6153.7,1194.4h-691.4l0,0c0-26.3,21.5-47.8,47.8-47.8h595.8C-6175.2,1146.6-6153.7,1168.1-6153.7,1194.4
			L-6153.7,1194.4z"/>
		<path fill="none" d="M-7095,1335.5c1.7-12.9,5.1-25.5,10-37.5c5.9-0.3,8.8-5.7,9.3-11.6"/>
		
			<line fill="none" stroke="#788E92" stroke-width="20" stroke-miterlimit="10" x1="-6909.2" y1="1081.2" x2="-6084.1" y2="1081.2"/>
		<pattern  id="SVGID_3_" xlink:href="#New_Pattern" patternTransform="matrix(0.9371 0 0 0.9371 59.1246 -328.7266)">
		</pattern>
		<path fill="url(#SVGID_3_)" d="M-5894.1,969.4c2.6-5.9,2.7-11.7-1.2-15.9C-5980.1,864-6253,622-6511.5,622
			c-249.6,0-492.2,231.7-582.2,328.1h-11.5v13c-3.8,6.2-3.3,13.5,0,19.2v1568h196V991.4h837.5v1359.1h187.7V969.4H-5894.1z"/>
		<rect x="-7107.8" y="664" fill="#D49B8D" width="1212.7" height="420.8"/>
		<polygon fill="#C56C76" stroke="#C56C76" stroke-miterlimit="10" points="-6909.2,1089.8 -6967,991.4 -6023.2,991.4 
			-6071.5,1089.8 		"/>
		<g id="XMLID_3_">
			<g>
				<path fill="#C56C76" d="M-5920.5,883.4c0,0-280.2-283.6-584.1-283.6c-303.9,0-573.2,294.1-573.2,294.1l-296.3-14.1l0.1-60.8
					l280,3.4c0,0,221.8-273.1,591.1-275.6c352.9-2.3,615.6,282.4,615.6,282.4h267.9V877L-5920.5,883.4z"/>
			</g>
			<g>
			</g>
		</g>
		<path fill="#F9DCC4" d="M-6967,992.6h943.8c0,0-238.4-222.4-476.4-222.4C-6737.6,770.3-6967,992.6-6967,992.6z"/>
		<polygon fill="#FDF0D9" points="-6490.3,970.6 -6510.5,975.5 -6538.8,803.4 -6460.1,803.4 		"/>
		<polygon fill="#FDF0D9" points="-6440.7,969.2 -6461.2,966.3 -6434.2,812.5 -6360.4,839.9 		"/>
		<polygon fill="#FDF0D9" points="-6554.6,966.6 -6573.1,975.7 -6637.7,832.2 -6561.3,813.3 		"/>
		<polyline fill="#F9DCC4" points="-5902.6,2565.7 -5494.9,2581.3 -5535.3,2408.4 -5606.6,2368.8 -5608.5,2114.7 -5655.8,2048.9 
			-5670.3,1157 -5637.6,1123.6 -5668,1091.9 -5675.1,948.6 -5916.3,948.6 		"/>
		<rect x="-5846.8" y="991.1" fill="#FDF0D9" width="127.1" height="86.8"/>
		<rect x="-5895.2" y="1091.9" fill="#FDF0D9" width="223.9" height="62.3"/>
		<rect x="-5835.7" y="1419.7" fill="#FDF0D9" width="105" height="354.8"/>
		<circle fill="#FDF0D9" cx="-5783.3" cy="1254.6" r="45"/>
		<polygon fill="#FDF0D9" points="-5651.1,2048.9 -5603.8,2114.7 -5899.8,2101.2 -5898.9,2036.5 		"/>
		
			<line fill="#D49B8D" stroke="#D49B8D" stroke-width="40" stroke-miterlimit="10" x1="-6495.8" y1="1194.1" x2="-6495.8" y2="2475.6"/>
		<path fill="#C56C76" d="M-7374.2,878.9h277.2c0,0,285.3-286.5,592.3-286.5S-5905.2,876-5905.2,876h285.7l-55.6,72.6h-241.2
			c0,0-327.4-284.6-586.4-284.6c-259,0-584.5,286.1-584.5,286.1l-238.6-1.2L-7374.2,878.9z"/>
		<path fill="#F9DCC4" d="M-6238.3,543.8c-3.2-2.6-6.6-4.7-10.3-6.4c-1.1-1.2-2.3-2.4-3.5-3.6c2.2-1.6,3.1-5,0.1-7.2
			c-0.6-0.4-1.1-0.8-1.7-1.1c-2-1.5-3.3-3.3-4.2-6c-1.9-5.5-9.9-2.2-8.8,3.1c-1.8,0.2-3.5,0.6-5.3,1.3c-3.8,1.4-3.6,7.2,0.1,8.6
			c0.2,0.1,0.4,0.2,0.6,0.2c-5.6,0.2-11.3,1.3-16.7,3.3c-2,0.8-3.1,3.2-2.7,5.3c-0.2,0-0.3,0-0.5-0.1c0-1.7-0.9-3.3-2.9-3.8
			c-6.8-1.9-13.6-3.8-20.4-5.5c1.3-2.3,0.7-5.8-2.1-6.9c-19.5-7.4-39.5-13.4-59.8-17.8c-0.6-0.5-1.3-0.8-2.1-0.9
			c-2.1-0.3-4.2-0.6-6.3-0.8c-14.1-2.8-28.4-4.8-42.8-6.1c-6-0.5-7.1,8.8-1.1,9.3c1.1,0.1,2.1,0.2,3.2,0.3c-3.5,1-7,2.1-10.4,3.4
			c-1.9,0.1-3.9,0.1-5.8,0.3c-6,0.4-4.6,9.7,1.4,9.3c0.3,0,0.5,0,0.8,0c0.2,0.1,0.5,0.2,0.8,0.3c0.8,0.2,1.5,0.4,2.3,0.7
			c-2.8,2.5-2.5,8.1,2.2,8.1h26.2c1.1,0,2-0.3,2.7-0.8c6,1.1,12.1,2,18.2,2.8c25.4,13.7,52.8,23.3,81.3,28.4
			c7.4,2.5,15.7,3.5,21.8-1.4c8.1-0.4,16.2-1.5,24.2-3.2c1.3-0.3,2.4-1.2,3.1-2.4c5.5-0.3,10.9-1.1,16.3-2.3
			C-6236.5,551.3-6235.1,546.4-6238.3,543.8z M-6274.9,542.3c2.2-0.3,4.3-0.4,6.5-0.3C-6270.5,542.1-6272.7,542.2-6274.9,542.3z
			 M-6289.9,550.8c-4,0-7.9-0.1-11.9-0.4c0.2-0.3,0.4-0.7,0.5-1.1C-6297.6,549.8-6293.8,550.3-6289.9,550.8z M-6358.7,535.2
			c3.7,1.7,7.5,3.3,11.3,4.8c-0.2,0.1-0.4,0.3-0.5,0.5c-4.6-1.7-9.1-3.4-13.5-5.3C-6360.5,535.1-6359.6,535.2-6358.7,535.2z
			 M-6379,516.2c11,2.4,22,5.2,32.8,8.6c-7.3-1.5-14.6-2.8-22-4c-3.1-0.5-4.9,1.8-5,4.3c-1.7-0.1-3.5-0.3-5.2-0.5
			c-2.7-1.3-5.5-2.5-8.4-3.6C-6384.1,519.4-6381.5,517.8-6379,516.2z M-6407.2,514.9c4.5-0.5,9-0.7,13.6-0.6
			c-0.3,0.2-0.6,0.4-0.9,0.6c-1.1,0.6-1.7,1.5-1.9,2.4c-0.5-0.1-0.9-0.1-1.4,0C-6401,516.3-6404.1,515.6-6407.2,514.9z"/>
		<path fill="#F9DCC4" d="M-7049.9,699.5c-3.6-0.5-7.2-0.8-10.7-1.1c1.1-4.1-3.2-8.8-7.1-5.3l-5.1,4.5c-30.3-1.4-60.8,1.9-90.1,10
			c-4,1.1-5.3,7.4-1.7,9c-10.2-0.4-20.4-1.4-30.6-3.2c-5.9-1-7,8.3-1.1,9.3c26.2,4.6,53,4.6,79.2,0.2c0.1,2.3,1.5,4.6,4.1,4.7
			c11.5,0.1,22.1-3,31.7-9.2c-1.4,3.1-2.8,6.1-4.2,9.3c-1.6,3.8,2.5,7.7,6.2,6.1c9-3.9,14.3-13.7,12.5-23.3l17.2-1.5
			C-7044.4,708.3-7044.8,700.2-7049.9,699.5z"/>
		<path fill="#F9DCC4" d="M-6209.8,499.7c-3.7-1.7-7.5-3.3-11.2-5c-0.1-1-0.6-2-1.6-2.9c-8.6-7.7-18.7-13.4-29.6-16.8
			c-2.9-0.9-5.2,0.9-6.1,3.1l-19.3-8.6c-5.5-2.5-9,6.2-3.5,8.7l67.8,30.1C-6207.8,510.8-6204.3,502.1-6209.8,499.7z"/>
		<path fill="#F9DCC4" d="M-6239.4,557.1c-4.7-0.5-6.4,5.1-4,7.9c-4.2,0.7-6,7.3-1.2,8.9c4.1,1.4,8.2,2.7,12.3,4.1
			c2.9,1,6-0.6,6.4-3.8C-6224.8,565.8-6231,558-6239.4,557.1z"/>
		<path fill="#F9DCC4" d="M-6099.6,636.9c1.5,0,2.9,0,4.4-0.1c1.2,1.6,2.3,3.4,3.1,5.2C-6094.6,640.3-6097.1,638.6-6099.6,636.9z
			 M-6061,620.5c-1.5,0.6-3.1,1.1-4.7,1.6c-1.5-1.8-2.8-3.8-3-5.6C-6065.8,617.2-6063.2,618.5-6061,620.5z M-6049.9,652.5
			L-6049.9,652.5c-1-0.7-2-1-3-0.9c-6.9-2-13.8-4.1-20.6-6.1c-0.8-0.2-1.6-0.3-2.3-0.1l-1.8-2.1c-1.3-1.5-3-2-4.7-1.5
			c-0.6-2-1.5-3.9-2.4-5.7c5.4-0.7,10.7-1.7,15.9-3.1c3.7,3.8,7.8,7.2,10.5,9.9c3.5,3.5,7,6.9,10.5,10.4
			C-6048.6,652.9-6049.2,652.7-6049.9,652.5z M-6051.5,628.5c-2.4,0-4.2,1.3-4.8,3.1c-0.7-0.7-1.4-1.4-2.1-2.1
			c2.2-0.8,4.4-1.7,6.6-2.6c0.8-0.4,1.5-1,2-1.8c1.2,1.3,2.3,2.5,3.5,3.9C-6048,628.7-6049.8,628.6-6051.5,628.5z M-5820.2,743.1
			c-0.4-0.3-0.7-0.7-1.1-1c0.8,0,1.5,0.1,2.3,0.1C-5819.5,742.5-5819.9,742.8-5820.2,743.1z M-5686.1,801.4c-0.2,0.1,0.4,0.9,0.5,2
			c-0.2,0-0.5,0-0.9,0C-5686.8,802.7-5686.9,801.9-5686.1,801.4z M-5746.6,784.6c-0.3,1.5-0.5,3.2-0.4,5.1c0.1,0.8,0.2,1.7,0.3,2.5
			c-6.1-2-12.2-4.3-18.2-7.1C-5758.7,785.3-5752.6,785.1-5746.6,784.6z M-5787.5,727.4c-6.2-1.1-12.3-2.5-18.3-4
			c12,0.2,23.9,1.3,35.7,3.4C-5775.9,727.2-5781.7,727.4-5787.5,727.4z"/>
		<path fill="#F9DCC4" d="M-7374.1,819.1l280,3.4c0,0,274.1-275.6,591.1-275.6s615.6,282.4,615.6,282.4h267.9l34-109.6H-5828
			c0,0-337.7-316.1-689.1-316.1c-351.4,0-635.7,288.9-635.7,288.9h-258.6L-7374.1,819.1z"/>
		<rect x="-7124.3" y="2322.2" fill="#F9DCC4" width="1252.9" height="228.4"/>
		<polyline fill="#F9DCC4" points="-7091.6,2558.6 -7499.3,2574.2 -7458.9,2401.3 -7387.6,2361.7 -7385.7,2107.6 -7338.5,2041.8 
			-7323.9,1149.9 -7356.6,1116.5 -7326.2,1084.8 -7325.2,947.5 -7087.2,950.1 		"/>
		<rect x="-7274.5" y="984" fill="#FDF0D9" width="127.1" height="86.8"/>
		<rect x="-7322.9" y="1084.8" fill="#FDF0D9" width="223.9" height="62.3"/>
		<rect x="-7263.4" y="1412.6" fill="#FDF0D9" width="105" height="354.8"/>
		<circle fill="#FDF0D9" cx="-7211" cy="1247.5" r="45"/>
		<polygon fill="#FDF0D9" points="-7343.2,2041.8 -7390.4,2107.6 -7094.4,2094.1 -7095.3,2029.4 		"/>
		<polygon fill="#FDF0D9" points="-7461.7,2401.3 -7091.6,2379 -7091.6,2330.2 -7390.3,2347.2 		"/>
		<polygon fill="#FDF0D9" points="-5532.5,2408.4 -5902.6,2386.1 -5902.6,2337.3 -5603.9,2354.3 		"/>
	</g>
</g>
<g id="Layer_3">
	<rect x="-6275.2" y="-168.4" fill="#413644" stroke="#5B4C59" stroke-width="7" stroke-miterlimit="10" width="140" height="76"/>
</g>
</svg>
