<?xml version="1.0" encoding="utf-8"?>
<!-- Generator: Adobe Illustrator 18.1.1, SVG Export Plug-In . SVG Version: 6.00 Build 0)  -->
<svg version="1.1" xmlns="http://www.w3.org/2000/svg" xmlns:xlink="http://www.w3.org/1999/xlink" x="0px" y="0px"
	 viewBox="0 0 2204 2396" enable-background="new 0 0 2204 2396" xml:space="preserve">
<pattern  x="704" y="1504" width="139" height="150.8" patternUnits="userSpaceOnUse" id="New_Pattern" viewBox="69.5 -188.5 139 150.8" overflow="visible">
	<g>
		<polygon fill="none" points="69.5,-188.5 208.5,-188.5 208.5,-37.7 69.5,-37.7 		"/>
		<polygon fill="#C56C76" stroke="#D49B8D" stroke-width="7" stroke-miterlimit="10" points="274.5,-3.5 142.5,-3.5 142.5,-71.9 
			274.5,-71.9 		"/>
		<polygon fill="#C56C76" stroke="#D49B8D" stroke-width="7" stroke-miterlimit="10" points="135.5,-3.5 3.5,-3.5 3.5,-71.9 
			135.5,-71.9 		"/>
		<polygon fill="#C56C76" stroke="#D49B8D" stroke-width="7" stroke-miterlimit="10" points="205,-78.9 73,-78.9 73,-147.3 
			205,-147.3 		"/>
		<polygon fill="#C56C76" stroke="#D49B8D" stroke-width="7" stroke-miterlimit="10" points="274.5,-154.3 142.5,-154.3 
			142.5,-222.7 274.5,-222.7 		"/>
		<polygon fill="#C56C76" stroke="#D49B8D" stroke-width="7" stroke-miterlimit="10" points="135.5,-154.3 3.5,-154.3 3.5,-222.7 
			135.5,-222.7 		"/>
	</g>
</pattern>
<pattern  x="704" y="1504" width="147" height="166" patternUnits="userSpaceOnUse" id="New_Pattern_2" viewBox="73.5 -207.5 147 166" overflow="visible">
	<g>
		<polygon fill="none" points="73.5,-207.5 220.5,-207.5 220.5,-41.5 73.5,-41.5 		"/>
		<polygon fill="#8BAFB2" stroke="#7A98A0" stroke-width="7" stroke-miterlimit="10" points="290.5,-3.5 150.5,-3.5 150.5,-79.5 
			290.5,-79.5 		"/>
		<polygon fill="#8BAFB2" stroke="#7A98A0" stroke-width="7" stroke-miterlimit="10" points="143.5,-3.5 3.5,-3.5 3.5,-79.5 
			143.5,-79.5 		"/>
		<polygon fill="#8BAFB2" stroke="#7A98A0" stroke-width="7" stroke-miterlimit="10" points="217,-86.5 77,-86.5 77,-162.5 
			217,-162.5 		"/>
		<polygon fill="#8BAFB2" stroke="#7A98A0" stroke-width="7" stroke-miterlimit="10" points="290.5,-169.5 150.5,-169.5 
			150.5,-245.5 290.5,-245.5 		"/>
		<polygon fill="#8BAFB2" stroke="#7A98A0" stroke-width="7" stroke-miterlimit="10" points="143.5,-169.5 3.5,-169.5 3.5,-245.5 
			143.5,-245.5 		"/>
	</g>
</pattern>
<pattern  x="704" y="1504" width="147" height="166" patternUnits="userSpaceOnUse" id="New_Pattern_4" viewBox="73.5 -207.5 147 166" overflow="visible">
	<g>
		<polygon fill="none" points="73.5,-207.5 220.5,-207.5 220.5,-41.5 73.5,-41.5 		"/>
		<polygon fill="#C24A3D" stroke="#DE6757" stroke-width="7" stroke-miterlimit="10" points="290.5,-3.5 150.5,-3.5 150.5,-79.5 
			290.5,-79.5 		"/>
		<polygon fill="#C24A3D" stroke="#DE6757" stroke-width="7" stroke-miterlimit="10" points="143.5,-3.5 3.5,-3.5 3.5,-79.5 
			143.5,-79.5 		"/>
		<polygon fill="#C24A3D" stroke="#DE6757" stroke-width="7" stroke-miterlimit="10" points="217,-86.5 77,-86.5 77,-162.5 
			217,-162.5 		"/>
		<polygon fill="#C24A3D" stroke="#DE6757" stroke-width="7" stroke-miterlimit="10" points="290.5,-169.5 150.5,-169.5 
			150.5,-245.5 290.5,-245.5 		"/>
		<polygon fill="#C24A3D" stroke="#DE6757" stroke-width="7" stroke-miterlimit="10" points="143.5,-169.5 3.5,-169.5 3.5,-245.5 
			143.5,-245.5 		"/>
	</g>
</pattern>
<pattern  x="704" y="1504" width="147" height="166" patternUnits="userSpaceOnUse" id="New_Pattern_Swatch_7" viewBox="73.5 -207.5 147 166" overflow="visible">
	<g>
		<polygon fill="none" points="73.5,-207.5 220.5,-207.5 220.5,-41.5 73.5,-41.5 		"/>
		<polygon fill="#C24A3D" stroke="#DE6757" stroke-width="7" stroke-miterlimit="10" points="290.5,-3.5 150.5,-3.5 150.5,-79.5 
			290.5,-79.5 		"/>
		<polygon fill="#C24A3D" stroke="#DE6757" stroke-width="7" stroke-miterlimit="10" points="143.5,-3.5 3.5,-3.5 3.5,-79.5 
			143.5,-79.5 		"/>
		<polygon fill="#C24A3D" stroke="#DE6757" stroke-width="7" stroke-miterlimit="10" points="217,-86.5 77,-86.5 77,-162.5 
			217,-162.5 		"/>
		<polygon fill="#C24A3D" stroke="#DE6757" stroke-width="7" stroke-miterlimit="10" points="290.5,-169.5 150.5,-169.5 
			150.5,-245.5 290.5,-245.5 		"/>
		<polygon fill="#C24A3D" stroke="#DE6757" stroke-width="7" stroke-miterlimit="10" points="143.5,-169.5 3.5,-169.5 3.5,-245.5 
			143.5,-245.5 		"/>
	</g>
</pattern>
<g id="Layer_1">
	<g id="HAobQW.tif">
		
			<image overflow="visible" width="177" height="56" id="Layer_0_1_" xlink:href="7601433E75D04304.png"  transform="matrix(2.8342 0 0 1.6071 276.4184 -152)">
		</image>
	</g>
	<g id="_x33_wBwi4.tif">
		
			<image overflow="visible" width="410" height="280" id="Layer_0_2_" xlink:href="7601433E75D04305.png"  transform="matrix(2.6822 0 0 2.6822 -2655.6362 312.4726)">
		</image>
	</g>
	<rect x="2879" y="-61.8" fill="#DE6757" width="893.9" height="1548.4"/>
	<path fill="#4B3246" d="M3325-181.8c0.7-0.4,1.5-0.9,2-1.2"/>
	<path fill="#4B3246" d="M4381.4,1725.2"/>
	<path fill="#4B3246" d="M4021.7-551.9"/>
	<path fill="#CAB9AA" d="M3326.1-128.1c0,0-0.1,0-0.1,0c0,0.1-0.1,0.2-0.1,0.2L3326.1-128.1z"/>
	<path fill="#4B3246" d="M3325.9-234.8c0.1-0.1,0.1-0.2,0.2-0.2c0,0-0.1,0-0.1,0C3326-234.9,3325.9-234.8,3325.9-234.8z"/>
	<path fill="#4B3246" d="M3326-88.5"/>
	<path fill="#4B3246" d="M3330.3-100.2c-2.9-9.3-5.7-18.6-8.6-27.9"/>
	<path fill="#4B3246" d="M3326-143.7"/>
	<path fill="#4B3246" d="M3326-122.1"/>
	<path fill="none" d="M3315.7,200.4c1.8-13.7,5.5-27.2,10.7-40c6.3-0.4,9.4-6,10-12.4"/>
	<linearGradient id="SVGID_1_" gradientUnits="userSpaceOnUse" x1="3003.749" y1="1395.5646" x2="3637.6731" y2="79.1465">
		<stop  offset="0" style="stop-color:#D8AB6C"/>
		<stop  offset="1" style="stop-color:#FFD67E"/>
	</linearGradient>
	<path fill="url(#SVGID_1_)" d="M3005.1-1.2h641.8c26.4,0,48,21.6,48,48v1370.1h-737.8V46.8C2957.1,20.4,2978.7-1.2,3005.1-1.2z"/>
	<path fill="#913433" d="M3694.9,49.8h-737.8v-3c0-26.4,21.6-48,48-48l641.8,0c26.4,0,48,21.6,48,48V49.8z"/>
	<rect x="-3115.9" y="-476" fill="#FFFEF1" width="3004" height="2872"/>
	<g>
		<path fill="#4B3246" d="M4271.3-877.2"/>
		<path fill="#4B3246" d="M3927-768.1c6.2,3.3,11.8,6.2,17.5,9.2c-1.2,0.9-2.8,2.8-3.5,2.5c-6-2.2-11.8-4.9-17.7-7.4
			C3924.4-765.1,3925.5-766.4,3927-768.1z"/>
		<path fill="#4B3246" d="M3684-776.5c-3.8-1.7-7.3-3.3-10.9-4.9c3.9-0.8,7.7-2.2,11.6-2.2c3.1,0.1,6.2,1.9,9.3,3
			C3690.9-779.3,3687.8-778,3684-776.5z"/>
		<path fill="#F9DCC4" d="M3315.7-639.9h1007.1c0,0-254.4-237.3-508.4-237.3S3315.7-639.9,3315.7-639.9z"/>
		<polygon fill="#FDF0D9" points="3824.3,-663.4 3802.8,-658.1 3772.6,-841.8 3856.6,-841.8 		"/>
		<polygon fill="#FDF0D9" points="3877.3,-664.9 3855.4,-668 3884.2,-832.1 3962.9,-802.8 		"/>
		<polygon fill="#FDF0D9" points="3755.8,-667.7 3736,-658 3667.1,-811.1 3748.6,-831.3 		"/>
	</g>
	<rect x="-3115.9" y="-476" fill="url(#New_Pattern_2)" width="3004" height="2872"/>
	<rect x="-3115.9" y="1878.4" fill="url(#New_Pattern)" width="3004" height="268.6"/>
	<g id="_x33_wBwi4.tif_1_">
		
			<image overflow="visible" width="410" height="280" id="Layer_0_4_" xlink:href="7601433E75D04302.png"  transform="matrix(2.6822 0 0 2.6822 4362.6182 312.4726)">
		</image>
	</g>
	<rect x="3902.4" y="-476" fill="#FFFEF1" width="3004" height="2872"/>
	<pattern  id="SVGID_2_" xlink:href="#New_Pattern_4" patternTransform="matrix(1 0 0 1 109.2542 0)">
	</pattern>
	<rect x="3902.4" y="-476" fill="url(#SVGID_2_)" width="3004" height="2872"/>
	<rect x="2749" y="-262.2" fill="#913433" width="1133.4" height="118.5"/>
	<g id="tTWrGk.tif">
		
			<image overflow="visible" width="204" height="41" id="Layer_0_3_" xlink:href="7601433E75D0430D.png"  transform="matrix(4.935 0 0 4.935 2312.8889 -678.334)">
		</image>
	</g>
	<g>
		<path fill="#CAB9AA" d="M3634.9,109.8v1242.1h-617.8V109.8H3634.9 M3692.8,49.8h-733.7c-1.1,0-2.1,0.9-2.1,2.1v1358
			c0,1.1,0.9,2.1,2.1,2.1h733.7c1.1,0,2.1-0.9,2.1-2.1V51.8C3694.9,50.7,3694,49.8,3692.8,49.8L3692.8,49.8z"/>
	</g>
	
		<rect x="2991.1" y="1009.3" fill="none" stroke="#CAB9AA" stroke-width="60" stroke-linecap="square" stroke-miterlimit="10" width="676" height="376"/>
	
		<line fill="none" stroke="#CAB9AA" stroke-width="60" stroke-linecap="square" stroke-miterlimit="10" x1="3315.7" y1="99.7" x2="3315.7" y2="1385.8"/>
	<rect x="2750.3" y="1481.7" fill="#D49B8D" width="1133.4" height="96.2"/>
	<polygon fill="#913433" points="2750.3,1577.9 2822.8,1641 3800.6,1645.4 3883.7,1577.9 	"/>
</g>
<g id="Layer_5">
	<path fill="#FFFFFF" stroke="#000000" stroke-miterlimit="10" d="M6256,4948"/>
	<path fill="#68536F" stroke="#68536F" stroke-width="12" stroke-linecap="square" stroke-miterlimit="10" d="M5181.8,4008.2h-60.4
		v-326.4c0-14,11.4-25.4,25.4-25.4h35.1c14,0,25.4,11.4,25.4,25.4v301C5207.2,3996.9,5195.8,4008.2,5181.8,4008.2z"/>
	
		<polygon fill="#788E92" stroke="#788E92" stroke-width="12" stroke-linecap="round" stroke-linejoin="round" stroke-miterlimit="10" points="
		4873.4,2956.4 5420.1,2956.4 5245.7,2841.4 5056.2,2841.4 	"/>
	<polygon fill="#C0B2A8" stroke="#EEE5D5" stroke-width="20" stroke-miterlimit="10" points="5022.3,3438.3 4873.4,2956.4 
		5420.1,2956.4 5306.4,3438.3 5306.4,3668.3 5022.3,3668.3 	"/>
	
		<line fill="#C0B2A8" stroke="#EEE5D5" stroke-width="20" stroke-miterlimit="10" x1="5022.3" y1="3438.3" x2="5306.4" y2="3438.3"/>
	
		<line fill="#C0B2A8" stroke="#EEE5D5" stroke-width="20" stroke-miterlimit="10" x1="5088.6" y1="3438.3" x2="5088.6" y2="3668.3"/>
	
		<line fill="#C0B2A8" stroke="#EEE5D5" stroke-width="20" stroke-miterlimit="10" x1="5223.9" y1="3438.3" x2="5223.9" y2="3668.3"/>
	
		<line fill="#C0B2A8" stroke="#EEE5D5" stroke-width="20" stroke-miterlimit="10" x1="5223.9" y1="3438.3" x2="5271.3" y2="2956.4"/>
	
		<line fill="#C0B2A8" stroke="#EEE5D5" stroke-width="20" stroke-miterlimit="10" x1="5088.6" y1="3438.3" x2="5024.5" y2="2956.4"/>
	
		<path fill="#788E92" stroke="#788E92" stroke-width="12" stroke-linecap="round" stroke-linejoin="round" stroke-miterlimit="10" d="
		M5223.5,2814.3c0-42-31.1-76.1-79.5-76.1c-43.9,0-79.5,34.1-79.5,76.1c0,42,35.6,76.1,79.5,76.1S5223.5,2856.4,5223.5,2814.3z"/>
	<rect x="5113.3" y="3680.7" fill="#68536F" width="102.1" height="57"/>
	
		<polygon fill="#68536F" stroke="#68536F" stroke-width="12" stroke-linecap="round" stroke-linejoin="round" stroke-miterlimit="10" points="
		5025,6964.2 5317.6,6964.2 5317.6,6078.1 5250,6003.7 5250,3737.7 5074.1,3737.7 5074.1,6010.4 5024.5,6083.4 	"/>
	<path fill="#68536F" stroke="#FFFFFF" stroke-linecap="round" stroke-miterlimit="10" d="M5019.5,6083.4l0.5,880.8h301v-886.1
		l-126.6,34.1c-15.9,4.3-32.5,4.5-48.5,0.8L5019.5,6083.4z"/>
	<ellipse fill="#788E92" cx="5133.2" cy="2800.6" rx="68.3" ry="66.2"/>
	
		<path fill="#788E92" stroke="#788E92" stroke-width="12" stroke-linecap="round" stroke-linejoin="round" stroke-miterlimit="10" d="
		M5074.1,6010.4l-54.6,72.9c164.5,60.5,301.5-5.3,301.5-5.3l-66-67.6H5074.1z"/>
</g>
<g id="Layer_2">
	<g>
		<rect x="690.4" y="886.6" fill="#F9DCC4" width="837.7" height="1385.7"/>
		<path fill="#4B3246" d="M1943.6,1787.7c-3.2-0.1-6.3-3.9-9.4-5.9"/>
		<path fill="#4B3246" d="M1699.8,1503.9c-3.3,0.8-6.8,2.6-10,2.1c-6.8-1-13.4-3.1-20-4.7c7.7,0.2,15.4,0.4,23.1,0.6
			c2.1,0.1,4.1,0.1,6.2,0.1C1699.4,1502.7,1699.6,1503.3,1699.8,1503.9z"/>
		<path fill="#4B3246" d="M1528.1,567.1"/>
		<path fill="#4B3246" d="M1507.6,548.3"/>
		<path fill="#4B3246" d="M1281.2,445.1c0.7-0.4,1.4-0.8,1.9-1.1"/>
		<path fill="#4B3246" d="M1471.8,526.4c6.1,3.4,11.5,6.4,16.9,9.5"/>
		<path fill="#4B3246" d="M2078.1,2232.3"/>
		<path fill="#4B3246" d="M2061.3,674.5"/>
		<path fill="#4B3246" d="M1666.3,1916.7c-4.4-1.9-10.6-4.7-16.8-7.4c2.6-2.1,5.5-6.3,7.9-6c7.4,0.8,14.6,3.2,21.9,5.1
			C1676.2,1910.4,1673.1,1912.4,1666.3,1916.7z"/>
		<path fill="#4B3246" d="M1692.1,1891.7c-6.9,1.9-13.7,4.4-20.7,5.5c-2.9,0.4-6.2-2.1-9.3-3.3c2-2.2,3.6-5.6,6.1-6.4
			c3.9-1.3,8.5-1.8,12.5-1.1C1684.6,1887.1,1688.3,1889.9,1692.1,1891.7C1692.1,1891.7,1692.1,1891.7,1692.1,1891.7z"/>
		<path fill="#4B3246" d="M1588,1839c-0.7-5.7-1.4-11.4-2-17.1c6.7,1.1,13.4,2.1,20,3.4c0.3,0.1,0.8,2.6,0.3,3.4
			c-0.8,1.3-2.3,2.5-3.7,3.3c-4.9,2.5-9.9,4.9-14.8,7.3C1587.8,1839.2,1588,1839,1588,1839z"/>
		<path fill="#4B3246" d="M1607.1,767.4c6.4,1.3,12.3,2.4,18.1,3.6c-5.3,2.2-10.4,6-15.8,6.2c-5,0.2-10.2-3.2-15.4-5.1
			C1598.4,770.6,1602.7,769,1607.1,767.4z"/>
		<path fill="#4B3246" d="M1591.9,1681.8c5.7,3.1,10.3,5.6,14.9,8.2c-1.5,1.5-3.2,4.3-4.4,4.1c-7.4-1.1-14.8-3-22.2-4.5
			C1583.7,1687.3,1587.1,1685,1591.9,1681.8z"/>
		<path fill="#4B3246" d="M1692.8,1668.6c-3.6,1.7-7.1,3.9-10.9,4.8c-3.2,0.7-6.8-0.2-10.2-0.4c0.8-3.3,1.7-6.7,2.5-10
			c6.1,1.9,12.2,3.9,18.3,5.8C1692.6,1668.9,1692.8,1668.6,1692.8,1668.6z"/>
		<path fill="#4B3246" d="M1618.8,1960.9c-6.6-3.1-12.1-5.6-17.5-8.1c1.7-0.8,3.7-2.6,5.2-2.3c7,1.3,13.9,3.3,20.9,5
			C1624.7,1957.1,1622.1,1958.7,1618.8,1960.9z"/>
		<path fill="#4B3246" d="M1586.9,1713c-4,0.5-7.9,1-11.9,1.5c-3.6,0.4-7.3,0.7-10.9,1.1c0.4-1.8,0.3-4.8,1.2-5.2
			c4-1.5,8.3-2.7,12.6-3.1c3.1-0.3,6.5,0.4,9.5,1.3c3.6,1.1,7,2.9,10.4,4.5c-3.6,0.3-7.2,0.6-10.8,0.9
			C1587,1713.7,1587,1713.4,1586.9,1713z"/>
		<path fill="#4B3246" d="M1675.1,1681.9c1.8,4.6,4,7.7,3.7,10.6c-0.1,1.6-4.4,4.3-6.6,4.1c-4.9-0.4-9.8-2.2-14.7-3.5
			C1662.9,1689.7,1668.3,1686.3,1675.1,1681.9z"/>
		<path fill="#4B3246" d="M1682.5,1414.3c-3.3,2.1-7.2,6.4-9.7,5.7c-3.6-1-6.3-5.6-9.3-8.7c3.5,0.5,7,1,10.5,1.5
			c2.8,0.5,5.6,1.1,8.5,1.6C1682.5,1414.5,1682.5,1414.3,1682.5,1414.3z"/>
		<path fill="#4B3246" d="M1636.8,777.2c-2.9-2.6-5.5-4.6-7.5-7c-0.2-0.3,2.5-4.2,3.2-4c6.1,1.5,12.1,3.6,18.1,5.6
			C1646.7,773.3,1642.7,774.8,1636.8,777.2z"/>
		<path fill="#4B3246" d="M1603.5,1157.1c-7.5-0.9-13.1-1.6-18.7-2.3c4.4-2.3,8.7-5.5,13.4-6.5c2.7-0.6,6.2,2.2,9.3,3.5
			C1606.1,1153.9,1604.5,1155.8,1603.5,1157.1z"/>
		<path fill="#4B3246" d="M1684.6,1838.7c1.7,2.5,3.6,5.1,3.5,5.2c-3.9,3.1-7.7,6.5-12.2,8.7c-1.4,0.7-4.5-1.9-6.8-3
			C1674,1846.1,1678.8,1842.8,1684.6,1838.7z"/>
		<path fill="#4B3246" d="M1585.6,1789.4c2.5,2.3,5.9,4.3,5.6,5.3c-1.2,3.8-3.5,7.2-5.4,10.7c-3.2-2.8-6.3-5.6-9.5-8.4
			C1579.2,1794.7,1582,1792.4,1585.6,1789.4z"/>
		<path fill="#4B3246" d="M1640.5,1925.7c5.6,1.9,9.5,3.2,13.4,4.4c-2,1.2-3.9,3.3-5.9,3.4c-6.5,0.1-12.9-0.5-19.4-0.8
			C1632.7,1930.3,1636.8,1927.9,1640.5,1925.7z"/>
		<path fill="#4B3246" d="M1635.4,2113.6c-1.6-1-4.9-2.9-8.2-4.9c3.4-1.7,7-5.2,10.1-4.8c4.6,0.5,8.8,3.8,13.2,6
			C1646,2111,1641.4,2112.1,1635.4,2113.6z"/>
		<path fill="#4B3246" d="M1663.8,1872c-2.9-1.6-5.3-2.7-5.2-2.8c1.4-3.6,3.1-7.1,4.8-10.6c2.8,2.1,5.5,4.3,8.3,6.4
			C1669,1867.3,1666.4,1869.7,1663.8,1872z"/>
		<path fill="#4B3246" d="M1696.8,1585.5c-9,2-13.8,4.1-18.4,3.7c-3.1-0.3-5.8-4.4-8.7-6.7c0.9-0.8,1.9-2.3,2.6-2.2
			C1679,1581.5,1685.7,1583.1,1696.8,1585.5z"/>
		<path fill="#4B3246" d="M1630.2,1845.9c4.8,0.5,10.3,1,15.9,1.5c-3.4,1.5-6.9,4-10.3,4.1c-4.2,0.1-8.5-2-12.7-3.1
			C1625,1847.7,1627,1847,1630.2,1845.9z"/>
		<path fill="#4B3246" d="M1587.8,1839.2c1.7,2.7,3.4,5.5,5.1,8.2c-2.7,0.5-5.9,2-8,1.1c-3.3-1.5-6-4.6-8.9-7.1
			c2.7,0.5,5.5,1.6,8.2,1.3c1.4-0.1,2.6-2.5,3.9-3.8C1588,1839,1587.8,1839.2,1587.8,1839.2z"/>
		<path fill="#4B3246" d="M1649.6,1110.3c-3.9,4.3-7.1,7.9-10.4,11.5c-1.4-1.9-4.3-4.9-4-5.4c2.2-2.9,4.9-5.7,8-7.3
			C1644.9,1108.2,1647.8,1109.9,1649.6,1110.3z"/>
		<path fill="#4B3246" d="M1683.6,1820.7c-3.3,2.8-4.9,4.7-6.8,5.7c-0.7,0.4-3.5-1.2-3.5-1.6c0.6-4.6,1.5-9.2,2.3-13.7
			C1677.9,1813.8,1680.2,1816.6,1683.6,1820.7z"/>
		<path fill="#4B3246" d="M1667.4,829.3c-3.4,2.1-6.5,4.6-6.9,4.2c-2.1-2-5.4-5.3-4.8-7.1c0.8-2.6,4.5-4.4,6.9-6.5
			C1663.8,822.3,1665,824.7,1667.4,829.3z"/>
		<path fill="#4B3246" d="M1668.6,1570.9c-3.1-2.6-5.1-4.3-7.2-6c3.1-2.3,6.1-4.5,9.2-6.8c1.5,2.4,4,4.7,4.3,7.2
			C1675,1566.7,1671.4,1568.5,1668.6,1570.9z"/>
		<path fill="#4B3246" d="M1623,2118.6c-2.8-2.4-6.1-5.2-9.5-8.1c1.1-1.1,3-3.3,3.3-3.1c4.5,2.9,8.8,6.1,13.1,9.2
			C1628.3,2117.1,1626.7,2117.5,1623,2118.6z"/>
		<path fill="#4B3246" d="M1632.5,1148.5c2.6,1.6,4.3,2.6,5.9,3.6c-2.7,1.7-5.3,3.9-8.2,4.8c-1.2,0.4-3.2-2.1-4.9-3.2
			C1627.4,1152.1,1629.6,1150.6,1632.5,1148.5z"/>
		<path fill="#4B3246" d="M1572.2,1689.7c-2.6,1.7-4.2,3.6-5.3,3.3c-3.1-0.7-6-2.4-9-3.6c2.5-1.9,4.8-4.4,7.6-5.3
			C1566.7,1683.7,1569,1687,1572.2,1689.7z"/>
		<path fill="#4B3246" d="M1684,1774.8c-5.9,7.1-7.3,8.8-8.7,10.5c-1.8-4.2-3.8-8.4-5.3-12.7c-0.2-0.5,1.9-2.5,2.4-2.4
			C1676,1771.4,1679.6,1773,1684,1774.8z"/>
		<path fill="#4B3246" d="M1639.1,1623.1c4,1.3,7.4,2.3,10.8,3.4c-2.2,1.1-4.4,3.1-6.5,3c-3.3-0.2-6.6-1.9-9.8-3
			C1635.3,1625.4,1637.1,1624.3,1639.1,1623.1z"/>
		<path fill="#CAB9AA" d="M517.7,495.5c0,0-0.1,0-0.1,0c0,0.1,0,0.1-0.1,0.2L517.7,495.5z"/>
		<path fill="#4B3246" d="M719.5,395.5c0.1-0.1,0.1-0.1,0.2-0.2c0,0-0.1,0-0.1,0C719.6,395.4,719.6,395.4,719.5,395.5z"/>
		<path fill="#4B3246" d="M505.2,532.6"/>
		<path fill="#4B3246" d="M525.8,521.6c-2.7-8.7-5.4-17.4-8-26.1"/>
		<path fill="#4B3246" d="M563.4,480.8"/>
		<path fill="#4B3246" d="M573.5,501.1"/>
		<path fill="#4B3246" d="M561,2081.6c2.2,0,5.1-0.8,7.4,0.1c3.6,1.4,6.7,4,10,6c-3.5,1.8-6.9,3.8-10.6,5.1
			C567.5,2093,565.8,2089.4,561,2081.6z"/>
		<path fill="#4B3246" d="M1205.5,669.2c5.8,3.1,11.1,5.8,16.4,8.6c-1.1,0.8-2.6,2.6-3.3,2.3c-5.6-2.1-11.1-4.6-16.6-6.9
			C1203,672.1,1204.1,670.9,1205.5,669.2z"/>
		<path fill="#4B3246" d="M977.8,661.4c-3.5-1.6-6.9-3.1-10.2-4.6c3.6-0.7,7.2-2.1,10.8-2c2.9,0.1,5.8,1.8,8.7,2.8
			C984.2,658.8,981.3,660,977.8,661.4z"/>
		<path fill="#4B3246" d="M1726.2,2079.9"/>
		<path fill="#4B3246" d="M1757,2089.2"/>
		<path fill="#4B3246" d="M1728.2,2060.2c-2.4,0.1-4.9-2.9-7.4-4.6"/>
		<path fill="#EEE5D5" d="M806.1,943.4h595.4c26.4,0,48,21.6,48,48v1281H758.1v-1281C758.1,965,779.7,943.4,806.1,943.4z"/>
		<path fill="#C56C76" d="M1445.9,991.2H754.5v0c0-26.3,21.5-47.8,47.8-47.8h595.8C1424.4,943.4,1445.9,964.9,1445.9,991.2
			L1445.9,991.2z"/>
		<path fill="none" d="M504.7,1132.3c1.7-12.9,5.1-25.5,10-37.5c5.9-0.3,8.8-5.7,9.3-11.6"/>
		<line fill="none" stroke="#788E92" stroke-width="20" stroke-miterlimit="10" x1="690.4" y1="878" x2="1515.5" y2="878"/>
		<pattern  id="SVGID_3_" xlink:href="#New_Pattern" patternTransform="matrix(0.9371 0 0 0.9371 -418.587 -446.2562)">
		</pattern>
		<path fill="url(#SVGID_3_)" d="M1705.5,766.1c2.6-5.9,2.7-11.7-1.2-15.9c-84.9-89.5-357.8-331.4-616.2-331.4
			c-249.6,0-492.2,231.7-582.2,328.1h-11.5v13c-3.8,6.2-3.3,13.5,0,19.2v1568h196V788.2h837.5v1359.1h187.7V766.1H1705.5z"/>
		<rect x="491.8" y="460.8" fill="#D49B8D" width="1212.7" height="420.8"/>
		<polygon fill="#C56C76" stroke="#C56C76" stroke-miterlimit="10" points="690.4,886.6 632.6,788.2 1576.4,788.2 1528.1,886.6 		
			"/>
		<g id="XMLID_3_">
			<g>
				<path fill="#C56C76" d="M1679.1,680.2c0,0-280.2-283.6-584.1-283.6S521.8,690.8,521.8,690.8l-296.3-14.1l0.1-60.8l280,3.4
					c0,0,221.8-273.1,591.1-275.6c352.9-2.3,615.6,282.4,615.6,282.4h267.9v47.6L1679.1,680.2z"/>
			</g>
			<g>
			</g>
		</g>
		<path fill="#F9DCC4" d="M632.6,789.4h943.8c0,0-238.4-222.4-476.4-222.4S632.6,789.4,632.6,789.4z"/>
		<polygon fill="#FDF0D9" points="1109.3,767.4 1089.1,772.3 1060.8,600.2 1139.6,600.2 		"/>
		<polygon fill="#FDF0D9" points="1158.9,766 1138.4,763.1 1165.4,609.3 1239.2,636.7 		"/>
		<polygon fill="#FDF0D9" points="1045.1,763.3 1026.5,772.5 961.9,629 1038.3,610.1 		"/>
		<polyline fill="#F9DCC4" points="1697,2362.5 2104.7,2378 2064.3,2205.2 1993,2165.6 1991.1,1911.5 1943.9,1845.7 1929.3,953.8 
			1962,920.4 1931.6,888.7 1924.5,745.4 1683.3,745.4 		"/>
		<rect x="1752.8" y="787.9" fill="#FDF0D9" width="127.1" height="86.8"/>
		<rect x="1704.4" y="888.7" fill="#FDF0D9" width="223.9" height="62.3"/>
		<rect x="1763.9" y="1216.5" fill="#FDF0D9" width="105" height="354.8"/>
		<circle fill="#FDF0D9" cx="1816.4" cy="1051.4" r="45"/>
		<polygon fill="#FDF0D9" points="1948.5,1845.7 1995.8,1911.5 1699.8,1898 1700.7,1833.3 		"/>
		
			<line fill="#D49B8D" stroke="#D49B8D" stroke-width="40" stroke-miterlimit="10" x1="1103.8" y1="990.9" x2="1103.8" y2="2272.4"/>
		<path fill="#C56C76" d="M225.4,675.7h277.2c0,0,285.3-286.5,592.3-286.5s599.5,283.6,599.5,283.6h285.7l-55.6,72.6h-241.2
			c0,0-327.4-284.6-586.4-284.6S512.4,746.9,512.4,746.9l-238.6-1.2L225.4,675.7z"/>
		<path fill="#F9DCC4" d="M1361.3,340.6c-3.2-2.6-6.6-4.7-10.3-6.4c-1.1-1.2-2.3-2.4-3.5-3.6c2.2-1.6,3.1-5,0.1-7.2
			c-0.6-0.4-1.1-0.8-1.7-1.1c-2-1.5-3.3-3.3-4.2-6c-1.9-5.5-9.9-2.2-8.8,3.1c-1.8,0.2-3.5,0.6-5.3,1.3c-3.8,1.4-3.6,7.2,0.1,8.6
			c0.2,0.1,0.4,0.2,0.6,0.2c-5.6,0.2-11.3,1.3-16.7,3.3c-2,0.8-3.1,3.2-2.7,5.3c-0.2,0-0.3,0-0.5-0.1c0-1.7-0.9-3.3-2.9-3.8
			c-6.8-1.9-13.6-3.8-20.4-5.5c1.3-2.3,0.7-5.8-2.1-6.9c-19.5-7.4-39.5-13.4-59.8-17.8c-0.6-0.5-1.3-0.8-2.1-0.9
			c-2.1-0.3-4.2-0.6-6.3-0.8c-14.1-2.8-28.4-4.8-42.8-6.1c-6-0.5-7.1,8.8-1.1,9.3c1.1,0.1,2.1,0.2,3.2,0.3c-3.5,1-7,2.1-10.4,3.4
			c-1.9,0.1-3.9,0.1-5.8,0.3c-6,0.4-4.6,9.7,1.4,9.3c0.3,0,0.5,0,0.8,0c0.2,0.1,0.5,0.2,0.8,0.3c0.8,0.2,1.5,0.4,2.3,0.7
			c-2.8,2.5-2.5,8.1,2.2,8.1h26.2c1.1,0,2-0.3,2.7-0.8c6,1.1,12.1,2,18.2,2.8c25.4,13.7,52.8,23.3,81.3,28.4
			c7.4,2.5,15.7,3.5,21.8-1.4c8.1-0.4,16.2-1.5,24.2-3.2c1.3-0.3,2.4-1.2,3.1-2.4c5.5-0.3,10.9-1.1,16.3-2.3
			C1363.1,348.1,1364.5,343.2,1361.3,340.6z M1324.7,339.1c2.2-0.3,4.3-0.4,6.5-0.3C1329.1,338.9,1326.9,339,1324.7,339.1z
			 M1309.7,347.6c-4,0-7.9-0.1-11.9-0.4c0.2-0.3,0.4-0.7,0.5-1.1C1302,346.6,1305.9,347.1,1309.7,347.6z M1240.9,332
			c3.7,1.7,7.5,3.3,11.3,4.8c-0.2,0.1-0.4,0.3-0.5,0.5c-4.6-1.7-9.1-3.4-13.5-5.3C1239.1,331.9,1240,332,1240.9,332z M1220.7,313
			c11,2.4,22,5.2,32.8,8.6c-7.3-1.5-14.6-2.8-22-4c-3.1-0.5-4.9,1.8-5,4.3c-1.7-0.1-3.5-0.3-5.2-0.5c-2.7-1.3-5.5-2.5-8.4-3.6
			C1215.5,316.2,1218.1,314.6,1220.7,313z M1192.4,311.7c4.5-0.5,9-0.7,13.6-0.6c-0.3,0.2-0.6,0.4-0.9,0.6c-1.1,0.6-1.7,1.5-1.9,2.4
			c-0.5-0.1-0.9-0.1-1.4,0C1198.7,313.1,1195.5,312.4,1192.4,311.7z"/>
		<path fill="#F9DCC4" d="M549.7,496.3c-3.6-0.5-7.2-0.8-10.7-1.1c1.1-4.1-3.2-8.8-7.1-5.3l-5.1,4.5c-30.3-1.4-60.8,1.9-90.1,10
			c-4,1.1-5.3,7.4-1.7,9c-10.2-0.4-20.4-1.4-30.6-3.2c-5.9-1-7,8.3-1.1,9.3c26.2,4.6,53,4.6,79.2,0.2c0.1,2.3,1.5,4.6,4.1,4.7
			c11.5,0.1,22.1-3,31.7-9.2c-1.4,3.1-2.8,6.1-4.2,9.3c-1.6,3.8,2.5,7.7,6.2,6.1c9-3.9,14.3-13.7,12.5-23.3l17.2-1.5
			C555.2,505.1,554.8,497,549.7,496.3z"/>
		<path fill="#F9DCC4" d="M1389.8,296.5c-3.7-1.7-7.5-3.3-11.2-5c-0.1-1-0.6-2-1.6-2.9c-8.6-7.7-18.7-13.4-29.6-16.8
			c-2.9-0.9-5.2,0.9-6.1,3.1l-19.3-8.6c-5.5-2.5-9,6.2-3.5,8.7l67.8,30.1C1391.8,307.6,1395.3,298.9,1389.8,296.5z"/>
		<path fill="#F9DCC4" d="M1360.3,353.9c-4.7-0.5-6.4,5.1-4,7.9c-4.2,0.7-6,7.3-1.2,8.9c4.1,1.4,8.2,2.7,12.3,4.1
			c2.9,1,6-0.6,6.4-3.8C1374.8,362.6,1368.6,354.8,1360.3,353.9z"/>
		<path fill="#F9DCC4" d="M1500,433.7c1.5,0,2.9,0,4.4-0.1c1.2,1.6,2.3,3.4,3.1,5.2C1505,437.1,1502.5,435.4,1500,433.7z
			 M1538.6,417.3c-1.5,0.6-3.1,1.1-4.7,1.6c-1.5-1.8-2.8-3.8-3-5.6C1533.8,414,1536.5,415.3,1538.6,417.3z M1549.7,449.3
			L1549.7,449.3c-1-0.7-2-1-3-0.9c-6.9-2-13.8-4.1-20.6-6.1c-0.8-0.2-1.6-0.3-2.3-0.1l-1.8-2.1c-1.3-1.5-3-2-4.7-1.5
			c-0.6-2-1.5-3.9-2.4-5.7c5.4-0.7,10.7-1.7,15.9-3.1c3.7,3.8,7.8,7.2,10.5,9.9c3.5,3.5,7,6.9,10.5,10.4
			C1551,449.7,1550.4,449.5,1549.7,449.3z M1548.1,425.3c-2.4,0-4.2,1.3-4.8,3.1c-0.7-0.7-1.4-1.4-2.1-2.1c2.2-0.8,4.4-1.7,6.6-2.6
			c0.8-0.4,1.5-1,2-1.8c1.2,1.3,2.3,2.5,3.5,3.9C1551.6,425.5,1549.8,425.3,1548.1,425.3z M1779.4,539.9c-0.4-0.3-0.7-0.7-1.1-1
			c0.8,0,1.5,0.1,2.3,0.1C1780.1,539.3,1779.7,539.6,1779.4,539.9z M1913.5,598.2c-0.2,0.1,0.4,0.9,0.5,2c-0.2,0-0.5,0-0.9,0
			C1912.8,599.5,1912.7,598.7,1913.5,598.2z M1853,581.4c-0.3,1.5-0.5,3.2-0.4,5.1c0.1,0.8,0.2,1.7,0.3,2.5
			c-6.1-2-12.2-4.3-18.2-7.1C1840.9,582,1847,581.9,1853,581.4z M1812.1,524.1c-6.2-1.1-12.3-2.5-18.3-4c12,0.2,23.9,1.3,35.7,3.4
			C1823.7,524,1817.9,524.2,1812.1,524.1z"/>
		<path fill="#F9DCC4" d="M225.5,615.9l280,3.4c0,0,274.1-275.6,591.1-275.6s615.6,282.4,615.6,282.4h267.9l34-109.6h-242.6
			c0,0-337.7-316.1-689.1-316.1S446.8,489.3,446.8,489.3H188.3L225.5,615.9z"/>
		<rect x="475.3" y="2119" fill="#F9DCC4" width="1252.9" height="228.4"/>
		<polyline fill="#F9DCC4" points="508,2355.4 100.3,2371 140.7,2198.1 212,2158.5 213.9,1904.4 261.1,1838.6 275.7,946.7 
			243,913.3 273.4,881.6 274.4,744.3 512.4,746.9 		"/>
		<rect x="325.1" y="780.8" fill="#FDF0D9" width="127.1" height="86.8"/>
		<rect x="276.7" y="881.6" fill="#FDF0D9" width="223.9" height="62.3"/>
		<rect x="336.2" y="1209.4" fill="#FDF0D9" width="105" height="354.8"/>
		<circle fill="#FDF0D9" cx="388.6" cy="1044.3" r="45"/>
		<polygon fill="#FDF0D9" points="256.5,1838.6 209.2,1904.4 505.2,1890.9 504.3,1826.2 		"/>
		<polygon fill="#FDF0D9" points="137.9,2198.1 508,2175.8 508,2127 209.3,2144 		"/>
		<polygon fill="#FDF0D9" points="2067.1,2205.2 1697,2182.9 1697,2134.1 1995.7,2151 		"/>
	</g>
</g>
<g id="Layer_3">
	
		<rect x="1324.4" y="-371.6" fill="url(#New_Pattern_Swatch_7)" stroke="#DE6757" stroke-width="7" stroke-miterlimit="10" width="140" height="76"/>
</g>
</svg>
