<?xml version="1.0" encoding="utf-8"?>
<!-- Generator: Adobe Illustrator 18.1.1, SVG Export Plug-In . SVG Version: 6.00 Build 0)  -->
<svg version="1.1" xmlns="http://www.w3.org/2000/svg" xmlns:xlink="http://www.w3.org/1999/xlink" x="0px" y="0px"
	 viewBox="0 0 1133.4 2136.4" enable-background="new 0 0 1133.4 2136.4" xml:space="preserve">
<pattern  x="-2045" y="1766.2" width="139" height="150.8" patternUnits="userSpaceOnUse" id="New_Pattern" viewBox="69.5 -188.5 139 150.8" overflow="visible">
	<g>
		<polygon fill="none" points="69.5,-188.5 208.5,-188.5 208.5,-37.7 69.5,-37.7 		"/>
		<polygon fill="#C56C76" stroke="#D49B8D" stroke-width="7" stroke-miterlimit="10" points="274.5,-3.5 142.5,-3.5 142.5,-71.9 
			274.5,-71.9 		"/>
		<polygon fill="#C56C76" stroke="#D49B8D" stroke-width="7" stroke-miterlimit="10" points="135.5,-3.5 3.5,-3.5 3.5,-71.9 
			135.5,-71.9 		"/>
		<polygon fill="#C56C76" stroke="#D49B8D" stroke-width="7" stroke-miterlimit="10" points="205,-78.9 73,-78.9 73,-147.3 
			205,-147.3 		"/>
		<polygon fill="#C56C76" stroke="#D49B8D" stroke-width="7" stroke-miterlimit="10" points="274.5,-154.3 142.5,-154.3 
			142.5,-222.7 274.5,-222.7 		"/>
		<polygon fill="#C56C76" stroke="#D49B8D" stroke-width="7" stroke-miterlimit="10" points="135.5,-154.3 3.5,-154.3 3.5,-222.7 
			135.5,-222.7 		"/>
	</g>
</pattern>
<pattern  x="-2045" y="1766.2" width="147" height="166" patternUnits="userSpaceOnUse" id="New_Pattern_2" viewBox="73.5 -207.5 147 166" overflow="visible">
	<g>
		<polygon fill="none" points="73.5,-207.5 220.5,-207.5 220.5,-41.5 73.5,-41.5 		"/>
		<polygon fill="#8BAFB2" stroke="#7A98A0" stroke-width="7" stroke-miterlimit="10" points="290.5,-3.5 150.5,-3.5 150.5,-79.5 
			290.5,-79.5 		"/>
		<polygon fill="#8BAFB2" stroke="#7A98A0" stroke-width="7" stroke-miterlimit="10" points="143.5,-3.5 3.5,-3.5 3.5,-79.5 
			143.5,-79.5 		"/>
		<polygon fill="#8BAFB2" stroke="#7A98A0" stroke-width="7" stroke-miterlimit="10" points="217,-86.5 77,-86.5 77,-162.5 
			217,-162.5 		"/>
		<polygon fill="#8BAFB2" stroke="#7A98A0" stroke-width="7" stroke-miterlimit="10" points="290.5,-169.5 150.5,-169.5 
			150.5,-245.5 290.5,-245.5 		"/>
		<polygon fill="#8BAFB2" stroke="#7A98A0" stroke-width="7" stroke-miterlimit="10" points="143.5,-169.5 3.5,-169.5 3.5,-245.5 
			143.5,-245.5 		"/>
	</g>
</pattern>
<pattern  x="-2045" y="1766.2" width="147" height="166" patternUnits="userSpaceOnUse" id="New_Pattern_4" viewBox="73.5 -207.5 147 166" overflow="visible">
	<g>
		<polygon fill="none" points="73.5,-207.5 220.5,-207.5 220.5,-41.5 73.5,-41.5 		"/>
		<polygon fill="#C24A3D" stroke="#DE6757" stroke-width="7" stroke-miterlimit="10" points="290.5,-3.5 150.5,-3.5 150.5,-79.5 
			290.5,-79.5 		"/>
		<polygon fill="#C24A3D" stroke="#DE6757" stroke-width="7" stroke-miterlimit="10" points="143.5,-3.5 3.5,-3.5 3.5,-79.5 
			143.5,-79.5 		"/>
		<polygon fill="#C24A3D" stroke="#DE6757" stroke-width="7" stroke-miterlimit="10" points="217,-86.5 77,-86.5 77,-162.5 
			217,-162.5 		"/>
		<polygon fill="#C24A3D" stroke="#DE6757" stroke-width="7" stroke-miterlimit="10" points="290.5,-169.5 150.5,-169.5 
			150.5,-245.5 290.5,-245.5 		"/>
		<polygon fill="#C24A3D" stroke="#DE6757" stroke-width="7" stroke-miterlimit="10" points="143.5,-169.5 3.5,-169.5 3.5,-245.5 
			143.5,-245.5 		"/>
	</g>
</pattern>
<pattern  x="-2045" y="1766.2" width="147" height="166" patternUnits="userSpaceOnUse" id="New_Pattern_Swatch_7" viewBox="73.5 -207.5 147 166" overflow="visible">
	<g>
		<polygon fill="none" points="73.5,-207.5 220.5,-207.5 220.5,-41.5 73.5,-41.5 		"/>
		<polygon fill="#C24A3D" stroke="#DE6757" stroke-width="7" stroke-miterlimit="10" points="290.5,-3.5 150.5,-3.5 150.5,-79.5 
			290.5,-79.5 		"/>
		<polygon fill="#C24A3D" stroke="#DE6757" stroke-width="7" stroke-miterlimit="10" points="143.5,-3.5 3.5,-3.5 3.5,-79.5 
			143.5,-79.5 		"/>
		<polygon fill="#C24A3D" stroke="#DE6757" stroke-width="7" stroke-miterlimit="10" points="217,-86.5 77,-86.5 77,-162.5 
			217,-162.5 		"/>
		<polygon fill="#C24A3D" stroke="#DE6757" stroke-width="7" stroke-miterlimit="10" points="290.5,-169.5 150.5,-169.5 
			150.5,-245.5 290.5,-245.5 		"/>
		<polygon fill="#C24A3D" stroke="#DE6757" stroke-width="7" stroke-miterlimit="10" points="143.5,-169.5 3.5,-169.5 3.5,-245.5 
			143.5,-245.5 		"/>
	</g>
</pattern>
<g id="Layer_1">
	<rect x="-2072.4" y="1027.5" fill="#F9DCC4" width="893.9" height="1478.7"/>
	<path fill="#4B3246" d="M-735.1,1989.1c-3.4-0.1-6.7-4.1-10.1-6.3"/>
	<path fill="#4B3246" d="M-995.2,1686.2c-3.6,0.8-7.3,2.8-10.6,2.3c-7.2-1-14.3-3.3-21.4-5c8.2,0.2,16.4,0.5,24.7,0.7
		c2.2,0.1,4.4,0.1,6.6,0.1C-995.7,1684.9-995.5,1685.6-995.2,1686.2z"/>
	<path fill="#4B3246" d="M-1178.4,686.6"/>
	<path fill="#4B3246" d="M-1200.4,666.5"/>
	<path fill="#4B3246" d="M-1441.9,556.4c0.7-0.4,1.5-0.9,2-1.2"/>
	<path fill="#4B3246" d="M-1238.6,643.2c6.5,3.6,12.3,6.9,18.1,10.1"/>
	<path fill="#4B3246" d="M-591.6,2463.5"/>
	<path fill="#4B3246" d="M-609.5,801.2"/>
	<path fill="#4B3246" d="M-1031.1,2126.7c-4.7-2.1-11.3-5-17.9-7.9c2.8-2.3,5.9-6.7,8.4-6.4c7.9,0.8,15.6,3.5,23.4,5.4
		C-1020.5,2120-1023.8,2122.1-1031.1,2126.7z"/>
	<path fill="#4B3246" d="M-1003.5,2100c-7.4,2.1-14.6,4.7-22.1,5.9c-3.1,0.5-6.6-2.3-10-3.5c2.1-2.4,3.9-6,6.5-6.9
		c4.1-1.4,9.1-1.9,13.4-1.1C-1011.4,2095.2-1007.6,2098.1-1003.5,2100C-1003.5,2100.1-1003.5,2100-1003.5,2100z"/>
	<path fill="#4B3246" d="M-1114.5,2043.8c-0.7-6.1-1.4-12.1-2.2-18.2c7.1,1.1,14.3,2.2,21.4,3.6c0.4,0.1,0.9,2.8,0.3,3.6
		c-0.9,1.4-2.4,2.7-4,3.5c-5.2,2.7-10.6,5.2-15.8,7.7C-1114.8,2044-1114.5,2043.8-1114.5,2043.8z"/>
	<path fill="#4B3246" d="M-1094.2,900.4c6.9,1.4,13.1,2.6,19.4,3.8c-5.6,2.4-11.1,6.4-16.9,6.6c-5.4,0.2-10.9-3.5-16.4-5.4
		C-1103.5,903.7-1098.9,902.1-1094.2,900.4z"/>
	<path fill="#4B3246" d="M-1110.4,1876.1c6,3.3,11,6,15.9,8.7c-1.6,1.6-3.4,4.6-4.7,4.4c-7.9-1.2-15.8-3.2-23.7-4.9
		C-1119.2,1881.9-1115.5,1879.5-1110.4,1876.1z"/>
	<path fill="#4B3246" d="M-1002.7,1862c-3.9,1.8-7.6,4.2-11.6,5.1c-3.4,0.8-7.2-0.2-10.9-0.4c0.9-3.5,1.8-7.1,2.7-10.6
		c6.5,2.1,13,4.1,19.6,6.2C-1003,1862.2-1002.7,1862-1002.7,1862z"/>
	<path fill="#4B3246" d="M-1081.7,2173.9c-7.1-3.3-12.9-6-18.7-8.7c1.9-0.9,3.9-2.8,5.5-2.5c7.5,1.4,14.9,3.5,22.3,5.3
		C-1075.4,2169.8-1078.2,2171.6-1081.7,2173.9z"/>
	<path fill="#4B3246" d="M-1115.7,1909.4c-4.2,0.5-8.5,1.1-12.7,1.6c-3.9,0.4-7.8,0.8-11.6,1.2c0.4-1.9,0.3-5.2,1.3-5.5
		c4.3-1.6,8.9-2.9,13.4-3.3c3.3-0.3,6.9,0.4,10.1,1.4c3.8,1.2,7.4,3.1,11.1,4.8c-3.8,0.3-7.7,0.7-11.5,1
		C-1115.6,1910.1-1115.7,1909.7-1115.7,1909.4z"/>
	<path fill="#4B3246" d="M-1021.6,1876.1c1.9,4.9,4.2,8.2,4,11.3c-0.1,1.7-4.6,4.6-7,4.4c-5.3-0.4-10.4-2.4-15.6-3.7
		C-1034.6,1884.5-1028.9,1880.9-1021.6,1876.1z"/>
	<path fill="#4B3246" d="M-1013.7,1590.6c-3.5,2.2-7.6,6.8-10.4,6.1c-3.9-1-6.7-6-10-9.2c3.7,0.5,7.5,1,11.2,1.6c3,0.5,6,1.2,9,1.7
		C-1013.8,1590.8-1013.7,1590.6-1013.7,1590.6z"/>
	<path fill="#4B3246" d="M-1062.4,910.7c-3.1-2.7-5.8-4.9-8.1-7.5c-0.2-0.3,2.7-4.5,3.5-4.3c6.5,1.6,12.9,3.9,19.3,5.9
		C-1051.9,906.6-1056.2,908.3-1062.4,910.7z"/>
	<path fill="#4B3246" d="M-1098,1316.2c-8-1-14-1.7-19.9-2.4c4.7-2.4,9.3-5.8,14.3-6.9c2.9-0.6,6.6,2.4,10,3.8
		C-1095.3,1312.7-1096.9,1314.8-1098,1316.2z"/>
	<path fill="#4B3246" d="M-1011.4,2043.4c1.8,2.6,3.8,5.5,3.7,5.6c-4.2,3.3-8.3,7-13,9.3c-1.5,0.7-4.8-2.1-7.2-3.2
		C-1022.8,2051.4-1017.7,2047.8-1011.4,2043.4z"/>
	<path fill="#4B3246" d="M-1117.1,1990.9c2.7,2.4,6.3,4.6,6,5.6c-1.3,4-3.7,7.7-5.7,11.5c-3.4-3-6.8-6-10.1-9
		C-1124,1996.5-1121,1994-1117.1,1990.9z"/>
	<path fill="#4B3246" d="M-1058.5,2136.3c6,2,10.1,3.4,14.3,4.7c-2.1,1.3-4.2,3.5-6.3,3.6c-6.9,0.1-13.8-0.5-20.7-0.9
		C-1066.9,2141.2-1062.5,2138.6-1058.5,2136.3z"/>
	<path fill="#4B3246" d="M-1063.9,2336.8c-1.7-1-5.2-3.1-8.7-5.2c3.6-1.8,7.5-5.5,10.8-5.1c4.9,0.6,9.4,4.1,14,6.4
		C-1052.7,2334-1057.5,2335.2-1063.9,2336.8z"/>
	<path fill="#4B3246" d="M-1033.7,2079c-3.1-1.7-5.6-2.9-5.5-3c1.5-3.8,3.3-7.6,5.1-11.3c2.9,2.3,5.9,4.6,8.8,6.9
		C-1028.1,2074-1031,2076.6-1033.7,2079z"/>
	<path fill="#4B3246" d="M-998.5,1773.3c-9.6,2.1-14.7,4.4-19.6,3.9c-3.3-0.3-6.2-4.6-9.3-7.2c0.9-0.8,2-2.5,2.8-2.3
		C-1017.4,1769-1010.3,1770.7-998.5,1773.3z"/>
	<path fill="#4B3246" d="M-1069.5,2051.2c5.1,0.5,11,1,16.9,1.6c-3.7,1.6-7.3,4.3-11,4.4c-4.5,0.1-9-2.1-13.5-3.3
		C-1075,2053.1-1072.9,2052.4-1069.5,2051.2z"/>
	<path fill="#4B3246" d="M-1114.8,2044c1.8,2.9,3.7,5.8,5.5,8.7c-2.9,0.5-6.3,2.2-8.6,1.2c-3.6-1.6-6.4-4.9-9.5-7.5
		c2.9,0.6,5.9,1.7,8.7,1.4c1.5-0.1,2.7-2.6,4.1-4.1C-1114.5,2043.8-1114.8,2044-1114.8,2044z"/>
	<path fill="#4B3246" d="M-1048.9,1266.2c-4.1,4.6-7.6,8.4-11.1,12.2c-1.5-2-4.6-5.3-4.2-5.8c2.3-3,5.2-6.1,8.6-7.8
		C-1053.9,1264-1050.7,1265.8-1048.9,1266.2z"/>
	<path fill="#4B3246" d="M-1012.6,2024.2c-3.5,3-5.2,5-7.3,6.1c-0.8,0.4-3.8-1.3-3.7-1.7c0.6-4.9,1.6-9.8,2.5-14.7
		C-1018.6,2016.9-1016.2,2019.9-1012.6,2024.2z"/>
	<path fill="#4B3246" d="M-1029.9,966.4c-3.6,2.3-6.9,4.9-7.3,4.5c-2.3-2.1-5.7-5.6-5.2-7.5c0.8-2.8,4.8-4.7,7.4-7
		C-1033.7,959-1032.4,961.5-1029.9,966.4z"/>
	<path fill="#4B3246" d="M-1028.6,1757.7c-3.3-2.7-5.5-4.6-7.7-6.4c3.3-2.4,6.5-4.8,9.8-7.2c1.6,2.5,4.3,5,4.6,7.6
		C-1021.8,1753.2-1025.5,1755.1-1028.6,1757.7z"/>
	<path fill="#4B3246" d="M-1077.3,2342.1c-3-2.5-6.5-5.6-10.1-8.6c1.2-1.2,3.2-3.5,3.5-3.3c4.8,3.1,9.4,6.5,14,9.8
		C-1071.6,2340.5-1073.3,2341-1077.3,2342.1z"/>
	<path fill="#4B3246" d="M-1067.1,1307c2.8,1.7,4.5,2.8,6.3,3.8c-2.9,1.8-5.6,4.2-8.8,5.1c-1.2,0.4-3.4-2.2-5.2-3.5
		C-1072.5,1310.9-1070.2,1309.2-1067.1,1307z"/>
	<path fill="#4B3246" d="M-1131.5,1884.5c-2.8,1.8-4.5,3.8-5.6,3.5c-3.3-0.8-6.4-2.5-9.6-3.9c2.7-2,5.1-4.7,8.2-5.7
		C-1137.2,1878.1-1134.8,1881.6-1131.5,1884.5z"/>
	<path fill="#4B3246" d="M-1012.2,1975.3c-6.3,7.6-7.8,9.4-9.3,11.2c-2-4.5-4-9-5.7-13.6c-0.2-0.5,2-2.7,2.6-2.5
		C-1020.7,1971.6-1016.9,1973.3-1012.2,1975.3z"/>
	<path fill="#4B3246" d="M-1060.1,1813.4c4.3,1.4,7.9,2.5,11.5,3.6c-2.3,1.1-4.7,3.3-7,3.2c-3.6-0.2-7-2-10.5-3.2
		C-1064.1,1815.9-1062.2,1814.7-1060.1,1813.4z"/>
	<path fill="#CAB9AA" d="M-2256.6,610.2c0,0-0.1,0-0.1,0c0,0.1-0.1,0.2-0.1,0.2L-2256.6,610.2z"/>
	<path fill="#4B3246" d="M-2041.3,503.5c0.1-0.1,0.1-0.2,0.2-0.2c0,0-0.1,0-0.1,0C-2041.2,503.3-2041.3,503.4-2041.3,503.5z"/>
	<path fill="#4B3246" d="M-2270,649.7"/>
	<path fill="#4B3246" d="M-2248,638c-2.9-9.3-5.7-18.6-8.6-27.9"/>
	<path fill="#4B3246" d="M-2207.9,594.5"/>
	<path fill="#4B3246" d="M-2197.1,616.1"/>
	<path fill="#4B3246" d="M-2210.4,2302.7c2.4,0,5.5-0.9,7.9,0.1c3.8,1.5,7.2,4.2,10.7,6.4c-3.7,1.9-7.4,4-11.3,5.5
		C-2203.5,2314.9-2205.4,2311-2210.4,2302.7z"/>
	<path fill="#4B3246" d="M-1522.7,795.6c6.2,3.3,11.8,6.2,17.5,9.2c-1.2,0.9-2.8,2.8-3.5,2.5c-6-2.2-11.8-4.9-17.7-7.4
		C-1525.4,798.6-1524.3,797.3-1522.7,795.6z"/>
	<path fill="#4B3246" d="M-1765.7,787.2c-3.8-1.7-7.3-3.3-10.9-4.9c3.9-0.8,7.7-2.2,11.6-2.2c3.1,0.1,6.2,1.9,9.3,3
		C-1758.8,784.4-1762,785.7-1765.7,787.2z"/>
	<path fill="#4B3246" d="M-967.1,2300.9"/>
	<path fill="#4B3246" d="M-934.2,2310.8"/>
	<path fill="#4B3246" d="M-964.9,2279.8c-2.6,0.1-5.3-3.1-7.9-4.9"/>
	<g id="HAobQW.tif">
		
			<image overflow="visible" width="177" height="56" id="Layer_0_1_" xlink:href="D10AB0D5542A7F8.png"  transform="matrix(2.8342 0 0 1.6071 -2472.5469 110.2297)">
		</image>
	</g>
	<g id="_x33_wBwi4.tif">
		
			<image overflow="visible" width="410" height="280" id="Layer_0_2_" xlink:href="D10AB0D5542A7F9.png"  transform="matrix(2.6822 0 0 2.6822 -5404.6016 574.7024)">
		</image>
	</g>
	<path fill="#EEE5D5" d="M-1952.1,1088.1h641.8c26.4,0,48,21.6,48,48v1370.1h-737.8V1136.1
		C-2000.1,1109.7-1978.5,1088.1-1952.1,1088.1z"/>
	<path fill="#C56C76" d="M-1266.2,1139.1H-2004v-3c0-26.4,21.6-48,48-48h641.8c26.4,0,48,21.6,48,48V1139.1z"/>
	<path fill="none" d="M-2270.6,1289.7c1.8-13.7,5.5-27.2,10.7-40c6.3-0.4,9.4-6,10-12.4"/>
	<line fill="none" stroke="#788E92" stroke-width="20" stroke-miterlimit="10" x1="-2072.4" y1="1018.3" x2="-1191.9" y2="1018.3"/>
	<path fill="url(#New_Pattern)" d="M-989.1,899c2.7-6.3,2.9-12.5-1.3-17c-90.6-95.5-381.8-353.7-657.5-353.7
		c-266.4,0-525.2,247.3-621.3,350.1h-12.2v13.8c-4,6.6-3.6,14.4,0,20.5v1673.1h209.1V922.5h893.6v1450.3h200.3V899H-989.1z"/>
	<rect x="-2284.3" y="573.1" fill="#D49B8D" width="1294.1" height="449"/>
	<polygon fill="#C56C76" stroke="#C56C76" stroke-miterlimit="10" points="-2072.4,1027.5 -2134.1,922.5 -1126.9,922.5 
		-1178.4,1027.5 	"/>
	<g id="XMLID_3_">
		<g>
			<path fill="#C56C76" d="M-1017.3,807.3c0,0-299-302.6-623.3-302.6s-611.7,313.9-611.7,313.9l-316.2-15.1l0.1-64.8l298.8,3.6
				c0,0,236.7-291.5,630.8-294.1c376.6-2.5,656.9,301.4,656.9,301.4h285.8v50.8L-1017.3,807.3z"/>
		</g>
		<g>
		</g>
	</g>
	<path fill="#F9DCC4" d="M-2134.1,923.8h1007.1c0,0-254.4-237.3-508.4-237.3S-2134.1,923.8-2134.1,923.8z"/>
	<polygon fill="#FDF0D9" points="-1625.4,900.4 -1647,905.6 -1677.1,721.9 -1593.1,721.9 	"/>
	<polygon fill="#FDF0D9" points="-1572.5,898.8 -1594.3,895.7 -1565.6,731.7 -1486.8,760.9 	"/>
	<polygon fill="#FDF0D9" points="-1693.9,896 -1713.7,905.7 -1782.7,752.6 -1701.1,732.5 	"/>
	<rect x="130.1" y="200.4" fill="#DE6757" width="893.9" height="1548.4"/>
	<path fill="#4B3246" d="M576,80.4c0.7-0.4,1.5-0.9,2-1.2"/>
	<path fill="#4B3246" d="M1632.4,1987.5"/>
	<path fill="#4B3246" d="M1272.7-289.6"/>
	<path fill="#CAB9AA" d="M577.1,134.2c0,0-0.1,0-0.1,0c0,0.1-0.1,0.2-0.1,0.2L577.1,134.2z"/>
	<path fill="#4B3246" d="M576.9,27.5c0.1-0.1,0.1-0.2,0.2-0.2c0,0-0.1,0-0.1,0C577,27.3,577,27.4,576.9,27.5z"/>
	<path fill="#4B3246" d="M577,173.7"/>
	<path fill="#4B3246" d="M581.3,162c-2.9-9.3-5.7-18.6-8.6-27.9"/>
	<path fill="#4B3246" d="M577,118.5"/>
	<path fill="#4B3246" d="M577,140.1"/>
	<path fill="none" d="M566.7,462.6c1.8-13.7,5.5-27.2,10.7-40c6.3-0.4,9.4-6,10-12.4"/>
	<linearGradient id="SVGID_1_" gradientUnits="userSpaceOnUse" x1="254.7836" y1="1657.7943" x2="888.7078" y2="341.3763">
		<stop  offset="0" style="stop-color:#D8AB6C"/>
		<stop  offset="1" style="stop-color:#FFD67E"/>
	</linearGradient>
	<path fill="url(#SVGID_1_)" d="M256.1,261h641.8c26.4,0,48,21.6,48,48v1370.1H208.1V309C208.1,282.6,229.7,261,256.1,261z"/>
	<path fill="#913433" d="M945.9,312H208.1v-3c0-26.4,21.6-48,48-48h641.8c26.4,0,48,21.6,48,48V312z"/>
	<rect x="-5864.9" y="-213.8" fill="#FFFEF1" width="3004" height="2872"/>
	<g>
		<path fill="#4B3246" d="M1522.3-614.9"/>
		<path fill="#4B3246" d="M1178-505.9c6.2,3.3,11.8,6.2,17.5,9.2c-1.2,0.9-2.8,2.8-3.5,2.5c-6-2.2-11.8-4.9-17.7-7.4
			C1175.4-502.9,1176.5-504.2,1178-505.9z"/>
		<path fill="#4B3246" d="M935.1-514.3c-3.8-1.7-7.3-3.3-10.9-4.9c3.9-0.8,7.7-2.2,11.6-2.2c3.1,0.1,6.2,1.9,9.3,3
			C941.9-517.1,938.8-515.8,935.1-514.3z"/>
		<path fill="#F9DCC4" d="M566.7-377.6h1007.1c0,0-254.4-237.3-508.4-237.3S566.7-377.6,566.7-377.6z"/>
		<polygon fill="#FDF0D9" points="1075.4,-401.1 1053.8,-395.9 1023.7,-579.6 1107.7,-579.6 		"/>
		<polygon fill="#FDF0D9" points="1128.3,-402.7 1106.5,-405.8 1135.2,-569.8 1214,-540.6 		"/>
		<polygon fill="#FDF0D9" points="1006.8,-405.5 987,-395.8 918.1,-548.9 999.6,-569 		"/>
	</g>
	<rect x="-5864.9" y="-213.8" fill="url(#New_Pattern_2)" width="3004" height="2872"/>
	<rect x="-5864.9" y="2140.6" fill="url(#New_Pattern)" width="3004" height="268.6"/>
	<g id="_x33_wBwi4.tif_1_">
		
			<image overflow="visible" width="410" height="280" id="Layer_0_4_" xlink:href="D10AB0D5542A7FE.png"  transform="matrix(2.6822 0 0 2.6822 1613.6527 574.7024)">
		</image>
	</g>
	<rect x="1153.4" y="-213.8" fill="#FFFEF1" width="3004" height="2872"/>
	<pattern  id="SVGID_2_" xlink:href="#New_Pattern_4" patternTransform="matrix(1 0 0 1 109.2542 0)">
	</pattern>
	<rect x="1153.4" y="-213.8" fill="url(#SVGID_2_)" width="3004" height="2872"/>
	<rect x="0" y="0" fill="#913433" width="1133.4" height="118.5"/>
	<g id="tTWrGk.tif">
		
			<image overflow="visible" width="204" height="41" id="Layer_0_3_" xlink:href="D10AB0D5542A7FF.png"  transform="matrix(4.935 0 0 4.935 -436.0764 -416.1043)">
		</image>
	</g>
	<g>
		<path fill="#CAB9AA" d="M885.9,372v1242.1H268.1V372H885.9 M943.9,312H210.2c-1.1,0-2.1,0.9-2.1,2.1v1358c0,1.1,0.9,2.1,2.1,2.1
			h733.7c1.1,0,2.1-0.9,2.1-2.1v-1358C945.9,312.9,945,312,943.9,312L943.9,312z"/>
	</g>
	
		<rect x="242.1" y="1271.6" fill="none" stroke="#CAB9AA" stroke-width="60" stroke-linecap="square" stroke-miterlimit="10" width="676" height="376"/>
	
		<line fill="none" stroke="#CAB9AA" stroke-width="60" stroke-linecap="square" stroke-miterlimit="10" x1="566.7" y1="362" x2="566.7" y2="1648.1"/>
	<rect x="1.3" y="1743.9" fill="#D49B8D" width="1133.4" height="96.2"/>
	<polygon fill="#913433" points="1.3,1840.1 73.8,1903.2 1051.6,1907.7 1134.7,1840.1 	"/>
</g>
<g id="Layer_2">
	<polyline fill="#F9DCC4" points="-998.3,2602.5 -563.2,2619 -606.3,2434.5 -682.4,2392.3 -684.4,2121.2 -734.8,2050.9 
		-750.4,1099.2 -715.5,1063.6 -747.9,1029.8 -755.4,876.9 -1012.9,876.9 	"/>
	<rect x="-938.7" y="922.1" fill="#FDF0D9" width="135.6" height="92.6"/>
	<rect x="-990.3" y="1029.8" fill="#FDF0D9" width="238.9" height="66.5"/>
	<rect x="-926.9" y="1379.5" fill="#FDF0D9" width="112" height="378.6"/>
	<circle fill="#FDF0D9" cx="-870.9" cy="1203.4" r="48"/>
	<polygon fill="#FDF0D9" points="-729.8,2050.9 -679.4,2121.2 -995.3,2106.8 -994.3,2037.7 	"/>
	
		<line fill="#D49B8D" stroke="#D49B8D" stroke-width="40" stroke-miterlimit="10" x1="-1631.2" y1="1138.8" x2="-1631.2" y2="2506.2"/>
	<path fill="#C56C76" d="M-2568.5,802.5h295.8c0,0,304.4-305.7,632.1-305.7S-1001,799.4-1001,799.4h304.8l-59.3,77.5h-257.4
		c0,0-349.4-303.7-625.7-303.7s-623.7,305.3-623.7,305.3l-254.6-1.2L-2568.5,802.5z"/>
	<path fill="#F9DCC4" d="M-1356.5,444.9c-3.4-2.8-7.1-5-11-6.8c-1.2-1.3-2.4-2.6-3.7-3.8c2.4-1.8,3.3-5.3,0.1-7.7
		c-0.6-0.4-1.2-0.8-1.8-1.2c-2.1-1.6-3.5-3.6-4.5-6.4c-2.1-5.8-10.6-2.4-9.4,3.3c-1.9,0.2-3.8,0.7-5.6,1.4c-4,1.5-3.8,7.7,0.1,9.2
		c0.2,0.1,0.4,0.2,0.6,0.3c-6,0.2-12,1.3-17.8,3.5c-2.1,0.8-3.3,3.5-2.9,5.7c-0.2,0-0.4,0-0.5-0.1c0-1.8-1-3.5-3.1-4.1
		c-7.2-2.1-14.5-4-21.8-5.9c1.4-2.5,0.8-6.2-2.3-7.4c-20.8-7.9-42.1-14.3-63.8-19c-0.7-0.5-1.4-0.9-2.2-1c-2.2-0.4-4.5-0.6-6.7-0.8
		c-15.1-3-30.3-5.1-45.6-6.5c-6.4-0.6-7.6,9.4-1.2,9.9c1.1,0.1,2.3,0.2,3.4,0.3c-3.7,1-7.4,2.3-11.1,3.7c-2.1,0.1-4.1,0.1-6.2,0.3
		c-6.4,0.5-4.9,10.3,1.5,9.9c0.3,0,0.6,0,0.9,0c0.2,0.1,0.5,0.2,0.8,0.3c0.8,0.2,1.6,0.5,2.5,0.7c-3,2.7-2.7,8.6,2.3,8.6h28
		c1.1,0,2.1-0.3,2.9-0.8c6.4,1.2,12.9,2.2,19.4,3c27.1,14.6,56.3,24.9,86.7,30.3c7.9,2.6,16.7,3.7,23.3-1.4
		c8.7-0.4,17.3-1.6,25.8-3.5c1.4-0.3,2.6-1.3,3.3-2.6c5.8-0.4,11.6-1.2,17.4-2.4C-1354.5,452.9-1353,447.7-1356.5,444.9z
		 M-1395.5,443.3c2.3-0.3,4.6-0.4,6.9-0.3C-1390.9,443.1-1393.2,443.2-1395.5,443.3z M-1411.6,452.4c-4.2,0.1-8.5-0.1-12.7-0.4
		c0.2-0.4,0.4-0.8,0.5-1.2C-1419.7,451.3-1415.6,451.8-1411.6,452.4z M-1484.9,435.7c4,1.8,8,3.5,12.1,5.1c-0.2,0.2-0.4,0.3-0.6,0.5
		c-4.9-1.8-9.7-3.7-14.4-5.7C-1486.9,435.7-1485.9,435.7-1484.9,435.7z M-1506.6,415.5c11.8,2.5,23.5,5.6,35,9.1
		c-7.8-1.6-15.6-3-23.4-4.3c-3.4-0.6-5.3,1.9-5.4,4.6c-1.9-0.2-3.7-0.3-5.6-0.5c-2.9-1.4-5.9-2.7-8.9-3.9
		C-1512.1,418.9-1509.3,417.2-1506.6,415.5z M-1536.7,414.1c4.8-0.5,9.6-0.8,14.5-0.7c-0.3,0.2-0.7,0.4-1,0.6
		c-1.1,0.7-1.8,1.6-2,2.5c-0.5-0.1-1-0.1-1.5,0C-1530,415.6-1533.4,414.8-1536.7,414.1z"/>
	<path fill="#F9DCC4" d="M-2222.5,611c-3.8-0.5-7.6-0.9-11.5-1.2c1.2-4.3-3.4-9.4-7.6-5.7l-5.5,4.8c-32.3-1.5-64.8,2.1-96.1,10.7
		c-4.3,1.2-5.7,7.9-1.8,9.6c-10.9-0.4-21.8-1.5-32.7-3.4c-6.3-1.1-7.5,8.8-1.2,9.9c27.9,4.9,56.6,4.9,84.5,0.2c0.1,2.5,1.6,5,4.3,5
		c12.2,0.1,23.6-3.2,33.8-9.8c-1.5,3.3-3,6.6-4.5,9.9c-1.7,4,2.7,8.2,6.6,6.5c9.6-4.2,15.3-14.6,13.3-24.9l18.4-1.6
		C-2216.6,620.5-2217,611.7-2222.5,611z"/>
	<path fill="#F9DCC4" d="M-1326,397.8c-4-1.8-8-3.5-12-5.3c-0.2-1.1-0.7-2.2-1.7-3.1c-9.2-8.2-19.9-14.3-31.6-17.9
		c-3.1-1-5.6,0.9-6.5,3.3l-20.6-9.1c-5.9-2.6-9.6,6.7-3.8,9.3l72.4,32.2C-1323.9,409.7-1320.1,400.4-1326,397.8z"/>
	<path fill="#F9DCC4" d="M-1357.6,459c-5-0.6-6.8,5.4-4.3,8.4c-4.5,0.8-6.4,7.7-1.2,9.5c4.4,1.5,8.7,2.9,13.1,4.4c3,1,6.5-0.7,6.9-4
		C-1342.1,468.4-1348.7,460-1357.6,459z"/>
	<path fill="#F9DCC4" d="M-1208.5,544.2c1.6,0,3.1,0,4.7-0.1c1.3,1.7,2.4,3.6,3.3,5.6C-1203.2,547.8-1205.8,546-1208.5,544.2z
		 M-1167.3,526.7c-1.6,0.6-3.3,1.2-5,1.7c-1.6-1.9-3-4-3.2-6C-1172.4,523.2-1169.6,524.6-1167.3,526.7z M-1155.4,560.9
		L-1155.4,560.9c-1-0.8-2.1-1-3.2-0.9c-7.3-2.2-14.7-4.4-22-6.5c-0.9-0.3-1.7-0.3-2.5-0.2l-1.9-2.3c-1.4-1.7-3.2-2.1-5-1.7
		c-0.7-2.1-1.6-4.1-2.6-6.1c5.7-0.7,11.4-1.8,17-3.3c4,4.1,8.3,7.7,11.2,10.5c3.7,3.7,7.4,7.4,11.2,11.1
		C-1154,561.3-1154.7,561.1-1155.4,560.9z M-1157.1,535.3c-2.6,0-4.5,1.4-5.2,3.3c-0.7-0.7-1.5-1.5-2.2-2.2c2.4-0.9,4.7-1.8,7.1-2.8
		c0.9-0.4,1.6-1.1,2.2-1.9c1.3,1.4,2.5,2.7,3.7,4.1C-1153.4,535.5-1155.3,535.3-1157.1,535.3z M-910.3,657.6
		c-0.4-0.4-0.8-0.7-1.2-1.1c0.8,0,1.6,0.1,2.5,0.1C-909.5,656.9-910,657.2-910.3,657.6z M-767.3,719.8c-0.2,0.1,0.5,1,0.5,2.1
		c-0.2,0-0.5,0-0.9,0C-768,721.2-768.1,720.3-767.3,719.8z M-831.8,701.8c-0.4,1.6-0.5,3.4-0.4,5.4c0.1,0.9,0.2,1.8,0.4,2.7
		c-6.6-2.1-13.1-4.6-19.4-7.6C-844.7,702.5-838.2,702.4-831.8,701.8z M-875.4,640.8c-6.6-1.2-13.1-2.6-19.6-4.3
		c12.8,0.2,25.5,1.4,38.1,3.6C-863,640.6-869.2,640.8-875.4,640.8z"/>
	<path fill="#F9DCC4" d="M-2568.4,738.6l298.8,3.6c0,0,292.5-294.1,630.8-294.1S-982,749.5-982,749.5h285.8l36.3-116.9h-258.8
		c0,0-360.3-337.4-735.3-337.4s-678.3,308.3-678.3,308.3h-275.9L-2568.4,738.6z"/>
	<rect x="-2301.9" y="2342.6" fill="#F9DCC4" width="1337" height="243.8"/>
	<polyline fill="#F9DCC4" points="-2267,2594.9 -2702,2611.4 -2659,2427 -2582.9,2384.7 -2580.8,2113.6 -2530.4,2043.3 
		-2514.9,1091.7 -2549.8,1056 -2517.3,1022.2 -2516.3,875.7 -2262.3,878.5 	"/>
	<rect x="-2462.2" y="914.6" fill="#FDF0D9" width="135.6" height="92.6"/>
	<rect x="-2513.8" y="1022.2" fill="#FDF0D9" width="238.9" height="66.5"/>
	<rect x="-2450.4" y="1371.9" fill="#FDF0D9" width="112" height="378.6"/>
	<circle fill="#FDF0D9" cx="-2394.4" cy="1195.8" r="48"/>
	<polygon fill="#FDF0D9" points="-2535.4,2043.3 -2585.8,2113.6 -2270,2099.2 -2271,2030.2 	"/>
	<polygon fill="#FDF0D9" points="-2662,2427 -2267,2403.2 -2267,2351.1 -2585.8,2369.2 	"/>
	<polygon fill="#FDF0D9" points="-603.3,2434.5 -998.3,2410.8 -998.3,2358.7 -679.5,2376.8 	"/>
</g>
<g id="Layer_3">
	
		<rect x="-1424.6" y="-109.4" fill="url(#New_Pattern_Swatch_7)" stroke="#DE6757" stroke-width="7" stroke-miterlimit="10" width="140" height="76"/>
</g>
</svg>
