<?xml version="1.0" encoding="utf-8"?>
<!-- Generator: Adobe Illustrator 18.1.1, SVG Export Plug-In . SVG Version: 6.00 Build 0)  -->
<svg version="1.1" xmlns="http://www.w3.org/2000/svg" xmlns:xlink="http://www.w3.org/1999/xlink" x="0px" y="0px"
	 viewBox="0 0 3004 2675.2" enable-background="new 0 0 3004 2675.2" xml:space="preserve">
<pattern  x="3819.9" y="1783.2" width="139" height="150.8" patternUnits="userSpaceOnUse" id="New_Pattern" viewBox="69.5 -188.5 139 150.8" overflow="visible">
	<g>
		<polygon fill="none" points="69.5,-188.5 208.5,-188.5 208.5,-37.7 69.5,-37.7 		"/>
		<polygon fill="#C56C76" stroke="#D49B8D" stroke-width="7" stroke-miterlimit="10" points="274.5,-3.5 142.5,-3.5 142.5,-71.9 
			274.5,-71.9 		"/>
		<polygon fill="#C56C76" stroke="#D49B8D" stroke-width="7" stroke-miterlimit="10" points="135.5,-3.5 3.5,-3.5 3.5,-71.9 
			135.5,-71.9 		"/>
		<polygon fill="#C56C76" stroke="#D49B8D" stroke-width="7" stroke-miterlimit="10" points="205,-78.9 73,-78.9 73,-147.3 
			205,-147.3 		"/>
		<polygon fill="#C56C76" stroke="#D49B8D" stroke-width="7" stroke-miterlimit="10" points="274.5,-154.3 142.5,-154.3 
			142.5,-222.7 274.5,-222.7 		"/>
		<polygon fill="#C56C76" stroke="#D49B8D" stroke-width="7" stroke-miterlimit="10" points="135.5,-154.3 3.5,-154.3 3.5,-222.7 
			135.5,-222.7 		"/>
	</g>
</pattern>
<pattern  x="3819.9" y="1783.2" width="147" height="166" patternUnits="userSpaceOnUse" id="New_Pattern_2" viewBox="73.5 -207.5 147 166" overflow="visible">
	<g>
		<polygon fill="none" points="73.5,-207.5 220.5,-207.5 220.5,-41.5 73.5,-41.5 		"/>
		<polygon fill="#8BAFB2" stroke="#7A98A0" stroke-width="7" stroke-miterlimit="10" points="290.5,-3.5 150.5,-3.5 150.5,-79.5 
			290.5,-79.5 		"/>
		<polygon fill="#8BAFB2" stroke="#7A98A0" stroke-width="7" stroke-miterlimit="10" points="143.5,-3.5 3.5,-3.5 3.5,-79.5 
			143.5,-79.5 		"/>
		<polygon fill="#8BAFB2" stroke="#7A98A0" stroke-width="7" stroke-miterlimit="10" points="217,-86.5 77,-86.5 77,-162.5 
			217,-162.5 		"/>
		<polygon fill="#8BAFB2" stroke="#7A98A0" stroke-width="7" stroke-miterlimit="10" points="290.5,-169.5 150.5,-169.5 
			150.5,-245.5 290.5,-245.5 		"/>
		<polygon fill="#8BAFB2" stroke="#7A98A0" stroke-width="7" stroke-miterlimit="10" points="143.5,-169.5 3.5,-169.5 3.5,-245.5 
			143.5,-245.5 		"/>
	</g>
</pattern>
<pattern  x="3819.9" y="1783.2" width="147" height="166" patternUnits="userSpaceOnUse" id="New_Pattern_4" viewBox="73.5 -207.5 147 166" overflow="visible">
	<g>
		<polygon fill="none" points="73.5,-207.5 220.5,-207.5 220.5,-41.5 73.5,-41.5 		"/>
		<polygon fill="#C24A3D" stroke="#DE6757" stroke-width="7" stroke-miterlimit="10" points="290.5,-3.5 150.5,-3.5 150.5,-79.5 
			290.5,-79.5 		"/>
		<polygon fill="#C24A3D" stroke="#DE6757" stroke-width="7" stroke-miterlimit="10" points="143.5,-3.5 3.5,-3.5 3.5,-79.5 
			143.5,-79.5 		"/>
		<polygon fill="#C24A3D" stroke="#DE6757" stroke-width="7" stroke-miterlimit="10" points="217,-86.5 77,-86.5 77,-162.5 
			217,-162.5 		"/>
		<polygon fill="#C24A3D" stroke="#DE6757" stroke-width="7" stroke-miterlimit="10" points="290.5,-169.5 150.5,-169.5 
			150.5,-245.5 290.5,-245.5 		"/>
		<polygon fill="#C24A3D" stroke="#DE6757" stroke-width="7" stroke-miterlimit="10" points="143.5,-169.5 3.5,-169.5 3.5,-245.5 
			143.5,-245.5 		"/>
	</g>
</pattern>
<pattern  x="3819.9" y="1783.2" width="147" height="166" patternUnits="userSpaceOnUse" id="New_Pattern_Swatch_7" viewBox="73.5 -207.5 147 166" overflow="visible">
	<g>
		<polygon fill="none" points="73.5,-207.5 220.5,-207.5 220.5,-41.5 73.5,-41.5 		"/>
		<polygon fill="#C24A3D" stroke="#DE6757" stroke-width="7" stroke-miterlimit="10" points="290.5,-3.5 150.5,-3.5 150.5,-79.5 
			290.5,-79.5 		"/>
		<polygon fill="#C24A3D" stroke="#DE6757" stroke-width="7" stroke-miterlimit="10" points="143.5,-3.5 3.5,-3.5 3.5,-79.5 
			143.5,-79.5 		"/>
		<polygon fill="#C24A3D" stroke="#DE6757" stroke-width="7" stroke-miterlimit="10" points="217,-86.5 77,-86.5 77,-162.5 
			217,-162.5 		"/>
		<polygon fill="#C24A3D" stroke="#DE6757" stroke-width="7" stroke-miterlimit="10" points="290.5,-169.5 150.5,-169.5 
			150.5,-245.5 290.5,-245.5 		"/>
		<polygon fill="#C24A3D" stroke="#DE6757" stroke-width="7" stroke-miterlimit="10" points="143.5,-169.5 3.5,-169.5 3.5,-245.5 
			143.5,-245.5 		"/>
	</g>
</pattern>
<g id="Layer_1">
	<rect x="3792.5" y="1044.5" fill="#F9DCC4" width="893.9" height="1478.7"/>
	<path fill="#4B3246" d="M5129.7,2006.1c-3.4-0.1-6.7-4.1-10.1-6.3"/>
	<path fill="#4B3246" d="M4869.6,1703.2c-3.6,0.8-7.3,2.8-10.6,2.3c-7.2-1-14.3-3.3-21.4-5c8.2,0.2,16.4,0.5,24.7,0.7
		c2.2,0.1,4.4,0.1,6.6,0.1C4869.2,1701.9,4869.4,1702.6,4869.6,1703.2z"/>
	<path fill="#4B3246" d="M4686.4,703.6"/>
	<path fill="#4B3246" d="M4664.5,683.5"/>
	<path fill="#4B3246" d="M4422.9,573.4c0.7-0.4,1.5-0.9,2-1.2"/>
	<path fill="#4B3246" d="M4626.3,660.2c6.5,3.6,12.3,6.9,18.1,10.1"/>
	<path fill="#4B3246" d="M5273.3,2480.4"/>
	<path fill="#4B3246" d="M5255.3,818.2"/>
	<path fill="#4B3246" d="M4833.8,2143.7c-4.7-2.1-11.3-5-17.9-7.9c2.8-2.3,5.9-6.7,8.4-6.4c7.9,0.8,15.6,3.5,23.4,5.4
		C4844.4,2137,4841.1,2139.1,4833.8,2143.7z"/>
	<path fill="#4B3246" d="M4861.4,2117c-7.4,2.1-14.6,4.7-22.1,5.9c-3.1,0.5-6.6-2.3-10-3.5c2.1-2.4,3.9-6,6.5-6.9
		c4.1-1.4,9.1-1.9,13.4-1.1C4853.4,2112.2,4857.3,2115.1,4861.4,2117C4861.4,2117,4861.4,2117,4861.4,2117z"/>
	<path fill="#4B3246" d="M4750.3,2060.8c-0.7-6.1-1.4-12.1-2.2-18.2c7.1,1.1,14.3,2.2,21.4,3.6c0.4,0.1,0.9,2.8,0.3,3.6
		c-0.9,1.4-2.4,2.7-4,3.5c-5.2,2.7-10.6,5.2-15.8,7.7C4750,2061,4750.3,2060.8,4750.3,2060.8z"/>
	<path fill="#4B3246" d="M4770.7,917.3c6.9,1.4,13.1,2.6,19.4,3.8c-5.6,2.4-11.1,6.4-16.9,6.6c-5.4,0.2-10.9-3.5-16.4-5.4
		C4761.4,920.7,4765.9,919,4770.7,917.3z"/>
	<path fill="#4B3246" d="M4754.4,1893c6,3.3,11,6,15.9,8.7c-1.6,1.6-3.4,4.6-4.7,4.4c-7.9-1.2-15.8-3.2-23.7-4.9
		C4745.7,1898.9,4749.3,1896.4,4754.4,1893z"/>
	<path fill="#4B3246" d="M4862.1,1879c-3.9,1.8-7.6,4.2-11.6,5.1c-3.4,0.8-7.2-0.2-10.9-0.4c0.9-3.5,1.8-7.1,2.7-10.6
		c6.5,2.1,13,4.1,19.6,6.2C4861.9,1879.2,4862.1,1879,4862.1,1879z"/>
	<path fill="#4B3246" d="M4783.1,2190.8c-7.1-3.3-12.9-6-18.7-8.7c1.9-0.9,3.9-2.8,5.5-2.5c7.5,1.4,14.9,3.5,22.3,5.3
		C4789.5,2186.8,4786.7,2188.6,4783.1,2190.8z"/>
	<path fill="#4B3246" d="M4749.2,1926.4c-4.2,0.5-8.5,1.1-12.7,1.6c-3.9,0.4-7.8,0.8-11.6,1.2c0.4-1.9,0.3-5.2,1.3-5.5
		c4.3-1.6,8.9-2.9,13.4-3.3c3.3-0.3,6.9,0.4,10.1,1.4c3.8,1.2,7.4,3.1,11.1,4.8c-3.8,0.3-7.7,0.7-11.5,1
		C4749.2,1927.1,4749.2,1926.7,4749.2,1926.4z"/>
	<path fill="#4B3246" d="M4843.3,1893.1c1.9,4.9,4.2,8.2,4,11.3c-0.1,1.7-4.6,4.6-7,4.4c-5.3-0.4-10.4-2.4-15.6-3.7
		C4830.3,1901.5,4835.9,1897.8,4843.3,1893.1z"/>
	<path fill="#4B3246" d="M4851.2,1607.6c-3.5,2.2-7.6,6.8-10.4,6.1c-3.9-1-6.7-6-10-9.2c3.7,0.5,7.5,1,11.2,1.6c3,0.5,6,1.2,9,1.7
		C4851.1,1607.8,4851.2,1607.6,4851.2,1607.6z"/>
	<path fill="#4B3246" d="M4802.4,927.7c-3.1-2.7-5.8-4.9-8.1-7.5c-0.2-0.3,2.7-4.5,3.5-4.3c6.5,1.6,12.9,3.9,19.3,5.9
		C4812.9,923.6,4808.7,925.2,4802.4,927.7z"/>
	<path fill="#4B3246" d="M4766.9,1333.2c-8-1-14-1.7-19.9-2.4c4.7-2.4,9.3-5.8,14.3-6.9c2.9-0.6,6.6,2.4,10,3.8
		C4769.6,1329.7,4767.9,1331.8,4766.9,1333.2z"/>
	<path fill="#4B3246" d="M4853.4,2060.4c1.8,2.6,3.8,5.5,3.7,5.6c-4.2,3.3-8.3,7-13,9.3c-1.5,0.7-4.8-2.1-7.2-3.2
		C4842,2068.4,4847.2,2064.8,4853.4,2060.4z"/>
	<path fill="#4B3246" d="M4747.8,2007.9c2.7,2.4,6.3,4.6,6,5.6c-1.3,4-3.7,7.7-5.7,11.5c-3.4-3-6.8-6-10.1-9
		C4740.9,2013.5,4743.9,2011,4747.8,2007.9z"/>
	<path fill="#4B3246" d="M4806.3,2153.3c6,2,10.1,3.4,14.3,4.7c-2.1,1.3-4.2,3.5-6.3,3.6c-6.9,0.1-13.8-0.5-20.7-0.9
		C4798,2158.2,4802.4,2155.6,4806.3,2153.3z"/>
	<path fill="#4B3246" d="M4800.9,2353.8c-1.7-1-5.2-3.1-8.7-5.2c3.6-1.8,7.5-5.5,10.8-5.1c4.9,0.6,9.4,4.1,14,6.4
		C4812.2,2351,4807.3,2352.2,4800.9,2353.8z"/>
	<path fill="#4B3246" d="M4831.2,2096c-3.1-1.7-5.6-2.9-5.5-3c1.5-3.8,3.3-7.6,5.1-11.3c2.9,2.3,5.9,4.6,8.8,6.9
		C4836.7,2091,4833.9,2093.5,4831.2,2096z"/>
	<path fill="#4B3246" d="M4866.4,1790.3c-9.6,2.1-14.8,4.4-19.6,3.9c-3.3-0.3-6.2-4.6-9.3-7.2c0.9-0.8,2-2.5,2.8-2.3
		C4847.4,1786,4854.6,1787.7,4866.4,1790.3z"/>
	<path fill="#4B3246" d="M4795.3,2068.2c5.1,0.5,11,1,16.9,1.6c-3.7,1.6-7.3,4.3-11,4.4c-4.5,0.1-9-2.1-13.5-3.3
		C4789.8,2070.1,4792,2069.4,4795.3,2068.2z"/>
	<path fill="#4B3246" d="M4750,2061c1.8,2.9,3.7,5.8,5.5,8.7c-2.9,0.5-6.3,2.2-8.6,1.2c-3.6-1.6-6.4-4.9-9.5-7.5
		c2.9,0.6,5.9,1.7,8.7,1.4c1.5-0.1,2.7-2.6,4.1-4.1C4750.3,2060.8,4750,2061,4750,2061z"/>
	<path fill="#4B3246" d="M4816,1283.2c-4.1,4.6-7.6,8.4-11.1,12.2c-1.5-2-4.6-5.3-4.2-5.8c2.3-3,5.2-6.1,8.6-7.8
		C4811,1281,4814.1,1282.8,4816,1283.2z"/>
	<path fill="#4B3246" d="M4852.3,2041.2c-3.5,3-5.2,5-7.3,6.1c-0.8,0.4-3.8-1.3-3.7-1.7c0.6-4.9,1.6-9.8,2.5-14.7
		C4846.2,2033.9,4848.7,2036.8,4852.3,2041.2z"/>
	<path fill="#4B3246" d="M4835,983.4c-3.6,2.3-6.9,4.9-7.3,4.5c-2.3-2.1-5.7-5.6-5.2-7.5c0.8-2.8,4.8-4.7,7.4-7
		C4831.2,975.9,4832.5,978.5,4835,983.4z"/>
	<path fill="#4B3246" d="M4836.3,1774.7c-3.3-2.7-5.5-4.6-7.7-6.4c3.3-2.4,6.5-4.8,9.8-7.2c1.6,2.5,4.3,5,4.6,7.6
		C4843.1,1770.2,4839.3,1772.1,4836.3,1774.7z"/>
	<path fill="#4B3246" d="M4787.6,2359.1c-3-2.5-6.5-5.6-10.1-8.6c1.2-1.2,3.2-3.5,3.5-3.3c4.8,3.1,9.4,6.5,14,9.8
		C4793.3,2357.5,4791.6,2358,4787.6,2359.1z"/>
	<path fill="#4B3246" d="M4797.7,1324c2.8,1.7,4.5,2.8,6.3,3.8c-2.9,1.8-5.6,4.2-8.8,5.1c-1.2,0.4-3.4-2.2-5.2-3.5
		C4792.4,1327.8,4794.7,1326.2,4797.7,1324z"/>
	<path fill="#4B3246" d="M4733.4,1901.5c-2.8,1.8-4.5,3.8-5.6,3.5c-3.3-0.8-6.4-2.5-9.6-3.9c2.7-2,5.1-4.7,8.2-5.7
		C4727.6,1895.1,4730.1,1898.5,4733.4,1901.5z"/>
	<path fill="#4B3246" d="M4852.7,1992.2c-6.3,7.6-7.8,9.4-9.3,11.2c-2-4.5-4-9-5.7-13.6c-0.2-0.5,2-2.7,2.6-2.5
		C4844.2,1988.6,4848,1990.3,4852.7,1992.2z"/>
	<path fill="#4B3246" d="M4804.8,1830.4c4.3,1.4,7.9,2.5,11.5,3.6c-2.3,1.1-4.7,3.3-7,3.2c-3.6-0.2-7-2-10.5-3.2
		C4800.8,1832.9,4802.7,1831.7,4804.8,1830.4z"/>
	<path fill="#CAB9AA" d="M3608.2,627.1c0,0-0.1,0-0.1,0c0,0.1-0.1,0.2-0.1,0.2L3608.2,627.1z"/>
	<path fill="#4B3246" d="M3823.6,520.5c0.1-0.1,0.1-0.2,0.2-0.2c0,0-0.1,0-0.1,0C3823.7,520.3,3823.6,520.4,3823.6,520.5z"/>
	<path fill="#4B3246" d="M3594.9,666.7"/>
	<path fill="#4B3246" d="M3616.8,655c-2.9-9.3-5.7-18.6-8.6-27.9"/>
	<path fill="#4B3246" d="M3657,611.5"/>
	<path fill="#4B3246" d="M3667.8,633.1"/>
	<path fill="#4B3246" d="M3654.4,2319.7c2.4,0,5.5-0.9,7.9,0.1c3.8,1.5,7.2,4.2,10.7,6.4c-3.7,1.9-7.4,4-11.3,5.5
		C3661.4,2331.9,3659.5,2328,3654.4,2319.7z"/>
	<path fill="#4B3246" d="M4342.1,812.6c6.2,3.3,11.8,6.2,17.5,9.2c-1.2,0.9-2.8,2.8-3.5,2.5c-6-2.2-11.8-4.9-17.7-7.4
		C4339.5,815.6,4340.6,814.3,4342.1,812.6z"/>
	<path fill="#4B3246" d="M4099.2,804.2c-3.8-1.7-7.3-3.3-10.9-4.9c3.9-0.8,7.7-2.2,11.6-2.2c3.1,0.1,6.2,1.9,9.3,3
		C4106,801.4,4102.9,802.7,4099.2,804.2z"/>
	<path fill="#4B3246" d="M4897.8,2317.9"/>
	<path fill="#4B3246" d="M4930.7,2327.8"/>
	<path fill="#4B3246" d="M4900,2296.8c-2.6,0.1-5.3-3.1-7.9-4.9"/>
	<g id="HAobQW.tif">
		
			<image overflow="visible" width="177" height="56" id="Layer_0_1_" xlink:href="66F03D3C44BEC609.png"  transform="matrix(2.8342 0 0 1.6071 3392.3152 127.2105)">
		</image>
	</g>
	<g id="_x33_wBwi4.tif">
		
			<image overflow="visible" width="410" height="280" id="Layer_0_2_" xlink:href="66F03D3C44BEC60A.png"  transform="matrix(2.6822 0 0 2.6822 460.2607 591.6832)">
		</image>
	</g>
	<path fill="#EEE5D5" d="M3912.7,1105.1h641.8c26.4,0,48,21.6,48,48v1370.1h-737.8V1153.1
		C3864.7,1126.7,3886.3,1105.1,3912.7,1105.1z"/>
	<path fill="#C56C76" d="M4598.7,1156.1h-737.8v-3c0-26.4,21.6-48,48-48h641.8c26.4,0,48,21.6,48,48V1156.1z"/>
	<path fill="none" d="M3594.3,1306.7c1.8-13.7,5.5-27.2,10.7-40c6.3-0.4,9.4-6,10-12.4"/>
	<line fill="none" stroke="#788E92" stroke-width="20" stroke-miterlimit="10" x1="3792.5" y1="1035.3" x2="4673" y2="1035.3"/>
	<path fill="url(#New_Pattern)" d="M4875.7,916c2.7-6.3,2.9-12.5-1.3-17c-90.6-95.5-381.8-353.7-657.5-353.7
		c-266.4,0-525.2,247.3-621.3,350.1h-12.2v13.8c-4,6.6-3.6,14.4,0,20.5v1673.1h209.1V939.5h893.6v1450.3h200.3V916H4875.7z"/>
	<rect x="3580.6" y="590.1" fill="#D49B8D" width="1294.1" height="449"/>
	<polygon fill="#C56C76" stroke="#C56C76" stroke-miterlimit="10" points="3792.5,1044.5 3730.8,939.5 4737.9,939.5 4686.4,1044.5 	
		"/>
	<g id="XMLID_3_">
		<g>
			<path fill="#C56C76" d="M4847.5,824.3c0,0-299-302.6-623.3-302.6s-611.7,313.9-611.7,313.9l-316.2-15.1l0.1-64.8l298.8,3.6
				c0,0,236.7-291.5,630.8-294.1c376.6-2.5,656.9,301.4,656.9,301.4h285.8v50.8L4847.5,824.3z"/>
		</g>
		<g>
		</g>
	</g>
	<path fill="#F9DCC4" d="M3730.8,940.8h1007.1c0,0-254.4-237.3-508.4-237.3S3730.8,940.8,3730.8,940.8z"/>
	<polygon fill="#FDF0D9" points="4239.5,917.3 4217.9,922.6 4187.8,738.9 4271.8,738.9 	"/>
	<polygon fill="#FDF0D9" points="4292.4,915.8 4270.6,912.7 4299.3,748.6 4378.1,777.9 	"/>
	<polygon fill="#FDF0D9" points="4170.9,913 4151.1,922.7 4082.2,769.6 4163.7,749.4 	"/>
	<rect x="5994.9" y="217.4" fill="#DE6757" width="893.9" height="1548.4"/>
	<path fill="#4B3246" d="M6440.9,97.4c0.7-0.4,1.5-0.9,2-1.2"/>
	<path fill="#4B3246" d="M7497.3,2004.4"/>
	<path fill="#4B3246" d="M7137.6-272.7"/>
	<path fill="#CAB9AA" d="M6442,151.1c0,0-0.1,0-0.1,0c0,0.1-0.1,0.2-0.1,0.2L6442,151.1z"/>
	<path fill="#4B3246" d="M6441.8,44.5c0.1-0.1,0.1-0.2,0.2-0.2c0,0-0.1,0-0.1,0C6441.9,44.3,6441.8,44.4,6441.8,44.5z"/>
	<path fill="#4B3246" d="M6441.9,190.7"/>
	<path fill="#4B3246" d="M6446.2,179c-2.9-9.3-5.7-18.6-8.6-27.9"/>
	<path fill="#4B3246" d="M6441.9,135.5"/>
	<path fill="#4B3246" d="M6441.9,157.1"/>
	<path fill="none" d="M6431.6,479.6c1.8-13.7,5.5-27.2,10.7-40c6.3-0.4,9.4-6,10-12.4"/>
	<linearGradient id="SVGID_1_" gradientUnits="userSpaceOnUse" x1="6119.6455" y1="1674.7751" x2="6753.5698" y2="358.3571">
		<stop  offset="0" style="stop-color:#D8AB6C"/>
		<stop  offset="1" style="stop-color:#FFD67E"/>
	</linearGradient>
	<path fill="url(#SVGID_1_)" d="M6121,278h641.8c26.4,0,48,21.6,48,48v1370.1H6073V326C6073,299.6,6094.6,278,6121,278z"/>
	<path fill="#913433" d="M6810.8,329H6073v-3c0-26.4,21.6-48,48-48h641.8c26.4,0,48,21.6,48,48V329z"/>
	<rect x="0" y="-196.8" fill="#FFFEF1" width="3004" height="2872"/>
	<g>
		<path fill="#4B3246" d="M7387.2-597.9"/>
		<path fill="#4B3246" d="M7042.9-488.9c6.2,3.3,11.8,6.2,17.5,9.2c-1.2,0.9-2.8,2.8-3.5,2.5c-6-2.2-11.8-4.9-17.7-7.4
			C7040.3-485.9,7041.4-487.2,7042.9-488.9z"/>
		<path fill="#4B3246" d="M6799.9-497.3c-3.8-1.7-7.3-3.3-10.9-4.9c3.9-0.8,7.7-2.2,11.6-2.2c3.1,0.1,6.2,1.9,9.3,3
			C6806.8-500.1,6803.6-498.8,6799.9-497.3z"/>
		<path fill="#F9DCC4" d="M6431.6-360.7h1007.1c0,0-254.4-237.3-508.4-237.3S6431.6-360.7,6431.6-360.7z"/>
		<polygon fill="#FDF0D9" points="6940.2,-384.2 6918.7,-378.9 6888.5,-562.6 6972.5,-562.6 		"/>
		<polygon fill="#FDF0D9" points="6993.2,-385.7 6971.3,-388.8 7000.1,-552.8 7078.8,-523.6 		"/>
		<polygon fill="#FDF0D9" points="6871.7,-388.5 6851.9,-378.8 6783,-531.9 6864.5,-552.1 		"/>
	</g>
	<rect x="0" y="-196.8" fill="url(#New_Pattern_2)" width="3004" height="2872"/>
	<rect x="0" y="2157.6" fill="url(#New_Pattern)" width="3004" height="268.6"/>
	<g id="_x33_wBwi4.tif_1_">
		
			<image overflow="visible" width="410" height="280" id="Layer_0_4_" xlink:href="66F03D3C44BEC60B.png"  transform="matrix(2.6822 0 0 2.6822 7478.5146 591.6832)">
		</image>
	</g>
	<rect x="7018.3" y="-196.8" fill="#FFFEF1" width="3004" height="2872"/>
	<pattern  id="SVGID_2_" xlink:href="#New_Pattern_4" patternTransform="matrix(1 0 0 1 109.2542 0)">
	</pattern>
	<rect x="7018.3" y="-196.8" fill="url(#SVGID_2_)" width="3004" height="2872"/>
	<rect x="5864.9" y="17" fill="#913433" width="1133.4" height="118.5"/>
	<g id="tTWrGk.tif">
		
			<image overflow="visible" width="204" height="41" id="Layer_0_3_" xlink:href="66F03D3C44BEC60C.png"  transform="matrix(4.935 0 0 4.935 5428.7856 -399.1235)">
		</image>
	</g>
	<g>
		<path fill="#CAB9AA" d="M6750.8,389v1242.1H6133V389H6750.8 M6808.7,329h-733.7c-1.1,0-2.1,0.9-2.1,2.1v1358
			c0,1.1,0.9,2.1,2.1,2.1h733.7c1.1,0,2.1-0.9,2.1-2.1v-1358C6810.8,329.9,6809.9,329,6808.7,329L6808.7,329z"/>
	</g>
	
		<rect x="6107" y="1288.5" fill="none" stroke="#CAB9AA" stroke-width="60" stroke-linecap="square" stroke-miterlimit="10" width="676" height="376"/>
	
		<line fill="none" stroke="#CAB9AA" stroke-width="60" stroke-linecap="square" stroke-miterlimit="10" x1="6431.6" y1="378.9" x2="6431.6" y2="1665"/>
	<rect x="5866.2" y="1760.9" fill="#D49B8D" width="1133.4" height="96.2"/>
	<polygon fill="#913433" points="5866.2,1857.1 5938.7,1920.2 6916.5,1924.6 6999.6,1857.1 	"/>
</g>
<g id="Layer_5">
	<path fill="#FFFFFF" stroke="#000000" stroke-miterlimit="10" d="M9371.9,5227.2"/>
	<path fill="#68536F" stroke="#68536F" stroke-width="12" stroke-linecap="square" stroke-miterlimit="10" d="M8297.7,4287.4h-60.4
		v-326.4c0-14,11.4-25.4,25.4-25.4h35.1c14,0,25.4,11.4,25.4,25.4v301C8323.1,4276.1,8311.7,4287.4,8297.7,4287.4z"/>
	
		<polygon fill="#788E92" stroke="#788E92" stroke-width="12" stroke-linecap="round" stroke-linejoin="round" stroke-miterlimit="10" points="
		7989.3,3235.6 8536,3235.6 8361.6,3120.6 8172.1,3120.6 	"/>
	<polygon fill="#C0B2A8" stroke="#EEE5D5" stroke-width="20" stroke-miterlimit="10" points="8138.1,3717.5 7989.3,3235.6 
		8536,3235.6 8422.2,3717.5 8422.2,3947.5 8138.1,3947.5 	"/>
	
		<line fill="#C0B2A8" stroke="#EEE5D5" stroke-width="20" stroke-miterlimit="10" x1="8138.1" y1="3717.5" x2="8422.2" y2="3717.5"/>
	
		<line fill="#C0B2A8" stroke="#EEE5D5" stroke-width="20" stroke-miterlimit="10" x1="8204.5" y1="3717.5" x2="8204.5" y2="3947.5"/>
	
		<line fill="#C0B2A8" stroke="#EEE5D5" stroke-width="20" stroke-miterlimit="10" x1="8339.8" y1="3717.5" x2="8339.8" y2="3947.5"/>
	
		<line fill="#C0B2A8" stroke="#EEE5D5" stroke-width="20" stroke-miterlimit="10" x1="8339.8" y1="3717.5" x2="8387.2" y2="3235.6"/>
	
		<line fill="#C0B2A8" stroke="#EEE5D5" stroke-width="20" stroke-miterlimit="10" x1="8204.5" y1="3717.5" x2="8140.4" y2="3235.6"/>
	
		<path fill="#788E92" stroke="#788E92" stroke-width="12" stroke-linecap="round" stroke-linejoin="round" stroke-miterlimit="10" d="
		M8339.4,3093.5c0-42-31.1-76.1-79.5-76.1c-43.9,0-79.5,34.1-79.5,76.1s35.6,76.1,79.5,76.1S8339.4,3135.6,8339.4,3093.5z"/>
	<rect x="8229.2" y="3959.9" fill="#68536F" width="102.1" height="57"/>
	
		<polygon fill="#68536F" stroke="#68536F" stroke-width="12" stroke-linecap="round" stroke-linejoin="round" stroke-miterlimit="10" points="
		8140.9,7243.4 8433.5,7243.4 8433.5,6357.3 8365.9,6282.9 8365.9,4016.9 8190,4016.9 8190,6289.7 8140.4,6362.6 	"/>
	<path fill="#68536F" stroke="#FFFFFF" stroke-linecap="round" stroke-miterlimit="10" d="M8135.4,6362.6l0.5,880.8h301v-886.1
		l-126.6,34.1c-15.8,4.3-32.5,4.5-48.5,0.8L8135.4,6362.6z"/>
	<ellipse fill="#788E92" cx="8249.1" cy="3079.8" rx="68.3" ry="66.2"/>
	
		<path fill="#788E92" stroke="#788E92" stroke-width="12" stroke-linecap="round" stroke-linejoin="round" stroke-miterlimit="10" d="
		M8190,6289.7l-54.6,72.9c164.5,60.5,301.5-5.3,301.5-5.3l-66-67.6H8190z"/>
</g>
<g id="Layer_2">
	<polyline fill="#F9DCC4" points="4866.6,2619.4 5301.6,2636 5258.6,2451.5 5182.5,2409.3 5180.5,2138.1 5130,2067.9 5114.5,1116.2 
		5149.4,1080.6 5116.9,1046.7 5109.4,893.8 4852,893.8 	"/>
	<rect x="4926.2" y="939.1" fill="#FDF0D9" width="135.6" height="92.6"/>
	<rect x="4874.5" y="1046.7" fill="#FDF0D9" width="238.9" height="66.5"/>
	<rect x="4938" y="1396.5" fill="#FDF0D9" width="112" height="378.6"/>
	<circle fill="#FDF0D9" cx="4994" cy="1220.4" r="48"/>
	<polygon fill="#FDF0D9" points="5135,2067.9 5185.5,2138.1 4869.6,2123.8 4870.6,2054.7 	"/>
	
		<line fill="#D49B8D" stroke="#D49B8D" stroke-width="40" stroke-miterlimit="10" x1="4233.6" y1="1155.8" x2="4233.6" y2="2523.2"/>
	<path fill="#C56C76" d="M3296.3,819.4h295.8c0,0,304.4-305.7,632.1-305.7s639.7,302.6,639.7,302.6h304.8l-59.3,77.5H4852
		c0,0-349.4-303.7-625.7-303.7c-276.3,0-623.7,305.3-623.7,305.3l-254.6-1.2L3296.3,819.4z"/>
	<path fill="#F9DCC4" d="M4508.4,461.8c-3.4-2.8-7.1-5-11-6.8c-1.2-1.3-2.4-2.6-3.7-3.8c2.4-1.8,3.3-5.3,0.1-7.7
		c-0.6-0.4-1.2-0.8-1.8-1.2c-2.1-1.6-3.5-3.6-4.5-6.4c-2.1-5.8-10.6-2.4-9.4,3.3c-1.9,0.2-3.8,0.7-5.6,1.4c-4,1.5-3.8,7.7,0.1,9.2
		c0.2,0.1,0.4,0.2,0.6,0.3c-6,0.2-12,1.3-17.8,3.5c-2.1,0.8-3.3,3.5-2.9,5.7c-0.2,0-0.4,0-0.5-0.1c0-1.8-1-3.5-3.1-4.1
		c-7.2-2.1-14.5-4-21.8-5.9c1.4-2.5,0.8-6.2-2.3-7.4c-20.8-7.9-42.1-14.3-63.8-19c-0.7-0.5-1.4-0.9-2.2-1c-2.2-0.4-4.5-0.6-6.7-0.8
		c-15.1-3-30.3-5.1-45.6-6.5c-6.4-0.6-7.6,9.4-1.2,9.9c1.1,0.1,2.3,0.2,3.4,0.3c-3.7,1-7.4,2.3-11.1,3.7c-2.1,0.1-4.1,0.1-6.2,0.3
		c-6.4,0.5-4.9,10.3,1.5,9.9c0.3,0,0.6,0,0.9,0c0.2,0.1,0.5,0.2,0.8,0.3c0.8,0.2,1.6,0.5,2.5,0.7c-3,2.7-2.7,8.6,2.3,8.6h28
		c1.1,0,2.1-0.3,2.9-0.8c6.4,1.2,12.9,2.2,19.4,3c27.1,14.6,56.3,24.9,86.7,30.3c7.9,2.6,16.7,3.7,23.3-1.4
		c8.7-0.4,17.3-1.6,25.8-3.5c1.4-0.3,2.6-1.3,3.3-2.6c5.8-0.4,11.6-1.2,17.4-2.4C4510.3,469.9,4511.8,464.6,4508.4,461.8z
		 M4469.4,460.3c2.3-0.3,4.6-0.4,6.9-0.3C4474,460.1,4471.7,460.2,4469.4,460.3z M4453.3,469.4c-4.2,0.1-8.5-0.1-12.7-0.4
		c0.2-0.4,0.4-0.8,0.5-1.2C4445.2,468.3,4449.2,468.8,4453.3,469.4z M4380,452.7c4,1.8,8,3.5,12.1,5.1c-0.2,0.2-0.4,0.3-0.6,0.5
		c-4.9-1.8-9.7-3.7-14.4-5.7C4378,452.6,4379,452.7,4380,452.7z M4358.3,432.5c11.8,2.5,23.5,5.6,35,9.1c-7.8-1.6-15.6-3-23.4-4.3
		c-3.4-0.6-5.3,1.9-5.4,4.6c-1.9-0.2-3.7-0.3-5.6-0.5c-2.9-1.4-5.9-2.7-8.9-3.9C4352.8,435.8,4355.5,434.1,4358.3,432.5z
		 M4328.1,431.1c4.8-0.5,9.6-0.8,14.5-0.7c-0.3,0.2-0.7,0.4-1,0.6c-1.1,0.7-1.8,1.6-2,2.5c-0.5-0.1-1-0.1-1.5,0
		C4334.8,432.6,4331.5,431.7,4328.1,431.1z"/>
	<path fill="#F9DCC4" d="M3642.3,628c-3.8-0.5-7.6-0.9-11.5-1.2c1.2-4.3-3.4-9.4-7.6-5.7l-5.5,4.8c-32.3-1.5-64.8,2.1-96.1,10.7
		c-4.3,1.2-5.7,7.9-1.8,9.6c-10.9-0.4-21.8-1.5-32.7-3.4c-6.3-1.1-7.5,8.8-1.2,9.9c27.9,4.9,56.6,4.9,84.5,0.2c0.1,2.5,1.6,5,4.3,5
		c12.2,0.1,23.6-3.2,33.8-9.8c-1.5,3.3-3,6.6-4.5,9.9c-1.7,4,2.7,8.2,6.6,6.5c9.6-4.2,15.3-14.6,13.3-24.9l18.4-1.6
		C3648.2,637.4,3647.8,628.7,3642.3,628z"/>
	<path fill="#F9DCC4" d="M4538.8,414.8c-4-1.8-8-3.5-12-5.3c-0.2-1.1-0.7-2.2-1.7-3.1c-9.2-8.2-19.9-14.3-31.6-17.9
		c-3.1-1-5.6,0.9-6.5,3.3l-20.6-9.1c-5.9-2.6-9.6,6.7-3.8,9.3l72.4,32.2C4541,426.7,4544.7,417.4,4538.8,414.8z"/>
	<path fill="#F9DCC4" d="M4507.3,476c-5-0.6-6.8,5.4-4.3,8.4c-4.5,0.8-6.4,7.7-1.2,9.5c4.4,1.5,8.7,2.9,13.1,4.4c3,1,6.5-0.7,6.9-4
		C4522.8,485.4,4516.2,477,4507.3,476z"/>
	<path fill="#F9DCC4" d="M4656.4,561.2c1.6,0,3.1,0,4.7-0.1c1.3,1.7,2.4,3.6,3.3,5.6C4661.7,564.8,4659,563,4656.4,561.2z
		 M4697.6,543.7c-1.6,0.6-3.3,1.2-5,1.7c-1.6-1.9-3-4-3.2-6C4692.5,540.2,4695.3,541.6,4697.6,543.7z M4709.4,577.8L4709.4,577.8
		c-1-0.8-2.1-1-3.2-0.9c-7.3-2.2-14.7-4.4-22-6.5c-0.9-0.3-1.7-0.3-2.5-0.2l-1.9-2.3c-1.4-1.7-3.2-2.1-5-1.7
		c-0.7-2.1-1.6-4.1-2.6-6.1c5.7-0.7,11.4-1.8,17-3.3c4,4.1,8.3,7.7,11.2,10.5c3.7,3.7,7.4,7.4,11.2,11.1
		C4710.9,578.3,4710.1,578,4709.4,577.8z M4707.7,552.3c-2.6,0-4.5,1.4-5.2,3.3c-0.7-0.7-1.5-1.5-2.2-2.2c2.4-0.9,4.7-1.8,7.1-2.8
		c0.9-0.4,1.6-1.1,2.2-1.9c1.3,1.4,2.5,2.7,3.7,4.1C4711.4,552.5,4709.6,552.3,4707.7,552.3z M4954.5,674.6
		c-0.4-0.4-0.8-0.7-1.2-1.1c0.8,0,1.6,0.1,2.5,0.1C4955.3,673.9,4954.9,674.2,4954.5,674.6z M5097.6,736.8c-0.2,0.1,0.5,1,0.5,2.1
		c-0.2,0-0.5,0-0.9,0C5096.9,738.2,5096.8,737.3,5097.6,736.8z M5033.1,718.8c-0.4,1.6-0.5,3.4-0.4,5.4c0.1,0.9,0.2,1.8,0.4,2.7
		c-6.6-2.1-13.1-4.6-19.4-7.6C5020.2,719.5,5026.7,719.3,5033.1,718.8z M4989.5,657.7c-6.6-1.2-13.1-2.6-19.6-4.3
		c12.8,0.2,25.5,1.4,38.1,3.6C5001.8,657.6,4995.7,657.8,4989.5,657.7z"/>
	<path fill="#F9DCC4" d="M3296.4,755.6l298.8,3.6c0,0,292.5-294.1,630.8-294.1s656.9,301.4,656.9,301.4h285.8l36.3-116.9h-258.8
		c0,0-360.3-337.4-735.3-337.4s-678.3,308.3-678.3,308.3h-275.9L3296.4,755.6z"/>
	<rect x="3563" y="2359.6" fill="#F9DCC4" width="1337" height="243.8"/>
	<polyline fill="#F9DCC4" points="3597.9,2611.9 3162.8,2628.4 3205.9,2443.9 3282,2401.7 3284,2130.6 3334.4,2060.3 3350,1108.6 
		3315.1,1073 3347.5,1039.2 3348.6,892.7 3602.5,895.4 	"/>
	<rect x="3402.7" y="931.6" fill="#FDF0D9" width="135.6" height="92.6"/>
	<rect x="3351.1" y="1039.2" fill="#FDF0D9" width="238.9" height="66.5"/>
	<rect x="3414.5" y="1388.9" fill="#FDF0D9" width="112" height="378.6"/>
	<circle fill="#FDF0D9" cx="3470.5" cy="1212.8" r="48"/>
	<polygon fill="#FDF0D9" points="3329.4,2060.3 3279,2130.6 3594.9,2116.2 3593.9,2047.2 	"/>
	<polygon fill="#FDF0D9" points="3202.9,2443.9 3597.9,2420.2 3597.9,2368.1 3279.1,2386.2 	"/>
	<polygon fill="#FDF0D9" points="5261.6,2451.5 4866.6,2427.8 4866.6,2375.7 5185.4,2393.8 	"/>
</g>
<g id="Layer_3">
	
		<rect x="4440.3" y="-92.4" fill="url(#New_Pattern_Swatch_7)" stroke="#DE6757" stroke-width="7" stroke-miterlimit="10" width="140" height="76"/>
</g>
</svg>
