<?xml version="1.0" encoding="utf-8"?>
<!-- Generator: Adobe Illustrator 18.1.1, SVG Export Plug-In . SVG Version: 6.00 Build 0)  -->
<svg version="1.1" xmlns="http://www.w3.org/2000/svg" xmlns:xlink="http://www.w3.org/1999/xlink" x="0px" y="0px"
	 viewBox="0 0 2865.2 2826.1" enable-background="new 0 0 2865.2 2826.1" xml:space="preserve">
<pattern  x="-3276.6" y="1952.9" width="139" height="150.8" patternUnits="userSpaceOnUse" id="New_Pattern" viewBox="69.5 -188.5 139 150.8" overflow="visible">
	<g>
		<polygon fill="none" points="69.5,-188.5 208.5,-188.5 208.5,-37.7 69.5,-37.7 		"/>
		<polygon fill="#C56C76" stroke="#D49B8D" stroke-width="7" stroke-miterlimit="10" points="274.5,-3.5 142.5,-3.5 142.5,-71.9 
			274.5,-71.9 		"/>
		<polygon fill="#C56C76" stroke="#D49B8D" stroke-width="7" stroke-miterlimit="10" points="135.5,-3.5 3.5,-3.5 3.5,-71.9 
			135.5,-71.9 		"/>
		<polygon fill="#C56C76" stroke="#D49B8D" stroke-width="7" stroke-miterlimit="10" points="205,-78.9 73,-78.9 73,-147.3 
			205,-147.3 		"/>
		<polygon fill="#C56C76" stroke="#D49B8D" stroke-width="7" stroke-miterlimit="10" points="274.5,-154.3 142.5,-154.3 
			142.5,-222.7 274.5,-222.7 		"/>
		<polygon fill="#C56C76" stroke="#D49B8D" stroke-width="7" stroke-miterlimit="10" points="135.5,-154.3 3.5,-154.3 3.5,-222.7 
			135.5,-222.7 		"/>
	</g>
</pattern>
<pattern  x="-3276.6" y="1952.9" width="147" height="166" patternUnits="userSpaceOnUse" id="New_Pattern_2" viewBox="73.5 -207.5 147 166" overflow="visible">
	<g>
		<polygon fill="none" points="73.5,-207.5 220.5,-207.5 220.5,-41.5 73.5,-41.5 		"/>
		<polygon fill="#8BAFB2" stroke="#7A98A0" stroke-width="7" stroke-miterlimit="10" points="290.5,-3.5 150.5,-3.5 150.5,-79.5 
			290.5,-79.5 		"/>
		<polygon fill="#8BAFB2" stroke="#7A98A0" stroke-width="7" stroke-miterlimit="10" points="143.5,-3.5 3.5,-3.5 3.5,-79.5 
			143.5,-79.5 		"/>
		<polygon fill="#8BAFB2" stroke="#7A98A0" stroke-width="7" stroke-miterlimit="10" points="217,-86.5 77,-86.5 77,-162.5 
			217,-162.5 		"/>
		<polygon fill="#8BAFB2" stroke="#7A98A0" stroke-width="7" stroke-miterlimit="10" points="290.5,-169.5 150.5,-169.5 
			150.5,-245.5 290.5,-245.5 		"/>
		<polygon fill="#8BAFB2" stroke="#7A98A0" stroke-width="7" stroke-miterlimit="10" points="143.5,-169.5 3.5,-169.5 3.5,-245.5 
			143.5,-245.5 		"/>
	</g>
</pattern>
<pattern  x="-3276.6" y="1952.9" width="147" height="166" patternUnits="userSpaceOnUse" id="New_Pattern_4" viewBox="73.5 -207.5 147 166" overflow="visible">
	<g>
		<polygon fill="none" points="73.5,-207.5 220.5,-207.5 220.5,-41.5 73.5,-41.5 		"/>
		<polygon fill="#C24A3D" stroke="#DE6757" stroke-width="7" stroke-miterlimit="10" points="290.5,-3.5 150.5,-3.5 150.5,-79.5 
			290.5,-79.5 		"/>
		<polygon fill="#C24A3D" stroke="#DE6757" stroke-width="7" stroke-miterlimit="10" points="143.5,-3.5 3.5,-3.5 3.5,-79.5 
			143.5,-79.5 		"/>
		<polygon fill="#C24A3D" stroke="#DE6757" stroke-width="7" stroke-miterlimit="10" points="217,-86.5 77,-86.5 77,-162.5 
			217,-162.5 		"/>
		<polygon fill="#C24A3D" stroke="#DE6757" stroke-width="7" stroke-miterlimit="10" points="290.5,-169.5 150.5,-169.5 
			150.5,-245.5 290.5,-245.5 		"/>
		<polygon fill="#C24A3D" stroke="#DE6757" stroke-width="7" stroke-miterlimit="10" points="143.5,-169.5 3.5,-169.5 3.5,-245.5 
			143.5,-245.5 		"/>
	</g>
</pattern>
<pattern  x="-3276.6" y="1952.9" width="147" height="166" patternUnits="userSpaceOnUse" id="New_Pattern_Swatch_7" viewBox="73.5 -207.5 147 166" overflow="visible">
	<g>
		<polygon fill="none" points="73.5,-207.5 220.5,-207.5 220.5,-41.5 73.5,-41.5 		"/>
		<polygon fill="#C24A3D" stroke="#DE6757" stroke-width="7" stroke-miterlimit="10" points="290.5,-3.5 150.5,-3.5 150.5,-79.5 
			290.5,-79.5 		"/>
		<polygon fill="#C24A3D" stroke="#DE6757" stroke-width="7" stroke-miterlimit="10" points="143.5,-3.5 3.5,-3.5 3.5,-79.5 
			143.5,-79.5 		"/>
		<polygon fill="#C24A3D" stroke="#DE6757" stroke-width="7" stroke-miterlimit="10" points="217,-86.5 77,-86.5 77,-162.5 
			217,-162.5 		"/>
		<polygon fill="#C24A3D" stroke="#DE6757" stroke-width="7" stroke-miterlimit="10" points="290.5,-169.5 150.5,-169.5 
			150.5,-245.5 290.5,-245.5 		"/>
		<polygon fill="#C24A3D" stroke="#DE6757" stroke-width="7" stroke-miterlimit="10" points="143.5,-169.5 3.5,-169.5 3.5,-245.5 
			143.5,-245.5 		"/>
	</g>
</pattern>
<g id="Layer_1">
	<rect x="-3304" y="1214.2" fill="#F9DCC4" width="893.9" height="1478.7"/>
	<path fill="#4B3246" d="M-1966.8,2175.7c-3.4-0.1-6.7-4.1-10.1-6.3"/>
	<path fill="#4B3246" d="M-2226.9,1872.9c-3.6,0.8-7.3,2.8-10.6,2.3c-7.2-1-14.3-3.3-21.4-5c8.2,0.2,16.4,0.5,24.7,0.7
		c2.2,0.1,4.4,0.1,6.6,0.1C-2227.4,1871.6-2227.1,1872.2-2226.9,1872.9z"/>
	<path fill="#4B3246" d="M-2410.1,873.2"/>
	<path fill="#4B3246" d="M-2432,853.2"/>
	<path fill="#4B3246" d="M-2673.6,743c0.7-0.4,1.5-0.9,2-1.2"/>
	<path fill="#4B3246" d="M-2470.2,829.8c6.5,3.6,12.3,6.9,18.1,10.1"/>
	<path fill="#4B3246" d="M-1823.2,2650.1"/>
	<path fill="#4B3246" d="M-1841.2,987.8"/>
	<path fill="#4B3246" d="M-2262.7,2313.4c-4.7-2.1-11.3-5-17.9-7.9c2.8-2.3,5.9-6.7,8.4-6.4c7.9,0.8,15.6,3.5,23.4,5.4
		C-2252.1,2306.6-2255.4,2308.7-2262.7,2313.4z"/>
	<path fill="#4B3246" d="M-2235.1,2286.7c-7.4,2.1-14.6,4.7-22.1,5.9c-3.1,0.5-6.6-2.3-10-3.5c2.1-2.4,3.9-6,6.5-6.9
		c4.1-1.4,9.1-1.9,13.4-1.1C-2243.1,2281.8-2239.2,2284.7-2235.1,2286.7C-2235.1,2286.7-2235.1,2286.7-2235.1,2286.7z"/>
	<path fill="#4B3246" d="M-2346.2,2230.4c-0.7-6.1-1.4-12.1-2.2-18.2c7.1,1.1,14.3,2.2,21.4,3.6c0.4,0.1,0.9,2.8,0.3,3.6
		c-0.9,1.4-2.4,2.7-4,3.5c-5.2,2.7-10.6,5.2-15.8,7.7C-2346.5,2230.7-2346.2,2230.4-2346.2,2230.4z"/>
	<path fill="#4B3246" d="M-2325.8,1087c6.9,1.4,13.1,2.6,19.4,3.8c-5.6,2.4-11.1,6.4-16.9,6.6c-5.4,0.2-10.9-3.5-16.4-5.4
		C-2335.2,1090.4-2330.6,1088.7-2325.8,1087z"/>
	<path fill="#4B3246" d="M-2342.1,2062.7c6,3.3,11,6,15.9,8.7c-1.6,1.6-3.4,4.6-4.7,4.4c-7.9-1.2-15.8-3.2-23.7-4.9
		C-2350.8,2068.5-2347.2,2066.1-2342.1,2062.7z"/>
	<path fill="#4B3246" d="M-2234.4,2048.6c-3.9,1.8-7.6,4.2-11.6,5.1c-3.4,0.8-7.2-0.2-10.9-0.4c0.9-3.5,1.8-7.1,2.7-10.6
		c6.5,2.1,13,4.1,19.6,6.2C-2234.6,2048.9-2234.4,2048.6-2234.4,2048.6z"/>
	<path fill="#4B3246" d="M-2313.4,2360.5c-7.1-3.3-12.9-6-18.7-8.7c1.9-0.9,3.9-2.8,5.5-2.5c7.5,1.4,14.9,3.5,22.3,5.3
		C-2307,2356.4-2309.8,2358.2-2313.4,2360.5z"/>
	<path fill="#4B3246" d="M-2347.3,2096c-4.2,0.5-8.5,1.1-12.7,1.6c-3.9,0.4-7.8,0.8-11.6,1.2c0.4-1.9,0.3-5.2,1.3-5.5
		c4.3-1.6,8.9-2.9,13.4-3.3c3.3-0.3,6.9,0.4,10.1,1.4c3.8,1.2,7.4,3.1,11.1,4.8c-3.8,0.3-7.7,0.7-11.5,1
		C-2347.3,2096.7-2347.3,2096.4-2347.3,2096z"/>
	<path fill="#4B3246" d="M-2253.3,2062.8c1.9,4.9,4.2,8.2,4,11.3c-0.1,1.7-4.6,4.6-7,4.4c-5.3-0.4-10.4-2.4-15.6-3.7
		C-2266.2,2071.2-2260.6,2067.5-2253.3,2062.8z"/>
	<path fill="#4B3246" d="M-2245.3,1777.3c-3.5,2.2-7.6,6.8-10.4,6.1c-3.9-1-6.7-6-10-9.2c3.7,0.5,7.5,1,11.2,1.6c3,0.5,6,1.2,9,1.7
		C-2245.4,1777.5-2245.3,1777.3-2245.3,1777.3z"/>
	<path fill="#4B3246" d="M-2294.1,1097.4c-3.1-2.7-5.8-4.9-8.1-7.5c-0.2-0.3,2.7-4.5,3.5-4.3c6.5,1.6,12.9,3.9,19.3,5.9
		C-2283.6,1093.2-2287.8,1094.9-2294.1,1097.4z"/>
	<path fill="#4B3246" d="M-2329.6,1502.8c-8-1-14-1.7-19.9-2.4c4.7-2.4,9.3-5.8,14.3-6.9c2.9-0.6,6.6,2.4,10,3.8
		C-2326.9,1499.3-2328.6,1501.5-2329.6,1502.8z"/>
	<path fill="#4B3246" d="M-2243.1,2230.1c1.8,2.6,3.8,5.5,3.7,5.6c-4.2,3.3-8.3,7-13,9.3c-1.5,0.7-4.8-2.1-7.2-3.2
		C-2254.5,2238.1-2249.3,2234.5-2243.1,2230.1z"/>
	<path fill="#4B3246" d="M-2348.7,2177.5c2.7,2.4,6.3,4.6,6,5.6c-1.3,4-3.7,7.7-5.7,11.5c-3.4-3-6.8-6-10.1-9
		C-2355.6,2183.1-2352.6,2180.7-2348.7,2177.5z"/>
	<path fill="#4B3246" d="M-2290.2,2323c6,2,10.1,3.4,14.3,4.7c-2.1,1.3-4.2,3.5-6.3,3.6c-6.9,0.1-13.8-0.5-20.7-0.9
		C-2298.5,2327.8-2294.1,2325.3-2290.2,2323z"/>
	<path fill="#4B3246" d="M-2295.6,2523.4c-1.7-1-5.2-3.1-8.7-5.2c3.6-1.8,7.5-5.5,10.8-5.1c4.9,0.6,9.4,4.1,14,6.4
		C-2284.3,2520.7-2289.2,2521.9-2295.6,2523.4z"/>
	<path fill="#4B3246" d="M-2265.3,2265.6c-3.1-1.7-5.6-2.9-5.5-3c1.5-3.8,3.3-7.6,5.1-11.3c2.9,2.3,5.9,4.6,8.8,6.9
		C-2259.8,2260.7-2262.6,2263.2-2265.3,2265.6z"/>
	<path fill="#4B3246" d="M-2230.1,1959.9c-9.6,2.1-14.8,4.4-19.6,3.9c-3.3-0.3-6.2-4.6-9.3-7.2c0.9-0.8,2-2.5,2.8-2.3
		C-2249.1,1955.7-2241.9,1957.3-2230.1,1959.9z"/>
	<path fill="#4B3246" d="M-2301.2,2237.8c5.1,0.5,11,1,16.9,1.6c-3.7,1.6-7.3,4.3-11,4.4c-4.5,0.1-9-2.1-13.5-3.3
		C-2306.7,2239.8-2304.6,2239-2301.2,2237.8z"/>
	<path fill="#4B3246" d="M-2346.5,2230.7c1.8,2.9,3.7,5.8,5.5,8.7c-2.9,0.5-6.3,2.2-8.6,1.2c-3.6-1.6-6.4-4.9-9.5-7.5
		c2.9,0.6,5.9,1.7,8.7,1.4c1.5-0.1,2.7-2.6,4.1-4.1C-2346.2,2230.4-2346.5,2230.7-2346.5,2230.7z"/>
	<path fill="#4B3246" d="M-2280.5,1452.9c-4.1,4.6-7.6,8.4-11.1,12.2c-1.5-2-4.6-5.3-4.2-5.8c2.3-3,5.2-6.1,8.6-7.8
		C-2285.5,1450.6-2282.4,1452.4-2280.5,1452.9z"/>
	<path fill="#4B3246" d="M-2244.2,2210.9c-3.5,3-5.2,5-7.3,6.1c-0.8,0.4-3.8-1.3-3.7-1.7c0.6-4.9,1.6-9.8,2.5-14.7
		C-2250.3,2203.5-2247.8,2206.5-2244.2,2210.9z"/>
	<path fill="#4B3246" d="M-2261.5,1153.1c-3.6,2.3-6.9,4.9-7.3,4.5c-2.3-2.1-5.7-5.6-5.2-7.5c0.8-2.8,4.8-4.7,7.4-7
		C-2265.3,1145.6-2264,1148.1-2261.5,1153.1z"/>
	<path fill="#4B3246" d="M-2260.2,1944.4c-3.3-2.7-5.5-4.6-7.7-6.4c3.3-2.4,6.5-4.8,9.8-7.2c1.6,2.5,4.3,5,4.6,7.6
		C-2253.4,1939.9-2257.2,1941.8-2260.2,1944.4z"/>
	<path fill="#4B3246" d="M-2308.9,2528.8c-3-2.5-6.5-5.6-10.1-8.6c1.2-1.2,3.2-3.5,3.5-3.3c4.8,3.1,9.4,6.5,14,9.8
		C-2303.2,2527.2-2304.9,2527.7-2308.9,2528.8z"/>
	<path fill="#4B3246" d="M-2298.8,1493.6c2.8,1.7,4.5,2.8,6.3,3.8c-2.9,1.8-5.6,4.2-8.8,5.1c-1.2,0.4-3.4-2.2-5.2-3.5
		C-2304.1,1497.5-2301.8,1495.8-2298.8,1493.6z"/>
	<path fill="#4B3246" d="M-2363.1,2071.2c-2.8,1.8-4.5,3.8-5.6,3.5c-3.3-0.8-6.4-2.5-9.6-3.9c2.7-2,5.1-4.7,8.2-5.7
		C-2368.9,2064.8-2366.4,2068.2-2363.1,2071.2z"/>
	<path fill="#4B3246" d="M-2243.8,2161.9c-6.3,7.6-7.8,9.4-9.3,11.2c-2-4.5-4-9-5.7-13.6c-0.2-0.5,2-2.7,2.6-2.5
		C-2252.3,2158.3-2248.5,2160-2243.8,2161.9z"/>
	<path fill="#4B3246" d="M-2291.7,2000.1c4.3,1.4,7.9,2.5,11.5,3.6c-2.3,1.1-4.7,3.3-7,3.2c-3.6-0.2-7-2-10.5-3.2
		C-2295.8,2002.6-2293.8,2001.4-2291.7,2000.1z"/>
	<path fill="#CAB9AA" d="M-3488.3,796.8c0,0-0.1,0-0.1,0c0,0.1-0.1,0.2-0.1,0.2L-3488.3,796.8z"/>
	<path fill="#4B3246" d="M-3272.9,690.1c0.1-0.1,0.1-0.2,0.2-0.2c0,0-0.1,0-0.1,0C-3272.9,690-3272.9,690-3272.9,690.1z"/>
	<path fill="#4B3246" d="M-3501.6,836.4"/>
	<path fill="#4B3246" d="M-3479.7,824.7c-2.9-9.3-5.7-18.6-8.6-27.9"/>
	<path fill="#4B3246" d="M-3439.5,781.2"/>
	<path fill="#4B3246" d="M-3428.7,802.8"/>
	<path fill="#4B3246" d="M-3442.1,2489.3c2.4,0,5.5-0.9,7.9,0.1c3.8,1.5,7.2,4.2,10.7,6.4c-3.7,1.9-7.4,4-11.3,5.5
		C-3435.1,2501.5-3437,2497.7-3442.1,2489.3z"/>
	<path fill="#4B3246" d="M-2754.4,982.2c6.2,3.3,11.8,6.2,17.5,9.2c-1.2,0.9-2.8,2.8-3.5,2.5c-6-2.2-11.8-4.9-17.7-7.4
		C-2757,985.2-2755.9,984-2754.4,982.2z"/>
	<path fill="#4B3246" d="M-2997.3,973.8c-3.8-1.7-7.3-3.3-10.9-4.9c3.9-0.8,7.7-2.2,11.6-2.2c3.1,0.1,6.2,1.9,9.3,3
		C-2990.5,971.1-2993.6,972.3-2997.3,973.8z"/>
	<path fill="#4B3246" d="M-2198.7,2487.5"/>
	<path fill="#4B3246" d="M-2165.8,2497.4"/>
	<path fill="#4B3246" d="M-2196.6,2466.5c-2.6,0.1-5.3-3.1-7.9-4.9"/>
	<g id="HAobQW.tif">
		
			<image overflow="visible" width="177" height="56" id="Layer_0_1_" xlink:href="7768A944A4A8F898.png"  transform="matrix(2.8342 0 0 1.6071 -3704.1902 296.8696)">
		</image>
	</g>
	<g id="_x33_wBwi4.tif">
		
			<image overflow="visible" width="410" height="280" id="Layer_0_2_" xlink:href="7768A944A4A8F897.png"  transform="matrix(2.6822 0 0 2.6822 -6636.2446 761.3422)">
		</image>
	</g>
	<path fill="#EEE5D5" d="M-3183.8,1274.7h641.8c26.4,0,48,21.6,48,48v1370.1h-737.8V1322.7
		C-3231.8,1296.3-3210.2,1274.7-3183.8,1274.7z"/>
	<path fill="#C56C76" d="M-2497.8,1325.8h-737.8v-3c0-26.4,21.6-48,48-48h641.8c26.4,0,48,21.6,48,48V1325.8z"/>
	<path fill="none" d="M-3502.2,1476.4c1.8-13.7,5.5-27.2,10.7-40c6.3-0.4,9.4-6,10-12.4"/>
	<line fill="none" stroke="#788E92" stroke-width="20" stroke-miterlimit="10" x1="-3304" y1="1205" x2="-2423.5" y2="1205"/>
	<path fill="url(#New_Pattern)" d="M-2220.8,1085.6c2.7-6.3,2.9-12.5-1.3-17c-90.6-95.5-381.8-353.7-657.5-353.7
		c-266.4,0-525.2,247.3-621.3,350.1h-12.2v13.8c-4,6.6-3.6,14.4,0,20.5v1673.1h209.1V1109.2h893.6v1450.3h200.3V1085.6H-2220.8z"/>
	<rect x="-3516" y="759.8" fill="#D49B8D" width="1294.1" height="449"/>
	<polygon fill="#C56C76" stroke="#C56C76" stroke-miterlimit="10" points="-3304,1214.2 -3365.7,1109.2 -2358.6,1109.2 
		-2410.1,1214.2 	"/>
	<g id="XMLID_3_">
		<g>
			<path fill="#C56C76" d="M-2249,993.9c0,0-299-302.6-623.3-302.6s-611.7,313.9-611.7,313.9l-316.2-15.1l0.1-64.8l298.8,3.6
				c0,0,236.7-291.5,630.8-294.1c376.6-2.5,656.9,301.4,656.9,301.4h285.8V987L-2249,993.9z"/>
		</g>
		<g>
		</g>
	</g>
	<path fill="#F9DCC4" d="M-3365.7,1110.5h1007.1c0,0-254.4-237.3-508.4-237.3S-3365.7,1110.5-3365.7,1110.5z"/>
	<polygon fill="#FDF0D9" points="-2857,1087 -2878.6,1092.2 -2908.7,908.6 -2824.7,908.6 	"/>
	<polygon fill="#FDF0D9" points="-2804.1,1085.5 -2825.9,1082.4 -2797.2,918.3 -2718.4,947.5 	"/>
	<polygon fill="#FDF0D9" points="-2925.6,1082.6 -2945.4,1092.4 -3014.3,939.3 -2932.8,919.1 	"/>
	<rect x="-1101.6" y="387.1" fill="#DE6757" width="893.9" height="1548.4"/>
	<path fill="#4B3246" d="M-655.6,267c0.7-0.4,1.5-0.9,2-1.2"/>
	<path fill="#4B3246" d="M400.8,2174.1"/>
	<path fill="#4B3246" d="M41.1-103"/>
	<path fill="#CAB9AA" d="M-654.5,320.8c0,0-0.1,0-0.1,0c0,0.1-0.1,0.2-0.1,0.2L-654.5,320.8z"/>
	<path fill="#4B3246" d="M-654.7,214.1c0.1-0.1,0.1-0.2,0.2-0.2c0,0-0.1,0-0.1,0C-654.6,214-654.7,214-654.7,214.1z"/>
	<path fill="#4B3246" d="M-654.6,360.4"/>
	<path fill="#4B3246" d="M-650.3,348.7c-2.9-9.3-5.7-18.6-8.6-27.9"/>
	<path fill="#4B3246" d="M-654.6,305.2"/>
	<path fill="#4B3246" d="M-654.6,326.8"/>
	<path fill="none" d="M-664.9,649.3c1.8-13.7,5.5-27.2,10.7-40c6.3-0.4,9.4-6,10-12.4"/>
	<linearGradient id="SVGID_1_" gradientUnits="userSpaceOnUse" x1="-976.8598" y1="1844.4342" x2="-342.9356" y2="528.0161">
		<stop  offset="0" style="stop-color:#D8AB6C"/>
		<stop  offset="1" style="stop-color:#FFD67E"/>
	</linearGradient>
	<path fill="url(#SVGID_1_)" d="M-975.5,447.6h641.8c26.4,0,48,21.6,48,48v1370.1h-737.8V495.6
		C-1023.5,469.2-1001.9,447.6-975.5,447.6z"/>
	<path fill="#913433" d="M-285.7,498.6h-737.8v-3c0-26.4,21.6-48,48-48h641.8c26.4,0,48,21.6,48,48V498.6z"/>
	<rect x="-7096.5" y="-27.1" fill="#FFFEF1" width="3004" height="2872"/>
	<g>
		<path fill="#4B3246" d="M290.7-428.3"/>
		<path fill="#4B3246" d="M-53.6-319.3c6.2,3.3,11.8,6.2,17.5,9.2c-1.2,0.9-2.8,2.8-3.5,2.5c-6-2.2-11.8-4.9-17.7-7.4
			C-56.3-316.2-55.1-317.5-53.6-319.3z"/>
		<path fill="#4B3246" d="M-296.6-327.7c-3.8-1.7-7.3-3.3-10.9-4.9c3.9-0.8,7.7-2.2,11.6-2.2c3.1,0.1,6.2,1.9,9.3,3
			C-289.7-330.4-292.9-329.2-296.6-327.7z"/>
		<path fill="#F9DCC4" d="M-664.9-191H342.2c0,0-254.4-237.3-508.4-237.3S-664.9-191-664.9-191z"/>
		<polygon fill="#FDF0D9" points="-156.3,-214.5 -177.8,-209.3 -208,-392.9 -124,-392.9 		"/>
		<polygon fill="#FDF0D9" points="-103.3,-216 -125.2,-219.1 -96.4,-383.2 -17.7,-354 		"/>
		<polygon fill="#FDF0D9" points="-224.8,-218.9 -244.6,-209.1 -313.5,-362.2 -232,-382.4 		"/>
	</g>
	<rect x="-7096.5" y="-27.1" fill="url(#New_Pattern_2)" width="3004" height="2872"/>
	<rect x="-7096.5" y="2327.2" fill="url(#New_Pattern)" width="3004" height="268.6"/>
	<g id="_x33_wBwi4.tif_1_">
		
			<image overflow="visible" width="410" height="280" id="Layer_0_4_" xlink:href="7768A944A4A8F8A8.png"  transform="matrix(2.6822 0 0 2.6822 382.0093 761.3422)">
		</image>
	</g>
	<rect x="-78.3" y="-27.1" fill="#FFFEF1" width="3004" height="2872"/>
	<pattern  id="SVGID_2_" xlink:href="#New_Pattern_4" patternTransform="matrix(1 0 0 1 109.2542 0)">
	</pattern>
	<rect x="-78.3" y="-27.1" fill="url(#SVGID_2_)" width="3004" height="2872"/>
	<rect x="-1231.6" y="186.6" fill="#913433" width="1133.4" height="118.5"/>
	<g id="tTWrGk.tif">
		
			<image overflow="visible" width="204" height="41" id="Layer_0_3_" xlink:href="7768A944A4A8F8AB.png"  transform="matrix(4.935 0 0 4.935 -1667.7198 -229.4645)">
		</image>
	</g>
	<g>
		<path fill="#CAB9AA" d="M-345.7,558.6v1242.1h-617.8V558.6H-345.7 M-287.8,498.6h-733.7c-1.1,0-2.1,0.9-2.1,2.1v1358
			c0,1.1,0.9,2.1,2.1,2.1h733.7c1.1,0,2.1-0.9,2.1-2.1v-1358C-285.7,499.6-286.6,498.6-287.8,498.6L-287.8,498.6z"/>
	</g>
	
		<rect x="-989.5" y="1458.2" fill="none" stroke="#CAB9AA" stroke-width="60" stroke-linecap="square" stroke-miterlimit="10" width="676" height="376"/>
	
		<line fill="none" stroke="#CAB9AA" stroke-width="60" stroke-linecap="square" stroke-miterlimit="10" x1="-664.9" y1="548.6" x2="-664.9" y2="1834.7"/>
	<rect x="-1230.3" y="1930.6" fill="#D49B8D" width="1133.4" height="96.2"/>
	<polygon fill="#913433" points="-1230.3,2026.8 -1157.8,2089.8 -180,2094.3 -96.9,2026.8 	"/>
</g>
<g id="Layer_2">
	<polyline fill="#F9DCC4" points="-2229.9,2789.1 -1794.9,2805.7 -1838,2621.2 -1914,2579 -1916.1,2307.8 -1966.5,2237.5 
		-1982,1285.9 -1947.1,1250.2 -1979.6,1216.4 -1987.1,1063.5 -2244.5,1063.5 	"/>
	<rect x="-2170.3" y="1108.8" fill="#FDF0D9" width="135.6" height="92.6"/>
	<rect x="-2222" y="1216.4" fill="#FDF0D9" width="238.9" height="66.5"/>
	<rect x="-2158.5" y="1566.1" fill="#FDF0D9" width="112" height="378.6"/>
	<circle fill="#FDF0D9" cx="-2102.5" cy="1390" r="48"/>
	<polygon fill="#FDF0D9" points="-1961.5,2237.5 -1911.1,2307.8 -2226.9,2293.4 -2225.9,2224.4 	"/>
	
		<line fill="#D49B8D" stroke="#D49B8D" stroke-width="40" stroke-miterlimit="10" x1="-2862.9" y1="1325.5" x2="-2862.9" y2="2692.9"/>
	<path fill="#C56C76" d="M-3800.2,989.1h295.8c0,0,304.4-305.7,632.1-305.7S-2232.6,986-2232.6,986h304.8l-59.3,77.5h-257.4
		c0,0-349.4-303.7-625.7-303.7s-623.7,305.3-623.7,305.3l-254.6-1.2L-3800.2,989.1z"/>
	<path fill="#F9DCC4" d="M-2588.1,631.5c-3.4-2.8-7.1-5-11-6.8c-1.2-1.3-2.4-2.6-3.7-3.8c2.4-1.8,3.3-5.3,0.1-7.7
		c-0.6-0.4-1.2-0.8-1.8-1.2c-2.1-1.6-3.5-3.6-4.5-6.4c-2.1-5.8-10.6-2.4-9.4,3.3c-1.9,0.2-3.8,0.7-5.6,1.4c-4,1.5-3.8,7.7,0.1,9.2
		c0.2,0.1,0.4,0.2,0.6,0.3c-6,0.2-12,1.3-17.8,3.5c-2.1,0.8-3.3,3.5-2.9,5.7c-0.2,0-0.4,0-0.5-0.1c0-1.8-1-3.5-3.1-4.1
		c-7.2-2.1-14.5-4-21.8-5.9c1.4-2.5,0.8-6.2-2.3-7.4c-20.8-7.9-42.1-14.3-63.8-19c-0.7-0.5-1.4-0.9-2.2-1c-2.2-0.4-4.5-0.6-6.7-0.8
		c-15.1-3-30.3-5.1-45.6-6.5c-6.4-0.6-7.6,9.4-1.2,9.9c1.1,0.1,2.3,0.2,3.4,0.3c-3.7,1-7.4,2.3-11.1,3.7c-2.1,0.1-4.1,0.1-6.2,0.3
		c-6.4,0.5-4.9,10.3,1.5,9.9c0.3,0,0.6,0,0.9,0c0.2,0.1,0.5,0.2,0.8,0.3c0.8,0.2,1.6,0.5,2.5,0.7c-3,2.7-2.7,8.6,2.3,8.6h28
		c1.1,0,2.1-0.3,2.9-0.8c6.4,1.2,12.9,2.2,19.4,3c27.1,14.6,56.3,24.9,86.7,30.3c7.9,2.6,16.7,3.7,23.3-1.4
		c8.7-0.4,17.3-1.6,25.8-3.5c1.4-0.3,2.6-1.3,3.3-2.6c5.8-0.4,11.6-1.2,17.4-2.4C-2586.2,639.5-2584.7,634.3-2588.1,631.5z
		 M-2627.1,629.9c2.3-0.3,4.6-0.4,6.9-0.3C-2622.5,629.7-2624.8,629.8-2627.1,629.9z M-2643.2,639c-4.2,0.1-8.5-0.1-12.7-0.4
		c0.2-0.4,0.4-0.8,0.5-1.2C-2651.3,637.9-2647.3,638.4-2643.2,639z M-2716.5,622.4c4,1.8,8,3.5,12.1,5.1c-0.2,0.2-0.4,0.3-0.6,0.5
		c-4.9-1.8-9.7-3.7-14.4-5.7C-2718.5,622.3-2717.5,622.3-2716.5,622.4z M-2738.2,602.1c11.8,2.5,23.5,5.6,35,9.1
		c-7.8-1.6-15.6-3-23.4-4.3c-3.4-0.6-5.3,1.9-5.4,4.6c-1.9-0.2-3.7-0.3-5.6-0.5c-2.9-1.4-5.9-2.7-8.9-3.9
		C-2743.7,605.5-2741,603.8-2738.2,602.1z M-2768.4,600.7c4.8-0.5,9.6-0.8,14.5-0.7c-0.3,0.2-0.7,0.4-1,0.6c-1.1,0.7-1.8,1.6-2,2.5
		c-0.5-0.1-1-0.1-1.5,0C-2761.7,602.2-2765,601.4-2768.4,600.7z"/>
	<path fill="#F9DCC4" d="M-3454.2,797.7c-3.8-0.5-7.6-0.9-11.5-1.2c1.2-4.3-3.4-9.4-7.6-5.7l-5.5,4.8c-32.3-1.5-64.8,2.1-96.1,10.7
		c-4.3,1.2-5.7,7.9-1.8,9.6c-10.9-0.4-21.8-1.5-32.7-3.4c-6.3-1.1-7.5,8.8-1.2,9.9c27.9,4.9,56.6,4.9,84.5,0.2c0.1,2.5,1.6,5,4.3,5
		c12.2,0.1,23.6-3.2,33.8-9.8c-1.5,3.3-3,6.6-4.5,9.9c-1.7,4,2.7,8.2,6.6,6.5c9.6-4.2,15.3-14.6,13.3-24.9l18.4-1.6
		C-3448.3,807.1-3448.7,798.4-3454.2,797.7z"/>
	<path fill="#F9DCC4" d="M-2557.7,584.5c-4-1.8-8-3.5-12-5.3c-0.2-1.1-0.7-2.2-1.7-3.1c-9.2-8.2-19.9-14.3-31.6-17.9
		c-3.1-1-5.6,0.9-6.5,3.3l-20.6-9.1c-5.9-2.6-9.6,6.7-3.8,9.3l72.4,32.2C-2555.5,596.4-2551.8,587.1-2557.7,584.5z"/>
	<path fill="#F9DCC4" d="M-2589.2,645.7c-5-0.6-6.8,5.4-4.3,8.4c-4.5,0.8-6.4,7.7-1.2,9.5c4.4,1.5,8.7,2.9,13.1,4.4
		c3,1,6.5-0.7,6.9-4C-2573.7,655-2580.3,646.7-2589.2,645.7z"/>
	<path fill="#F9DCC4" d="M-2440.1,730.9c1.6,0,3.1,0,4.7-0.1c1.3,1.7,2.4,3.6,3.3,5.6C-2434.8,734.5-2437.5,732.7-2440.1,730.9z
		 M-2398.9,713.4c-1.6,0.6-3.3,1.2-5,1.7c-1.6-1.9-3-4-3.2-6C-2404,709.8-2401.2,711.2-2398.9,713.4z M-2387.1,747.5L-2387.1,747.5
		c-1-0.8-2.1-1-3.2-0.9c-7.3-2.2-14.7-4.4-22-6.5c-0.9-0.3-1.7-0.3-2.5-0.2l-1.9-2.3c-1.4-1.7-3.2-2.1-5-1.7
		c-0.7-2.1-1.6-4.1-2.6-6.1c5.7-0.7,11.4-1.8,17-3.3c4,4.1,8.3,7.7,11.2,10.5c3.7,3.7,7.4,7.4,11.2,11.1
		C-2385.7,747.9-2386.4,747.7-2387.1,747.5z M-2388.8,721.9c-2.6,0-4.5,1.4-5.2,3.3c-0.7-0.7-1.5-1.5-2.2-2.2
		c2.4-0.9,4.7-1.8,7.1-2.8c0.9-0.4,1.6-1.1,2.2-1.9c1.3,1.4,2.5,2.7,3.7,4.1C-2385.1,722.1-2386.9,722-2388.8,721.9z M-2142,844.2
		c-0.4-0.4-0.8-0.7-1.2-1.1c0.8,0,1.6,0.1,2.5,0.1C-2141.2,843.6-2141.6,843.9-2142,844.2z M-1998.9,906.4c-0.2,0.1,0.5,1,0.5,2.1
		c-0.2,0-0.5,0-0.9,0C-1999.6,907.9-1999.7,907-1998.9,906.4z M-2063.4,888.5c-0.4,1.6-0.5,3.4-0.4,5.4c0.1,0.9,0.2,1.8,0.4,2.7
		c-6.6-2.1-13.1-4.6-19.4-7.6C-2076.3,889.2-2069.8,889-2063.4,888.5z M-2107,827.4c-6.6-1.2-13.1-2.6-19.6-4.3
		c12.8,0.2,25.5,1.4,38.1,3.6C-2094.7,827.3-2100.8,827.5-2107,827.4z"/>
	<path fill="#F9DCC4" d="M-3800.1,925.3l298.8,3.6c0,0,292.5-294.1,630.8-294.1s656.9,301.4,656.9,301.4h285.8l36.3-116.9h-258.8
		c0,0-360.3-337.4-735.3-337.4s-678.3,308.3-678.3,308.3h-275.9L-3800.1,925.3z"/>
	<rect x="-3533.5" y="2529.2" fill="#F9DCC4" width="1337" height="243.8"/>
	<polyline fill="#F9DCC4" points="-3498.6,2781.5 -3933.7,2798.1 -3890.6,2613.6 -3814.5,2571.4 -3812.5,2300.2 -3762.1,2230 
		-3746.5,1278.3 -3781.5,1242.7 -3749,1208.8 -3747.9,1062.3 -3494,1065.1 	"/>
	<rect x="-3693.8" y="1101.2" fill="#FDF0D9" width="135.6" height="92.6"/>
	<rect x="-3745.4" y="1208.8" fill="#FDF0D9" width="238.9" height="66.5"/>
	<rect x="-3682" y="1558.6" fill="#FDF0D9" width="112" height="378.6"/>
	<circle fill="#FDF0D9" cx="-3626" cy="1382.5" r="48"/>
	<polygon fill="#FDF0D9" points="-3767.1,2230 -3817.5,2300.2 -3501.6,2285.9 -3502.6,2216.8 	"/>
	<polygon fill="#FDF0D9" points="-3893.6,2613.6 -3498.6,2589.9 -3498.6,2537.8 -3817.4,2555.9 	"/>
	<polygon fill="#FDF0D9" points="-1835,2621.2 -2229.9,2597.4 -2229.9,2545.3 -1911.1,2563.4 	"/>
</g>
<g id="Layer_3">
	
		<rect x="-2656.2" y="77.2" fill="url(#New_Pattern_Swatch_7)" stroke="#DE6757" stroke-width="7" stroke-miterlimit="10" width="140" height="76"/>
</g>
</svg>
