<?xml version="1.0" encoding="utf-8"?>
<!-- Generator: Adobe Illustrator 18.1.1, SVG Export Plug-In . SVG Version: 6.00 Build 0)  -->
<svg version="1.1" id="Layer_1" xmlns="http://www.w3.org/2000/svg" xmlns:xlink="http://www.w3.org/1999/xlink" x="0px" y="0px"
	 viewBox="-718 -1110.3 286 391.3" enable-background="new -718 -1110.3 286 391.3" xml:space="preserve">
<pattern  y="600" width="18.7" height="20.2" patternUnits="userSpaceOnUse" id="New_Pattern" viewBox="12.4 -28.3 18.7 20.2" overflow="visible">
	<g>
		<polygon fill="none" points="12.4,-8.1 31,-8.1 31,-28.3 12.4,-28.3 		"/>
		<g>
			<polygon fill="none" points="12.4,-8.1 31,-8.1 31,-28.3 12.4,-28.3 			"/>
			<polygon fill="#C56C76" stroke="#D49B8D" stroke-width="7" stroke-miterlimit="10" points="39.9,-32.9 22.2,-32.9 22.2,-23.7 
				39.9,-23.7 			"/>
			<polygon fill="#C56C76" stroke="#D49B8D" stroke-width="7" stroke-miterlimit="10" points="21.2,-32.9 3.5,-32.9 3.5,-23.7 
				21.2,-23.7 			"/>
			<polygon fill="#C56C76" stroke="#D49B8D" stroke-width="7" stroke-miterlimit="10" points="30.6,-22.8 12.8,-22.8 12.8,-13.6 
				30.6,-13.6 			"/>
			<polygon fill="#C56C76" stroke="#D49B8D" stroke-width="7" stroke-miterlimit="10" points="39.9,-12.7 22.2,-12.7 22.2,-3.5 
				39.9,-3.5 			"/>
			<polygon fill="#C56C76" stroke="#D49B8D" stroke-width="7" stroke-miterlimit="10" points="21.2,-12.7 3.5,-12.7 3.5,-3.5 
				21.2,-3.5 			"/>
		</g>
	</g>
</pattern>
<pattern  y="600" width="19.7" height="22.3" patternUnits="userSpaceOnUse" id="SVGID_2_" viewBox="12.9 -30.9 19.7 22.3" overflow="visible">
	<g>
		<polygon fill="none" points="12.9,-8.6 32.6,-8.6 32.6,-30.9 12.9,-30.9 		"/>
		<g>
			<polygon fill="none" points="12.9,-8.6 32.6,-8.6 32.6,-30.9 12.9,-30.9 			"/>
			<polygon fill="#413644" stroke="#5B4C59" stroke-width="7" stroke-miterlimit="10" points="42,-36 23.2,-36 23.2,-25.8 42,-25.8 
							"/>
			<polygon fill="#413644" stroke="#5B4C59" stroke-width="7" stroke-miterlimit="10" points="22.3,-36 3.5,-36 3.5,-25.8 
				22.3,-25.8 			"/>
			<polygon fill="#413644" stroke="#5B4C59" stroke-width="7" stroke-miterlimit="10" points="32.2,-24.8 13.4,-24.8 13.4,-14.6 
				32.2,-14.6 			"/>
			<polygon fill="#413644" stroke="#5B4C59" stroke-width="7" stroke-miterlimit="10" points="42,-13.7 23.2,-13.7 23.2,-3.5 
				42,-3.5 			"/>
			<polygon fill="#413644" stroke="#5B4C59" stroke-width="7" stroke-miterlimit="10" points="22.3,-13.7 3.5,-13.7 3.5,-3.5 
				22.3,-3.5 			"/>
		</g>
	</g>
</pattern>
<pattern  y="600" width="18.7" height="20.2" patternUnits="userSpaceOnUse" id="SVGID_3_" viewBox="12.4 -28.3 18.7 20.2" overflow="visible">
	<g>
		<polygon fill="none" points="12.4,-8.1 31,-8.1 31,-28.3 12.4,-28.3 		"/>
		<g>
			<polygon fill="none" points="12.4,-8.1 31,-8.1 31,-28.3 12.4,-28.3 			"/>
			<polygon fill="#C56C76" stroke="#D49B8D" stroke-width="7" stroke-miterlimit="10" points="39.9,-32.9 22.2,-32.9 22.2,-23.7 
				39.9,-23.7 			"/>
			<polygon fill="#C56C76" stroke="#D49B8D" stroke-width="7" stroke-miterlimit="10" points="21.2,-32.9 3.5,-32.9 3.5,-23.7 
				21.2,-23.7 			"/>
			<polygon fill="#C56C76" stroke="#D49B8D" stroke-width="7" stroke-miterlimit="10" points="30.6,-22.8 12.8,-22.8 12.8,-13.6 
				30.6,-13.6 			"/>
			<polygon fill="#C56C76" stroke="#D49B8D" stroke-width="7" stroke-miterlimit="10" points="39.9,-12.7 22.2,-12.7 22.2,-3.5 
				39.9,-3.5 			"/>
			<polygon fill="#C56C76" stroke="#D49B8D" stroke-width="7" stroke-miterlimit="10" points="21.2,-12.7 3.5,-12.7 3.5,-3.5 
				21.2,-3.5 			"/>
		</g>
	</g>
</pattern>
<g id="Layer_1_1_">
	<g id="HAobQW.tif">
		
			<image overflow="visible" enable-background="new    " width="175" height="31" id="Layer_0_1_" xlink:href="57AE35C98E9362C8.png"  transform="matrix(0.3975 0 0 0.2254 185.6986 -391.036)">
		</image>
	</g>
	<g id="_x33_wBwi4.tif">
		
			<image overflow="visible" enable-background="new    " width="413" height="282" id="Layer_0_2_" xlink:href="57AE35C98E9362C9.png"  transform="matrix(0.3575 0 0 0.3575 -206.863 -331.2174)">
		</image>
	</g>
	<rect x="536.2" y="-381.5" fill="#DE6757" width="120" height="207.9"/>
	<path fill="#4B3246" d="M596.1-397.6c0.1-0.1,0.2-0.1,0.3-0.2"/>
	<path fill="#4B3246" d="M737.9-141.5"/>
	<path fill="#4B3246" d="M689.6-447.3"/>
	<path fill="#CAB9AA" d="M596.3-390.4L596.3-390.4C596.2-390.4,596.2-390.3,596.3-390.4L596.3-390.4z"/>
	<path fill="#4B3246" d="M596.2-404.7C596.2-404.7,596.2-404.7,596.2-404.7L596.2-404.7C596.2-404.7,596.2-404.7,596.2-404.7z"/>
	<path fill="#4B3246" d="M596.2-385.1"/>
	<path fill="#4B3246" d="M596.8-386.6c-0.4-1.2-0.8-2.5-1.2-3.7"/>
	<path fill="#4B3246" d="M596.2-392.5"/>
	<path fill="#4B3246" d="M596.2-389.6"/>
	<path fill="none" d="M594.9-346.3c0.2-1.8,0.7-3.7,1.4-5.4c0.8-0.1,1.3-0.8,1.3-1.7"/>
	
		<linearGradient id="SVGID_1_" gradientUnits="userSpaceOnUse" x1="2187.7529" y1="1983.9131" x2="2821.6772" y2="3300.3311" gradientTransform="matrix(0.1343 0 0 -0.1343 259.2473 80.5568)">
		<stop  offset="0" style="stop-color:#D8AB6C"/>
		<stop  offset="1" style="stop-color:#FFD67E"/>
	</linearGradient>
	<path fill="url(#SVGID_1_)" d="M553.2-373.3h86.2c3.5,0,6.4,2.9,6.4,6.4v184h-99.1v-184C546.7-370.4,549.6-373.3,553.2-373.3z"/>
	<path fill="#913433" d="M645.8-366.5h-99.1v-0.4c0-3.5,2.9-6.4,6.4-6.4h86.2c3.5,0,6.4,2.9,6.4,6.4V-366.5z"/>
	<rect x="-268.7" y="-437.1" fill="#FFFEF1" width="403.3" height="385.6"/>
	<g>
		<path fill="#4B3246" d="M723.2-490.9"/>
		<path fill="#4B3246" d="M676.9-476.3c0.8,0.4,1.6,0.8,2.3,1.2c-0.2,0.1-0.4,0.4-0.5,0.3c-0.8-0.3-1.6-0.7-2.4-1
			C676.6-475.9,676.7-476.1,676.9-476.3z"/>
		<path fill="#4B3246" d="M644.3-477.4c-0.5-0.2-1-0.4-1.5-0.7c0.5-0.1,1-0.3,1.6-0.3c0.4,0,0.8,0.3,1.2,0.4
			C645.2-477.8,644.8-477.6,644.3-477.4z"/>
		<path fill="#F9DCC4" d="M594.9-459.1h135.2c0,0-34.2-31.9-68.3-31.9S594.9-459.1,594.9-459.1z"/>
		<polygon fill="#FDF0D9" points="663.1,-462.2 660.3,-461.5 656.2,-486.2 667.5,-486.2 		"/>
		<polygon fill="#FDF0D9" points="670.3,-462.4 667.3,-462.9 671.2,-484.9 681.8,-481 		"/>
		<polygon fill="#FDF0D9" points="653.9,-462.8 651.3,-461.5 642,-482.1 653,-484.8 		"/>
	</g>
	<rect x="-268.7" y="-437.1" fill="#63AA9C" width="403.3" height="385.6"/>
	<pattern  id="SVGID_4_" xlink:href="#New_Pattern" patternTransform="matrix(0.1343 0 0 -0.1343 -7121.8564 -10414.4375)">
	</pattern>
	<rect x="-268.7" y="-121" fill="url(#SVGID_4_)" width="403.3" height="36.1"/>
	<g id="_x33_wBwi4.tif_1_">
		
			<image overflow="visible" enable-background="new    " width="413" height="282" id="Layer_0_4_" xlink:href="57AE35C98E9362CA.png"  transform="matrix(0.3575 0 0 0.3575 735.4165 -331.2174)">
		</image>
	</g>
	<rect x="673.6" y="-437.1" fill="#FFFEF1" width="403.3" height="385.6"/>
	<pattern  id="SVGID_5_" xlink:href="#SVGID_2_" patternTransform="matrix(0.1343 0 0 -0.1343 -7107.2598 -10419.8828)">
	</pattern>
	<rect x="673.6" y="-437.1" fill="url(#SVGID_5_)" width="403.3" height="385.6"/>
	<rect x="518.8" y="-408.4" fill="#913433" width="152.2" height="15.9"/>
	<g id="tTWrGk.tif">
		
			<image overflow="visible" enable-background="new    " width="210" height="42" id="Layer_0_3_" xlink:href="57AE35C98E9362C7.png"  transform="matrix(0.6438 0 0 0.6438 460.2086 -464.1866)">
		</image>
	</g>
	<g>
		<path fill="#CAB9AA" d="M637.7-358.4v166.8h-82.9v-166.8H637.7 M645.5-366.5H547c-0.1,0-0.3,0.1-0.3,0.3v182.3
			c0,0.1,0.1,0.3,0.3,0.3h98.5c0.1,0,0.3-0.1,0.3-0.3v-182.3C645.8-366.4,645.7-366.5,645.5-366.5L645.5-366.5z"/>
	</g>
	
		<rect x="551.3" y="-237.7" fill="none" stroke="#CAB9AA" stroke-width="60" stroke-linecap="square" stroke-miterlimit="10" width="90.8" height="50.5"/>
	
		<line fill="none" stroke="#CAB9AA" stroke-width="60" stroke-linecap="square" stroke-miterlimit="10" x1="594.9" y1="-359.8" x2="594.9" y2="-187.1"/>
	<rect x="518.9" y="-174.2" fill="#D49B8D" width="152.2" height="12.9"/>
	<polygon fill="#913433" points="518.9,-161.3 528.7,-152.9 660,-152.3 671.1,-161.3 	"/>
	<g id="xG4dGs.tif">
		
			<image overflow="visible" enable-background="new    " width="174" height="67" id="Layer_0_6_" xlink:href="57AE35C98E9362E6.png"  transform="matrix(0.4218 0 0 0.6337 323.1227 -485.4792)">
		</image>
	</g>
</g>
<g id="Layer_5">
	<path fill="#FFFFFF" stroke="#000000" stroke-miterlimit="10" d="M989.6,291.1"/>
	<path fill="#68536F" stroke="#68536F" stroke-width="12" stroke-linecap="square" stroke-miterlimit="10" d="M845.4,165h-8.1v-43.8
		c0-1.9,1.5-3.4,3.4-3.4h4.7c1.9,0,3.4,1.5,3.4,3.4v40.4C848.8,163.4,847.3,165,845.4,165z"/>
	
		<polygon fill="#788E92" stroke="#788E92" stroke-width="12" stroke-linecap="round" stroke-linejoin="round" stroke-miterlimit="10" points="
		804,23.8 877.4,23.8 854,8.3 828.5,8.3 	"/>
	<polygon fill="#C0B2A8" stroke="#EEE5D5" stroke-width="20" stroke-miterlimit="10" points="824,88.5 804,23.8 877.4,23.8 
		862.1,88.5 862.1,119.3 824,119.3 	"/>
	<line fill="none" stroke="#EEE5D5" stroke-width="20" stroke-miterlimit="10" x1="824" y1="88.5" x2="862.1" y2="88.5"/>
	<line fill="none" stroke="#EEE5D5" stroke-width="20" stroke-miterlimit="10" x1="832.9" y1="88.5" x2="832.9" y2="119.3"/>
	<line fill="none" stroke="#EEE5D5" stroke-width="20" stroke-miterlimit="10" x1="851.1" y1="88.5" x2="851.1" y2="119.3"/>
	<line fill="none" stroke="#EEE5D5" stroke-width="20" stroke-miterlimit="10" x1="851.1" y1="88.5" x2="857.4" y2="23.8"/>
	<line fill="none" stroke="#EEE5D5" stroke-width="20" stroke-miterlimit="10" x1="832.9" y1="88.5" x2="824.3" y2="23.8"/>
	
		<path fill="#788E92" stroke="#788E92" stroke-width="12" stroke-linecap="round" stroke-linejoin="round" stroke-miterlimit="10" d="
		M851,4.7c0-5.6-4.2-10.2-10.7-10.2c-5.9,0-10.7,4.6-10.7,10.2s4.8,10.2,10.7,10.2S851,10.3,851,4.7z"/>
	<rect x="836.2" y="121" fill="#68536F" width="13.7" height="7.7"/>
	
		<polygon fill="#68536F" stroke="#68536F" stroke-width="12" stroke-linecap="round" stroke-linejoin="round" stroke-miterlimit="10" points="
		824.4,561.8 863.6,561.8 863.6,442.9 854.6,432.9 854.6,128.6 830.9,128.6 830.9,433.8 824.3,443.6 	"/>
	<path fill="#68536F" stroke="#FFFFFF" stroke-linecap="round" stroke-miterlimit="10" d="M823.6,443.6l0.1,118.3h40.4v-119l-17,4.6
		c-2.1,0.6-4.4,0.6-6.5,0.1L823.6,443.6z"/>
	<ellipse fill="#788E92" cx="838.9" cy="2.8" rx="9.2" ry="8.9"/>
	
		<path fill="#788E92" stroke="#788E92" stroke-width="12" stroke-linecap="round" stroke-linejoin="round" stroke-miterlimit="10" d="
		M830.9,433.8l-7.3,9.8c22.1,8.1,40.5-0.7,40.5-0.7l-8.9-9.1L830.9,433.8L830.9,433.8z"/>
	<path fill="#717985" stroke="#717985" stroke-width="12" stroke-linecap="square" stroke-miterlimit="10" d="M504.2,190.1h-8.1
		v-43.8c0-1.9,1.8-2.1,3.7-2.1l4.4-0.3c1.9,0,3.4,0.5,3.4,2.3v40.4C507.6,188.6,506,190.1,504.2,190.1z"/>
	
		<polygon fill="#717985" stroke="#717985" stroke-width="12" stroke-linecap="round" stroke-linejoin="round" stroke-miterlimit="10" points="
		462.4,47.7 535.8,47.7 510.5,32.3 489.2,32.3 	"/>
	
		<polygon fill="none" stroke="#717985" stroke-width="20" stroke-linecap="round" stroke-linejoin="round" stroke-miterlimit="10" points="
		482.7,113.6 463.3,48.9 535.3,48.9 520.9,113.6 520.9,144.5 482.7,144.5 	"/>
	<line fill="none" stroke="#717985" stroke-width="20" stroke-miterlimit="10" x1="482.7" y1="113.6" x2="520.9" y2="113.6"/>
	<line fill="none" stroke="#717985" stroke-width="20" stroke-miterlimit="10" x1="491.7" y1="113.6" x2="491.7" y2="144.5"/>
	<line fill="none" stroke="#717985" stroke-width="20" stroke-miterlimit="10" x1="509.8" y1="113.6" x2="509.8" y2="144.5"/>
	<line fill="none" stroke="#717985" stroke-width="20" stroke-miterlimit="10" x1="509.8" y1="113.6" x2="516.2" y2="48.9"/>
	<line fill="none" stroke="#717985" stroke-width="20" stroke-miterlimit="10" x1="491.7" y1="113.6" x2="483" y2="48.9"/>
	
		<path fill="#717985" stroke="#717985" stroke-width="12" stroke-linecap="round" stroke-linejoin="round" stroke-miterlimit="10" d="
		M509.8,29.8c0-5.6-4.2-10.2-10.7-10.2c-5.9,0-10.7,4.6-10.7,10.2S493.2,40,499.1,40S509.8,35.5,509.8,29.8z"/>
	<rect x="495" y="146.1" fill="#717985" width="13.7" height="7.7"/>
	
		<path fill="#717985" stroke="#717985" stroke-width="12" stroke-linecap="round" stroke-linejoin="round" stroke-miterlimit="10" d="
		M485.8,559.4h33.9c1.5,0,2.7-1.1,2.7-2.5V449c0-0.6-0.3-1.2-0.7-1.7l-7.7-7.9c-0.4-0.5-0.7-1.1-0.7-1.7V156.3
		c0-1.4-1.2-2.5-2.7-2.5h-18.2c-1.5,0-2.7,1.1-2.7,2.5v282.4c0,0.5-0.2,1-0.5,1.4l-5.7,7.9c-0.3,0.4-0.5,0.9-0.5,1.4l0.1,107.4
		C483.1,558.2,484.3,559.4,485.8,559.4z"/>
	<path fill="#717985" stroke="#717985" stroke-linecap="round" stroke-miterlimit="10" d="M483.5,480.7l-1.2,109
		c0,7.3,40.7,6.6,40.7-0.5l-0.9-108.7c0-9.8-6.9-16.9-14.8-14.4l0,0c-3,1-6.3,1-9.3,0.2l-0.3-0.1C489.8,464,483.5,471.1,483.5,480.7
		z"/>
	<ellipse fill="#717985" cx="497.6" cy="28" rx="9.2" ry="8.9"/>
</g>
<g id="Layer_10">
	<g id="XzQTJs.tif_1_">
		<g>
			<path fill="#788E92" stroke="#788E92" stroke-width="10" stroke-miterlimit="10" d="M312,425c8.8,2.7,17.6,5.3,26.4,8
				c6,1.9,11.9,4,18,6c1.8-3,5.1-3.2,8.3-3.4c7.3-0.5,14.5-0.4,21.6,1c1.4,0.3,2.6,0.5,2.3,2.5c-0.3,1.9-1.5,1.7-2.8,1.5
				c-4.2-0.6-8.9-0.3-12.6-2.1c-4.4-2.1-8.4-1.2-12.5-0.5c-1,0.1-1.8,1-2.7,1.6c0.1,0.3,0.2,0.6,0.3,0.9c1.2,0.1,2.4,0.3,3.6,0.4
				c7.1,0.6,14.1,1.1,21.2,1.6c1.1,0.1,2.5,0,2.2,1.9c-0.3,2-1.5,1.6-2.8,1.4c-3.4-0.5-7.1-0.3-10.1-1.6c-3.8-1.7-7.6-1.4-11.5-1.6
				c-0.2,0-0.5,0.1-0.8,0.2c2,2.2,3.8,4.4,5.9,6.4c1.6,1.5,1.7,2.9,0.8,4.8c-1.5,3.1-2.8,6.3-4,9.5c-0.5,1.3-1.9,2.7-0.4,4.3
				c0.1,0.1-0.7,1-1.1,1.5c-0.7,0.7-1.5,1.2-2.3,1.9c0.1,0.2,0.3,0.4,0.4,0.6c0.4,0,0.8,0.1,1.2,0.1c2.2-0.3,2.8,0.7,2.9,2.9
				c0.7,13.4,4.1,26,13,36.3c8,9.2,17.7,16.3,29.2,20.7c0.4,0.1,0.8,0.2,1.4,0.3c0-0.9,0-1.6,0-2.4c0-0.5-0.1-1-0.2-1.7
				c-1,0-1.9-0.1-2.8,0c-1.5,0.1-2.1-0.4-2.1-2c0-1.5,0.7-1.9,2-1.9c3.4,0,6.7,0,10.1,0c1.3,0,2,0.4,2.1,1.9c0,1.6-0.7,2.1-2.2,2
				c-1.1-0.1-2.1,0-3.6,0c0,1.5-0.2,2.8,0.1,4.1c0.2,0.8,1,1.7,1.7,1.9c0.7,0.2,1.8-0.1,2.5-0.5c0.6-0.4,0.9-1.4,1.2-2.1
				c5.2-12.5,10.3-24.9,15.6-37.4c3.3-7.8,6.8-15.4,10.2-23.1c0.3-0.8,0.6-1.5,0.8-2.3c-5-3.4-11.5-3.7-15.8-8
				c0-0.3,0.1-0.6,0.1-0.9c1.6-0.3,3.2-0.8,4.7-0.8c9.2-0.1,18.3-0.1,27.5-0.1c0.7,0,1.3,0.6,2,1c-0.6,0.6-1,1.5-1.7,1.8
				c-3.7,1.7-7.6,3-11.3,4.9c-1.5,0.8-2.5,2.5-3.5,4c-3.2,4.9-2.8,9.4,0.7,14.2c3.8,5.2,6.7,10.9,10.2,16.6
				c7.1-3.5,14.6-5.1,22.5-5.3c0-1.5,0-2.7,0-4.3c-5.3,0-10.5,0-15.7,0c-2.5,0-5.2-3.2-5.1-6.7c1,1.4,1.8,2.3,2.3,3.3
				c0.8,1.5,1.8,1.9,3.4,1.9c14-0.1,28,0,42.1,0c0.9,0,1.8,0.2,2.7,0.7c-5.5,0.7-5.3,6.1-8.3,9c2.5,1.2,4.8,2.2,6.8,3.4
				c5.7,3.4,10.3,8,14.5,13c6,7.2,9.1,15.5,10.4,24.6c0.1,0.5,0.3,1,0.4,1.4c0,1.7,0,3.4,0,5c-1-0.1-1.9-0.3-3-0.4
				c-0.4-9.6-2.8-18.3-8.4-26.2c-5.4-7.6-11.9-13.6-20.5-17.3c-0.6-0.3-1.3-0.2-2-0.3c-0.1,0.3-0.1,0.5-0.2,0.8
				c0.7,0.4,1.4,0.8,2.1,1.1c11.3,4.9,19,13.6,23.7,24.5c5.5,12.7,5.2,25.7-1.7,38.2c-4.8,8.9-11.3,15.8-20.3,20.6
				c-16.3,8.5-37,7.4-53.1-5.1c-5.8-4.5-10.1-10.3-13-17c-0.6-1.3-1.2-2.1-2.8-1.8c-6.9,1.2-13.9,2.3-20.8,3.6
				c-0.5,0.1-1.3,0.7-1.3,1.1c-0.1,1.6-0.1,3.3-0.1,5.1c1.5,0,2.6,0,3.7,0c1.5-0.1,2.1,0.6,2.1,2.1c0,1.5-0.7,1.9-2.1,1.8
				c-3.3,0-6.6,0-9.8,0c-1.3,0-2.2-0.1-2.3-1.9c0-1.8,0.9-2.1,2.4-2c0.9,0,1.8-0.1,2.7-0.1c0-2.1,0-4.1,0-5.9
				c-12.4-3.3-17.6-14.4-10.8-25.5c-15.7-15.1-31.5-30.3-47.6-45.7c-0.9,2-1.5,3.8-2.3,5.4c-0.8,1.6-0.6,2.6,1,3.7
				c6.7,4.7,11.9,10.8,15.9,17.9c5.1,9.1,6.9,19.1,5.5,29.4c-0.6,4.9-2.1,9.7-3.2,14.9c-2.8-2.5-2.7-2.5-1.9-5.2
				c0.8-2.8,1.4-5.6,2.1-8.4c-0.3-0.2-0.6-0.4-0.9-0.6c-0.5,0.5-1.2,0.9-1.4,1.5c-1.2,3.4-2.1,7-3.5,10.3
				c-3.9,9.3-10.1,16.6-18.9,21.8c-15.9,9.6-36.6,9.8-53.7-2.1c-10.3-7.2-16.1-17.7-19-29.8c-0.3-1.1-0.5-2.3-0.7-3.4c0-3,0-6,0-9.1
				c1.3-4.3,2.3-8.6,4-12.7c4-10.1,10.8-17.8,20.4-23.1c8.3-4.6,17-6.5,26.3-6.1c7.7,0.3,14.8,2.4,21.4,6.2c1.5-1.5,0.5-2-0.7-2.7
				c-6.3-3.4-13.1-5.2-20.2-5.5c-2.3-0.1-3.1-1-3.2-3.3c9.3,0,17.9,2.1,26,6.6c0.6-0.9,1.1-1.6,1.5-2.2c-2.8-2.9-6.4-4.9-7.2-9.1
				c-1.9,0-3.6,0-5.3,0c-0.3-2.8-0.6-5.5-0.9-8.1c3.3-0.5,7.9,0.6,10.4,2.6c2.1,1.6,2,2.7-0.2,3.9c-0.4,0.2-0.7,0.4-1.1,0.6
				c-1.7,0.6-1.8,2-1,3c1.6,2,3.6,3.8,5.7,5.9c0.7-1.6,1.1-2.5,1.5-3.4c3.2-7.8,6.4-15.5,9.5-23.3c0.7-1.9,0.9-3.9,1.5-5.9
				c0.1-0.5,0.6-0.9,1-1.3c0.4-0.4,1-0.6,1.2-1.1c1.6-3.1,2.9-6.4,4.6-9.4c1.4-2.4,0.8-4-1.1-5.6c-1.5-1.3-2.9-2.7-4.5-4.2
				c-4.4,11.9-8.8,23.7-13.3,35.7c-12.4-2.7-24.4-5.3-36.5-7.9c0.2-3.3,0.6-6.2,0.4-9.1c-0.4-7-1.1-14-1.6-21
				c-0.3-4.9-0.4-9.7-0.8-14.6c-0.1-1.7,0.3-2.7,1.8-3.3C309,425,310.5,425,312,425z M338.5,511.7c-11-7.7-32.4-10.8-50.8,3.2
				c-14.5,11-19.7,32.6-12.2,50.1c7.7,18.1,28.2,29.3,49.4,25c18.4-3.8,32.1-18.1,34.2-36.2c-0.7-0.1-1.4-0.3-2.1-0.4
				c-11.1-1.2-22.2-2.5-33.3-3.8c-1.5-0.2-2.5-0.3-3.4,1.4c-1.4,2.6-4.8,3.2-7.3,1.7c-2.4-1.5-3.2-4.6-1.9-7.1
				c1.4-2.6,4.4-3.6,7.1-2.3c0.6,0.3,1.1,0.6,1.5,0.8C330.9,536,333.2,523,338.5,511.7z M438.6,563.7c6.4,18.2,30.7,32.1,54.8,24.1
				c23.2-7.7,34.9-34.4,27.2-53.1c-11,3.4-22.1,6.9-33.2,10.3c2,6.3-3.4,11.3-8.2,12C465.7,559.2,452.3,561.5,438.6,563.7z
				 M495.6,507.6c-4.9,8.2-9.9,16.3-14.6,24.4c-1.2,2-1.4,4.6-1.9,6.2c2.6,1.8,4.7,3,6.3,4.6c1,1,1.7,1.2,3,0.8
				c6.9-2.2,13.8-4.3,20.6-6.4c3.7-1.2,7.4-2.4,11.4-3.7C516,521.1,507.8,512.6,495.6,507.6z M341.4,513.8
				c-1.6,3.9-3.3,7.8-4.8,11.8c-2.9,7.8-7,14.6-14.1,19.3c-0.7,0.5-1.1,1.7-1.2,2.6c0,0.3,1.3,1,2.1,1.1c11.1,1.3,22.3,2.6,33.5,3.9
				c0.8,0.1,1.6,0.1,2.4,0.1C362.1,539.3,351.8,517,341.4,513.8z M440.3,481.5c-7.9,18.6-15.7,36.8-23.6,55.2c3.3,0.2,6,0.4,8.7,0.4
				c0.7,0,1.8-0.8,2-1.4c1.5-5.7,3.7-11,7.1-15.9c4-5.7,8.5-10.8,14.2-14.7c1.3-0.9,2.8-1.7,4.1-2.4
				C448.6,495.6,444.5,488.7,440.3,481.5z M474.4,539.2c-6-10-11.6-19.5-17.3-29c-12.2,6-19.9,19.1-20.5,27.5
				C449,538.2,461.5,538.7,474.4,539.2z M398.4,540.7c2.4-1.2,4.6-2.2,6.8-3.3c0.7-0.3,1.3-0.8,1.9-1.2c-0.6-0.5-1.1-1.2-1.7-1.5
				c-4-1.9-8.1-3.6-12-5.8c-8.4-4.8-15-11.6-21.1-19.1c-7.6-9.3-9.8-20.5-12.1-31.7c-0.2-0.8-0.6-2-1.2-2.3c-1.4-0.6-2,0.5-2.5,1.7
				c-2,5-4,10-6.1,14.9c-0.6,1.4-0.3,2.3,0.8,3.2c3.7,3.4,7.4,6.8,11,10.3c10.1,9.8,20.2,19.6,30.3,29.4
				C394.6,537.2,396.7,539,398.4,540.7z M477.7,538.9c0.1,0,0.3-0.1,0.4-0.1c0-11.4,0-22.7,0-34.4c-6.5,0.2-12.5,1.3-18.4,4.4
				C465.8,519,471.7,528.9,477.7,538.9z M435.8,556.7c11.9-2.2,23.2-4.3,34.5-6.5c0.7-0.1,1.3-1.2,2-1.8c-0.8-0.5-1.6-1.5-2.4-1.5
				c-10.8-0.7-21.6-1.3-32.4-2c-0.7,0-1.4,0.1-2.6,0.1C435.1,549,435.5,552.7,435.8,556.7z M479.7,504c0,9.3,0,17.8,0,27
				c5-8.3,9.7-16,14.8-24.4C489.3,505.7,484.7,504.9,479.7,504z M407.2,558.8c0-2-0.2-3.7,0.1-5.4c0.1-0.7,1-1.4,1.6-2
				c0.5,0.6,1.3,1.3,1.4,2c0.2,1.7,0.1,3.4,0.1,5.2c3.9-0.8,5.9-3.5,5.6-7c-0.3-3-3.6-6-6.9-6.1c-3.5-0.2-6.5,2.2-7.2,5.7
				C401.2,554.5,403.3,557.6,407.2,558.8z M479.7,495.3c6.4,1.2,12.5,2.4,19,3.7c1.2-2.1,2.6-4.5,4.1-7.2c-8,0-15.5,0-23.1,0
				C479.7,493.2,479.7,494.4,479.7,495.3z M344.5,508.1c-1.5,1.4-0.4,2.1,0.6,2.8c8.2,6.1,13.4,14.4,16.9,23.8
				c2,5.3,2.2,11,1.9,16.6c-0.1,1.2-0.1,2.5,1.7,1.8C368.2,535.7,359,518.1,344.5,508.1z M431.5,557.3c-0.3-4.3-0.6-8.4-1-12.7
				c-0.9-0.1-1.7-0.1-2.5-0.2c-3.7-0.1-4.5,0.7-4.3,4.4c0.1,1,0.1,2,0.2,3C424.4,558.1,425.1,558.7,431.5,557.3z M430,537.8
				c1.1-0.6,1.7-0.7,1.8-1c0.8-1.7,1.4-3.5,2.1-5.3c3.6-9.4,9.1-17.3,17.8-22.6c1.2-0.7,2.3-1.6,3.4-2.3c-0.1-0.2-0.1-0.4-0.2-0.7
				c-0.5,0-1.1-0.1-1.5,0.1c-1.8,1-3.6,2.1-5.3,3.3c-7.4,5.5-12,13.1-15.9,21.2C431.2,532.6,430.9,534.9,430,537.8z M478.5,499.8
				c-0.5-0.4-0.6-0.6-0.7-0.6c-6.9-0.1-13.5,1.4-19.7,4.4c-0.3,0.1-0.4,0.7-0.6,1.1c0.5,0.1,1.1,0.3,1.5,0.1
				c5.7-2.6,11.8-3.8,18-4.2C477.4,500.5,477.9,500.1,478.5,499.8z M497.3,502.7c-5.6-2.6-13.9-4-17.5-3c5.2,1.4,10.4,2.5,15.6,3.6
				C495.7,503.4,496.2,503,497.3,502.7z M412.9,527.9c1.1-0.8,1.7-1.3,2.4-1.8c-0.8-0.4-1.5-1.2-2.4-1.2c-0.6-0.1-1.4,0.7-2,1.1
				C411.5,526.5,412,527.1,412.9,527.9z M412.9,574.5c-0.8,0.8-1.4,1.4-2,1.9c0.7,0.4,1.4,1.2,2,1.1c0.8-0.1,1.6-0.8,2.4-1.2
				C414.6,575.8,413.9,575.3,412.9,574.5z M404.9,578.4c0.8-1,1.3-1.5,1.8-2.1c-0.6-0.4-1.3-1.1-1.9-1.1c-0.7,0-1.3,0.7-2,1.1
				C403.4,576.9,404,577.5,404.9,578.4z M404.9,528c0.9-1,1.4-1.5,1.9-2.1c-0.6-0.4-1.3-1.2-1.9-1.1c-0.7,0-1.3,0.8-1.9,1.2
				C403.4,526.6,404,527.1,404.9,528z M479.6,549.6c0.6-0.9,1.4-1.6,1.3-2c-0.2-0.6-1-1.1-1.5-1.6c-0.5,0.6-1.2,1.1-1.3,1.7
				C478.1,548.2,478.9,548.8,479.6,549.6z"/>
		</g>
	</g>
</g>
<g id="Layer_6_copy">
	<g id="XMLID_2_">
		<g>
			<path fill="#788E92" d="M596-0.6c-6.8,0.6-4.5,1.2-17.3-0.9c-0.6-0.9-4.3-3.2-5-4.1c-1-1.3-1.9-2.6-2.9-3.9
				c-0.2-0.3-0.3-0.6-0.8-1.4c0,0.1,0,0.2-0.1,0.2c-2.1-2.4-2.1-5.9-1.5-9c1.2-6.9,0.8-5.3,2.2-8.2c0.2-0.3,3.3-5.9,3.5-6.3
				c0,0-0.1,0-0.1,0c0.7-0.8,1.2-1.7,1.5-2.7c0.1-0.1,0.1-0.2,0.2-0.3c0.2-0.1,0.2-0.4,0.4-0.4c-0.1-0.2,0-0.4-0.1-0.6
				c1.3-3.6,1.2-7.2,0.7-10.9c-0.2-1.1,0-2.3,0.1-3.4c0.1-3.4,0.1-6.9,0.5-10.3c0.2-1.7,1.3-3.2,2-4.8c0.3-0.8,0.7-1.6,0.8-2.5
				c0.3-2.5,0.4-5,0.8-7.4c0.3-1.8,0.2-3.4-0.8-5.1c-0.9-1.6-1.2-3.5-1.6-5.2c-0.1-0.4,0.7-1.1,1.2-1.3c0.3-0.2,1,0.1,1.4,0.2
				c2.7,1.1,5.3,2.6,8.2,3.2c1.8,0.4,3.9-0.5,5.8-1.1c2.8-0.8,5.4-2,8.2-2.9c0.4-0.1,0.9,0,1.4,0.1c-0.1,0.3-0.2,0.6-0.2,0.8
				c-0.1,0.1-0.2,0.2-0.2,0.3c-0.6,2-1.2,4-1.5,6.1c-0.4,3.1-0.7,6.3-0.5,9.4c0.1,1.5,1.2,8.3,1.6,9.5c2.1,5.9,1.8,11.9,1.9,18
				c0,1.3-0.3,2.7-0.4,4.1c0,0.3,0.2,0.9,0.4,1c1.5,0.6,4.4,6.3,4.8,7.1c1.1,2.6,2.5,5.2,3,8c0.4,1.8,1.2,6.2,0.7,10.5
				c-0.6,4.6-2.7,10.7-2.8,10.9c-0.4,0.7-1.1,1.1-1.5,1.1C605.3-1.7,600.7-1.1,596-0.6z M601.7-84.5c0.1-0.8,0.2-1.5,0.2-2.3
				c-0.8,0.6-1.6,1-2.2,1.7c-0.4,0.4-0.4,1.2-0.7,2.1c0.4,0.5,0.9,1.1,1.4,1.7c0.3-0.5,0.7-1,0.9-1.5
				C601.5-83.4,601.6-84,601.7-84.5z M591.4-73.9c1-0.9,1.9-1.6,1.9-1.8c-0.4-0.9-1.1-1.7-1.7-2.6c-0.7,0.7-1.7,1.2-1.8,2
				C589.6-75.8,590.6-75,591.4-73.9z M583.4-82.6c0.3-0.5,0.5-1,1-1.7c-0.9-0.8-1.9-1.6-2.8-2.4c-0.1-0.1-0.4,0-0.6,0
				c0.3,0.8,0.5,1.6,0.8,2.4c0.1,0.3,0.3,0.6,0.5,0.8C582.6-83.2,583-82.9,583.4-82.6z"/>
			<path fill="#788E92" d="M593.3-75.7c0.1,0.2-0.9,0.9-1.9,1.8c-0.8-1.1-1.8-1.9-1.7-2.4c0.2-0.8,1.2-1.3,1.8-2
				C592.2-77.5,592.9-76.7,593.3-75.7z"/>
		</g>
		<g>
			<path fill="none" stroke="#7A98A0" stroke-miterlimit="10" d="M573.8-5.6c0.6,0.9,4.3,3.2,5,4.1c12.8,2.1,10.5,1.5,17.3,0.9
				c4.7-0.5,9.3-1.1,14.1-2c0.4,0,1.1-0.4,1.5-1.1c0.1-0.2,2.1-6.3,2.8-10.9c0.6-4.3-0.3-8.7-0.7-10.5c-0.6-2.8-2-5.3-3-8
				c-0.3-0.8-3.2-6.6-4.8-7.1c-0.2-0.1-0.4-0.6-0.4-1c0.1-1.4,0.4-2.7,0.4-4.1c-0.1-6.1,0.1-12.2-1.9-18c-0.4-1.2-1.5-8-1.6-9.5
				c-0.1-3.1,0.1-6.3,0.5-9.4c0.3-2.1,0.9-4.1,1.5-6.1c0-0.1,0.1-0.2,0.2-0.3c0-0.3,0.1-0.6,0.2-0.8c-0.5-0.1-1-0.2-1.4-0.1
				c-2.8,0.9-5.4,2-8.2,2.9c-1.9,0.6-4,1.4-5.8,1.1c-2.8-0.6-5.4-2.1-8.2-3.2c-0.4-0.2-1.1-0.4-1.4-0.2c-0.5,0.3-1.2,1-1.2,1.3
				c0.4,1.8,0.7,3.7,1.6,5.2c0.9,1.7,1,3.3,0.8,5.1c-0.3,2.5-0.4,5-0.8,7.4c-0.1,0.9-0.5,1.7-0.8,2.5c-0.7,1.6-1.8,3.2-2,4.8
				c-0.4,3.4-0.4,6.8-0.5,10.3c0,1.1-0.2,2.3-0.1,3.4c0.6,3.7,0.7,7.3-0.7,10.9c0,0.2,0,0.4,0.1,0.6c-0.2,0-0.3,0.3-0.4,0.4
				c-0.1,0.1-0.1,0.2-0.2,0.3c-0.3,1-0.8,1.9-1.5,2.7c0,0,0.1,0,0.1,0c-0.2,0.3-3.3,5.9-3.5,6.3c-1.4,2.9-0.9,1.3-2.2,8.2
				c-0.6,3.1-0.6,6.6,1.5,9c0-0.1,0-0.1,0.1-0.2c0.4,0.8,0.6,1.1,0.8,1.4C571.8-8.1,572.8-6.8,573.8-5.6z"/>
			<path fill="none" stroke="#7A98A0" stroke-miterlimit="10" d="M599.7-85.1c0.6-0.7,1.5-1.1,2.2-1.7c-0.1,0.8-0.1,1.5-0.2,2.3
				c-0.1,0.6-0.2,1.1-0.4,1.7c-0.2,0.5-0.6,1-0.9,1.5c-0.5-0.6-1-1.1-1.4-1.7C599.3-83.9,599.3-84.7,599.7-85.1z"/>
			<path fill="none" stroke="#7A98A0" stroke-miterlimit="10" d="M589.7-76.4c0.2-0.8,1.2-1.3,1.8-2c0.6,0.9,1.3,1.7,1.7,2.6
				c0.1,0.2-0.9,0.9-1.9,1.8C590.6-75,589.6-75.8,589.7-76.4z"/>
			<path fill="none" stroke="#7A98A0" stroke-miterlimit="10" d="M580.9-86.7c0.2,0,0.5-0.1,0.6,0c1,0.8,1.9,1.6,2.8,2.4
				c-0.4,0.8-0.7,1.2-1,1.7c-0.4-0.3-0.8-0.5-1.2-0.9c-0.2-0.2-0.4-0.5-0.5-0.8C581.4-85.1,581.2-85.9,580.9-86.7z"/>
		</g>
	</g>
	<g id="XMLID_1_">
		<g>
			<path fill="#788E92" d="M580.7-5.2c-2-2-3.7-4.4-5.6-6.6c-1.1-1.2-0.8-2.4-0.2-3.6c1.2-2.8,2.2-5.7,1.7-8.9
				c0-0.2,0.4-0.7,0.7-0.8c0.9-0.5,1.9-0.9,2.8-1.3c0.3-0.1,0.6-0.3,0.9-0.5c0.9-0.6,1.2-1.3,1.1-2.6c-0.3-2.7,0.1-5.5,0-8.2
				c-0.1-2.3-0.7-4.6-0.8-7c-0.1-4.3-0.1-8.6,0-13c0-0.6,0.8-1.1,0.9-1.6c0.1-0.9,0-1.8,0-2.7c0-0.3,0.9-4.5,0.9-6.5
				c0-0.4,0.3-0.8,0.4-1.3c0.3,0.2,0.6,0.4,0.9,0.7c1.3,1,2.6,2.1,3.9,3c0.5,0.3,1.2,0.4,1.9,0.4c0.2,0,0.5-0.3,0.8-0.4
				c-0.2-0.2-0.3-0.5-0.5-0.7c-0.9-0.8-2-1.6-2.8-2.5c-1-1.2-2.7-2.8,0.7-3.3c0.3,0,0.5-0.4,0.7-0.6c0.4-0.5,0.7-1,1.1-1.5
				c0.6,1.1,1.3,2.2,1.8,3.4c0.1,0.1-0.9,0.7-1.4,1.1c-0.3,0.3-0.6,0.7-0.9,1c0.5,0.1,1,0.4,1.4,0.4c0.5,0,1-0.4,1.6-0.4
				c0.7-0.1,1.4,0,2,0c-0.4-0.4-0.9-0.8-1.2-1.2c-0.2-0.3-0.3-0.8-0.1-1.1c0.2-0.4,0.6-0.7,0.9-1.1c0.5-0.7,1-1.5,1.5-2.3
				c0.8,0.8,1.6,1.6,2.2,2.5c0.6,0.8,1.7,3.5,0.1,2.6c-0.3-0.2-1,0-1.2,0.2c-1.1,0.9-2.1,1.9-3.1,3c-0.2,0.2-0.3,0.6-0.5,0.9
				c0.3,0,0.7,0.1,0.9,0c0.8-0.5,1.6-1.1,2.4-1.5c0.4-0.2,1-0.2,1.5-0.3c-0.2,0.4-0.5,0.7-0.7,1.1c-0.1,0.2-0.2,0.4-0.3,0.6
				c0.3,0.1,0.6,0.4,0.8,0.3c0.7-0.3,1.4-0.8,2-1.2c0.5-0.3,0.9-0.5,1.4-0.7c0.1,0.5,0.1,1,0.3,1.4c0.8,3,1.3,6.2,2.7,9
				c1.2,2.4,1.9,5.1,1,7c-1.1,2.3-0.4,4.1-0.4,6.2c0,1.2-0.6,2.3-0.9,3.5c-0.4,1.7-0.8,3.3-1.3,5c-0.3,1.2-0.7,2.5-1,3.7
				c-0.5,2.3-1,4.7-1.5,7c-0.8,4.4-1.6,8.7-2.2,13.1c-0.2,1.2,0,2.6,0,3.8c0,0.7,0.1,1.4,0,2.1c0,0.3-0.3,0.5-0.4,0.7
				c-0.2-0.2-0.7-0.4-0.7-0.6c0-0.2-0.1-0.3-0.1-0.5c-0.1-1-0.3-2.1-0.3-3.1c0-3.2,0-6.4,0-9.6c0-0.3-0.1-0.7-0.2-1
				c-0.2,0.3-0.4,0.7-0.5,1c-0.2,1-0.3,2.1-0.5,3.1c0,0.2-0.2,0.4-0.3,0.6c0-0.2-0.1-0.4-0.1-0.7c0-1,0-1.9,0-2.9
				c0-0.2-0.1-0.4-0.1-0.6c-0.1,0.2-0.3,0.4-0.3,0.6c-0.2,1.3-0.3,2.6-0.5,3.9c-0.1,0.4-0.5,0.8-0.7,1.2c-0.2-0.4-0.6-0.8-0.7-1.2
				c-0.7-3.1-0.9-6.5-2.2-9.4c-2.2-4.8-0.9-9.7-0.9-14.5c0-0.4-0.2-0.8-0.3-1.2c-0.2,0.4-0.7,0.8-0.7,1.1c-0.2,2.1-0.2,4.2-0.3,6.3
				c0.1,0,0.3,0,0.4,0c0,5,0,10,0,15.1c0,0.5,0.1,1.1,0.4,1.4c3.1,2.4,1.7,6.4,3.1,9.3c0.1,0.3,0.2,0.7,0.1,1.1
				c-0.1,0.7-0.6,1.3-1.7,1.2c-1.4-0.2-0.7-1.2-2.1-2.6c-0.5-0.5,0.4-6.1,0.2-6.1c0,0-0.9-0.4-1-0.8c-0.6-2.1-1.2-4.2-1.7-6.3
				c-0.2-0.9-0.3-1.8-0.7-2.6c-0.4-0.8-1-1.6-1.6-2.4c0.3,0.8,0.6,1.6,0.8,2.5c0.1,0.7,0.3,1.5,0.4,2.2c0.3,1.8,0.6,3.6,0.9,5.5
				c0.3,1.7,0.6,3.5,1,5.2c0.4,1.8-0.9,5.2-2.6,5.6C582.8-4.4,581.3-4.6,580.7-5.2z"/>
		</g>
		<g>
			<path fill="none" stroke="#7A98A0" stroke-miterlimit="10" d="M597-6.5c-0.1,0.1-0.2,0.1-0.3,0.1c0,0.2,0.1,0.3,0.1,0.5
				c0,0.2,0.5,0.4,0.7,0.6c0.1-0.2,0.4-0.5,0.4-0.7c0-0.7,0-1.4,0-2.1c0-1.3-0.2-2.6,0-3.8c0.7-4.4,1.5-8.7,2.2-13.1
				c0.4-2.4,0.9-4.7,1.5-7c0.3-1.2,0.7-2.5,1-3.7c0.4-1.7,0.8-3.3,1.3-5c0.3-1.2,0.9-2.3,0.9-3.5c0-2.1-0.7-3.9,0.4-6.2
				c0.9-1.9,0.2-4.6-1-7c-1.4-2.8-1.8-5.9-2.7-9c-0.1-0.5-0.2-0.9-0.3-1.4c-0.5,0.2-1,0.4-1.4,0.7c-0.7,0.4-1.3,0.9-2,1.2
				c-0.2,0.1-0.5-0.2-0.8-0.3c0.1-0.2,0.2-0.4,0.3-0.6c0.2-0.4,0.5-0.7,0.7-1.1c-0.5,0.1-1.1,0.1-1.5,0.3c-0.8,0.4-1.6,1.1-2.4,1.5
				c-0.2,0.1-0.6,0-0.9,0c0.2-0.3,0.3-0.7,0.5-0.9c1-1,2-2,3.1-3c0.3-0.2,1-0.4,1.2-0.2c1.6,0.9,0.4-1.8-0.1-2.6
				c-0.6-0.9-1.5-1.6-2.2-2.5c-0.5,0.8-1,1.5-1.5,2.3c-0.3,0.4-0.7,0.7-0.9,1.1c-0.1,0.3-0.1,0.8,0.1,1.1c0.3,0.5,0.8,0.8,1.2,1.2
				c-0.7,0-1.4-0.1-2,0c-0.5,0.1-1,0.4-1.6,0.4c-0.5,0-1-0.2-1.4-0.4c0.3-0.3,0.6-0.7,0.9-1c0.4-0.4,1.4-0.9,1.4-1.1
				c-0.5-1.2-1.2-2.3-1.8-3.4c-0.3,0.5-0.7,1-1.1,1.5c-0.2,0.3-0.5,0.6-0.7,0.6c-3.4,0.5-1.7,2.1-0.7,3.3c0.8,1,1.9,1.7,2.8,2.5
				c0.2,0.2,0.3,0.5,0.5,0.7c-0.3,0.1-0.5,0.4-0.8,0.4c-0.6-0.1-1.4-0.1-1.9-0.4c-1.4-0.9-2.6-2-3.9-3c-0.3-0.2-0.6-0.4-0.9-0.7
				c-0.1,0.4-0.4,0.8-0.4,1.3c0.1,2-0.9,6.3-0.9,6.5c0,0.9,0.2,1.9,0,2.7c-0.1,0.6-0.9,1.1-0.9,1.6c-0.1,4.3-0.1,8.6,0,13
				c0.1,2.3,0.7,4.6,0.8,7c0.1,2.7-0.3,5.5,0,8.2c0.1,1.3-0.2,2.1-1.1,2.6c-0.3,0.2-0.6,0.3-0.9,0.5c-0.9,0.5-1.9,0.9-2.8,1.3
				c-0.3,0.2-0.8,0.6-0.7,0.8c0.5,3.2-0.5,6.1-1.7,8.9c-0.5,1.2-0.8,2.4,0.2,3.6c1.9,2.2,3.6,4.5,5.6,6.6c0.6,0.6,2.1,0.8,3.1,0.6
				c1.7-0.5,3-3.8,2.6-5.6c-0.4-1.7-0.7-3.4-1-5.2c-0.3-1.8-0.6-3.6-0.9-5.5c-0.1-0.7-0.2-1.5-0.4-2.2c-0.1-0.8-0.5-1.6-0.8-2.5
				c0.5,0.8,1.2,1.5,1.6,2.4c0.4,0.8,0.5,1.7,0.7,2.6c0.6,2.1,1.1,4.2,1.7,6.3c0.1,0.3,1,0.8,1,0.8c0.3,0-0.7,5.6-0.2,6.1
				c1.4,1.3,0.7,2.4,2.1,2.6c1.1,0.1,1.6-0.5,1.7-1.2"/>
			<path fill="none" stroke="#7A98A0" stroke-miterlimit="10" d="M591.4-5.9c0.1,0,0.3,0,0.4,0c0.1-0.4,0-0.8-0.1-1.1
				c-1.4-3,0-6.9-3.1-9.3c-0.3-0.2-0.4-0.9-0.4-1.4c0-5,0-10,0-15.1c-0.1,0-0.3,0-0.4,0c0.1-2.1,0.2-4.2,0.3-6.3
				c0-0.4,0.5-0.8,0.7-1.1c0.1,0.4,0.3,0.8,0.3,1.2c-0.1,4.8-1.3,9.7,0.9,14.5c1.3,2.9,1.5,6.3,2.2,9.4c0.1,0.4,0.4,0.8,0.7,1.2
				c0.2-0.4,0.6-0.8,0.7-1.2c0.2-1.3,0.3-2.6,0.5-3.9c0-0.2,0.2-0.4,0.3-0.6c0,0.2,0.1,0.4,0.1,0.6c0,1,0,1.9,0,2.9
				c0,0.2,0.1,0.4,0.1,0.7c0.1-0.2,0.3-0.4,0.3-0.6c0.2-1,0.3-2.1,0.5-3.1c0.1-0.4,0.3-0.7,0.5-1c0.1,0.3,0.2,0.7,0.2,1
				c0,3.2-0.1,6.4,0,9.6c0,1,0.1,2.1,0.3,3.1"/>
		</g>
	</g>
	<path fill="#788E92" stroke="#7A98A0" stroke-miterlimit="10" d="M577.1-37.5c-0.1-0.2,0-0.4-0.1-0.6c0,0.1-0.1,0.2-0.1,0.3
		c-0.1,0.2-0.2,0.4-0.3,0.6C576.8-37.2,576.9-37.5,577.1-37.5z"/>
	<path fill="#788E92" d="M581.9-24.2c-0.6-0.6-1.5-1.3-1.8-2.3c-0.9,0.5-1.9,0.9-2.8,1.3c-0.3,0.2-0.8,0.6-0.7,0.8
		c0.5,3.2-0.5,6.1-1.7,8.9c-0.5,1.2-0.8,2.4,0.2,3.6c1.9,2.2,3.6,4.5,5.6,6.6c0.6,0.6,2.1,0.8,3.1,0.6c1.7-0.5,3-3.8,2.6-5.6
		c-0.4-1.7-0.7-3.4-1-5.2c-0.3-1.8-0.6-3.6-0.9-5.5c-0.1-0.1-0.2-0.4-0.3-0.5C583.3-22.2,582.7-23.4,581.9-24.2z"/>
	<path fill="#CAB9AA" d="M588.3-13.6C588.3-13.6,588.3-13.6,588.3-13.6C588.3-13.6,588.3-13.6,588.3-13.6c0,0-0.3-0.7-0.4-1.1
		c0,0.1,0.1,0.5,0.1,1C588.2-13.6,588.3-13.6,588.3-13.6z"/>
	<path fill="#CAB9AA" d="M601.2-67.8c-0.5,0.2-1,0.4-1.4,0.7c-0.7,0.4-1.3,0.9-2,1.2c-0.2,0.1-0.5-0.2-0.8-0.3
		c0.1-0.2,0.2-0.4,0.3-0.6c0.2-0.4,0.5-0.7,0.7-1.1"/>
	<path fill="#CAB9AA" d="M597.9-67.9c-0.5,0.1-1.1,0.1-1.5,0.3c-0.8,0.4-1.6,1.1-2.4,1.5c-0.2,0.1-0.6,0-0.9,0
		c0.2-0.3,0.3-0.7,0.5-0.9c1-1,1.6-1.2,2.7-2.1c0.3-0.2,1.3-1.2,1.6-1.1c1.6,0.9,0.4-1.8-0.1-2.6c-0.6-0.9-1.5-1.6-2.2-2.5
		c-0.5,0.8-1,1.5-1.5,2.3c-0.3,0.4-0.7,0.7-0.9,1.1c-0.1,0.3-0.1,0.8,0.1,1.1c0.3,0.5,0.8,0.8,1.2,1.2c-0.7,0-1.4-0.1-2,0
		c-0.5,0.1-1,0.4-1.6,0.4c-0.5,0-1-0.2-1.4-0.4c0.3-0.3,0.6-0.7,0.9-1c0.5-0.4,1.4-0.9,1.4-1.1c-0.5-1.2-1.2-2.3-1.8-3.4
		c-0.3,0.5-0.7,1-1.1,1.5c-0.2,0.3-0.5,0.6-0.7,0.6c-3.4,0.5-1.7,2.1-0.7,3.3c0.8,1,1.9,1.7,2.8,2.5c0.2,0.2,0.3,0.5,0.5,0.7
		c-0.3,0.1-0.5,0.4-0.8,0.4c-0.6-0.1-1.4-0.1-1.9-0.4c-1.4-0.9-2.6-2-3.9-3c-0.3-0.2-0.6-0.4-0.9-0.7c-0.1,0.4-0.4,0.8-0.4,1.3
		c0,2-0.9,6.3-0.9,6.5c0,0.9-0.8,3.8-0.8,4.4c-0.1,4.3-0.1,8.6,0,13c0.1,2.3,0.7,4.6,0.8,7c0.1,2.7-0.3,5.5,0,8.2
		c0.1,1.3,0.7,1.5-0.2,2.1c0.5,0.8,2.6,3.5,3,4.4c0.4,0.8,0.5,1.7,0.7,2.6c0.6,2.1,1.1,4.2,1.7,6.3c0.1,0.2,0.5,0.5,0.8,0.6
		c-0.1-0.6-0.1-0.9-0.1-1v0.1v-0.1c0.1,0.4,0.4,1.1,0.4,1.1c0,0-0.1,0-0.3-0.1c0.3,2.5,1,8.7,2.1,8.9l7.2-0.5
		c0.1-0.2,0.4-0.5,0.4-0.7c0-0.7,0-1.4,0-2.1c0-1.3-0.2-2.6,0-3.8c0.7-4.4,1.5-8.7,2.2-13.1c0.4-2.4,0.9-4.7,1.5-7
		c0.3-1.2,0.7-2.5,1-3.7c0.4-1.7,0.8-3.3,1.3-5c0.3-1.2,0.5-1.7,0.5-2.9c0-2.1-0.1-4,0.2-6.5c0.3-3.3,0.1-4.2-0.4-7.2
		c-0.5-3-1.8-5.9-2.7-9c-0.1-0.5-0.2-0.9-0.3-1.4"/>
	<path fill="#788E92" d="M580.1-26.5c0.3,0.9,1.2,1.7,1.8,2.3c0.8,0.8,1.3,2,2.3,2.8c0.1,0.1,0.1,0.4,0.3,0.5
		c-0.1-0.7-0.3-1.5-0.4-2.2"/>
	<path fill="#D49B8D" stroke="#7A98A0" stroke-miterlimit="10" d="M592.4-73.9c-0.8-1.1-1.8-1.9-1.7-2.4c0.2-0.8,1.2-1.3,1.8-2
		c0.6,0.9,1.3,1.7,1.7,2.6C594.3-75.5,593.4-74.9,592.4-73.9z"/>
	<path fill="#EEE5D5" stroke="#7A98A0" stroke-miterlimit="10" d="M599-83c0.3-0.9,0.3-1.7,0.7-2.1c0.6-0.7,1.5-1.1,2.2-1.7
		c-0.1,0.8-0.1,1.5-0.2,2.3c-0.1,0.6-0.2,1.1-0.4,1.7c-0.2,0.5-0.6,1-0.9,1.5C600-82,599.5-82.5,599-83z"/>
	<path fill="#EEE5D5" stroke="#7A98A0" stroke-miterlimit="10" d="M584.4-84.4c-0.4,0.8-0.7,1.2-1,1.7c-0.4-0.3-0.8-0.6-1.2-0.9
		c-0.2-0.2-0.4-0.5-0.5-0.8c-0.3-0.8-0.5-1.6-0.8-2.4c0.2,0,0.5-0.1,0.6,0C582.5-86,583.5-85.2,584.4-84.4z"/>
	<g id="XMLID_5_">
		<g>
			<path fill="#717985" d="M1272.2-431.8c0.1,0.3,0.3,0.6,0.5,0.8c0.4,0.3,0.8,0.6,1.2,0.9c0.3-0.5,0.5-1,1-1.7
				c-0.9-0.8-1.9-1.6-2.8-2.3c-0.1-0.1-0.4,0-0.6,0C1271.7-433.4,1271.9-432.6,1272.2-431.8z M1268.7-385c-0.1-0.2,0-0.4-0.1-0.6
				c1.3-3.6,1.2-7.2,0.7-10.9c-0.2-1.1,0-2.3,0.1-3.4c0.1-3.4,0.1-6.9,0.5-10.3c0.2-1.7,1.3-3.2,2-4.8c0.3-0.8,0.7-1.6,0.8-2.5
				c0.3-2.5,0.4-5,0.8-7.4c0.3-1.8,0.2-3.4-0.8-5.1c-0.9-1.6-1.2-3.5-1.6-5.2c-0.1-0.4,0.7-1.1,1.2-1.3c0.3-0.2,1,0.1,1.4,0.2
				c2.7,1.1,5.3,2.6,8.2,3.2c1.8,0.4,3.9-0.5,5.8-1.1c2.8-0.8,5.4-2,8.2-2.9c0.4-0.1,0.9,0,1.4,0.1c-0.1,0.3-0.2,0.6-0.2,0.8
				c-0.1,0.1-0.2,0.2-0.2,0.3c-0.6,2-1.2,4-1.5,6.1c-0.4,3.1-0.7,6.3-0.5,9.4c0.1,1.5,1.2,8.3,1.6,9.5c2.1,5.9,1.8,11.9,1.9,18
				c0,1.3-0.3,2.7-0.4,4.1c0,0.3,4.8,7.3,5.2,8.1c1.1,2.6,2.5,5.2,3,8c0.4,1.8,1.2,6.2,0.7,10.5c-0.6,4.6-2.7,10.7-2.8,10.9
				c-0.4,0.7-1.1,1.1-1.5,1.1c-4.8,0.9-9.4,1.5-14.1,2c-6.8,0.6-4.5,1.2-17.3-0.9c-0.6-0.9-4.3-3.2-5-4.1c-1-1.3-1.9-2.6-2.9-3.9
				c-0.2-0.3-0.3-0.6-0.8-1.4c0,0.1,0,0.2-0.1,0.2c-2.1-2.4-2.1-5.9-1.4-9c1.2-6.9,0.8-5.3,2.2-8.2c0.2-0.3,3.3-5.9,3.5-6.3
				c0,0-0.1,0-0.1,0c0.2-0.2,0.4-0.5,0.6-0.8c0.4-0.6,0.7-1.3,0.9-2c0.1-0.1,0.1-0.2,0.2-0.3C1268.4-384.7,1268.4-385,1268.7-385z
				 M1292.2-432c0.1-0.8,0.2-1.5,0.2-2.3c-0.8,0.6-1.6,1-2.2,1.7c-0.4,0.4-0.4,1.2-0.7,2.1c0.4,0.5,0.9,1.1,1.4,1.7
				c0.3-0.5,0.7-1,0.9-1.5C1292-430.9,1292.1-431.4,1292.2-432z M1281.9-421.4c1-0.9,1.9-1.6,1.9-1.8c-0.4-0.9-1.1-1.7-1.7-2.6
				c-0.7,0.7-1.7,1.2-1.8,2C1280.1-423.2,1281.1-422.5,1281.9-421.4z"/>
			<path fill="#717985" d="M1283.8-423.2c0.1,0.2-0.9,0.9-1.9,1.8c-0.8-1.1-1.8-1.9-1.7-2.4c0.2-0.8,1.2-1.3,1.8-2
				C1282.7-424.9,1283.4-424.1,1283.8-423.2z"/>
		</g>
		<g>
			<path fill="none" stroke="#7A98A0" stroke-miterlimit="10" d="M1266.2-353c0.6,0.9,4.3,3.2,5,4.1c12.8,2.1,10.5,1.5,17.3,0.9
				c4.7-0.5,9.3-1.1,14.1-2c0.4,0,1.1-0.4,1.5-1.1c0.1-0.2,2.1-6.3,2.8-10.9c0.6-4.3-0.3-8.7-0.7-10.5c-0.6-2.8-2-5.3-3-8
				c-0.3-0.8-5.2-7.8-5.2-8.1c0.1-1.4,0.4-2.7,0.4-4.1c-0.1-6.1,0.1-12.2-1.9-18c-0.4-1.2-1.5-8-1.6-9.5c-0.1-3.1,0.1-6.3,0.5-9.4
				c0.3-2.1,0.9-4.1,1.5-6.1c0-0.1,0.1-0.2,0.2-0.3c0-0.3,0.1-0.6,0.2-0.8c-0.5-0.1-1-0.2-1.4-0.1c-2.8,0.9-5.4,2-8.2,2.9
				c-1.9,0.6-4,1.4-5.8,1.1c-2.8-0.6-5.4-2.1-8.2-3.2c-0.4-0.2-1.1-0.4-1.4-0.2c-0.5,0.3-1.2,1-1.2,1.3c0.4,1.8,0.7,3.7,1.6,5.2
				c0.9,1.7,1,3.3,0.8,5.1c-0.3,2.5-0.5,5-0.8,7.4c-0.1,0.8-0.5,1.7-0.8,2.5c-0.7,1.6-1.8,3.2-2,4.8c-0.4,3.4-0.4,6.8-0.5,10.3
				c0,1.1-0.2,2.3-0.1,3.4c0.6,3.7,0.7,7.3-0.7,10.9c0,0.2,0,0.4,0.1,0.6c-0.2,0-0.3,0.3-0.4,0.4c-0.1,0.1-0.1,0.2-0.2,0.3
				c-0.2,0.7-0.5,1.3-0.9,2c-0.2,0.3-0.4,0.5-0.6,0.8c0,0,0.1,0,0.1,0c-0.2,0.3-3.3,5.9-3.5,6.3c-1.4,2.9-0.9,1.3-2.2,8.2
				c-0.6,3.1-0.6,6.6,1.4,9c0-0.1,0-0.1,0.1-0.2c0.5,0.8,0.6,1.1,0.8,1.4C1264.2-355.6,1265.2-354.3,1266.2-353z"/>
			<path fill="none" stroke="#7A98A0" stroke-miterlimit="10" d="M1290.2-432.6c0.6-0.7,1.5-1.1,2.2-1.7c-0.1,0.8-0.1,1.5-0.2,2.3
				c-0.1,0.6-0.2,1.1-0.4,1.7c-0.2,0.5-0.6,1-0.9,1.5c-0.5-0.6-1-1.1-1.4-1.7C1289.8-431.4,1289.8-432.1,1290.2-432.6z"/>
			<path fill="none" stroke="#7A98A0" stroke-miterlimit="10" d="M1280.2-423.8c0.2-0.8,1.2-1.3,1.8-2c0.6,0.9,1.3,1.7,1.7,2.6
				c0.1,0.2-0.9,0.9-1.9,1.8C1281.1-422.5,1280.1-423.2,1280.2-423.8z"/>
			<path fill="none" stroke="#7A98A0" stroke-miterlimit="10" d="M1271.4-434.2c0.2,0,0.5-0.1,0.6,0c1,0.8,1.9,1.6,2.8,2.3
				c-0.4,0.8-0.7,1.2-1,1.7c-0.4-0.3-0.8-0.6-1.2-0.9c-0.2-0.2-0.4-0.5-0.5-0.8C1271.9-432.6,1271.7-433.4,1271.4-434.2z"/>
		</g>
	</g>
	<path fill="#788E92" stroke="#7A98A0" stroke-miterlimit="10" d="M1267.6-385c-0.1-0.2,0-0.4-0.1-0.6c0,0.1-0.1,0.2-0.1,0.3
		c-0.1,0.2-0.2,0.4-0.3,0.6C1267.3-384.7,1267.3-385,1267.6-385z"/>
	<path fill="#CAB9AA" d="M1278.8-361C1278.8-361.1,1278.8-361.1,1278.8-361C1278.8-361.1,1278.8-361.1,1278.8-361
		c0,0-0.3-0.7-0.4-1.1c0,0.1,0.1,0.5,0.1,1C1278.7-361,1278.8-361,1278.8-361z"/>
	<path fill="#CAB9AA" d="M1291.7-415.2c-0.5,0.2-1,0.4-1.4,0.7c-0.7,0.4-1.3,0.9-2,1.2c-0.2,0.1-0.5-0.2-0.8-0.3
		c0.1-0.2,0.2-0.4,0.3-0.6c0.2-0.4,0.5-0.7,0.7-1.1"/>
	<path fill="#CAB9AA" d="M1294.8-391.2c0-2.1-0.1-4,0.2-6.5c0.3-3.3,0.1-4.2-0.4-7.2c-0.5-3-1.8-5.9-2.7-9c-0.1-0.5-0.2-0.9-0.3-1.4
		l-3.2-0.1c-0.5,0.1-1.1,0.1-1.5,0.3c-0.8,0.4-1.6,1.1-2.4,1.5c-0.2,0.1-0.6,0-0.9,0c0.2-0.3,0.3-0.7,0.5-0.9c1-1,1.6-1.2,2.7-2.1
		c0.3-0.2,1.3-1.2,1.6-1.1c1.6,0.9,0.4-1.8-0.1-2.6c-0.6-0.9-1.5-1.6-2.2-2.5c-0.5,0.8-1,1.5-1.4,2.3c-0.3,0.4-0.7,0.7-0.9,1.1
		c-0.1,0.3-0.1,0.8,0.1,1.1c0.3,0.5,0.8,0.8,1.2,1.2c-0.7,0-1.4-0.1-2,0c-0.5,0.1-1,0.4-1.6,0.4c-0.5,0-1-0.2-1.4-0.4
		c0.3-0.3,0.6-0.7,0.9-1c0.5-0.4,1.4-0.9,1.4-1.1c-0.5-1.2-1.2-2.3-1.8-3.4c-0.3,0.5-0.7,1-1.1,1.5c-0.2,0.3-0.5,0.6-0.7,0.6
		c-3.4,0.5-1.7,2.1-0.7,3.3c0.8,1,1.9,1.7,2.8,2.5c0.2,0.2,0.3,0.5,0.5,0.7c-0.3,0.1-0.5,0.4-0.8,0.4c-0.6-0.1-1.4-0.1-1.9-0.4
		c-1.4-0.9-2.6-2-3.9-3c-0.3-0.2-0.6-0.4-0.9-0.7c-0.1,0.4-0.4,0.8-0.4,1.3c0,2-0.9,6.3-0.9,6.5c0,0.9-0.8,3.8-0.8,4.4
		c-0.1,4.3-0.1,8.6,0,13c0.1,2.3,0.7,4.6,0.8,7c0.1,2.7-0.3,5.5,0,8.2c0.1,1.3,0.7,1.5-0.2,2.1c0.5,0.8,2.6,3.5,3,4.4
		c0.4,0.8,0.5,1.7,0.7,2.6c0.6,2.1,1.1,4.2,1.7,6.3c0.1,0.2,0.5,0.5,0.8,0.6c-0.1-0.6-0.1-0.9-0.1-1v0.1v-0.1
		c0.1,0.4,0.4,1.1,0.4,1.1c0,0-0.1,0-0.3-0.1c0.3,2.5,1,8.7,2.1,8.9l7.2-0.5c0.1-0.2,0.4-0.5,0.4-0.7c0-0.7,0-1.4,0-2.1
		c0-1.3-0.2-2.6,0-3.8c0.7-4.4,1.4-8.7,2.2-13.1c0.4-2.4,0.9-4.7,1.5-7c0.3-1.2,0.7-2.5,1-3.7c0.3-1,0.5-1.9,0.7-2.8
		c-0.1,0.1-0.2,0.1-0.3,0.2c0.1-0.1,0.2-0.1,0.3-0.2c0.2-0.7,0.4-1.5,0.6-2.2C1294.6-389.4,1294.8-390,1294.8-391.2z"/>
	<path fill="#788E92" d="M1270.6-373.9c0.3,0.9,1.2,1.7,1.8,2.3c0.8,0.8,1.3,2,2.3,2.8c0.1,0.1,0.1,0.4,0.3,0.5
		c-0.1-0.7-0.3-1.5-0.4-2.2"/>
	<path fill="#D49B8D" stroke="#7A98A0" stroke-miterlimit="10" d="M1282.9-421.4c-0.8-1.1-1.8-1.9-1.7-2.4c0.2-0.8,1.2-1.3,1.8-2
		c0.6,0.9,1.3,1.7,1.7,2.6C1284.8-423,1283.9-422.3,1282.9-421.4z"/>
	<path fill="#EEE5D5" stroke="#7A98A0" stroke-miterlimit="10" d="M1289.5-430.5c0.3-0.9,0.3-1.7,0.7-2.1c0.6-0.7,1.5-1.1,2.2-1.7
		c-0.1,0.8-0.1,1.5-0.2,2.3c-0.1,0.6-0.2,1.1-0.4,1.7c-0.2,0.5-0.6,1-0.9,1.5C1290.5-429.4,1290-430,1289.5-430.5z"/>
	<path fill="#EEE5D5" stroke="#7A98A0" stroke-miterlimit="10" d="M1274.9-431.8c-0.4,0.8-0.7,1.2-1,1.7c-0.4-0.3-0.8-0.6-1.2-0.9
		c-0.2-0.2-0.4-0.5-0.5-0.8c-0.3-0.8-0.5-1.6-0.8-2.4c0.2,0,0.5-0.1,0.6,0C1273.1-433.4,1274-432.6,1274.9-431.8z"/>
	<g id="tbLA5J.tif">
		
			<image overflow="visible" enable-background="new    " width="149" height="226" id="Layer_0_7_" xlink:href="57AE35C98E9362E7.png"  transform="matrix(0.1343 0 0 0.1343 463.1901 -99.4177)">
		</image>
	</g>
	<path fill="#788E92" d="M1361-353.7c3.5-4.6,2.6-9.8,2.9-12.8c0.2-2.5-0.5-9.5-0.8-10.6c0-0.1-1-3.2-1-3.3c-0.5-1-4.3-8.1-6.2-9.5
		c-0.6-0.4-1.4-0.5-1.9,0.1l-0.4,0.6c-0.3,0.4-0.4,1-0.1,1.4c0.9,1.6,3.1,5.4,4.1,7c1.2,2.1,1.9,9.5,2.2,14.1
		c0.2,2.9-1.7,9.7-1.8,9.7c-0.2,0.2-1.3,6.3,0.6,4.8C1359.1-351.9,1360.9-353.5,1361-353.7z"/>
</g>
<g id="Layer_9">
</g>
<g id="Layer_7">
</g>
<g id="Layer_2">
	<g>
		<rect x="242.4" y="-254.1" fill="#F9DCC4" width="112.5" height="186"/>
		<path fill="#4B3246" d="M410.6-133.2c-0.4,0-0.8-0.5-1.3-0.8"/>
		<path fill="#4B3246" d="M377.9-171.3c-0.4,0.1-0.9,0.3-1.3,0.3c-0.9-0.1-1.8-0.4-2.7-0.6c1,0,2.1,0.1,3.1,0.1c0.3,0,0.6,0,0.8,0
			C377.9-171.4,377.9-171.3,377.9-171.3z"/>
		<path fill="#4B3246" d="M354.9-297"/>
		<path fill="#4B3246" d="M352.1-299.6"/>
		<path fill="#4B3246" d="M321.7-313.4c0.1-0.1,0.2-0.1,0.3-0.1"/>
		<path fill="#4B3246" d="M347.3-302.5c0.8,0.5,1.5,0.9,2.3,1.3"/>
		<path fill="#4B3246" d="M428.7-73.5"/>
		<path fill="#4B3246" d="M426.4-282.6"/>
		<path fill="#4B3246" d="M373.4-115.8c-0.6-0.3-1.4-0.6-2.3-1c0.3-0.3,0.7-0.8,1.1-0.8c1,0.1,2,0.4,2.9,0.7
			C374.7-116.7,374.3-116.4,373.4-115.8z"/>
		<path fill="#4B3246" d="M376.9-119.2c-0.9,0.3-1.8,0.6-2.8,0.7c-0.4,0.1-0.8-0.3-1.2-0.4c0.3-0.3,0.5-0.8,0.8-0.9
			c0.5-0.2,1.1-0.2,1.7-0.1C375.9-119.8,376.4-119.4,376.9-119.2L376.9-119.2z"/>
		<path fill="#4B3246" d="M362.9-126.3c-0.1-0.8-0.2-1.5-0.3-2.3c0.9,0.1,1.8,0.3,2.7,0.5c0,0,0.1,0.3,0,0.5
			c-0.1,0.2-0.3,0.3-0.5,0.4C364.2-126.9,363.5-126.6,362.9-126.3C362.9-126.2,362.9-126.3,362.9-126.3z"/>
		<path fill="#4B3246" d="M365.5-270.1c0.9,0.2,1.7,0.3,2.4,0.5c-0.7,0.3-1.4,0.8-2.1,0.8c-0.7,0-1.4-0.4-2.1-0.7
			C364.3-269.7,364.9-269.9,365.5-270.1z"/>
		<path fill="#4B3246" d="M363.4-147.4c0.8,0.4,1.4,0.8,2,1.1c-0.2,0.2-0.4,0.6-0.6,0.6c-1-0.1-2-0.4-3-0.6
			C362.3-146.6,362.8-146.9,363.4-147.4z"/>
		<path fill="#4B3246" d="M377-149.2c-0.5,0.2-1,0.5-1.5,0.6c-0.4,0.1-0.9,0-1.4-0.1c0.1-0.4,0.2-0.9,0.3-1.3
			C375.3-149.6,376.1-149.4,377-149.2C376.9-149.1,377-149.2,377-149.2z"/>
		<path fill="#4B3246" d="M367-109.9c-0.9-0.4-1.6-0.8-2.3-1.1c0.2-0.1,0.5-0.3,0.7-0.3c0.9,0.2,1.9,0.4,2.8,0.7
			C367.8-110.4,367.5-110.2,367-109.9z"/>
		<path fill="#4B3246" d="M362.7-143.2c-0.5,0.1-1.1,0.1-1.6,0.2c-0.5,0.1-1,0.1-1.5,0.1c0.1-0.2,0-0.6,0.2-0.7
			c0.5-0.2,1.1-0.4,1.7-0.4c0.4,0,0.9,0.1,1.3,0.2c0.5,0.1,0.9,0.4,1.4,0.6c-0.5,0-1,0.1-1.5,0.1
			C362.8-143.1,362.8-143.1,362.7-143.2z"/>
		<path fill="#4B3246" d="M374.6-147.4c0.2,0.6,0.5,1,0.5,1.4c0,0.2-0.6,0.6-0.9,0.6c-0.7-0.1-1.3-0.3-2-0.5
			C373-146.3,373.7-146.8,374.6-147.4z"/>
		<path fill="#4B3246" d="M375.6-183.3c-0.4,0.3-1,0.9-1.3,0.8c-0.5-0.1-0.8-0.8-1.2-1.2c0.5,0.1,0.9,0.1,1.4,0.2
			C374.8-183.4,375.2-183.3,375.6-183.3C375.6-183.3,375.6-183.3,375.6-183.3z"/>
		<path fill="#4B3246" d="M369.4-268.8c-0.4-0.3-0.7-0.6-1-0.9c0,0,0.3-0.6,0.4-0.5c0.8,0.2,1.6,0.5,2.4,0.8
			C370.8-269.4,370.2-269.1,369.4-268.8z"/>
		<path fill="#4B3246" d="M365-217.8c-1-0.1-1.8-0.2-2.5-0.3c0.6-0.3,1.2-0.7,1.8-0.9c0.4-0.1,0.8,0.3,1.2,0.5
			C365.3-218.3,365.1-218,365-217.8z"/>
		<path fill="#4B3246" d="M375.9-126.3c0.2,0.3,0.5,0.7,0.5,0.7c-0.5,0.4-1,0.9-1.6,1.2c-0.2,0.1-0.6-0.3-0.9-0.4
			C374.4-125.3,375.1-125.8,375.9-126.3z"/>
		<path fill="#4B3246" d="M362.6-132.9c0.3,0.3,0.8,0.6,0.8,0.7c-0.2,0.5-0.5,1-0.7,1.4c-0.4-0.4-0.8-0.8-1.3-1.1
			C361.7-132.2,362.1-132.5,362.6-132.9z"/>
		<path fill="#4B3246" d="M369.9-114.6c0.8,0.3,1.3,0.4,1.8,0.6c-0.3,0.2-0.5,0.4-0.8,0.5c-0.9,0-1.7-0.1-2.6-0.1
			C368.9-114,369.4-114.3,369.9-114.6z"/>
		<path fill="#4B3246" d="M369.3-89.4c-0.2-0.1-0.7-0.4-1.1-0.7c0.5-0.2,0.9-0.7,1.4-0.6c0.6,0.1,1.2,0.5,1.8,0.8
			C370.7-89.8,370.1-89.6,369.3-89.4z"/>
		<path fill="#4B3246" d="M373.1-121.8c-0.4-0.2-0.7-0.4-0.7-0.4c0.2-0.5,0.4-1,0.6-1.4c0.4,0.3,0.7,0.6,1.1,0.9
			C373.8-122.5,373.4-122.2,373.1-121.8z"/>
		<path fill="#4B3246" d="M377.5-160.3c-1.2,0.3-1.9,0.6-2.5,0.5c-0.4,0-0.8-0.6-1.2-0.9c0.1-0.1,0.3-0.3,0.3-0.3
			C375.1-160.8,376-160.6,377.5-160.3z"/>
		<path fill="#4B3246" d="M368.6-125.3c0.6,0.1,1.4,0.1,2.1,0.2c-0.5,0.2-0.9,0.5-1.4,0.6c-0.6,0-1.1-0.3-1.7-0.4
			C367.9-125.1,368.1-125.2,368.6-125.3z"/>
		<path fill="#4B3246" d="M362.9-126.2c0.2,0.4,0.5,0.7,0.7,1.1c-0.4,0.1-0.8,0.3-1.1,0.1c-0.4-0.2-0.8-0.6-1.2-1
			c0.4,0.1,0.7,0.2,1.1,0.2C362.6-125.8,362.7-126.1,362.9-126.2C362.9-126.3,362.9-126.2,362.9-126.2z"/>
		<path fill="#4B3246" d="M371.2-224.1c-0.5,0.6-1,1.1-1.4,1.5c-0.2-0.3-0.6-0.7-0.5-0.7c0.3-0.4,0.7-0.8,1.1-1
			C370.5-224.4,370.9-224.2,371.2-224.1z"/>
		<path fill="#4B3246" d="M375.7-128.7c-0.4,0.4-0.7,0.6-0.9,0.8c-0.1,0.1-0.5-0.2-0.5-0.2c0.1-0.6,0.2-1.2,0.3-1.8
			C375-129.7,375.3-129.3,375.7-128.7z"/>
		<path fill="#4B3246" d="M373.6-261.8c-0.5,0.3-0.9,0.6-0.9,0.6c-0.3-0.3-0.7-0.7-0.6-1c0.1-0.3,0.6-0.6,0.9-0.9
			C373.1-262.8,373.2-262.4,373.6-261.8z"/>
		<path fill="#4B3246" d="M373.7-162.3c-0.4-0.3-0.7-0.6-1-0.8c0.4-0.3,0.8-0.6,1.2-0.9c0.2,0.3,0.5,0.6,0.6,1
			C374.6-162.8,374.1-162.6,373.7-162.3z"/>
		<path fill="#4B3246" d="M367.6-88.7c-0.4-0.3-0.8-0.7-1.3-1.1c0.1-0.1,0.4-0.4,0.4-0.4c0.6,0.4,1.2,0.8,1.8,1.2
			C368.3-88.9,368.1-88.9,367.6-88.7z"/>
		<path fill="#4B3246" d="M368.9-219c0.3,0.2,0.6,0.3,0.8,0.5c-0.4,0.2-0.7,0.5-1.1,0.6c-0.2,0.1-0.4-0.3-0.7-0.4
			C368.2-218.5,368.5-218.7,368.9-219z"/>
		<path fill="#4B3246" d="M360.8-146.3c-0.3,0.2-0.6,0.5-0.7,0.4c-0.4-0.1-0.8-0.3-1.2-0.5c0.3-0.3,0.6-0.6,1-0.7
			C360-147.1,360.3-146.7,360.8-146.3z"/>
		<path fill="#4B3246" d="M375.8-134.9c-0.8,1-1,1.2-1.2,1.4c-0.2-0.6-0.5-1.1-0.7-1.7c0-0.1,0.3-0.3,0.3-0.3
			C374.7-135.3,375.2-135.1,375.8-134.9z"/>
		<path fill="#4B3246" d="M369.8-155.3c0.5,0.2,1,0.3,1.5,0.5c-0.3,0.1-0.6,0.4-0.9,0.4c-0.4,0-0.9-0.3-1.3-0.4
			C369.2-154.9,369.5-155.1,369.8-155.3z"/>
		<path fill="#CAB9AA" d="M219.2-306.7L219.2-306.7C219.2-306.6,219.2-306.6,219.2-306.7L219.2-306.7z"/>
		<path fill="#4B3246" d="M246.3-320.1C246.3-320.1,246.3-320.1,246.3-320.1L246.3-320.1C246.3-320.1,246.3-320.1,246.3-320.1z"/>
		<path fill="#4B3246" d="M217.5-301.7"/>
		<path fill="#4B3246" d="M220.3-303.1c-0.4-1.2-0.7-2.3-1.1-3.5"/>
		<path fill="#4B3246" d="M225.3-308.6"/>
		<path fill="#4B3246" d="M226.7-305.9"/>
		<path fill="#4B3246" d="M225-93.7c0.3,0,0.7-0.1,1,0c0.5,0.2,0.9,0.5,1.3,0.8c-0.5,0.2-0.9,0.5-1.4,0.7
			C225.9-92.2,225.7-92.7,225-93.7z"/>
		<path fill="#4B3246" d="M311.5-283.3c0.8,0.4,1.5,0.8,2.2,1.2c-0.1,0.1-0.3,0.3-0.4,0.3c-0.8-0.3-1.5-0.6-2.2-0.9
			C311.2-282.9,311.4-283.1,311.5-283.3z"/>
		<path fill="#4B3246" d="M281-284.4c-0.5-0.2-0.9-0.4-1.4-0.6c0.5-0.1,1-0.3,1.5-0.3c0.4,0,0.8,0.2,1.2,0.4
			C281.8-284.7,281.4-284.6,281-284.4z"/>
		<path fill="#4B3246" d="M381.5-93.9"/>
		<path fill="#4B3246" d="M385.6-92.7"/>
		<path fill="#4B3246" d="M381.7-96.6c-0.3,0-0.7-0.4-1-0.6"/>
		<path fill="#EEE5D5" d="M257.9-246.5h79.9c3.5,0,6.4,2.9,6.4,6.4v172h-92.8v-172C251.5-243.6,254.4-246.5,257.9-246.5z"/>
		<path fill="#C56C76" d="M343.8-240.1H251l0,0c0-3.5,2.9-6.4,6.4-6.4h80C340.9-246.5,343.8-243.6,343.8-240.1L343.8-240.1z"/>
		<path fill="none" d="M217.5-221.2c0.2-1.7,0.7-3.4,1.3-5c0.8,0,1.2-0.8,1.2-1.6"/>
		<line fill="none" stroke="#788E92" stroke-width="20" stroke-miterlimit="10" x1="242.4" y1="-255.3" x2="353.2" y2="-255.3"/>
		<pattern  id="SVGID_6_" xlink:href="#SVGID_3_" patternTransform="matrix(0.1258 0 0 -0.1258 -7242.9326 -10312.3818)">
		</pattern>
		<path fill="url(#SVGID_6_)" d="M378.7-270.3c0.3-0.8,0.4-1.6-0.2-2.1c-11.4-12-48-44.5-82.7-44.5c-33.5,0-66.1,31.1-78.2,44.1
			h-1.5v1.7c-0.5,0.8-0.4,1.8,0,2.6V-58h26.3v-209.3h112.4v182.5H380v-185.4L378.7-270.3L378.7-270.3z"/>
		<rect x="215.7" y="-311.3" fill="#D49B8D" width="162.8" height="56.5"/>
		<polygon fill="#C56C76" stroke="#C56C76" stroke-miterlimit="10" points="242.4,-254.1 234.6,-267.4 361.3,-267.4 354.9,-254.1 		
			"/>
		<g id="XMLID_3_">
			<g>
				<path fill="#C56C76" d="M375.1-281.8c0,0-37.6-38.1-78.4-38.1s-77,39.5-77,39.5l-39.8-1.9l0-8.2l37.6,0.5c0,0,29.8-36.7,79.4-37
					c47.4-0.3,82.7,37.9,82.7,37.9h36v6.4L375.1-281.8z"/>
			</g>
		</g>
		<path fill="#F9DCC4" d="M234.6-267.2h126.7c0,0-32-29.9-64-29.9S234.6-267.2,234.6-267.2z"/>
		<polygon fill="#FDF0D9" points="298.6,-270.1 295.9,-269.5 292.1,-292.6 302.7,-292.6 		"/>
		<polygon fill="#FDF0D9" points="305.3,-270.3 302.5,-270.7 306.2,-291.4 316.1,-287.7 		"/>
		<polygon fill="#FDF0D9" points="290,-270.7 287.5,-269.5 278.8,-288.7 289.1,-291.3 		"/>
		<polyline fill="#F9DCC4" points="377.5,-56 432.3,-53.9 426.8,-77.1 417.3,-82.4 417,-116.5 410.7,-125.4 408.7,-245.1 
			413.1,-249.6 409,-253.9 408.1,-273.1 375.7,-273.1 		"/>
		<rect x="385" y="-267.4" fill="#FDF0D9" width="17.1" height="11.7"/>
		<rect x="378.5" y="-253.9" fill="#FDF0D9" width="30.1" height="8.4"/>
		<rect x="386.5" y="-209.9" fill="#FDF0D9" width="14.1" height="47.6"/>
		<circle fill="#FDF0D9" cx="393.6" cy="-232" r="6"/>
		<polygon fill="#FDF0D9" points="411.3,-125.4 417.6,-116.5 377.9,-118.3 378,-127 		"/>
		<line fill="none" stroke="#D49B8D" stroke-width="40" stroke-miterlimit="10" x1="297.9" y1="-240.1" x2="297.9" y2="-68.1"/>
		<path fill="#C56C76" d="M180-282.5h37.2c0,0,38.3-38.5,79.5-38.5s80.5,38.1,80.5,38.1h38.4l-7.5,9.7h-32.4c0,0-44-38.2-78.7-38.2
			s-78.5,38.4-78.5,38.4l-32-0.2L180-282.5z"/>
		<path fill="#F9DCC4" d="M332.5-327.4c-0.4-0.3-0.9-0.6-1.4-0.9c-0.1-0.2-0.3-0.3-0.5-0.5c0.3-0.2,0.4-0.7,0-1
			c-0.1-0.1-0.1-0.1-0.2-0.1c-0.3-0.2-0.4-0.4-0.6-0.8c-0.3-0.7-1.3-0.3-1.2,0.4c-0.2,0-0.5,0.1-0.7,0.2c-0.5,0.2-0.5,1,0,1.2
			c0,0,0.1,0,0.1,0c-0.8,0-1.5,0.2-2.2,0.4c-0.3,0.1-0.4,0.4-0.4,0.7c0,0,0,0-0.1,0c0-0.2-0.1-0.4-0.4-0.5c-0.9-0.3-1.8-0.5-2.7-0.7
			c0.2-0.3,0.1-0.8-0.3-0.9c-2.6-1-5.3-1.8-8-2.4c-0.1-0.1-0.2-0.1-0.3-0.1c-0.3,0-0.6-0.1-0.8-0.1c-1.9-0.4-3.8-0.6-5.7-0.8
			c-0.8-0.1-1,1.2-0.1,1.2c0.1,0,0.3,0,0.4,0c-0.5,0.1-0.9,0.3-1.4,0.5c-0.3,0-0.5,0-0.8,0c-0.8,0.1-0.6,1.3,0.2,1.2
			c0,0,0.1,0,0.1,0c0,0,0.1,0,0.1,0c0.1,0,0.2,0.1,0.3,0.1c-0.4,0.3-0.3,1.1,0.3,1.1h3.5c0.1,0,0.3,0,0.4-0.1
			c0.8,0.1,1.6,0.3,2.4,0.4c3.4,1.8,7.1,3.1,10.9,3.8c1,0.3,2.1,0.5,2.9-0.2c1.1-0.1,2.2-0.2,3.2-0.4c0.2,0,0.3-0.2,0.4-0.3
			c0.7,0,1.5-0.1,2.2-0.3C332.7-326.4,332.9-327.1,332.5-327.4z M327.5-327.7c0.3,0,0.6-0.1,0.9,0
			C328.1-327.7,327.8-327.7,327.5-327.7z M325.5-326.5c-0.5,0-1.1,0-1.6-0.1c0,0,0.1-0.1,0.1-0.1C324.5-326.6,325-326.6,325.5-326.5
			z M316.3-328.6c0.5,0.2,1,0.4,1.5,0.6c0,0-0.1,0-0.1,0.1c-0.6-0.2-1.2-0.5-1.8-0.7C316.1-328.6,316.2-328.6,316.3-328.6z
			 M313.6-331.1c1.5,0.3,3,0.7,4.4,1.2c-1-0.2-2-0.4-3-0.5c-0.4-0.1-0.7,0.2-0.7,0.6c-0.2,0-0.5,0-0.7-0.1c-0.4-0.2-0.7-0.3-1.1-0.5
			C312.9-330.7,313.2-330.9,313.6-331.1z M309.8-331.3c0.6-0.1,1.2-0.1,1.8-0.1c0,0-0.1,0.1-0.1,0.1c-0.1,0.1-0.2,0.2-0.3,0.3
			c-0.1,0-0.1,0-0.2,0C310.6-331.1,310.2-331.2,309.8-331.3z"/>
		<path fill="#F9DCC4" d="M223.5-306.5c-0.5-0.1-1-0.1-1.4-0.1c0.1-0.6-0.4-1.2-1-0.7l-0.7,0.6c-4.1-0.2-8.2,0.3-12.1,1.3
			c-0.5,0.1-0.7,1-0.2,1.2c-1.4-0.1-2.7-0.2-4.1-0.4c-0.8-0.1-0.9,1.1-0.1,1.2c3.5,0.6,7.1,0.6,10.6,0c0,0.3,0.2,0.6,0.6,0.6
			c1.5,0,3-0.4,4.3-1.2c-0.2,0.4-0.4,0.8-0.6,1.2c-0.2,0.5,0.3,1,0.8,0.8c1.2-0.5,1.9-1.8,1.7-3.1l2.3-0.2
			C224.2-305.4,224.2-306.5,223.5-306.5z"/>
		<path fill="#F9DCC4" d="M336.3-333.4c-0.5-0.2-1-0.4-1.5-0.7c0-0.1-0.1-0.3-0.2-0.4c-1.2-1-2.5-1.8-4-2.3
			c-0.4-0.1-0.7,0.1-0.8,0.4l-2.6-1.2c-0.7-0.3-1.2,0.8-0.5,1.2l9.1,4C336.6-331.9,337-333,336.3-333.4z"/>
		<path fill="#F9DCC4" d="M332.3-325.7c-0.6-0.1-0.9,0.7-0.5,1.1c-0.6,0.1-0.8,1-0.2,1.2c0.6,0.2,1.1,0.4,1.7,0.6
			c0.4,0.1,0.8-0.1,0.9-0.5C334.3-324.5,333.4-325.5,332.3-325.7z"/>
		<path fill="#F9DCC4" d="M351.1-314.9c0.2,0,0.4,0,0.6,0c0.2,0.2,0.3,0.5,0.4,0.7C351.8-314.5,351.4-314.7,351.1-314.9z
			 M356.3-317.2c-0.2,0.1-0.4,0.1-0.6,0.2c-0.2-0.2-0.4-0.5-0.4-0.8C355.6-317.6,356-317.4,356.3-317.2z M357.8-312.9L357.8-312.9
			c-0.1-0.1-0.3-0.1-0.4-0.1c-0.9-0.3-1.9-0.6-2.8-0.8c-0.1,0-0.2,0-0.3,0l-0.2-0.3c-0.2-0.2-0.4-0.3-0.6-0.2
			c-0.1-0.3-0.2-0.5-0.3-0.8c0.7-0.1,1.4-0.2,2.1-0.4c0.5,0.5,1,1,1.4,1.3c0.5,0.5,0.9,0.9,1.4,1.4
			C357.9-312.8,357.8-312.8,357.8-312.9z M357.5-316.1c-0.3,0-0.6,0.2-0.6,0.4c-0.1-0.1-0.2-0.2-0.3-0.3c0.3-0.1,0.6-0.2,0.9-0.3
			c0.1-0.1,0.2-0.1,0.3-0.2c0.2,0.2,0.3,0.3,0.5,0.5C358-316.1,357.8-316.1,357.5-316.1z M388.6-300.7c-0.1,0-0.1-0.1-0.1-0.1
			c0.1,0,0.2,0,0.3,0C388.7-300.8,388.6-300.7,388.6-300.7z M406.6-292.9c0,0,0.1,0.1,0.1,0.3c0,0-0.1,0-0.1,0
			C406.5-292.7,406.5-292.8,406.6-292.9z M398.5-295.1c0,0.2-0.1,0.4-0.1,0.7c0,0.1,0,0.2,0,0.3c-0.8-0.3-1.6-0.6-2.4-1
			C396.9-295,397.7-295.1,398.5-295.1z M393-302.8c-0.8-0.1-1.7-0.3-2.5-0.5c1.6,0,3.2,0.2,4.8,0.5
			C394.5-302.8,393.8-302.8,393-302.8z"/>
		<path fill="#F9DCC4" d="M180-290.5l37.6,0.5c0,0,36.8-37,79.4-37s82.7,37.9,82.7,37.9h36l4.6-14.7h-32.6c0,0-45.3-42.4-92.5-42.4
			s-85.3,38.8-85.3,38.8H175L180-290.5z"/>
		<rect x="213.5" y="-88.7" fill="#F9DCC4" width="168.2" height="30.7"/>
		<polyline fill="#F9DCC4" points="217.9,-56.9 163.2,-54.8 168.6,-78.1 178.2,-83.4 178.4,-117.5 184.7,-126.3 186.7,-246.1 
			182.3,-250.6 186.4,-254.8 186.5,-273.2 218.5,-272.9 		"/>
		<rect x="193.3" y="-268.3" fill="#FDF0D9" width="17.1" height="11.7"/>
		<rect x="186.8" y="-254.8" fill="#FDF0D9" width="30.1" height="8.4"/>
		<rect x="194.8" y="-210.8" fill="#FDF0D9" width="14.1" height="47.6"/>
		<circle fill="#FDF0D9" cx="201.9" cy="-233" r="6"/>
		<polygon fill="#FDF0D9" points="184.1,-126.3 177.8,-117.5 217.5,-119.3 217.4,-128 		"/>
		<polygon fill="#FDF0D9" points="168.2,-78.1 217.9,-81 217.9,-87.6 177.8,-85.3 		"/>
		<polygon fill="#FDF0D9" points="427.2,-77.1 377.5,-80.1 377.5,-86.7 417.6,-84.4 		"/>
	</g>
</g>
<g id="Layer_3">
	<rect x="327.5" y="-423.1" fill="#413644" stroke="#5B4C59" stroke-width="7" stroke-miterlimit="10" width="18.8" height="10.2"/>
</g>
<g id="anVQ74.tif">
	
		<image overflow="visible" width="206" height="255" id="Layer_0_5_" xlink:href="14B97C29D19D8171.png"  transform="matrix(1 0 0 1 -638 -342)">
	</image>
</g>
<g id="eXXRga.tif">
	
		<image overflow="visible" width="434" height="299" id="Layer_0_8_" xlink:href="14B97C29D19D818F.png"  transform="matrix(1 0 0 1 -234.8724 -788.847)">
	</image>
</g>
<g>
	<path fill="#F9F4DA" stroke="#8CBCA9" stroke-width="3" stroke-miterlimit="10" d="M-466.9-754h-216c-16.3,0-29.6-13.3-29.6-29.6
		v-202.6c0-16.3,13.3-29.6,29.6-29.6h216c16.3,0,29.6,13.3,29.6,29.6v202.6C-437.3-767.3-450.6-754-466.9-754z"/>
	<path fill="#F9F4DA" stroke="#8CBCA9" stroke-width="3" stroke-miterlimit="10" d="M-465.9-763.5h-217.6c-11.5,0-21-9.4-21-21
		v-200.8c0-11.5,9.4-21,21-21h217.6c11.5,0,21,9.4,21,21v200.8C-444.9-773-454.4-763.5-465.9-763.5z"/>
</g>
<line fill="none" stroke="#785272" stroke-width="4" stroke-miterlimit="10" x1="-648" y1="-1015.8" x2="-648" y2="-1110.3"/>
<line fill="none" stroke="#785272" stroke-width="4" stroke-miterlimit="10" x1="-504" y1="-1015.9" x2="-504" y2="-1110.5"/>
<circle fill="none" stroke="#785272" stroke-width="4" stroke-miterlimit="10" cx="-648" cy="-1008" r="15"/>
<circle fill="none" stroke="#785272" stroke-width="4" stroke-miterlimit="10" cx="-504" cy="-1008" r="15"/>
</svg>
