<?xml version="1.0" encoding="utf-8"?>
<!-- Generator: Adobe Illustrator 18.1.1, SVG Export Plug-In . SVG Version: 6.00 Build 0)  -->
<svg version="1.1" xmlns="http://www.w3.org/2000/svg" xmlns:xlink="http://www.w3.org/1999/xlink" x="0px" y="0px"
	 viewBox="0 0 345 667.6" enable-background="new 0 0 345 667.6" xml:space="preserve">
<pattern  x="-2413.4" y="-607.9" width="139" height="150.8" patternUnits="userSpaceOnUse" id="New_Pattern" viewBox="69.5 -188.5 139 150.8" overflow="visible">
	<g>
		<polygon fill="none" points="69.5,-188.5 208.5,-188.5 208.5,-37.7 69.5,-37.7 		"/>
		<polygon fill="#C56C76" stroke="#D49B8D" stroke-width="7" stroke-miterlimit="10" points="274.5,-3.5 142.5,-3.5 142.5,-71.9 
			274.5,-71.9 		"/>
		<polygon fill="#C56C76" stroke="#D49B8D" stroke-width="7" stroke-miterlimit="10" points="135.5,-3.5 3.5,-3.5 3.5,-71.9 
			135.5,-71.9 		"/>
		<polygon fill="#C56C76" stroke="#D49B8D" stroke-width="7" stroke-miterlimit="10" points="205,-78.9 73,-78.9 73,-147.3 
			205,-147.3 		"/>
		<polygon fill="#C56C76" stroke="#D49B8D" stroke-width="7" stroke-miterlimit="10" points="274.5,-154.3 142.5,-154.3 
			142.5,-222.7 274.5,-222.7 		"/>
		<polygon fill="#C56C76" stroke="#D49B8D" stroke-width="7" stroke-miterlimit="10" points="135.5,-154.3 3.5,-154.3 3.5,-222.7 
			135.5,-222.7 		"/>
	</g>
</pattern>
<pattern  x="-2413.4" y="-607.9" width="147" height="166" patternUnits="userSpaceOnUse" id="New_Pattern_2" viewBox="73.5 -207.5 147 166" overflow="visible">
	<g>
		<polygon fill="none" points="73.5,-207.5 220.5,-207.5 220.5,-41.5 73.5,-41.5 		"/>
		<polygon fill="#8BAFB2" stroke="#7A98A0" stroke-width="7" stroke-miterlimit="10" points="290.5,-3.5 150.5,-3.5 150.5,-79.5 
			290.5,-79.5 		"/>
		<polygon fill="#8BAFB2" stroke="#7A98A0" stroke-width="7" stroke-miterlimit="10" points="143.5,-3.5 3.5,-3.5 3.5,-79.5 
			143.5,-79.5 		"/>
		<polygon fill="#8BAFB2" stroke="#7A98A0" stroke-width="7" stroke-miterlimit="10" points="217,-86.5 77,-86.5 77,-162.5 
			217,-162.5 		"/>
		<polygon fill="#8BAFB2" stroke="#7A98A0" stroke-width="7" stroke-miterlimit="10" points="290.5,-169.5 150.5,-169.5 
			150.5,-245.5 290.5,-245.5 		"/>
		<polygon fill="#8BAFB2" stroke="#7A98A0" stroke-width="7" stroke-miterlimit="10" points="143.5,-169.5 3.5,-169.5 3.5,-245.5 
			143.5,-245.5 		"/>
	</g>
</pattern>
<pattern  x="-2413.4" y="-607.9" width="147" height="166" patternUnits="userSpaceOnUse" id="New_Pattern_4" viewBox="73.5 -207.5 147 166" overflow="visible">
	<g>
		<polygon fill="none" points="73.5,-207.5 220.5,-207.5 220.5,-41.5 73.5,-41.5 		"/>
		<polygon fill="#C24A3D" stroke="#DE6757" stroke-width="7" stroke-miterlimit="10" points="290.5,-3.5 150.5,-3.5 150.5,-79.5 
			290.5,-79.5 		"/>
		<polygon fill="#C24A3D" stroke="#DE6757" stroke-width="7" stroke-miterlimit="10" points="143.5,-3.5 3.5,-3.5 3.5,-79.5 
			143.5,-79.5 		"/>
		<polygon fill="#C24A3D" stroke="#DE6757" stroke-width="7" stroke-miterlimit="10" points="217,-86.5 77,-86.5 77,-162.5 
			217,-162.5 		"/>
		<polygon fill="#C24A3D" stroke="#DE6757" stroke-width="7" stroke-miterlimit="10" points="290.5,-169.5 150.5,-169.5 
			150.5,-245.5 290.5,-245.5 		"/>
		<polygon fill="#C24A3D" stroke="#DE6757" stroke-width="7" stroke-miterlimit="10" points="143.5,-169.5 3.5,-169.5 3.5,-245.5 
			143.5,-245.5 		"/>
	</g>
</pattern>
<pattern  x="-2413.4" y="-607.9" width="147" height="166" patternUnits="userSpaceOnUse" id="New_Pattern_Swatch_7" viewBox="73.5 -207.5 147 166" overflow="visible">
	<g>
		<polygon fill="none" points="73.5,-207.5 220.5,-207.5 220.5,-41.5 73.5,-41.5 		"/>
		<polygon fill="#C24A3D" stroke="#DE6757" stroke-width="7" stroke-miterlimit="10" points="290.5,-3.5 150.5,-3.5 150.5,-79.5 
			290.5,-79.5 		"/>
		<polygon fill="#C24A3D" stroke="#DE6757" stroke-width="7" stroke-miterlimit="10" points="143.5,-3.5 3.5,-3.5 3.5,-79.5 
			143.5,-79.5 		"/>
		<polygon fill="#C24A3D" stroke="#DE6757" stroke-width="7" stroke-miterlimit="10" points="217,-86.5 77,-86.5 77,-162.5 
			217,-162.5 		"/>
		<polygon fill="#C24A3D" stroke="#DE6757" stroke-width="7" stroke-miterlimit="10" points="290.5,-169.5 150.5,-169.5 
			150.5,-245.5 290.5,-245.5 		"/>
		<polygon fill="#C24A3D" stroke="#DE6757" stroke-width="7" stroke-miterlimit="10" points="143.5,-169.5 3.5,-169.5 3.5,-245.5 
			143.5,-245.5 		"/>
	</g>
</pattern>
<g id="Layer_1">
	<g id="HAobQW.tif">
		
			<image overflow="visible" width="177" height="56" id="Layer_0_1_" xlink:href="C9D7E701F25E1976.png"  transform="matrix(2.8342 0 0 1.6071 -2841.0002 -2263.8833)">
		</image>
	</g>
	<g id="_x33_wBwi4.tif">
		
			<image overflow="visible" width="410" height="280" id="Layer_0_2_" xlink:href="C9D7E701F25E197A.png"  transform="matrix(2.6822 0 0 2.6822 -5773.0547 -1799.4105)">
		</image>
	</g>
	<rect x="-238.4" y="-2173.7" fill="#DE6757" width="893.9" height="1548.4"/>
	<path fill="#4B3246" d="M207.6-2293.7c0.7-0.4,1.5-0.9,2-1.2"/>
	<path fill="#4B3246" d="M1264-386.7"/>
	<path fill="#4B3246" d="M904.3-2663.7"/>
	<path fill="#CAB9AA" d="M208.7-2239.9c0,0-0.1,0-0.1,0c0,0.1-0.1,0.2-0.1,0.2L208.7-2239.9z"/>
	<path fill="#4B3246" d="M208.5-2346.6c0.1-0.1,0.1-0.2,0.2-0.2c0,0-0.1,0-0.1,0C208.6-2346.8,208.5-2346.7,208.5-2346.6z"/>
	<path fill="#4B3246" d="M208.6-2200.4"/>
	<path fill="#4B3246" d="M212.9-2212.1c-2.9-9.3-5.7-18.6-8.6-27.9"/>
	<path fill="#4B3246" d="M208.6-2255.6"/>
	<path fill="#4B3246" d="M208.6-2234"/>
	<path fill="none" d="M198.2-1911.5c1.8-13.7,5.5-27.2,10.7-40c6.3-0.4,9.4-6,10-12.4"/>
	<linearGradient id="SVGID_1_" gradientUnits="userSpaceOnUse" x1="-113.6697" y1="-716.3185" x2="520.2545" y2="-2032.7367">
		<stop  offset="0" style="stop-color:#D8AB6C"/>
		<stop  offset="1" style="stop-color:#FFD67E"/>
	</linearGradient>
	<path fill="url(#SVGID_1_)" d="M-112.3-2113.1h641.8c26.4,0,48,21.6,48,48V-695h-737.8v-1370.1
		C-160.3-2091.5-138.7-2113.1-112.3-2113.1z"/>
	<path fill="#913433" d="M577.5-2062.1h-737.8v-3c0-26.4,21.6-48,48-48h641.8c26.4,0,48,21.6,48,48V-2062.1z"/>
	<rect x="-6233.3" y="-2587.9" fill="#FFFEF1" width="3004" height="2872"/>
	<g>
		<path fill="#4B3246" d="M1153.9-2989"/>
		<path fill="#4B3246" d="M809.6-2880c6.2,3.3,11.8,6.2,17.5,9.2c-1.2,0.9-2.8,2.8-3.5,2.5c-6-2.2-11.8-4.9-17.7-7.4
			C806.9-2877,808-2878.3,809.6-2880z"/>
		<path fill="#4B3246" d="M566.6-2888.4c-3.8-1.7-7.3-3.3-10.9-4.9c3.9-0.8,7.7-2.2,11.6-2.2c3.1,0.1,6.2,1.9,9.3,3
			C573.5-2891.2,570.3-2889.9,566.6-2888.4z"/>
		<path fill="#F9DCC4" d="M198.2-2751.8h1007.1c0,0-254.4-237.3-508.4-237.3S198.2-2751.8,198.2-2751.8z"/>
		<polygon fill="#FDF0D9" points="706.9,-2775.3 685.3,-2770 655.2,-2953.7 739.2,-2953.7 		"/>
		<polygon fill="#FDF0D9" points="759.9,-2776.8 738,-2779.9 766.8,-2943.9 845.5,-2914.7 		"/>
		<polygon fill="#FDF0D9" points="638.4,-2779.6 618.6,-2769.9 549.7,-2923 631.2,-2943.1 		"/>
	</g>
	<rect x="-6233.3" y="-2587.9" fill="url(#New_Pattern_2)" width="3004" height="2872"/>
	<rect x="-6233.3" y="-233.5" fill="url(#New_Pattern)" width="3004" height="268.6"/>
	<g id="_x33_wBwi4.tif_1_">
		
			<image overflow="visible" width="410" height="280" id="Layer_0_4_" xlink:href="C9D7E701F25E197D.png"  transform="matrix(2.6822 0 0 2.6822 1245.1995 -1799.4105)">
		</image>
	</g>
	<rect x="784.9" y="-2587.9" fill="#FFFEF1" width="3004" height="2872"/>
	<pattern  id="SVGID_2_" xlink:href="#New_Pattern_4" patternTransform="matrix(1 0 0 1 109.2542 0)">
	</pattern>
	<rect x="784.9" y="-2587.9" fill="url(#SVGID_2_)" width="3004" height="2872"/>
	<rect x="-368.5" y="-2374.1" fill="#913433" width="1133.4" height="118.5"/>
	<g id="tTWrGk.tif">
		
			<image overflow="visible" width="204" height="41" id="Layer_0_3_" xlink:href="C9D7E701F25E197E.png"  transform="matrix(4.935 0 0 4.935 -804.5297 -2790.2173)">
		</image>
	</g>
	<g>
		<path fill="#CAB9AA" d="M517.5-2002.1V-760h-617.8v-1242.1H517.5 M575.4-2062.1h-733.7c-1.1,0-2.1,0.9-2.1,2.1v1358
			c0,1.1,0.9,2.1,2.1,2.1h733.7c1.1,0,2.1-0.9,2.1-2.1v-1358C577.5-2061.2,576.6-2062.1,575.4-2062.1L575.4-2062.1z"/>
	</g>
	
		<rect x="-126.3" y="-1102.5" fill="none" stroke="#CAB9AA" stroke-width="60" stroke-linecap="square" stroke-miterlimit="10" width="676" height="376"/>
	
		<line fill="none" stroke="#CAB9AA" stroke-width="60" stroke-linecap="square" stroke-miterlimit="10" x1="198.2" y1="-2012.2" x2="198.2" y2="-726"/>
	<rect x="-367.1" y="-630.2" fill="#D49B8D" width="1133.4" height="96.2"/>
	<polygon fill="#913433" points="-367.1,-534 -294.6,-470.9 683.2,-466.4 766.3,-534 	"/>
</g>
<g id="Layer_5">
	<path fill="#FFFFFF" stroke="#000000" stroke-miterlimit="10" d="M3138.6,2836.1"/>
	<path fill="#68536F" stroke="#68536F" stroke-width="12" stroke-linecap="square" stroke-miterlimit="10" d="M2064.4,1896.3H2004
		V1570c0-14,11.4-25.4,25.4-25.4h35.1c14,0,25.4,11.4,25.4,25.4v301C2089.8,1885,2078.4,1896.3,2064.4,1896.3z"/>
	
		<polygon fill="#788E92" stroke="#788E92" stroke-width="12" stroke-linecap="round" stroke-linejoin="round" stroke-miterlimit="10" points="
		1756,844.5 2302.7,844.5 2128.2,729.5 1938.8,729.5 	"/>
	<polygon fill="#C0B2A8" stroke="#EEE5D5" stroke-width="20" stroke-miterlimit="10" points="1904.8,1326.5 1756,844.5 
		2302.7,844.5 2188.9,1326.5 2188.9,1556.4 1904.8,1556.4 	"/>
	
		<line fill="#C0B2A8" stroke="#EEE5D5" stroke-width="20" stroke-miterlimit="10" x1="1904.8" y1="1326.5" x2="2188.9" y2="1326.5"/>
	
		<line fill="#C0B2A8" stroke="#EEE5D5" stroke-width="20" stroke-miterlimit="10" x1="1971.2" y1="1326.5" x2="1971.2" y2="1556.4"/>
	
		<line fill="#C0B2A8" stroke="#EEE5D5" stroke-width="20" stroke-miterlimit="10" x1="2106.5" y1="1326.5" x2="2106.5" y2="1556.4"/>
	<line fill="#C0B2A8" stroke="#EEE5D5" stroke-width="20" stroke-miterlimit="10" x1="2106.5" y1="1326.5" x2="2153.9" y2="844.5"/>
	<line fill="#C0B2A8" stroke="#EEE5D5" stroke-width="20" stroke-miterlimit="10" x1="1971.2" y1="1326.5" x2="1907.1" y2="844.5"/>
	
		<path fill="#788E92" stroke="#788E92" stroke-width="12" stroke-linecap="round" stroke-linejoin="round" stroke-miterlimit="10" d="
		M2106.1,702.5c0-42-31.1-76.1-79.5-76.1c-43.9,0-79.5,34.1-79.5,76.1s35.6,76.1,79.5,76.1C2070.5,778.6,2106.1,744.5,2106.1,702.5z
		"/>
	<rect x="1995.8" y="1568.8" fill="#68536F" width="102.1" height="57"/>
	
		<polygon fill="#68536F" stroke="#68536F" stroke-width="12" stroke-linecap="round" stroke-linejoin="round" stroke-miterlimit="10" points="
		1907.6,4852.3 2200.2,4852.3 2200.2,3966.2 2132.5,3891.8 2132.5,1625.8 1956.7,1625.8 1956.7,3898.6 1907.1,3971.5 	"/>
	<path fill="#68536F" stroke="#FFFFFF" stroke-linecap="round" stroke-miterlimit="10" d="M1902,3971.5l0.5,880.8h301v-886.1
		l-126.6,34.1c-15.8,4.3-32.5,4.5-48.5,0.8L1902,3971.5z"/>
	<ellipse fill="#788E92" cx="2015.8" cy="688.7" rx="68.3" ry="66.2"/>
	
		<path fill="#788E92" stroke="#788E92" stroke-width="12" stroke-linecap="round" stroke-linejoin="round" stroke-miterlimit="10" d="
		M1956.7,3898.6l-54.6,72.9c164.5,60.5,301.5-5.3,301.5-5.3l-66-67.6H1956.7z"/>
	<path fill="#68536F" stroke="#68536F" stroke-width="12" stroke-linecap="square" stroke-miterlimit="10" d="M4850.4-899.1H4790
		v-326.4c0-14,11.4-25.4,25.4-25.4h35.1c14,0,25.4,11.4,25.4,25.4v301C4875.8-910.5,4864.4-899.1,4850.4-899.1z"/>
	<polygon stroke="#000000" stroke-width="12" stroke-linecap="round" stroke-linejoin="round" stroke-miterlimit="10" points="
		4539.3,-1959.4 5085.9,-1959.4 4897.5,-2074.4 4739,-2074.4 	"/>
	
		<polygon fill="#C0B2A8" stroke="#000000" stroke-width="20" stroke-linecap="round" stroke-linejoin="round" stroke-miterlimit="10" points="
		4690.8,-1469 4546,-1951 5082.7,-1951 4974.9,-1469 4974.9,-1239 4690.8,-1239 	"/>
	<line fill="#C0B2A8" stroke="#000000" stroke-width="20" stroke-miterlimit="10" x1="4690.8" y1="-1469" x2="4974.9" y2="-1469"/>
	<line fill="#C0B2A8" stroke="#000000" stroke-width="20" stroke-miterlimit="10" x1="4757.2" y1="-1469" x2="4757.2" y2="-1239"/>
	<line fill="#C0B2A8" stroke="#000000" stroke-width="20" stroke-miterlimit="10" x1="4892.5" y1="-1469" x2="4892.5" y2="-1239"/>
	<line fill="#C0B2A8" stroke="#000000" stroke-width="20" stroke-miterlimit="10" x1="4892.5" y1="-1469" x2="4939.9" y2="-1951"/>
	<line fill="#C0B2A8" stroke="#000000" stroke-width="20" stroke-miterlimit="10" x1="4757.2" y1="-1469" x2="4693.1" y2="-1951"/>
	<path stroke="#000000" stroke-width="12" stroke-linecap="round" stroke-linejoin="round" stroke-miterlimit="10" d="M4892.1-2093
		c0-42-31.1-76.1-79.5-76.1c-43.9,0-79.5,34.1-79.5,76.1c0,42,35.6,76.1,79.5,76.1S4892.1-2051,4892.1-2093z"/>
	<rect x="4781.8" y="-1226.7" width="102.1" height="57"/>
	<path stroke="#000000" stroke-width="12" stroke-linecap="round" stroke-linejoin="round" stroke-miterlimit="10" d="
		M4713.6,1851.2h252.6c11,0,20-8.4,20-18.7v-803.7c0-4.7-1.9-9.1-5.2-12.6l-57.2-59c-3.3-3.4-5.2-7.9-5.2-12.6V-1151
		c0-10.3-9-18.7-20-18.7h-135.9c-11,0-20,8.4-20,18.7V952.5c0,3.8-1.2,7.4-3.5,10.5l-42.6,58.7c-2.3,3.1-3.5,6.8-3.5,10.5l0.5,800.2
		C4693.6,1842.8,4702.6,1851.2,4713.6,1851.2z"/>
	<path stroke="#000000" stroke-linecap="round" stroke-miterlimit="10" d="M4696.6,1265l-8.6,811.8c0,54.5,303.5,49.2,303.5-3.7
		l-7-809.7c0-73.1-51.2-126.2-110.4-107.2h0c-22.7,7.3-46.6,7.8-69.5,1.4l-2.6-0.7C4743.5,1140.5,4696.5,1193.4,4696.6,1265z"/>
	<ellipse cx="4801.8" cy="-2106.8" rx="68.3" ry="66.2"/>
</g>
<g id="Layer_6_copy">
	<g id="XMLID_2_">
		<g>
			<path fill="#788E92" d="M206.8,663.3c-50.4,4.8-33.5,8.8-128.7-6.5c-4.8-6.6-32.1-24.1-37-30.6c-7.2-9.6-14.3-19.3-21.5-28.9
				c-1.4-1.9-2.4-4.2-5.8-10.2c-0.2,0.6-0.3,1.2-0.4,1.8C-2,570.8-1.9,545,2.7,521.9c9.1-51.5,5.7-39.4,16.1-61.3
				c1.2-2.6,24.8-44.1,26.1-46.6c-0.3-0.1-0.5-0.1-0.8-0.2c5.2-5.9,9.1-13,11.1-20.1c0.5-0.8,0.9-1.6,1.3-2.5
				c1.3-0.6,1.5-2.8,3.3-2.8c-0.4-1.2-0.3-2.7-0.4-4.1c10.1-26.8,9.2-53.7,5-81.3c-1.3-8.2,0.2-16.8,0.5-25.2
				c1-25.5,0.6-51.2,3.7-76.4c1.6-12.5,9.9-24,14.8-36.1c2.5-6,5.3-12.2,6.1-18.6c2.3-18.4,3.2-36.9,5.7-55.3
				c1.9-13.5,1.2-25.5-5.7-38.2c-6.3-11.7-8.9-25.7-11.7-39c-0.6-2.7,4.9-7.9,8.7-9.9C89,2.9,93.7,4.8,97,6.1
				c20.2,8.1,39.8,19.3,60.8,23.6c13.2,2.7,28.9-3.7,42.9-8c20.6-6.3,40.5-14.7,61-21.3c3.1-1,6.7,0,10.4,0.9
				c-0.6,2-1.4,4.1-1.5,6.1c-0.8,0.8-1.3,1.7-1.6,2.6c-4.3,15-9.3,30-11.2,45.4c-2.8,23.3-4.9,46.9-3.9,70.3
				c0.5,11.5,8.6,61.7,11.8,70.8c15.4,43.6,13.5,89,14.5,134.1c0.2,10-2.1,20.1-2.7,30.2c-0.1,2.4,1.3,6.6,3.1,7.2
				c11.5,4.1,33.1,47,35.6,53.2c7.9,19.7,18.3,39,22.5,59.6c2.7,13.1,9.3,46.1,4.9,78.1c-4.7,34.1-19.9,79.8-20.7,81.3
				c-3,5-8,8-11,8C275.8,655.3,241.8,659.3,206.8,663.3z M249.4,37.9c0.8-5.6,1.2-11.2,1.8-16.8c-5.6,4.1-12,7.5-16.5,12.5
				c-2.9,3.2-3.1,8.9-5.2,15.5c3.3,3.9,6.9,8.1,10.4,12.3c2.2-3.7,5-7.2,6.6-11.2C248,46.4,248.8,42.1,249.4,37.9z M172.8,117
				c7.3-7,14.5-11.9,13.8-13.5c-3.1-7-8.3-13-12.8-19.4c-4.9,4.9-12.5,9.1-13.7,14.8C159.2,103,166.8,109,172.8,117z M113.1,52.1
				c2-3.6,4-7.2,7.2-12.8c-7-5.9-13.8-11.9-20.9-17.6c-1-0.8-3.1,0-4.7,0c1.9,5.9,3.7,11.9,5.8,17.7c0.8,2.2,2,4.6,3.7,6.1
				C106.8,48,110.1,49.9,113.1,52.1z"/>
			<path fill="#788E92" d="M186.6,103.6c0.7,1.5-6.5,6.5-13.8,13.5c-6-8.1-13.6-14-12.7-18.1c1.2-5.7,8.8-9.9,13.7-14.8
				C178.3,90.5,183.5,96.6,186.6,103.6z"/>
		</g>
		<g>
			<path fill="none" stroke="#7A98A0" stroke-miterlimit="10" d="M41.1,626.2c4.8,6.5,32.2,24,37,30.6
				c95.2,15.3,78.3,11.2,128.7,6.5c35-4,69-8,105-15c3,0,8-3,11-8c0.8-1.6,16-47.2,20.7-81.3c4.4-32.1-2.2-65-4.9-78.1
				c-4.2-20.5-14.6-39.8-22.5-59.6c-2.5-6.2-24.1-49.2-35.6-53.2c-1.7-0.6-3.2-4.8-3.1-7.2c0.6-10.1,2.9-20.2,2.7-30.2
				c-1-45.1,0.9-90.5-14.5-134.1c-3.2-9.1-11.3-59.3-11.8-70.8c-1.1-23.3,1.1-47,3.9-70.3C259.5,40,264.5,25,268.8,10
				c0.3-0.9,0.9-1.8,1.6-2.6c0.1-2,0.9-4.1,1.5-6.1c-3.7-0.9-7.3-1.8-10.4-0.9c-20.5,6.6-40.4,15-61,21.3c-14,4.3-29.6,10.7-42.9,8
				c-21-4.3-40.5-15.5-60.8-23.6c-3.3-1.3-8-3.1-10.4-1.8c-3.8,2-9.2,7.2-8.7,9.9c2.8,13.3,5.3,27.3,11.7,39
				c6.9,12.7,7.5,24.7,5.7,38.2c-2.5,18.3-3.3,36.9-5.7,55.3c-0.8,6.4-3.6,12.5-6.1,18.6c-4.9,12.1-13.3,23.7-14.8,36.1
				c-3.2,25.2-2.7,50.9-3.7,76.4c-0.3,8.4-1.8,17.1-0.5,25.2c4.2,27.6,5.1,54.5-5,81.3c0.1,1.4,0,2.9,0.4,4.1c-1.7,0-2,2.2-3.3,2.8
				c-0.4,0.9-0.9,1.8-1.3,2.5c-2,7.2-5.9,14.2-11.1,20.1c0.3,0.1,0.5,0.2,0.8,0.2c-1.3,2.5-24.8,44-26.1,46.6
				c-10.4,21.9-7,9.7-16.1,61.3c-4.6,23.1-4.8,48.9,10.8,67c0.1-0.5,0.3-1.1,0.4-1.8c3.4,6,4.3,8.3,5.8,10.2
				C26.8,606.9,34,616.6,41.1,626.2z"/>
			<path fill="none" stroke="#7A98A0" stroke-miterlimit="10" d="M234.6,33.6c4.6-5,10.9-8.4,16.5-12.5c-0.6,5.6-0.9,11.3-1.8,16.8
				c-0.6,4.2-1.4,8.4-3,12.3c-1.6,4-4.3,7.5-6.6,11.2c-3.6-4.2-7.1-8.5-10.4-12.3C231.5,42.4,231.7,36.8,234.6,33.6z"/>
			<path fill="none" stroke="#7A98A0" stroke-miterlimit="10" d="M160.1,98.9c1.2-5.7,8.8-9.9,13.7-14.8c4.5,6.4,9.7,12.4,12.8,19.4
				c0.7,1.5-6.5,6.5-13.8,13.5C166.8,109,159.2,103,160.1,98.9z"/>
			<path fill="none" stroke="#7A98A0" stroke-miterlimit="10" d="M94.6,21.7c1.6,0,3.7-0.8,4.7,0c7.1,5.7,14,11.6,20.9,17.6
				c-3.1,5.6-5.1,9.2-7.2,12.8c-3-2.1-6.3-4-9-6.5c-1.7-1.6-2.8-3.9-3.7-6.1C98.3,33.5,96.5,27.6,94.6,21.7z"/>
		</g>
	</g>
	<g id="XMLID_1_">
		<g>
			<path fill="#788E92" d="M92.6,628.6c-14.9-15.2-27.3-32.9-41.4-49c-8-9-5.7-17.6-1.9-26.8c9-21.2,16.4-42.6,13-66.4
				c-0.2-1.8,3.2-4.9,5.5-6.1c6.7-3.6,13.9-6.4,20.7-10c2.2-1.1,4.3-2.3,6.3-3.6c6.6-4.2,9-9.9,8-19.7c-2.2-20.1,0.7-40.7-0.2-61.1
				c-0.7-17.3-5.1-34.5-5.6-51.8c-0.9-32.1-0.4-64.3,0.2-96.5c0.1-4.1,5.8-7.9,6.5-12.2c1.1-6.6,0.1-13.6-0.2-20.4
				c-0.1-1.9,6.8-33.6,6.4-48.5c-0.1-3.1,2-6.3,3.1-9.5c2.2,1.7,4.4,3.3,6.5,5c9.7,7.6,19.2,15.6,29.3,22.6
				c3.7,2.5,9.1,2.8,13.8,3.3c1.8,0.2,3.8-2,5.7-3.1c-1.2-1.8-2.1-4-3.7-5.5c-6.9-6.3-15-11.6-20.8-18.8
				c-7.3-9.1-19.9-21.2,5.1-24.6c2-0.3,4-2.8,5.4-4.6c2.8-3.5,5.3-7.3,7.9-11c4.6,8.4,9.5,16.6,13.1,25.3c0.4,1-6.8,4.9-10.1,7.9
				c-2.6,2.3-4.7,5.1-7,7.7c3.6,1,7.2,2.9,10.7,2.8c3.9-0.1,7.7-2.7,11.6-3.2c5-0.6,10.1-0.2,15.2-0.2c-3.1-3-6.7-5.7-9.1-9.2
				c-1.4-2-1.8-5.8-0.9-8.1c1.3-3.2,4.4-5.5,6.4-8.4c3.8-5.6,7.2-11.3,10.8-17c5.6,6.1,11.7,11.6,16.5,18.3
				c4.3,6.1,12.8,26.2,1,19.2c-2.1-1.3-7.2-0.1-9.3,1.7c-8,6.9-15.4,14.4-22.8,22c-1.7,1.7-2.4,4.4-3.6,6.6c2.2,0.1,4.9,1.1,6.6,0.1
				c6.2-3.6,11.8-8.2,18.1-11.5c3.3-1.7,7.6-1.6,11.5-2.2c-1.7,2.7-3.5,5.3-5.2,8c-0.8,1.3-1.7,2.7-2.5,4.1c2,0.9,4.7,3,6,2.3
				c5.3-2.5,10.1-6,15.2-8.9c3.4-1.9,7-3.4,10.6-5c0.7,3.5,1.1,7.1,2,10.5c6.2,22.4,9.7,46.2,19.8,66.8c8.6,17.7,13.9,37.9,7.1,51.8
				c-8.4,17.1-2.9,30.6-3,45.9c-0.1,8.6-4.2,17.3-6.4,25.9c-3.2,12.4-6.2,24.9-9.5,37.4c-2.4,9.2-5.5,18.3-7.6,27.6
				c-3.9,17.4-7.7,34.9-10.9,52.5c-5.9,32.5-11.7,65-16.7,97.6c-1.4,9.3-0.2,19-0.1,28.5c0.1,5.3,0.6,10.6,0.3,15.9
				c-0.1,1.9-2,3.6-3.1,5.4c-1.8-1.4-5-2.7-5.2-4.4c-0.2-1.2-0.4-2.4-0.5-3.6c-1.1-7.7-2.1-15.5-2.2-23.2
				c-0.2-23.8,0.2-47.7,0.2-71.5c0-2.5-1.1-4.9-1.8-7.4c-1.3,2.5-3.2,4.9-3.8,7.6c-1.5,7.7-2.4,15.5-3.8,23.2
				c-0.3,1.6-1.7,2.9-2.6,4.4c-0.3-1.6-0.9-3.3-0.9-4.9c-0.1-7.2,0.1-14.4,0-21.6c0-1.5-0.6-3.1-0.9-4.7c-0.9,1.4-2.4,2.8-2.6,4.3
				c-1.4,9.6-2.2,19.2-4,28.7c-0.6,3.1-3.4,5.8-5.2,8.7c-1.7-2.9-4.3-5.7-5-8.8c-5.3-23.5-6.6-48.6-16.3-70.1
				c-16.2-36.1-6.9-71.9-6.4-108c0-3.1-1.5-6.2-2.3-9.3c-1.8,2.8-4.9,5.5-5.2,8.5c-1.2,15.6-1.7,31.2-2.4,46.8c1.1,0,2.2,0,3.3,0
				c0,37.4-0.1,74.7,0.1,112.1c0,3.4,0.5,8.3,2.7,10.1c22.9,18.1,12.4,47.3,23,69.6c0.9,2,1.4,5.2,0.8,8.3
				c-0.9,5.1-4.4,9.9-12.7,8.9c-10.2-1.3-5.4-9.3-15.5-19c-4-3.8,3.2-45.7,1.2-45.8c-0.2,0-6.6-3.2-7.3-5.7
				c-4.7-15.6-8.6-31.4-12.7-47.2c-1.7-6.4-2.4-13.2-5.2-19.2c-2.9-6.3-7.7-11.9-11.6-17.7c1.9,6.1,4.5,12.1,5.6,18.3
				c1,5.4,1.9,10.8,2.8,16.2c2.3,13.5,4.4,27.1,6.7,40.6c2.2,12.9,4.1,25.8,7.1,38.5c3.1,13.4-6.6,38.5-19.1,41.9
				C108.5,634.9,97.2,633.3,92.6,628.6z"/>
		</g>
		<g>
			<path fill="none" stroke="#7A98A0" stroke-miterlimit="10" d="M213.8,619.3c-0.9,0.4-1.7,0.8-2.6,1.1c0.2,1.2,0.4,2.4,0.5,3.6
				c0.2,1.7,3.4,2.9,5.2,4.4c1.1-1.8,3-3.6,3.1-5.4c0.3-5.3-0.2-10.6-0.3-15.9c-0.1-9.5-1.4-19.2,0.1-28.5
				c5-32.6,10.8-65.1,16.7-97.6c3.2-17.6,7-35.1,10.9-52.5c2.1-9.3,5.2-18.4,7.6-27.6c3.3-12.4,6.3-24.9,9.5-37.4
				c2.2-8.6,6.4-17.2,6.4-25.9c0.1-15.3-5.4-28.8,3-45.9c6.9-13.9,1.6-34.1-7.1-51.8c-10.1-20.6-13.5-44.3-19.8-66.8
				c-1-3.4-1.4-7-2-10.5c-3.5,1.6-7.2,3.1-10.6,5c-5.1,2.9-9.9,6.4-15.2,8.9c-1.3,0.6-4-1.5-6-2.3c0.8-1.4,1.6-2.7,2.5-4.1
				c1.7-2.7,3.4-5.3,5.2-8c-3.9,0.7-8.2,0.5-11.5,2.2c-6.3,3.3-11.9,7.9-18.1,11.5c-1.6,0.9-4.4,0-6.6-0.1c1.2-2.2,1.9-4.9,3.6-6.6
				c7.4-7.6,14.8-15.1,22.8-22c2.1-1.8,7.2-3,9.3-1.7c11.7,7,3.3-13.2-1-19.2c-4.8-6.6-10.9-12.2-16.5-18.3
				c-3.6,5.7-7.1,11.4-10.8,17c-2,2.9-5.2,5.3-6.4,8.4c-0.9,2.2-0.5,6,0.9,8.1c2.4,3.5,6,6.2,9.1,9.2c-5.1,0-10.2-0.4-15.2,0.2
				c-3.9,0.5-7.7,3-11.6,3.2c-3.5,0.1-7.2-1.8-10.7-2.8c2.3-2.6,4.4-5.4,7-7.7c3.3-2.9,10.5-6.8,10.1-7.9
				c-3.6-8.7-8.6-16.9-13.1-25.3c-2.6,3.7-5.1,7.5-7.9,11c-1.5,1.8-3.4,4.3-5.4,4.6c-25.1,3.4-12.4,15.5-5.1,24.6
				c5.8,7.2,13.9,12.4,20.8,18.8c1.6,1.4,2.5,3.6,3.7,5.5c-1.9,1.1-3.9,3.3-5.7,3.1c-4.7-0.5-10.1-0.8-13.8-3.3
				c-10.2-6.9-19.6-15-29.3-22.6c-2.2-1.7-4.4-3.3-6.5-5c-1.1,3.2-3.2,6.3-3.1,9.5c0.3,14.9-6.5,46.6-6.4,48.5
				c0.3,6.8,1.3,13.8,0.2,20.4c-0.7,4.3-6.4,8.1-6.5,12.2c-0.6,32.2-1.1,64.4-0.2,96.5c0.5,17.3,4.9,34.5,5.6,51.8
				c0.9,20.3-2,40.9,0.2,61.1c1.1,9.8-1.4,15.5-8,19.7c-2.1,1.3-4.2,2.5-6.3,3.6c-6.8,3.5-13.9,6.4-20.7,10
				c-2.4,1.3-5.8,4.4-5.5,6.1c3.4,23.7-4,45.1-13,66.4c-3.9,9.2-6.1,17.8,1.9,26.8c14.1,16.1,26.5,33.8,41.4,49
				c4.6,4.7,15.9,6.3,22.8,4.4c12.6-3.5,22.2-28.5,19.1-41.9c-2.9-12.7-4.9-25.6-7.1-38.5c-2.3-13.5-4.4-27.1-6.7-40.6
				c-0.9-5.4-1.8-10.8-2.8-16.2c-1.1-6.2-3.7-12.2-5.6-18.3c3.9,5.9,8.7,11.4,11.6,17.7c2.7,5.9,3.5,12.8,5.2,19.2
				c4.1,15.8,8.1,31.6,12.7,47.2c0.8,2.5,7.2,5.7,7.3,5.7c2.1,0.2-5.2,42-1.2,45.8c10.1,9.7,5.2,17.8,15.5,19
				c8.3,1,11.9-3.8,12.7-8.9"/>
			<path fill="none" stroke="#7A98A0" stroke-miterlimit="10" d="M172.8,623.3c1.1-0.1,2.2-0.1,3.3-0.2c0.6-3.1,0.1-6.4-0.8-8.3
				c-10.7-22.3-0.1-51.5-23-69.6c-2.2-1.7-2.7-6.6-2.7-10.1c-0.2-37.4-0.1-74.7-0.1-112.1c-1.1,0-2.2,0-3.3,0
				c0.7-15.6,1.2-31.2,2.4-46.8c0.2-3,3.4-5.7,5.2-8.5c0.8,3.1,2.4,6.2,2.3,9.3c-0.5,36.1-9.8,71.9,6.4,108
				c9.6,21.5,10.9,46.7,16.3,70.1c0.7,3.1,3.3,5.9,5,8.8c1.8-2.9,4.6-5.6,5.2-8.7c1.8-9.5,2.6-19.1,4-28.7c0.2-1.5,1.7-2.9,2.6-4.3
				c0.3,1.6,0.9,3.1,0.9,4.7c0.1,7.2-0.1,14.4,0,21.6c0,1.6,0.6,3.3,0.9,4.9c0.9-1.5,2.4-2.8,2.6-4.4c1.4-7.7,2.3-15.5,3.8-23.2
				c0.5-2.7,2.5-5.1,3.8-7.6c0.6,2.5,1.8,4.9,1.8,7.4c0,23.8-0.4,47.7-0.2,71.5c0.1,7.8,1,15.5,2.2,23.2"/>
		</g>
	</g>
	<path fill="#788E92" stroke="#7A98A0" stroke-miterlimit="10" d="M65.8,388.3c-0.4-1.2-0.3-2.7-0.4-4.1c-0.3,0.8-0.6,1.5-0.9,2.3
		c-0.7,1.7-1.3,3.2-2,4.6C63.9,390.5,64.1,388.3,65.8,388.3z"/>
	<path fill="#788E92" d="M101.8,487.3c-4.4-4.4-11-9.9-13.4-16.9c-6.8,3.5-13.9,6.4-20.6,10c-2.4,1.3-5.8,4.4-5.5,6.1
		c3.4,23.7-4,45.2-13,66.4c-3.9,9.2-6.1,17.8,1.8,26.8c14.1,16.1,26.5,33.8,41.4,49c4.6,4.7,15.9,6.3,22.8,4.4
		c12.6-3.5,22.2-28.5,19.1-41.9c-2.9-12.7-4.9-25.6-7.1-38.5c-2.3-13.5-4.4-27.1-6.7-40.6c-1-1-1.2-3-1.9-3.6
		C111.8,502.3,107.8,493.3,101.8,487.3z"/>
	<path fill="#CAB9AA" d="M149.7,566.5c-0.1-0.2-0.2-0.3-0.2-0.3S149.5,566.3,149.7,566.5c0,0-2.2-5.3-2.8-8.2
		c0.1,0.5,0.4,3.4,0.8,7.6C148.8,566.3,149.6,566.6,149.7,566.5z"/>
	<path fill="#CAB9AA" d="M245.2,162.6c-3.5,1.7-7.2,3.1-10.5,5c-5.1,2.9-9.9,6.4-15.2,8.9c-1.3,0.6-4-1.5-6-2.3
		c0.8-1.4,1.6-2.7,2.5-4.1c1.7-2.7,3.4-5.3,5.2-8"/>
	<path fill="#CAB9AA" d="M221.1,162.1c-3.8,0.7-8.1,0.5-11.4,2.2c-6.3,3.3-11.9,7.9-18.1,11.5c-1.6,0.9-4.4,0-6.6-0.1
		c1.2-2.2,1.9-4.9,3.6-6.6c7.4-7.5,12.1-8.8,20.1-15.7c2.1-1.8,10-9.3,12.1-8c11.7,7,3.3-13.2-1.1-19.2
		c-4.7-6.6-10.9-12.2-16.5-18.3c-3.6,5.7-7.1,11.4-10.8,16.9c-2,2.9-5.2,5.3-6.4,8.4c-0.9,2.3-0.5,6,0.9,8.1c2.4,3.5,6,6.2,9.1,9.3
		c-5.1,0-10.2-0.4-15.2,0.2c-3.9,0.5-7.7,3-11.6,3.2c-3.5,0.1-7.2-1.8-10.7-2.8c2.3-2.6,4.4-5.4,7-7.7c3.4-2.9,10.5-6.8,10.1-7.9
		c-3.6-8.7-8.6-16.9-13.1-25.3c-2.6,3.7-5.1,7.5-7.9,11c-1.5,1.9-3.4,4.3-5.4,4.6c-25,3.4-12.4,15.5-5.1,24.6
		c5.8,7.2,13.9,12.5,20.8,18.8c1.6,1.4,2.5,3.6,3.7,5.5c-1.9,1.1-3.9,3.3-5.7,3.1c-4.7-0.5-10.1-0.8-13.8-3.3
		c-10.2-6.9-19.6-15-29.3-22.6c-2.2-1.7-4.4-3.3-6.5-5c-1.1,3.2-3.2,6.3-3.1,9.5c0.3,14.9-6.5,46.6-6.4,48.5
		c0.3,6.8-6.2,28.5-6.3,32.6c-0.6,32.2-1.1,64.4-0.2,96.5c0.5,17.3,4.9,34.5,5.6,51.8c0.9,20.3-2,40.9,0.2,61.1
		c1,9.8,5.2,11.3-1.4,15.5c4,5.9,19.5,26.2,22.4,32.6c2.7,5.9,3.5,12.8,5.2,19.2c4.1,15.7,8.1,31.6,12.7,47.1
		c0.5,1.7,3.7,3.5,5.9,4.4c-0.5-4.2-0.7-7-0.8-7.6v1v-1c0.6,3,2.8,8.2,2.8,8.2c-0.1,0.1-0.9-0.2-2-0.7c2,18.7,7.4,65.1,15.7,66.2
		l53.6-3.7c1.1-1.8,3-3.6,3.1-5.4c0.3-5.3-0.2-10.6-0.3-15.9c-0.1-9.5-1.4-19.2,0.1-28.5c5-32.6,10.8-65.1,16.7-97.6
		c3.2-17.6,7-35.1,10.9-52.5c2.1-9.3,5.2-18.4,7.6-27.6c3.3-12.4,6.3-24.9,9.5-37.4c2.2-8.6,3.9-12.7,4-21.4
		c0.1-15.3-0.5-29.7,1.3-48.7c2.3-24.4,0.9-31.2-2.9-53.6c-3.9-22.6-13.5-44.3-19.8-66.7c-1-3.4-1.4-7-2-10.5"/>
	<path fill="#788E92" d="M88.5,470.3c2.4,7,9,12.5,13.4,16.9c6,6,10,15,17,21c0.7,0.7,0.9,2.7,1.9,3.6c-0.9-5.4-1.9-10.8-2.9-16.2"
		/>
	<path fill="#D49B8D" stroke="#7A98A0" stroke-miterlimit="10" d="M179.8,117c-6-8.1-13.6-14-12.7-18.1c1.2-5.7,8.8-9.9,13.7-14.8
		c4.5,6.4,9.7,12.4,12.8,19.4C194.3,105.1,187.1,110.1,179.8,117z"/>
	<path fill="#EEE5D5" stroke="#7A98A0" stroke-miterlimit="10" d="M229.4,49.1c2.1-6.7,2.3-12.3,5.2-15.5c4.6-5,10.9-8.4,16.5-12.5
		c-0.6,5.6-0.9,11.3-1.8,16.8c-0.6,4.2-1.4,8.4-3,12.3c-1.6,4-4.3,7.5-6.6,11.2C236.3,57.2,232.7,53,229.4,49.1z"/>
	<path fill="#EEE5D5" stroke="#7A98A0" stroke-miterlimit="10" d="M120.4,39.2c-3.1,5.6-5.1,9.2-7.2,12.8c-3-2.2-6.3-4.1-9-6.6
		c-1.7-1.6-2.8-3.9-3.7-6.1c-2.1-5.8-3.9-11.8-5.9-17.7c1.6,0,3.7-0.8,4.7,0C106.6,27.4,113.5,33.3,120.4,39.2z"/>
	<g id="tbLA5J.tif">
		
			<image overflow="visible" width="149" height="226" id="Layer_0_7_" xlink:href="C9D7E701F25E197C.png"  transform="matrix(1 0 0 1 -782.4186 -72.8832)">
		</image>
	</g>
</g>
<g id="Layer_7">
</g>
<g id="Layer_2">
	<g>
		<rect x="-2427" y="-1225.3" fill="#F9DCC4" width="837.7" height="1385.7"/>
		<path fill="#4B3246" d="M-1173.8-324.2c-3.2-0.1-6.3-3.9-9.4-5.9"/>
		<path fill="#4B3246" d="M-1417.6-608c-3.3,0.8-6.8,2.6-10,2.1c-6.8-1-13.4-3.1-20-4.7c7.7,0.2,15.4,0.4,23.1,0.6
			c2.1,0.1,4.1,0.1,6.2,0.1C-1418-609.2-1417.8-608.6-1417.6-608z"/>
		<path fill="#4B3246" d="M-1589.3-1544.8"/>
		<path fill="#4B3246" d="M-1609.9-1563.6"/>
		<path fill="#4B3246" d="M-1836.2-1666.8c0.7-0.4,1.4-0.8,1.9-1.1"/>
		<path fill="#4B3246" d="M-1645.6-1585.5c6.1,3.4,11.5,6.4,16.9,9.5"/>
		<path fill="#4B3246" d="M-1039.3,120.4"/>
		<path fill="#4B3246" d="M-1056.1-1437.4"/>
		<path fill="#4B3246" d="M-1451.2-195.2c-4.4-1.9-10.6-4.7-16.8-7.4c2.6-2.1,5.5-6.3,7.9-6c7.4,0.8,14.6,3.2,21.9,5.1
			C-1441.3-201.5-1444.4-199.5-1451.2-195.2z"/>
		<path fill="#4B3246" d="M-1425.3-220.2c-6.9,1.9-13.7,4.4-20.7,5.5c-2.9,0.4-6.2-2.1-9.3-3.3c2-2.2,3.6-5.6,6.1-6.4
			c3.9-1.3,8.5-1.8,12.5-1.1C-1432.8-224.7-1429.1-222-1425.3-220.2C-1425.3-220.2-1425.3-220.2-1425.3-220.2z"/>
		<path fill="#4B3246" d="M-1529.4-272.9c-0.7-5.7-1.4-11.4-2-17.1c6.7,1.1,13.4,2.1,20,3.4c0.3,0.1,0.8,2.6,0.3,3.4
			c-0.8,1.3-2.3,2.5-3.7,3.3c-4.9,2.5-9.9,4.9-14.8,7.3C-1529.7-272.7-1529.4-272.9-1529.4-272.9z"/>
		<path fill="#4B3246" d="M-1510.3-1344.5c6.4,1.3,12.3,2.4,18.1,3.6c-5.3,2.2-10.4,6-15.8,6.2c-5,0.2-10.2-3.2-15.4-5.1
			C-1519.1-1341.3-1514.8-1342.9-1510.3-1344.5z"/>
		<path fill="#4B3246" d="M-1525.5-430.1c5.7,3.1,10.3,5.6,14.9,8.2c-1.5,1.5-3.2,4.3-4.4,4.1c-7.4-1.1-14.8-3-22.2-4.5
			C-1533.8-424.6-1530.3-426.9-1525.5-430.1z"/>
		<path fill="#4B3246" d="M-1424.6-443.3c-3.6,1.7-7.1,3.9-10.9,4.8c-3.2,0.7-6.8-0.2-10.2-0.4c0.8-3.3,1.7-6.7,2.5-10
			c6.1,1.9,12.2,3.9,18.3,5.8C-1424.8-443-1424.6-443.3-1424.6-443.3z"/>
		<path fill="#4B3246" d="M-1498.6-151c-6.6-3.1-12.1-5.6-17.5-8.1c1.7-0.8,3.7-2.6,5.2-2.3c7,1.3,13.9,3.3,20.9,5
			C-1492.7-154.8-1495.3-153.2-1498.6-151z"/>
		<path fill="#4B3246" d="M-1530.5-398.8c-4,0.5-7.9,1-11.9,1.5c-3.6,0.4-7.3,0.7-10.9,1.1c0.4-1.8,0.3-4.8,1.2-5.2
			c4-1.5,8.3-2.7,12.6-3.1c3.1-0.3,6.5,0.4,9.5,1.3c3.6,1.1,7,2.9,10.4,4.5c-3.6,0.3-7.2,0.6-10.8,0.9
			C-1530.4-398.2-1530.5-398.5-1530.5-398.8z"/>
		<path fill="#4B3246" d="M-1442.3-430c1.8,4.6,4,7.7,3.7,10.6c-0.1,1.6-4.4,4.3-6.6,4.1c-4.9-0.4-9.8-2.2-14.7-3.5
			C-1454.5-422.1-1449.2-425.6-1442.3-430z"/>
		<path fill="#4B3246" d="M-1434.9-697.6c-3.3,2.1-7.2,6.4-9.7,5.7c-3.6-1-6.3-5.6-9.3-8.7c3.5,0.5,7,1,10.5,1.5
			c2.8,0.5,5.6,1.1,8.5,1.6C-1435-697.4-1434.9-697.6-1434.9-697.6z"/>
		<path fill="#4B3246" d="M-1480.6-1334.7c-2.9-2.6-5.5-4.6-7.5-7c-0.2-0.3,2.5-4.2,3.2-4c6.1,1.5,12.1,3.6,18.1,5.6
			C-1470.7-1338.6-1474.7-1337-1480.6-1334.7z"/>
		<path fill="#4B3246" d="M-1513.9-954.8c-7.5-0.9-13.1-1.6-18.7-2.3c4.4-2.3,8.7-5.5,13.4-6.5c2.7-0.6,6.2,2.2,9.3,3.5
			C-1511.3-958-1512.9-956.1-1513.9-954.8z"/>
		<path fill="#4B3246" d="M-1432.8-273.2c1.7,2.5,3.6,5.1,3.5,5.2c-3.9,3.1-7.7,6.5-12.2,8.7c-1.4,0.7-4.5-1.9-6.8-3
			C-1443.4-265.7-1438.6-269.1-1432.8-273.2z"/>
		<path fill="#4B3246" d="M-1531.8-322.5c2.5,2.3,5.9,4.3,5.6,5.3c-1.2,3.8-3.5,7.2-5.4,10.7c-3.2-2.8-6.3-5.6-9.5-8.4
			C-1538.2-317.2-1535.4-319.5-1531.8-322.5z"/>
		<path fill="#4B3246" d="M-1476.9-186.2c5.6,1.9,9.5,3.2,13.4,4.4c-2,1.2-3.9,3.3-5.9,3.4c-6.5,0.1-12.9-0.5-19.4-0.8
			C-1484.7-181.6-1480.6-184-1476.9-186.2z"/>
		<path fill="#4B3246" d="M-1482,1.7c-1.6-1-4.9-2.9-8.2-4.9c3.4-1.7,7-5.2,10.1-4.8c4.6,0.5,8.8,3.8,13.2,6
			C-1471.4-0.9-1476,0.2-1482,1.7z"/>
		<path fill="#4B3246" d="M-1453.6-239.9c-2.9-1.6-5.3-2.7-5.2-2.8c1.4-3.6,3.1-7.1,4.8-10.6c2.8,2.1,5.5,4.3,8.3,6.4
			C-1448.4-244.5-1451.1-242.2-1453.6-239.9z"/>
		<path fill="#4B3246" d="M-1420.6-526.4c-9,2-13.8,4.1-18.4,3.7c-3.1-0.3-5.8-4.4-8.7-6.7c0.9-0.8,1.9-2.3,2.6-2.2
			C-1438.4-530.4-1431.7-528.8-1420.6-526.4z"/>
		<path fill="#4B3246" d="M-1487.2-266c4.8,0.5,10.3,1,15.9,1.5c-3.4,1.5-6.9,4-10.3,4.1c-4.2,0.1-8.5-2-12.7-3.1
			C-1492.4-264.2-1490.4-264.9-1487.2-266z"/>
		<path fill="#4B3246" d="M-1529.7-272.7c1.7,2.7,3.4,5.5,5.1,8.2c-2.7,0.5-5.9,2-8,1.1c-3.3-1.5-6-4.6-8.9-7.1
			c2.7,0.5,5.5,1.6,8.2,1.3c1.4-0.1,2.6-2.5,3.9-3.8C-1529.4-272.9-1529.7-272.7-1529.7-272.7z"/>
		<path fill="#4B3246" d="M-1467.8-1001.6c-3.9,4.3-7.1,7.9-10.4,11.5c-1.4-1.9-4.3-4.9-4-5.4c2.2-2.9,4.9-5.7,8-7.3
			C-1472.5-1003.7-1469.6-1002-1467.8-1001.6z"/>
		<path fill="#4B3246" d="M-1433.8-291.2c-3.3,2.8-4.9,4.7-6.8,5.7c-0.7,0.4-3.5-1.2-3.5-1.6c0.6-4.6,1.5-9.2,2.3-13.7
			C-1439.5-298.1-1437.2-295.3-1433.8-291.2z"/>
		<path fill="#4B3246" d="M-1450-1282.6c-3.4,2.1-6.5,4.6-6.9,4.2c-2.1-2-5.4-5.3-4.8-7.1c0.8-2.6,4.5-4.4,6.9-6.5
			C-1453.6-1289.5-1452.4-1287.1-1450-1282.6z"/>
		<path fill="#4B3246" d="M-1448.9-541c-3.1-2.6-5.1-4.3-7.2-6c3.1-2.3,6.1-4.5,9.2-6.8c1.5,2.4,4,4.7,4.3,7.2
			C-1442.4-545.2-1446-543.4-1448.9-541z"/>
		<path fill="#4B3246" d="M-1494.5,6.7c-2.8-2.4-6.1-5.2-9.5-8.1c1.1-1.1,3-3.3,3.3-3.1c4.5,2.9,8.8,6.1,13.1,9.2
			C-1489.1,5.2-1490.7,5.6-1494.5,6.7z"/>
		<path fill="#4B3246" d="M-1485-963.4c2.6,1.6,4.3,2.6,5.9,3.6c-2.7,1.7-5.3,3.9-8.2,4.8c-1.2,0.4-3.2-2.1-4.9-3.2
			C-1490-959.8-1487.8-961.3-1485-963.4z"/>
		<path fill="#4B3246" d="M-1545.3-422.1c-2.6,1.7-4.2,3.6-5.3,3.3c-3.1-0.7-6-2.4-9-3.6c2.5-1.9,4.8-4.4,7.6-5.3
			C-1550.7-428.2-1548.4-424.9-1545.3-422.1z"/>
		<path fill="#4B3246" d="M-1433.5-337.1c-5.9,7.1-7.3,8.8-8.7,10.5c-1.8-4.2-3.8-8.4-5.3-12.7c-0.2-0.5,1.9-2.5,2.4-2.4
			C-1441.4-340.5-1437.9-338.9-1433.5-337.1z"/>
		<path fill="#4B3246" d="M-1478.3-488.8c4,1.3,7.4,2.3,10.8,3.4c-2.2,1.1-4.4,3.1-6.5,3c-3.3-0.2-6.6-1.9-9.8-3
			C-1482.1-486.4-1480.3-487.6-1478.3-488.8z"/>
		<path fill="#CAB9AA" d="M-2599.7-1616.4c0,0-0.1,0-0.1,0c0,0.1,0,0.1-0.1,0.2L-2599.7-1616.4z"/>
		<path fill="#4B3246" d="M-2397.9-1716.4c0.1-0.1,0.1-0.1,0.2-0.2c0,0-0.1,0-0.1,0C-2397.8-1716.5-2397.9-1716.5-2397.9-1716.4z"/>
		<path fill="#4B3246" d="M-2612.2-1579.3"/>
		<path fill="#4B3246" d="M-2591.7-1590.3c-2.7-8.7-5.4-17.4-8-26.1"/>
		<path fill="#4B3246" d="M-2554-1631.1"/>
		<path fill="#4B3246" d="M-2543.9-1610.8"/>
		<path fill="#4B3246" d="M-2556.4-30.3c2.2,0,5.1-0.8,7.4,0.1c3.6,1.4,6.7,4,10,6c-3.5,1.8-6.9,3.8-10.6,5.1
			C-2549.9-18.8-2551.7-22.5-2556.4-30.3z"/>
		<path fill="#4B3246" d="M-1911.9-1442.6c5.8,3.1,11.1,5.8,16.4,8.6c-1.1,0.8-2.6,2.6-3.3,2.3c-5.6-2.1-11.1-4.6-16.6-6.9
			C-1914.4-1439.8-1913.4-1441-1911.9-1442.6z"/>
		<path fill="#4B3246" d="M-2139.6-1450.5c-3.5-1.6-6.9-3.1-10.2-4.6c3.6-0.7,7.2-2.1,10.8-2c2.9,0.1,5.8,1.8,8.7,2.8
			C-2133.2-1453.1-2136.1-1451.9-2139.6-1450.5z"/>
		<path fill="#4B3246" d="M-1391.2-32"/>
		<path fill="#4B3246" d="M-1360.4-22.7"/>
		<path fill="#4B3246" d="M-1389.2-51.7c-2.4,0.1-4.9-2.9-7.4-4.6"/>
		<path fill="#EEE5D5" d="M-2311.3-1168.5h595.4c26.4,0,48,21.6,48,48v1281h-691.4v-1281
			C-2359.3-1146.9-2337.7-1168.5-2311.3-1168.5z"/>
		<path fill="#C56C76" d="M-1671.5-1120.7h-691.4l0,0c0-26.3,21.5-47.8,47.8-47.8h595.8C-1693-1168.5-1671.5-1147-1671.5-1120.7
			L-1671.5-1120.7z"/>
		<path fill="none" d="M-2612.8-979.6c1.7-12.9,5.1-25.5,10-37.5c5.9-0.3,8.8-5.7,9.3-11.6"/>
		
			<line fill="none" stroke="#788E92" stroke-width="20" stroke-miterlimit="10" x1="-2427" y1="-1233.9" x2="-1601.9" y2="-1233.9"/>
		<pattern  id="SVGID_3_" xlink:href="#New_Pattern" patternTransform="matrix(0.9371 0 0 0.9371 -222.6261 -422.1506)">
		</pattern>
		<path fill="url(#SVGID_3_)" d="M-1411.9-1345.7c2.6-5.9,2.7-11.7-1.2-15.9c-84.9-89.5-357.8-331.4-616.2-331.4
			c-249.6,0-492.2,231.7-582.2,328.1h-11.5v13c-3.8,6.2-3.3,13.5,0,19.2v1568h196v-1558.8h837.5V35.4h187.7v-1381.2H-1411.9z"/>
		<rect x="-2625.6" y="-1651.1" fill="#D49B8D" width="1212.7" height="420.8"/>
		<polygon fill="#C56C76" stroke="#C56C76" stroke-miterlimit="10" points="-2427,-1225.3 -2484.8,-1323.7 -1541,-1323.7 
			-1589.3,-1225.3 		"/>
		<g id="XMLID_3_">
			<g>
				<path fill="#C56C76" d="M-1438.3-1431.7c0,0-280.2-283.6-584.1-283.6s-573.2,294.1-573.2,294.1l-296.3-14.1l0.1-60.8l280,3.4
					c0,0,221.8-273.1,591.1-275.6c352.9-2.3,615.6,282.4,615.6,282.4h267.9v47.6L-1438.3-1431.7z"/>
			</g>
			<g>
			</g>
		</g>
		<path fill="#F9DCC4" d="M-2484.8-1322.4h943.8c0,0-238.4-222.4-476.4-222.4S-2484.8-1322.4-2484.8-1322.4z"/>
		<polygon fill="#FDF0D9" points="-2008.1,-1344.5 -2028.4,-1339.6 -2056.6,-1511.7 -1977.9,-1511.7 		"/>
		<polygon fill="#FDF0D9" points="-1958.5,-1345.9 -1979,-1348.8 -1952.1,-1502.5 -1878.3,-1475.1 		"/>
		<polygon fill="#FDF0D9" points="-2072.4,-1348.5 -2090.9,-1339.4 -2155.5,-1482.9 -2079.1,-1501.8 		"/>
		<polyline fill="#F9DCC4" points="-1420.5,250.6 -1012.7,266.2 -1053.1,93.3 -1124.4,53.7 -1126.3,-200.4 -1173.6,-266.2 
			-1188.1,-1158.1 -1155.4,-1191.5 -1185.8,-1223.2 -1192.9,-1366.5 -1434.1,-1366.5 		"/>
		<rect x="-1364.6" y="-1324" fill="#FDF0D9" width="127.1" height="86.8"/>
		<rect x="-1413" y="-1223.2" fill="#FDF0D9" width="223.9" height="62.3"/>
		<rect x="-1353.5" y="-895.4" fill="#FDF0D9" width="105" height="354.8"/>
		<circle fill="#FDF0D9" cx="-1301.1" cy="-1060.5" r="45"/>
		<polygon fill="#FDF0D9" points="-1168.9,-266.2 -1121.6,-200.4 -1417.6,-213.9 -1416.7,-278.6 		"/>
		
			<line fill="#D49B8D" stroke="#D49B8D" stroke-width="40" stroke-miterlimit="10" x1="-2013.6" y1="-1121" x2="-2013.6" y2="160.5"/>
		<path fill="#C56C76" d="M-2892-1436.2h277.2c0,0,285.3-286.5,592.3-286.5s599.5,283.6,599.5,283.6h285.7l-55.6,72.6h-241.2
			c0,0-327.4-284.6-586.4-284.6S-2605-1365-2605-1365l-238.6-1.2L-2892-1436.2z"/>
		<path fill="#F9DCC4" d="M-1756.1-1771.3c-3.2-2.6-6.6-4.7-10.3-6.4c-1.1-1.2-2.3-2.4-3.5-3.6c2.2-1.6,3.1-5,0.1-7.2
			c-0.6-0.4-1.1-0.8-1.7-1.1c-2-1.5-3.3-3.3-4.2-6c-1.9-5.5-9.9-2.2-8.8,3.1c-1.8,0.2-3.5,0.6-5.3,1.3c-3.8,1.4-3.6,7.2,0.1,8.6
			c0.2,0.1,0.4,0.2,0.6,0.2c-5.6,0.2-11.3,1.3-16.7,3.3c-2,0.8-3.1,3.2-2.7,5.3c-0.2,0-0.3,0-0.5-0.1c0-1.7-0.9-3.3-2.9-3.8
			c-6.8-1.9-13.6-3.8-20.4-5.5c1.3-2.3,0.7-5.8-2.1-6.9c-19.5-7.4-39.5-13.4-59.8-17.8c-0.6-0.5-1.3-0.8-2.1-0.9
			c-2.1-0.3-4.2-0.6-6.3-0.8c-14.1-2.8-28.4-4.8-42.8-6.1c-6-0.5-7.1,8.8-1.1,9.3c1.1,0.1,2.1,0.2,3.2,0.3c-3.5,1-7,2.1-10.4,3.4
			c-1.9,0.1-3.9,0.1-5.8,0.3c-6,0.4-4.6,9.7,1.4,9.3c0.3,0,0.5,0,0.8,0c0.2,0.1,0.5,0.2,0.8,0.3c0.8,0.2,1.5,0.4,2.3,0.7
			c-2.8,2.5-2.5,8.1,2.2,8.1h26.2c1.1,0,2-0.3,2.7-0.8c6,1.1,12.1,2,18.2,2.8c25.4,13.7,52.8,23.3,81.3,28.4
			c7.4,2.5,15.7,3.5,21.8-1.4c8.1-0.4,16.2-1.5,24.2-3.2c1.3-0.3,2.4-1.2,3.1-2.4c5.5-0.3,10.9-1.1,16.3-2.3
			C-1754.3-1763.8-1752.9-1768.7-1756.1-1771.3z M-1792.7-1772.8c2.2-0.3,4.3-0.4,6.5-0.3C-1788.4-1773-1790.5-1772.9-1792.7-1772.8
			z M-1807.8-1764.3c-4,0-7.9-0.1-11.9-0.4c0.2-0.3,0.4-0.7,0.5-1.1C-1815.4-1765.3-1811.6-1764.8-1807.8-1764.3z M-1876.5-1779.9
			c3.7,1.7,7.5,3.3,11.3,4.8c-0.2,0.1-0.4,0.3-0.5,0.5c-4.6-1.7-9.1-3.4-13.5-5.3C-1878.3-1779.9-1877.4-1779.9-1876.5-1779.9z
			 M-1896.8-1798.9c11,2.4,22,5.2,32.8,8.6c-7.3-1.5-14.6-2.8-22-4c-3.1-0.5-4.9,1.8-5,4.3c-1.7-0.1-3.5-0.3-5.2-0.5
			c-2.7-1.3-5.5-2.5-8.4-3.6C-1901.9-1795.7-1899.4-1797.3-1896.8-1798.9z M-1925.1-1800.2c4.5-0.5,9-0.7,13.6-0.6
			c-0.3,0.2-0.6,0.4-0.9,0.6c-1.1,0.6-1.7,1.5-1.9,2.4c-0.5-0.1-0.9-0.1-1.4,0C-1918.8-1798.8-1921.9-1799.5-1925.1-1800.2z"/>
		<path fill="#F9DCC4" d="M-2567.7-1615.6c-3.6-0.5-7.2-0.8-10.7-1.1c1.1-4.1-3.2-8.8-7.1-5.3l-5.1,4.5c-30.3-1.4-60.8,1.9-90.1,10
			c-4,1.1-5.3,7.4-1.7,9c-10.2-0.4-20.4-1.4-30.6-3.2c-5.9-1-7,8.3-1.1,9.3c26.2,4.6,53,4.6,79.2,0.2c0.1,2.3,1.5,4.6,4.1,4.7
			c11.5,0.1,22.1-3,31.7-9.2c-1.4,3.1-2.8,6.1-4.2,9.3c-1.6,3.8,2.5,7.7,6.2,6.1c9-3.9,14.3-13.7,12.5-23.3l17.2-1.5
			C-2562.2-1606.8-2562.6-1614.9-2567.7-1615.6z"/>
		<path fill="#F9DCC4" d="M-1727.6-1815.4c-3.7-1.7-7.5-3.3-11.2-5c-0.1-1-0.6-2-1.6-2.9c-8.6-7.7-18.7-13.4-29.6-16.8
			c-2.9-0.9-5.2,0.9-6.1,3.1l-19.3-8.6c-5.5-2.5-9,6.2-3.5,8.7l67.8,30.1C-1725.6-1804.3-1722.1-1812.9-1727.6-1815.4z"/>
		<path fill="#F9DCC4" d="M-1757.2-1758c-4.7-0.5-6.4,5.1-4,7.9c-4.2,0.7-6,7.3-1.2,8.9c4.1,1.4,8.2,2.7,12.3,4.1
			c2.9,1,6-0.6,6.4-3.8C-1742.6-1749.3-1748.8-1757.1-1757.2-1758z"/>
		<path fill="#F9DCC4" d="M-1617.4-1678.2c1.5,0,2.9,0,4.4-0.1c1.2,1.6,2.3,3.4,3.1,5.2C-1612.4-1674.8-1614.9-1676.5-1617.4-1678.2
			z M-1578.8-1694.6c-1.5,0.6-3.1,1.1-4.7,1.6c-1.5-1.8-2.8-3.8-3-5.6C-1583.6-1697.9-1581-1696.6-1578.8-1694.6z M-1567.7-1662.6
			L-1567.7-1662.6c-1-0.7-2-1-3-0.9c-6.9-2-13.8-4.1-20.6-6.1c-0.8-0.2-1.6-0.3-2.3-0.1l-1.8-2.1c-1.3-1.5-3-2-4.7-1.5
			c-0.6-2-1.5-3.9-2.4-5.7c5.4-0.7,10.7-1.7,15.9-3.1c3.7,3.8,7.8,7.2,10.5,9.9c3.5,3.5,7,6.9,10.5,10.4
			C-1566.4-1662.2-1567-1662.4-1567.7-1662.6z M-1569.3-1686.6c-2.4,0-4.2,1.3-4.8,3.1c-0.7-0.7-1.4-1.4-2.1-2.1
			c2.2-0.8,4.4-1.7,6.6-2.6c0.8-0.4,1.5-1,2-1.8c1.2,1.3,2.3,2.5,3.5,3.9C-1565.8-1686.4-1567.6-1686.5-1569.3-1686.6z
			 M-1338-1571.9c-0.4-0.3-0.7-0.7-1.1-1c0.8,0,1.5,0.1,2.3,0.1C-1337.3-1572.6-1337.7-1572.3-1338-1571.9z M-1204-1513.7
			c-0.2,0.1,0.4,0.9,0.5,2c-0.2,0-0.5,0-0.9,0C-1204.6-1512.3-1204.7-1513.2-1204-1513.7z M-1264.4-1530.5c-0.3,1.5-0.5,3.2-0.4,5.1
			c0.1,0.8,0.2,1.7,0.3,2.5c-6.1-2-12.2-4.3-18.2-7.1C-1276.5-1529.8-1270.4-1530-1264.4-1530.5z M-1305.3-1587.7
			c-6.2-1.1-12.3-2.5-18.3-4c12,0.2,23.9,1.3,35.7,3.4C-1293.7-1587.9-1299.5-1587.7-1305.3-1587.7z"/>
		<path fill="#F9DCC4" d="M-2891.9-1496l280,3.4c0,0,274.1-275.6,591.1-275.6s615.6,282.4,615.6,282.4h267.9l34-109.6h-242.6
			c0,0-337.7-316.1-689.1-316.1s-635.7,288.9-635.7,288.9h-258.6L-2891.9-1496z"/>
		<rect x="-2642.1" y="7.1" fill="#F9DCC4" width="1252.9" height="228.4"/>
		<polyline fill="#F9DCC4" points="-2609.4,243.6 -3017.1,259.1 -2976.7,86.2 -2905.4,46.6 -2903.5,-207.5 -2856.3,-273.3 
			-2841.7,-1165.2 -2874.4,-1198.6 -2844,-1230.3 -2843,-1367.6 -2605,-1365 		"/>
		<rect x="-2792.3" y="-1331.1" fill="#FDF0D9" width="127.1" height="86.8"/>
		<rect x="-2840.7" y="-1230.3" fill="#FDF0D9" width="223.9" height="62.3"/>
		<rect x="-2781.2" y="-902.5" fill="#FDF0D9" width="105" height="354.8"/>
		<circle fill="#FDF0D9" cx="-2728.8" cy="-1067.6" r="45"/>
		<polygon fill="#FDF0D9" points="-2861,-273.3 -2908.2,-207.5 -2612.2,-220.9 -2613.1,-285.7 		"/>
		<polygon fill="#FDF0D9" points="-2979.5,86.2 -2609.4,63.9 -2609.4,15.1 -2908.1,32.1 		"/>
		<polygon fill="#FDF0D9" points="-1050.3,93.3 -1420.5,71 -1420.5,22.2 -1121.7,39.2 		"/>
	</g>
</g>
<g id="Layer_3">
	
		<rect x="-1793" y="-2483.5" fill="url(#New_Pattern_Swatch_7)" stroke="#DE6757" stroke-width="7" stroke-miterlimit="10" width="140" height="76"/>
</g>
</svg>
