<?xml version="1.0" encoding="utf-8"?>
<!-- Generator: Adobe Illustrator 18.1.1, SVG Export Plug-In . SVG Version: 6.00 Build 0)  -->
<svg version="1.1" xmlns="http://www.w3.org/2000/svg" xmlns:xlink="http://www.w3.org/1999/xlink" x="0px" y="0px"
	 viewBox="0 0 2096.7 4468.9" enable-background="new 0 0 2096.7 4468.9" xml:space="preserve">
<pattern  x="-112" y="-1275.5" width="139" height="150.8" patternUnits="userSpaceOnUse" id="New_Pattern" viewBox="69.5 -188.5 139 150.8" overflow="visible">
	<g>
		<polygon fill="none" points="69.5,-188.5 208.5,-188.5 208.5,-37.7 69.5,-37.7 		"/>
		<polygon fill="#C56C76" stroke="#D49B8D" stroke-width="7" stroke-miterlimit="10" points="274.5,-3.5 142.5,-3.5 142.5,-71.9 
			274.5,-71.9 		"/>
		<polygon fill="#C56C76" stroke="#D49B8D" stroke-width="7" stroke-miterlimit="10" points="135.5,-3.5 3.5,-3.5 3.5,-71.9 
			135.5,-71.9 		"/>
		<polygon fill="#C56C76" stroke="#D49B8D" stroke-width="7" stroke-miterlimit="10" points="205,-78.9 73,-78.9 73,-147.3 
			205,-147.3 		"/>
		<polygon fill="#C56C76" stroke="#D49B8D" stroke-width="7" stroke-miterlimit="10" points="274.5,-154.3 142.5,-154.3 
			142.5,-222.7 274.5,-222.7 		"/>
		<polygon fill="#C56C76" stroke="#D49B8D" stroke-width="7" stroke-miterlimit="10" points="135.5,-154.3 3.5,-154.3 3.5,-222.7 
			135.5,-222.7 		"/>
	</g>
</pattern>
<pattern  x="-112" y="-1275.5" width="147" height="166" patternUnits="userSpaceOnUse" id="New_Pattern_2" viewBox="73.5 -207.5 147 166" overflow="visible">
	<g>
		<polygon fill="none" points="73.5,-207.5 220.5,-207.5 220.5,-41.5 73.5,-41.5 		"/>
		<polygon fill="#8BAFB2" stroke="#7A98A0" stroke-width="7" stroke-miterlimit="10" points="290.5,-3.5 150.5,-3.5 150.5,-79.5 
			290.5,-79.5 		"/>
		<polygon fill="#8BAFB2" stroke="#7A98A0" stroke-width="7" stroke-miterlimit="10" points="143.5,-3.5 3.5,-3.5 3.5,-79.5 
			143.5,-79.5 		"/>
		<polygon fill="#8BAFB2" stroke="#7A98A0" stroke-width="7" stroke-miterlimit="10" points="217,-86.5 77,-86.5 77,-162.5 
			217,-162.5 		"/>
		<polygon fill="#8BAFB2" stroke="#7A98A0" stroke-width="7" stroke-miterlimit="10" points="290.5,-169.5 150.5,-169.5 
			150.5,-245.5 290.5,-245.5 		"/>
		<polygon fill="#8BAFB2" stroke="#7A98A0" stroke-width="7" stroke-miterlimit="10" points="143.5,-169.5 3.5,-169.5 3.5,-245.5 
			143.5,-245.5 		"/>
	</g>
</pattern>
<pattern  x="-112" y="-1275.5" width="147" height="166" patternUnits="userSpaceOnUse" id="New_Pattern_5" viewBox="73.5 -207.5 147 166" overflow="visible">
	<g>
		<polygon fill="none" points="73.5,-207.5 220.5,-207.5 220.5,-41.5 73.5,-41.5 		"/>
		<polygon fill="#413644" stroke="#5B4C59" stroke-width="7" stroke-miterlimit="10" points="290.5,-3.5 150.5,-3.5 150.5,-79.5 
			290.5,-79.5 		"/>
		<polygon fill="#413644" stroke="#5B4C59" stroke-width="7" stroke-miterlimit="10" points="143.5,-3.5 3.5,-3.5 3.5,-79.5 
			143.5,-79.5 		"/>
		<polygon fill="#413644" stroke="#5B4C59" stroke-width="7" stroke-miterlimit="10" points="217,-86.5 77,-86.5 77,-162.5 
			217,-162.5 		"/>
		<polygon fill="#413644" stroke="#5B4C59" stroke-width="7" stroke-miterlimit="10" points="290.5,-169.5 150.5,-169.5 
			150.5,-245.5 290.5,-245.5 		"/>
		<polygon fill="#413644" stroke="#5B4C59" stroke-width="7" stroke-miterlimit="10" points="143.5,-169.5 3.5,-169.5 3.5,-245.5 
			143.5,-245.5 		"/>
	</g>
</pattern>
<g id="Layer_1">
	<g id="HAobQW.tif">
		
			<image overflow="visible" width="177" height="56" id="Layer_0_1_" xlink:href="57AE35C98E9362C8.png"  transform="matrix(2.8342 0 0 1.6071 -539.5815 -2931.4797)">
		</image>
	</g>
	<g id="_x33_wBwi4.tif">
		
			<image overflow="visible" width="410" height="280" id="Layer_0_2_" xlink:href="57AE35C98E9362C9.png"  transform="matrix(2.6822 0 0 2.6822 -3471.6362 -2467.0071)">
		</image>
	</g>
	<rect x="2063" y="-2841.3" fill="#DE6757" width="893.9" height="1548.4"/>
	<path fill="#4B3246" d="M2509-2961.3c0.7-0.4,1.5-0.9,2-1.2"/>
	<path fill="#4B3246" d="M3565.4-1054.2"/>
	<path fill="#4B3246" d="M3205.7-3331.3"/>
	<path fill="#CAB9AA" d="M2510.1-2907.5c0,0-0.1,0-0.1,0c0,0.1-0.1,0.2-0.1,0.2L2510.1-2907.5z"/>
	<path fill="#4B3246" d="M2509.9-3014.2c0.1-0.1,0.1-0.2,0.2-0.2c0,0-0.1,0-0.1,0C2510-3014.4,2509.9-3014.3,2509.9-3014.2z"/>
	<path fill="#4B3246" d="M2510-2868"/>
	<path fill="#4B3246" d="M2514.3-2879.7c-2.9-9.3-5.7-18.6-8.6-27.9"/>
	<path fill="#4B3246" d="M2510-2923.2"/>
	<path fill="#4B3246" d="M2510-2901.6"/>
	<path fill="none" d="M2499.7-2579.1c1.8-13.7,5.5-27.2,10.7-40c6.3-0.4,9.4-6,10-12.4"/>
	<linearGradient id="SVGID_1_" gradientUnits="userSpaceOnUse" x1="2187.749" y1="-1383.915" x2="2821.6731" y2="-2700.333">
		<stop  offset="0" style="stop-color:#D8AB6C"/>
		<stop  offset="1" style="stop-color:#FFD67E"/>
	</linearGradient>
	<path fill="url(#SVGID_1_)" d="M2189.1-2780.7h641.8c26.4,0,48,21.6,48,48v1370.1h-737.8v-1370.1
		C2141.1-2759.1,2162.7-2780.7,2189.1-2780.7z"/>
	<path fill="#913433" d="M2878.9-2729.7h-737.8v-3c0-26.4,21.6-48,48-48h641.8c26.4,0,48,21.6,48,48V-2729.7z"/>
	<rect x="-3931.9" y="-3255.5" fill="#FFFEF1" width="3004" height="2872"/>
	<g>
		<path fill="#4B3246" d="M3455.3-3656.6"/>
		<path fill="#4B3246" d="M3111-3547.6c6.2,3.3,11.8,6.2,17.5,9.2c-1.2,0.9-2.8,2.8-3.5,2.5c-6-2.2-11.8-4.9-17.7-7.4
			C3108.4-3544.6,3109.5-3545.9,3111-3547.6z"/>
		<path fill="#4B3246" d="M2868-3556c-3.8-1.7-7.3-3.3-10.9-4.9c3.9-0.8,7.7-2.2,11.6-2.2c3.1,0.1,6.2,1.9,9.3,3
			C2874.9-3558.8,2871.8-3557.5,2868-3556z"/>
		<path fill="#F9DCC4" d="M2499.7-3419.4h1007.1c0,0-254.4-237.3-508.4-237.3S2499.7-3419.4,2499.7-3419.4z"/>
		<polygon fill="#FDF0D9" points="3008.3,-3442.9 2986.8,-3437.6 2956.6,-3621.3 3040.6,-3621.3 		"/>
		<polygon fill="#FDF0D9" points="3061.3,-3444.4 3039.4,-3447.5 3068.2,-3611.5 3146.9,-3582.3 		"/>
		<polygon fill="#FDF0D9" points="2939.8,-3447.2 2920,-3437.5 2851.1,-3590.6 2932.6,-3610.7 		"/>
	</g>
	<rect x="-3931.9" y="-3255.5" fill="url(#New_Pattern_2)" width="3004" height="2872"/>
	<rect x="-3931.9" y="-901.1" fill="url(#New_Pattern)" width="3004" height="268.6"/>
	<g id="_x33_wBwi4.tif_1_">
		
			<image overflow="visible" width="410" height="280" id="Layer_0_4_" xlink:href="57AE35C98E9362CA.png"  transform="matrix(2.6822 0 0 2.6822 3546.6179 -2467.0071)">
		</image>
	</g>
	<rect x="3086.4" y="-3255.5" fill="#FFFEF1" width="3004" height="2872"/>
	<pattern  id="SVGID_2_" xlink:href="#New_Pattern_5" patternTransform="matrix(1 0 0 1 109.2542 0)">
	</pattern>
	<rect x="3086.4" y="-3255.5" fill="url(#SVGID_2_)" width="3004" height="2872"/>
	<rect x="1933" y="-3041.7" fill="#913433" width="1133.4" height="118.5"/>
	<g id="tTWrGk.tif">
		
			<image overflow="visible" width="204" height="41" id="Layer_0_3_" xlink:href="57AE35C98E9362C7.png"  transform="matrix(4.935 0 0 4.935 1496.8889 -3457.8137)">
		</image>
	</g>
	<g>
		<path fill="#CAB9AA" d="M2818.9-2669.7v1242.1h-617.8v-1242.1H2818.9 M2876.8-2729.7h-733.7c-1.1,0-2.1,0.9-2.1,2.1v1358
			c0,1.1,0.9,2.1,2.1,2.1h733.7c1.1,0,2.1-0.9,2.1-2.1v-1358C2878.9-2728.8,2878-2729.7,2876.8-2729.7L2876.8-2729.7z"/>
	</g>
	
		<rect x="2175.1" y="-1770.1" fill="none" stroke="#CAB9AA" stroke-width="60" stroke-linecap="square" stroke-miterlimit="10" width="676" height="376"/>
	
		<line fill="none" stroke="#CAB9AA" stroke-width="60" stroke-linecap="square" stroke-miterlimit="10" x1="2499.7" y1="-2679.8" x2="2499.7" y2="-1393.6"/>
	<rect x="1934.3" y="-1297.8" fill="#D49B8D" width="1133.4" height="96.2"/>
	<polygon fill="#913433" points="1934.3,-1201.6 2006.8,-1138.5 2984.6,-1134 3067.7,-1201.6 	"/>
	<g id="xG4dGs.tif">
		
			<image overflow="visible" width="173" height="44" id="Layer_0_6_" xlink:href="57AE35C98E9362E6.png"  transform="matrix(3.2813 0 0 4.93 465.2299 -3566.2737)">
		</image>
	</g>
</g>
<g id="Layer_5">
	<path fill="#FFFFFF" stroke="#000000" stroke-miterlimit="10" d="M5440,2168.5"/>
	<path fill="#68536F" stroke="#68536F" stroke-width="12" stroke-linecap="square" stroke-miterlimit="10" d="M4365.8,1228.7h-60.4
		V902.4c0-14,11.4-25.4,25.4-25.4h35.1c14,0,25.4,11.4,25.4,25.4v301C4391.2,1217.4,4379.8,1228.7,4365.8,1228.7z"/>
	
		<polygon fill="#788E92" stroke="#788E92" stroke-width="12" stroke-linecap="round" stroke-linejoin="round" stroke-miterlimit="10" points="
		4057.4,176.9 4604.1,176.9 4429.7,61.9 4240.2,61.9 	"/>
	<polygon fill="#C0B2A8" stroke="#EEE5D5" stroke-width="20" stroke-miterlimit="10" points="4206.3,658.9 4057.4,176.9 
		4604.1,176.9 4490.4,658.9 4490.4,888.8 4206.3,888.8 	"/>
	<line fill="#C0B2A8" stroke="#EEE5D5" stroke-width="20" stroke-miterlimit="10" x1="4206.3" y1="658.9" x2="4490.4" y2="658.9"/>
	<line fill="#C0B2A8" stroke="#EEE5D5" stroke-width="20" stroke-miterlimit="10" x1="4272.6" y1="658.9" x2="4272.6" y2="888.8"/>
	<line fill="#C0B2A8" stroke="#EEE5D5" stroke-width="20" stroke-miterlimit="10" x1="4407.9" y1="658.9" x2="4407.9" y2="888.8"/>
	<line fill="#C0B2A8" stroke="#EEE5D5" stroke-width="20" stroke-miterlimit="10" x1="4407.9" y1="658.9" x2="4455.3" y2="176.9"/>
	<line fill="#C0B2A8" stroke="#EEE5D5" stroke-width="20" stroke-miterlimit="10" x1="4272.6" y1="658.9" x2="4208.5" y2="176.9"/>
	
		<path fill="#788E92" stroke="#788E92" stroke-width="12" stroke-linecap="round" stroke-linejoin="round" stroke-miterlimit="10" d="
		M4407.5,34.9c0-42-31.1-76.1-79.5-76.1c-43.9,0-79.5,34.1-79.5,76.1s35.6,76.1,79.5,76.1S4407.5,76.9,4407.5,34.9z"/>
	<rect x="4297.3" y="901.2" fill="#68536F" width="102.1" height="57"/>
	
		<polygon fill="#68536F" stroke="#68536F" stroke-width="12" stroke-linecap="round" stroke-linejoin="round" stroke-miterlimit="10" points="
		4209,4184.7 4501.6,4184.7 4501.6,3298.6 4434,3224.2 4434,958.2 4258.1,958.2 4258.1,3231 4208.5,3303.9 	"/>
	<path fill="#68536F" stroke="#FFFFFF" stroke-linecap="round" stroke-miterlimit="10" d="M4203.5,3303.9l0.5,880.8h301v-886.1
		l-126.6,34.1c-15.9,4.3-32.5,4.5-48.5,0.8L4203.5,3303.9z"/>
	<ellipse fill="#788E92" cx="4317.2" cy="21.1" rx="68.3" ry="66.2"/>
	
		<path fill="#788E92" stroke="#788E92" stroke-width="12" stroke-linecap="round" stroke-linejoin="round" stroke-miterlimit="10" d="
		M4258.1,3231l-54.6,72.9c164.5,60.5,301.5-5.3,301.5-5.3l-66-67.6H4258.1z"/>
	<path fill="#717985" stroke="#717985" stroke-width="12" stroke-linecap="square" stroke-miterlimit="10" d="M1824.2,1415.9h-60.4
		v-326.4c0-14,13.4-15.4,27.4-15.4l33.1-2c14,0,25.4,3.4,25.4,17.4v301C1849.5,1404.6,1838.2,1415.9,1824.2,1415.9z"/>
	
		<polygon fill="#717985" stroke="#717985" stroke-width="12" stroke-linecap="round" stroke-linejoin="round" stroke-miterlimit="10" points="
		1513,355.6 2059.7,355.6 1871.2,240.7 1712.8,240.7 	"/>
	
		<polygon fill="none" stroke="#717985" stroke-width="20" stroke-linecap="round" stroke-linejoin="round" stroke-miterlimit="10" points="
		1664.6,846.1 1519.8,364.1 2056.4,364.1 1948.7,846.1 1948.7,1076 1664.6,1076 	"/>
	<line fill="#717985" stroke="#717985" stroke-width="20" stroke-miterlimit="10" x1="1664.6" y1="846.1" x2="1948.7" y2="846.1"/>
	<line fill="#717985" stroke="#717985" stroke-width="20" stroke-miterlimit="10" x1="1731" y1="846.1" x2="1731" y2="1076"/>
	<line fill="#717985" stroke="#717985" stroke-width="20" stroke-miterlimit="10" x1="1866.3" y1="846.1" x2="1866.3" y2="1076"/>
	<line fill="#717985" stroke="#717985" stroke-width="20" stroke-miterlimit="10" x1="1866.3" y1="846.1" x2="1913.6" y2="364.1"/>
	<line fill="#717985" stroke="#717985" stroke-width="20" stroke-miterlimit="10" x1="1731" y1="846.1" x2="1666.9" y2="364.1"/>
	
		<path fill="#717985" stroke="#717985" stroke-width="12" stroke-linecap="round" stroke-linejoin="round" stroke-miterlimit="10" d="
		M1865.8,222.1c0-42-31.1-76.1-79.5-76.1c-43.9,0-79.5,34.1-79.5,76.1c0,42,35.6,76.1,79.5,76.1
		C1830.2,298.2,1865.8,264.1,1865.8,222.1z"/>
	<rect x="1755.6" y="1088.4" fill="#717985" width="102.1" height="57"/>
	
		<path fill="#717985" stroke="#717985" stroke-width="12" stroke-linecap="round" stroke-linejoin="round" stroke-miterlimit="10" d="
		M1687.4,4166.3h252.6c11,0,20-8.4,20-18.7v-803.7c0-4.7-1.9-9.1-5.2-12.6l-57.2-59c-3.3-3.4-5.2-7.9-5.2-12.6V1164.1
		c0-10.3-9-18.7-20-18.7h-135.9c-11,0-20,8.4-20,18.7v2103.5c0,3.8-1.2,7.4-3.5,10.5l-42.6,58.7c-2.3,3.1-3.5,6.8-3.5,10.5
		l0.5,800.2C1667.4,4157.9,1676.3,4166.3,1687.4,4166.3z"/>
	<path fill="#717985" stroke="#717985" stroke-linecap="round" stroke-miterlimit="10" d="M1670.3,3580.1l-8.6,811.8
		c0,54.5,303.5,49.2,303.5-3.7l-7-809.7c0-73.1-51.2-126.2-110.4-107.2l0,0c-22.7,7.3-46.6,7.8-69.5,1.4l-2.6-0.7
		C1717.2,3455.6,1670.3,3508.5,1670.3,3580.1z"/>
	<ellipse fill="#717985" cx="1775.6" cy="208.3" rx="68.3" ry="66.2"/>
</g>
<g id="Layer_10">
	<g id="XzQTJs.tif_1_">
		<g>
			<path fill="#788E92" stroke="#788E92" stroke-width="10" stroke-miterlimit="10" d="M393.1,3165.8
				c65.6,19.8,131.3,39.2,196.7,59.7c44.6,14,88.6,29.5,134.3,44.7c13.3-22.7,38.1-23.6,61.5-25.3c54-4,107.8-3.1,161.2,7.8
				c10.7,2.2,19.1,3.9,16.8,18.5c-2.2,14.3-10.8,12.7-20.5,11.2c-31.5-4.6-66.2-2.3-93.8-15.3c-33-15.5-62.3-8.6-93.4-3.8
				c-7.1,1.1-13.3,7.8-19.9,11.8c0.7,2.2,1.3,4.4,2,6.6c8.9,1.1,17.7,2.5,26.6,3.2c52.6,4.1,105.2,7.9,157.7,12.1
				c8.4,0.7,18.3-0.1,16.5,14.2c-1.9,14.7-11,11.8-20.6,10.4c-25.3-3.8-52.9-2.3-75.5-12.2c-28.6-12.5-56.8-10.7-85.6-11.8
				c-1.7-0.1-3.4,0.7-5.8,1.2c14.8,16.3,28.4,32.9,43.8,47.4c12.1,11.4,12.8,21.5,5.7,36c-11.2,23-20.6,46.9-30.1,70.6
				c-4,9.9-14.1,19.9-2.9,31.8c0.6,0.6-5,7.8-8.5,11.1c-5.3,5-11.3,9.3-17,13.8c1.1,1.4,2.2,2.9,3.3,4.3c3,0.3,6.2,1.1,9.1,0.7
				c16.5-2.1,21,5.2,21.8,21.3c5.1,99.6,30.2,193.3,96.7,270.2c59.5,68.8,131.7,121.7,217.8,153.9c2.8,1.1,5.9,1.3,10.7,2.3
				c0-6.6,0.1-12.1-0.1-17.6c-0.1-3.6-0.7-7.2-1.4-12.8c-7.4,0-14.2-0.4-20.9,0.1c-11,0.8-15.8-3.2-15.6-14.9
				c0.2-11.1,5.3-14,15.1-13.9c25,0.2,50,0.2,75,0.1c9.7-0.1,15.1,3.1,15.3,14c0.2,11.8-5.3,15.5-16.1,14.9c-8-0.4-16-0.1-27.1-0.1
				c0,11.1-1.5,21.2,0.6,30.5c1.3,5.7,7.2,12.5,12.7,14.4c5.3,1.8,13.6-0.4,18.5-3.8c4.5-3.1,6.6-10.1,9-15.7
				c38.7-92.8,76.7-185.8,116-278.4c24.5-57.8,50.9-114.8,76.3-172.3c2.5-5.6,4.3-11.4,6.3-16.8c-37.5-25-85.8-27.4-118-59.8
				c0.3-2.2,0.6-4.3,0.9-6.5c11.8-2.1,23.5-5.8,35.3-5.9c68.2-0.7,136.3-0.7,204.5-0.4c5,0,10,4.6,15.1,7.1
				c-4.1,4.7-7.4,11.3-12.6,13.7c-27.8,12.5-56.9,22.4-83.8,36.4c-10.9,5.7-18.5,18.8-25.8,29.8c-24,36.2-20.6,69.7,5.5,105.5
				c28,38.5,50.2,81.2,75.8,123.4c52.9-26.4,108.7-38.1,167.7-39.8c0-10.8,0-20.3,0-31.9c-39.5,0-78.1,0-116.7,0
				c-18.3,0-38.8-23.6-38.1-49.6c7.4,10.6,13.3,17.3,17.2,24.9c5.6,10.9,13.4,14.1,25.5,14c104.4-0.5,208.9-0.3,313.3-0.2
				c6.5,0,13.1,1.8,20.4,5.4c-41,5.2-39.2,45.1-61.9,67.4c18.8,9.3,35.5,16.2,50.8,25.2c42.4,25.2,76.6,59.4,108.3,97.1
				c45,53.5,67.8,115.3,77.1,183.4c0.5,3.6,2,7.1,3.1,10.6c0,12.5,0,25,0,37.5c-7.3-0.9-14.5-1.9-22.5-2.9
				c-2.9-71.3-20.6-136.5-62.5-195.1c-40.2-56.4-88.7-101.2-152.6-128.6c-4.4-1.9-9.8-1.3-14.8-1.9c-0.5,1.9-1,3.8-1.5,5.7
				c5.3,2.7,10.4,5.8,15.8,8.1c84.1,36.4,141.6,101.3,176.6,182.5c40.9,94.7,38.6,191.1-12.3,284.5c-36,66.1-83.9,118-151.4,153.2
				c-121.2,63.2-275.4,55.2-395.2-37.7c-43.2-33.5-75.1-76.6-97.1-126.7c-4.3-9.8-8.8-15.3-20.6-13.2
				c-51.6,9.1-103.4,17.5-155.1,26.6c-3.8,0.7-9.5,5.1-9.8,8.3c-1.1,12.1-0.5,24.3-0.5,38c11.3,0,19.3,0.3,27.3-0.1
				c11.1-0.6,16,4.1,15.9,15.4c-0.1,10.8-5.5,13.8-15.3,13.7c-24.4-0.3-48.8-0.2-73.2,0.2c-9.9,0.1-16.7-1.1-16.8-13.8
				c-0.2-13.5,6.8-15.6,17.6-15.1c6.6,0.3,13.3-0.6,20.3-1c0-16,0-30.3,0-44.3c-92.7-24.3-131.4-107.1-80.7-189.8
				c-117.3-112.7-234.9-225.7-354.3-340.4c-6.4,15.1-10.9,28-17.1,40c-6.2,12-4.7,19.1,7.2,27.4c49.6,35.1,89,80.5,118.3,133.1
				c37.8,67.9,51.4,142.1,41.3,219.3c-4.7,36.3-15.4,71.9-24.1,110.8c-20.5-18.9-19.9-18.8-14.3-38.5c5.9-20.7,10.4-41.8,15.5-62.7
				c-2.2-1.4-4.5-2.8-6.7-4.3c-3.5,3.6-8.7,6.6-10.2,10.9c-9.2,25.4-15.9,51.9-26.4,76.7c-29.3,69.1-75.3,123.3-140.7,162.6
				c-118.5,71.2-272.9,72.8-399.7-15.8c-77-53.8-119.8-131.6-141.5-221.8c-2-8.4-3.4-17-5.1-25.5c0-22.5,0-45,0-67.5
				c9.7-31.7,17.4-64.3,29.6-94.9c29.9-75,80.1-132.5,151.6-171.9c61.5-33.9,126.4-48.7,196.1-45.7c57.1,2.4,110.5,17.8,159.7,46
				c11-11.2,3.7-15.2-5-19.8c-47.1-25-97.3-39.1-150.5-40.6c-17-0.5-23.4-7.7-23.7-24.6c69-0.2,133.6,15.5,194,49.1
				c4.5-6.5,8.2-11.8,11.4-16.5c-20.7-21.6-47.4-36.6-53.5-68c-13.9,0-26.7,0-39.3,0c-2.4-21-4.6-40.7-6.8-60.4
				c24.8-3.6,59,4.8,77.5,19.3c15.3,11.9,14.9,19.8-1.4,29.3c-2.7,1.6-5.5,3.2-8.4,4.1c-12.8,4.1-13.3,14.7-7.3,22.2
				c12.1,15.1,26.8,28.2,42.4,44.2c5.2-11.7,8.3-18.4,11.1-25.3c23.7-57.8,47.7-115.4,70.6-173.4c5.5-13.9,6.8-29.3,10.8-43.8
				c1-3.6,4.8-6.5,7.6-9.4c2.8-2.9,7.3-4.8,8.9-8.1c11.6-23.2,21.4-47.5,34.4-69.9c10.4-17.9,5.8-29.8-8.1-41.9
				c-11.1-9.6-21.7-20-33.7-31.1c-33,88.8-65.8,176.8-98.9,265.7c-92.1-20.1-182.1-39.7-271.6-59.2c1.3-24.3,4.4-46.1,3.3-67.7
				c-2.8-52.2-8-104.3-11.6-156.5c-2.5-36.2-3.1-72.5-6.2-108.6c-1.1-12.6,2.4-19.9,13.4-24.5
				C370.6,3165.8,381.9,3165.8,393.1,3165.8z M590.4,3811.2c-81.7-57.4-241.1-80.2-378.2,24.1c-107.8,82-146.5,242.9-90.6,373.5
				c57.5,134.5,209.9,218.3,368,185.9c136.9-28,239.4-134.6,254.5-269.3c-5.2-0.9-10.5-2.2-15.9-2.8
				c-82.6-9.3-165.2-18.3-247.7-28.1c-11.3-1.3-18.7-2-25.3,10.6c-10.2,19.2-36,23.9-54.1,12.7c-17.7-11-24.1-34.2-14.5-52.6
				c10.1-19.3,32.7-26.8,53-17.5c4.3,2,8.4,4.4,11.1,5.8C533.9,3992,551,3895.3,590.4,3811.2z M1335.8,4198.8
				c47.9,135.3,228.3,239.4,408.5,179.4c173.1-57.6,260.1-256.2,202.3-395.5c-82.2,25.6-164.6,51.2-247,76.8
				c14.7,46.8-25.6,84.1-61.1,89.7C1537.9,4165,1437.6,4182,1335.8,4198.8z M1760.4,3781c-36.8,61.3-73.7,121.1-108.6,182.1
				c-8.7,15.2-10.7,34.2-14.3,46.5c19.6,13.7,34.9,22.2,47.2,33.9c7.7,7.3,12.9,8.9,22.5,5.8c51.1-16.2,102.5-31.7,153.6-47.7
				c27.7-8.7,55.3-17.9,84.7-27.4C1912.2,3881.1,1850.9,3818.1,1760.4,3781z M612.1,3826.7c-11.9,29.3-24.6,58.4-35.6,88.2
				c-21.5,58-52.5,108.5-105.3,143.6c-5.2,3.4-8.2,12.6-8.6,19.4c-0.2,2.5,9.8,7.5,15.5,8.2c83,9.9,166.1,19.3,249.2,28.7
				c6,0.7,12,0.7,17.7,1C766.1,4016.6,689.5,3850.6,612.1,3826.7z M1348.3,3586.3c-59.1,138.3-117.1,274-175.9,411.5
				c24.7,1.3,44.6,3.2,64.5,2.9c5.2-0.1,13.6-5.9,14.9-10.6c11.4-42.3,27.2-81.9,52.9-118.2c30-42.2,63.3-80.4,106.1-109.8
				c10-6.9,20.9-12.3,30.6-18C1410.1,3691,1379.9,3639.9,1348.3,3586.3z M1602.5,4016.2c-44.4-74.6-86.5-145.4-128.6-216.1
				c-90.5,44.9-148.2,142.2-153,204.5C1413.6,4008.4,1506.2,4012.2,1602.5,4016.2z M1036.8,4026.9c18.2-8.8,34.4-16.4,50.4-24.4
				c5.1-2.5,9.7-6,14.5-9c-4.3-3.8-8-8.7-12.9-11.1c-29.6-14.5-60.6-26.7-89.2-43c-62.6-35.8-111.5-86.5-156.8-142.3
				c-56.5-69.6-73.2-152.5-89.9-236.3c-1.2-6.2-4.2-15.1-8.8-17c-10.1-4.2-14.8,3.7-18.5,12.9c-14.7,37.1-29.6,74.2-45.4,110.9
				c-4.6,10.7-2.3,16.8,5.6,24.1c27.5,25.2,54.8,50.7,81.7,76.7c75.4,72.9,150.4,146.1,225.7,219
				C1008,4001.5,1023.5,4014.8,1036.8,4026.9z M1626.9,4013.9c1.1-0.3,2.2-0.5,3.3-0.8c0-84.7,0-169.3,0-255.9
				c-48.1,1.3-93.2,9.4-137.2,32.4C1538.3,3865.5,1582.6,3939.7,1626.9,4013.9z M1315.1,4146.3c88.7-16.6,172.8-32.1,256.6-48.4
				c5.5-1.1,9.8-8.8,14.6-13.4c-6-3.9-11.9-10.8-18.1-11.3c-80.4-5.5-160.9-10-241.4-14.7c-5.3-0.3-10.7,0.5-19.3,1
				C1310.1,4088.8,1312.5,4116.3,1315.1,4146.3z M1642.2,3754.1c0,69.1,0,132.9,0,200.9c37.3-61.6,72.1-119.2,109.9-181.6
				C1713.2,3766.6,1679.3,3760.6,1642.2,3754.1z M1102.2,4162.4c0-14.7-1.2-27.8,0.6-40.5c0.8-5.5,7.6-10.1,11.7-15.1
				c3.6,4.8,9.8,9.4,10.4,14.6c1.5,12.6,0.5,25.5,0.5,38.8c28.9-6.2,44.3-26.4,41.8-52.2c-2.2-22.4-27-44.4-51.5-45.5
				c-26.3-1.2-48.4,16.4-53.3,42.5C1057.5,4129.9,1072.7,4153.3,1102.2,4162.4z M1642.1,3689.4c47.7,9.2,93.2,18,141.4,27.4
				c8.8-15.4,19.2-33.7,30.5-53.4c-59.8,0-115.5,0-171.8,0C1642.1,3673.6,1642.1,3682.2,1642.1,3689.4z M635.1,3784.4
				c-10.9,10.7-2.7,15.5,4.6,20.9c61.1,45.4,99.5,107.3,125.9,177c15,39.6,16.5,81.7,14.2,123.8c-0.5,9.3-0.9,18.3,13,13.6
				C811.7,3990.1,742.7,3858.7,635.1,3784.4z M1282.7,4150.6c-2.4-31.8-4.8-62.5-7.2-94.3c-6.4-0.4-12.5-1.1-18.5-1.2
				c-27.3-0.7-33.2,5.4-31.8,32.6c0.4,7.4,0.7,14.9,1.3,22.3C1229.9,4157,1235.4,4161,1282.7,4150.6z M1271.7,4005.8
				c8.4-4.5,12.7-5.3,13.7-7.6c5.7-12.9,10.7-26.1,15.7-39.2c26.8-69.9,67.7-128.8,132.7-168.6c8.8-5.4,17.1-11.6,25.6-17.4
				c-0.5-1.7-1-3.3-1.5-5c-3.8,0.3-8.4-0.6-11.4,1.1c-13.4,7.7-27,15.4-39.5,24.6c-55.2,40.8-89.4,97.9-118.7,158.1
				C1281,3966.9,1278.2,3984.2,1271.7,4005.8z M1633.3,3722.7c-3.5-3.2-4.4-4.7-5.3-4.7c-51.4-0.5-100.2,10.6-146.6,32.4
				c-2.3,1.1-3.2,5.3-4.8,8c3.7,0.4,8,2.2,11,0.9c42.7-19.4,87.6-28.4,134.1-31.1C1625.2,3728.1,1628.6,3725,1633.3,3722.7z
				 M1772.7,3744.1c-41.4-19.3-103.9-30.1-130.7-22.7c38.4,10.1,77.2,18.9,116.1,27.1C1761,3749.2,1764.6,3746.7,1772.7,3744.1z
				 M1144.2,3932.1c7.9-5.9,13-9.6,18.1-13.4c-5.9-3.3-11.5-8.7-17.7-9.3c-4.8-0.5-10.1,5.1-15.2,7.9
				C1133.7,3921.5,1138,3925.8,1144.2,3932.1z M1144.1,4279.1c-6.3,5.9-10.7,10.1-15.1,14.3c5,3,10.2,8.8,14.8,8.3
				c6.3-0.6,12.2-6,18.2-9.3C1156.9,4288.6,1151.8,4284.8,1144.1,4279.1z M1085.1,4308.3c6.3-7.3,9.8-11.5,13.4-15.6
				c-4.8-3-9.6-8.3-14.3-8.3c-5,0-9.9,5.2-14.9,8.1C1073.5,4296.7,1077.8,4301,1085.1,4308.3z M1084.8,3933
				c6.5-7.1,10.2-11.2,14-15.3c-4.8-3.1-9.7-8.6-14.5-8.5c-4.9,0.1-9.7,5.6-14.5,8.8C1073.8,3922,1077.8,3926,1084.8,3933z
				 M1641.5,4093.4c4.6-6.8,10.3-11.7,9.5-14.8c-1.3-4.6-7.2-7.9-11.1-11.8c-3.5,4.3-9,8.3-9.7,13
				C1629.7,4083,1636,4087.2,1641.5,4093.4z"/>
		</g>
	</g>
</g>
<g id="Layer_6_copy">
	<g id="XMLID_2_">
		<g>
			<path fill="#788E92" d="M2508.2-4.3c-50.4,4.8-33.5,8.8-128.7-6.5c-4.8-6.5-32.1-24.1-37-30.6c-7.2-9.6-14.3-19.3-21.5-28.9
				c-1.4-1.9-2.4-4.2-5.8-10.2c-0.2,0.6-0.3,1.2-0.4,1.8c-15.5-18.1-15.3-43.9-10.8-67c9.1-51.5,5.7-39.4,16.1-61.3
				c1.2-2.6,24.8-44.1,26.1-46.6c-0.3-0.1-0.5-0.1-0.8-0.2c5.2-5.9,9.1-13,11.1-20.1c0.5-0.8,0.9-1.6,1.3-2.5
				c1.3-0.6,1.5-2.8,3.3-2.8c-0.4-1.2-0.3-2.7-0.4-4.1c10-26.8,9.2-53.7,5-81.3c-1.3-8.2,0.2-16.8,0.5-25.2
				c1-25.5,0.6-51.1,3.7-76.4c1.6-12.5,9.9-24,14.8-36.1c2.5-6,5.3-12.2,6.1-18.6c2.3-18.4,3.2-36.9,5.7-55.3
				c1.9-13.5,1.2-25.5-5.7-38.2c-6.4-11.7-8.9-25.7-11.7-39c-0.6-2.7,4.9-7.9,8.7-9.9c2.5-1.3,7.1,0.5,10.4,1.8
				c20.2,8.1,39.8,19.3,60.8,23.6c13.2,2.7,28.9-3.7,42.9-8c20.6-6.3,40.5-14.7,61-21.3c3.1-1,6.7,0,10.4,0.8
				c-0.6,2-1.4,4.1-1.5,6.2c-0.8,0.8-1.3,1.7-1.6,2.6c-4.3,15-9.3,30-11.2,45.4c-2.8,23.3-4.9,46.9-3.9,70.3
				c0.5,11.5,8.6,61.7,11.8,70.8c15.4,43.6,13.6,89,14.5,134.1c0.2,10-2.1,20.1-2.7,30.2c-0.1,2.4,1.3,6.6,3.1,7.2
				c11.5,4.1,33.1,47,35.6,53.2c7.9,19.7,18.3,39,22.5,59.6c2.7,13.1,9.3,46.1,4.9,78.1c-4.7,34.1-19.9,79.8-20.7,81.3
				c-3,5-8,8-11,8C2577.2-12.3,2543.2-8.3,2508.2-4.3z M2550.8-629.7c0.8-5.6,1.2-11.2,1.8-16.9c-5.6,4.1-12,7.5-16.5,12.5
				c-2.9,3.2-3.1,8.9-5.2,15.5c3.3,3.9,6.8,8.1,10.4,12.3c2.2-3.7,4.9-7.2,6.6-11.2C2549.4-621.2,2550.2-625.5,2550.8-629.7z
				 M2474.2-550.6c7.3-7,14.5-11.9,13.8-13.5c-3.1-7-8.3-13-12.8-19.4c-4.9,4.9-12.5,9.1-13.7,14.8
				C2460.6-564.6,2468.2-558.6,2474.2-550.6z M2414.5-615.5c2-3.6,4-7.2,7.1-12.8c-7-5.9-13.8-11.9-20.9-17.6c-1-0.8-3.1,0-4.7,0
				c1.9,5.9,3.7,11.9,5.8,17.7c0.8,2.2,2,4.6,3.7,6.1C2408.2-619.6,2411.5-617.7,2414.5-615.5z"/>
			<path fill="#788E92" d="M2488-564c0.7,1.5-6.5,6.5-13.8,13.5c-6-8-13.5-14-12.7-18.1c1.2-5.6,8.8-9.9,13.7-14.8
				C2479.7-577.1,2484.9-571,2488-564z"/>
		</g>
		<g>
			<path fill="none" stroke="#7A98A0" stroke-miterlimit="10" d="M2342.6-41.4c4.8,6.5,32.1,24.1,37,30.6
				c95.2,15.3,78.3,11.2,128.7,6.5c35-4,69-8,105-15c3,0,8-3,11-8c0.8-1.6,16-47.2,20.7-81.3c4.4-32.1-2.2-65-4.9-78.1
				c-4.2-20.5-14.6-39.8-22.5-59.6c-2.5-6.2-24.1-49.2-35.6-53.2c-1.7-0.6-3.2-4.8-3.1-7.2c0.6-10.1,2.9-20.2,2.7-30.2
				c-1-45.1,0.9-90.5-14.5-134.1c-3.2-9.1-11.3-59.3-11.8-70.8c-1.1-23.3,1.1-47,3.9-70.3c1.9-15.4,6.8-30.4,11.2-45.4
				c0.3-1,0.9-1.8,1.6-2.6c0.1-2.1,0.9-4.1,1.5-6.2c-3.7-0.9-7.3-1.8-10.4-0.8c-20.5,6.6-40.4,15-61,21.3c-14,4.3-29.6,10.7-42.9,8
				c-21-4.3-40.5-15.5-60.8-23.6c-3.3-1.3-7.9-3.2-10.4-1.8c-3.8,2-9.2,7.2-8.7,9.9c2.8,13.3,5.3,27.3,11.7,39
				c6.9,12.7,7.5,24.7,5.7,38.2c-2.5,18.3-3.3,36.9-5.7,55.3c-0.8,6.4-3.6,12.5-6.1,18.6c-4.9,12.1-13.3,23.7-14.8,36.1
				c-3.2,25.2-2.7,50.9-3.7,76.4c-0.3,8.4-1.8,17.1-0.5,25.2c4.2,27.6,5.1,54.5-5,81.3c0.1,1.4,0,2.9,0.4,4.1c-1.7,0-2,2.2-3.3,2.8
				c-0.4,0.9-0.9,1.8-1.3,2.5c-2,7.2-5.9,14.2-11.1,20.1c0.3,0.1,0.5,0.2,0.8,0.2c-1.3,2.5-24.8,44-26.1,46.6
				c-10.4,21.9-7,9.7-16.1,61.3c-4.6,23.1-4.8,48.9,10.8,67c0.1-0.6,0.3-1.1,0.4-1.8c3.3,6,4.3,8.3,5.8,10.2
				C2328.2-60.6,2335.4-51,2342.6-41.4z"/>
			<path fill="none" stroke="#7A98A0" stroke-miterlimit="10" d="M2536.1-634c4.6-5,10.9-8.4,16.5-12.5c-0.6,5.6-0.9,11.3-1.8,16.9
				c-0.6,4.2-1.4,8.4-3,12.3c-1.6,4-4.3,7.5-6.6,11.2c-3.6-4.2-7.1-8.5-10.4-12.3C2532.9-625.2,2533.1-630.8,2536.1-634z"/>
			<path fill="none" stroke="#7A98A0" stroke-miterlimit="10" d="M2461.5-568.7c1.2-5.6,8.8-9.9,13.7-14.8
				c4.5,6.4,9.7,12.4,12.8,19.4c0.7,1.5-6.5,6.5-13.8,13.5C2468.2-558.6,2460.6-564.6,2461.5-568.7z"/>
			<path fill="none" stroke="#7A98A0" stroke-miterlimit="10" d="M2396-645.9c1.6,0,3.7-0.8,4.7,0c7.1,5.7,13.9,11.6,20.9,17.6
				c-3.1,5.6-5.1,9.2-7.1,12.8c-3-2.1-6.3-4-9-6.5c-1.7-1.6-2.9-3.9-3.7-6.1C2399.8-634,2398-640,2396-645.9z"/>
		</g>
	</g>
	<g id="XMLID_1_">
		<g>
			<path fill="#788E92" d="M2394-39c-14.9-15.2-27.3-32.9-41.4-49c-7.9-9-5.7-17.6-1.8-26.8c9-21.2,16.4-42.6,13-66.3
				c-0.2-1.8,3.1-4.9,5.5-6.2c6.7-3.6,13.9-6.4,20.6-9.9c2.2-1.1,4.3-2.3,6.4-3.6c6.6-4.2,9-9.9,8-19.7c-2.1-20.1,0.7-40.7-0.1-61.1
				c-0.7-17.3-5.1-34.5-5.6-51.8c-0.9-32.1-0.4-64.3,0.2-96.5c0.1-4.1,5.8-7.9,6.5-12.2c1.1-6.6,0.1-13.6-0.2-20.4
				c-0.1-1.9,6.8-33.6,6.4-48.5c-0.1-3.1,2-6.3,3.1-9.5c2.2,1.7,4.4,3.3,6.5,5c9.7,7.6,19.2,15.6,29.3,22.6
				c3.7,2.5,9.1,2.8,13.8,3.3c1.8,0.2,3.8-2,5.7-3.1c-1.2-1.8-2.1-4-3.7-5.5c-6.9-6.3-15-11.6-20.8-18.8
				c-7.3-9.1-19.9-21.2,5.1-24.6c2-0.3,4-2.8,5.4-4.6c2.8-3.5,5.3-7.3,7.9-11c4.5,8.4,9.5,16.6,13.1,25.3c0.4,1-6.8,4.9-10.1,7.9
				c-2.6,2.3-4.7,5.1-7,7.7c3.6,1,7.2,2.9,10.7,2.8c3.9-0.1,7.7-2.7,11.6-3.2c5-0.6,10.1-0.2,15.2-0.2c-3.1-3-6.7-5.7-9.1-9.2
				c-1.4-2-1.9-5.8-0.9-8c1.3-3.2,4.4-5.5,6.4-8.5c3.8-5.5,7.2-11.3,10.8-17c5.6,6.1,11.7,11.6,16.5,18.3c4.3,6,12.8,26.2,1.1,19.2
				c-2.1-1.3-7.2-0.1-9.3,1.7c-8,6.9-15.4,14.5-22.8,22c-1.7,1.7-2.4,4.4-3.6,6.6c2.2,0.1,4.9,1.1,6.6,0.1
				c6.2-3.6,11.8-8.2,18.1-11.5c3.3-1.7,7.6-1.6,11.4-2.2c-1.7,2.7-3.5,5.3-5.2,8c-0.9,1.3-1.7,2.7-2.5,4.1c2,0.9,4.7,3,6,2.3
				c5.3-2.5,10.1-6,15.2-8.9c3.4-1.9,7-3.4,10.6-5c0.7,3.5,1.1,7.1,2,10.5c6.2,22.4,9.7,46.2,19.8,66.8c8.6,17.7,13.9,37.9,7.1,51.8
				c-8.4,17.1-2.9,30.6-3,45.9c-0.1,8.6-4.2,17.3-6.4,25.9c-3.2,12.5-6.2,24.9-9.5,37.4c-2.4,9.2-5.5,18.3-7.6,27.6
				c-3.9,17.4-7.7,34.9-10.9,52.5c-5.9,32.5-11.7,65-16.7,97.6c-1.4,9.3-0.2,19-0.1,28.5c0.1,5.3,0.6,10.6,0.3,15.9
				c-0.1,1.9-2,3.6-3.1,5.5c-1.8-1.5-5-2.7-5.2-4.4c-0.2-1.2-0.4-2.4-0.5-3.6c-1.1-7.7-2.1-15.5-2.2-23.2
				c-0.2-23.8,0.2-47.7,0.2-71.5c0-2.5-1.1-4.9-1.8-7.4c-1.3,2.5-3.2,4.9-3.8,7.6c-1.5,7.7-2.4,15.5-3.8,23.2
				c-0.3,1.6-1.7,2.9-2.6,4.4c-0.3-1.6-0.9-3.3-0.9-4.9c-0.1-7.2,0.1-14.4,0-21.6c0-1.6-0.6-3.1-0.9-4.7c-0.9,1.4-2.4,2.8-2.6,4.3
				c-1.4,9.6-2.2,19.2-4,28.7c-0.6,3.1-3.4,5.8-5.2,8.7c-1.7-2.9-4.3-5.7-5-8.8c-5.3-23.4-6.6-48.6-16.3-70.1
				c-16.2-36.1-6.9-71.9-6.4-108c0-3.1-1.5-6.2-2.3-9.3c-1.8,2.8-4.9,5.6-5.2,8.5c-1.2,15.6-1.7,31.2-2.4,46.8c1.1,0,2.2,0,3.3,0
				c0,37.4-0.1,74.7,0.1,112.1c0,3.4,0.5,8.3,2.7,10.1c22.9,18.1,12.3,47.3,23,69.6c0.9,2,1.4,5.2,0.8,8.3
				c-0.9,5.1-4.4,9.9-12.7,8.9c-10.2-1.3-5.4-9.3-15.5-19c-4-3.8,3.2-45.7,1.2-45.8c-0.2,0-6.6-3.2-7.3-5.7
				c-4.7-15.6-8.6-31.4-12.7-47.2c-1.7-6.4-2.4-13.2-5.2-19.2c-2.9-6.3-7.7-11.9-11.6-17.7c1.9,6.1,4.5,12.1,5.6,18.3
				c1,5.4,1.9,10.8,2.8,16.2c2.3,13.5,4.4,27.1,6.7,40.6c2.2,12.9,4.2,25.8,7.1,38.5c3.1,13.4-6.6,38.5-19.1,41.9
				C2409.9-32.7,2398.6-34.3,2394-39z"/>
		</g>
		<g>
			<path fill="none" stroke="#7A98A0" stroke-miterlimit="10" d="M2515.3-48.3c-0.9,0.4-1.7,0.8-2.6,1.1c0.2,1.2,0.4,2.4,0.5,3.6
				c0.2,1.7,3.4,2.9,5.2,4.4c1.1-1.8,2.9-3.6,3.1-5.5c0.3-5.3-0.2-10.6-0.3-15.9c-0.1-9.5-1.4-19.2,0.1-28.5
				c5-32.6,10.8-65.1,16.7-97.6c3.2-17.6,7-35.1,10.9-52.5c2.1-9.3,5.2-18.4,7.6-27.6c3.3-12.4,6.3-24.9,9.5-37.4
				c2.2-8.6,6.4-17.2,6.4-25.9c0.1-15.3-5.4-28.8,3-45.9c6.9-13.9,1.6-34.1-7.1-51.8c-10.1-20.6-13.5-44.3-19.8-66.8
				c-1-3.4-1.4-7-2-10.5c-3.5,1.6-7.2,3.1-10.6,5c-5.1,2.9-9.9,6.4-15.2,8.9c-1.3,0.6-4-1.5-6-2.3c0.8-1.4,1.6-2.7,2.5-4.1
				c1.7-2.7,3.4-5.3,5.2-8c-3.9,0.7-8.2,0.5-11.4,2.2c-6.3,3.3-11.9,7.9-18.1,11.5c-1.6,0.9-4.4,0-6.6-0.1c1.2-2.2,1.9-4.9,3.6-6.6
				c7.4-7.5,14.8-15.1,22.8-22c2.1-1.8,7.2-3,9.3-1.7c11.7,7,3.3-13.2-1.1-19.2c-4.8-6.6-10.9-12.2-16.5-18.3
				c-3.6,5.7-7.1,11.4-10.8,17c-2,3-5.1,5.3-6.4,8.5c-0.9,2.2-0.5,6,0.9,8c2.4,3.5,6,6.2,9.1,9.2c-5.1,0-10.2-0.4-15.2,0.2
				c-3.9,0.5-7.7,3-11.6,3.2c-3.5,0.1-7.2-1.8-10.7-2.8c2.3-2.6,4.4-5.4,7-7.7c3.3-2.9,10.5-6.8,10.1-7.9
				c-3.6-8.7-8.6-16.9-13.1-25.3c-2.6,3.7-5.1,7.5-7.9,11c-1.5,1.9-3.4,4.3-5.4,4.6c-25.1,3.4-12.4,15.5-5.1,24.6
				c5.8,7.2,13.9,12.5,20.8,18.8c1.6,1.4,2.5,3.6,3.7,5.5c-1.9,1.1-3.9,3.3-5.7,3.1c-4.7-0.5-10.1-0.8-13.8-3.3
				c-10.2-7-19.6-15-29.3-22.6c-2.2-1.7-4.4-3.3-6.5-5c-1.1,3.1-3.2,6.3-3.1,9.5c0.4,14.9-6.5,46.6-6.4,48.5
				c0.3,6.8,1.3,13.8,0.2,20.4c-0.7,4.3-6.4,8.1-6.5,12.2c-0.6,32.2-1.1,64.4-0.2,96.5c0.5,17.3,4.9,34.5,5.6,51.8
				c0.9,20.3-2,40.9,0.1,61.1c1.1,9.8-1.4,15.5-8,19.7c-2.1,1.3-4.2,2.5-6.4,3.6c-6.8,3.5-13.9,6.4-20.6,9.9
				c-2.4,1.3-5.8,4.4-5.5,6.2c3.4,23.7-4,45.1-13,66.3c-3.9,9.2-6.1,17.8,1.8,26.8c14.1,16.1,26.5,33.8,41.4,49
				c4.6,4.7,15.9,6.3,22.8,4.4c12.6-3.5,22.2-28.5,19.1-41.9c-2.9-12.7-4.9-25.6-7.1-38.5c-2.3-13.5-4.4-27.1-6.7-40.6
				c-0.9-5.4-1.8-10.8-2.8-16.2c-1.1-6.2-3.7-12.2-5.6-18.3c3.9,5.9,8.7,11.4,11.6,17.7c2.7,5.9,3.5,12.8,5.2,19.2
				c4.1,15.8,8.1,31.6,12.7,47.2c0.8,2.5,7.2,5.7,7.3,5.7c2.1,0.2-5.2,42-1.2,45.8c10.1,9.7,5.2,17.8,15.5,19
				c8.3,1,11.9-3.8,12.7-8.9"/>
			<path fill="none" stroke="#7A98A0" stroke-miterlimit="10" d="M2474.3-44.3c1.1-0.1,2.2-0.1,3.3-0.2c0.6-3.1,0.1-6.3-0.8-8.3
				c-10.7-22.3-0.1-51.5-23-69.6c-2.2-1.7-2.7-6.6-2.7-10.1c-0.2-37.4-0.1-74.7-0.1-112.1c-1.1,0-2.2,0-3.3,0
				c0.7-15.6,1.2-31.2,2.4-46.8c0.2-2.9,3.4-5.7,5.2-8.5c0.8,3.1,2.4,6.2,2.3,9.3c-0.5,36.1-9.8,71.9,6.4,108
				c9.6,21.5,10.9,46.7,16.3,70.1c0.7,3.2,3.3,5.9,5,8.8c1.8-2.9,4.6-5.6,5.2-8.7c1.8-9.5,2.6-19.1,4-28.7c0.2-1.5,1.7-2.9,2.6-4.3
				c0.3,1.6,0.9,3.1,0.9,4.7c0.1,7.2-0.1,14.4,0,21.6c0,1.6,0.6,3.3,0.9,4.9c0.9-1.5,2.4-2.8,2.6-4.4c1.4-7.7,2.3-15.5,3.8-23.2
				c0.5-2.7,2.5-5.1,3.8-7.6c0.6,2.5,1.8,4.9,1.8,7.4c0,23.8-0.4,47.7-0.2,71.5c0.1,7.7,1,15.5,2.2,23.2"/>
		</g>
	</g>
	<path fill="#788E92" stroke="#7A98A0" stroke-miterlimit="10" d="M2367.3-279.3c-0.4-1.2-0.3-2.7-0.4-4.1c-0.3,0.8-0.6,1.5-0.9,2.3
		c-0.7,1.7-1.3,3.2-2,4.6C2365.3-277.1,2365.6-279.3,2367.3-279.3z"/>
	<path fill="#788E92" d="M2403.3-180.3c-4.4-4.4-11-9.9-13.4-16.9c-6.8,3.5-13.9,6.4-20.6,10c-2.4,1.3-5.8,4.4-5.5,6.1
		c3.4,23.7-4,45.2-13,66.4c-3.9,9.2-6.1,17.8,1.8,26.8c14.1,16.1,26.5,33.8,41.4,49c4.6,4.7,15.9,6.3,22.8,4.4
		c12.6-3.5,22.2-28.5,19.1-41.9c-2.9-12.7-4.9-25.6-7.1-38.5c-2.3-13.5-4.4-27.1-6.7-40.6c-1-1-1.2-3-1.9-3.6
		C2413.3-165.3,2409.3-174.3,2403.3-180.3z"/>
	<path fill="#CAB9AA" d="M2451.1-101.1c-0.1-0.2-0.2-0.3-0.2-0.3S2451-101.3,2451.1-101.1c0,0-2.2-5.3-2.8-8.2
		c0.1,0.5,0.4,3.4,0.8,7.6C2450.2-101.3,2451-101,2451.1-101.1z"/>
	<path fill="#CAB9AA" d="M2546.6-504.9c-3.5,1.7-7.2,3.1-10.5,5c-5.1,2.9-9.9,6.4-15.2,8.9c-1.3,0.6-4-1.5-6-2.3
		c0.8-1.4,1.6-2.7,2.5-4.1c1.7-2.7,3.4-5.3,5.2-8"/>
	<path fill="#CAB9AA" d="M2522.5-505.5c-3.8,0.7-8.1,0.5-11.4,2.2c-6.3,3.3-11.9,7.9-18.1,11.5c-1.6,0.9-4.4,0-6.6-0.1
		c1.2-2.2,1.9-4.9,3.6-6.6c7.4-7.5,12.1-8.8,20.1-15.7c2.1-1.8,10-9.3,12.1-8c11.7,7,3.3-13.2-1.1-19.2
		c-4.7-6.6-10.9-12.2-16.5-18.3c-3.6,5.7-7.1,11.4-10.8,16.9c-2,2.9-5.2,5.3-6.4,8.4c-0.9,2.3-0.5,6,0.9,8.1c2.4,3.5,6,6.2,9.1,9.3
		c-5.1,0-10.2-0.4-15.2,0.2c-3.9,0.5-7.7,3-11.6,3.2c-3.5,0.1-7.2-1.8-10.7-2.8c2.3-2.6,4.4-5.4,7-7.7c3.4-2.9,10.5-6.8,10.1-7.9
		c-3.6-8.7-8.6-16.9-13.1-25.3c-2.6,3.7-5.1,7.5-7.9,11c-1.5,1.9-3.4,4.3-5.4,4.6c-25,3.4-12.4,15.5-5.1,24.6
		c5.8,7.2,13.9,12.5,20.8,18.8c1.6,1.4,2.5,3.6,3.7,5.5c-1.9,1.1-3.9,3.3-5.7,3.1c-4.7-0.5-10.1-0.8-13.8-3.3
		c-10.2-6.9-19.6-15-29.3-22.6c-2.2-1.7-4.4-3.3-6.5-5c-1.1,3.2-3.2,6.3-3.1,9.5c0.3,14.9-6.5,46.6-6.4,48.5
		c0.3,6.8-6.2,28.5-6.3,32.6c-0.6,32.2-1.1,64.4-0.2,96.5c0.5,17.3,4.9,34.5,5.6,51.8c0.9,20.3-2,40.9,0.2,61.1
		c1,9.8,5.2,11.3-1.4,15.5c4,5.9,19.5,26.2,22.4,32.6c2.7,5.9,3.5,12.8,5.2,19.2c4.1,15.7,8.1,31.6,12.7,47.1
		c0.5,1.7,3.7,3.5,5.9,4.4c-0.5-4.2-0.7-7-0.8-7.6v1v-1c0.6,3,2.8,8.2,2.8,8.2c-0.1,0.1-0.9-0.2-2-0.7c2,18.7,7.4,65.1,15.7,66.2
		l53.6-3.7c1.1-1.8,3-3.6,3.1-5.4c0.3-5.3-0.2-10.6-0.3-15.9c-0.1-9.5-1.4-19.2,0.1-28.5c5-32.6,10.8-65.1,16.7-97.6
		c3.2-17.6,7-35.1,10.9-52.5c2.1-9.3,5.2-18.4,7.6-27.6c3.3-12.4,6.3-24.9,9.5-37.4c2.2-8.6,3.9-12.7,4-21.4
		c0.1-15.3-0.5-29.7,1.3-48.7c2.3-24.4,0.9-31.2-2.9-53.6c-3.9-22.6-13.5-44.3-19.8-66.7c-1-3.4-1.4-7-2-10.5"/>
	<path fill="#788E92" d="M2389.9-197.3c2.4,7,9,12.5,13.4,16.9c6,6,10,15,17,21c0.7,0.7,0.9,2.7,1.9,3.6c-0.9-5.4-1.9-10.8-2.9-16.2
		"/>
	<path fill="#D49B8D" stroke="#7A98A0" stroke-miterlimit="10" d="M2481.2-550.6c-6-8.1-13.6-14-12.7-18.1
		c1.2-5.7,8.8-9.9,13.7-14.8c4.5,6.4,9.7,12.4,12.8,19.4C2495.7-562.5,2488.5-557.5,2481.2-550.6z"/>
	<path fill="#EEE5D5" stroke="#7A98A0" stroke-miterlimit="10" d="M2530.8-618.5c2.1-6.7,2.3-12.3,5.2-15.5
		c4.6-5,10.9-8.4,16.5-12.5c-0.6,5.6-0.9,11.3-1.8,16.8c-0.6,4.2-1.4,8.4-3,12.3c-1.6,4-4.3,7.5-6.6,11.2
		C2537.7-610.4,2534.1-614.6,2530.8-618.5z"/>
	<path fill="#EEE5D5" stroke="#7A98A0" stroke-miterlimit="10" d="M2421.8-628.4c-3.1,5.6-5.1,9.2-7.2,12.8c-3-2.2-6.3-4.1-9-6.6
		c-1.7-1.6-2.8-3.9-3.7-6.1c-2.1-5.8-3.9-11.8-5.9-17.7c1.6,0,3.7-0.8,4.7,0C2408-640.2,2414.9-634.3,2421.8-628.4z"/>
	<g id="XMLID_5_">
		<g>
			<path fill="#717985" d="M7544.8-3216.1c0.8,2.2,2,4.6,3.6,6.1c2.7,2.5,5.9,4.4,9,6.6c2-3.6,4-7.2,7.2-12.8
				c-7-5.9-13.8-11.9-20.9-17.5c-1-0.8-3.1,0-4.7,0C7540.9-3227.9,7542.7-3221.9,7544.8-3216.1z M7518.4-2867.2
				c-0.4-1.2-0.3-2.7-0.4-4.1c10-26.8,9.2-53.7,5-81.3c-1.3-8.2,0.2-16.8,0.5-25.2c1-25.5,0.6-51.2,3.7-76.4
				c1.6-12.5,9.9-24,14.8-36.1c2.5-6,5.3-12.2,6.1-18.6c2.3-18.4,3.2-36.9,5.7-55.3c1.9-13.5,1.2-25.5-5.7-38.2
				c-6.4-11.7-8.9-25.7-11.7-39c-0.6-2.7,4.9-7.9,8.7-9.9c2.5-1.3,7.1,0.5,10.4,1.8c20.2,8.1,39.8,19.3,60.8,23.6
				c13.2,2.7,28.9-3.7,42.9-8c20.6-6.3,40.5-14.7,61-21.3c3.1-1,6.7,0,10.4,0.8c-0.6,2.1-1.4,4.1-1.5,6.2c-0.8,0.8-1.3,1.7-1.6,2.6
				c-4.3,15-9.3,30-11.2,45.4c-2.8,23.3-4.9,46.9-3.9,70.3c0.5,11.5,8.6,61.7,11.8,70.8c15.4,43.6,13.5,89,14.5,134.1
				c0.2,10-2.1,20.1-2.7,30.2c-0.1,2.4,36.1,54.2,38.6,60.5c7.9,19.7,18.3,39,22.5,59.6c2.7,13.1,9.3,46.1,4.9,78.1
				c-4.7,34.1-19.9,79.8-20.7,81.3c-3,5-8,8-11,8c-36,7-70,11-105,15c-50.4,4.8-33.5,8.8-128.7-6.5c-4.8-6.6-32.1-24.1-37-30.6
				c-7.2-9.6-14.3-19.3-21.5-28.9c-1.4-1.9-2.4-4.2-5.8-10.2c-0.1,0.6-0.3,1.2-0.4,1.8c-15.5-18.1-15.3-43.9-10.8-67
				c9.1-51.6,5.7-39.4,16.1-61.3c1.2-2.6,24.8-44.1,26.1-46.6c-0.3-0.1-0.5-0.1-0.8-0.2c1.6-1.8,3-3.6,4.3-5.6
				c3.1-4.6,5.4-9.5,6.8-14.6c0.5-0.8,0.9-1.6,1.3-2.5C7516.4-2865,7516.6-2867.2,7518.4-2867.2z M7693.8-3217.6
				c0.8-5.6,1.2-11.2,1.8-16.9c-5.6,4.1-12,7.5-16.5,12.5c-2.9,3.2-3.1,8.9-5.2,15.5c3.3,3.9,6.9,8.1,10.4,12.3
				c2.2-3.7,5-7.2,6.6-11.2C7692.4-3209.1,7693.1-3213.4,7693.8-3217.6z M7617.1-3138.5c7.3-7,14.5-11.9,13.8-13.4
				c-3.1-7-8.3-13-12.8-19.4c-4.9,4.9-12.5,9.1-13.7,14.8C7603.6-3152.4,7611.1-3146.5,7617.1-3138.5z"/>
			<path fill="#717985" d="M7631-3151.9c0.7,1.5-6.5,6.5-13.8,13.4c-6-8.1-13.5-14-12.7-18.1c1.2-5.7,8.8-9.9,13.7-14.8
				C7622.6-3165,7627.9-3158.9,7631-3151.9z"/>
		</g>
		<g>
			<path fill="none" stroke="#7A98A0" stroke-miterlimit="10" d="M7499.7-2629.3c4.8,6.5,32.2,24.1,37,30.6
				c95.2,15.3,78.3,11.2,128.7,6.5c35-4,69-8,105-15c3,0,8-3,11-8c0.8-1.6,16-47.2,20.7-81.3c4.4-32.1-2.2-65-4.9-78.1
				c-4.2-20.5-14.6-39.8-22.5-59.6c-2.5-6.2-38.8-58-38.6-60.5c0.6-10.1,2.9-20.2,2.7-30.2c-1-45.1,0.9-90.5-14.5-134.1
				c-3.2-9.1-11.3-59.3-11.8-70.8c-1.1-23.3,1.1-47,3.9-70.3c1.9-15.4,6.9-30.4,11.2-45.4c0.3-0.9,0.9-1.8,1.6-2.6
				c0.1-2.1,0.9-4.1,1.5-6.2c-3.7-0.9-7.3-1.8-10.4-0.8c-20.5,6.6-40.4,15-61,21.3c-14,4.3-29.6,10.7-42.9,8
				c-21-4.3-40.5-15.5-60.8-23.6c-3.3-1.3-7.9-3.1-10.4-1.8c-3.8,2-9.2,7.2-8.7,9.9c2.8,13.3,5.3,27.3,11.7,39
				c6.9,12.7,7.5,24.7,5.7,38.2c-2.5,18.3-3.4,36.9-5.7,55.3c-0.8,6.3-3.6,12.5-6.1,18.6c-4.9,12.1-13.3,23.7-14.8,36.1
				c-3.1,25.2-2.7,50.9-3.7,76.4c-0.3,8.4-1.8,17.1-0.5,25.2c4.2,27.6,5.1,54.5-5,81.3c0.1,1.4,0,2.9,0.4,4.1c-1.7,0-2,2.2-3.3,2.8
				c-0.4,0.9-0.9,1.8-1.3,2.5c-1.4,5-3.7,10-6.8,14.6c-1.3,2-2.7,3.8-4.3,5.6c0.3,0.1,0.5,0.2,0.8,0.2c-1.3,2.5-24.8,44-26.1,46.6
				c-10.4,21.9-7,9.7-16.1,61.3c-4.6,23.1-4.8,48.9,10.8,67c0.1-0.6,0.3-1.1,0.4-1.8c3.4,6,4.3,8.3,5.8,10.2
				C7485.3-2648.5,7492.5-2638.9,7499.7-2629.3z"/>
			<path fill="none" stroke="#7A98A0" stroke-miterlimit="10" d="M7679-3221.9c4.6-5,10.9-8.4,16.5-12.5c-0.6,5.6-0.9,11.3-1.8,16.9
				c-0.6,4.2-1.4,8.4-3,12.3c-1.6,4-4.3,7.5-6.6,11.2c-3.6-4.2-7.1-8.5-10.4-12.3C7675.9-3213.1,7676.1-3218.7,7679-3221.9z"/>
			<path fill="none" stroke="#7A98A0" stroke-miterlimit="10" d="M7604.5-3156.6c1.2-5.7,8.8-9.9,13.7-14.8
				c4.5,6.4,9.7,12.4,12.8,19.4c0.7,1.5-6.5,6.5-13.8,13.4C7611.1-3146.5,7603.6-3152.4,7604.5-3156.6z"/>
			<path fill="none" stroke="#7A98A0" stroke-miterlimit="10" d="M7539-3233.8c1.6,0,3.7-0.8,4.7,0c7.1,5.7,14,11.6,20.9,17.5
				c-3.1,5.6-5.1,9.2-7.2,12.8c-3-2.1-6.3-4.1-9-6.6c-1.7-1.6-2.8-3.9-3.6-6.1C7542.7-3221.9,7540.9-3227.9,7539-3233.8z"/>
		</g>
	</g>
	<path fill="#788E92" stroke="#7A98A0" stroke-miterlimit="10" d="M7510.2-2867.2c-0.4-1.2-0.3-2.7-0.4-4.1
		c-0.3,0.8-0.6,1.5-0.9,2.3c-0.7,1.7-1.3,3.2-2,4.6C7508.3-2865,7508.5-2867.2,7510.2-2867.2z"/>
	<path fill="#CAB9AA" d="M7594-2689c-0.1-0.2-0.2-0.3-0.2-0.3S7593.9-2689.2,7594-2689c0,0-2.2-5.3-2.8-8.2c0.1,0.5,0.4,3.4,0.8,7.6
		C7593.2-2689.1,7594-2688.9,7594-2689z"/>
	<path fill="#CAB9AA" d="M7689.6-3092.8c-3.5,1.7-7.2,3.1-10.5,5c-5.1,2.9-9.9,6.4-15.2,8.9c-1.3,0.6-4-1.5-6-2.3
		c0.8-1.4,1.6-2.7,2.5-4.1c1.7-2.7,3.4-5.3,5.2-8"/>
	<path fill="#CAB9AA" d="M7713-2913.4c0.1-15.3-0.5-29.7,1.3-48.7c2.3-24.4,0.9-31.2-2.9-53.6c-3.9-22.6-13.5-44.3-19.8-66.7
		c-1-3.4-1.4-7-2-10.5l-24.1-0.5c-3.8,0.7-8.1,0.5-11.4,2.2c-6.3,3.3-11.9,7.9-18.1,11.5c-1.6,0.9-4.4,0-6.6-0.1
		c1.2-2.2,1.9-4.9,3.6-6.6c7.4-7.5,12.1-8.8,20.1-15.7c2.1-1.8,10-9.3,12.1-8c11.7,7,3.3-13.2-1.1-19.2
		c-4.7-6.6-10.9-12.2-16.5-18.3c-3.6,5.7-7.1,11.4-10.8,16.9c-2,2.9-5.2,5.3-6.4,8.4c-0.9,2.3-0.5,6,0.9,8.1c2.4,3.5,6,6.2,9.1,9.3
		c-5.1,0-10.2-0.4-15.2,0.2c-3.9,0.5-7.7,3-11.6,3.2c-3.5,0.1-7.2-1.8-10.7-2.8c2.3-2.6,4.4-5.4,7-7.7c3.4-2.9,10.5-6.8,10.1-7.9
		c-3.6-8.7-8.6-16.9-13.1-25.3c-2.6,3.7-5.1,7.5-7.9,11c-1.5,1.9-3.4,4.3-5.4,4.6c-25,3.4-12.4,15.5-5.1,24.6
		c5.8,7.2,13.9,12.5,20.8,18.8c1.6,1.4,2.5,3.6,3.7,5.5c-1.9,1.1-3.9,3.3-5.7,3.1c-4.7-0.5-10.1-0.8-13.8-3.3
		c-10.2-6.9-19.6-15-29.3-22.6c-2.2-1.7-4.4-3.3-6.5-5c-1.1,3.2-3.2,6.3-3.1,9.5c0.3,14.9-6.5,46.6-6.4,48.5
		c0.3,6.8-6.2,28.5-6.3,32.6c-0.6,32.2-1.1,64.4-0.2,96.5c0.5,17.3,4.9,34.5,5.6,51.8c0.9,20.3-2,40.9,0.2,61.1
		c1,9.8,5.2,11.3-1.4,15.5c4,5.9,19.5,26.2,22.5,32.6c2.7,5.9,3.5,12.8,5.2,19.2c4.1,15.7,8.1,31.6,12.7,47.1
		c0.5,1.7,3.8,3.5,5.9,4.4c-0.5-4.2-0.7-7-0.8-7.6v1v-1c0.6,3,2.8,8.2,2.8,8.2c-0.1,0.1-0.9-0.2-2-0.7c2,18.7,7.4,65.1,15.7,66.2
		l53.6-3.7c1.1-1.8,3-3.6,3.1-5.4c0.3-5.3-0.2-10.6-0.3-15.9c-0.1-9.5-1.4-19.2,0.1-28.5c5-32.6,10.8-65.1,16.7-97.6
		c3.2-17.6,7-35.1,10.9-52.5c2.1-9.3,5.2-18.4,7.6-27.6c1.9-7.1,3.7-14.1,5.4-21.2c-0.6,0.4-1.3,0.9-1.9,1.3
		c0.6-0.5,1.2-0.9,1.9-1.3c1.4-5.4,2.7-10.8,4.1-16.2C7711.2-2900.6,7712.9-2904.7,7713-2913.4z"/>
	<path fill="#788E92" d="M7532.8-2785.1c2.4,7,9,12.5,13.4,16.9c6,6,10,15,17,21c0.7,0.7,0.9,2.7,1.9,3.6
		c-0.9-5.4-1.9-10.8-2.9-16.2"/>
	<path fill="#D49B8D" stroke="#7A98A0" stroke-miterlimit="10" d="M7624.2-3138.5c-6-8.1-13.6-14-12.7-18.1
		c1.2-5.7,8.8-9.9,13.7-14.8c4.5,6.4,9.7,12.4,12.8,19.4C7638.7-3150.4,7631.5-3145.4,7624.2-3138.5z"/>
	<path fill="#EEE5D5" stroke="#7A98A0" stroke-miterlimit="10" d="M7673.8-3206.4c2.1-6.7,2.3-12.3,5.2-15.5
		c4.6-5,10.9-8.4,16.5-12.5c-0.6,5.6-0.9,11.3-1.8,16.8c-0.6,4.2-1.4,8.4-3,12.3c-1.6,4-4.3,7.5-6.6,11.2
		C7680.7-3198.3,7677.1-3202.5,7673.8-3206.4z"/>
	<path fill="#EEE5D5" stroke="#7A98A0" stroke-miterlimit="10" d="M7564.8-3216.3c-3.1,5.6-5.1,9.2-7.2,12.8c-3-2.2-6.3-4.1-9-6.6
		c-1.7-1.6-2.8-3.9-3.7-6.1c-2.1-5.8-3.9-11.8-5.9-17.7c1.6,0,3.7-0.8,4.7,0C7551-3228.1,7557.8-3222.2,7564.8-3216.3z"/>
	<g id="tbLA5J.tif">
		
			<image overflow="visible" width="149" height="226" id="Layer_0_7_" xlink:href="57AE35C98E9362E7.png"  transform="matrix(1 0 0 1 1519 -740.4797)">
		</image>
	</g>
	<path fill="#788E92" d="M8206.4-2634.6c26.2-34.1,19.6-72.8,21.9-95.5c1.8-18.7-4-70.7-5.9-79c-0.1-0.6-7.4-23.9-7.7-24.5
		c-3.6-7.7-31.8-60.5-46-70.4c-4.7-3.3-10.5-4-14,0.5l-3.3,4.2c-2.4,3-2.7,7.1-0.7,10.4c6.9,11.8,23.3,39.9,30.5,52.2
		c9.2,15.8,14,71.1,16.3,104.7c1.5,21.9-12.5,72-13.2,72.6c-1.7,1.6-9.5,47,4.8,35.8C8192.1-2620.7,8205.2-2633.1,8206.4-2634.6z"/>
</g>
<g id="Layer_9">
</g>
<g id="Layer_7">
</g>
<g id="Layer_2">
	<g>
		<rect x="-125.6" y="-1892.9" fill="#F9DCC4" width="837.7" height="1385.7"/>
		<path fill="#4B3246" d="M1127.6-991.8c-3.2-0.1-6.3-3.9-9.4-5.9"/>
		<path fill="#4B3246" d="M883.8-1275.6c-3.3,0.8-6.8,2.6-10,2.1c-6.8-1-13.4-3.1-20-4.7c7.7,0.2,15.4,0.4,23.1,0.6
			c2.1,0.1,4.1,0.1,6.2,0.1C883.4-1276.8,883.6-1276.2,883.8-1275.6z"/>
		<path fill="#4B3246" d="M712.1-2212.4"/>
		<path fill="#4B3246" d="M691.6-2231.2"/>
		<path fill="#4B3246" d="M465.2-2334.4c0.7-0.4,1.4-0.8,1.9-1.1"/>
		<path fill="#4B3246" d="M655.8-2253.1c6.1,3.4,11.5,6.4,16.9,9.5"/>
		<path fill="#4B3246" d="M1262.1-547.2"/>
		<path fill="#4B3246" d="M1245.3-2105"/>
		<path fill="#4B3246" d="M850.3-862.8c-4.4-1.9-10.6-4.7-16.8-7.4c2.6-2.1,5.5-6.3,7.9-6c7.4,0.8,14.6,3.2,21.9,5.1
			C860.2-869.1,857.1-867.1,850.3-862.8z"/>
		<path fill="#4B3246" d="M876.1-887.8c-6.9,1.9-13.7,4.4-20.7,5.5c-2.9,0.4-6.2-2.1-9.3-3.3c2-2.2,3.6-5.6,6.1-6.4
			c3.9-1.3,8.5-1.8,12.5-1.1C868.6-892.3,872.3-889.6,876.1-887.8C876.1-887.8,876.1-887.8,876.1-887.8z"/>
		<path fill="#4B3246" d="M772-940.5c-0.7-5.7-1.4-11.4-2-17.1c6.7,1.1,13.4,2.1,20,3.4c0.3,0.1,0.8,2.6,0.3,3.4
			c-0.8,1.3-2.3,2.5-3.7,3.3c-4.9,2.5-9.9,4.9-14.8,7.3C771.8-940.3,772-940.5,772-940.5z"/>
		<path fill="#4B3246" d="M791.1-2012.1c6.4,1.3,12.3,2.4,18.1,3.6c-5.3,2.2-10.4,6-15.8,6.2c-5,0.2-10.2-3.2-15.4-5.1
			C782.4-2008.9,786.7-2010.4,791.1-2012.1z"/>
		<path fill="#4B3246" d="M775.9-1097.7c5.7,3.1,10.3,5.6,14.9,8.2c-1.5,1.5-3.2,4.3-4.4,4.1c-7.4-1.1-14.8-3-22.2-4.5
			C767.7-1092.2,771.1-1094.5,775.9-1097.7z"/>
		<path fill="#4B3246" d="M876.8-1110.9c-3.6,1.7-7.1,3.9-10.9,4.8c-3.2,0.7-6.8-0.2-10.2-0.4c0.8-3.3,1.7-6.7,2.5-10
			c6.1,1.9,12.2,3.9,18.3,5.8C876.6-1110.6,876.8-1110.9,876.8-1110.9z"/>
		<path fill="#4B3246" d="M802.8-818.6c-6.6-3.1-12.1-5.6-17.5-8.1c1.7-0.8,3.7-2.6,5.2-2.3c7,1.3,13.9,3.3,20.9,5
			C808.7-822.4,806.1-820.7,802.8-818.6z"/>
		<path fill="#4B3246" d="M770.9-1066.4c-4,0.5-7.9,1-11.9,1.5c-3.6,0.4-7.3,0.7-10.9,1.1c0.4-1.8,0.3-4.8,1.2-5.2
			c4-1.5,8.3-2.7,12.6-3.1c3.1-0.3,6.5,0.4,9.5,1.3c3.6,1.1,7,2.9,10.4,4.5c-3.6,0.3-7.2,0.6-10.8,0.9
			C771-1065.8,771-1066.1,770.9-1066.4z"/>
		<path fill="#4B3246" d="M859.1-1097.6c1.8,4.6,4,7.7,3.7,10.6c-0.1,1.6-4.4,4.3-6.6,4.1c-4.9-0.4-9.8-2.2-14.7-3.5
			C846.9-1089.7,852.3-1093.2,859.1-1097.6z"/>
		<path fill="#4B3246" d="M866.5-1365.2c-3.3,2.1-7.2,6.4-9.7,5.7c-3.6-1-6.3-5.6-9.3-8.7c3.5,0.5,7,1,10.5,1.5
			c2.8,0.5,5.6,1.1,8.5,1.6C866.5-1365,866.5-1365.2,866.5-1365.2z"/>
		<path fill="#4B3246" d="M820.8-2002.3c-2.9-2.6-5.5-4.6-7.5-7c-0.2-0.3,2.5-4.2,3.2-4c6.1,1.5,12.1,3.6,18.1,5.6
			C830.7-2006.2,826.7-2004.6,820.8-2002.3z"/>
		<path fill="#4B3246" d="M787.5-1622.4c-7.5-0.9-13.1-1.6-18.7-2.3c4.4-2.3,8.7-5.5,13.4-6.5c2.7-0.6,6.2,2.2,9.3,3.5
			C790.1-1625.6,788.5-1623.6,787.5-1622.4z"/>
		<path fill="#4B3246" d="M868.6-940.8c1.7,2.5,3.6,5.1,3.5,5.2c-3.9,3.1-7.7,6.5-12.2,8.7c-1.4,0.7-4.5-1.9-6.8-3
			C858-933.3,862.8-936.7,868.6-940.8z"/>
		<path fill="#4B3246" d="M769.6-990.1c2.5,2.3,5.9,4.3,5.6,5.3c-1.2,3.8-3.5,7.2-5.4,10.7c-3.2-2.8-6.3-5.6-9.5-8.4
			C763.2-984.8,766-987.1,769.6-990.1z"/>
		<path fill="#4B3246" d="M824.5-853.8c5.6,1.9,9.5,3.2,13.4,4.4c-2,1.2-3.9,3.3-5.9,3.4c-6.5,0.1-12.9-0.5-19.4-0.8
			C816.7-849.2,820.8-851.6,824.5-853.8z"/>
		<path fill="#4B3246" d="M819.4-665.9c-1.6-1-4.9-2.9-8.2-4.9c3.4-1.7,7-5.2,10.1-4.8c4.6,0.5,8.8,3.8,13.2,6
			C830-668.5,825.4-667.4,819.4-665.9z"/>
		<path fill="#4B3246" d="M847.8-907.5c-2.9-1.6-5.3-2.7-5.2-2.8c1.4-3.6,3.1-7.1,4.8-10.6c2.8,2.1,5.5,4.3,8.3,6.4
			C853-912.1,850.4-909.8,847.8-907.5z"/>
		<path fill="#4B3246" d="M880.8-1194c-9,2-13.8,4.2-18.4,3.7c-3.1-0.3-5.8-4.4-8.7-6.7c0.9-0.8,1.9-2.3,2.6-2.2
			C863-1198,869.7-1196.4,880.8-1194z"/>
		<path fill="#4B3246" d="M814.2-933.6c4.8,0.5,10.3,1,15.9,1.5c-3.4,1.5-6.9,4-10.3,4.1c-4.2,0.1-8.5-2-12.7-3.1
			C809-931.8,811-932.5,814.2-933.6z"/>
		<path fill="#4B3246" d="M771.8-940.3c1.7,2.7,3.4,5.5,5.1,8.2c-2.7,0.5-5.9,2-8,1.1c-3.3-1.5-6-4.6-8.9-7.1
			c2.7,0.5,5.5,1.6,8.2,1.3c1.4-0.1,2.6-2.5,3.9-3.8C772-940.5,771.8-940.3,771.8-940.3z"/>
		<path fill="#4B3246" d="M833.6-1669.2c-3.9,4.3-7.1,7.9-10.4,11.5c-1.4-1.9-4.3-4.9-4-5.4c2.2-2.9,4.9-5.7,8-7.3
			C828.9-1671.3,831.8-1669.6,833.6-1669.2z"/>
		<path fill="#4B3246" d="M867.6-958.8c-3.3,2.8-4.9,4.7-6.8,5.7c-0.7,0.4-3.5-1.2-3.5-1.6c0.6-4.6,1.5-9.2,2.3-13.7
			C861.9-965.7,864.2-962.9,867.6-958.8z"/>
		<path fill="#4B3246" d="M851.4-1950.1c-3.4,2.1-6.5,4.6-6.9,4.2c-2.1-2-5.4-5.3-4.8-7.1c0.8-2.6,4.5-4.4,6.9-6.5
			C847.8-1957.1,849-1954.7,851.4-1950.1z"/>
		<path fill="#4B3246" d="M852.6-1208.6c-3.1-2.6-5.1-4.3-7.2-6c3.1-2.3,6.1-4.5,9.2-6.8c1.5,2.4,4,4.7,4.3,7.2
			C859-1212.8,855.4-1211,852.6-1208.6z"/>
		<path fill="#4B3246" d="M807-660.9c-2.8-2.4-6.1-5.2-9.5-8.1c1.1-1.1,3-3.3,3.3-3.1c4.5,2.9,8.8,6.1,13.1,9.2
			C812.3-662.4,810.7-661.9,807-660.9z"/>
		<path fill="#4B3246" d="M816.5-1631c2.6,1.6,4.3,2.6,5.9,3.6c-2.7,1.7-5.3,3.9-8.2,4.8c-1.2,0.4-3.2-2.1-4.9-3.2
			C811.4-1627.4,813.6-1628.9,816.5-1631z"/>
		<path fill="#4B3246" d="M756.2-1089.7c-2.6,1.7-4.2,3.6-5.3,3.3c-3.1-0.7-6-2.4-9-3.6c2.5-1.9,4.8-4.4,7.6-5.3
			C750.7-1095.8,753-1092.5,756.2-1089.7z"/>
		<path fill="#4B3246" d="M868-1004.7c-5.9,7.1-7.3,8.8-8.7,10.5c-1.8-4.2-3.8-8.4-5.3-12.7c-0.2-0.5,1.9-2.5,2.4-2.4
			C860-1008.1,863.6-1006.5,868-1004.7z"/>
		<path fill="#4B3246" d="M823.1-1156.4c4,1.3,7.4,2.3,10.8,3.4c-2.2,1.1-4.4,3.1-6.5,3c-3.3-0.2-6.6-1.9-9.8-3
			C819.3-1154,821.1-1155.1,823.1-1156.4z"/>
		<path fill="#CAB9AA" d="M-298.3-2284c0,0-0.1,0-0.1,0c0,0.1,0,0.1-0.1,0.2L-298.3-2284z"/>
		<path fill="#4B3246" d="M-96.5-2384c0.1-0.1,0.1-0.1,0.2-0.2c0,0-0.1,0-0.1,0C-96.4-2384.1-96.4-2384.1-96.5-2384z"/>
		<path fill="#4B3246" d="M-310.8-2246.9"/>
		<path fill="#4B3246" d="M-290.2-2257.9c-2.7-8.7-5.4-17.4-8-26.1"/>
		<path fill="#4B3246" d="M-252.6-2298.7"/>
		<path fill="#4B3246" d="M-242.5-2278.4"/>
		<path fill="#4B3246" d="M-255-697.9c2.2,0,5.1-0.8,7.4,0.1c3.6,1.4,6.7,4,10,6c-3.5,1.8-6.9,3.8-10.6,5.1
			C-248.5-686.4-250.2-690.1-255-697.9z"/>
		<path fill="#4B3246" d="M389.5-2110.2c5.8,3.1,11.1,5.8,16.4,8.6c-1.1,0.8-2.6,2.6-3.3,2.3c-5.6-2.1-11.1-4.6-16.6-6.9
			C387-2107.4,388.1-2108.6,389.5-2110.2z"/>
		<path fill="#4B3246" d="M161.8-2118.1c-3.5-1.6-6.9-3.1-10.2-4.6c3.6-0.7,7.2-2.1,10.8-2c2.9,0.1,5.8,1.8,8.7,2.8
			C168.2-2120.7,165.3-2119.5,161.8-2118.1z"/>
		<path fill="#4B3246" d="M910.2-699.6"/>
		<path fill="#4B3246" d="M941-690.3"/>
		<path fill="#4B3246" d="M912.2-719.3c-2.4,0.1-4.9-2.9-7.4-4.6"/>
		<path fill="#EEE5D5" d="M-9.9-1836.1h595.4c26.4,0,48,21.6,48,48v1281H-57.9v-1281C-57.9-1814.5-36.3-1836.1-9.9-1836.1z"/>
		<path fill="#C56C76" d="M629.9-1788.3H-61.5l0,0c0-26.3,21.5-47.8,47.8-47.8h595.8C608.4-1836.1,629.9-1814.6,629.9-1788.3
			L629.9-1788.3z"/>
		<path fill="none" d="M-311.3-1647.2c1.7-12.9,5.1-25.5,10-37.5c5.9-0.3,8.8-5.7,9.3-11.6"/>
		<line fill="none" stroke="#788E92" stroke-width="20" stroke-miterlimit="10" x1="-125.6" y1="-1901.5" x2="699.5" y2="-1901.5"/>
		<pattern  id="SVGID_3_" xlink:href="#New_Pattern" patternTransform="matrix(0.9371 0 0 0.9371 -367.2932 -141.235)">
		</pattern>
		<path fill="url(#SVGID_3_)" d="M889.5-2013.3c2.6-5.9,2.7-11.7-1.2-15.9c-84.9-89.5-357.8-331.4-616.2-331.4
			c-249.6,0-492.2,231.7-582.2,328.1h-11.5v13c-3.8,6.2-3.3,13.5,0,19.2v1568h196v-1558.8h837.5v1359.1h187.7v-1381.2H889.5z"/>
		<rect x="-324.2" y="-2318.7" fill="#D49B8D" width="1212.7" height="420.8"/>
		<polygon fill="#C56C76" stroke="#C56C76" stroke-miterlimit="10" points="-125.6,-1892.9 -183.4,-1991.3 760.4,-1991.3 
			712.1,-1892.9 		"/>
		<g id="XMLID_3_">
			<g>
				<path fill="#C56C76" d="M863.1-2099.2c0,0-280.2-283.6-584.1-283.6s-573.2,294.1-573.2,294.1l-296.3-14.1l0.1-60.8l280,3.4
					c0,0,221.8-273.1,591.1-275.6c352.9-2.3,615.6,282.4,615.6,282.4h267.9v47.6L863.1-2099.2z"/>
			</g>
			<g>
			</g>
		</g>
		<path fill="#F9DCC4" d="M-183.4-1990h943.8c0,0-238.4-222.4-476.4-222.4S-183.4-1990-183.4-1990z"/>
		<polygon fill="#FDF0D9" points="293.3,-2012.1 273.1,-2007.2 244.8,-2179.3 323.6,-2179.3 		"/>
		<polygon fill="#FDF0D9" points="342.9,-2013.5 322.4,-2016.4 349.4,-2170.1 423.2,-2142.7 		"/>
		<polygon fill="#FDF0D9" points="229.1,-2016.1 210.5,-2007 145.9,-2150.5 222.3,-2169.4 		"/>
		<polyline fill="#F9DCC4" points="881,-416.9 1288.7,-401.4 1248.3,-574.3 1177,-613.9 1175.1,-868 1127.9,-933.8 1113.3,-1825.7 
			1146,-1859.1 1115.6,-1890.8 1108.5,-2034.1 867.3,-2034.1 		"/>
		<rect x="936.8" y="-1991.6" fill="#FDF0D9" width="127.1" height="86.8"/>
		<rect x="888.4" y="-1890.8" fill="#FDF0D9" width="223.9" height="62.3"/>
		<rect x="947.9" y="-1563" fill="#FDF0D9" width="105" height="354.8"/>
		<circle fill="#FDF0D9" cx="1000.4" cy="-1728.1" r="45"/>
		<polygon fill="#FDF0D9" points="1132.5,-933.8 1179.8,-868 883.8,-881.4 884.7,-946.2 		"/>
		
			<line fill="#D49B8D" stroke="#D49B8D" stroke-width="40" stroke-miterlimit="10" x1="287.8" y1="-1788.6" x2="287.8" y2="-507.1"/>
		<path fill="#C56C76" d="M-590.6-2103.8h277.2c0,0,285.3-286.5,592.3-286.5s599.5,283.6,599.5,283.6h285.7l-55.6,72.6H867.3
			c0,0-327.4-284.6-586.4-284.6s-584.5,286.1-584.5,286.1l-238.6-1.2L-590.6-2103.8z"/>
		<path fill="#F9DCC4" d="M545.3-2438.9c-3.2-2.6-6.6-4.7-10.3-6.4c-1.1-1.2-2.3-2.4-3.5-3.6c2.2-1.6,3.1-5,0.1-7.2
			c-0.6-0.4-1.1-0.8-1.7-1.1c-2-1.5-3.3-3.3-4.2-6c-1.9-5.5-9.9-2.2-8.8,3.1c-1.8,0.2-3.5,0.6-5.3,1.3c-3.8,1.4-3.6,7.2,0.1,8.6
			c0.2,0.1,0.4,0.2,0.6,0.2c-5.6,0.2-11.3,1.3-16.7,3.3c-2,0.8-3.1,3.2-2.7,5.3c-0.2,0-0.3,0-0.5-0.1c0-1.7-0.9-3.3-2.9-3.8
			c-6.8-1.9-13.6-3.8-20.4-5.5c1.3-2.3,0.7-5.8-2.1-6.9c-19.5-7.4-39.5-13.4-59.8-17.8c-0.6-0.5-1.3-0.8-2.1-0.9
			c-2.1-0.3-4.2-0.6-6.3-0.8c-14.1-2.8-28.4-4.8-42.8-6.1c-6-0.5-7.1,8.8-1.1,9.3c1.1,0.1,2.1,0.2,3.2,0.3c-3.5,1-7,2.1-10.4,3.4
			c-1.9,0.1-3.9,0.1-5.8,0.3c-6,0.4-4.6,9.7,1.4,9.3c0.3,0,0.5,0,0.8,0c0.2,0.1,0.5,0.2,0.8,0.3c0.8,0.2,1.5,0.4,2.3,0.7
			c-2.8,2.5-2.5,8.1,2.2,8.1h26.2c1.1,0,2-0.3,2.7-0.8c6,1.1,12.1,2,18.2,2.8c25.4,13.7,52.8,23.3,81.3,28.4
			c7.4,2.5,15.7,3.5,21.8-1.4c8.1-0.4,16.2-1.5,24.2-3.2c1.3-0.3,2.4-1.2,3.1-2.4c5.5-0.3,10.9-1.1,16.3-2.3
			C547.1-2431.4,548.5-2436.3,545.3-2438.9z M508.7-2440.4c2.2-0.3,4.3-0.4,6.5-0.3C513.1-2440.6,510.9-2440.5,508.7-2440.4z
			 M493.7-2431.9c-4,0-7.9-0.1-11.9-0.4c0.2-0.3,0.4-0.7,0.5-1.1C486-2432.9,489.9-2432.4,493.7-2431.9z M424.9-2447.5
			c3.7,1.7,7.5,3.3,11.3,4.8c-0.2,0.1-0.4,0.3-0.5,0.5c-4.6-1.7-9.1-3.4-13.5-5.3C423.1-2447.5,424-2447.5,424.9-2447.5z
			 M404.7-2466.4c11,2.4,22,5.2,32.8,8.6c-7.3-1.5-14.6-2.8-22-4c-3.1-0.5-4.9,1.8-5,4.3c-1.7-0.1-3.5-0.3-5.2-0.5
			c-2.7-1.3-5.5-2.5-8.4-3.6C399.5-2463.3,402.1-2464.9,404.7-2466.4z M376.4-2467.8c4.5-0.5,9-0.7,13.6-0.6
			c-0.3,0.2-0.6,0.4-0.9,0.6c-1.1,0.6-1.7,1.5-1.9,2.4c-0.5-0.1-0.9-0.1-1.4,0C382.7-2466.4,379.5-2467.1,376.4-2467.8z"/>
		<path fill="#F9DCC4" d="M-266.3-2283.2c-3.6-0.5-7.2-0.8-10.7-1.1c1.1-4.1-3.2-8.8-7.1-5.3l-5.1,4.5c-30.3-1.4-60.8,1.9-90.1,10
			c-4,1.1-5.3,7.4-1.7,9c-10.2-0.4-20.4-1.4-30.6-3.2c-5.9-1-7,8.3-1.1,9.3c26.2,4.6,53,4.6,79.2,0.2c0.1,2.3,1.5,4.6,4.1,4.7
			c11.5,0.1,22.1-3,31.7-9.2c-1.4,3.1-2.8,6.1-4.2,9.3c-1.6,3.8,2.5,7.7,6.2,6.1c9-3.9,14.3-13.7,12.5-23.3l17.2-1.5
			C-260.8-2274.4-261.2-2282.5-266.3-2283.2z"/>
		<path fill="#F9DCC4" d="M573.8-2483c-3.7-1.7-7.5-3.3-11.2-5c-0.1-1-0.6-2-1.6-2.9c-8.6-7.7-18.7-13.4-29.6-16.8
			c-2.9-0.9-5.2,0.9-6.1,3.1l-19.3-8.6c-5.5-2.5-9,6.2-3.5,8.7l67.8,30.1C575.8-2471.9,579.3-2480.5,573.8-2483z"/>
		<path fill="#F9DCC4" d="M544.3-2425.6c-4.7-0.5-6.4,5.1-4,7.9c-4.2,0.7-6,7.3-1.2,8.9c4.1,1.4,8.2,2.7,12.3,4.1
			c2.9,1,6-0.6,6.4-3.8C558.8-2416.9,552.6-2424.7,544.3-2425.6z"/>
		<path fill="#F9DCC4" d="M684-2345.8c1.5,0,2.9,0,4.4-0.1c1.2,1.6,2.3,3.4,3.1,5.2C689-2342.4,686.5-2344.1,684-2345.8z
			 M722.6-2362.2c-1.5,0.6-3.1,1.1-4.7,1.6c-1.5-1.8-2.8-3.8-3-5.6C717.8-2365.5,720.5-2364.2,722.6-2362.2z M733.7-2330.2
			L733.7-2330.2c-1-0.7-2-1-3-0.9c-6.9-2-13.8-4.1-20.6-6.1c-0.8-0.2-1.6-0.3-2.3-0.1l-1.8-2.1c-1.3-1.5-3-2-4.7-1.5
			c-0.6-2-1.5-3.9-2.4-5.7c5.4-0.7,10.7-1.7,15.9-3.1c3.7,3.8,7.8,7.2,10.5,9.9c3.5,3.5,7,6.9,10.5,10.4
			C735-2329.8,734.4-2330,733.7-2330.2z M732.1-2354.2c-2.4,0-4.2,1.3-4.8,3.1c-0.7-0.7-1.4-1.4-2.1-2.1c2.2-0.8,4.4-1.7,6.6-2.6
			c0.8-0.4,1.5-1,2-1.8c1.2,1.3,2.3,2.5,3.5,3.9C735.6-2354,733.8-2354.1,732.1-2354.2z M963.4-2239.5c-0.4-0.3-0.7-0.7-1.1-1
			c0.8,0,1.5,0.1,2.3,0.1C964.1-2240.2,963.7-2239.9,963.4-2239.5z M1097.5-2181.3c-0.2,0.1,0.4,0.9,0.5,2c-0.2,0-0.5,0-0.9,0
			C1096.8-2179.9,1096.7-2180.8,1097.5-2181.3z M1037-2198.1c-0.3,1.5-0.5,3.2-0.4,5.1c0.1,0.8,0.2,1.7,0.3,2.5
			c-6.1-2-12.2-4.3-18.2-7.1C1024.9-2197.4,1031-2197.6,1037-2198.1z M996.1-2255.3c-6.2-1.1-12.3-2.5-18.3-4
			c12,0.2,23.9,1.3,35.7,3.4C1007.7-2255.5,1001.9-2255.3,996.1-2255.3z"/>
		<path fill="#F9DCC4" d="M-590.5-2163.6l280,3.4c0,0,274.1-275.6,591.1-275.6s615.6,282.4,615.6,282.4h267.9l34-109.6H955.6
			c0,0-337.7-316.1-689.1-316.1s-635.7,288.9-635.7,288.9h-258.6L-590.5-2163.6z"/>
		<rect x="-340.7" y="-660.5" fill="#F9DCC4" width="1252.9" height="228.4"/>
		<polyline fill="#F9DCC4" points="-308,-424 -715.7,-408.5 -675.3,-581.4 -604,-621 -602.1,-875.1 -554.9,-940.9 -540.3,-1832.8 
			-573,-1866.2 -542.6,-1897.9 -541.6,-2035.2 -303.6,-2032.6 		"/>
		<rect x="-490.9" y="-1998.7" fill="#FDF0D9" width="127.1" height="86.8"/>
		<rect x="-539.3" y="-1897.9" fill="#FDF0D9" width="223.9" height="62.3"/>
		<rect x="-479.8" y="-1570.1" fill="#FDF0D9" width="105" height="354.8"/>
		<circle fill="#FDF0D9" cx="-427.4" cy="-1735.2" r="45"/>
		<polygon fill="#FDF0D9" points="-559.5,-940.9 -606.8,-875.1 -310.8,-888.5 -311.7,-953.2 		"/>
		<polygon fill="#FDF0D9" points="-678.1,-581.4 -308,-603.6 -308,-652.5 -606.7,-635.5 		"/>
		<polygon fill="#FDF0D9" points="1251.1,-574.3 881,-596.6 881,-645.4 1179.7,-628.4 		"/>
	</g>
</g>
<g id="Layer_3">
	<rect x="508.4" y="-3151.1" fill="#413644" stroke="#5B4C59" stroke-width="7" stroke-miterlimit="10" width="140" height="76"/>
</g>
</svg>
