<?xml version="1.0" encoding="utf-8"?>
<!-- Generator: Adobe Illustrator 18.1.1, SVG Export Plug-In . SVG Version: 6.00 Build 0)  -->
<svg version="1.1" xmlns="http://www.w3.org/2000/svg" xmlns:xlink="http://www.w3.org/1999/xlink" x="0px" y="0px"
	 viewBox="0 0 78.9 283.3" enable-background="new 0 0 78.9 283.3" xml:space="preserve">
<pattern  x="-8261.3" y="1631.2" width="139" height="150.8" patternUnits="userSpaceOnUse" id="New_Pattern" viewBox="69.5 -188.5 139 150.8" overflow="visible">
	<g>
		<polygon fill="none" points="69.5,-188.5 208.5,-188.5 208.5,-37.7 69.5,-37.7 		"/>
		<polygon fill="#C56C76" stroke="#D49B8D" stroke-width="7" stroke-miterlimit="10" points="274.5,-3.5 142.5,-3.5 142.5,-71.9 
			274.5,-71.9 		"/>
		<polygon fill="#C56C76" stroke="#D49B8D" stroke-width="7" stroke-miterlimit="10" points="135.5,-3.5 3.5,-3.5 3.5,-71.9 
			135.5,-71.9 		"/>
		<polygon fill="#C56C76" stroke="#D49B8D" stroke-width="7" stroke-miterlimit="10" points="205,-78.9 73,-78.9 73,-147.3 
			205,-147.3 		"/>
		<polygon fill="#C56C76" stroke="#D49B8D" stroke-width="7" stroke-miterlimit="10" points="274.5,-154.3 142.5,-154.3 
			142.5,-222.7 274.5,-222.7 		"/>
		<polygon fill="#C56C76" stroke="#D49B8D" stroke-width="7" stroke-miterlimit="10" points="135.5,-154.3 3.5,-154.3 3.5,-222.7 
			135.5,-222.7 		"/>
	</g>
</pattern>
<pattern  x="-8261.3" y="1631.2" width="147" height="166" patternUnits="userSpaceOnUse" id="New_Pattern_2" viewBox="73.5 -207.5 147 166" overflow="visible">
	<g>
		<polygon fill="none" points="73.5,-207.5 220.5,-207.5 220.5,-41.5 73.5,-41.5 		"/>
		<polygon fill="#8BAFB2" stroke="#7A98A0" stroke-width="7" stroke-miterlimit="10" points="290.5,-3.5 150.5,-3.5 150.5,-79.5 
			290.5,-79.5 		"/>
		<polygon fill="#8BAFB2" stroke="#7A98A0" stroke-width="7" stroke-miterlimit="10" points="143.5,-3.5 3.5,-3.5 3.5,-79.5 
			143.5,-79.5 		"/>
		<polygon fill="#8BAFB2" stroke="#7A98A0" stroke-width="7" stroke-miterlimit="10" points="217,-86.5 77,-86.5 77,-162.5 
			217,-162.5 		"/>
		<polygon fill="#8BAFB2" stroke="#7A98A0" stroke-width="7" stroke-miterlimit="10" points="290.5,-169.5 150.5,-169.5 
			150.5,-245.5 290.5,-245.5 		"/>
		<polygon fill="#8BAFB2" stroke="#7A98A0" stroke-width="7" stroke-miterlimit="10" points="143.5,-169.5 3.5,-169.5 3.5,-245.5 
			143.5,-245.5 		"/>
	</g>
</pattern>
<pattern  x="-8261.3" y="1631.2" width="147" height="166" patternUnits="userSpaceOnUse" id="New_Pattern_4" viewBox="73.5 -207.5 147 166" overflow="visible">
	<g>
		<polygon fill="none" points="73.5,-207.5 220.5,-207.5 220.5,-41.5 73.5,-41.5 		"/>
		<polygon fill="#C24A3D" stroke="#DE6757" stroke-width="7" stroke-miterlimit="10" points="290.5,-3.5 150.5,-3.5 150.5,-79.5 
			290.5,-79.5 		"/>
		<polygon fill="#C24A3D" stroke="#DE6757" stroke-width="7" stroke-miterlimit="10" points="143.5,-3.5 3.5,-3.5 3.5,-79.5 
			143.5,-79.5 		"/>
		<polygon fill="#C24A3D" stroke="#DE6757" stroke-width="7" stroke-miterlimit="10" points="217,-86.5 77,-86.5 77,-162.5 
			217,-162.5 		"/>
		<polygon fill="#C24A3D" stroke="#DE6757" stroke-width="7" stroke-miterlimit="10" points="290.5,-169.5 150.5,-169.5 
			150.5,-245.5 290.5,-245.5 		"/>
		<polygon fill="#C24A3D" stroke="#DE6757" stroke-width="7" stroke-miterlimit="10" points="143.5,-169.5 3.5,-169.5 3.5,-245.5 
			143.5,-245.5 		"/>
	</g>
</pattern>
<pattern  x="-8261.3" y="1631.2" width="147" height="166" patternUnits="userSpaceOnUse" id="New_Pattern_Swatch_7" viewBox="73.5 -207.5 147 166" overflow="visible">
	<g>
		<polygon fill="none" points="73.5,-207.5 220.5,-207.5 220.5,-41.5 73.5,-41.5 		"/>
		<polygon fill="#C24A3D" stroke="#DE6757" stroke-width="7" stroke-miterlimit="10" points="290.5,-3.5 150.5,-3.5 150.5,-79.5 
			290.5,-79.5 		"/>
		<polygon fill="#C24A3D" stroke="#DE6757" stroke-width="7" stroke-miterlimit="10" points="143.5,-3.5 3.5,-3.5 3.5,-79.5 
			143.5,-79.5 		"/>
		<polygon fill="#C24A3D" stroke="#DE6757" stroke-width="7" stroke-miterlimit="10" points="217,-86.5 77,-86.5 77,-162.5 
			217,-162.5 		"/>
		<polygon fill="#C24A3D" stroke="#DE6757" stroke-width="7" stroke-miterlimit="10" points="290.5,-169.5 150.5,-169.5 
			150.5,-245.5 290.5,-245.5 		"/>
		<polygon fill="#C24A3D" stroke="#DE6757" stroke-width="7" stroke-miterlimit="10" points="143.5,-169.5 3.5,-169.5 3.5,-245.5 
			143.5,-245.5 		"/>
	</g>
</pattern>
<g id="Layer_1">
	<g id="HAobQW.tif">
		
			<image overflow="visible" width="177" height="56" id="Layer_0_1_" xlink:href="3E71DA1877C3C178.png"  transform="matrix(2.8342 0 0 1.6071 -8688.9023 -24.7805)">
		</image>
	</g>
	<g id="_x33_wBwi4.tif">
		
			<image overflow="visible" width="410" height="280" id="Layer_0_2_" xlink:href="3E71DA1877C3C179.png"  transform="matrix(2.6822 0 0 2.6822 -11620.957 439.6921)">
		</image>
	</g>
	<rect x="-6086.3" y="65.4" fill="#DE6757" width="893.9" height="1548.4"/>
	<path fill="#4B3246" d="M-5640.3-54.6c0.7-0.4,1.5-0.9,2-1.2"/>
	<path fill="#4B3246" d="M-4583.9,1852.5"/>
	<path fill="#4B3246" d="M-4943.6-424.6"/>
	<path fill="#CAB9AA" d="M-5639.2-0.8c0,0-0.1,0-0.1,0c0,0.1-0.1,0.2-0.1,0.2L-5639.2-0.8z"/>
	<path fill="#4B3246" d="M-5639.4-107.5c0.1-0.1,0.1-0.2,0.2-0.2c0,0-0.1,0-0.1,0C-5639.4-107.7-5639.4-107.6-5639.4-107.5z"/>
	<path fill="#4B3246" d="M-5639.3,38.7"/>
	<path fill="#4B3246" d="M-5635,27c-2.9-9.3-5.7-18.6-8.6-27.9"/>
	<path fill="#4B3246" d="M-5639.3-16.5"/>
	<path fill="#4B3246" d="M-5639.3,5.1"/>
	<path fill="none" d="M-5649.7,327.6c1.8-13.7,5.5-27.2,10.7-40c6.3-0.4,9.4-6,10-12.4"/>
	<linearGradient id="SVGID_1_" gradientUnits="userSpaceOnUse" x1="-5961.5723" y1="1522.7841" x2="-5327.6479" y2="206.366">
		<stop  offset="0" style="stop-color:#D8AB6C"/>
		<stop  offset="1" style="stop-color:#FFD67E"/>
	</linearGradient>
	<path fill="url(#SVGID_1_)" d="M-5960.2,126h641.8c26.4,0,48,21.6,48,48v1370.1h-737.8V174C-6008.2,147.6-5986.6,126-5960.2,126z"
		/>
	<path fill="#913433" d="M-5270.4,177h-737.8v-3c0-26.4,21.6-48,48-48h641.8c26.4,0,48,21.6,48,48V177z"/>
	<rect x="-12081.2" y="-348.8" fill="#FFFEF1" width="3004" height="2872"/>
	<g>
		<path fill="#4B3246" d="M-4694-749.9"/>
		<path fill="#4B3246" d="M-5038.3-640.9c6.2,3.3,11.8,6.2,17.5,9.2c-1.2,0.9-2.8,2.8-3.5,2.5c-6-2.2-11.8-4.9-17.7-7.4
			C-5041-637.9-5039.9-639.2-5038.3-640.9z"/>
		<path fill="#4B3246" d="M-5281.3-649.3c-3.8-1.7-7.3-3.3-10.9-4.9c3.9-0.8,7.7-2.2,11.6-2.2c3.1,0.1,6.2,1.9,9.3,3
			C-5274.4-652.1-5277.6-650.8-5281.3-649.3z"/>
		<path fill="#F9DCC4" d="M-5649.7-512.7h1007.1c0,0-254.4-237.3-508.4-237.3C-5404.8-749.9-5649.7-512.7-5649.7-512.7z"/>
		<polygon fill="#FDF0D9" points="-5141,-536.2 -5162.6,-530.9 -5192.7,-714.6 -5108.7,-714.6 		"/>
		<polygon fill="#FDF0D9" points="-5088,-537.7 -5109.9,-540.8 -5081.1,-704.8 -5002.4,-675.6 		"/>
		<polygon fill="#FDF0D9" points="-5209.5,-540.5 -5229.3,-530.8 -5298.2,-683.9 -5216.7,-704 		"/>
	</g>
	<rect x="-12081.2" y="-348.8" fill="url(#New_Pattern_2)" width="3004" height="2872"/>
	<rect x="-12081.2" y="2005.6" fill="url(#New_Pattern)" width="3004" height="268.6"/>
	<g id="_x33_wBwi4.tif_1_">
		
			<image overflow="visible" width="410" height="280" id="Layer_0_4_" xlink:href="3E71DA1877C3C17F.png"  transform="matrix(2.6822 0 0 2.6822 -4602.7031 439.6921)">
		</image>
	</g>
	<rect x="-5063" y="-348.8" fill="#FFFEF1" width="3004" height="2872"/>
	<pattern  id="SVGID_2_" xlink:href="#New_Pattern_4" patternTransform="matrix(1 0 0 1 109.2542 0)">
	</pattern>
	<rect x="-5063" y="-348.8" fill="url(#SVGID_2_)" width="3004" height="2872"/>
	<rect x="-6216.4" y="-135" fill="#913433" width="1133.4" height="118.5"/>
	<g id="tTWrGk.tif">
		
			<image overflow="visible" width="204" height="41" id="Layer_0_3_" xlink:href="3E71DA1877C3C17A.png"  transform="matrix(4.935 0 0 4.935 -6652.4321 -551.1146)">
		</image>
	</g>
	<g>
		<path fill="#CAB9AA" d="M-5330.4,237v1242.1h-617.8V237H-5330.4 M-5272.5,177h-733.7c-1.1,0-2.1,0.9-2.1,2.1v1358
			c0,1.1,0.9,2.1,2.1,2.1h733.7c1.1,0,2.1-0.9,2.1-2.1v-1358C-5270.4,177.9-5271.3,177-5272.5,177L-5272.5,177z"/>
	</g>
	
		<rect x="-5974.2" y="1136.6" fill="none" stroke="#CAB9AA" stroke-width="60" stroke-linecap="square" stroke-miterlimit="10" width="676" height="376"/>
	
		<line fill="none" stroke="#CAB9AA" stroke-width="60" stroke-linecap="square" stroke-miterlimit="10" x1="-5649.7" y1="226.9" x2="-5649.7" y2="1513.1"/>
	<rect x="-6215" y="1608.9" fill="#D49B8D" width="1133.4" height="96.2"/>
	<polygon fill="#913433" points="-6215,1705.1 -6142.5,1768.2 -5164.7,1772.7 -5081.6,1705.1 	"/>
</g>
<g id="Layer_5">
	<path fill="#FFFFFF" stroke="#000000" stroke-miterlimit="10" d="M-2709.3,5075.2"/>
	<path fill="#68536F" stroke="#68536F" stroke-width="12" stroke-linecap="square" stroke-miterlimit="10" d="M-3783.5,4135.4h-60.4
		v-326.4c0-14,11.4-25.4,25.4-25.4h35.1c14,0,25.4,11.4,25.4,25.4v301C-3758.1,4124.1-3769.5,4135.4-3783.5,4135.4z"/>
	
		<polygon fill="#788E92" stroke="#788E92" stroke-width="12" stroke-linecap="round" stroke-linejoin="round" stroke-miterlimit="10" points="
		-4091.9,3083.6 -3545.2,3083.6 -3719.7,2968.6 -3909.1,2968.6 	"/>
	<polygon fill="#C0B2A8" stroke="#EEE5D5" stroke-width="20" stroke-miterlimit="10" points="-3943.1,3565.6 -4091.9,3083.6 
		-3545.2,3083.6 -3659,3565.6 -3659,3795.5 -3943.1,3795.5 	"/>
	
		<line fill="#C0B2A8" stroke="#EEE5D5" stroke-width="20" stroke-miterlimit="10" x1="-3943.1" y1="3565.6" x2="-3659" y2="3565.6"/>
	
		<line fill="#C0B2A8" stroke="#EEE5D5" stroke-width="20" stroke-miterlimit="10" x1="-3876.7" y1="3565.6" x2="-3876.7" y2="3795.5"/>
	
		<line fill="#C0B2A8" stroke="#EEE5D5" stroke-width="20" stroke-miterlimit="10" x1="-3741.4" y1="3565.6" x2="-3741.4" y2="3795.5"/>
	
		<line fill="#C0B2A8" stroke="#EEE5D5" stroke-width="20" stroke-miterlimit="10" x1="-3741.4" y1="3565.6" x2="-3694" y2="3083.6"/>
	
		<line fill="#C0B2A8" stroke="#EEE5D5" stroke-width="20" stroke-miterlimit="10" x1="-3876.7" y1="3565.6" x2="-3940.8" y2="3083.6"/>
	
		<path fill="#788E92" stroke="#788E92" stroke-width="12" stroke-linecap="round" stroke-linejoin="round" stroke-miterlimit="10" d="
		M-3741.8,2941.6c0-42-31.1-76.1-79.5-76.1c-43.9,0-79.5,34.1-79.5,76.1c0,42,35.6,76.1,79.5,76.1
		C-3777.4,3017.7-3741.8,2983.6-3741.8,2941.6z"/>
	<rect x="-3852.1" y="3807.9" fill="#68536F" width="102.1" height="57"/>
	
		<polygon fill="#68536F" stroke="#68536F" stroke-width="12" stroke-linecap="round" stroke-linejoin="round" stroke-miterlimit="10" points="
		-3940.3,7091.4 -3647.7,7091.4 -3647.7,6205.3 -3715.4,6130.9 -3715.4,3864.9 -3891.2,3864.9 -3891.2,6137.7 -3940.8,6210.6 	"/>
	<path fill="#68536F" stroke="#FFFFFF" stroke-linecap="round" stroke-miterlimit="10" d="M-3945.9,6210.6l0.5,880.8h301v-886.1
		l-126.6,34.1c-15.8,4.3-32.5,4.5-48.5,0.8L-3945.9,6210.6z"/>
	<ellipse fill="#788E92" cx="-3832.1" cy="2927.8" rx="68.3" ry="66.2"/>
	
		<path fill="#788E92" stroke="#788E92" stroke-width="12" stroke-linecap="round" stroke-linejoin="round" stroke-miterlimit="10" d="
		M-3891.2,6137.7l-54.6,72.9c164.5,60.5,301.5-5.3,301.5-5.3l-66-67.6H-3891.2z"/>
	<path fill="#68536F" stroke="#68536F" stroke-width="12" stroke-linecap="square" stroke-miterlimit="10" d="M-997.5,1340h-60.4
		v-326.4c0-14,11.4-25.4,25.4-25.4h35.1c14,0,25.4,11.4,25.4,25.4v301C-972.1,1328.6-983.5,1340-997.5,1340z"/>
	<polygon stroke="#000000" stroke-width="12" stroke-linecap="round" stroke-linejoin="round" stroke-miterlimit="10" points="
		-1308.6,279.7 -762,279.7 -950.4,164.7 -1108.9,164.7 	"/>
	
		<polygon fill="#C0B2A8" stroke="#000000" stroke-width="20" stroke-linecap="round" stroke-linejoin="round" stroke-miterlimit="10" points="
		-1157.1,770.1 -1301.9,288.1 -765.2,288.1 -873,770.1 -873,1000.1 -1157.1,1000.1 	"/>
	<line fill="#C0B2A8" stroke="#000000" stroke-width="20" stroke-miterlimit="10" x1="-1157.1" y1="770.1" x2="-873" y2="770.1"/>
	
		<line fill="#C0B2A8" stroke="#000000" stroke-width="20" stroke-miterlimit="10" x1="-1090.7" y1="770.1" x2="-1090.7" y2="1000.1"/>
	<line fill="#C0B2A8" stroke="#000000" stroke-width="20" stroke-miterlimit="10" x1="-955.4" y1="770.1" x2="-955.4" y2="1000.1"/>
	<line fill="#C0B2A8" stroke="#000000" stroke-width="20" stroke-miterlimit="10" x1="-955.4" y1="770.1" x2="-908.1" y2="288.1"/>
	
		<line fill="#C0B2A8" stroke="#000000" stroke-width="20" stroke-miterlimit="10" x1="-1090.7" y1="770.1" x2="-1154.8" y2="288.1"/>
	<path stroke="#000000" stroke-width="12" stroke-linecap="round" stroke-linejoin="round" stroke-miterlimit="10" d="M-955.8,146.1
		c0-42-31.1-76.1-79.5-76.1c-43.9,0-79.5,34.1-79.5,76.1s35.6,76.1,79.5,76.1C-991.4,222.2-955.8,188.1-955.8,146.1z"/>
	<rect x="-1066.1" y="1012.4" width="102.1" height="57"/>
	<path stroke="#000000" stroke-width="12" stroke-linecap="round" stroke-linejoin="round" stroke-miterlimit="10" d="
		M-1134.3,4090.3h252.6c11,0,20-8.4,20-18.7v-803.7c0-4.7-1.9-9.1-5.2-12.6l-57.2-59c-3.3-3.4-5.2-7.9-5.2-12.6V1088.1
		c0-10.3-9-18.7-20-18.7h-135.9c-11,0-20,8.4-20,18.7v2103.5c0,3.8-1.2,7.4-3.5,10.5l-42.6,58.7c-2.3,3.1-3.5,6.8-3.5,10.5
		l0.5,800.2C-1154.3,4081.9-1145.3,4090.3-1134.3,4090.3z"/>
	<path stroke="#000000" stroke-linecap="round" stroke-miterlimit="10" d="M-1151.3,3504.1l-8.6,811.8c0,54.5,303.5,49.2,303.5-3.7
		l-7-809.7c0-73.1-51.2-126.2-110.4-107.2h0c-22.7,7.3-46.6,7.8-69.5,1.4l-2.6-0.7C-1104.4,3379.6-1151.4,3432.5-1151.3,3504.1z"/>
	<ellipse cx="-1046.1" cy="132.3" rx="68.3" ry="66.2"/>
</g>
<g id="Layer_6_copy">
	<g id="XMLID_2_">
		<g>
			<path fill="#788E92" d="M-5641.1,2902.4c-50.4,4.8-33.5,8.8-128.7-6.5c-4.8-6.6-32.1-24.1-37-30.6c-7.2-9.6-14.3-19.3-21.5-28.9
				c-1.4-1.9-2.4-4.2-5.8-10.2c-0.1,0.6-0.3,1.2-0.4,1.8c-15.5-18.1-15.3-43.9-10.8-67c9.1-51.6,5.7-39.4,16.1-61.3
				c1.2-2.6,24.8-44.1,26.1-46.6c-0.3-0.1-0.5-0.1-0.8-0.2c5.2-5.9,9.1-13,11.1-20.1c0.5-0.8,0.9-1.6,1.3-2.5
				c1.3-0.6,1.5-2.8,3.3-2.8c-0.4-1.2-0.3-2.7-0.4-4.1c10-26.8,9.2-53.7,5-81.3c-1.3-8.2,0.2-16.8,0.5-25.2
				c1-25.5,0.6-51.2,3.7-76.4c1.6-12.5,9.9-24,14.8-36.1c2.5-6,5.3-12.2,6.1-18.6c2.3-18.4,3.2-36.9,5.7-55.3
				c1.9-13.5,1.2-25.5-5.7-38.2c-6.4-11.7-8.9-25.7-11.7-39c-0.6-2.7,4.9-7.9,8.7-9.9c2.5-1.3,7.1,0.5,10.4,1.8
				c20.2,8.1,39.8,19.3,60.8,23.6c13.2,2.7,28.9-3.7,42.9-8c20.6-6.3,40.5-14.7,61-21.3c3.1-1,6.7,0,10.4,0.8
				c-0.6,2.1-1.4,4.1-1.5,6.2c-0.8,0.8-1.3,1.7-1.6,2.6c-4.3,15-9.3,30-11.2,45.4c-2.8,23.3-4.9,46.9-3.9,70.3
				c0.5,11.5,8.6,61.7,11.8,70.8c15.4,43.6,13.5,89,14.5,134.1c0.2,10-2.1,20.1-2.7,30.2c-0.1,2.4,1.4,6.6,3.1,7.2
				c11.5,4.1,33.1,47,35.6,53.2c7.9,19.7,18.3,39,22.5,59.6c2.7,13.1,9.3,46.1,4.9,78.1c-4.7,34.1-19.9,79.8-20.7,81.3
				c-3,5-8,8-11,8C-5572.1,2894.4-5606.1,2898.4-5641.1,2902.4z M-5598.5,2277c0.8-5.6,1.2-11.2,1.8-16.9c-5.6,4.1-12,7.5-16.5,12.5
				c-2.9,3.2-3.1,8.9-5.2,15.5c3.3,3.9,6.9,8.1,10.4,12.3c2.2-3.7,5-7.2,6.6-11.2C-5599.9,2285.5-5599.1,2281.2-5598.5,2277z
				 M-5675.2,2356.1c7.3-7,14.5-11.9,13.8-13.4c-3.1-7-8.3-13-12.8-19.4c-4.9,4.9-12.5,9.1-13.7,14.8
				C-5688.7,2342.1-5681.1,2348.1-5675.2,2356.1z M-5734.8,2291.2c2-3.6,4-7.2,7.1-12.8c-7-5.9-13.8-11.9-20.9-17.6
				c-1-0.8-3.1,0-4.7,0c1.9,5.9,3.7,11.9,5.9,17.7c0.8,2.2,2,4.6,3.6,6.1C-5741.1,2287.1-5737.9,2289-5734.8,2291.2z"/>
			<path fill="#788E92" d="M-5661.3,2342.7c0.7,1.5-6.5,6.5-13.8,13.4c-6-8-13.6-14-12.7-18.1c1.2-5.7,8.8-9.9,13.7-14.8
				C-5669.6,2329.6-5664.4,2335.7-5661.3,2342.7z"/>
		</g>
		<g>
			<path fill="none" stroke="#7A98A0" stroke-miterlimit="10" d="M-5806.8,2865.3c4.8,6.5,32.2,24,37,30.6
				c95.2,15.3,78.3,11.2,128.7,6.5c35-4,69-8,105-15c3,0,8-3,11-8c0.8-1.6,16-47.2,20.7-81.3c4.4-32.1-2.2-65-4.9-78.1
				c-4.2-20.5-14.6-39.8-22.5-59.6c-2.5-6.2-24.1-49.2-35.6-53.2c-1.7-0.6-3.2-4.8-3.1-7.2c0.6-10.1,2.9-20.2,2.7-30.2
				c-1-45.1,0.9-90.5-14.5-134.1c-3.2-9.1-11.3-59.3-11.8-70.8c-1.1-23.3,1.1-47,3.9-70.3c1.9-15.4,6.9-30.4,11.2-45.4
				c0.3-0.9,0.9-1.8,1.6-2.6c0.1-2.1,0.9-4.1,1.5-6.2c-3.7-0.9-7.3-1.8-10.4-0.8c-20.5,6.6-40.4,15-61,21.3
				c-14,4.3-29.6,10.7-42.9,8c-21-4.3-40.5-15.5-60.8-23.6c-3.3-1.3-7.9-3.1-10.4-1.8c-3.8,2-9.2,7.2-8.7,9.9
				c2.8,13.3,5.3,27.3,11.7,39c6.9,12.7,7.5,24.7,5.7,38.2c-2.5,18.3-3.4,36.9-5.7,55.3c-0.8,6.4-3.6,12.5-6.1,18.6
				c-4.9,12.1-13.3,23.7-14.8,36.1c-3.1,25.2-2.7,50.9-3.7,76.4c-0.3,8.4-1.8,17.1-0.5,25.2c4.2,27.6,5.1,54.5-5,81.3
				c0.1,1.4,0,2.9,0.4,4.1c-1.7,0-2,2.2-3.3,2.8c-0.4,0.9-0.9,1.8-1.3,2.5c-2,7.2-5.9,14.2-11.1,20.1c0.3,0.1,0.5,0.2,0.8,0.2
				c-1.3,2.5-24.8,44-26.1,46.6c-10.4,21.9-7,9.7-16.1,61.3c-4.6,23.1-4.8,48.9,10.8,67c0.1-0.6,0.3-1.1,0.4-1.8
				c3.4,6,4.3,8.3,5.8,10.2C-5821.1,2846-5813.9,2855.7-5806.8,2865.3z"/>
			<path fill="none" stroke="#7A98A0" stroke-miterlimit="10" d="M-5613.3,2272.7c4.6-5,10.9-8.4,16.5-12.5
				c-0.6,5.6-0.9,11.3-1.8,16.9c-0.6,4.2-1.4,8.4-3,12.3c-1.6,4-4.3,7.5-6.6,11.2c-3.6-4.2-7.1-8.4-10.4-12.3
				C-5616.4,2281.5-5616.2,2275.9-5613.3,2272.7z"/>
			<path fill="none" stroke="#7A98A0" stroke-miterlimit="10" d="M-5687.8,2338c1.2-5.7,8.8-9.9,13.7-14.8
				c4.5,6.4,9.7,12.4,12.8,19.4c0.7,1.5-6.5,6.5-13.8,13.4C-5681.1,2348.1-5688.7,2342.1-5687.8,2338z"/>
			<path fill="none" stroke="#7A98A0" stroke-miterlimit="10" d="M-5753.3,2260.8c1.6,0,3.7-0.8,4.7,0c7.1,5.7,13.9,11.6,20.9,17.6
				c-3.1,5.6-5.1,9.2-7.1,12.8c-3-2.1-6.3-4.1-9-6.6c-1.7-1.6-2.9-3.9-3.6-6.1C-5749.6,2272.6-5751.4,2266.7-5753.3,2260.8z"/>
		</g>
	</g>
	<g id="XMLID_1_">
		<g>
			<path fill="#788E92" d="M-5755.3,2867.7c-14.9-15.2-27.3-32.9-41.4-49c-7.9-9-5.7-17.6-1.9-26.8c9-21.2,16.4-42.6,13-66.3
				c-0.2-1.8,3.1-4.9,5.5-6.2c6.7-3.6,13.9-6.4,20.6-9.9c2.2-1.1,4.3-2.3,6.4-3.6c6.6-4.2,9-9.9,8-19.7c-2.2-20.1,0.7-40.7-0.2-61.1
				c-0.7-17.3-5.1-34.5-5.6-51.8c-0.9-32.1-0.4-64.3,0.2-96.5c0.1-4.1,5.8-7.9,6.5-12.2c1.1-6.6,0.1-13.6-0.2-20.4
				c-0.1-1.9,6.8-33.6,6.4-48.5c-0.1-3.1,2-6.3,3.1-9.5c2.2,1.7,4.4,3.3,6.5,5c9.7,7.6,19.2,15.6,29.3,22.6
				c3.7,2.5,9.1,2.8,13.8,3.3c1.8,0.2,3.8-2,5.7-3.1c-1.2-1.8-2.1-4-3.7-5.5c-6.9-6.3-15-11.6-20.8-18.8
				c-7.3-9.1-19.9-21.2,5.1-24.6c2-0.3,4-2.8,5.5-4.6c2.8-3.5,5.3-7.3,7.9-11c4.5,8.4,9.5,16.6,13.1,25.3c0.4,1-6.8,4.9-10.1,7.9
				c-2.6,2.3-4.7,5.1-7,7.7c3.6,1,7.2,2.9,10.7,2.8c3.9-0.1,7.7-2.7,11.6-3.2c5-0.6,10.1-0.2,15.2-0.2c-3.1-3-6.7-5.7-9.1-9.2
				c-1.4-2-1.9-5.8-0.9-8.1c1.3-3.2,4.5-5.5,6.4-8.4c3.8-5.6,7.2-11.3,10.8-16.9c5.6,6.1,11.7,11.6,16.5,18.3
				c4.3,6.1,12.8,26.2,1.1,19.2c-2.1-1.3-7.2-0.1-9.3,1.7c-8,6.9-15.4,14.4-22.8,22c-1.7,1.7-2.4,4.4-3.6,6.6
				c2.2,0.1,4.9,1.1,6.6,0.1c6.2-3.6,11.8-8.2,18.1-11.5c3.3-1.7,7.6-1.6,11.4-2.2c-1.7,2.7-3.5,5.3-5.2,8c-0.9,1.3-1.7,2.7-2.5,4.1
				c2,0.8,4.7,3,6,2.3c5.3-2.5,10.1-6,15.2-8.9c3.4-1.9,7-3.4,10.5-5c0.7,3.5,1.1,7.1,2,10.5c6.2,22.4,9.7,46.2,19.8,66.8
				c8.6,17.7,13.9,37.9,7.1,51.8c-8.4,17.1-2.9,30.6-3,45.9c-0.1,8.6-4.2,17.3-6.4,25.9c-3.2,12.5-6.2,24.9-9.5,37.4
				c-2.4,9.2-5.5,18.3-7.6,27.6c-3.9,17.4-7.7,34.9-10.9,52.5c-5.9,32.5-11.7,65-16.7,97.6c-1.4,9.3-0.2,19-0.1,28.5
				c0.1,5.3,0.6,10.6,0.3,15.9c-0.1,1.9-2,3.6-3,5.4c-1.8-1.4-5-2.7-5.2-4.4c-0.2-1.2-0.4-2.4-0.5-3.6c-1.1-7.7-2.1-15.4-2.2-23.2
				c-0.2-23.8,0.2-47.7,0.2-71.5c0-2.5-1.1-4.9-1.8-7.4c-1.3,2.5-3.2,4.9-3.8,7.6c-1.5,7.7-2.4,15.5-3.8,23.2
				c-0.3,1.6-1.7,2.9-2.6,4.4c-0.3-1.6-0.9-3.3-0.9-4.9c-0.1-7.2,0.1-14.4,0-21.6c0-1.6-0.6-3.1-0.9-4.7c-0.9,1.4-2.4,2.8-2.6,4.3
				c-1.4,9.6-2.2,19.2-4,28.7c-0.6,3.1-3.4,5.8-5.2,8.7c-1.7-2.9-4.3-5.7-5-8.8c-5.4-23.4-6.6-48.6-16.3-70.1
				c-16.2-36.1-6.9-71.9-6.4-108c0-3.1-1.5-6.2-2.3-9.3c-1.8,2.8-5,5.6-5.2,8.5c-1.2,15.6-1.7,31.2-2.4,46.8c1.1,0,2.2,0,3.3,0
				c0,37.4-0.1,74.7,0.1,112.1c0,3.4,0.5,8.3,2.7,10.1c22.9,18.1,12.4,47.3,23,69.6c1,2,1.4,5.2,0.8,8.3c-0.9,5.1-4.4,9.9-12.7,8.9
				c-10.2-1.3-5.4-9.3-15.5-19c-4-3.8,3.2-45.7,1.2-45.8c-0.2,0-6.6-3.2-7.3-5.7c-4.7-15.6-8.6-31.4-12.7-47.2
				c-1.7-6.4-2.4-13.2-5.2-19.2c-2.9-6.3-7.7-11.9-11.6-17.7c1.9,6.1,4.5,12.1,5.6,18.3c1,5.4,1.9,10.8,2.9,16.2
				c2.3,13.5,4.4,27.1,6.7,40.6c2.2,12.9,4.1,25.8,7,38.5c3.1,13.4-6.6,38.5-19.1,41.9C-5739.4,2874-5750.7,2872.4-5755.3,2867.7z"
				/>
		</g>
		<g>
			<path fill="none" stroke="#7A98A0" stroke-miterlimit="10" d="M-5634.1,2858.4c-0.9,0.4-1.7,0.8-2.6,1.1c0.2,1.2,0.4,2.4,0.5,3.6
				c0.2,1.7,3.4,2.9,5.2,4.4c1.1-1.8,2.9-3.6,3-5.4c0.3-5.3-0.2-10.6-0.3-15.9c-0.1-9.5-1.4-19.2,0.1-28.5
				c5-32.6,10.8-65.1,16.7-97.6c3.2-17.6,7-35.1,10.9-52.5c2.1-9.3,5.2-18.4,7.6-27.6c3.3-12.4,6.3-24.9,9.5-37.4
				c2.2-8.6,6.4-17.2,6.4-25.9c0.1-15.3-5.4-28.8,3-45.9c6.9-13.9,1.6-34.1-7.1-51.8c-10-20.6-13.5-44.3-19.8-66.8
				c-1-3.4-1.4-7-2-10.5c-3.5,1.6-7.2,3.1-10.5,5c-5.1,2.9-9.9,6.4-15.2,8.9c-1.3,0.6-4-1.5-6-2.3c0.8-1.4,1.6-2.7,2.5-4.1
				c1.7-2.7,3.4-5.3,5.2-8c-3.8,0.7-8.1,0.5-11.4,2.2c-6.3,3.3-11.9,7.9-18.1,11.5c-1.6,0.9-4.4,0-6.6-0.1c1.2-2.2,1.9-4.9,3.6-6.6
				c7.4-7.6,14.8-15.1,22.8-22c2.1-1.8,7.2-3,9.3-1.7c11.7,7,3.3-13.2-1.1-19.2c-4.8-6.6-10.9-12.2-16.5-18.3
				c-3.6,5.7-7.1,11.4-10.8,16.9c-2,2.9-5.1,5.3-6.4,8.4c-0.9,2.2-0.5,6,0.9,8.1c2.4,3.5,6,6.2,9.1,9.2c-5.1,0-10.2-0.4-15.2,0.2
				c-3.9,0.5-7.7,3-11.6,3.2c-3.5,0.1-7.2-1.8-10.7-2.8c2.3-2.6,4.4-5.4,7-7.7c3.4-2.9,10.5-6.8,10.1-7.9
				c-3.6-8.7-8.6-16.9-13.1-25.3c-2.6,3.7-5.1,7.5-7.9,11c-1.5,1.9-3.4,4.3-5.5,4.6c-25,3.4-12.4,15.5-5.1,24.6
				c5.8,7.2,13.9,12.4,20.8,18.8c1.6,1.4,2.5,3.6,3.7,5.5c-1.9,1.1-3.9,3.3-5.7,3.1c-4.7-0.5-10.1-0.8-13.8-3.3
				c-10.2-6.9-19.6-15-29.3-22.6c-2.2-1.7-4.3-3.3-6.5-5c-1.1,3.2-3.2,6.3-3.1,9.5c0.4,14.9-6.5,46.6-6.4,48.5
				c0.3,6.8,1.3,13.8,0.2,20.4c-0.7,4.3-6.4,8.1-6.5,12.2c-0.6,32.2-1.1,64.4-0.2,96.5c0.5,17.3,4.9,34.5,5.6,51.8
				c0.9,20.3-2,40.9,0.2,61.1c1,9.8-1.4,15.5-8,19.7c-2.1,1.3-4.2,2.5-6.4,3.6c-6.8,3.5-13.9,6.4-20.6,9.9c-2.4,1.3-5.8,4.4-5.5,6.2
				c3.4,23.7-4,45.1-13,66.3c-3.9,9.2-6.1,17.8,1.9,26.8c14.1,16.1,26.5,33.8,41.4,49c4.6,4.7,15.9,6.3,22.8,4.4
				c12.6-3.5,22.2-28.6,19.1-41.9c-2.9-12.7-4.9-25.6-7-38.5c-2.3-13.5-4.4-27.1-6.7-40.6c-0.9-5.4-1.9-10.8-2.9-16.2
				c-1.1-6.2-3.7-12.2-5.6-18.3c4,5.9,8.7,11.4,11.6,17.7c2.7,5.9,3.5,12.8,5.2,19.2c4.1,15.8,8,31.6,12.7,47.2
				c0.8,2.5,7.2,5.7,7.3,5.7c2.1,0.2-5.2,42-1.2,45.8c10.1,9.7,5.2,17.8,15.5,19c8.3,1,11.9-3.8,12.7-8.9"/>
			<path fill="none" stroke="#7A98A0" stroke-miterlimit="10" d="M-5675.1,2862.4c1.1-0.1,2.2-0.1,3.3-0.2c0.5-3.1,0.1-6.4-0.8-8.3
				c-10.7-22.3-0.1-51.5-23-69.6c-2.2-1.7-2.7-6.6-2.7-10.1c-0.2-37.4-0.1-74.7-0.1-112.1c-1.1,0-2.2,0-3.3,0
				c0.7-15.6,1.2-31.2,2.4-46.8c0.2-2.9,3.4-5.7,5.2-8.5c0.8,3.1,2.4,6.2,2.3,9.3c-0.5,36.1-9.8,71.9,6.4,108
				c9.6,21.5,10.9,46.7,16.3,70.1c0.7,3.1,3.3,5.9,5,8.8c1.8-2.9,4.6-5.6,5.2-8.7c1.8-9.5,2.5-19.1,4-28.7c0.2-1.5,1.7-2.9,2.6-4.3
				c0.3,1.6,0.9,3.1,0.9,4.7c0.1,7.2-0.1,14.4,0,21.6c0,1.6,0.6,3.3,0.9,4.9c0.9-1.4,2.3-2.8,2.6-4.4c1.4-7.7,2.3-15.5,3.8-23.2
				c0.5-2.7,2.5-5.1,3.8-7.6c0.6,2.5,1.8,4.9,1.8,7.4c0,23.8-0.4,47.7-0.2,71.5c0.1,7.8,1,15.5,2.2,23.2"/>
		</g>
	</g>
	<path fill="#788E92" stroke="#7A98A0" stroke-miterlimit="10" d="M-5782.1,2627.4c-0.4-1.2-0.3-2.7-0.4-4.1
		c-0.3,0.8-0.6,1.5-0.9,2.3c-0.7,1.7-1.3,3.2-2,4.6C-5784,2629.6-5783.8,2627.4-5782.1,2627.4z"/>
	<path fill="#788E92" d="M-5746.1,2726.4c-4.4-4.4-11-9.9-13.4-16.9c-6.8,3.5-13.9,6.4-20.6,10c-2.4,1.3-5.8,4.4-5.5,6.1
		c3.4,23.7-4,45.2-13,66.4c-3.9,9.2-6.1,17.8,1.8,26.8c14.1,16.1,26.5,33.8,41.4,49c4.6,4.7,15.9,6.3,22.8,4.4
		c12.6-3.5,22.2-28.5,19.1-41.9c-2.9-12.7-4.9-25.6-7.1-38.5c-2.3-13.5-4.4-27.1-6.7-40.6c-1-1-1.2-3-1.9-3.6
		C-5736.1,2741.4-5740.1,2732.4-5746.1,2726.4z"/>
	<path fill="#CAB9AA" d="M-5698.2,2805.6c-0.1-0.2-0.2-0.3-0.2-0.3S-5698.4,2805.4-5698.2,2805.6c0,0-2.2-5.3-2.8-8.2
		c0.1,0.5,0.4,3.4,0.8,7.6C-5699.1,2805.4-5698.3,2805.7-5698.2,2805.6z"/>
	<path fill="#CAB9AA" d="M-5602.7,2401.8c-3.5,1.7-7.2,3.1-10.5,5c-5.1,2.9-9.9,6.4-15.2,8.9c-1.3,0.6-4-1.5-6-2.3
		c0.8-1.4,1.6-2.7,2.5-4.1c1.7-2.7,3.4-5.3,5.2-8"/>
	<path fill="#CAB9AA" d="M-5626.8,2401.2c-3.8,0.7-8.1,0.5-11.4,2.2c-6.3,3.3-11.9,7.9-18.1,11.5c-1.6,0.9-4.4,0-6.6-0.1
		c1.2-2.2,1.9-4.9,3.6-6.6c7.4-7.5,12.1-8.8,20.1-15.7c2.1-1.8,10-9.3,12.1-8c11.7,7,3.3-13.2-1.1-19.2
		c-4.7-6.6-10.9-12.2-16.5-18.3c-3.6,5.7-7.1,11.4-10.8,16.9c-2,2.9-5.2,5.3-6.4,8.4c-0.9,2.3-0.5,6,0.9,8.1c2.4,3.5,6,6.2,9.1,9.3
		c-5.1,0-10.2-0.4-15.2,0.2c-3.9,0.5-7.7,3-11.6,3.2c-3.5,0.1-7.2-1.8-10.7-2.8c2.3-2.6,4.4-5.4,7-7.7c3.4-2.9,10.5-6.8,10.1-7.9
		c-3.6-8.7-8.6-16.9-13.1-25.3c-2.6,3.7-5.1,7.5-7.9,11c-1.5,1.9-3.4,4.3-5.4,4.6c-25,3.4-12.4,15.5-5.1,24.6
		c5.8,7.2,13.9,12.5,20.8,18.8c1.6,1.4,2.5,3.6,3.7,5.5c-1.9,1.1-3.9,3.3-5.7,3.1c-4.7-0.5-10.1-0.8-13.8-3.3
		c-10.2-6.9-19.6-15-29.3-22.6c-2.2-1.7-4.4-3.3-6.5-5c-1.1,3.2-3.2,6.3-3.1,9.5c0.3,14.9-6.5,46.6-6.4,48.5
		c0.3,6.8-6.2,28.5-6.3,32.6c-0.6,32.2-1.1,64.4-0.2,96.5c0.5,17.3,4.9,34.5,5.6,51.8c0.9,20.3-2,40.9,0.2,61.1
		c1,9.8,5.2,11.3-1.4,15.5c4,5.9,19.5,26.2,22.4,32.6c2.7,5.9,3.5,12.8,5.2,19.2c4.1,15.7,8.1,31.6,12.7,47.1
		c0.5,1.7,3.8,3.5,5.9,4.4c-0.5-4.2-0.7-7-0.8-7.6v1v-1c0.6,3,2.8,8.2,2.8,8.2c-0.1,0.1-0.9-0.2-2-0.7c2,18.7,7.4,65.1,15.7,66.2
		l53.6-3.7c1.1-1.8,3-3.6,3.1-5.4c0.3-5.3-0.2-10.6-0.3-15.9c-0.1-9.5-1.4-19.2,0.1-28.5c5-32.6,10.8-65.1,16.7-97.6
		c3.2-17.6,7-35.1,10.9-52.5c2.1-9.3,5.2-18.4,7.6-27.6c3.3-12.4,6.3-24.9,9.5-37.4c2.2-8.6,3.9-12.7,4-21.4
		c0.1-15.3-0.5-29.7,1.3-48.7c2.3-24.4,0.9-31.2-2.9-53.6c-3.9-22.6-13.5-44.3-19.8-66.7c-1-3.4-1.4-7-2-10.5"/>
	<path fill="#788E92" d="M-5759.4,2709.4c2.4,7,9,12.5,13.4,16.9c6,6,10,15,17,21c0.7,0.7,0.9,2.7,1.9,3.6
		c-0.9-5.4-1.9-10.8-2.9-16.2"/>
	<path fill="#D49B8D" stroke="#7A98A0" stroke-miterlimit="10" d="M-5668.1,2356.1c-6-8.1-13.6-14-12.7-18.1
		c1.2-5.7,8.8-9.9,13.7-14.8c4.5,6.4,9.7,12.4,12.8,19.4C-5653.6,2344.2-5660.8,2349.2-5668.1,2356.1z"/>
	<path fill="#EEE5D5" stroke="#7A98A0" stroke-miterlimit="10" d="M-5618.5,2288.2c2.1-6.7,2.3-12.3,5.2-15.5
		c4.6-5,10.9-8.4,16.5-12.5c-0.6,5.6-0.9,11.3-1.8,16.8c-0.6,4.2-1.4,8.4-3,12.3c-1.6,4-4.3,7.5-6.6,11.2
		C-5611.6,2296.3-5615.2,2292.1-5618.5,2288.2z"/>
	<path fill="#EEE5D5" stroke="#7A98A0" stroke-miterlimit="10" d="M-5727.5,2278.3c-3.1,5.6-5.1,9.2-7.2,12.8c-3-2.2-6.3-4.1-9-6.6
		c-1.7-1.6-2.8-3.9-3.7-6.1c-2.1-5.8-3.9-11.8-5.9-17.7c1.6,0,3.7-0.8,4.7,0C-5741.3,2266.5-5734.4,2272.4-5727.5,2278.3z"/>
	<g id="XMLID_5_">
		<g>
			<path fill="#788E92" d="M-604.5-309.4c0.8,2.2,2,4.6,3.7,6.1c2.7,2.5,5.9,4.4,9,6.6c2-3.6,4-7.2,7.2-12.8
				c-7-5.9-13.8-11.9-20.9-17.5c-1-0.8-3.1,0-4.7,0C-608.4-321.2-606.6-315.2-604.5-309.4z M-631,39.5c-0.4-1.2-0.3-2.7-0.4-4.1
				c10.1-26.8,9.2-53.7,5-81.3c-1.3-8.2,0.2-16.8,0.5-25.2c1-25.5,0.6-51.2,3.7-76.4c1.5-12.5,9.9-24,14.8-36.1
				c2.5-6,5.3-12.2,6.1-18.6c2.3-18.4,3.2-36.9,5.7-55.3c1.9-13.5,1.2-25.5-5.7-38.2c-6.3-11.7-8.9-25.7-11.7-39
				c-0.6-2.7,4.9-7.9,8.7-9.9c2.5-1.3,7.1,0.5,10.4,1.8c20.2,8.1,39.8,19.3,60.8,23.6c13.2,2.7,28.9-3.7,42.9-8
				c20.6-6.3,40.5-14.7,61-21.3c3.1-1,6.7,0,10.4,0.9c-0.6,2-1.4,4.1-1.5,6.1c-0.8,0.8-1.3,1.7-1.6,2.6c-4.3,15-9.3,30-11.2,45.4
				c-2.8,23.3-4.9,46.9-3.9,70.3c0.5,11.5,8.6,61.7,11.8,70.8c15.4,43.6,13.5,89,14.5,134.1c0.2,10-2.1,20.1-2.7,30.2
				c-0.1,2.4,36.1,54.2,38.6,60.5c7.9,19.7,18.3,39,22.5,59.6c2.7,13.1,9.3,46.1,4.9,78.1c-4.7,34.1-19.9,79.8-20.7,81.3
				c-3,5-8,8-11,8c-36,7-70,11-105,15c-50.4,4.8-33.5,8.8-128.7-6.5c-4.8-6.5-32.1-24.1-37-30.6c-7.2-9.6-14.3-19.3-21.5-28.9
				c-1.4-1.9-2.4-4.2-5.8-10.2c-0.2,0.6-0.3,1.2-0.4,1.8c-15.5-18.1-15.3-43.9-10.8-67c9.1-51.6,5.7-39.4,16.1-61.3
				c1.2-2.6,24.8-44.1,26.1-46.6c-0.3-0.1-0.5-0.2-0.8-0.2c1.5-1.8,3-3.6,4.3-5.6c3.1-4.6,5.4-9.5,6.8-14.6c0.5-0.8,0.9-1.6,1.3-2.5
				C-632.9,41.7-632.7,39.5-631,39.5z M-455.6-310.9c0.8-5.6,1.2-11.2,1.8-16.9c-5.6,4.1-12,7.5-16.5,12.5
				c-2.9,3.2-3.1,8.9-5.2,15.5c3.3,3.9,6.9,8.1,10.4,12.3c2.2-3.7,5-7.2,6.6-11.2C-457-302.4-456.2-306.7-455.6-310.9z
				 M-532.2-231.8c7.3-7,14.5-11.9,13.8-13.5c-3.1-7-8.3-13-12.8-19.4c-4.9,4.9-12.5,9.1-13.7,14.8
				C-545.7-245.7-538.2-239.8-532.2-231.8z"/>
			<path fill="#788E92" d="M-518.4-245.2c0.7,1.5-6.5,6.5-13.8,13.5c-6-8.1-13.6-14-12.7-18.1c1.2-5.6,8.8-9.9,13.7-14.8
				C-526.7-258.3-521.4-252.2-518.4-245.2z"/>
		</g>
		<g>
			<path fill="none" stroke="#7A98A0" stroke-miterlimit="10" d="M-649.6,277.4c4.8,6.5,32.1,24.1,37,30.6
				c95.2,15.3,78.3,11.2,128.7,6.5c35-4,69-8,105-15c3,0,8-3,11-8c0.8-1.6,16-47.2,20.7-81.3c4.4-32.1-2.2-65-4.9-78.1
				c-4.2-20.5-14.6-39.8-22.5-59.6c-2.5-6.2-38.8-58-38.6-60.5c0.6-10.1,2.9-20.2,2.7-30.2c-1-45.1,0.9-90.5-14.5-134.1
				c-3.2-9.1-11.3-59.3-11.8-70.8c-1-23.3,1.1-47,3.9-70.3c1.9-15.4,6.9-30.4,11.2-45.4c0.3-1,0.9-1.8,1.6-2.6
				c0.1-2,0.9-4.1,1.5-6.1c-3.7-0.9-7.3-1.8-10.4-0.9c-20.5,6.6-40.4,15-61,21.3c-14,4.3-29.6,10.7-42.9,8
				c-21-4.3-40.5-15.5-60.8-23.6c-3.3-1.3-8-3.2-10.4-1.8c-3.8,2-9.2,7.2-8.7,9.9c2.8,13.3,5.3,27.3,11.7,39
				c6.9,12.7,7.5,24.7,5.7,38.2c-2.5,18.3-3.3,36.9-5.7,55.3c-0.8,6.4-3.6,12.5-6.1,18.6c-4.9,12.1-13.3,23.7-14.8,36.1
				c-3.2,25.2-2.7,50.9-3.7,76.4c-0.3,8.4-1.8,17.1-0.5,25.2c4.2,27.6,5.1,54.5-5,81.3c0.1,1.4,0,2.9,0.4,4.1c-1.7,0-2,2.2-3.3,2.8
				c-0.4,0.9-0.9,1.8-1.3,2.5c-1.4,5-3.7,10-6.8,14.6c-1.3,2-2.7,3.8-4.3,5.6c0.3,0.1,0.5,0.2,0.8,0.2c-1.3,2.5-24.8,44-26.1,46.6
				c-10.4,21.9-7,9.7-16.1,61.3c-4.6,23.1-4.8,48.9,10.8,67c0.1-0.6,0.3-1.1,0.4-1.8c3.3,6,4.3,8.3,5.8,10.2
				C-664,258.2-656.8,267.8-649.6,277.4z"/>
			<path fill="none" stroke="#7A98A0" stroke-miterlimit="10" d="M-470.3-315.2c4.6-5,10.9-8.4,16.5-12.5
				c-0.6,5.6-0.9,11.3-1.8,16.9c-0.6,4.2-1.4,8.4-3,12.3c-1.6,4-4.3,7.5-6.6,11.2c-3.6-4.2-7.1-8.4-10.4-12.3
				C-473.4-306.4-473.2-312-470.3-315.2z"/>
			<path fill="none" stroke="#7A98A0" stroke-miterlimit="10" d="M-544.9-249.9c1.2-5.6,8.8-9.9,13.7-14.8
				c4.5,6.4,9.7,12.4,12.8,19.4c0.7,1.5-6.5,6.5-13.8,13.5C-538.2-239.8-545.7-245.7-544.9-249.9z"/>
			<path fill="none" stroke="#7A98A0" stroke-miterlimit="10" d="M-610.3-327.1c1.6,0,3.7-0.8,4.7,0c7.1,5.7,13.9,11.6,20.9,17.5
				c-3.1,5.6-5.1,9.2-7.2,12.8c-3-2.2-6.3-4.1-9-6.6c-1.7-1.6-2.9-3.9-3.7-6.1C-606.6-315.2-608.4-321.2-610.3-327.1z"/>
		</g>
	</g>
	<path fill="#788E92" stroke="#7A98A0" stroke-miterlimit="10" d="M-639.1,39.5c-0.4-1.2-0.3-2.7-0.4-4.1c-0.3,0.8-0.6,1.5-0.9,2.3
		c-0.7,1.7-1.3,3.2-2,4.6C-641.1,41.7-640.8,39.5-639.1,39.5z"/>
	<path fill="#CAB9AA" d="M-555.3,217.7c-0.1-0.2-0.2-0.3-0.2-0.3S-555.4,217.5-555.3,217.7c0,0-2.2-5.3-2.8-8.2
		c0.1,0.5,0.4,3.4,0.8,7.6C-556.2,217.5-555.3,217.8-555.3,217.7z"/>
	<path fill="#CAB9AA" d="M-459.7-186.1c-3.5,1.7-7.2,3.1-10.5,5c-5.1,2.9-9.9,6.4-15.2,8.9c-1.3,0.6-4-1.5-6-2.3
		c0.8-1.4,1.6-2.7,2.5-4.1c1.7-2.7,3.4-5.3,5.2-8"/>
	<path fill="#CAB9AA" d="M-436.4-6.7c0.1-15.3-0.5-29.7,1.3-48.7c2.3-24.4,0.9-31.2-2.9-53.6c-3.9-22.6-13.5-44.3-19.8-66.7
		c-1-3.4-1.4-7-2-10.5l-24.1-0.5c-3.8,0.7-8.1,0.5-11.4,2.2c-6.3,3.3-11.9,7.9-18.1,11.5c-1.6,0.9-4.4,0-6.6-0.1
		c1.2-2.2,1.9-4.9,3.6-6.6c7.4-7.5,12.1-8.8,20.1-15.7c2.1-1.8,10-9.3,12.1-8c11.7,7,3.3-13.2-1.1-19.2
		c-4.7-6.6-10.9-12.2-16.5-18.3c-3.6,5.7-7.1,11.4-10.8,16.9c-2,2.9-5.2,5.3-6.4,8.4c-0.9,2.3-0.5,6,0.9,8.1c2.4,3.5,6,6.2,9.1,9.3
		c-5.1,0-10.2-0.4-15.2,0.2c-3.9,0.5-7.7,3-11.6,3.2c-3.5,0.1-7.2-1.8-10.7-2.8c2.3-2.6,4.4-5.4,7-7.7c3.4-2.9,10.5-6.8,10.1-7.9
		c-3.6-8.7-8.6-16.9-13.1-25.3c-2.6,3.7-5.1,7.5-7.9,11c-1.5,1.9-3.4,4.3-5.4,4.6c-25,3.4-12.4,15.5-5.1,24.6
		c5.8,7.2,13.9,12.5,20.8,18.8c1.6,1.4,2.5,3.6,3.7,5.5c-1.9,1.1-3.9,3.3-5.7,3.1c-4.7-0.5-10.1-0.8-13.8-3.3
		c-10.2-6.9-19.6-15-29.3-22.6c-2.2-1.7-4.4-3.3-6.5-5c-1.1,3.2-3.2,6.3-3.1,9.5c0.3,14.9-6.5,46.6-6.4,48.5
		c0.3,6.8-6.2,28.5-6.3,32.6c-0.6,32.2-1.1,64.4-0.2,96.5c0.5,17.3,4.9,34.5,5.6,51.8c0.9,20.3-2,40.9,0.2,61.1
		c1,9.8,5.2,11.3-1.4,15.5c4,5.9,19.5,26.2,22.5,32.6c2.7,5.9,3.5,12.8,5.2,19.2c4.1,15.7,8.1,31.6,12.7,47.1
		c0.5,1.7,3.8,3.5,5.9,4.4c-0.5-4.2-0.7-7-0.8-7.6v1v-1c0.6,3,2.8,8.2,2.8,8.2c-0.1,0.1-0.9-0.2-2-0.7c2,18.7,7.4,65.1,15.7,66.2
		l53.6-3.7c1.1-1.8,3-3.6,3.1-5.4c0.3-5.3-0.2-10.6-0.3-15.9c-0.1-9.5-1.4-19.2,0.1-28.5c5-32.6,10.8-65.1,16.7-97.6
		c3.2-17.6,7-35.1,10.9-52.5c2.1-9.3,5.2-18.4,7.6-27.6c1.9-7.1,3.7-14.1,5.4-21.2c-0.6,0.4-1.3,0.9-1.9,1.3
		c0.6-0.5,1.2-0.9,1.9-1.3c1.4-5.4,2.7-10.8,4.1-16.2C-438.1,6.1-436.4,2-436.4-6.7z"/>
	<path fill="#788E92" d="M-616.5,121.6c2.4,7,9,12.5,13.4,16.9c6,6,10,15,17,21c0.7,0.7,0.9,2.7,1.9,3.6c-0.9-5.4-1.9-10.8-2.9-16.2
		"/>
	<path fill="#D49B8D" stroke="#7A98A0" stroke-miterlimit="10" d="M-525.2-231.8c-6-8.1-13.6-14-12.7-18.1
		c1.2-5.7,8.8-9.9,13.7-14.8c4.5,6.4,9.7,12.4,12.8,19.4C-510.7-243.7-517.8-238.7-525.2-231.8z"/>
	<path fill="#EEE5D5" stroke="#7A98A0" stroke-miterlimit="10" d="M-475.5-299.7c2.1-6.7,2.3-12.3,5.2-15.5
		c4.6-5,10.9-8.4,16.5-12.5c-0.6,5.6-0.9,11.3-1.8,16.8c-0.6,4.2-1.4,8.4-3,12.3c-1.6,4-4.3,7.5-6.6,11.2
		C-468.7-291.6-472.2-295.8-475.5-299.7z"/>
	<path fill="#EEE5D5" stroke="#7A98A0" stroke-miterlimit="10" d="M-584.5-309.6c-3.1,5.6-5.1,9.2-7.2,12.8c-3-2.2-6.3-4.1-9-6.6
		c-1.7-1.6-2.8-3.9-3.7-6.1c-2.1-5.8-3.9-11.8-5.9-17.7c1.6,0,3.7-0.8,4.7,0C-598.3-321.4-591.5-315.5-584.5-309.6z"/>
	<g id="tbLA5J.tif">
		
			<image overflow="visible" width="149" height="226" id="Layer_0_7_" xlink:href="3E71DA1877C3C17B.png"  transform="matrix(1 0 0 1 -6630.3208 2166.2195)">
		</image>
	</g>
	<path fill="#788E92" d="M57,272.1c26.2-34.1,19.6-72.8,21.9-95.5c1.8-18.7-4-70.7-5.9-79c-0.1-0.6-7.4-23.9-7.7-24.5
		c-3.6-7.7-31.8-60.5-46-70.4c-4.7-3.3-10.5-4-14,0.5L2,7.3c-2.4,3-2.7,7.1-0.7,10.4c6.9,11.8,23.3,39.9,30.5,52.2
		c9.2,15.8,14,71.1,16.3,104.7c1.5,21.9-12.5,72-13.2,72.6c-1.7,1.6-9.5,47,4.8,35.8C42.8,286,55.9,273.6,57,272.1z"/>
</g>
<g id="Layer_9">
</g>
<g id="Layer_7">
</g>
<g id="Layer_2">
	<g>
		<rect x="-8274.9" y="1013.8" fill="#F9DCC4" width="837.7" height="1385.7"/>
		<path fill="#4B3246" d="M-7021.8,1914.9c-3.2-0.1-6.3-3.9-9.4-5.9"/>
		<path fill="#4B3246" d="M-7265.5,1631.1c-3.3,0.8-6.8,2.6-10,2.1c-6.8-1-13.4-3.1-20-4.7c7.7,0.2,15.4,0.4,23.1,0.6
			c2.1,0.1,4.1,0.1,6.2,0.1C-7265.9,1629.9-7265.7,1630.5-7265.5,1631.1z"/>
		<path fill="#4B3246" d="M-7437.2,694.3"/>
		<path fill="#4B3246" d="M-7457.8,675.5"/>
		<path fill="#4B3246" d="M-7684.1,572.3c0.7-0.4,1.4-0.8,1.9-1.1"/>
		<path fill="#4B3246" d="M-7493.5,653.6c6.1,3.4,11.5,6.4,16.9,9.5"/>
		<path fill="#4B3246" d="M-6887.2,2359.5"/>
		<path fill="#4B3246" d="M-6904,801.7"/>
		<path fill="#4B3246" d="M-7299.1,2043.9c-4.4-1.9-10.6-4.7-16.8-7.4c2.6-2.1,5.5-6.3,7.9-6c7.4,0.8,14.6,3.2,21.9,5.1
			C-7289.2,2037.6-7292.3,2039.6-7299.1,2043.9z"/>
		<path fill="#4B3246" d="M-7273.2,2018.9c-6.9,1.9-13.7,4.4-20.7,5.5c-2.9,0.4-6.2-2.1-9.3-3.3c2-2.2,3.6-5.6,6.1-6.4
			c3.9-1.3,8.5-1.8,12.5-1.1C-7280.7,2014.4-7277,2017.1-7273.2,2018.9C-7273.2,2018.9-7273.2,2018.9-7273.2,2018.9z"/>
		<path fill="#4B3246" d="M-7377.3,1966.2c-0.7-5.7-1.4-11.4-2-17.1c6.7,1.1,13.4,2.1,20,3.4c0.3,0.1,0.8,2.6,0.3,3.4
			c-0.8,1.3-2.3,2.5-3.7,3.3c-4.9,2.5-9.9,4.9-14.8,7.3C-7377.6,1966.4-7377.3,1966.2-7377.3,1966.2z"/>
		<path fill="#4B3246" d="M-7358.2,894.6c6.4,1.3,12.3,2.4,18.1,3.6c-5.3,2.2-10.4,6-15.8,6.2c-5,0.2-10.2-3.2-15.4-5.1
			C-7367,897.8-7362.7,896.3-7358.2,894.6z"/>
		<path fill="#4B3246" d="M-7373.4,1809c5.7,3.1,10.3,5.6,14.9,8.2c-1.5,1.5-3.2,4.3-4.4,4.1c-7.4-1.1-14.8-3-22.2-4.5
			C-7381.7,1814.5-7378.2,1812.2-7373.4,1809z"/>
		<path fill="#4B3246" d="M-7272.5,1795.8c-3.6,1.7-7.1,3.9-10.9,4.8c-3.2,0.7-6.8-0.2-10.2-0.4c0.8-3.3,1.7-6.7,2.5-10
			c6.1,1.9,12.2,3.9,18.3,5.8C-7272.7,1796.1-7272.5,1795.8-7272.5,1795.8z"/>
		<path fill="#4B3246" d="M-7346.5,2088.1c-6.6-3.1-12.1-5.6-17.5-8.1c1.7-0.8,3.7-2.6,5.2-2.3c7,1.3,13.9,3.3,20.9,5
			C-7340.6,2084.3-7343.2,2086-7346.5,2088.1z"/>
		<path fill="#4B3246" d="M-7378.4,1840.3c-4,0.5-7.9,1-11.9,1.5c-3.6,0.4-7.3,0.7-10.9,1.1c0.4-1.8,0.3-4.8,1.2-5.2
			c4-1.5,8.3-2.7,12.6-3.1c3.1-0.3,6.5,0.4,9.5,1.3c3.6,1.1,7,2.9,10.4,4.5c-3.6,0.3-7.2,0.6-10.8,0.9
			C-7378.3,1840.9-7378.4,1840.6-7378.4,1840.3z"/>
		<path fill="#4B3246" d="M-7290.2,1809.1c1.8,4.6,4,7.7,3.7,10.6c-0.1,1.6-4.4,4.3-6.6,4.1c-4.9-0.4-9.8-2.2-14.7-3.5
			C-7302.4,1817-7297.1,1813.5-7290.2,1809.1z"/>
		<path fill="#4B3246" d="M-7282.8,1541.5c-3.3,2.1-7.2,6.4-9.7,5.7c-3.6-1-6.3-5.6-9.3-8.7c3.5,0.5,7,1,10.5,1.5
			c2.8,0.5,5.6,1.1,8.5,1.6C-7282.9,1541.7-7282.8,1541.5-7282.8,1541.5z"/>
		<path fill="#4B3246" d="M-7328.5,904.4c-2.9-2.6-5.5-4.6-7.5-7c-0.2-0.3,2.5-4.2,3.2-4c6.1,1.5,12.1,3.6,18.1,5.6
			C-7318.6,900.5-7322.6,902.1-7328.5,904.4z"/>
		<path fill="#4B3246" d="M-7361.8,1284.3c-7.5-0.9-13.1-1.6-18.7-2.3c4.4-2.3,8.7-5.5,13.4-6.5c2.7-0.6,6.2,2.2,9.3,3.5
			C-7359.2,1281.1-7360.8,1283.1-7361.8,1284.3z"/>
		<path fill="#4B3246" d="M-7280.7,1965.9c1.7,2.5,3.6,5.1,3.5,5.2c-3.9,3.1-7.7,6.5-12.2,8.7c-1.4,0.7-4.5-1.9-6.8-3
			C-7291.3,1973.4-7286.5,1970-7280.7,1965.9z"/>
		<path fill="#4B3246" d="M-7379.7,1916.6c2.5,2.3,5.9,4.3,5.6,5.3c-1.2,3.8-3.5,7.2-5.4,10.7c-3.2-2.8-6.3-5.6-9.5-8.4
			C-7386.1,1921.9-7383.3,1919.6-7379.7,1916.6z"/>
		<path fill="#4B3246" d="M-7324.8,2052.9c5.6,1.9,9.5,3.2,13.4,4.4c-2,1.2-3.9,3.3-5.9,3.4c-6.5,0.1-12.9-0.5-19.4-0.8
			C-7332.6,2057.5-7328.5,2055.1-7324.8,2052.9z"/>
		<path fill="#4B3246" d="M-7329.9,2240.8c-1.6-1-4.9-2.9-8.2-4.9c3.4-1.7,7-5.2,10.1-4.8c4.6,0.5,8.8,3.8,13.2,6
			C-7319.3,2238.2-7323.9,2239.3-7329.9,2240.8z"/>
		<path fill="#4B3246" d="M-7301.5,1999.2c-2.9-1.6-5.3-2.7-5.2-2.8c1.4-3.6,3.1-7.1,4.8-10.6c2.8,2.1,5.5,4.3,8.3,6.4
			C-7296.3,1994.6-7299,1996.9-7301.5,1999.2z"/>
		<path fill="#4B3246" d="M-7268.5,1712.7c-9,2-13.8,4.1-18.4,3.7c-3.1-0.3-5.8-4.4-8.7-6.7c0.9-0.8,1.9-2.3,2.6-2.2
			C-7286.3,1708.7-7279.6,1710.3-7268.5,1712.7z"/>
		<path fill="#4B3246" d="M-7335.1,1973.1c4.8,0.5,10.3,1,15.9,1.5c-3.4,1.5-6.9,4-10.3,4.1c-4.2,0.1-8.5-2-12.7-3.1
			C-7340.3,1974.9-7338.3,1974.2-7335.1,1973.1z"/>
		<path fill="#4B3246" d="M-7377.6,1966.4c1.7,2.7,3.4,5.5,5.1,8.2c-2.7,0.5-5.9,2-8,1.1c-3.3-1.5-6-4.6-8.9-7.1
			c2.7,0.5,5.5,1.6,8.2,1.3c1.4-0.1,2.6-2.5,3.9-3.8C-7377.3,1966.2-7377.6,1966.4-7377.6,1966.4z"/>
		<path fill="#4B3246" d="M-7315.7,1237.5c-3.9,4.3-7.1,7.9-10.4,11.5c-1.4-1.9-4.3-4.9-4-5.4c2.2-2.9,4.9-5.7,8-7.3
			C-7320.4,1235.4-7317.5,1237.1-7315.7,1237.5z"/>
		<path fill="#4B3246" d="M-7281.7,1947.9c-3.3,2.8-4.9,4.7-6.9,5.7c-0.7,0.4-3.5-1.2-3.5-1.6c0.6-4.6,1.5-9.2,2.3-13.7
			C-7287.4,1941-7285.1,1943.8-7281.7,1947.9z"/>
		<path fill="#4B3246" d="M-7297.9,956.6c-3.4,2.1-6.5,4.6-6.9,4.2c-2.1-2-5.4-5.3-4.8-7.1c0.8-2.6,4.5-4.4,6.9-6.5
			C-7301.5,949.6-7300.3,952-7297.9,956.6z"/>
		<path fill="#4B3246" d="M-7296.8,1698.1c-3.1-2.6-5.1-4.3-7.2-6c3.1-2.3,6.1-4.5,9.2-6.8c1.5,2.4,4,4.7,4.3,7.2
			C-7290.3,1693.9-7293.9,1695.7-7296.8,1698.1z"/>
		<path fill="#4B3246" d="M-7342.4,2245.8c-2.8-2.4-6.1-5.2-9.5-8.1c1.1-1.1,3-3.3,3.3-3.1c4.5,2.9,8.8,6.1,13.1,9.2
			C-7337,2244.3-7338.6,2244.8-7342.4,2245.8z"/>
		<path fill="#4B3246" d="M-7332.9,1275.7c2.6,1.6,4.3,2.6,5.9,3.6c-2.7,1.7-5.3,3.9-8.2,4.8c-1.2,0.4-3.2-2.1-4.9-3.2
			C-7337.9,1279.3-7335.7,1277.8-7332.9,1275.7z"/>
		<path fill="#4B3246" d="M-7393.2,1817c-2.6,1.7-4.2,3.6-5.3,3.3c-3.1-0.7-6-2.4-9-3.6c2.5-1.9,4.8-4.4,7.6-5.3
			C-7398.6,1810.9-7396.3,1814.2-7393.2,1817z"/>
		<path fill="#4B3246" d="M-7281.4,1902c-5.9,7.1-7.3,8.8-8.7,10.5c-1.8-4.2-3.8-8.4-5.3-12.7c-0.2-0.5,1.9-2.5,2.4-2.4
			C-7289.3,1898.6-7285.8,1900.2-7281.4,1902z"/>
		<path fill="#4B3246" d="M-7326.2,1750.3c4,1.3,7.4,2.3,10.8,3.4c-2.2,1.1-4.4,3.1-6.5,3c-3.3-0.2-6.6-1.9-9.8-3
			C-7330,1752.7-7328.2,1751.6-7326.2,1750.3z"/>
		<path fill="#CAB9AA" d="M-8447.6,622.7c0,0-0.1,0-0.1,0c0,0.1,0,0.1-0.1,0.2L-8447.6,622.7z"/>
		<path fill="#4B3246" d="M-8245.8,522.7c0.1-0.1,0.1-0.1,0.2-0.2c0,0-0.1,0-0.1,0C-8245.7,522.6-8245.8,522.6-8245.8,522.7z"/>
		<path fill="#4B3246" d="M-8460.1,659.8"/>
		<path fill="#4B3246" d="M-8439.6,648.8c-2.7-8.7-5.4-17.4-8-26.1"/>
		<path fill="#4B3246" d="M-8401.9,608"/>
		<path fill="#4B3246" d="M-8391.8,628.3"/>
		<path fill="#4B3246" d="M-8404.3,2208.8c2.2,0,5.1-0.8,7.4,0.1c3.6,1.4,6.7,4,10,6c-3.5,1.8-6.9,3.8-10.6,5.1
			C-8397.8,2220.3-8399.6,2216.6-8404.3,2208.8z"/>
		<path fill="#4B3246" d="M-7759.8,796.5c5.8,3.1,11.1,5.8,16.4,8.6c-1.1,0.8-2.6,2.6-3.3,2.3c-5.6-2.1-11.1-4.6-16.6-6.9
			C-7762.3,799.3-7761.3,798.1-7759.8,796.5z"/>
		<path fill="#4B3246" d="M-7987.5,788.6c-3.5-1.6-6.9-3.1-10.2-4.6c3.6-0.7,7.2-2.1,10.8-2c2.9,0.1,5.8,1.8,8.7,2.8
			C-7981.1,786-7984,787.2-7987.5,788.6z"/>
		<path fill="#4B3246" d="M-7239.1,2207.1"/>
		<path fill="#4B3246" d="M-7208.3,2216.4"/>
		<path fill="#4B3246" d="M-7237.1,2187.4c-2.4,0.1-4.9-2.9-7.4-4.6"/>
		<path fill="#EEE5D5" d="M-8159.2,1070.6h595.4c26.4,0,48,21.6,48,48v1281h-691.4v-1281
			C-8207.2,1092.2-8185.6,1070.6-8159.2,1070.6z"/>
		<path fill="#C56C76" d="M-7519.4,1118.4h-691.4v0c0-26.3,21.5-47.8,47.8-47.8h595.8C-7540.9,1070.6-7519.4,1092.1-7519.4,1118.4
			L-7519.4,1118.4z"/>
		<path fill="none" d="M-8460.7,1259.5c1.7-12.9,5.1-25.5,10-37.5c5.9-0.3,8.8-5.7,9.3-11.6"/>
		
			<line fill="none" stroke="#788E92" stroke-width="20" stroke-miterlimit="10" x1="-8274.9" y1="1005.2" x2="-7449.8" y2="1005.2"/>
		<pattern  id="SVGID_3_" xlink:href="#New_Pattern" patternTransform="matrix(0.9371 0 0 0.9371 144.9732 -587.0605)">
		</pattern>
		<path fill="url(#SVGID_3_)" d="M-7259.8,893.4c2.6-5.9,2.7-11.7-1.2-15.9C-7345.8,788-7618.8,546-7877.2,546
			c-249.6,0-492.2,231.7-582.2,328.1h-11.5v13c-3.8,6.2-3.3,13.5,0,19.2v1568h196V915.4h837.5v1359.1h187.7V893.4H-7259.8z"/>
		<rect x="-8473.5" y="588" fill="#D49B8D" width="1212.7" height="420.8"/>
		<polygon fill="#C56C76" stroke="#C56C76" stroke-miterlimit="10" points="-8274.9,1013.8 -8332.7,915.4 -7388.9,915.4 
			-7437.2,1013.8 		"/>
		<g id="XMLID_3_">
			<g>
				<path fill="#C56C76" d="M-7286.2,807.4c0,0-280.2-283.6-584.1-283.6S-8443.6,818-8443.6,818l-296.3-14.1l0.1-60.8l280,3.4
					c0,0,221.8-273.1,591.1-275.6c352.9-2.3,615.6,282.4,615.6,282.4h267.9V801L-7286.2,807.4z"/>
			</g>
			<g>
			</g>
		</g>
		<path fill="#F9DCC4" d="M-8332.7,916.7h943.8c0,0-238.4-222.4-476.4-222.4S-8332.7,916.7-8332.7,916.7z"/>
		<polygon fill="#FDF0D9" points="-7856,894.6 -7876.3,899.5 -7904.5,727.4 -7825.8,727.4 		"/>
		<polygon fill="#FDF0D9" points="-7806.4,893.2 -7826.9,890.3 -7800,736.6 -7726.2,764 		"/>
		<polygon fill="#FDF0D9" points="-7920.3,890.6 -7938.8,899.7 -8003.4,756.2 -7927,737.3 		"/>
		<polyline fill="#F9DCC4" points="-7268.4,2489.8 -6860.6,2505.3 -6901,2332.4 -6972.3,2292.8 -6974.2,2038.7 -7021.5,1972.9 
			-7036,1081 -7003.3,1047.6 -7033.7,1015.9 -7040.8,872.6 -7282,872.6 		"/>
		<rect x="-7212.5" y="915.1" fill="#FDF0D9" width="127.1" height="86.8"/>
		<rect x="-7260.9" y="1015.9" fill="#FDF0D9" width="223.9" height="62.3"/>
		<rect x="-7201.4" y="1343.7" fill="#FDF0D9" width="105" height="354.8"/>
		<circle fill="#FDF0D9" cx="-7149" cy="1178.6" r="45"/>
		<polygon fill="#FDF0D9" points="-7016.8,1972.9 -6969.5,2038.7 -7265.5,2025.3 -7264.6,1960.5 		"/>
		
			<line fill="#D49B8D" stroke="#D49B8D" stroke-width="40" stroke-miterlimit="10" x1="-7861.5" y1="1118.1" x2="-7861.5" y2="2399.6"/>
		<path fill="#C56C76" d="M-8739.9,802.9h277.2c0,0,285.3-286.5,592.3-286.5S-7270.9,800-7270.9,800h285.7l-55.6,72.6H-7282
			c0,0-327.4-284.6-586.4-284.6c-259,0-584.5,286.1-584.5,286.1l-238.6-1.2L-8739.9,802.9z"/>
		<path fill="#F9DCC4" d="M-7604,467.8c-3.2-2.6-6.6-4.7-10.3-6.4c-1.1-1.2-2.3-2.4-3.5-3.6c2.2-1.6,3.1-5,0.1-7.2
			c-0.6-0.4-1.1-0.8-1.7-1.1c-2-1.5-3.3-3.3-4.2-6c-1.9-5.5-9.9-2.2-8.8,3.1c-1.8,0.2-3.5,0.6-5.3,1.3c-3.8,1.4-3.6,7.2,0.1,8.6
			c0.2,0.1,0.4,0.2,0.6,0.2c-5.6,0.2-11.3,1.3-16.7,3.3c-2,0.8-3.1,3.2-2.7,5.3c-0.2,0-0.3,0-0.5-0.1c0-1.7-0.9-3.3-2.9-3.8
			c-6.8-1.9-13.6-3.8-20.4-5.5c1.3-2.3,0.7-5.8-2.1-6.9c-19.5-7.4-39.5-13.4-59.8-17.8c-0.6-0.5-1.3-0.8-2.1-0.9
			c-2.1-0.3-4.2-0.6-6.3-0.8c-14.1-2.8-28.4-4.8-42.8-6.1c-6-0.5-7.1,8.8-1.1,9.3c1.1,0.1,2.1,0.2,3.2,0.3c-3.5,1-7,2.1-10.4,3.4
			c-1.9,0.1-3.9,0.1-5.8,0.3c-6,0.4-4.6,9.7,1.4,9.3c0.3,0,0.5,0,0.8,0c0.2,0.1,0.5,0.2,0.8,0.3c0.8,0.2,1.5,0.4,2.3,0.7
			c-2.8,2.5-2.5,8.1,2.2,8.1h26.2c1.1,0,2-0.3,2.7-0.8c6,1.1,12.1,2,18.2,2.8c25.4,13.7,52.8,23.3,81.3,28.4
			c7.4,2.5,15.7,3.5,21.8-1.4c8.1-0.4,16.2-1.5,24.2-3.2c1.3-0.3,2.4-1.2,3.1-2.4c5.5-0.3,10.9-1.1,16.3-2.3
			C-7602.2,475.3-7600.8,470.4-7604,467.8z M-7640.6,466.3c2.2-0.3,4.3-0.4,6.5-0.3C-7636.3,466.1-7638.4,466.2-7640.6,466.3z
			 M-7655.7,474.8c-4,0-7.9-0.1-11.9-0.4c0.2-0.3,0.4-0.7,0.5-1.1C-7663.3,473.8-7659.5,474.3-7655.7,474.8z M-7724.4,459.2
			c3.7,1.7,7.5,3.3,11.3,4.8c-0.2,0.1-0.4,0.3-0.5,0.5c-4.6-1.7-9.1-3.4-13.5-5.3C-7726.2,459.2-7725.3,459.2-7724.4,459.2z
			 M-7744.7,440.3c11,2.4,22,5.2,32.8,8.6c-7.3-1.5-14.6-2.8-22-4c-3.1-0.5-4.9,1.8-5,4.3c-1.7-0.1-3.5-0.3-5.2-0.5
			c-2.7-1.3-5.5-2.5-8.4-3.6C-7749.9,443.4-7747.3,441.8-7744.7,440.3z M-7773,438.9c4.5-0.5,9-0.7,13.6-0.6
			c-0.3,0.2-0.6,0.4-0.9,0.6c-1.1,0.6-1.7,1.5-1.9,2.4c-0.5-0.1-0.9-0.1-1.4,0C-7766.7,440.3-7769.8,439.6-7773,438.9z"/>
		<path fill="#F9DCC4" d="M-8415.6,623.5c-3.6-0.5-7.2-0.8-10.7-1.1c1.1-4.1-3.2-8.8-7.1-5.3l-5.1,4.5c-30.3-1.4-60.8,1.9-90.1,10
			c-4,1.1-5.3,7.4-1.7,9c-10.2-0.4-20.4-1.4-30.6-3.2c-5.9-1-7,8.3-1.1,9.3c26.2,4.6,53,4.6,79.2,0.2c0.1,2.3,1.5,4.6,4.1,4.7
			c11.5,0.1,22.1-3,31.7-9.2c-1.4,3.1-2.8,6.1-4.2,9.3c-1.6,3.8,2.5,7.7,6.2,6.1c9-3.9,14.3-13.7,12.5-23.3l17.2-1.5
			C-8410.1,632.3-8410.5,624.2-8415.6,623.5z"/>
		<path fill="#F9DCC4" d="M-7575.5,423.7c-3.7-1.7-7.5-3.3-11.2-5c-0.1-1-0.6-2-1.6-2.9c-8.6-7.7-18.7-13.4-29.6-16.8
			c-2.9-0.9-5.2,0.9-6.1,3.1l-19.3-8.6c-5.5-2.5-9,6.2-3.5,8.7l67.8,30.1C-7573.5,434.8-7570,426.2-7575.5,423.7z"/>
		<path fill="#F9DCC4" d="M-7605.1,481.1c-4.7-0.5-6.4,5.1-4,7.9c-4.2,0.7-6,7.3-1.2,8.9c4.1,1.4,8.2,2.7,12.3,4.1
			c2.9,1,6-0.6,6.4-3.8C-7590.5,489.8-7596.7,482-7605.1,481.1z"/>
		<path fill="#F9DCC4" d="M-7465.3,560.9c1.5,0,2.9,0,4.4-0.1c1.2,1.6,2.3,3.4,3.1,5.2C-7460.4,564.3-7462.8,562.6-7465.3,560.9z
			 M-7426.7,544.5c-1.5,0.6-3.1,1.1-4.7,1.6c-1.5-1.8-2.8-3.8-3-5.6C-7431.5,541.2-7428.9,542.5-7426.7,544.5z M-7415.6,576.5
			L-7415.6,576.5c-1-0.7-2-1-3-0.9c-6.9-2-13.8-4.1-20.6-6.1c-0.8-0.2-1.6-0.3-2.3-0.1l-1.8-2.1c-1.3-1.5-3-2-4.7-1.5
			c-0.6-2-1.5-3.9-2.4-5.7c5.4-0.7,10.7-1.7,15.9-3.1c3.7,3.8,7.8,7.2,10.5,9.9c3.5,3.5,7,6.9,10.5,10.4
			C-7414.3,576.9-7414.9,576.7-7415.6,576.5z M-7417.2,552.5c-2.4,0-4.2,1.3-4.8,3.1c-0.7-0.7-1.4-1.4-2.1-2.1
			c2.2-0.8,4.4-1.7,6.6-2.6c0.8-0.4,1.5-1,2-1.8c1.2,1.3,2.3,2.5,3.5,3.9C-7413.7,552.7-7415.5,552.6-7417.2,552.5z M-7185.9,667.2
			c-0.4-0.3-0.7-0.7-1.1-1c0.8,0,1.5,0.1,2.3,0.1C-7185.2,666.5-7185.6,666.8-7185.9,667.2z M-7051.9,725.4c-0.2,0.1,0.4,0.9,0.5,2
			c-0.2,0-0.5,0-0.9,0C-7052.5,726.8-7052.6,725.9-7051.9,725.4z M-7112.3,708.6c-0.3,1.5-0.5,3.2-0.4,5.1c0.1,0.8,0.2,1.7,0.3,2.5
			c-6.1-2-12.2-4.3-18.2-7.1C-7124.4,709.3-7118.3,709.1-7112.3,708.6z M-7153.2,651.4c-6.2-1.1-12.3-2.5-18.3-4
			c12,0.2,23.9,1.3,35.7,3.4C-7141.6,651.2-7147.4,651.4-7153.2,651.4z"/>
		<path fill="#F9DCC4" d="M-8739.8,743.1l280,3.4c0,0,274.1-275.6,591.1-275.6s615.6,282.4,615.6,282.4h267.9l34-109.6h-242.6
			c0,0-337.7-316.1-689.1-316.1s-635.7,288.9-635.7,288.9H-8777L-8739.8,743.1z"/>
		<rect x="-8490" y="2246.2" fill="#F9DCC4" width="1252.9" height="228.4"/>
		<polyline fill="#F9DCC4" points="-8457.3,2482.7 -8865,2498.2 -8824.6,2325.3 -8753.3,2285.7 -8751.4,2031.6 -8704.2,1965.8 
			-8689.6,1073.9 -8722.3,1040.5 -8691.9,1008.8 -8690.9,871.5 -8452.9,874.1 		"/>
		<rect x="-8640.2" y="908" fill="#FDF0D9" width="127.1" height="86.8"/>
		<rect x="-8688.6" y="1008.8" fill="#FDF0D9" width="223.9" height="62.3"/>
		<rect x="-8629.2" y="1336.6" fill="#FDF0D9" width="105" height="354.8"/>
		<circle fill="#FDF0D9" cx="-8576.7" cy="1171.5" r="45"/>
		<polygon fill="#FDF0D9" points="-8708.9,1965.8 -8756.1,2031.6 -8460.1,2018.2 -8461,1953.4 		"/>
		<polygon fill="#FDF0D9" points="-8827.4,2325.3 -8457.3,2303 -8457.3,2254.2 -8756.1,2271.2 		"/>
		<polygon fill="#FDF0D9" points="-6898.2,2332.4 -7268.4,2310.1 -7268.4,2261.3 -6969.6,2278.3 		"/>
	</g>
</g>
<g id="Layer_3">
	
		<rect x="-7640.9" y="-244.4" fill="url(#New_Pattern_Swatch_7)" stroke="#DE6757" stroke-width="7" stroke-miterlimit="10" width="140" height="76"/>
</g>
</svg>
