<?xml version="1.0" encoding="utf-8"?>
<!-- Generator: Adobe Illustrator 18.1.1, SVG Export Plug-In . SVG Version: 6.00 Build 0)  -->
<svg version="1.1" id="Layer_1" xmlns="http://www.w3.org/2000/svg" xmlns:xlink="http://www.w3.org/1999/xlink" x="0px" y="0px"
	 viewBox="-5.9 671.1 810 544.5" enable-background="new -5.9 671.1 810 544.5" xml:space="preserve">
<g>
	<path id="world" fill="#CBD702" d="M-745.6-786c-75.3,2.5-134.2,65.6-131.6,140.9c2.6,75.3,65.6,134.2,140.9,131.6
		C-661-516-602.1-579-604.7-654.3C-607.2-729.6-670.3-788.5-745.6-786z M-622.6-658.1l-52.7,1.8c-1.1-19.4-5.2-37.9-12-54.7
		c11.7-5.4,22.5-12.3,32.2-20.5C-636.7-712.2-624.7-686.6-622.6-658.1z M-741.8-531.1c-15-11.7-27.8-27-37.4-45.1
		c11.4-4,23.5-6.4,36.1-7.2l1.8,52.3C-741.5-531-741.6-531-741.8-531.1z M-740.1-768.3c17,13.2,31.2,31.3,41.1,52.5
		c-12.4,4.7-25.6,7.6-39.5,8.5l-2.1-61.1C-740.5-768.3-740.3-768.3-740.1-768.3z M-725.5-767.3c24.4,3.2,46.5,13.8,64.1,29.6
		c-9,7.4-18.8,13.7-29.5,18.6C-699.6-737.8-711.4-754.2-725.5-767.3z M-749.4-768l2.1,61.1c-13.9,0-27.3-2-40-5.9
		c8.4-21.9,21.3-40.8,37.5-55.2C-749.7-768-749.5-768-749.4-768z M-795.6-715.5c-11-4.1-21.3-9.8-30.7-16.5
		c16.4-17,37.8-29,61.9-33.9C-777.6-751.9-788.3-734.8-795.6-715.5z M-790.3-704.5c13.7,4.2,28.3,6.5,43.3,6.5l1.5,44.2l-52.6,1.8
		C-798.2-670.6-795.6-688.3-790.3-704.5z M-745.2-645.1l1.8,53c-13.9,0.9-27.2,3.6-39.7,8.1c-8.2-17.9-13.4-37.9-14.7-59.3
		L-745.2-645.1z M-756.5-532c-21.9-2.9-42-11.7-58.5-24.9c8.5-6.3,17.6-11.7,27.5-15.9C-779.2-557.2-768.7-543.5-756.5-532z
		 M-732.5-531.4l-1.8-52.3c12.6,0,24.9,1.5,36.5,4.7c-8.4,18.6-20,34.9-34.3,47.5C-732.2-531.4-732.4-531.4-732.5-531.4z
		 M-689.4-576.2c10.1,3.5,19.6,8.3,28.5,14c-15.6,14.3-35,24.5-56.6,28.8C-706.1-545.5-696.5-560-689.4-576.2z M-694.5-587
		c-12.8-3.6-26.3-5.5-40.1-5.4l-1.8-53l52.6-1.8C-683.7-625.8-687.5-605.5-694.5-587z M-736.7-654.2l-1.5-44.2
		c15-1,29.4-4.2,42.8-9.4c6.3,15.9,10.2,33.4,11.3,51.8L-736.7-654.2L-736.7-654.2z M-832.1-725.5c10.3,7.5,21.5,13.6,33.5,18.2
		c-5.5,17.2-8.4,36-8.2,55.5l-52.7,1.8C-859.5-678.6-849.3-704.9-832.1-725.5z M-859.3-641.3l52.7-1.8c1.3,22.5,6.7,43.5,15.4,62.3
		c-11,4.7-21.2,10.9-30.5,18C-843.1-582.5-857.1-610.2-859.3-641.3z M-654.5-568.4c-9.8-6.5-20.4-12-31.7-15.9
		c7.3-19.4,11.3-40.7,11.1-63.2l52.7-1.8C-622.5-618.2-634.5-589.6-654.5-568.4z"/>
</g>
<g>
	<path id="world_1_" fill="#51DAD0" stroke="#CAF0FE" stroke-miterlimit="10" d="M-799.9-432c-75.3,0-136.4,61-136.4,136.4
		s61,136.4,136.4,136.4s136.4-61,136.4-136.4S-724.6-432-799.9-432z M-681.4-300h-52.8c-0.5-19.5-4-38.1-10.1-55.1
		c11.9-5,22.9-11.5,32.9-19.3C-693.6-354.5-682.4-328.6-681.4-300z M-804.8-177.1c-14.6-12.2-26.9-28-35.9-46.4
		c11.5-3.6,23.7-5.6,36.3-6v52.3C-804.5-177.1-804.6-177.1-804.8-177.1z M-795.1-414.1c16.6,13.8,30.1,32.3,39.3,53.9
		c-12.5,4.3-25.9,6.8-39.7,7.2v-61.2C-795.4-414.2-795.2-414.2-795.1-414.1z M-780.4-412.7c24.3,4,46,15.4,63,31.8
		c-9.2,7-19.3,13-30.1,17.6C-755.6-382.3-766.8-399-780.4-412.7z M-804.3-414.2v61.1c-13.9-0.5-27.2-2.9-39.7-7.2
		c9.1-21.6,22.7-40.1,39.3-53.9C-804.6-414.2-804.5-414.2-804.3-414.2z M-852.3-363.3c-10.9-4.5-21-10.5-30.1-17.6
		c17-16.4,38.7-27.8,63-31.8C-833.1-399-844.3-382.3-852.3-363.3z M-847.4-352.1c13.5,4.7,28,7.5,43,7.9v44.2h-52.6
		C-856.5-318.5-853.2-336-847.4-352.1z M-804.3-291.2v53c-13.9,0.4-27.3,2.7-40,6.8c-7.6-18.1-12.1-38.4-12.7-59.8H-804.3z
		 M-819.4-178.6c-21.8-3.6-41.5-13.1-57.6-26.9c8.7-6,18-11.1,28-15C-841.3-204.5-831.2-190.4-819.4-178.6z M-795.5-177.1v-52.3
		c12.6,0.4,24.8,2.4,36.3,6c-9,18.4-21.2,34.2-35.9,46.4C-795.2-177.1-795.4-177.1-795.5-177.1z M-750.9-220.4c10,3.9,19.4,9,28,15
		c-16,13.8-35.8,23.2-57.6,26.9C-768.6-190.4-758.6-204.5-750.9-220.4z M-755.6-231.5c-12.6-4.1-26-6.4-40-6.8v-53h52.6
		C-743.5-269.8-748-249.6-755.6-231.5z M-795.5-300v-44.2c15-0.5,29.5-3.2,43-7.9c5.8,16.1,9,33.7,9.5,52.1H-795.5L-795.5-300z
		 M-888.5-374.5c10,7.8,21,14.4,32.9,19.3c-6.1,17-9.6,35.6-10.1,55.1h-52.8C-917.4-328.6-906.3-354.5-888.5-374.5z M-918.5-291.2
		h52.8c0.5,22.5,5.2,43.7,13.2,62.8c-11.1,4.4-21.5,10.1-31.1,17C-904.3-232-917.3-260.1-918.5-291.2z M-716.2-211.5
		c-9.6-6.9-20-12.6-31.1-17c8-19.1,12.7-40.3,13.2-62.8h52.8C-682.5-260.1-695.6-232-716.2-211.5z"/>
</g>
<rect x="-813.1" y="-803.5" fill="#FFFFFF" width="147.3" height="111.5"/>
<text transform="matrix(1 0 0 1 -807.9999 -703.8182)" fill="#4F4342" font-family="'AmaticSC-Bold'" font-size="113.6364">2015</text>
<line fill="none" stroke="#4F4342" stroke-width="30" stroke-miterlimit="10" x1="-707.1" y1="-649.7" x2="-672.5" y2="-649.7"/>
<line fill="none" stroke="#4F4342" stroke-width="30" stroke-miterlimit="10" x1="-808" y1="-649.7" x2="-773.5" y2="-649.7"/>
<polygon fill="#CAD72B" stroke="#4F4342" stroke-width="20" stroke-miterlimit="10" points="-738.6,-570.6 -768,-616.1 
	-713.9,-618.8 "/>
<circle fill="#51DAD0" cx="397.6" cy="284.1" r="151.5"/>
<path fill="none" stroke="#E8F409" stroke-width="10" stroke-miterlimit="10" d="M394.6,56.1"/>
<path fill="none" stroke="#E8F409" stroke-width="10" stroke-miterlimit="10" d="M394.6,143.1"/>
<line fill="none" stroke="#E8F409" stroke-width="12" stroke-miterlimit="10" x1="397.6" y1="147.1" x2="397.6" y2="60.1"/>
<g>
	<path fill="#E8F409" stroke="#E8F409" stroke-width="12" stroke-miterlimit="10" d="M359.8,99.4c10.3,10.3,23.5,15.9,36.9,16.8
		c-0.9-13.4-6.5-26.6-16.8-36.9c-10.3-10.3-23.5-15.9-36.9-16.8C344,76,349.5,89.1,359.8,99.4z"/>
	<path fill="#E8F409" stroke="#E8F409" stroke-width="12" stroke-miterlimit="10" d="M415.3,79.3c-10.3,10.3-15.9,23.5-16.8,36.9
		c13.4-0.9,26.6-6.5,36.9-16.8c10.3-10.3,15.9-23.5,16.8-36.9C438.8,63.4,425.6,69,415.3,79.3z"/>
</g>
<g>
	<circle fill="#1FB9EF" cx="820.3" cy="629.1" r="151.5"/>
</g>
<g>
	<path fill="#FFFFFF" d="M951.6,587.8c-16,0-27.4-6-37.4-11.3c-9.6-5.1-17.9-9.4-29.9-9.4c-12.4,0-20.5,4.8-29.1,9.8
		c-8.7,5.1-18.5,10.8-32.2,10.8c-13.2,0-23.2-5.2-32.8-10.3c-10.1-5.3-19.6-10.4-33.9-10.4c-13.9,0-21.9,4.8-30.5,9.9
		c-8.4,5-17.9,10.7-32.2,10.7c-14.1,0-23.3-5.2-32.3-10.2c-8.9-5-17.3-9.8-31.7-9.8v-16c18.6,0,29.8,6.3,39.6,11.8
		c8.1,4.6,14.5,8.2,24.4,8.2c9.9,0,16.1-3.7,24-8.5c9.6-5.7,20.4-12.2,38.7-12.2c18.3,0,30.5,6.5,41.4,12.2c8.6,4.5,16,8.5,25.3,8.5
		c9.4,0,16.2-4,24.1-8.6c9.6-5.6,20.5-12,37.2-12c16,0,27.4,6,37.4,11.3c9.6,5.1,17.9,9.4,29.9,9.4c11,0,16.2-3.7,22.8-8.4
		c7.8-5.5,17.4-12.3,36.5-12.3v16c-14,0-20.2,4.3-27.3,9.4C976.2,581.8,967.7,587.8,951.6,587.8z"/>
</g>
<g>
	<path fill="#FFFFFF" d="M951.6,650.1c-16,0-27.4-6-37.4-11.3c-9.6-5.1-17.9-9.4-29.9-9.4c-12.4,0-20.5,4.8-29.1,9.8
		c-8.7,5.1-18.5,10.8-32.2,10.8c-13.2,0-23.2-5.2-32.8-10.3c-10.1-5.3-19.6-10.4-33.9-10.4c-13.9,0-21.9,4.8-30.5,9.9
		c-8.4,5-17.9,10.7-32.2,10.7c-14.1,0-23.3-5.2-32.3-10.2c-8.9-5-17.3-9.8-31.7-9.8v-16c18.6,0,29.8,6.3,39.6,11.8
		c8.1,4.6,14.5,8.2,24.4,8.2c9.9,0,16.1-3.7,24-8.5c9.6-5.7,20.4-12.2,38.7-12.2c18.3,0,30.5,6.5,41.4,12.2c8.6,4.5,16,8.5,25.3,8.5
		c9.4,0,16.2-4,24.1-8.6c9.6-5.6,20.5-12,37.2-12c16,0,27.4,6,37.4,11.3c9.6,5.1,17.9,9.4,29.9,9.4c11,0,16.2-3.7,22.8-8.4
		c7.8-5.5,17.4-12.3,36.5-12.3v16c-14,0-20.2,4.3-27.3,9.4C976.2,644.1,967.7,650.1,951.6,650.1z"/>
</g>
<g>
	<path fill="#FFFFFF" d="M951.6,712.3c-16,0-27.4-6-37.4-11.3c-9.6-5.1-17.9-9.4-29.9-9.4c-12.4,0-20.5,4.8-29.1,9.8
		c-8.7,5.1-18.5,10.8-32.2,10.8c-13.2,0-23.2-5.2-32.8-10.3c-10.1-5.3-19.6-10.4-33.9-10.4c-13.9,0-21.9,4.8-30.5,9.9
		c-8.4,5-17.9,10.7-32.2,10.7c-14.1,0-23.3-5.2-32.3-10.2c-8.9-5-17.3-9.8-31.7-9.8v-16c18.6,0,29.8,6.3,39.6,11.8
		c8.1,4.6,14.5,8.2,24.4,8.2c9.9,0,16.1-3.7,24-8.5c9.6-5.7,20.4-12.2,38.7-12.2c18.3,0,30.5,6.5,41.4,12.2c8.6,4.5,16,8.5,25.3,8.5
		c9.4,0,16.2-4,24.1-8.6c9.6-5.6,20.5-12,37.2-12c16,0,27.4,6,37.4,11.3c9.6,5.1,17.9,9.4,29.9,9.4c11,0,16.2-3.7,22.8-8.4
		c7.8-5.5,17.4-12.3,36.5-12.3v16c-14,0-20.2,4.3-27.3,9.4C976.2,706.3,967.7,712.3,951.6,712.3z"/>
</g>
<path fill="none" stroke="#E8F409" stroke-width="10" stroke-miterlimit="10" d="M820.3,488.1"/>
<path fill="#1FB9EF" d="M913.2,356.2c-25.9,1.8-50.3,12.8-68.7,31.2c-6,6-11.3,12.7-15.7,19.9v-46.7h-17.1v46.7
	c-4.4-7.2-9.6-13.9-15.7-19.9c-18.4-18.4-42.8-29.5-68.7-31.2l-9.8-0.7l0.7,9.8c1.8,25.9,12.8,50.3,31.2,68.7
	c16.8,16.8,38.8,27.5,62.3,30.6v45h17.1v-45c23.5-3,45.4-13.7,62.3-30.6c18.4-18.4,29.5-42.8,31.2-68.7l0.7-9.8L913.2,356.2z"/>
<path fill="none" stroke="#E8F409" stroke-width="10" stroke-miterlimit="10" d="M350.2,1378.9"/>
<g>
	<g>
		<path fill="none" stroke="#E8F409" stroke-width="10" stroke-miterlimit="10" d="M744.1-345.5"/>
	</g>
	<g>
		<path fill="none" stroke="#E8F409" stroke-width="10" stroke-miterlimit="10" d="M744.1-272.3"/>
	</g>
	<g>
		<g>
			<path fill="#E8F409" d="M877.1-135.9c-16,0-27.4-5-37.4-9.5c-9.6-4.3-17.9-7.9-29.9-7.9c-12.4,0-20.5,4-29.1,8.3
				c-8.7,4.3-18.5,9.1-32.2,9.1c-13.2,0-23.2-4.4-32.8-8.7c-10.1-4.5-19.6-8.7-33.9-8.7c-13.9,0-21.9,4.1-30.5,8.4
				c-8.4,4.2-17.9,9-32.2,9c-9.2,0-16.3-1.9-22.6-4.3c1.9,15.1,6.9,29.4,14.4,42.5c2.5,0.5,5.2,0.8,8.2,0.8c9.9,0,16.1-3.1,24-7.1
				c9.6-4.8,20.4-10.3,38.7-10.3c18.3,0,30.5,5.5,41.4,10.3c8.6,3.8,16,7.1,25.3,7.1c9.4,0,16.2-3.4,24.1-7.3
				c9.6-4.7,20.5-10.1,37.2-10.1c16,0,27.4,5,37.4,9.5c9.6,4.3,17.9,7.9,29.9,7.9c2.2,0,4.2-0.1,6.1-0.4c7.6-13,12.6-27.2,14.6-42.2
				C892.4-137.4,885.9-135.9,877.1-135.9z"/>
			<path fill="#E8F409" d="M877.1-92.3c-13.2,0-22.4-4.1-32.1-8.4c-10-4.4-20.4-9-35.2-9c-15.5,0-25.3,4.9-34.9,9.6
				c-8.1,4-15.8,7.8-26.5,7.8c-10.4,0-18.7-3.7-27.5-7.6c-10.9-4.8-22.1-9.8-39.2-9.8c-17,0-26.8,4.9-36.3,9.7
				c-8.2,4.1-15.3,7.7-26.4,7.7c-3.2,0-6.2-0.3-9.2-0.9l-2.3-0.4l-1.1-1.9c-8-13.9-13.1-28.7-15-44.2l-1-7.9l7.9,3.1
				c7,2.7,13.4,4,20.7,4c13,0,21.5-4.3,29.8-8.5c8.7-4.4,17.7-8.9,32.9-8.9c15.4,0,25.9,4.7,36.1,9.2c9.5,4.2,18.5,8.2,30.6,8.2
				c12.5,0,21.3-4.4,29.8-8.6c8.8-4.3,17.9-8.8,31.5-8.8c13.2,0,22.4,4.1,32.1,8.4c10,4.4,20.4,9,35.2,9c7.1,0,13.1-1,18.7-3.2
				l8-3.1l-1,8c-2,15.3-7.1,30-15.1,43.8l-1.2,2.1l-2.5,0.3C881.7-92.5,879.5-92.3,877.1-92.3z M809.7-119c17.1,0,29.5,5.5,39.5,9.9
				c9.4,4.2,16.9,7.5,27.8,7.5c1,0,2,0,2.9-0.1c5.5-9.9,9.4-20.3,11.6-31.1c-4.5,1-9.3,1.5-14.5,1.5c-17.1,0-29-5.3-39.5-9.9
				c-9.4-4.2-16.9-7.5-27.8-7.5c-11.1,0-18.4,3.6-26.8,7.7c-8.7,4.3-19.6,9.7-34.5,9.7c-14.4,0-25.3-4.9-34.9-9.1
				c-10-4.4-18.6-8.3-31.7-8.3c-12.6,0-19.8,3.6-28.1,7.8c-8.5,4.3-19,9.6-34.6,9.6c-5.7,0-11.1-0.7-16.4-2.1
				c2.1,10.9,6,21.4,11.6,31.4c1.6,0.2,3.2,0.3,4.9,0.3c8.6,0,14-2.8,21.6-6.6c9.6-4.8,21.5-10.8,41.1-10.8
				c19.4,0,32.2,5.7,43.5,10.7c8.4,3.7,15,6.7,23.1,6.7c8.1,0,14.1-3,21.8-6.7C779.8-113.1,791.8-119,809.7-119z"/>
		</g>
		<g>
			<path fill="#E8F409" d="M643.1-156.5c9.6-4.8,20.4-10.3,38.7-10.3c18.3,0,30.5,5.5,41.4,10.3c8.6,3.8,16,7.1,25.3,7.1
				c9.4,0,16.2-3.4,24.1-7.3c9.6-4.7,20.5-10.1,37.2-10.1c16,0,27.4,5,37.4,9.5c9.6,4.3,17.9,7.9,29.9,7.9c10.3,0,15.5-2.7,21.5-6.3
				c-0.2-12-2.4-23.5-6.3-34.5c-4.2,1.1-9.2,1.8-15.2,1.8c-16,0-27.4-5-37.4-9.5c-9.6-4.3-17.9-7.9-29.9-7.9
				c-12.4,0-20.5,4-29.1,8.3c-8.7,4.3-18.5,9.1-32.2,9.1c-13.2,0-23.2-4.4-32.8-8.7c-10.1-4.5-19.6-8.7-33.9-8.7
				c-13.9,0-21.9,4.1-30.5,8.4c-8.4,4.2-17.9,9-32.2,9c-6.5,0-12-0.9-16.9-2.4c-4,11.1-6.2,22.8-6.5,34.9c7.6,3.6,13.9,6.4,23.4,6.4
				C628.9-149.4,635.2-152.5,643.1-156.5z"/>
			<path fill="#E8F409" d="M877.1-144.7c-13.2,0-22.4-4.1-32.1-8.4c-10-4.4-20.4-9-35.2-9c-15.5,0-25.3,4.9-34.9,9.6
				c-8.1,4-15.8,7.8-26.5,7.8c-10.4,0-18.7-3.7-27.5-7.6c-10.9-4.8-22.1-9.8-39.2-9.8c-17,0-26.8,4.9-36.3,9.7
				c-8.2,4.1-15.3,7.7-26.4,7.7c-11.1,0-18.5-3.5-25.7-6.9l-2.8-1.3l0.1-2.9c0.2-12.4,2.5-24.6,6.7-36.3l1.6-4.3l4.7,1.4
				c5,1.5,10,2.2,15.4,2.2c13,0,21.6-4.3,29.8-8.5c8.7-4.4,17.7-8.9,32.8-8.9c15.4,0,25.9,4.7,36.1,9.2c9.5,4.2,18.5,8.2,30.6,8.2
				c12.5,0,21.3-4.4,29.8-8.6c8.8-4.3,17.9-8.8,31.5-8.8c13.2,0,22.4,4.1,32.1,8.4c10,4.4,20.4,9,35.2,9c5.1,0,9.6-0.5,13.9-1.7
				l4.6-1.2l1.5,4.2c4.1,11.6,6.3,23.7,6.5,35.9l0,2.6l-2.4,1.4C894.6-147.8,888.5-144.7,877.1-144.7z M809.7-171.4
				c17.1,0,29.5,5.5,39.5,9.9c9.4,4.2,16.9,7.5,27.8,7.5c7.6,0,11.7-1.5,16.4-4.2c-0.4-9-1.9-17.8-4.6-26.5c-3.7,0.6-7.6,1-11.8,1
				c-17.1,0-29.5-5.5-39.5-9.9c-9.4-4.2-16.9-7.5-27.8-7.5c-11.1,0-18.4,3.6-26.8,7.7c-8.7,4.3-19.6,9.7-34.5,9.7
				c-14.4,0-25.3-4.9-34.9-9.1c-10-4.4-18.6-8.3-31.7-8.3c-12.6,0-19.8,3.6-28.1,7.8c-8.5,4.3-19,9.6-34.6,9.6
				c-4.7,0-9.2-0.5-13.6-1.4c-2.7,8.6-4.3,17.5-4.7,26.5c6.3,2.9,11.2,4.6,18.3,4.6c8.6,0,14-2.8,21.6-6.6
				c9.6-4.8,21.5-10.8,41.1-10.8c19.4,0,32.2,5.7,43.5,10.7c8.4,3.7,15,6.7,23.1,6.7c8.1,0,14.1-3,21.8-6.7
				C779.8-165.5,791.8-171.4,809.7-171.4z"/>
		</g>
		<g>
			<path fill="#E8F409" d="M619.1-201.8c9.9,0,16.1-3.1,24-7.1c9.6-4.8,20.4-10.3,38.7-10.3c18.3,0,30.5,5.5,41.4,10.3
				c8.6,3.8,16,7.1,25.3,7.1c9.4,0,16.2-3.4,24.1-7.3c9.6-4.7,20.5-10.1,37.2-10.1c16,0,27.4,5,37.4,9.5c9.6,4.3,17.9,7.9,29.9,7.9
				c3.9,0,7.1-0.4,9.8-1.1c-22.9-46-76.8-78.3-139.8-78.3c-62.7,0-116.5,32.1-139.5,77.8C611-202.4,614.7-201.8,619.1-201.8z"/>
			<path fill="#E8F409" d="M877.1-197.2c-13.2,0-22.4-4.1-32.1-8.4c-10-4.4-20.4-9-35.2-9c-15.5,0-25.3,4.9-34.9,9.6
				c-8.1,4-15.8,7.8-26.5,7.8c-10.4,0-18.7-3.7-27.5-7.6c-10.9-4.8-22.1-9.8-39.2-9.8c-17,0-26.8,4.9-36.3,9.7
				c-8.2,4.1-15.3,7.7-26.4,7.7c-4.5,0-8.8-0.6-12.9-1.8l-5.5-1.6l2.4-4.8c24.6-48.9,81.2-80.4,144.1-80.4
				c63.2,0,119.8,31.8,144.3,81l2.5,5l-5.8,1.4C884.8-197.6,881.2-197.2,877.1-197.2z M809.7-223.8c17.1,0,29,5.3,39.5,9.9
				c9.4,4.2,16.9,7.5,27.8,7.5c0.8,0,1.6,0,2.3-0.1c-24.3-42.7-75.4-70-132.3-70c-56.7,0-107.9,27.2-132.2,69.9
				c1.3,0.1,2.7,0.2,4.1,0.2c8.6,0,14-2.8,21.6-6.6c9.6-4.8,21.5-10.8,41.1-10.8c19.4,0,32.2,5.7,43.5,10.7c8.4,3.7,15,6.7,23.1,6.7
				c8.1,0,14.1-3,21.8-6.7C779.8-217.9,791.8-223.8,809.7-223.8z"/>
		</g>
		<g>
			<path fill="#E8F409" d="M839.7-93c-9.6-4.3-17.9-7.9-29.9-7.9c-12.4,0-20.5,4-29.1,8.3c-8.7,4.3-18.5,9.1-32.2,9.1
				c-13.2,0-23.2-4.4-32.8-8.7c-10.1-4.5-19.6-8.7-33.9-8.7c-13.9,0-21.9,4.1-30.5,8.4c-8.1,4.1-17.3,8.7-30.8,9
				C647.6-48.9,694.2-26,747.1-26c53,0,99.6-22.9,126.6-57.5C859.5-84.2,849-88.8,839.7-93z"/>
			<path fill="#E8F409" d="M747.1-21.4c-52.7,0-101.6-22.2-130.7-59.4l-5.6-7.1l9.5-0.2c12.3-0.3,20.5-4.4,28.5-8.4
				c8.7-4.4,17.7-8.9,32.8-8.9c15.4,0,25.9,4.7,36.1,9.2c9.5,4.2,18.5,8.2,30.6,8.2c12.5,0,21.3-4.4,29.8-8.6
				c8.8-4.3,17.9-8.8,31.5-8.8c13.2,0,22.4,4.1,32.1,8.4c9.3,4.1,18.9,8.4,32.2,9l9.2,0.4l-5.4,6.9
				C848.7-43.6,799.9-21.4,747.1-21.4z M630-79.8c27.6,30.9,70.8,49.1,117.2,49.1c46.4,0,89.6-18.3,117.2-49.2
				c-10.7-1.8-19.2-5.5-26.8-8.9c-9.4-4.2-16.9-7.5-27.8-7.5c-11.1,0-18.4,3.6-26.8,7.7c-8.7,4.3-19.6,9.7-34.5,9.7
				c-14.4,0-25.3-4.9-34.9-9.1c-10-4.4-18.6-8.3-31.7-8.3c-12.6,0-19.8,3.6-28.1,7.8C647.4-85.3,639.9-81.5,630-79.8z"/>
		</g>
	</g>
	<g>
		<rect x="744.2" y="-343.3" fill="#E8F409" width="10" height="73.2"/>
	</g>
	<g>
		<g>
			<path fill="#E8F409" d="M711.4-310.2c10.3,8.7,23.5,13.4,36.9,14.1c-0.9-11.3-6.5-22.4-16.8-31.1c-10.3-8.7-23.5-13.4-36.9-14.1
				C695.5-330,701.1-318.9,711.4-310.2z"/>
			<path fill="#E8F409" d="M753.7-291.2l-5.7-0.3c-15.1-0.9-29.3-6.3-40-15.3c-10.8-9.1-17.4-21.2-18.4-34.2l-0.4-5.3l5.7,0.3
				c15.1,0.9,29.3,6.3,40,15.3c10.8,9.1,17.4,21.2,18.4,34.2L753.7-291.2z M700.5-336c2,8.4,6.9,16.2,14.2,22.4
				c7.6,6.4,17.2,10.6,27.7,12.3c-2-8.4-6.9-16.2-14.2-22.4C720.6-330.1,711-334.4,700.5-336z"/>
		</g>
		<g>
			<path fill="#E8F409" d="M766.9-327.2c-10.3,8.7-15.9,19.8-16.8,31.1c13.4-0.8,26.6-5.5,36.9-14.1c10.3-8.7,15.9-19.8,16.8-31.1
				C790.4-340.6,777.2-335.9,766.9-327.2z"/>
			<path fill="#E8F409" d="M744.7-291.2l0.4-5.3c1-12.9,7.6-25.1,18.4-34.2c10.7-9,24.9-14.5,40-15.3l5.7-0.3l-0.4,5.3
				c-1,12.9-7.6,25.1-18.4,34.2c-10.7,9-24.9,14.5-40,15.3L744.7-291.2z M797.9-336c-10.5,1.6-20.1,5.9-27.7,12.3
				c-7.3,6.2-12.2,13.9-14.2,22.4c10.5-1.6,20.1-5.9,27.7-12.3C791-319.8,795.9-327.6,797.9-336z"/>
		</g>
	</g>
</g>
<g>
	<path fill="none" stroke="#E8F409" stroke-width="10" stroke-miterlimit="10" d="M620.8,386.2"/>
</g>
<g>
	<path fill="none" stroke="#E8F409" stroke-width="10" stroke-miterlimit="10" d="M635.1,426.7"/>
</g>
<g>
	<path fill="#1FB9EF" d="M736.8,480.2c-8.9,3.1-16.1,2.6-22.6,2.1c-6.2-0.5-11.5-0.9-18.1,1.5c-6.9,2.4-10.6,6.2-14.5,10.3
		c-4,4.1-8.5,8.7-16.1,11.3c-7.3,2.6-13.7,2.1-19.9,1.6c-6.5-0.5-12.6-1-20.5,1.8c-7.7,2.7-11.4,6.5-15.2,10.6
		c-3.8,4-8.2,8.5-16.1,11.3c-5.1,1.8-9.4,2.2-13.4,2c4,8,9.6,15,16.3,20.7c1.5-0.2,3-0.6,4.7-1.2c5.5-1.9,8.3-4.9,11.9-8.6
		c4.4-4.5,9.3-9.7,19.4-13.3c10.1-3.6,18-2.9,24.9-2.4c5.5,0.4,10.3,0.8,15.4-1c5.2-1.8,8.3-5,11.9-8.7c4.4-4.5,9.4-9.6,18.6-12.9
		c8.9-3.1,16.1-2.6,22.6-2.1c6.2,0.5,11.5,0.9,18.1-1.5c1.2-0.4,2.3-0.9,3.3-1.4c1.7-8.7,1.7-17.5-0.2-26.2
		C745,476.3,741.7,478.5,736.8,480.2z"/>
	<path fill="#1FB9EF" d="M745.3,504.3c-7.3,2.6-13.2,2.1-19.4,1.6c-6.4-0.5-13.1-1-21.3,1.9c-8.6,3-13.1,7.7-17.5,12.1
		c-3.7,3.8-7.2,7.4-13.1,9.5c-5.8,2-11.1,1.6-16.7,1.2c-7-0.6-14.2-1.1-23.6,2.2c-9.4,3.3-13.9,8-18.2,12.5c-3.7,3.9-7,7.2-13.1,9.4
		c-1.8,0.6-3.5,1.1-5.3,1.3l-1.3,0.2l-1-0.8c-7.2-6.1-12.9-13.4-16.9-21.5l-2.1-4.2l5,0.2c4.4,0.1,8.2-0.4,12.2-1.8
		c7.2-2.5,11.1-6.6,14.9-10.5c4-4.1,8.1-8.4,16.5-11.4c8.5-3,15.3-2.5,21.8-2c6.1,0.5,11.9,0.9,18.6-1.4c6.9-2.4,10.9-6.6,14.9-10.6
		c4-4.1,8.2-8.4,15.7-11c7.3-2.6,13.2-2.1,19.4-1.6c6.4,0.5,13.1,1,21.3-1.9c3.9-1.4,7-3.1,9.7-5.4l3.8-3.3l1,4.6
		c1.9,8.9,1.9,18,0.2,27.2l-0.3,1.4l-1.3,0.7C747.9,503.3,746.7,503.9,745.3,504.3z M702.8,502.7c9.5-3.3,17.4-2.7,23.8-2.2
		c6,0.5,10.8,0.8,16.9-1.3c0.6-0.2,1.1-0.4,1.6-0.6c1.1-6.6,1.2-13.1,0.3-19.5c-2.3,1.4-4.9,2.6-7.7,3.7c-9.5,3.3-17.1,2.8-23.8,2.2
		c-6.1-0.5-10.8-0.8-16.9,1.3c-6.2,2.2-9.5,5.6-13.3,9.5c-4,4.1-9,9.2-17.2,12.1c-8,2.8-15,2.3-21.1,1.8c-6.4-0.5-11.9-0.9-19.2,1.6
		c-7,2.5-10.2,5.9-14,9.8c-3.9,4-8.7,9-17.3,12.1c-3.2,1.1-6.3,1.8-9.5,2.1c3.3,5.6,7.5,10.7,12.5,15.1c0.9-0.2,1.8-0.5,2.8-0.8
		c4.8-1.7,7.2-4.3,10.7-7.9c4.4-4.6,9.8-10.2,20.6-14c10.7-3.8,19-3.1,26.2-2.6c5.4,0.4,9.6,0.8,14.1-0.8c4.5-1.6,7.3-4.4,10.7-8
		C687.4,511.8,692.9,506.2,702.8,502.7z"/>
</g>
<g>
	<path fill="#1FB9EF" d="M601.8,510.6c4.4-4.5,9.3-9.7,19.4-13.3c10.1-3.6,18-2.9,24.9-2.4c5.5,0.4,10.3,0.8,15.4-1
		c5.2-1.8,8.3-5,11.9-8.7c4.4-4.5,9.4-9.6,18.6-12.9c8.9-3.1,16.1-2.6,22.6-2.1c6.2,0.5,11.5,0.9,18.1-1.5c5.7-2,8.1-4.5,10.7-7.7
		c-2.5-6.6-5.9-12.6-10.2-17.9c-2.1,1.5-4.7,2.8-8.1,4c-8.9,3.1-16.1,2.6-22.6,2.1c-6.2-0.5-11.5-0.9-18.1,1.5
		c-6.9,2.4-10.6,6.2-14.5,10.3c-4,4.1-8.5,8.7-16.1,11.3c-7.3,2.6-13.7,2.1-19.9,1.6c-6.5-0.5-12.6-1-20.5,1.8
		c-7.7,2.7-11.4,6.5-15.2,10.6c-3.8,4-8.2,8.5-16.1,11.3c-3.6,1.3-6.8,1.8-9.8,2c0,6.9,1,13.8,3.2,20.6c4.9,0.5,9,0.8,14.2-1
		C595.3,517.4,598.2,514.4,601.8,510.6z"/>
	<path fill="#1FB9EF" d="M733.7,471.4c-7.3,2.6-13.2,2.1-19.4,1.6c-6.4-0.5-13.1-1-21.3,1.9c-8.6,3-13.1,7.7-17.5,12.1
		c-3.7,3.8-7.2,7.4-13.1,9.5c-5.8,2-11.1,1.6-16.7,1.2c-7-0.6-14.2-1.1-23.6,2.2c-9.4,3.3-13.9,8-18.2,12.5
		c-3.7,3.9-6.9,7.2-13.1,9.4c-6.1,2.2-10.9,1.7-15.6,1.2l-1.8-0.2l-0.5-1.6c-2.3-6.9-3.4-14.1-3.4-21.4l0-2.7l2.9-0.2
		c3-0.2,6-0.8,9-1.8c7.2-2.5,11.1-6.6,14.9-10.5c4-4.1,8.1-8.4,16.5-11.4c8.5-3,15.3-2.5,21.8-2c6.1,0.5,11.9,0.9,18.6-1.4
		c6.9-2.4,10.9-6.6,14.9-10.6c4-4.1,8.2-8.4,15.7-11c7.3-2.6,13.2-2.1,19.4-1.6c6.4,0.5,13.1,1,21.3-1.9c2.8-1,5.2-2.2,7.4-3.6
		l2.3-1.6l1.7,2.1c4.5,5.6,8.1,11.9,10.6,18.6l0.5,1.4l-1,1.2C742.8,466.3,740.1,469.2,733.7,471.4z M691.2,469.8
		c9.5-3.3,17.4-2.7,23.8-2.2c6,0.5,10.8,0.8,16.9-1.3c4.2-1.5,6.2-3.1,8.3-5.5c-2-4.9-4.6-9.5-7.7-13.8c-1.9,1.1-4,2-6.4,2.8
		c-9.5,3.3-17.4,2.7-23.8,2.2c-6-0.5-10.8-0.8-16.9,1.3c-6.2,2.2-9.5,5.6-13.3,9.5c-4,4.1-9,9.2-17.2,12.1c-8,2.8-15,2.3-21.1,1.8
		c-6.4-0.5-11.9-0.9-19.2,1.6c-7,2.5-10.2,5.9-14,9.8c-3.9,4-8.7,9-17.3,12.1c-2.6,0.9-5.2,1.5-7.8,1.9c0.2,5.3,1,10.5,2.6,15.6
		c4.1,0.4,7.1,0.3,11-1c4.8-1.7,7.2-4.3,10.7-7.9c4.4-4.6,9.8-10.2,20.6-14c10.7-3.8,19-3.1,26.2-2.6c5.4,0.4,9.6,0.8,14.1-0.8
		c4.5-1.6,7.3-4.4,10.7-8C675.8,478.9,681.2,473.3,691.2,469.8z"/>
</g>
<g>
	<path fill="#1FB9EF" d="M578.1,485.8c5.5-1.9,8.3-4.9,11.9-8.6c4.4-4.5,9.3-9.7,19.4-13.3c10.1-3.6,18-2.9,24.9-2.4
		c5.5,0.4,10.3,0.8,15.4-1c5.2-1.8,8.3-5,11.9-8.7c4.4-4.5,9.4-9.6,18.6-12.9c8.9-3.1,16.1-2.6,22.6-2.1c6.2,0.5,11.5,0.9,18.1-1.5
		c2.2-0.8,3.8-1.6,5.2-2.5c-21.7-21-57.9-28.3-92.7-16c-34.7,12.3-58.3,40.5-62.1,70.4C573.5,487.1,575.6,486.7,578.1,485.8z"/>
	<path fill="#1FB9EF" d="M721.9,437.9c-7.3,2.6-13.2,2.1-19.4,1.6c-6.4-0.5-13.1-1-21.3,1.9c-8.6,3-13.1,7.7-17.5,12.1
		c-3.7,3.8-7.2,7.4-13.1,9.5c-5.8,2-11.1,1.6-16.7,1.2c-7-0.6-14.2-1.1-23.6,2.2c-9.4,3.3-13.9,8-18.2,12.5
		c-3.7,3.9-6.9,7.2-13.1,9.4c-2.5,0.9-5,1.4-7.5,1.5l-3.3,0.2l0.4-3.1c4.1-31.9,29.2-60.4,64.1-72.7c35-12.4,72.6-5.8,95.8,16.6
		l2.4,2.3l-2.9,1.9C726.1,436.2,724.2,437.1,721.9,437.9z M679.4,436.3c9.5-3.3,17.1-2.8,23.8-2.2c6.1,0.5,10.8,0.8,16.9-1.3
		c0.4-0.2,0.9-0.3,1.3-0.5c-21.8-18.9-55.5-24-87-12.9c-31.4,11.1-54.4,36.2-59.6,64.6c0.8-0.2,1.5-0.4,2.3-0.7
		c4.8-1.7,7.2-4.3,10.7-7.9c4.4-4.6,9.8-10.2,20.6-14c10.7-3.8,19-3.1,26.2-2.6c5.4,0.4,9.6,0.8,14.1-0.8c4.5-1.6,7.3-4.4,10.7-8
		C664,445.5,669.4,439.8,679.4,436.3z"/>
</g>
<g>
	<path fill="#1FB9EF" d="M450.6,482.7c-6.2-0.5-11.5-0.9-18.1,1.5c-6.9,2.4-10.6,6.2-14.5,10.3c-4,4.1-8.5,8.7-16.1,11.3
		c-7.3,2.6-13.7,2.1-19.9,1.6c-6.5-0.5-12.6-1-20.5,1.8c-7.7,2.7-11.4,6.5-15.2,10.6c-3.7,3.9-7.9,8.2-15.3,11
		c21.8,13.9,52.1,17.5,81.4,7.1c29.3-10.4,50.7-32.1,58.9-56.6C463.3,483.7,456.6,483.2,450.6,482.7z"/>
	<path fill="#1FB9EF" d="M413.4,540.5c-29.2,10.3-60.6,7.6-84-7.4l-4.5-2.9l5.2-2c6.8-2.6,10.5-6.5,14.1-10.2
		c4-4.1,8.1-8.4,16.5-11.4c8.5-3,15.3-2.5,21.8-2c6.1,0.5,11.9,0.9,18.6-1.4c6.9-2.4,10.9-6.6,14.9-10.6c4-4.1,8.2-8.4,15.7-11
		c7.3-2.6,13.2-2.1,19.4-1.6c6,0.5,12.1,0.9,19.6-1.3l5.2-1.6l-1.6,4.9C465.3,508.3,442.6,530.2,413.4,540.5z M337,531
		c21.4,11.7,48.8,13.4,74.5,4.3c25.7-9.1,46.1-27.6,55.3-50.2c-6.3,1.1-11.7,0.7-16.6,0.3c-6.1-0.5-10.8-0.8-16.9,1.3
		c-6.2,2.2-9.5,5.6-13.3,9.5c-4,4.1-9,9.2-17.2,12.1c-8,2.8-15,2.3-21.1,1.8c-6.4-0.5-11.9-0.9-19.2,1.6c-7,2.5-10.2,5.9-14,9.8
		C345.6,524.6,342.2,528.2,337,531z"/>
</g>
<g>
	
		<rect x="628.3" y="385.1" transform="matrix(0.943 -0.3328 0.3328 0.943 -99.3507 233.2439)" fill="#1FB9EF" width="5.9" height="43"/>
</g>
<g>
	<g>
		<path fill="#1FB9EF" d="M608.6,409.3c7.4,2.8,15.6,2.8,23.2,0.6c-2.7-6.1-8-11.2-15.4-13.9s-15.6-2.8-23.2-0.6
			C595.9,401.5,601.2,406.5,608.6,409.3z"/>
		<path fill="#1FB9EF" d="M635.8,411.6l-3.2,0.9c-8.5,2.5-17.4,2.2-25.1-0.7c-7.8-2.9-13.8-8.4-16.9-15.3l-1.3-2.9l3.2-0.9
			c8.5-2.5,17.4-2.2,25.1,0.7c7.8,2.9,13.8,8.4,16.9,15.3L635.8,411.6z M597.5,397.2c2.8,4.3,7,7.6,12.3,9.6
			c5.4,2,11.6,2.5,17.7,1.4c-2.8-4.3-7-7.6-12.3-9.6C609.8,396.5,603.6,396,597.5,397.2z"/>
	</g>
	<g>
		<path fill="#1FB9EF" d="M636,389.1c-4,6.8-4.9,14-3.2,20.5c7.3-3.1,13.7-8.2,17.7-15c4-6.8,4.9-14,3.2-20.5
			C646.4,377.1,640,382.3,636,389.1z"/>
		<path fill="#1FB9EF" d="M630.8,413.4l-0.8-3c-2-7.4-0.7-15.4,3.5-22.5c4.2-7.1,11-12.9,19.2-16.3l3.1-1.3l0.8,3
			c2,7.4,0.7,15.4-3.5,22.5c-4.2,7.1-11,12.9-19.2,16.3L630.8,413.4z M651.5,378.1c-5.5,3-10,7.2-12.9,12.2
			c-2.8,4.8-4.1,10.1-3.5,15.2c5.5-3,10-7.2,12.9-12.2C650.8,388.5,652,383.2,651.5,378.1z"/>
	</g>
</g>
<g>
	<path fill="#D7D7D7" d="M562.5,1029.9h-6.8v-9.4h17.9v48h-11.1V1029.9z"/>
	<path fill="#D7D7D7" d="M555.6,1020.6h17.9"/>
	<polygon fill="#1FB9EF" points="561.6,1020 561.6,1029.4 562.5,1029.4 562.5,1068.1 573.6,1068.1 573.6,1020 	"/>
	<rect x="555.7" y="1020" fill="#D7D7D7" width="5.9" height="9.4"/>
</g>
<g>
	<path fill="#D7D7D7" d="M614.8,1029.9h-16.2l-1.3,6.4c1.2-0.2,2.7-0.4,4-0.4c5.4,0,9.6,1.9,12.2,4.7c2.2,2.2,4.4,5.9,4.4,11.6
		c0,6.2-2.7,10.2-4.9,12.4c-4.4,4.3-9.6,5-14.5,5c-4.5,0-9.9-0.6-16-5.3l2.5-10.3c1.3,1.4,3.1,3,4.6,4c2,1.3,4.4,2.1,7.3,2.1
		c2.5,0,5.1-0.6,6.8-1.9c1.5-1.2,2.8-3.2,2.8-6c0-2.9-1.3-4.6-2.4-5.6c-0.6-0.5-3-2.5-8-2.5c-4,0-7.4,1.2-9.8,2.5l4.9-26h23.6
		V1029.9z"/>
	<path fill="#D7D7D7" d="M591.1,1020.6h23.6"/>
	<path fill="none" d="M596.9,1060.3c2.5,0,5.1-0.6,6.8-1.9c1.5-1.2,2.8-3.2,2.8-6c0-2.9-1.3-4.6-2.4-5.6c-0.1-0.1-0.2-0.2-0.4-0.3
		l-11.4,13.1C593.7,1060,595.2,1060.3,596.9,1060.3z"/>
	<path fill="none" d="M598.6,1030.1l-1.3,6.4c0.1,0,0.3,0,0.4-0.1l5.5-6.4H598.6z"/>
	<path fill="#1FB9EF" d="M610.6,1038.5l-6.9,7.9c0.2,0.1,0.3,0.2,0.4,0.3c1.2,1,2.4,2.7,2.4,5.6c0,2.8-1.3,4.9-2.8,6
		c-1.7,1.4-4.3,1.9-6.8,1.9c-1.7,0-3.2-0.3-4.6-0.8l-6.4,7.3c4.7,2.6,8.9,3,12.5,3c4.9,0,10.2-0.7,14.5-5c2.2-2.2,4.9-6.2,4.9-12.4
		c0-5.7-2.2-9.4-4.4-11.6C612.7,1039.9,611.7,1039.2,610.6,1038.5z"/>
	<path opacity="0.5" fill="#1FB9EF" d="M597.3,1036.5l1.3-6.4h4.6l8.1-9.4h-20.2l-4.9,26c1.1-0.6,2.4-1.2,3.9-1.6l7.5-8.7
		C597.6,1036.4,597.4,1036.4,597.3,1036.5z"/>
	<path fill="#D7D7D7" d="M603.7,1046.4l6.9-7.9c-2.5-1.5-5.6-2.4-9.3-2.4c-1.1,0-2.4,0.1-3.6,0.3l-7.5,8.7c1.8-0.5,3.7-0.9,5.9-0.9
		C600.4,1044.2,602.8,1045.6,603.7,1046.4z"/>
	<polygon fill="#D7D7D7" points="614.8,1030.1 614.8,1020.7 611.4,1020.7 603.2,1030.1 	"/>
	<path fill="#1FB9EF" d="M589.6,1058.2c-1.5-0.9-3.3-2.5-4.6-4l-2.5,10.3c1.2,0.9,2.3,1.7,3.5,2.3l6.4-7.3
		C591.3,1059.2,590.4,1058.7,589.6,1058.2z"/>
</g>
<g>
	<path fill="#D7D7D7" d="M425.2,1053.9l8.9-17.4h11.7l-25.8,48.6h-11.7l11.3-20.6l-0.5-0.9 M419,1063.5l-14.8-27.1h12l9.1,17.4"/>
	<path fill="#D7D7D7" d="M404.1,1036.5h12 M434,1036.5h11.7l-25.8,48.6h-11.7l11.3-20.6"/>
	<path opacity="0.5" fill="#1FB9EF" d="M419.6,1042.5 M413.9,1053.6l-9.3-17h12l2.9,5.5l0.2,0.4"/>
	<path fill="#1FB9EF" d="M419.5,1064.7l5.7-10.6l8.9-17.4h11.7l-25.8,48.6h-11.7L419.5,1064.7z"/>
</g>
<g>
	<path fill="#D7D7D7" d="M247.9,1044.8v23.8h-10.4v-23.8H234v-8.4h3.6v-10.4h10.4v10.4h6.4v8.4H247.9z"/>
	<polygon opacity="0.5" fill="#1FB9EF" points="247,1039 248.4,1036.2 248.4,1026.1 238.1,1026.1 238.1,1036.4 234.5,1036.4 
		234.5,1044.8 238.1,1044.8 238.1,1055.5 241.3,1049.6 	"/>
	<polygon fill="#1FB9EF" points="248.4,1057.5 242.5,1068.6 248.4,1068.6 	"/>
	<polygon fill="#D7D7D7" points="248.4,1044.8 254.8,1044.8 254.8,1036.4 248.4,1036.4 248.4,1036.2 247,1039 241.3,1049.6 
		238.1,1055.5 238.1,1068.6 242.5,1068.6 248.4,1057.5 	"/>
</g>
<g>
	<path fill="#D7D7D7" d="M149.8,1054.3h-24c0,1.7,0.6,4,1.9,5.5c1.6,1.7,3.7,2,5.3,2c1.5,0,3.1-0.3,4.2-0.9c0.1-0.1,1.4-0.9,2.2-2.7
		l9.8,1c-1.4,4.5-4.3,6.9-6.2,8.1c-3.1,1.9-6.6,2.4-10.2,2.4c-4.8,0-9.1-0.9-12.8-4.6c-2.8-2.8-4.8-7.1-4.8-12.4
		c0-4.6,1.7-9.4,4.9-12.7c3.9-3.9,8.7-4.6,12.3-4.6s8.8,0.6,12.7,4.8c3.8,4,4.5,9.1,4.5,13V1054.3z M140.2,1048.1
		c-0.1-0.3-0.6-2.3-2.1-3.7c-1.2-1.1-2.8-1.8-4.9-1.8c-2.7,0-4.2,1.1-5.3,2.1c-0.8,0.9-1.5,2-1.8,3.5H140.2z"/>
	<g>
		<path fill="none" d="M129.3,1044.2c-0.5,0.3-0.9,0.7-1.3,1c-0.8,0.9-1.5,2-1.8,3.5h0.8l0.3-0.6L129.3,1044.2z"/>
		<path fill="none" d="M139.4,1046.6l-1.1,2.1h2C140.2,1048.5,140,1047.6,139.4,1046.6z"/>
		<path fill="#1FB9EF" d="M133,1070.2c3.6,0,7.1-0.5,10.2-2.4c1.9-1.2,4.8-3.5,6.2-8.1l-9.8-1c-0.9,1.8-2.1,2.6-2.2,2.7
			c-1.1,0.6-2.7,0.9-4.2,0.9c-0.6,0-1.3,0-2-0.2l-3.9,7.4C129,1070.1,130.9,1070.2,133,1070.2z"/>
		<path fill="#1FB9EF" d="M140.3,1048.7h-2l-3.3,6.2h14.9v-1.1c0-4-0.7-9-4.5-13c-0.6-0.6-1.3-1.2-1.9-1.7l-4,7.5
			C140,1047.6,140.2,1048.5,140.3,1048.7z"/>
		<path opacity="0.5" fill="#1FB9EF" d="M127,1048.7h-0.8c0.3-1.4,1-2.6,1.8-3.5c0.4-0.4,0.8-0.7,1.3-1l4.2-8.2c-0.3,0-0.6,0-0.9,0
			c-3.6,0-8.4,0.7-12.3,4.6c-3.2,3.3-4.9,8.1-4.9,12.7c0,4.4,1.4,8,3.4,10.7l2.9-5.3L127,1048.7z"/>
		<path fill="#D7D7D7" d="M133.3,1043.2c2.1,0,3.7,0.7,4.9,1.8c0.5,0.5,0.9,1.1,1.2,1.6l4-7.5c-3.2-2.4-7-3-9.9-3.1l-4.2,8.2
			C130.3,1043.6,131.5,1043.2,133.3,1043.2z"/>
		<path fill="#D7D7D7" d="M125.9,1054.9h9.1l3.3-6.2H127l-5.4,10l-2.9,5.3c0.4,0.6,0.9,1.2,1.4,1.7c2.2,2.2,4.5,3.4,7,4l3.9-7.4
			c-1.1-0.2-2.3-0.8-3.3-1.8C126.5,1058.9,125.9,1056.6,125.9,1054.9z"/>
	</g>
</g>
<g>
	<path fill="#D7D7D7" d="M539.6,1064.7c-2.8,2.7-7,5-12.9,5c-5.8,0-9.9-2.2-12.7-5c-4.7-4.6-6.9-11.9-6.9-20.1
		c0-8.3,2.2-15.6,6.9-20.2c2.9-2.8,7-5,12.7-5c5.9,0,10.1,2.2,12.9,5c4.7,4.5,6.9,11.9,6.9,20.2
		C546.5,1052.8,544.3,1060.1,539.6,1064.7z M522.3,1030.8c-3.5,3.5-4,10.4-4,13.8c0,3.7,0.6,10.5,4,13.8c1.3,1.2,2.6,1.8,4.5,1.8
		s3.2-0.6,4.5-1.8c3.4-3.3,4-10.1,4-13.8c0-3.4-0.5-10.3-4-13.8c-1.3-1.2-2.6-1.8-4.5-1.8S523.6,1029.5,522.3,1030.8z"/>
	<path fill="#D7D7D7" d="M526.6,1019.5"/>
	<path opacity="0.5" fill="#1FB9EF" d="M518.5,1043.7c0-3.2,0.5-9.7,3.6-13.3v-11.2c-3.3,0.8-5.9,2.4-7.9,4.4
		c-4.7,4.5-6.9,11.9-6.9,20.2c0,8.2,2.2,15.5,6.9,20.1c2,1.9,4.6,3.6,7.9,4.4V1057C519.1,1053.6,518.5,1047.2,518.5,1043.7z"/>
	<path fill="#1FB9EF" d="M546.7,1043.7c0-8.3-2.2-15.6-6.9-20.2c-1.7-1.6-3.9-3.1-6.6-4v12.7c2,3.7,2.3,8.7,2.3,11.4
		c0,3-0.4,7.9-2.3,11.5v12.7c2.8-0.9,4.9-2.4,6.6-4C544.5,1059.2,546.7,1052,546.7,1043.7z"/>
	<path fill="#D7D7D7" d="M522.5,1029.9c1.3-1.2,2.6-1.8,4.5-1.8s3.2,0.6,4.5,1.8c0.7,0.7,1.3,1.5,1.7,2.3v-12.7
		c-1.8-0.6-3.9-1-6.3-1c-1.8,0-3.4,0.2-4.8,0.6v11.2C522.2,1030.2,522.3,1030.1,522.5,1029.9z"/>
	<path fill="#D7D7D7" d="M531.4,1057.5c-1.3,1.2-2.6,1.8-4.5,1.8s-3.2-0.6-4.5-1.8c-0.2-0.1-0.3-0.3-0.4-0.5v11.2
		c1.5,0.4,3.1,0.6,4.8,0.6c2.4,0,4.4-0.4,6.3-1v-12.7C532.7,1056,532.1,1056.8,531.4,1057.5z"/>
</g>
<text transform="matrix(1 0 0 1 99.7437 517.4819)" fill="#1FB9EF" font-family="'FuturaPT-Heavy'" font-size="72">earth day 2015</text>
<g>
	<path fill="#D7D7D7" d="M387.7,1036.4H398v32.1h-10.4v-3.9c-2.8,4.3-6.8,5-9.5,5c-4.6,0-8.5-1.2-12-4.9c-3.4-3.6-4.7-7.8-4.7-12
		c0-5.4,2-10,5-13c2.8-2.8,6.7-4.4,11.2-4.4c2.7,0,7.1,0.6,10.1,4.7V1036.4z M374.5,1046.6c-1.1,1.1-2.4,3-2.4,5.8
		c0,2.9,1.2,4.8,2.2,5.8c1.4,1.5,3.7,2.5,6.1,2.5c2.1,0,4-0.9,5.4-2.2c1.4-1.3,2.5-3.3,2.5-6c0-2.3-0.9-4.5-2.4-5.9
		c-1.6-1.5-3.9-2.2-5.8-2.2C377.9,1044.3,375.9,1045.2,374.5,1046.6z"/>
	<path opacity="0.5" fill="#1FB9EF" d="M374.5,1058.1c-0.9-1-2.2-2.9-2.2-5.8c0-2.9,1.3-4.8,2.4-5.8c0.7-0.7,1.6-1.3,2.7-1.7v-9.5
		c-4.3,0.1-8,1.7-10.8,4.4c-3,3-5,7.6-5,13c0,4.2,1.3,8.4,4.7,12c3.3,3.5,6.9,4.7,11,4.9v-9.5
		C376.2,1059.5,375.2,1058.9,374.5,1058.1z"/>
	<path fill="#1FB9EF" d="M398.2,1036.5h-10.4v12.7c0.4,1,0.6,2.1,0.6,3.3c0,1.2-0.2,2.3-0.6,3.3v12.8h10.4V1036.5z"/>
</g>
<g>
	<path fill="#D7D7D7" d="M354.7,1068.6h-10.4v-3.9c-1.6,2.3-4.5,5-10.2,5c-4.8,0-8.2-1.5-11-4.4c-3.3-3.3-5-7.9-5-12.9
		c0-5.3,1.9-9.7,5-12.7c2.8-2.7,6.8-4.3,11.2-4.3c3.5,0,7.4,1.2,10,4.7v-24h10.4V1068.6z M331.3,1046.4c-1.5,1.4-2.5,3.5-2.5,6.1
		c0,2.4,1,4.5,2.5,5.9c1.6,1.5,3.6,2.2,5.4,2.2c1.9,0,4.2-0.8,5.9-2.4c1.2-1.2,2.4-3.1,2.4-5.8c0-2.7-1.1-4.6-2.3-5.9
		c-1.7-1.7-3.6-2.4-5.8-2.4C334.7,1044.3,332.9,1044.9,331.3,1046.4z"/>
	<path fill="#1FB9EF" d="M344.5,1015.7v24v9.2c0.4,0.9,0.6,2.1,0.6,3.4c0,1.2-0.3,2.3-0.6,3.2v8.9v3.9h10.4v-52.5H344.5z"/>
	<path opacity="0.5" fill="#1FB9EF" d="M331.2,1058.6c-1.5-1.4-2.5-3.5-2.5-5.9c0-2.6,1-4.7,2.5-6.1c0.8-0.8,1.6-1.3,2.5-1.6v-9.4
		c-4.2,0.1-8,1.7-10.7,4.3c-3.1,3-5,7.3-5,12.7c0,5,1.7,9.6,5,12.9c2.7,2.8,6.1,4.3,10.7,4.4v-9.5
		C332.9,1059.9,332,1059.4,331.2,1058.6z"/>
</g>
<g>
	<path fill="#D7D7D7" d="M262.1,1016.1h10.4v24.2c1.3-1.6,2.7-2.7,3.9-3.3c2.2-1.2,4-1.4,6.3-1.4c2.5,0,6.3,0.4,9.1,3.2
		c3,3,3.2,6.9,3.2,9.4v20.4h-10.4v-16.5c0-2.2-0.1-4.8-1.7-6.4c-0.9-0.9-2.5-1.4-4-1.4c-2.2,0-3.5,1-4.1,1.6c-2.1,2-2.2,5.1-2.2,6.7
		v16.1h-10.4V1016.1z"/>
	<path fill="#1FB9EF" d="M291.7,1038.8c-2.7-2.8-6.2-3.2-8.7-3.2v3.2v7.1c1.4,1.6,1.5,4,1.5,6.2v16.5h10.4v-20.4
		C294.9,1045.7,294.7,1041.8,291.7,1038.8z"/>
	<polygon opacity="0.5" fill="#1FB9EF" points="272.2,1016.7 261.8,1016.7 261.8,1069.2 272.2,1069.2 272.2,1053.2 272.2,1040.9 	
		"/>
</g>
<g>
	<path fill="#D7D7D7" d="M184.9,1036.4h10.4v32.1h-10.4v-3.9c-2.8,4.3-6.8,5-9.5,5c-4.6,0-8.5-1.2-12-4.9c-3.4-3.6-4.7-7.8-4.7-12
		c0-5.4,2-10,5-13c2.8-2.8,6.7-4.4,11.2-4.4c2.7,0,7.1,0.6,10.1,4.7V1036.4z M171.7,1046.6c-1.1,1.1-2.4,3-2.4,5.8
		c0,2.9,1.2,4.8,2.2,5.8c1.4,1.5,3.7,2.5,6.1,2.5c2.1,0,4-0.9,5.4-2.2c1.4-1.3,2.5-3.3,2.5-6c0-2.3-0.9-4.5-2.4-5.9
		c-1.6-1.5-3.9-2.2-5.8-2.2C175.2,1044.3,173.1,1045.2,171.7,1046.6z"/>
	<g>
		<path fill="#D7D7D7" d="M184.7,1036.4H195v32.1h-10.4v-3.9c-2.8,4.3-6.8,5-9.5,5c-4.6,0-8.5-1.2-12-4.9c-3.4-3.6-4.7-7.8-4.7-12
			c0-5.4,2-10,5-13c2.8-2.8,6.7-4.4,11.2-4.4c2.7,0,7.1,0.6,10.1,4.7V1036.4z M171.5,1046.6c-1.1,1.1-2.4,3-2.4,5.8
			c0,2.9,1.2,4.8,2.2,5.8c1.4,1.5,3.7,2.5,6.1,2.5c2.1,0,4-0.9,5.4-2.2c1.4-1.3,2.5-3.3,2.5-6c0-2.3-0.9-4.5-2.4-5.9
			c-1.6-1.5-3.9-2.2-5.8-2.2C174.9,1044.3,172.9,1045.2,171.5,1046.6z"/>
		<path opacity="0.5" fill="#1FB9EF" d="M171.5,1058.1c-0.9-1-2.2-2.9-2.2-5.8c0-2.9,1.3-4.8,2.4-5.8c0.7-0.7,1.6-1.3,2.7-1.7v-9.5
			c-4.3,0.1-8,1.7-10.8,4.4c-3,3-5,7.6-5,13c0,4.2,1.3,8.4,4.7,12c3.3,3.5,6.9,4.7,11,4.9v-9.5
			C173.2,1059.5,172.2,1058.9,171.5,1058.1z"/>
		<path fill="#1FB9EF" d="M195.2,1036.5h-10.4v12.7c0.4,1,0.6,2.1,0.6,3.3c0,1.2-0.2,2.3-0.6,3.3v12.8h10.4V1036.5z"/>
	</g>
</g>
<g>
	<path fill="#D7D7D7" d="M203.3,1036.4h10.4v5c0.9-1.8,2.4-3.5,4-4.5c1.7-1.1,3.5-1.4,5.5-1.4c1.3,0,2.2,0.1,3.4,0.5l-0.6,9.7
		c-1.4-0.7-2.9-1.2-4.7-1.2c-2.2,0-3.9,0.8-5.2,2.2c-2.3,2.4-2.5,5.9-2.5,8.6v13h-10.4V1036.4z"/>
	<path fill="#1FB9EF" d="M221.3,1044.8c1.8,0,3.3,0.4,4.7,1.2l0.6-9.7c-1.2-0.4-2.1-0.5-3.4-0.5c-0.5,0-0.9,0-1.3,0.1l-7.7,14.1h0.3
		c0.4-1,0.9-2,1.7-2.9C217.4,1045.6,219.1,1044.8,221.3,1044.8z"/>
	<path fill="#D7D7D7" d="M221.8,1035.8c-1.5,0.1-2.9,0.5-4.2,1.3c-1.7,1-3.1,2.7-4,4.5v14c0-1.8,0.1-3.8,0.8-5.7h-0.3L221.8,1035.8z
		"/>
	<polygon opacity="0.5" fill="#1FB9EF" points="213.6,1036.5 203.2,1036.5 203.2,1068.6 213.6,1068.6 213.6,1055.6 213.6,1041.6 	
		"/>
</g>
<g>
	<path fill="#D7D7D7" d="M499.4,1068.6h-36.7l14.4-15.7c2.5-2.8,6.3-7.5,7.8-9.8c1.1-1.7,2.9-4.8,2.9-8.1c0-1.8-0.7-3.7-1.9-4.8
		c-0.9-0.9-2.5-1.4-4.4-1.4c-2.1,0-3.5,0.7-4.4,1.7c-1.3,1.4-2,4-2,5.9H464c0.4-4.2,2-8.9,5-12c2.3-2.4,6.4-5,13.2-5
		c7,0,10.7,2.9,12.5,4.5c2.6,2.6,4.5,6.6,4.5,11.5c0,4.2-1.3,7.3-3.6,10.6c-2.1,2.9-4.6,5.3-7.7,8.3l-5,4.8h16.6V1068.6z"/>
	<polygon fill="#D7D7D7" points="462.9,1069.1 463.5,1069.1 471.2,1060 	"/>
	<polygon fill="#1FB9EF" points="477.5,1069.1 499.6,1069.1 499.6,1059.7 485.4,1059.7 	"/>
	<path opacity="0.5" fill="#1FB9EF" d="M494.9,1024.5c-1.7-1.7-5.5-4.5-12.5-4.5c-6.8,0-10.9,2.5-13.2,5c-3,3.1-4.6,7.8-5,12h11.1
		c0-1.9,0.7-4.5,2-5.9c0.9-1,2.3-1.7,4.4-1.7c1.9,0,3.5,0.5,4.4,1.4c1.2,1.1,1.9,3,1.9,4.8c0,3.3-1.8,6.4-2.9,8.1c0,0,0,0,0,0
		l12.7-15C497,1027,496.1,1025.6,494.9,1024.5z"/>
	<path fill="#D7D7D7" d="M485.1,1043.6l-13.9,16.4l6.1-6.6C479.8,1050.6,483.6,1045.9,485.1,1043.6z"/>
	<path fill="#BDBDBD" d="M483,1059.7l5-4.8c3.1-3,5.6-5.4,7.7-8.3c2.3-3.2,3.6-6.3,3.6-10.6c0-2.8-0.6-5.3-1.6-7.4l-12.7,15
		c-1.5,2.3-5.3,7-7.8,9.8l-6.1,6.6l-7.7,9h14l7.9-9.4H483z"/>
</g>
</svg>
