<?xml version="1.0" encoding="utf-8"?>
<!-- Generator: Adobe Illustrator 18.1.1, SVG Export Plug-In . SVG Version: 6.00 Build 0)  -->
<svg version="1.1" xmlns="http://www.w3.org/2000/svg" xmlns:xlink="http://www.w3.org/1999/xlink" x="0px" y="0px"
	 viewBox="-1188 -992 1760 1236" enable-background="new -1188 -992 1760 1236" xml:space="preserve">
<g id="Capa_1">
	<g>
		<path id="world" fill="#CBD702" d="M-214.7-580.7c-165.6,5.6-295.3,144.4-289.6,310s144.4,295.3,310,289.6s295.3-144.4,289.6-310
			C89.7-456.7-49.1-586.4-214.7-580.7z M55.8-299.5l-116,3.9C-62.7-338.3-71.7-379-86.5-416c25.7-11.8,49.4-27.1,70.8-45
			C24.9-418.4,51.3-362.1,55.8-299.5z M-206.4-20c-33.1-25.7-61.2-59.5-82.3-99.2c25.1-8.8,51.7-14,79.4-15.9l3.9,115.1
			C-205.7-19.9-206-19.9-206.4-20z M-202.7-541.9c37.5,29.1,68.7,68.8,90.4,115.6c-27.3,10.4-56.4,16.8-86.9,18.8l-4.6-134.4
			C-203.4-541.9-203.1-541.9-202.7-541.9z M-170.4-539.7c53.7,7.1,102.4,30.4,141,65.2c-19.7,16.2-41.4,30.1-65,40.9
			C-113.5-474.7-139.4-510.8-170.4-539.7z M-223.1-541.2l4.6,134.4c-30.5,0.1-60-4.4-87.9-12.9c18.5-48.1,46.9-89.8,82.4-121.4
			C-223.7-541.2-223.4-541.2-223.1-541.2z M-324.8-425.7c-24.2-9.1-46.8-21.5-67.6-36.4c36-37.4,83.1-63.9,136.2-74.6
			C-285.1-505.8-308.6-468.1-324.8-425.7z M-313.1-401.6c30.2,9.3,62.2,14.3,95.3,14.2l3.3,97.2l-115.7,3.9
			C-330.5-326.9-324.7-365.8-313.1-401.6z M-213.9-270.9l4,116.5c-30.5,2-59.8,8-87.3,17.9c-18.1-39.3-29.5-83.4-32.3-130.5
			L-213.9-270.9z M-238.7-22.1c-48.1-6.3-92.3-25.7-128.6-54.7c18.6-13.9,38.8-25.7,60.5-35C-288.7-77.5-265.5-47.2-238.7-22.1z
			 M-186-20.6l-3.9-115.1c27.7-0.1,54.7,3.4,80.3,10.4c-18.4,41-44.1,76.7-75.4,104.6C-185.3-20.6-185.6-20.6-186-20.6z
			 M-91.1-119.2c22.3,7.7,43.2,18.2,62.8,30.8c-34.3,31.4-77,53.8-124.6,63.3C-127.8-51.8-106.8-83.6-91.1-119.2z M-102.3-143.1
			c-28.1-8-57.8-12-88.3-11.9l-4-116.5l115.7-3.9C-78.5-228.4-86.9-183.6-102.3-143.1z M-195.2-290.9l-3.3-97.2
			c33-2.1,64.6-9.2,94.1-20.6c13.9,34.9,22.4,73.4,24.9,113.9L-195.2-290.9L-195.2-290.9z M-405.1-447.7c22.6,16.4,47.2,30,73.7,40
			c-12.2,37.9-18.5,79.1-18.1,122l-116,3.9C-465.3-344.6-442.8-402.4-405.1-447.7z M-464.9-262.4l116-3.9
			c2.9,49.4,14.8,95.7,33.8,137.1c-24.2,10.4-46.6,23.9-67.2,39.7C-429.2-133.2-460-194.1-464.9-262.4z M-14.2-102.1
			c-21.6-14.3-44.9-26.3-69.7-35c16.1-42.6,24.9-89.6,24.4-139l116-3.9C56.2-211.6,29.7-148.8-14.2-102.1z"/>
	</g>
	<g>
		<path id="world_1_" fill="#CAF0FE" stroke="#CAF0FE" stroke-miterlimit="10" d="M1220,0c-165.7,0-300,134.3-300,300
			s134.3,300,300,300s300-134.3,300-300S1385.7,0,1220,0z M1480.8,290.3h-116.1c-1.1-42.9-8.7-83.8-22.2-121.3
			c26.1-10.9,50.3-25.4,72.3-42.5C1454,170.4,1478.5,227.5,1480.8,290.3z M1209.3,560.7c-32.2-26.8-59.1-61.6-78.9-102
			c25.3-7.9,52.2-12.3,79.9-13.1v115.1C1210,560.8,1209.6,560.8,1209.3,560.7z M1230.7,39.3c36.5,30.4,66.3,71.1,86.4,118.6
			c-27.6,9.4-56.9,14.9-87.4,15.9V39.2C1230,39.2,1230.3,39.2,1230.7,39.3z M1262.9,42.5c53.4,8.9,101.3,33.8,138.7,69.9
			c-20.3,15.5-42.4,28.7-66.3,38.7C1317.6,109.4,1292.9,72.5,1262.9,42.5z M1210.3,39.2v134.5c-30.5-1-59.9-6.4-87.4-15.9
			c20.1-47.5,49.9-88.2,86.4-118.6C1209.7,39.2,1210,39.2,1210.3,39.2z M1104.8,151.2c-23.9-10-46.1-23.1-66.3-38.7
			c37.3-36.1,85.2-61.1,138.7-69.9C1147.1,72.5,1122.4,109.4,1104.8,151.2z M1115.6,175.7c29.8,10.4,61.6,16.4,94.7,17.4v97.3
			h-115.7C1095.6,249.8,1102.8,211.1,1115.6,175.7z M1210.3,309.7v116.6c-30.5,0.9-60,5.9-87.9,14.9
			c-16.8-39.9-26.7-84.4-27.9-131.5H1210.3z M1177.1,557.5c-47.9-8-91.3-28.8-126.7-59.1c19.1-13.2,39.7-24.4,61.7-32.9
			C1129,500.5,1151.1,531.5,1177.1,557.5z M1229.7,560.8V445.7c27.7,0.9,54.6,5.2,79.9,13.1c-19.8,40.4-46.7,75.2-78.9,102
			C1230.4,560.8,1230,560.8,1229.7,560.8z M1327.9,465.5c22,8.5,42.6,19.7,61.7,32.9c-35.3,30.3-78.8,51.1-126.7,59.1
			C1288.9,531.5,1311,500.5,1327.9,465.5z M1317.5,441.2c-27.8-9-57.3-14-87.9-14.9V309.7h115.7
			C1344.2,356.8,1334.3,401.3,1317.5,441.2z M1229.7,290.3v-97.3c33.1-1,64.9-7,94.7-17.4c12.7,35.4,19.9,74.1,21,114.7
			L1229.7,290.3L1229.7,290.3z M1025.2,126.5c22,17.1,46.2,31.6,72.3,42.5c-13.5,37.5-21.2,78.4-22.2,121.3H959.2
			C961.5,227.5,986,170.4,1025.2,126.5z M959.2,309.7h116.1c1.2,49.5,11.5,96.2,29.1,138.1c-24.5,9.6-47.4,22.3-68.5,37.4
			C990.4,440,961.7,378.1,959.2,309.7z M1404.1,485.2c-21.1-15.1-44-27.8-68.5-37.4c17.6-42,27.9-88.7,29.1-138.1h116.1
			C1478.3,378.1,1449.6,440,1404.1,485.2z"/>
	</g>
	<rect x="-363.3" y="-619.3" fill="#FFFFFF" width="324" height="245.3"/>
	<text transform="matrix(1 0 0 1 -351.9999 -400)" fill="#4F4342" font-family="'AmaticSC-Bold'" font-size="250">2015</text>
	<line fill="none" stroke="#4F4342" stroke-width="30" stroke-miterlimit="10" x1="-130" y1="-280.9" x2="-54" y2="-280.9"/>
	<line fill="none" stroke="#4F4342" stroke-width="30" stroke-miterlimit="10" x1="-352" y1="-280.9" x2="-276" y2="-280.9"/>
	<polygon fill="#CAD72B" stroke="#4F4342" stroke-width="20" stroke-miterlimit="10" points="-199.4,-107 -264.1,-207.1 -145,-213 	
		"/>
</g>
<g id="Layer_2">
</g>
</svg>
